1, 720, Note_on_c, 0, 55, 80
1, 720, Note_on_c, 0, 60, 80
1, 720, Note_on_c, 0, 63, 80
1, 1403, Note_on_c, 0, 55, 0
1, 1403, Note_on_c, 0, 60, 0
1, 1403, Note_on_c, 0, 63, 0
1, 1440, Note_on_c, 0, 55, 80
1, 1440, Note_on_c, 0, 60, 80
1, 1440, Note_on_c, 0, 63, 80
1, 1895, Note_on_c, 0, 55, 0
1, 1895, Note_on_c, 0, 60, 0
1, 1895, Note_on_c, 0, 63, 0
1, 2640, Note_on_c, 0, 55, 80
1, 2640, Note_on_c, 0, 60, 80
1, 2640, Note_on_c, 0, 63, 80
1, 3323, Note_on_c, 0, 55, 0
1, 3323, Note_on_c, 0, 60, 0
1, 3323, Note_on_c, 0, 63, 0
1, 3360, Note_on_c, 0, 55, 80
1, 3360, Note_on_c, 0, 60, 80
1, 3360, Note_on_c, 0, 63, 80
1, 3815, Note_on_c, 0, 55, 0
1, 3815, Note_on_c, 0, 60, 0
1, 3815, Note_on_c, 0, 63, 0
1, 3840, Note_on_c, 0, 55, 80
1, 3840, Note_on_c, 0, 58, 80
1, 3840, Note_on_c, 0, 62, 80
1, 4523, Note_on_c, 0, 55, 0
1, 4523, Note_on_c, 0, 58, 0
1, 4523, Note_on_c, 0, 62, 0
1, 4560, Note_on_c, 0, 55, 80
1, 4560, Note_on_c, 0, 58, 80
1, 4560, Note_on_c, 0, 62, 80
1, 5243, Note_on_c, 0, 55, 0
1, 5243, Note_on_c, 0, 58, 0
1, 5243, Note_on_c, 0, 62, 0
1, 5280, Note_on_c, 0, 63, 80
1, 5735, Note_on_c, 0, 63, 0
1, 5760, Note_on_c, 0, 51, 80
1, 5760, Note_on_c, 0, 55, 80
1, 5760, Note_on_c, 0, 60, 80
1, 6720, Note_on_c, 0, 51, 0
1, 7200, Note_on_c, 0, 55, 0
1, 7583, Note_on_c, 0, 60, 0
1, 8400, Note_on_c, 0, 55, 80
1, 8400, Note_on_c, 0, 60, 80
1, 8400, Note_on_c, 0, 63, 80
1, 9083, Note_on_c, 0, 55, 0
1, 9083, Note_on_c, 0, 60, 0
1, 9083, Note_on_c, 0, 63, 0
1, 9120, Note_on_c, 0, 55, 80
1, 9120, Note_on_c, 0, 60, 80
1, 9120, Note_on_c, 0, 63, 80
1, 9575, Note_on_c, 0, 55, 0
1, 9575, Note_on_c, 0, 60, 0
1, 9575, Note_on_c, 0, 63, 0
1, 10320, Note_on_c, 0, 55, 80
1, 10320, Note_on_c, 0, 60, 80
1, 10320, Note_on_c, 0, 63, 80
1, 11003, Note_on_c, 0, 55, 0
1, 11003, Note_on_c, 0, 60, 0
1, 11003, Note_on_c, 0, 63, 0
1, 11040, Note_on_c, 0, 55, 80
1, 11040, Note_on_c, 0, 60, 80
1, 11040, Note_on_c, 0, 63, 80
1, 11495, Note_on_c, 0, 55, 0
1, 11495, Note_on_c, 0, 60, 0
1, 11495, Note_on_c, 0, 63, 0
1, 11520, Note_on_c, 0, 55, 80
1, 11520, Note_on_c, 0, 58, 80
1, 11520, Note_on_c, 0, 62, 80
1, 12203, Note_on_c, 0, 55, 0
1, 12203, Note_on_c, 0, 58, 0
1, 12203, Note_on_c, 0, 62, 0
1, 12240, Note_on_c, 0, 55, 80
1, 12240, Note_on_c, 0, 58, 80
1, 12240, Note_on_c, 0, 62, 80
1, 12923, Note_on_c, 0, 55, 0
1, 12923, Note_on_c, 0, 58, 0
1, 12923, Note_on_c, 0, 62, 0
1, 12960, Note_on_c, 0, 63, 80
1, 13415, Note_on_c, 0, 63, 0
1, 13440, Note_on_c, 0, 51, 80
1, 13440, Note_on_c, 0, 55, 80
1, 13440, Note_on_c, 0, 60, 80
1, 14400, Note_on_c, 0, 51, 0
1, 14880, Note_on_c, 0, 55, 0
1, 15263, Note_on_c, 0, 60, 0
1, 15360, Note_on_c, 0, 51, 80
1, 15360, Note_on_c, 0, 56, 80
1, 15360, Note_on_c, 0, 60, 80
1, 15360, Note_on_c, 0, 68, 80
1, 16271, Note_on_c, 0, 68, 0
1, 16320, Note_on_c, 0, 70, 80
1, 16775, Note_on_c, 0, 70, 0
1, 16800, Note_on_c, 0, 68, 80
1, 17183, Note_on_c, 0, 51, 0
1, 17183, Note_on_c, 0, 56, 0
1, 17183, Note_on_c, 0, 60, 0
1, 17255, Note_on_c, 0, 68, 0
1, 17280, Note_on_c, 0, 51, 80
1, 17280, Note_on_c, 0, 55, 80
1, 17280, Note_on_c, 0, 60, 80
1, 17280, Note_on_c, 0, 67, 80
1, 18191, Note_on_c, 0, 67, 0
1, 18240, Note_on_c, 0, 65, 80
1, 18695, Note_on_c, 0, 65, 0
1, 18720, Note_on_c, 0, 63, 80
1, 19103, Note_on_c, 0, 51, 0
1, 19103, Note_on_c, 0, 55, 0
1, 19103, Note_on_c, 0, 60, 0
1, 19175, Note_on_c, 0, 63, 0
1, 19200, Note_on_c, 0, 50, 80
1, 19200, Note_on_c, 0, 55, 80
1, 19200, Note_on_c, 0, 58, 80
1, 19200, Note_on_c, 0, 65, 80
1, 20111, Note_on_c, 0, 65, 0
1, 20160, Note_on_c, 0, 67, 80
1, 20615, Note_on_c, 0, 67, 0
1, 20640, Note_on_c, 0, 63, 80
1, 21023, Note_on_c, 0, 50, 0
1, 21023, Note_on_c, 0, 55, 0
1, 21023, Note_on_c, 0, 58, 0
1, 21095, Note_on_c, 0, 63, 0
1, 21120, Note_on_c, 0, 60, 80
1, 22943, Note_on_c, 0, 60, 0
1, 23040, Note_on_c, 0, 51, 80
1, 23040, Note_on_c, 0, 56, 80
1, 23040, Note_on_c, 0, 60, 80
1, 23040, Note_on_c, 0, 68, 80
1, 23951, Note_on_c, 0, 68, 0
1, 24000, Note_on_c, 0, 70, 80
1, 24455, Note_on_c, 0, 70, 0
1, 24480, Note_on_c, 0, 68, 80
1, 24863, Note_on_c, 0, 51, 0
1, 24863, Note_on_c, 0, 56, 0
1, 24863, Note_on_c, 0, 60, 0
1, 24935, Note_on_c, 0, 68, 0
1, 24960, Note_on_c, 0, 51, 80
1, 24960, Note_on_c, 0, 55, 80
1, 24960, Note_on_c, 0, 60, 80
1, 24960, Note_on_c, 0, 67, 80
1, 25871, Note_on_c, 0, 67, 0
1, 25920, Note_on_c, 0, 65, 80
1, 26375, Note_on_c, 0, 65, 0
1, 26400, Note_on_c, 0, 63, 80
1, 26783, Note_on_c, 0, 51, 0
1, 26783, Note_on_c, 0, 55, 0
1, 26783, Note_on_c, 0, 60, 0
1, 26855, Note_on_c, 0, 63, 0
1, 26880, Note_on_c, 0, 50, 80
1, 26880, Note_on_c, 0, 55, 80
1, 26880, Note_on_c, 0, 58, 80
1, 26880, Note_on_c, 0, 65, 80
1, 27791, Note_on_c, 0, 65, 0
1, 27840, Note_on_c, 0, 63, 80
1, 28295, Note_on_c, 0, 63, 0
1, 28320, Note_on_c, 0, 60, 80
1, 28703, Note_on_c, 0, 50, 0
1, 28703, Note_on_c, 0, 55, 0
1, 28703, Note_on_c, 0, 58, 0
1, 28800, Note_on_c, 0, 51, 80
1, 28800, Note_on_c, 0, 55, 80
1, 29760, Note_on_c, 0, 51, 0
1, 30240, Note_on_c, 0, 55, 0
1, 30599, Note_on_c, 0, 60, 0
1, 30720, Note_on_c, 0, 56, 80
1, 30720, Note_on_c, 0, 60, 80
1, 30720, Note_on_c, 0, 65, 80
1, 32543, Note_on_c, 0, 56, 0
1, 32543, Note_on_c, 0, 60, 0
1, 32543, Note_on_c, 0, 65, 0
1, 32640, Note_on_c, 0, 55, 80
1, 32640, Note_on_c, 0, 60, 80
1, 32640, Note_on_c, 0, 63, 80
1, 33551, Note_on_c, 0, 55, 0
1, 33551, Note_on_c, 0, 60, 0
1, 33551, Note_on_c, 0, 63, 0
1, 33600, Note_on_c, 0, 63, 80
1, 33827, Note_on_c, 0, 63, 0
1, 34080, Note_on_c, 0, 60, 80
1, 34307, Note_on_c, 0, 60, 0
1, 34560, Note_on_c, 0, 55, 80
1, 34560, Note_on_c, 0, 58, 80
1, 34560, Note_on_c, 0, 62, 80
1, 35471, Note_on_c, 0, 55, 0
1, 35471, Note_on_c, 0, 58, 0
1, 35471, Note_on_c, 0, 62, 0
1, 35520, Note_on_c, 0, 50, 80
1, 35520, Note_on_c, 0, 55, 80
1, 35520, Note_on_c, 0, 58, 80
1, 35975, Note_on_c, 0, 58, 0
1, 36000, Note_on_c, 0, 60, 80
1, 36431, Note_on_c, 0, 50, 0
1, 36431, Note_on_c, 0, 55, 0
1, 36455, Note_on_c, 0, 60, 0
1, 36480, Note_on_c, 0, 51, 80
1, 36480, Note_on_c, 0, 55, 80
1, 36480, Note_on_c, 0, 60, 80
1, 37440, Note_on_c, 0, 51, 0
1, 37920, Note_on_c, 0, 55, 0
1, 38303, Note_on_c, 0, 60, 0
1, 38400, Note_on_c, 0, 56, 80
1, 38400, Note_on_c, 0, 60, 80
1, 38400, Note_on_c, 0, 65, 80
1, 40223, Note_on_c, 0, 56, 0
1, 40223, Note_on_c, 0, 60, 0
1, 40223, Note_on_c, 0, 65, 0
1, 40320, Note_on_c, 0, 55, 80
1, 40320, Note_on_c, 0, 60, 80
1, 40320, Note_on_c, 0, 63, 80
1, 41231, Note_on_c, 0, 55, 0
1, 41231, Note_on_c, 0, 60, 0
1, 41231, Note_on_c, 0, 63, 0
1, 41280, Note_on_c, 0, 63, 80
1, 41507, Note_on_c, 0, 63, 0
1, 41760, Note_on_c, 0, 60, 80
1, 41987, Note_on_c, 0, 60, 0
1, 42240, Note_on_c, 0, 55, 80
1, 42240, Note_on_c, 0, 58, 80
1, 42240, Note_on_c, 0, 62, 80
1, 43151, Note_on_c, 0, 55, 0
1, 43151, Note_on_c, 0, 58, 0
1, 43151, Note_on_c, 0, 62, 0
1, 43200, Note_on_c, 0, 50, 80
1, 43200, Note_on_c, 0, 55, 80
1, 43200, Note_on_c, 0, 58, 80
1, 43655, Note_on_c, 0, 58, 0
1, 43680, Note_on_c, 0, 60, 80
1, 44111, Note_on_c, 0, 50, 0
1, 44111, Note_on_c, 0, 55, 0
1, 44135, Note_on_c, 0, 60, 0
1, 44160, Note_on_c, 0, 51, 80
1, 44160, Note_on_c, 0, 55, 80
1, 44160, Note_on_c, 0, 60, 80
1, 45120, Note_on_c, 0, 51, 0
1, 45600, Note_on_c, 0, 55, 0
1, 45983, Note_on_c, 0, 60, 0
2, 0, Note_on_c, 0, 36, 80
2, 0, Note_on_c, 0, 48, 80
2, 1823, Note_on_c, 0, 36, 0
2, 1823, Note_on_c, 0, 48, 0
2, 1920, Note_on_c, 0, 36, 80
2, 1920, Note_on_c, 0, 48, 80
2, 3743, Note_on_c, 0, 36, 0
2, 3743, Note_on_c, 0, 48, 0
2, 3840, Note_on_c, 0, 31, 80
2, 3840, Note_on_c, 0, 43, 80
2, 5663, Note_on_c, 0, 31, 0
2, 5663, Note_on_c, 0, 43, 0
2, 5760, Note_on_c, 0, 36, 80
2, 5760, Note_on_c, 0, 48, 80
2, 6443, Note_on_c, 0, 36, 0
2, 6443, Note_on_c, 0, 48, 0
2, 6480, Note_on_c, 0, 36, 80
2, 6480, Note_on_c, 0, 48, 80
2, 6707, Note_on_c, 0, 36, 0
2, 6707, Note_on_c, 0, 48, 0
2, 6720, Note_on_c, 0, 39, 80
2, 6720, Note_on_c, 0, 51, 80
2, 6947, Note_on_c, 0, 39, 0
2, 7200, Note_on_c, 0, 43, 80
2, 7200, Note_on_c, 0, 55, 80
2, 7427, Note_on_c, 0, 43, 0
2, 7583, Note_on_c, 0, 51, 0
2, 7583, Note_on_c, 0, 55, 0
2, 7680, Note_on_c, 0, 36, 80
2, 7680, Note_on_c, 0, 48, 80
2, 9503, Note_on_c, 0, 36, 0
2, 9503, Note_on_c, 0, 48, 0
2, 9600, Note_on_c, 0, 36, 80
2, 9600, Note_on_c, 0, 48, 80
2, 11423, Note_on_c, 0, 36, 0
2, 11423, Note_on_c, 0, 48, 0
2, 11520, Note_on_c, 0, 31, 80
2, 11520, Note_on_c, 0, 43, 80
2, 13343, Note_on_c, 0, 31, 0
2, 13343, Note_on_c, 0, 43, 0
2, 13440, Note_on_c, 0, 36, 80
2, 13440, Note_on_c, 0, 48, 80
2, 14123, Note_on_c, 0, 36, 0
2, 14123, Note_on_c, 0, 48, 0
2, 14160, Note_on_c, 0, 36, 80
2, 14160, Note_on_c, 0, 48, 80
2, 14387, Note_on_c, 0, 36, 0
2, 14387, Note_on_c, 0, 48, 0
2, 14400, Note_on_c, 0, 39, 80
2, 14400, Note_on_c, 0, 51, 80
2, 14627, Note_on_c, 0, 39, 0
2, 14880, Note_on_c, 0, 43, 80
2, 14880, Note_on_c, 0, 55, 80
2, 15107, Note_on_c, 0, 43, 0
2, 15263, Note_on_c, 0, 51, 0
2, 15263, Note_on_c, 0, 55, 0
2, 15360, Note_on_c, 0, 32, 80
2, 15360, Note_on_c, 0, 44, 80
2, 17183, Note_on_c, 0, 32, 0
2, 17183, Note_on_c, 0, 44, 0
2, 17280, Note_on_c, 0, 36, 80
2, 17280, Note_on_c, 0, 48, 80
2, 18647, Note_on_c, 0, 36, 0
2, 18647, Note_on_c, 0, 48, 0
2, 18720, Note_on_c, 0, 36, 80
2, 18720, Note_on_c, 0, 48, 80
2, 19175, Note_on_c, 0, 36, 0
2, 19175, Note_on_c, 0, 48, 0
2, 19200, Note_on_c, 0, 43, 80
2, 19200, Note_on_c, 0, 31, 80
2, 20339, Note_on_c, 0, 43, 0
2, 20400, Note_on_c, 0, 43, 80
2, 21023, Note_on_c, 0, 31, 0
2, 21083, Note_on_c, 0, 43, 0
2, 21120, Note_on_c, 0, 36, 80
2, 21120, Note_on_c, 0, 48, 80
2, 21803, Note_on_c, 0, 36, 0
2, 21803, Note_on_c, 0, 48, 0
2, 21840, Note_on_c, 0, 36, 80
2, 21840, Note_on_c, 0, 48, 80
2, 22067, Note_on_c, 0, 36, 0
2, 22067, Note_on_c, 0, 48, 0
2, 22080, Note_on_c, 0, 39, 80
2, 22080, Note_on_c, 0, 51, 80
2, 22307, Note_on_c, 0, 39, 0
2, 22307, Note_on_c, 0, 51, 0
2, 22560, Note_on_c, 0, 43, 80
2, 22560, Note_on_c, 0, 55, 80
2, 22787, Note_on_c, 0, 43, 0
2, 22787, Note_on_c, 0, 55, 0
2, 23040, Note_on_c, 0, 32, 80
2, 23040, Note_on_c, 0, 44, 80
2, 24863, Note_on_c, 0, 32, 0
2, 24863, Note_on_c, 0, 44, 0
2, 24960, Note_on_c, 0, 36, 80
2, 24960, Note_on_c, 0, 48, 80
2, 26327, Note_on_c, 0, 36, 0
2, 26327, Note_on_c, 0, 48, 0
2, 26400, Note_on_c, 0, 36, 80
2, 26400, Note_on_c, 0, 48, 80
2, 26855, Note_on_c, 0, 36, 0
2, 26855, Note_on_c, 0, 48, 0
2, 26880, Note_on_c, 0, 43, 80
2, 26880, Note_on_c, 0, 31, 80
2, 28019, Note_on_c, 0, 43, 0
2, 28080, Note_on_c, 0, 43, 80
2, 28703, Note_on_c, 0, 31, 0
2, 28763, Note_on_c, 0, 43, 0
2, 28800, Note_on_c, 0, 36, 80
2, 28800, Note_on_c, 0, 48, 80
2, 29483, Note_on_c, 0, 36, 0
2, 29483, Note_on_c, 0, 48, 0
2, 29520, Note_on_c, 0, 36, 80
2, 29520, Note_on_c, 0, 48, 80
2, 29747, Note_on_c, 0, 36, 0
2, 29747, Note_on_c, 0, 48, 0
2, 29760, Note_on_c, 0, 39, 80
2, 29760, Note_on_c, 0, 51, 80
2, 29987, Note_on_c, 0, 39, 0
2, 30240, Note_on_c, 0, 43, 80
2, 30240, Note_on_c, 0, 55, 80
2, 30467, Note_on_c, 0, 43, 0
2, 30623, Note_on_c, 0, 51, 0
2, 30623, Note_on_c, 0, 55, 0
2, 30720, Note_on_c, 0, 41, 80
2, 30720, Note_on_c, 0, 53, 80
2, 32543, Note_on_c, 0, 41, 0
2, 32543, Note_on_c, 0, 53, 0
2, 32640, Note_on_c, 0, 36, 80
2, 32640, Note_on_c, 0, 48, 80
2, 34463, Note_on_c, 0, 36, 0
2, 34463, Note_on_c, 0, 48, 0
2, 34560, Note_on_c, 0, 31, 80
2, 34560, Note_on_c, 0, 43, 80
2, 36383, Note_on_c, 0, 31, 0
2, 36383, Note_on_c, 0, 43, 0
2, 36480, Note_on_c, 0, 36, 80
2, 36480, Note_on_c, 0, 48, 80
2, 37163, Note_on_c, 0, 36, 0
2, 37163, Note_on_c, 0, 48, 0
2, 37200, Note_on_c, 0, 36, 80
2, 37200, Note_on_c, 0, 48, 80
2, 37427, Note_on_c, 0, 36, 0
2, 37427, Note_on_c, 0, 48, 0
2, 37440, Note_on_c, 0, 39, 80
2, 37440, Note_on_c, 0, 51, 80
2, 37667, Note_on_c, 0, 39, 0
2, 37920, Note_on_c, 0, 43, 80
2, 37920, Note_on_c, 0, 55, 80
2, 38147, Note_on_c, 0, 43, 0
2, 38303, Note_on_c, 0, 51, 0
2, 38303, Note_on_c, 0, 55, 0
2, 38400, Note_on_c, 0, 41, 80
2, 38400, Note_on_c, 0, 53, 80
2, 40223, Note_on_c, 0, 41, 0
2, 40223, Note_on_c, 0, 53, 0
2, 40320, Note_on_c, 0, 48, 80
2, 40320, Note_on_c, 0, 36, 80
2, 41003, Note_on_c, 0, 48, 0
2, 41040, Note_on_c, 0, 48, 80
2, 42143, Note_on_c, 0, 36, 0
2, 42179, Note_on_c, 0, 48, 0
2, 42240, Note_on_c, 0, 31, 80
2, 42240, Note_on_c, 0, 43, 80
2, 44063, Note_on_c, 0, 31, 0
2, 44063, Note_on_c, 0, 43, 0
2, 44160, Note_on_c, 0, 36, 80
2, 44160, Note_on_c, 0, 48, 80
2, 44843, Note_on_c, 0, 36, 0
2, 44843, Note_on_c, 0, 48, 0
2, 44880, Note_on_c, 0, 36, 80
2, 44880, Note_on_c, 0, 48, 80
2, 45107, Note_on_c, 0, 36, 0
2, 45107, Note_on_c, 0, 48, 0
2, 45120, Note_on_c, 0, 39, 80
2, 45120, Note_on_c, 0, 51, 80
2, 45347, Note_on_c, 0, 39, 0
2, 45600, Note_on_c, 0, 43, 80
2, 45600, Note_on_c, 0, 55, 80
2, 45827, Note_on_c, 0, 43, 0
2, 45983, Note_on_c, 0, 51, 0
2, 45983, Note_on_c, 0, 55, 0
1, 0, Note_on_c, 0, 69, 71
1, 227, Note_on_c, 0, 69, 0
1, 240, Note_on_c, 0, 72, 67
1, 467, Note_on_c, 0, 72, 0
1, 480, Note_on_c, 0, 74, 69
1, 821, Note_on_c, 0, 74, 0
1, 840, Note_on_c, 0, 72, 80
1, 1181, Note_on_c, 0, 72, 0
1, 1200, Note_on_c, 0, 70, 75
1, 1427, Note_on_c, 0, 70, 0
1, 1440, Note_on_c, 0, 69, 55
1, 1781, Note_on_c, 0, 69, 0
1, 1800, Note_on_c, 0, 67, 58
1, 2141, Note_on_c, 0, 67, 0
1, 2160, Note_on_c, 0, 65, 77
1, 2387, Note_on_c, 0, 65, 0
1, 2400, Note_on_c, 0, 64, 88
1, 2855, Note_on_c, 0, 64, 0
1, 2880, Note_on_c, 0, 62, 83
1, 3335, Note_on_c, 0, 62, 0
1, 3840, Note_on_c, 0, 69, 71
1, 4067, Note_on_c, 0, 69, 0
1, 4080, Note_on_c, 0, 72, 67
1, 4307, Note_on_c, 0, 72, 0
1, 4320, Note_on_c, 0, 74, 69
1, 4661, Note_on_c, 0, 74, 0
1, 4680, Note_on_c, 0, 72, 80
1, 5021, Note_on_c, 0, 72, 0
1, 5040, Note_on_c, 0, 70, 75
1, 5267, Note_on_c, 0, 70, 0
1, 5280, Note_on_c, 0, 69, 55
1, 5621, Note_on_c, 0, 69, 0
1, 5640, Note_on_c, 0, 67, 58
1, 5981, Note_on_c, 0, 67, 0
1, 6000, Note_on_c, 0, 65, 77
1, 6227, Note_on_c, 0, 65, 0
1, 6240, Note_on_c, 0, 64, 88
1, 6695, Note_on_c, 0, 64, 0
1, 6720, Note_on_c, 0, 62, 83
1, 7175, Note_on_c, 0, 62, 0
1, 7680, Note_on_c, 0, 69, 69
1, 7907, Note_on_c, 0, 69, 0
1, 7920, Note_on_c, 0, 72, 79
1, 8147, Note_on_c, 0, 72, 0
1, 8160, Note_on_c, 0, 74, 79
1, 8501, Note_on_c, 0, 74, 0
1, 8520, Note_on_c, 0, 72, 79
1, 8861, Note_on_c, 0, 72, 0
1, 8880, Note_on_c, 0, 70, 54
1, 9107, Note_on_c, 0, 70, 0
1, 9120, Note_on_c, 0, 69, 67
1, 9461, Note_on_c, 0, 69, 0
1, 9480, Note_on_c, 0, 67, 73
1, 9821, Note_on_c, 0, 67, 0
1, 9840, Note_on_c, 0, 65, 60
1, 10067, Note_on_c, 0, 65, 0
1, 10080, Note_on_c, 0, 64, 76
1, 10535, Note_on_c, 0, 64, 0
1, 10560, Note_on_c, 0, 62, 71
1, 11015, Note_on_c, 0, 62, 0
1, 11520, Note_on_c, 0, 69, 56
1, 11747, Note_on_c, 0, 69, 0
1, 11760, Note_on_c, 0, 72, 77
1, 11987, Note_on_c, 0, 72, 0
1, 12000, Note_on_c, 0, 74, 83
1, 12341, Note_on_c, 0, 74, 0
1, 12360, Note_on_c, 0, 72, 69
1, 12701, Note_on_c, 0, 72, 0
1, 12720, Note_on_c, 0, 70, 63
1, 12947, Note_on_c, 0, 70, 0
1, 12960, Note_on_c, 0, 69, 53
1, 13301, Note_on_c, 0, 69, 0
1, 13320, Note_on_c, 0, 67, 63
1, 13661, Note_on_c, 0, 67, 0
1, 13680, Note_on_c, 0, 65, 59
1, 13907, Note_on_c, 0, 65, 0
1, 13920, Note_on_c, 0, 64, 68
1, 14375, Note_on_c, 0, 64, 0
1, 14400, Note_on_c, 0, 62, 64
1, 14855, Note_on_c, 0, 62, 0
1, 15840, Note_on_c, 0, 72, 107
1, 16067, Note_on_c, 0, 72, 0
1, 16080, Note_on_c, 0, 72, 107
1, 16193, Note_on_c, 0, 72, 0
1, 16200, Note_on_c, 0, 69, 65
1, 16427, Note_on_c, 0, 69, 0
1, 16440, Note_on_c, 0, 69, 102
1, 16553, Note_on_c, 0, 69, 0
1, 16560, Note_on_c, 0, 67, 100
1, 16787, Note_on_c, 0, 67, 0
1, 16800, Note_on_c, 0, 67, 102
1, 17711, Note_on_c, 0, 67, 0
1, 17760, Note_on_c, 0, 64, 100
1, 17760, Note_on_c, 0, 69, 74
1, 17987, Note_on_c, 0, 64, 0
1, 17987, Note_on_c, 0, 69, 0
1, 18000, Note_on_c, 0, 64, 90
1, 18000, Note_on_c, 0, 69, 71
1, 18113, Note_on_c, 0, 64, 0
1, 18113, Note_on_c, 0, 69, 0
1, 18120, Note_on_c, 0, 64, 85
1, 18120, Note_on_c, 0, 69, 83
1, 18347, Note_on_c, 0, 64, 0
1, 18347, Note_on_c, 0, 69, 0
1, 18360, Note_on_c, 0, 64, 92
1, 18360, Note_on_c, 0, 69, 76
1, 18473, Note_on_c, 0, 64, 0
1, 18473, Note_on_c, 0, 69, 0
1, 18480, Note_on_c, 0, 65, 97
1, 18480, Note_on_c, 0, 67, 73
1, 18707, Note_on_c, 0, 65, 0
1, 18707, Note_on_c, 0, 67, 0
1, 18720, Note_on_c, 0, 65, 30
1, 19631, Note_on_c, 0, 65, 0
1, 19680, Note_on_c, 0, 72, 107
1, 19680, Note_on_c, 0, 77, 97
1, 19907, Note_on_c, 0, 72, 0
1, 19907, Note_on_c, 0, 77, 0
1, 19920, Note_on_c, 0, 72, 107
1, 19920, Note_on_c, 0, 77, 104
1, 20033, Note_on_c, 0, 72, 0
1, 20033, Note_on_c, 0, 77, 0
1, 20040, Note_on_c, 0, 69, 65
1, 20040, Note_on_c, 0, 72, 104
1, 20267, Note_on_c, 0, 69, 0
1, 20267, Note_on_c, 0, 72, 0
1, 20280, Note_on_c, 0, 69, 102
1, 20280, Note_on_c, 0, 72, 88
1, 20393, Note_on_c, 0, 69, 0
1, 20393, Note_on_c, 0, 72, 0
1, 20400, Note_on_c, 0, 67, 100
1, 20400, Note_on_c, 0, 72, 76
1, 20627, Note_on_c, 0, 67, 0
1, 20627, Note_on_c, 0, 72, 0
1, 20640, Note_on_c, 0, 67, 102
1, 20640, Note_on_c, 0, 72, 75
1, 21551, Note_on_c, 0, 67, 0
1, 21551, Note_on_c, 0, 72, 0
1, 21600, Note_on_c, 0, 64, 100
1, 21600, Note_on_c, 0, 69, 74
1, 21827, Note_on_c, 0, 64, 0
1, 21827, Note_on_c, 0, 69, 0
1, 21840, Note_on_c, 0, 64, 90
1, 21840, Note_on_c, 0, 69, 71
1, 21953, Note_on_c, 0, 64, 0
1, 21953, Note_on_c, 0, 69, 0
1, 21960, Note_on_c, 0, 64, 85
1, 21960, Note_on_c, 0, 69, 83
1, 22187, Note_on_c, 0, 64, 0
1, 22187, Note_on_c, 0, 69, 0
1, 22200, Note_on_c, 0, 64, 92
1, 22200, Note_on_c, 0, 69, 76
1, 22313, Note_on_c, 0, 64, 0
1, 22313, Note_on_c, 0, 69, 0
1, 22320, Note_on_c, 0, 65, 97
1, 22320, Note_on_c, 0, 67, 73
1, 22547, Note_on_c, 0, 65, 0
1, 22547, Note_on_c, 0, 67, 0
1, 22560, Note_on_c, 0, 65, 30
1, 22787, Note_on_c, 0, 65, 0
1, 22800, Note_on_c, 0, 67, 69
1, 22800, Note_on_c, 0, 79, 88
1, 23027, Note_on_c, 0, 67, 0
1, 23027, Note_on_c, 0, 79, 0
1, 23280, Note_on_c, 0, 65, 60
1, 23280, Note_on_c, 0, 77, 63
1, 23507, Note_on_c, 0, 65, 0
1, 23507, Note_on_c, 0, 77, 0
1, 23520, Note_on_c, 0, 69, 97
1, 23520, Note_on_c, 0, 72, 82
1, 23520, Note_on_c, 0, 77, 85
1, 23747, Note_on_c, 0, 69, 0
1, 23747, Note_on_c, 0, 72, 0
1, 23747, Note_on_c, 0, 77, 0
1, 23760, Note_on_c, 0, 72, 97
1, 23760, Note_on_c, 0, 77, 92
1, 23873, Note_on_c, 0, 72, 0
1, 23873, Note_on_c, 0, 77, 0
1, 23880, Note_on_c, 0, 69, 107
1, 23880, Note_on_c, 0, 76, 85
1, 24107, Note_on_c, 0, 69, 0
1, 24107, Note_on_c, 0, 76, 0
1, 24120, Note_on_c, 0, 69, 97
1, 24120, Note_on_c, 0, 76, 104
1, 24233, Note_on_c, 0, 69, 0
1, 24233, Note_on_c, 0, 76, 0
1, 24240, Note_on_c, 0, 67, 97
1, 24240, Note_on_c, 0, 74, 92
1, 24467, Note_on_c, 0, 67, 0
1, 24467, Note_on_c, 0, 74, 0
1, 24480, Note_on_c, 0, 67, 100
1, 24480, Note_on_c, 0, 72, 104
1, 25391, Note_on_c, 0, 67, 0
1, 25391, Note_on_c, 0, 72, 0
1, 25440, Note_on_c, 0, 67, 104
1, 25440, Note_on_c, 0, 69, 90
1, 25440, Note_on_c, 0, 76, 97
1, 25667, Note_on_c, 0, 67, 0
1, 25667, Note_on_c, 0, 69, 0
1, 25667, Note_on_c, 0, 76, 0
1, 25680, Note_on_c, 0, 69, 81
1, 25680, Note_on_c, 0, 76, 102
1, 25793, Note_on_c, 0, 69, 0
1, 25793, Note_on_c, 0, 76, 0
1, 25800, Note_on_c, 0, 69, 85
1, 25800, Note_on_c, 0, 76, 97
1, 26027, Note_on_c, 0, 69, 0
1, 26027, Note_on_c, 0, 76, 0
1, 26040, Note_on_c, 0, 69, 104
1, 26040, Note_on_c, 0, 76, 111
1, 26153, Note_on_c, 0, 69, 0
1, 26153, Note_on_c, 0, 76, 0
1, 26160, Note_on_c, 0, 67, 100
1, 26160, Note_on_c, 0, 77, 85
1, 26387, Note_on_c, 0, 67, 0
1, 26387, Note_on_c, 0, 77, 0
1, 26880, Note_on_c, 0, 65, 79
1, 27335, Note_on_c, 0, 65, 0
1, 27360, Note_on_c, 0, 69, 92
1, 27360, Note_on_c, 0, 72, 75
1, 27587, Note_on_c, 0, 69, 0
1, 27587, Note_on_c, 0, 72, 0
1, 27600, Note_on_c, 0, 72, 95
1, 27713, Note_on_c, 0, 72, 0
1, 27720, Note_on_c, 0, 69, 92
1, 27947, Note_on_c, 0, 69, 0
1, 27960, Note_on_c, 0, 69, 85
1, 28073, Note_on_c, 0, 69, 0
1, 28080, Note_on_c, 0, 67, 79
1, 28307, Note_on_c, 0, 67, 0
1, 28320, Note_on_c, 0, 67, 81
1, 28320, Note_on_c, 0, 76, 102
1, 28547, Note_on_c, 0, 67, 0
1, 28547, Note_on_c, 0, 76, 0
1, 28560, Note_on_c, 0, 76, 100
1, 28673, Note_on_c, 0, 76, 0
1, 28680, Note_on_c, 0, 74, 88
1, 28907, Note_on_c, 0, 74, 0
1, 28920, Note_on_c, 0, 74, 95
1, 29033, Note_on_c, 0, 74, 0
1, 29040, Note_on_c, 0, 72, 88
1, 29267, Note_on_c, 0, 72, 0
1, 29280, Note_on_c, 0, 67, 104
1, 29280, Note_on_c, 0, 69, 92
1, 29507, Note_on_c, 0, 67, 0
1, 29507, Note_on_c, 0, 69, 0
1, 29520, Note_on_c, 0, 69, 88
1, 29633, Note_on_c, 0, 69, 0
1, 29640, Note_on_c, 0, 69, 97
1, 29867, Note_on_c, 0, 69, 0
1, 29880, Note_on_c, 0, 69, 104
1, 29993, Note_on_c, 0, 69, 0
1, 30000, Note_on_c, 0, 67, 100
1, 30227, Note_on_c, 0, 67, 0
1, 30720, Note_on_c, 0, 65, 83
1, 31175, Note_on_c, 0, 65, 0
1, 31200, Note_on_c, 0, 72, 107
1, 31427, Note_on_c, 0, 72, 0
1, 31440, Note_on_c, 0, 72, 107
1, 31553, Note_on_c, 0, 72, 0
1, 31560, Note_on_c, 0, 69, 65
1, 31787, Note_on_c, 0, 69, 0
1, 31800, Note_on_c, 0, 69, 102
1, 31913, Note_on_c, 0, 69, 0
1, 31920, Note_on_c, 0, 67, 100
1, 32147, Note_on_c, 0, 67, 0
1, 32160, Note_on_c, 0, 67, 102
1, 33071, Note_on_c, 0, 67, 0
1, 33120, Note_on_c, 0, 64, 100
1, 33120, Note_on_c, 0, 69, 74
1, 33347, Note_on_c, 0, 64, 0
1, 33347, Note_on_c, 0, 69, 0
1, 33360, Note_on_c, 0, 64, 90
1, 33360, Note_on_c, 0, 69, 71
1, 33473, Note_on_c, 0, 64, 0
1, 33473, Note_on_c, 0, 69, 0
1, 33480, Note_on_c, 0, 64, 85
1, 33480, Note_on_c, 0, 69, 83
1, 33707, Note_on_c, 0, 64, 0
1, 33707, Note_on_c, 0, 69, 0
1, 33720, Note_on_c, 0, 64, 92
1, 33720, Note_on_c, 0, 69, 76
1, 33833, Note_on_c, 0, 64, 0
1, 33833, Note_on_c, 0, 69, 0
1, 33840, Note_on_c, 0, 65, 97
1, 33840, Note_on_c, 0, 67, 73
1, 34067, Note_on_c, 0, 65, 0
1, 34067, Note_on_c, 0, 67, 0
1, 34080, Note_on_c, 0, 65, 30
1, 34991, Note_on_c, 0, 65, 0
1, 35040, Note_on_c, 0, 72, 107
1, 35040, Note_on_c, 0, 77, 97
1, 35267, Note_on_c, 0, 72, 0
1, 35267, Note_on_c, 0, 77, 0
1, 35280, Note_on_c, 0, 72, 107
1, 35280, Note_on_c, 0, 77, 104
1, 35393, Note_on_c, 0, 72, 0
1, 35393, Note_on_c, 0, 77, 0
1, 35400, Note_on_c, 0, 69, 65
1, 35400, Note_on_c, 0, 72, 104
1, 35627, Note_on_c, 0, 69, 0
1, 35627, Note_on_c, 0, 72, 0
1, 35640, Note_on_c, 0, 69, 102
1, 35640, Note_on_c, 0, 72, 88
1, 35753, Note_on_c, 0, 69, 0
1, 35753, Note_on_c, 0, 72, 0
1, 35760, Note_on_c, 0, 67, 100
1, 35760, Note_on_c, 0, 72, 76
1, 35987, Note_on_c, 0, 67, 0
1, 35987, Note_on_c, 0, 72, 0
1, 36000, Note_on_c, 0, 67, 102
1, 36000, Note_on_c, 0, 72, 75
1, 36911, Note_on_c, 0, 67, 0
1, 36911, Note_on_c, 0, 72, 0
1, 36960, Note_on_c, 0, 64, 100
1, 36960, Note_on_c, 0, 69, 74
1, 37187, Note_on_c, 0, 64, 0
1, 37187, Note_on_c, 0, 69, 0
1, 37200, Note_on_c, 0, 64, 90
1, 37200, Note_on_c, 0, 69, 71
1, 37313, Note_on_c, 0, 64, 0
1, 37313, Note_on_c, 0, 69, 0
1, 37320, Note_on_c, 0, 64, 85
1, 37320, Note_on_c, 0, 69, 83
1, 37547, Note_on_c, 0, 64, 0
1, 37547, Note_on_c, 0, 69, 0
1, 37560, Note_on_c, 0, 64, 92
1, 37560, Note_on_c, 0, 69, 76
1, 37673, Note_on_c, 0, 64, 0
1, 37673, Note_on_c, 0, 69, 0
1, 37680, Note_on_c, 0, 65, 97
1, 37680, Note_on_c, 0, 67, 73
1, 37907, Note_on_c, 0, 65, 0
1, 37907, Note_on_c, 0, 67, 0
1, 37920, Note_on_c, 0, 65, 30
1, 38147, Note_on_c, 0, 65, 0
1, 38160, Note_on_c, 0, 67, 69
1, 38160, Note_on_c, 0, 79, 88
1, 38615, Note_on_c, 0, 67, 0
1, 38615, Note_on_c, 0, 79, 0
1, 38640, Note_on_c, 0, 65, 60
1, 38640, Note_on_c, 0, 77, 63
1, 38867, Note_on_c, 0, 65, 0
1, 38867, Note_on_c, 0, 77, 0
1, 38880, Note_on_c, 0, 69, 97
1, 38880, Note_on_c, 0, 72, 82
1, 38880, Note_on_c, 0, 77, 85
1, 39107, Note_on_c, 0, 69, 0
1, 39107, Note_on_c, 0, 72, 0
1, 39107, Note_on_c, 0, 77, 0
1, 39120, Note_on_c, 0, 72, 97
1, 39120, Note_on_c, 0, 77, 92
1, 39233, Note_on_c, 0, 72, 0
1, 39233, Note_on_c, 0, 77, 0
1, 39240, Note_on_c, 0, 69, 107
1, 39240, Note_on_c, 0, 76, 85
1, 39467, Note_on_c, 0, 69, 0
1, 39467, Note_on_c, 0, 76, 0
1, 39480, Note_on_c, 0, 69, 97
1, 39480, Note_on_c, 0, 76, 104
1, 39593, Note_on_c, 0, 69, 0
1, 39593, Note_on_c, 0, 76, 0
1, 39600, Note_on_c, 0, 67, 97
1, 39600, Note_on_c, 0, 74, 92
1, 39827, Note_on_c, 0, 67, 0
1, 39827, Note_on_c, 0, 74, 0
1, 39840, Note_on_c, 0, 67, 100
1, 39840, Note_on_c, 0, 72, 104
1, 40751, Note_on_c, 0, 67, 0
1, 40751, Note_on_c, 0, 72, 0
1, 40800, Note_on_c, 0, 67, 104
1, 40800, Note_on_c, 0, 69, 90
1, 40800, Note_on_c, 0, 76, 97
1, 41027, Note_on_c, 0, 67, 0
1, 41027, Note_on_c, 0, 69, 0
1, 41027, Note_on_c, 0, 76, 0
1, 41040, Note_on_c, 0, 69, 81
1, 41040, Note_on_c, 0, 76, 102
1, 41153, Note_on_c, 0, 69, 0
1, 41153, Note_on_c, 0, 76, 0
1, 41160, Note_on_c, 0, 69, 85
1, 41160, Note_on_c, 0, 76, 97
1, 41387, Note_on_c, 0, 69, 0
1, 41387, Note_on_c, 0, 76, 0
1, 41400, Note_on_c, 0, 69, 104
1, 41400, Note_on_c, 0, 76, 111
1, 41513, Note_on_c, 0, 69, 0
1, 41513, Note_on_c, 0, 76, 0
1, 41520, Note_on_c, 0, 67, 100
1, 41520, Note_on_c, 0, 77, 85
1, 42203, Note_on_c, 0, 67, 0
1, 42203, Note_on_c, 0, 77, 0
1, 42240, Note_on_c, 0, 65, 79
1, 42695, Note_on_c, 0, 65, 0
1, 42720, Note_on_c, 0, 69, 92
1, 42720, Note_on_c, 0, 72, 75
1, 42947, Note_on_c, 0, 69, 0
1, 42947, Note_on_c, 0, 72, 0
1, 42960, Note_on_c, 0, 72, 95
1, 43073, Note_on_c, 0, 72, 0
1, 43080, Note_on_c, 0, 69, 92
1, 43307, Note_on_c, 0, 69, 0
1, 43320, Note_on_c, 0, 69, 85
1, 43433, Note_on_c, 0, 69, 0
1, 43440, Note_on_c, 0, 67, 79
1, 43667, Note_on_c, 0, 67, 0
1, 43680, Note_on_c, 0, 67, 81
1, 43680, Note_on_c, 0, 76, 102
1, 43907, Note_on_c, 0, 67, 0
1, 43907, Note_on_c, 0, 76, 0
1, 43920, Note_on_c, 0, 76, 100
1, 44033, Note_on_c, 0, 76, 0
1, 44040, Note_on_c, 0, 74, 88
1, 44267, Note_on_c, 0, 74, 0
1, 44280, Note_on_c, 0, 74, 95
1, 44393, Note_on_c, 0, 74, 0
1, 44400, Note_on_c, 0, 72, 88
1, 44627, Note_on_c, 0, 72, 0
1, 44640, Note_on_c, 0, 67, 104
1, 44640, Note_on_c, 0, 69, 92
1, 44867, Note_on_c, 0, 67, 0
1, 44867, Note_on_c, 0, 69, 0
1, 44880, Note_on_c, 0, 69, 88
1, 44993, Note_on_c, 0, 69, 0
1, 45000, Note_on_c, 0, 69, 97
1, 45227, Note_on_c, 0, 69, 0
1, 45240, Note_on_c, 0, 69, 104
1, 45353, Note_on_c, 0, 69, 0
1, 45360, Note_on_c, 0, 67, 100
1, 45587, Note_on_c, 0, 67, 0
1, 45600, Note_on_c, 0, 77, 95
1, 45713, Note_on_c, 0, 77, 0
1, 45720, Note_on_c, 0, 79, 92
1, 45833, Note_on_c, 0, 79, 0
1, 45840, Note_on_c, 0, 81, 88
1, 45953, Note_on_c, 0, 81, 0
1, 45960, Note_on_c, 0, 79, 95
1, 46073, Note_on_c, 0, 79, 0
1, 46080, Note_on_c, 0, 65, 83
1, 46307, Note_on_c, 0, 65, 0
1, 46320, Note_on_c, 0, 77, 92
1, 46547, Note_on_c, 0, 77, 0
1, 48480, Note_on_c, 0, 66, 64
1, 48593, Note_on_c, 0, 66, 0
1, 48600, Note_on_c, 0, 65, 79
1, 48713, Note_on_c, 0, 65, 0
1, 48720, Note_on_c, 0, 63, 76
1, 48947, Note_on_c, 0, 63, 0
1, 48960, Note_on_c, 0, 66, 97
1, 49073, Note_on_c, 0, 66, 0
1, 49080, Note_on_c, 0, 65, 77
1, 49193, Note_on_c, 0, 65, 0
1, 49200, Note_on_c, 0, 63, 59
1, 49883, Note_on_c, 0, 63, 0
1, 55200, Note_on_c, 0, 56, 107
1, 55427, Note_on_c, 0, 56, 0
1, 55440, Note_on_c, 0, 56, 111
1, 55553, Note_on_c, 0, 56, 0
1, 55560, Note_on_c, 0, 56, 97
1, 55673, Note_on_c, 0, 56, 0
1, 55680, Note_on_c, 0, 56, 97
1, 55680, Note_on_c, 0, 58, 95
1, 55793, Note_on_c, 0, 56, 0
1, 55793, Note_on_c, 0, 58, 0
1, 55800, Note_on_c, 0, 54, 104
1, 55913, Note_on_c, 0, 54, 0
1, 55920, Note_on_c, 0, 51, 106
1, 56147, Note_on_c, 0, 51, 0
1, 56160, Note_on_c, 0, 56, 92
1, 56387, Note_on_c, 0, 56, 0
1, 56400, Note_on_c, 0, 51, 80
1, 56627, Note_on_c, 0, 51, 0
1, 56640, Note_on_c, 0, 56, 85
1, 57095, Note_on_c, 0, 56, 0
1, 57120, Note_on_c, 0, 56, 100
1, 57271, Note_on_c, 0, 56, 0
1, 57280, Note_on_c, 0, 56, 92
1, 57431, Note_on_c, 0, 56, 0
1, 57440, Note_on_c, 0, 51, 99
1, 57591, Note_on_c, 0, 51, 0
1, 57600, Note_on_c, 0, 56, 104
1, 57751, Note_on_c, 0, 56, 0
1, 57760, Note_on_c, 0, 56, 94
1, 57911, Note_on_c, 0, 56, 0
1, 57920, Note_on_c, 0, 51, 97
1, 58071, Note_on_c, 0, 51, 0
1, 59040, Note_on_c, 0, 56, 100
1, 59191, Note_on_c, 0, 56, 0
1, 59200, Note_on_c, 0, 56, 92
1, 59351, Note_on_c, 0, 56, 0
1, 59360, Note_on_c, 0, 51, 99
1, 59511, Note_on_c, 0, 51, 0
1, 59520, Note_on_c, 0, 58, 95
1, 59671, Note_on_c, 0, 58, 0
1, 59680, Note_on_c, 0, 58, 92
1, 59831, Note_on_c, 0, 58, 0
1, 59840, Note_on_c, 0, 51, 99
1, 59991, Note_on_c, 0, 51, 0
1, 60000, Note_on_c, 0, 56, 92
1, 60227, Note_on_c, 0, 56, 0
1, 60240, Note_on_c, 0, 51, 80
1, 60467, Note_on_c, 0, 51, 0
1, 60480, Note_on_c, 0, 56, 85
1, 60935, Note_on_c, 0, 56, 0
1, 60960, Note_on_c, 0, 56, 100
1, 61187, Note_on_c, 0, 56, 0
1, 61200, Note_on_c, 0, 51, 101
1, 61313, Note_on_c, 0, 51, 0
1, 61320, Note_on_c, 0, 51, 99
1, 61433, Note_on_c, 0, 51, 0
1, 61440, Note_on_c, 0, 56, 104
1, 61591, Note_on_c, 0, 56, 0
1, 61600, Note_on_c, 0, 56, 95
1, 61751, Note_on_c, 0, 56, 0
1, 61760, Note_on_c, 0, 56, 88
1, 61911, Note_on_c, 0, 56, 0
1, 62880, Note_on_c, 0, 56, 107
1, 63107, Note_on_c, 0, 56, 0
1, 63120, Note_on_c, 0, 56, 111
1, 63233, Note_on_c, 0, 56, 0
1, 63240, Note_on_c, 0, 56, 97
1, 63353, Note_on_c, 0, 56, 0
1, 63360, Note_on_c, 0, 56, 103
1, 63360, Note_on_c, 0, 58, 94
1, 63473, Note_on_c, 0, 56, 0
1, 63473, Note_on_c, 0, 58, 0
1, 63480, Note_on_c, 0, 54, 102
1, 63593, Note_on_c, 0, 54, 0
1, 63600, Note_on_c, 0, 51, 105
1, 63827, Note_on_c, 0, 51, 0
1, 63840, Note_on_c, 0, 56, 92
1, 64067, Note_on_c, 0, 56, 0
1, 64080, Note_on_c, 0, 51, 80
1, 64307, Note_on_c, 0, 51, 0
1, 64320, Note_on_c, 0, 56, 85
1, 64775, Note_on_c, 0, 56, 0
1, 64800, Note_on_c, 0, 56, 100
1, 64951, Note_on_c, 0, 56, 0
1, 64960, Note_on_c, 0, 56, 92
1, 65111, Note_on_c, 0, 56, 0
1, 65120, Note_on_c, 0, 51, 99
1, 65271, Note_on_c, 0, 51, 0
1, 65280, Note_on_c, 0, 56, 104
1, 65431, Note_on_c, 0, 56, 0
1, 65440, Note_on_c, 0, 56, 102
1, 65591, Note_on_c, 0, 56, 0
1, 65600, Note_on_c, 0, 51, 106
1, 65751, Note_on_c, 0, 51, 0
1, 66720, Note_on_c, 0, 56, 100
1, 66871, Note_on_c, 0, 56, 0
1, 66880, Note_on_c, 0, 56, 92
1, 67031, Note_on_c, 0, 56, 0
1, 67040, Note_on_c, 0, 51, 99
1, 67191, Note_on_c, 0, 51, 0
1, 67200, Note_on_c, 0, 56, 95
1, 67351, Note_on_c, 0, 56, 0
1, 67360, Note_on_c, 0, 56, 92
1, 67511, Note_on_c, 0, 56, 0
1, 67520, Note_on_c, 0, 51, 99
1, 67671, Note_on_c, 0, 51, 0
1, 67680, Note_on_c, 0, 56, 92
1, 67907, Note_on_c, 0, 56, 0
1, 67920, Note_on_c, 0, 51, 80
1, 68147, Note_on_c, 0, 51, 0
1, 68160, Note_on_c, 0, 56, 85
1, 68615, Note_on_c, 0, 56, 0
1, 68640, Note_on_c, 0, 56, 100
1, 68791, Note_on_c, 0, 56, 0
1, 68800, Note_on_c, 0, 56, 92
1, 68951, Note_on_c, 0, 56, 0
1, 68960, Note_on_c, 0, 51, 99
1, 69111, Note_on_c, 0, 51, 0
1, 69120, Note_on_c, 0, 56, 104
1, 69271, Note_on_c, 0, 56, 0
1, 69280, Note_on_c, 0, 56, 95
1, 69431, Note_on_c, 0, 56, 0
1, 69440, Note_on_c, 0, 56, 105
1, 69591, Note_on_c, 0, 56, 0
1, 70560, Note_on_c, 0, 56, 107
1, 70787, Note_on_c, 0, 56, 0
1, 70800, Note_on_c, 0, 56, 111
1, 70913, Note_on_c, 0, 56, 0
1, 70920, Note_on_c, 0, 56, 97
1, 71033, Note_on_c, 0, 56, 0
1, 71040, Note_on_c, 0, 56, 97
1, 71040, Note_on_c, 0, 58, 95
1, 71153, Note_on_c, 0, 56, 0
1, 71153, Note_on_c, 0, 58, 0
1, 71160, Note_on_c, 0, 54, 102
1, 71273, Note_on_c, 0, 54, 0
1, 71280, Note_on_c, 0, 51, 104
1, 71507, Note_on_c, 0, 51, 0
1, 71520, Note_on_c, 0, 56, 92
1, 71747, Note_on_c, 0, 56, 0
1, 71760, Note_on_c, 0, 51, 80
1, 71987, Note_on_c, 0, 51, 0
1, 72000, Note_on_c, 0, 56, 85
1, 72455, Note_on_c, 0, 56, 0
1, 72480, Note_on_c, 0, 56, 100
1, 72631, Note_on_c, 0, 56, 0
1, 72640, Note_on_c, 0, 56, 92
1, 72791, Note_on_c, 0, 56, 0
1, 72800, Note_on_c, 0, 51, 99
1, 72951, Note_on_c, 0, 51, 0
1, 72960, Note_on_c, 0, 56, 104
1, 73111, Note_on_c, 0, 56, 0
1, 73120, Note_on_c, 0, 56, 102
1, 73271, Note_on_c, 0, 56, 0
1, 73280, Note_on_c, 0, 51, 106
1, 73431, Note_on_c, 0, 51, 0
1, 74400, Note_on_c, 0, 56, 100
1, 74551, Note_on_c, 0, 56, 0
1, 74560, Note_on_c, 0, 56, 92
1, 74711, Note_on_c, 0, 56, 0
1, 74720, Note_on_c, 0, 51, 99
1, 74871, Note_on_c, 0, 51, 0
1, 74880, Note_on_c, 0, 56, 95
1, 75031, Note_on_c, 0, 56, 0
1, 75040, Note_on_c, 0, 56, 92
1, 75191, Note_on_c, 0, 56, 0
1, 75200, Note_on_c, 0, 51, 99
1, 75351, Note_on_c, 0, 51, 0
1, 75360, Note_on_c, 0, 56, 92
1, 75587, Note_on_c, 0, 56, 0
1, 75600, Note_on_c, 0, 51, 80
1, 75827, Note_on_c, 0, 51, 0
1, 75840, Note_on_c, 0, 56, 85
1, 76637, Note_on_c, 0, 56, 0
1, 76680, Note_on_c, 0, 51, 88
1, 77249, Note_on_c, 0, 51, 0
1, 78240, Note_on_c, 0, 56, 107
1, 78467, Note_on_c, 0, 56, 0
1, 78480, Note_on_c, 0, 56, 111
1, 78593, Note_on_c, 0, 56, 0
1, 78600, Note_on_c, 0, 56, 97
1, 78713, Note_on_c, 0, 56, 0
1, 78720, Note_on_c, 0, 56, 97
1, 78720, Note_on_c, 0, 58, 95
1, 78833, Note_on_c, 0, 56, 0
1, 78833, Note_on_c, 0, 58, 0
1, 78840, Note_on_c, 0, 54, 89
1, 78953, Note_on_c, 0, 54, 0
1, 78960, Note_on_c, 0, 51, 91
1, 79187, Note_on_c, 0, 51, 0
1, 79200, Note_on_c, 0, 56, 92
1, 79427, Note_on_c, 0, 56, 0
1, 79440, Note_on_c, 0, 51, 80
1, 79667, Note_on_c, 0, 51, 0
1, 79680, Note_on_c, 0, 56, 85
1, 80135, Note_on_c, 0, 56, 0
1, 80160, Note_on_c, 0, 56, 100
1, 80311, Note_on_c, 0, 56, 0
1, 80320, Note_on_c, 0, 56, 92
1, 80471, Note_on_c, 0, 56, 0
1, 80480, Note_on_c, 0, 51, 99
1, 80631, Note_on_c, 0, 51, 0
1, 80640, Note_on_c, 0, 56, 104
1, 80791, Note_on_c, 0, 56, 0
1, 80800, Note_on_c, 0, 56, 85
1, 80951, Note_on_c, 0, 56, 0
1, 80960, Note_on_c, 0, 51, 88
1, 81111, Note_on_c, 0, 51, 0
1, 82080, Note_on_c, 0, 56, 100
1, 82231, Note_on_c, 0, 56, 0
1, 82240, Note_on_c, 0, 56, 92
1, 82391, Note_on_c, 0, 56, 0
1, 82400, Note_on_c, 0, 51, 99
1, 82551, Note_on_c, 0, 51, 0
1, 82560, Note_on_c, 0, 56, 95
1, 82711, Note_on_c, 0, 56, 0
1, 82720, Note_on_c, 0, 56, 92
1, 82871, Note_on_c, 0, 56, 0
1, 82880, Note_on_c, 0, 51, 99
1, 83031, Note_on_c, 0, 51, 0
1, 83040, Note_on_c, 0, 56, 92
1, 83267, Note_on_c, 0, 56, 0
1, 83280, Note_on_c, 0, 51, 80
1, 83507, Note_on_c, 0, 51, 0
1, 83520, Note_on_c, 0, 56, 85
1, 83975, Note_on_c, 0, 56, 0
1, 84000, Note_on_c, 0, 56, 100
1, 84151, Note_on_c, 0, 56, 0
1, 84160, Note_on_c, 0, 56, 92
1, 84311, Note_on_c, 0, 56, 0
1, 84320, Note_on_c, 0, 51, 99
1, 84471, Note_on_c, 0, 51, 0
1, 84480, Note_on_c, 0, 56, 104
1, 84631, Note_on_c, 0, 56, 0
1, 84640, Note_on_c, 0, 56, 95
1, 84791, Note_on_c, 0, 56, 0
1, 84800, Note_on_c, 0, 56, 88
1, 84951, Note_on_c, 0, 56, 0
1, 85920, Note_on_c, 0, 56, 98
1, 86147, Note_on_c, 0, 56, 0
1, 86160, Note_on_c, 0, 51, 103
1, 86387, Note_on_c, 0, 51, 0
1, 86400, Note_on_c, 0, 49, 83
1, 86400, Note_on_c, 0, 58, 95
1, 86855, Note_on_c, 0, 49, 0
1, 86855, Note_on_c, 0, 58, 0
1, 86880, Note_on_c, 0, 51, 102
1, 86880, Note_on_c, 0, 56, 92
1, 87107, Note_on_c, 0, 51, 0
1, 87107, Note_on_c, 0, 56, 0
1, 87120, Note_on_c, 0, 51, 80
1, 87347, Note_on_c, 0, 51, 0
1, 87360, Note_on_c, 0, 56, 85
1, 87815, Note_on_c, 0, 56, 0
1, 87840, Note_on_c, 0, 56, 103
1, 88067, Note_on_c, 0, 56, 0
1, 88080, Note_on_c, 0, 51, 88
1, 88307, Note_on_c, 0, 51, 0
1, 88320, Note_on_c, 0, 49, 96
1, 88547, Note_on_c, 0, 49, 0
1, 88560, Note_on_c, 0, 46, 100
1, 88787, Note_on_c, 0, 46, 0
1, 88800, Note_on_c, 0, 51, 92
1, 89027, Note_on_c, 0, 51, 0
1, 89040, Note_on_c, 0, 46, 75
1, 89267, Note_on_c, 0, 46, 0
1, 89280, Note_on_c, 0, 51, 92
1, 90191, Note_on_c, 0, 51, 0
1, 90240, Note_on_c, 0, 51, 76
1, 90467, Note_on_c, 0, 51, 0
1, 90480, Note_on_c, 0, 58, 76
1, 90707, Note_on_c, 0, 58, 0
1, 90720, Note_on_c, 0, 56, 92
1, 90947, Note_on_c, 0, 56, 0
1, 90960, Note_on_c, 0, 51, 80
1, 91187, Note_on_c, 0, 51, 0
1, 91200, Note_on_c, 0, 56, 85
1, 91655, Note_on_c, 0, 56, 0
1, 93120, Note_on_c, 0, 60, 72
1, 93120, Note_on_c, 0, 69, 78
1, 93575, Note_on_c, 0, 60, 0
1, 93575, Note_on_c, 0, 69, 0
1, 93600, Note_on_c, 0, 65, 72
1, 93600, Note_on_c, 0, 72, 72
1, 94055, Note_on_c, 0, 65, 0
1, 94055, Note_on_c, 0, 72, 0
1, 94080, Note_on_c, 0, 67, 69
1, 94080, Note_on_c, 0, 74, 80
1, 94307, Note_on_c, 0, 67, 0
1, 94307, Note_on_c, 0, 74, 0
1, 94320, Note_on_c, 0, 65, 65
1, 94320, Note_on_c, 0, 72, 78
1, 94547, Note_on_c, 0, 65, 0
1, 94547, Note_on_c, 0, 72, 0
1, 94560, Note_on_c, 0, 69, 69
1, 94560, Note_on_c, 0, 77, 80
1, 95015, Note_on_c, 0, 69, 0
1, 95015, Note_on_c, 0, 77, 0
1, 95040, Note_on_c, 0, 69, 72
1, 95040, Note_on_c, 0, 77, 71
1, 95495, Note_on_c, 0, 69, 0
1, 95495, Note_on_c, 0, 77, 0
1, 95520, Note_on_c, 0, 67, 72
1, 95520, Note_on_c, 0, 74, 80
1, 95747, Note_on_c, 0, 67, 0
1, 95747, Note_on_c, 0, 74, 0
1, 95760, Note_on_c, 0, 65, 77
1, 95760, Note_on_c, 0, 72, 73
1, 95987, Note_on_c, 0, 65, 0
1, 95987, Note_on_c, 0, 72, 0
1, 96000, Note_on_c, 0, 65, 73
1, 96000, Note_on_c, 0, 72, 78
1, 96455, Note_on_c, 0, 65, 0
1, 96455, Note_on_c, 0, 72, 0
1, 96480, Note_on_c, 0, 62, 70
1, 96480, Note_on_c, 0, 69, 63
1, 96935, Note_on_c, 0, 62, 0
1, 96935, Note_on_c, 0, 69, 0
1, 96960, Note_on_c, 0, 67, 67
1, 96960, Note_on_c, 0, 74, 71
1, 97187, Note_on_c, 0, 67, 0
1, 97187, Note_on_c, 0, 74, 0
1, 97200, Note_on_c, 0, 69, 70
1, 97200, Note_on_c, 0, 76, 72
1, 97427, Note_on_c, 0, 69, 0
1, 97427, Note_on_c, 0, 76, 0
1, 97440, Note_on_c, 0, 67, 78
1, 97440, Note_on_c, 0, 74, 72
1, 97667, Note_on_c, 0, 67, 0
1, 97667, Note_on_c, 0, 74, 0
1, 97680, Note_on_c, 0, 65, 74
1, 97680, Note_on_c, 0, 72, 79
1, 97907, Note_on_c, 0, 65, 0
1, 97907, Note_on_c, 0, 72, 0
1, 97920, Note_on_c, 0, 65, 72
1, 97920, Note_on_c, 0, 72, 78
1, 98375, Note_on_c, 0, 65, 0
1, 98375, Note_on_c, 0, 72, 0
1, 98400, Note_on_c, 0, 62, 66
1, 98400, Note_on_c, 0, 69, 65
1, 98855, Note_on_c, 0, 62, 0
1, 98855, Note_on_c, 0, 69, 0
1, 98880, Note_on_c, 0, 67, 59
1, 98880, Note_on_c, 0, 74, 60
1, 99107, Note_on_c, 0, 67, 0
1, 99107, Note_on_c, 0, 74, 0
1, 99120, Note_on_c, 0, 69, 58
1, 99120, Note_on_c, 0, 76, 72
1, 99347, Note_on_c, 0, 69, 0
1, 99347, Note_on_c, 0, 76, 0
1, 99360, Note_on_c, 0, 72, 72
1, 99360, Note_on_c, 0, 77, 82
1, 99587, Note_on_c, 0, 72, 0
1, 99587, Note_on_c, 0, 77, 0
1, 99600, Note_on_c, 0, 65, 82
1, 99827, Note_on_c, 0, 65, 0
1, 99840, Note_on_c, 0, 67, 68
1, 99840, Note_on_c, 0, 74, 79
1, 100067, Note_on_c, 0, 67, 0
1, 100067, Note_on_c, 0, 74, 0
1, 100080, Note_on_c, 0, 69, 55
1, 100080, Note_on_c, 0, 76, 73
1, 100307, Note_on_c, 0, 69, 0
1, 100307, Note_on_c, 0, 76, 0
1, 100320, Note_on_c, 0, 69, 80
1, 100320, Note_on_c, 0, 72, 61
1, 100320, Note_on_c, 0, 77, 64
1, 100547, Note_on_c, 0, 69, 0
1, 100547, Note_on_c, 0, 72, 0
1, 100547, Note_on_c, 0, 77, 0
1, 100560, Note_on_c, 0, 65, 73
1, 100787, Note_on_c, 0, 65, 0
1, 100800, Note_on_c, 0, 77, 68
1, 101027, Note_on_c, 0, 77, 0
1, 101040, Note_on_c, 0, 67, 80
1, 101040, Note_on_c, 0, 77, 79
1, 101267, Note_on_c, 0, 67, 0
1, 101267, Note_on_c, 0, 77, 0
1, 101280, Note_on_c, 0, 77, 78
1, 101507, Note_on_c, 0, 77, 0
1, 101520, Note_on_c, 0, 65, 68
1, 101747, Note_on_c, 0, 65, 0
1, 101760, Note_on_c, 0, 65, 81
1, 101760, Note_on_c, 0, 77, 68
1, 101987, Note_on_c, 0, 65, 0
1, 101987, Note_on_c, 0, 77, 0
1, 102000, Note_on_c, 0, 77, 65
1, 102227, Note_on_c, 0, 77, 0
1, 102240, Note_on_c, 0, 69, 81
1, 102240, Note_on_c, 0, 77, 78
1, 102467, Note_on_c, 0, 69, 0
1, 102467, Note_on_c, 0, 77, 0
1, 102480, Note_on_c, 0, 65, 69
1, 102707, Note_on_c, 0, 65, 0
1, 102720, Note_on_c, 0, 77, 64
1, 102947, Note_on_c, 0, 77, 0
1, 102960, Note_on_c, 0, 67, 83
1, 102960, Note_on_c, 0, 77, 75
1, 103187, Note_on_c, 0, 67, 0
1, 103187, Note_on_c, 0, 77, 0
1, 103200, Note_on_c, 0, 77, 80
1, 103427, Note_on_c, 0, 77, 0
1, 103440, Note_on_c, 0, 65, 73
1, 103667, Note_on_c, 0, 65, 0
1, 103680, Note_on_c, 0, 65, 81
1, 103680, Note_on_c, 0, 77, 67
1, 103907, Note_on_c, 0, 65, 0
1, 103907, Note_on_c, 0, 77, 0
1, 103920, Note_on_c, 0, 77, 62
1, 104147, Note_on_c, 0, 77, 0
1, 104160, Note_on_c, 0, 69, 85
1, 104160, Note_on_c, 0, 77, 74
1, 104387, Note_on_c, 0, 69, 0
1, 104387, Note_on_c, 0, 77, 0
1, 104400, Note_on_c, 0, 65, 72
1, 104627, Note_on_c, 0, 65, 0
1, 104640, Note_on_c, 0, 77, 69
1, 104867, Note_on_c, 0, 77, 0
1, 104880, Note_on_c, 0, 67, 90
1, 104880, Note_on_c, 0, 77, 75
1, 105107, Note_on_c, 0, 67, 0
1, 105107, Note_on_c, 0, 77, 0
1, 105120, Note_on_c, 0, 77, 78
1, 105347, Note_on_c, 0, 77, 0
1, 105360, Note_on_c, 0, 65, 71
1, 105587, Note_on_c, 0, 65, 0
1, 105600, Note_on_c, 0, 65, 81
1, 105600, Note_on_c, 0, 77, 64
1, 105827, Note_on_c, 0, 65, 0
1, 105827, Note_on_c, 0, 77, 0
1, 105840, Note_on_c, 0, 77, 69
1, 106067, Note_on_c, 0, 77, 0
1, 106080, Note_on_c, 0, 69, 77
1, 106080, Note_on_c, 0, 77, 77
1, 106307, Note_on_c, 0, 69, 0
1, 106307, Note_on_c, 0, 77, 0
1, 106320, Note_on_c, 0, 65, 73
1, 106547, Note_on_c, 0, 65, 0
1, 106560, Note_on_c, 0, 77, 68
1, 106787, Note_on_c, 0, 77, 0
1, 106800, Note_on_c, 0, 67, 81
1, 106800, Note_on_c, 0, 77, 73
1, 107027, Note_on_c, 0, 67, 0
1, 107027, Note_on_c, 0, 77, 0
1, 107520, Note_on_c, 0, 77, 75
1, 107747, Note_on_c, 0, 77, 0
1, 107760, Note_on_c, 0, 65, 78
1, 109811, Note_on_c, 0, 65, 0
1, 109920, Note_on_c, 0, 65, 81
1, 109920, Note_on_c, 0, 72, 83
1, 109920, Note_on_c, 0, 75, 83
1, 109920, Note_on_c, 0, 77, 90
1, 113567, Note_on_c, 0, 65, 0
1, 113567, Note_on_c, 0, 72, 0
1, 113567, Note_on_c, 0, 75, 0
1, 113567, Note_on_c, 0, 77, 0
1, 114720, Note_on_c, 0, 56, 107
1, 114947, Note_on_c, 0, 56, 0
1, 114960, Note_on_c, 0, 56, 111
1, 115073, Note_on_c, 0, 56, 0
1, 115080, Note_on_c, 0, 56, 97
1, 115193, Note_on_c, 0, 56, 0
1, 115200, Note_on_c, 0, 56, 97
1, 115200, Note_on_c, 0, 58, 95
1, 115313, Note_on_c, 0, 56, 0
1, 115313, Note_on_c, 0, 58, 0
1, 115320, Note_on_c, 0, 54, 89
1, 115433, Note_on_c, 0, 54, 0
1, 115440, Note_on_c, 0, 51, 91
1, 115667, Note_on_c, 0, 51, 0
1, 115680, Note_on_c, 0, 56, 92
1, 115907, Note_on_c, 0, 56, 0
1, 115920, Note_on_c, 0, 51, 80
1, 116147, Note_on_c, 0, 51, 0
1, 116160, Note_on_c, 0, 56, 85
1, 116615, Note_on_c, 0, 56, 0
1, 116640, Note_on_c, 0, 56, 100
1, 116791, Note_on_c, 0, 56, 0
1, 116800, Note_on_c, 0, 56, 92
1, 116951, Note_on_c, 0, 56, 0
1, 116960, Note_on_c, 0, 51, 99
1, 117111, Note_on_c, 0, 51, 0
1, 117120, Note_on_c, 0, 49, 96
1, 117120, Note_on_c, 0, 56, 104
1, 117233, Note_on_c, 0, 56, 0
1, 117240, Note_on_c, 0, 56, 85
1, 117347, Note_on_c, 0, 49, 0
1, 117360, Note_on_c, 0, 46, 100
1, 117420, Note_on_c, 0, 51, 88
1, 117581, Note_on_c, 0, 56, 0
1, 117587, Note_on_c, 0, 46, 0
1, 117590, Note_on_c, 0, 51, 0
1, 118560, Note_on_c, 0, 56, 100
1, 118711, Note_on_c, 0, 56, 0
1, 118720, Note_on_c, 0, 56, 92
1, 118871, Note_on_c, 0, 56, 0
1, 118880, Note_on_c, 0, 51, 99
1, 119031, Note_on_c, 0, 51, 0
1, 119040, Note_on_c, 0, 56, 95
1, 119191, Note_on_c, 0, 56, 0
1, 119200, Note_on_c, 0, 56, 92
1, 119351, Note_on_c, 0, 56, 0
1, 119360, Note_on_c, 0, 51, 99
1, 119511, Note_on_c, 0, 51, 0
1, 119520, Note_on_c, 0, 56, 92
1, 119747, Note_on_c, 0, 56, 0
1, 119760, Note_on_c, 0, 51, 80
1, 119987, Note_on_c, 0, 51, 0
1, 120000, Note_on_c, 0, 56, 85
1, 120455, Note_on_c, 0, 56, 0
1, 120480, Note_on_c, 0, 56, 100
1, 120631, Note_on_c, 0, 56, 0
1, 120640, Note_on_c, 0, 56, 92
1, 120791, Note_on_c, 0, 56, 0
1, 120800, Note_on_c, 0, 51, 99
1, 120951, Note_on_c, 0, 51, 0
1, 120960, Note_on_c, 0, 49, 96
1, 120960, Note_on_c, 0, 56, 104
1, 121073, Note_on_c, 0, 56, 0
1, 121080, Note_on_c, 0, 56, 95
1, 121187, Note_on_c, 0, 49, 0
1, 121200, Note_on_c, 0, 46, 100
1, 121250, Note_on_c, 0, 56, 0
1, 121260, Note_on_c, 0, 56, 88
1, 121427, Note_on_c, 0, 46, 0
1, 121430, Note_on_c, 0, 56, 0
1, 122400, Note_on_c, 0, 56, 107
1, 122627, Note_on_c, 0, 56, 0
1, 122640, Note_on_c, 0, 56, 111
1, 122753, Note_on_c, 0, 56, 0
1, 122760, Note_on_c, 0, 56, 97
1, 122873, Note_on_c, 0, 56, 0
1, 122880, Note_on_c, 0, 56, 97
1, 122880, Note_on_c, 0, 58, 95
1, 122993, Note_on_c, 0, 56, 0
1, 122993, Note_on_c, 0, 58, 0
1, 123000, Note_on_c, 0, 54, 89
1, 123113, Note_on_c, 0, 54, 0
1, 123120, Note_on_c, 0, 51, 91
1, 123347, Note_on_c, 0, 51, 0
1, 123360, Note_on_c, 0, 56, 92
1, 123587, Note_on_c, 0, 56, 0
1, 123600, Note_on_c, 0, 51, 80
1, 123827, Note_on_c, 0, 51, 0
1, 123840, Note_on_c, 0, 56, 85
1, 124295, Note_on_c, 0, 56, 0
1, 124320, Note_on_c, 0, 56, 100
1, 124471, Note_on_c, 0, 56, 0
1, 124480, Note_on_c, 0, 56, 92
1, 124631, Note_on_c, 0, 56, 0
1, 124640, Note_on_c, 0, 51, 99
1, 124791, Note_on_c, 0, 51, 0
1, 124800, Note_on_c, 0, 56, 104
1, 124951, Note_on_c, 0, 56, 0
1, 124960, Note_on_c, 0, 56, 85
1, 125111, Note_on_c, 0, 56, 0
1, 125120, Note_on_c, 0, 51, 88
1, 125271, Note_on_c, 0, 51, 0
1, 126240, Note_on_c, 0, 56, 100
1, 126391, Note_on_c, 0, 56, 0
1, 126400, Note_on_c, 0, 56, 92
1, 126551, Note_on_c, 0, 56, 0
1, 126560, Note_on_c, 0, 51, 99
1, 126711, Note_on_c, 0, 51, 0
1, 126720, Note_on_c, 0, 56, 95
1, 126871, Note_on_c, 0, 56, 0
1, 126880, Note_on_c, 0, 56, 92
1, 127031, Note_on_c, 0, 56, 0
1, 127040, Note_on_c, 0, 51, 99
1, 127191, Note_on_c, 0, 51, 0
1, 127200, Note_on_c, 0, 56, 92
1, 127427, Note_on_c, 0, 56, 0
1, 127440, Note_on_c, 0, 51, 80
1, 127667, Note_on_c, 0, 51, 0
1, 127680, Note_on_c, 0, 56, 85
1, 128135, Note_on_c, 0, 56, 0
1, 128160, Note_on_c, 0, 56, 100
1, 128311, Note_on_c, 0, 56, 0
1, 128320, Note_on_c, 0, 56, 92
1, 128471, Note_on_c, 0, 56, 0
1, 128480, Note_on_c, 0, 51, 99
1, 128631, Note_on_c, 0, 51, 0
1, 128640, Note_on_c, 0, 56, 104
1, 128791, Note_on_c, 0, 56, 0
1, 128800, Note_on_c, 0, 56, 95
1, 128951, Note_on_c, 0, 56, 0
1, 128960, Note_on_c, 0, 56, 88
1, 129111, Note_on_c, 0, 56, 0
1, 130080, Note_on_c, 0, 56, 107
1, 130307, Note_on_c, 0, 56, 0
1, 130320, Note_on_c, 0, 56, 111
1, 130433, Note_on_c, 0, 56, 0
1, 130440, Note_on_c, 0, 56, 97
1, 130553, Note_on_c, 0, 56, 0
1, 130560, Note_on_c, 0, 56, 97
1, 130560, Note_on_c, 0, 58, 95
1, 130673, Note_on_c, 0, 56, 0
1, 130673, Note_on_c, 0, 58, 0
1, 130680, Note_on_c, 0, 54, 89
1, 130793, Note_on_c, 0, 54, 0
1, 130800, Note_on_c, 0, 51, 91
1, 131027, Note_on_c, 0, 51, 0
1, 131040, Note_on_c, 0, 56, 92
1, 131267, Note_on_c, 0, 56, 0
1, 131280, Note_on_c, 0, 51, 80
1, 131507, Note_on_c, 0, 51, 0
1, 131520, Note_on_c, 0, 56, 85
1, 131975, Note_on_c, 0, 56, 0
1, 132000, Note_on_c, 0, 56, 100
1, 132151, Note_on_c, 0, 56, 0
1, 132160, Note_on_c, 0, 56, 92
1, 132311, Note_on_c, 0, 56, 0
1, 132320, Note_on_c, 0, 51, 99
1, 132471, Note_on_c, 0, 51, 0
1, 132480, Note_on_c, 0, 56, 104
1, 132631, Note_on_c, 0, 56, 0
1, 132640, Note_on_c, 0, 56, 85
1, 132791, Note_on_c, 0, 56, 0
1, 132800, Note_on_c, 0, 51, 88
1, 132951, Note_on_c, 0, 51, 0
1, 133920, Note_on_c, 0, 56, 100
1, 134071, Note_on_c, 0, 56, 0
1, 134080, Note_on_c, 0, 56, 92
1, 134231, Note_on_c, 0, 56, 0
1, 134240, Note_on_c, 0, 51, 99
1, 134391, Note_on_c, 0, 51, 0
1, 134400, Note_on_c, 0, 56, 95
1, 134551, Note_on_c, 0, 56, 0
1, 134560, Note_on_c, 0, 56, 92
1, 134711, Note_on_c, 0, 56, 0
1, 134720, Note_on_c, 0, 51, 99
1, 134871, Note_on_c, 0, 51, 0
1, 134880, Note_on_c, 0, 56, 92
1, 135107, Note_on_c, 0, 56, 0
1, 135120, Note_on_c, 0, 51, 80
1, 135347, Note_on_c, 0, 51, 0
1, 135360, Note_on_c, 0, 56, 85
1, 135815, Note_on_c, 0, 56, 0
1, 135840, Note_on_c, 0, 56, 100
1, 135991, Note_on_c, 0, 56, 0
1, 136000, Note_on_c, 0, 56, 92
1, 136151, Note_on_c, 0, 56, 0
1, 136160, Note_on_c, 0, 51, 99
1, 136311, Note_on_c, 0, 51, 0
1, 136320, Note_on_c, 0, 56, 104
1, 136471, Note_on_c, 0, 56, 0
1, 136480, Note_on_c, 0, 56, 95
1, 136631, Note_on_c, 0, 56, 0
1, 136640, Note_on_c, 0, 56, 88
1, 136791, Note_on_c, 0, 56, 0
1, 137760, Note_on_c, 0, 56, 107
1, 137987, Note_on_c, 0, 56, 0
1, 138000, Note_on_c, 0, 56, 111
1, 138113, Note_on_c, 0, 56, 0
1, 138120, Note_on_c, 0, 56, 97
1, 138233, Note_on_c, 0, 56, 0
1, 138240, Note_on_c, 0, 56, 97
1, 138240, Note_on_c, 0, 58, 95
1, 138353, Note_on_c, 0, 56, 0
1, 138353, Note_on_c, 0, 58, 0
1, 138360, Note_on_c, 0, 54, 89
1, 138473, Note_on_c, 0, 54, 0
1, 138480, Note_on_c, 0, 51, 91
1, 138707, Note_on_c, 0, 51, 0
1, 138720, Note_on_c, 0, 56, 92
1, 138947, Note_on_c, 0, 56, 0
1, 138960, Note_on_c, 0, 51, 80
1, 139187, Note_on_c, 0, 51, 0
1, 139200, Note_on_c, 0, 56, 85
1, 139655, Note_on_c, 0, 56, 0
1, 139680, Note_on_c, 0, 56, 100
1, 139831, Note_on_c, 0, 56, 0
1, 139840, Note_on_c, 0, 56, 92
1, 139991, Note_on_c, 0, 56, 0
1, 140000, Note_on_c, 0, 51, 99
1, 140151, Note_on_c, 0, 51, 0
1, 140160, Note_on_c, 0, 56, 104
1, 140311, Note_on_c, 0, 56, 0
1, 140320, Note_on_c, 0, 56, 85
1, 140471, Note_on_c, 0, 56, 0
1, 140480, Note_on_c, 0, 51, 88
1, 140631, Note_on_c, 0, 51, 0
1, 141600, Note_on_c, 0, 56, 100
1, 141751, Note_on_c, 0, 56, 0
1, 141760, Note_on_c, 0, 56, 92
1, 141911, Note_on_c, 0, 56, 0
1, 141920, Note_on_c, 0, 51, 99
1, 142071, Note_on_c, 0, 51, 0
1, 142080, Note_on_c, 0, 56, 95
1, 142231, Note_on_c, 0, 56, 0
1, 142240, Note_on_c, 0, 56, 92
1, 142391, Note_on_c, 0, 56, 0
1, 142400, Note_on_c, 0, 51, 99
1, 142551, Note_on_c, 0, 51, 0
1, 142560, Note_on_c, 0, 56, 92
1, 142787, Note_on_c, 0, 56, 0
1, 142800, Note_on_c, 0, 51, 80
1, 143027, Note_on_c, 0, 51, 0
1, 143040, Note_on_c, 0, 56, 85
1, 143495, Note_on_c, 0, 56, 0
1, 143520, Note_on_c, 0, 56, 100
1, 143671, Note_on_c, 0, 56, 0
1, 143680, Note_on_c, 0, 56, 92
1, 143831, Note_on_c, 0, 56, 0
1, 143840, Note_on_c, 0, 51, 99
1, 143991, Note_on_c, 0, 51, 0
1, 144000, Note_on_c, 0, 56, 104
1, 144151, Note_on_c, 0, 56, 0
1, 144160, Note_on_c, 0, 56, 95
1, 144311, Note_on_c, 0, 56, 0
1, 144320, Note_on_c, 0, 56, 88
1, 144471, Note_on_c, 0, 56, 0
1, 145920, Note_on_c, 0, 58, 95
1, 146375, Note_on_c, 0, 58, 0
1, 146400, Note_on_c, 0, 56, 92
1, 146855, Note_on_c, 0, 56, 0
1, 146880, Note_on_c, 0, 56, 85
1, 147335, Note_on_c, 0, 56, 0
1, 147360, Note_on_c, 0, 56, 100
1, 147511, Note_on_c, 0, 56, 0
1, 147520, Note_on_c, 0, 56, 92
1, 147671, Note_on_c, 0, 56, 0
1, 147680, Note_on_c, 0, 51, 99
1, 147831, Note_on_c, 0, 51, 0
1, 147840, Note_on_c, 0, 56, 104
1, 147991, Note_on_c, 0, 56, 0
1, 148000, Note_on_c, 0, 56, 85
1, 148151, Note_on_c, 0, 56, 0
1, 148160, Note_on_c, 0, 51, 88
1, 148311, Note_on_c, 0, 51, 0
1, 149280, Note_on_c, 0, 56, 100
1, 149431, Note_on_c, 0, 56, 0
1, 149440, Note_on_c, 0, 56, 92
1, 149591, Note_on_c, 0, 56, 0
1, 149600, Note_on_c, 0, 51, 99
1, 149751, Note_on_c, 0, 51, 0
1, 149760, Note_on_c, 0, 56, 95
1, 149911, Note_on_c, 0, 56, 0
1, 149920, Note_on_c, 0, 56, 92
1, 150071, Note_on_c, 0, 56, 0
1, 150080, Note_on_c, 0, 51, 99
1, 150231, Note_on_c, 0, 51, 0
1, 150240, Note_on_c, 0, 56, 92
1, 150467, Note_on_c, 0, 56, 0
1, 150480, Note_on_c, 0, 51, 80
1, 150707, Note_on_c, 0, 51, 0
1, 150720, Note_on_c, 0, 56, 85
1, 151175, Note_on_c, 0, 56, 0
1, 151200, Note_on_c, 0, 56, 100
1, 151351, Note_on_c, 0, 56, 0
1, 151360, Note_on_c, 0, 56, 92
1, 151511, Note_on_c, 0, 56, 0
1, 151520, Note_on_c, 0, 51, 99
1, 151671, Note_on_c, 0, 51, 0
1, 151680, Note_on_c, 0, 56, 104
1, 151831, Note_on_c, 0, 56, 0
1, 151840, Note_on_c, 0, 56, 95
1, 151991, Note_on_c, 0, 56, 0
1, 152000, Note_on_c, 0, 56, 88
1, 152151, Note_on_c, 0, 56, 0
1, 153120, Note_on_c, 0, 56, 107
1, 153347, Note_on_c, 0, 56, 0
1, 153360, Note_on_c, 0, 56, 111
1, 153473, Note_on_c, 0, 56, 0
1, 153480, Note_on_c, 0, 56, 97
1, 153593, Note_on_c, 0, 56, 0
1, 153600, Note_on_c, 0, 56, 97
1, 153600, Note_on_c, 0, 58, 95
1, 153713, Note_on_c, 0, 56, 0
1, 153713, Note_on_c, 0, 58, 0
1, 153720, Note_on_c, 0, 54, 89
1, 153833, Note_on_c, 0, 54, 0
1, 153840, Note_on_c, 0, 51, 91
1, 154067, Note_on_c, 0, 51, 0
1, 154080, Note_on_c, 0, 56, 92
1, 154307, Note_on_c, 0, 56, 0
1, 154320, Note_on_c, 0, 51, 80
1, 154547, Note_on_c, 0, 51, 0
1, 154560, Note_on_c, 0, 56, 85
1, 155015, Note_on_c, 0, 56, 0
1, 155040, Note_on_c, 0, 56, 100
1, 155191, Note_on_c, 0, 56, 0
1, 155200, Note_on_c, 0, 56, 92
1, 155351, Note_on_c, 0, 56, 0
1, 155360, Note_on_c, 0, 51, 99
1, 155511, Note_on_c, 0, 51, 0
1, 155520, Note_on_c, 0, 56, 104
1, 155671, Note_on_c, 0, 56, 0
1, 155680, Note_on_c, 0, 56, 85
1, 155831, Note_on_c, 0, 56, 0
1, 155840, Note_on_c, 0, 51, 88
1, 155991, Note_on_c, 0, 51, 0
1, 156960, Note_on_c, 0, 56, 100
1, 157111, Note_on_c, 0, 56, 0
1, 157120, Note_on_c, 0, 56, 92
1, 157271, Note_on_c, 0, 56, 0
1, 157280, Note_on_c, 0, 51, 99
1, 157431, Note_on_c, 0, 51, 0
1, 157440, Note_on_c, 0, 56, 95
1, 157591, Note_on_c, 0, 56, 0
1, 157600, Note_on_c, 0, 56, 92
1, 157751, Note_on_c, 0, 56, 0
1, 157760, Note_on_c, 0, 51, 99
1, 157911, Note_on_c, 0, 51, 0
1, 157920, Note_on_c, 0, 56, 92
1, 158147, Note_on_c, 0, 56, 0
1, 158160, Note_on_c, 0, 51, 80
1, 158387, Note_on_c, 0, 51, 0
1, 158400, Note_on_c, 0, 56, 85
1, 158855, Note_on_c, 0, 56, 0
1, 160320, Note_on_c, 0, 60, 72
1, 160320, Note_on_c, 0, 69, 78
1, 160775, Note_on_c, 0, 60, 0
1, 160775, Note_on_c, 0, 69, 0
1, 160800, Note_on_c, 0, 65, 72
1, 160800, Note_on_c, 0, 72, 72
1, 161255, Note_on_c, 0, 65, 0
1, 161255, Note_on_c, 0, 72, 0
1, 161280, Note_on_c, 0, 67, 69
1, 161280, Note_on_c, 0, 74, 80
1, 161507, Note_on_c, 0, 67, 0
1, 161507, Note_on_c, 0, 74, 0
1, 161520, Note_on_c, 0, 65, 65
1, 161520, Note_on_c, 0, 72, 78
1, 161747, Note_on_c, 0, 65, 0
1, 161747, Note_on_c, 0, 72, 0
1, 161760, Note_on_c, 0, 69, 69
1, 161760, Note_on_c, 0, 77, 80
1, 162215, Note_on_c, 0, 69, 0
1, 162215, Note_on_c, 0, 77, 0
1, 162240, Note_on_c, 0, 69, 72
1, 162240, Note_on_c, 0, 77, 71
1, 162695, Note_on_c, 0, 69, 0
1, 162695, Note_on_c, 0, 77, 0
1, 162720, Note_on_c, 0, 67, 72
1, 162720, Note_on_c, 0, 74, 80
1, 162947, Note_on_c, 0, 67, 0
1, 162947, Note_on_c, 0, 74, 0
1, 162960, Note_on_c, 0, 65, 77
1, 162960, Note_on_c, 0, 72, 73
1, 163187, Note_on_c, 0, 65, 0
1, 163187, Note_on_c, 0, 72, 0
1, 163200, Note_on_c, 0, 65, 73
1, 163200, Note_on_c, 0, 72, 78
1, 163655, Note_on_c, 0, 65, 0
1, 163655, Note_on_c, 0, 72, 0
1, 163680, Note_on_c, 0, 62, 70
1, 163680, Note_on_c, 0, 69, 63
1, 164135, Note_on_c, 0, 62, 0
1, 164135, Note_on_c, 0, 69, 0
1, 164160, Note_on_c, 0, 67, 67
1, 164160, Note_on_c, 0, 74, 71
1, 164387, Note_on_c, 0, 67, 0
1, 164387, Note_on_c, 0, 74, 0
1, 164400, Note_on_c, 0, 69, 70
1, 164400, Note_on_c, 0, 76, 72
1, 164627, Note_on_c, 0, 69, 0
1, 164627, Note_on_c, 0, 76, 0
1, 164640, Note_on_c, 0, 67, 78
1, 164640, Note_on_c, 0, 74, 72
1, 164867, Note_on_c, 0, 67, 0
1, 164867, Note_on_c, 0, 74, 0
1, 164880, Note_on_c, 0, 65, 74
1, 164880, Note_on_c, 0, 72, 79
1, 165107, Note_on_c, 0, 65, 0
1, 165107, Note_on_c, 0, 72, 0
1, 165120, Note_on_c, 0, 65, 72
1, 165120, Note_on_c, 0, 72, 78
1, 165575, Note_on_c, 0, 65, 0
1, 165575, Note_on_c, 0, 72, 0
1, 165600, Note_on_c, 0, 62, 66
1, 165600, Note_on_c, 0, 69, 65
1, 166055, Note_on_c, 0, 62, 0
1, 166055, Note_on_c, 0, 69, 0
1, 166080, Note_on_c, 0, 67, 59
1, 166080, Note_on_c, 0, 74, 60
1, 166307, Note_on_c, 0, 67, 0
1, 166307, Note_on_c, 0, 74, 0
1, 166320, Note_on_c, 0, 69, 58
1, 166320, Note_on_c, 0, 76, 72
1, 166547, Note_on_c, 0, 69, 0
1, 166547, Note_on_c, 0, 76, 0
1, 166560, Note_on_c, 0, 72, 72
1, 166560, Note_on_c, 0, 77, 82
1, 166787, Note_on_c, 0, 72, 0
1, 166787, Note_on_c, 0, 77, 0
1, 166800, Note_on_c, 0, 65, 82
1, 167027, Note_on_c, 0, 65, 0
1, 167040, Note_on_c, 0, 67, 68
1, 167040, Note_on_c, 0, 74, 79
1, 167267, Note_on_c, 0, 67, 0
1, 167267, Note_on_c, 0, 74, 0
1, 167280, Note_on_c, 0, 69, 55
1, 167280, Note_on_c, 0, 76, 73
1, 167507, Note_on_c, 0, 69, 0
1, 167507, Note_on_c, 0, 76, 0
1, 167520, Note_on_c, 0, 69, 80
1, 167520, Note_on_c, 0, 72, 61
1, 167520, Note_on_c, 0, 77, 64
1, 167747, Note_on_c, 0, 69, 0
1, 167747, Note_on_c, 0, 72, 0
1, 167747, Note_on_c, 0, 77, 0
1, 167760, Note_on_c, 0, 65, 73
1, 167987, Note_on_c, 0, 65, 0
1, 168000, Note_on_c, 0, 77, 68
1, 168227, Note_on_c, 0, 77, 0
1, 168240, Note_on_c, 0, 67, 80
1, 168240, Note_on_c, 0, 77, 79
1, 168467, Note_on_c, 0, 67, 0
1, 168467, Note_on_c, 0, 77, 0
1, 168480, Note_on_c, 0, 77, 78
1, 168707, Note_on_c, 0, 77, 0
1, 168720, Note_on_c, 0, 65, 68
1, 168947, Note_on_c, 0, 65, 0
1, 168960, Note_on_c, 0, 65, 81
1, 168960, Note_on_c, 0, 77, 68
1, 169187, Note_on_c, 0, 65, 0
1, 169187, Note_on_c, 0, 77, 0
1, 169200, Note_on_c, 0, 77, 65
1, 169427, Note_on_c, 0, 77, 0
1, 169440, Note_on_c, 0, 69, 81
1, 169440, Note_on_c, 0, 77, 78
1, 169667, Note_on_c, 0, 69, 0
1, 169667, Note_on_c, 0, 77, 0
1, 169680, Note_on_c, 0, 65, 69
1, 169907, Note_on_c, 0, 65, 0
1, 169920, Note_on_c, 0, 77, 64
1, 170147, Note_on_c, 0, 77, 0
1, 170160, Note_on_c, 0, 67, 83
1, 170160, Note_on_c, 0, 77, 75
1, 170387, Note_on_c, 0, 67, 0
1, 170387, Note_on_c, 0, 77, 0
1, 170400, Note_on_c, 0, 77, 80
1, 170627, Note_on_c, 0, 77, 0
1, 170640, Note_on_c, 0, 65, 73
1, 170867, Note_on_c, 0, 65, 0
1, 170880, Note_on_c, 0, 65, 81
1, 170880, Note_on_c, 0, 77, 67
1, 171107, Note_on_c, 0, 65, 0
1, 171107, Note_on_c, 0, 77, 0
1, 171120, Note_on_c, 0, 77, 62
1, 171347, Note_on_c, 0, 77, 0
1, 171360, Note_on_c, 0, 69, 85
1, 171360, Note_on_c, 0, 77, 74
1, 171587, Note_on_c, 0, 69, 0
1, 171587, Note_on_c, 0, 77, 0
1, 171600, Note_on_c, 0, 65, 72
1, 171827, Note_on_c, 0, 65, 0
1, 171840, Note_on_c, 0, 77, 69
1, 172067, Note_on_c, 0, 77, 0
1, 172080, Note_on_c, 0, 67, 90
1, 172080, Note_on_c, 0, 77, 75
1, 172307, Note_on_c, 0, 67, 0
1, 172307, Note_on_c, 0, 77, 0
1, 172320, Note_on_c, 0, 77, 78
1, 172547, Note_on_c, 0, 77, 0
1, 172560, Note_on_c, 0, 65, 71
1, 172787, Note_on_c, 0, 65, 0
1, 172800, Note_on_c, 0, 65, 81
1, 172800, Note_on_c, 0, 77, 64
1, 173027, Note_on_c, 0, 65, 0
1, 173027, Note_on_c, 0, 77, 0
1, 173040, Note_on_c, 0, 77, 69
1, 173267, Note_on_c, 0, 77, 0
1, 173280, Note_on_c, 0, 69, 77
1, 173280, Note_on_c, 0, 77, 77
1, 173507, Note_on_c, 0, 69, 0
1, 173507, Note_on_c, 0, 77, 0
1, 173520, Note_on_c, 0, 65, 73
1, 173747, Note_on_c, 0, 65, 0
1, 173760, Note_on_c, 0, 77, 68
1, 173987, Note_on_c, 0, 77, 0
1, 174000, Note_on_c, 0, 67, 81
1, 174000, Note_on_c, 0, 77, 73
1, 174227, Note_on_c, 0, 67, 0
1, 174227, Note_on_c, 0, 77, 0
1, 174720, Note_on_c, 0, 77, 75
1, 174947, Note_on_c, 0, 77, 0
1, 174960, Note_on_c, 0, 65, 78
1, 175187, Note_on_c, 0, 65, 0
1, 175680, Note_on_c, 0, 60, 72
1, 175680, Note_on_c, 0, 69, 78
1, 176135, Note_on_c, 0, 60, 0
1, 176135, Note_on_c, 0, 69, 0
1, 176160, Note_on_c, 0, 65, 72
1, 176160, Note_on_c, 0, 72, 72
1, 176615, Note_on_c, 0, 65, 0
1, 176615, Note_on_c, 0, 72, 0
1, 176640, Note_on_c, 0, 67, 69
1, 176640, Note_on_c, 0, 74, 80
1, 176867, Note_on_c, 0, 67, 0
1, 176867, Note_on_c, 0, 74, 0
1, 176880, Note_on_c, 0, 65, 65
1, 176880, Note_on_c, 0, 72, 78
1, 177107, Note_on_c, 0, 65, 0
1, 177107, Note_on_c, 0, 72, 0
1, 177120, Note_on_c, 0, 69, 69
1, 177120, Note_on_c, 0, 77, 80
1, 177575, Note_on_c, 0, 69, 0
1, 177575, Note_on_c, 0, 77, 0
1, 177600, Note_on_c, 0, 69, 72
1, 177600, Note_on_c, 0, 77, 71
1, 178055, Note_on_c, 0, 69, 0
1, 178055, Note_on_c, 0, 77, 0
1, 178080, Note_on_c, 0, 67, 72
1, 178080, Note_on_c, 0, 74, 80
1, 178307, Note_on_c, 0, 67, 0
1, 178307, Note_on_c, 0, 74, 0
1, 178320, Note_on_c, 0, 65, 77
1, 178320, Note_on_c, 0, 72, 73
1, 178547, Note_on_c, 0, 65, 0
1, 178547, Note_on_c, 0, 72, 0
1, 178560, Note_on_c, 0, 65, 73
1, 178560, Note_on_c, 0, 72, 78
1, 179015, Note_on_c, 0, 65, 0
1, 179015, Note_on_c, 0, 72, 0
1, 179040, Note_on_c, 0, 62, 70
1, 179040, Note_on_c, 0, 69, 63
1, 179495, Note_on_c, 0, 62, 0
1, 179495, Note_on_c, 0, 69, 0
1, 179520, Note_on_c, 0, 67, 67
1, 179520, Note_on_c, 0, 74, 71
1, 179747, Note_on_c, 0, 67, 0
1, 179747, Note_on_c, 0, 74, 0
1, 179760, Note_on_c, 0, 69, 70
1, 179760, Note_on_c, 0, 76, 72
1, 179987, Note_on_c, 0, 69, 0
1, 179987, Note_on_c, 0, 76, 0
1, 180000, Note_on_c, 0, 67, 78
1, 180000, Note_on_c, 0, 74, 72
1, 180227, Note_on_c, 0, 67, 0
1, 180227, Note_on_c, 0, 74, 0
1, 180240, Note_on_c, 0, 65, 74
1, 180240, Note_on_c, 0, 72, 79
1, 180467, Note_on_c, 0, 65, 0
1, 180467, Note_on_c, 0, 72, 0
1, 180480, Note_on_c, 0, 65, 72
1, 180480, Note_on_c, 0, 72, 78
1, 180935, Note_on_c, 0, 65, 0
1, 180935, Note_on_c, 0, 72, 0
1, 180960, Note_on_c, 0, 62, 66
1, 180960, Note_on_c, 0, 69, 65
1, 181415, Note_on_c, 0, 62, 0
1, 181415, Note_on_c, 0, 69, 0
1, 181440, Note_on_c, 0, 67, 59
1, 181440, Note_on_c, 0, 74, 60
1, 181667, Note_on_c, 0, 67, 0
1, 181667, Note_on_c, 0, 74, 0
1, 181680, Note_on_c, 0, 69, 58
1, 181680, Note_on_c, 0, 76, 72
1, 181907, Note_on_c, 0, 69, 0
1, 181907, Note_on_c, 0, 76, 0
1, 181920, Note_on_c, 0, 72, 72
1, 181920, Note_on_c, 0, 77, 82
1, 182147, Note_on_c, 0, 72, 0
1, 182147, Note_on_c, 0, 77, 0
1, 182160, Note_on_c, 0, 65, 82
1, 182387, Note_on_c, 0, 65, 0
1, 182400, Note_on_c, 0, 67, 68
1, 182400, Note_on_c, 0, 74, 79
1, 182627, Note_on_c, 0, 67, 0
1, 182627, Note_on_c, 0, 74, 0
1, 182640, Note_on_c, 0, 69, 55
1, 182640, Note_on_c, 0, 76, 73
1, 182867, Note_on_c, 0, 69, 0
1, 182867, Note_on_c, 0, 76, 0
1, 182880, Note_on_c, 0, 69, 80
1, 182880, Note_on_c, 0, 72, 61
1, 182880, Note_on_c, 0, 77, 64
1, 183107, Note_on_c, 0, 69, 0
1, 183107, Note_on_c, 0, 72, 0
1, 183107, Note_on_c, 0, 77, 0
1, 183120, Note_on_c, 0, 65, 73
1, 183347, Note_on_c, 0, 65, 0
1, 183360, Note_on_c, 0, 77, 68
1, 183587, Note_on_c, 0, 77, 0
1, 183600, Note_on_c, 0, 67, 80
1, 183600, Note_on_c, 0, 77, 79
1, 183827, Note_on_c, 0, 67, 0
1, 183827, Note_on_c, 0, 77, 0
1, 183840, Note_on_c, 0, 77, 78
1, 184067, Note_on_c, 0, 77, 0
1, 184080, Note_on_c, 0, 65, 68
1, 184307, Note_on_c, 0, 65, 0
1, 184320, Note_on_c, 0, 65, 81
1, 184320, Note_on_c, 0, 77, 68
1, 184547, Note_on_c, 0, 65, 0
1, 184547, Note_on_c, 0, 77, 0
1, 184560, Note_on_c, 0, 77, 65
1, 184787, Note_on_c, 0, 77, 0
1, 184800, Note_on_c, 0, 69, 81
1, 184800, Note_on_c, 0, 77, 78
1, 185027, Note_on_c, 0, 69, 0
1, 185027, Note_on_c, 0, 77, 0
1, 185040, Note_on_c, 0, 65, 69
1, 185267, Note_on_c, 0, 65, 0
1, 185280, Note_on_c, 0, 77, 64
1, 185507, Note_on_c, 0, 77, 0
1, 185520, Note_on_c, 0, 67, 83
1, 185520, Note_on_c, 0, 77, 75
1, 185747, Note_on_c, 0, 67, 0
1, 185747, Note_on_c, 0, 77, 0
1, 185760, Note_on_c, 0, 77, 80
1, 185987, Note_on_c, 0, 77, 0
1, 186000, Note_on_c, 0, 65, 73
1, 186227, Note_on_c, 0, 65, 0
1, 186240, Note_on_c, 0, 65, 81
1, 186240, Note_on_c, 0, 77, 67
1, 186467, Note_on_c, 0, 65, 0
1, 186467, Note_on_c, 0, 77, 0
1, 186480, Note_on_c, 0, 77, 62
1, 186707, Note_on_c, 0, 77, 0
1, 186720, Note_on_c, 0, 69, 85
1, 186720, Note_on_c, 0, 77, 74
1, 186947, Note_on_c, 0, 69, 0
1, 186947, Note_on_c, 0, 77, 0
1, 186960, Note_on_c, 0, 65, 72
1, 187187, Note_on_c, 0, 65, 0
1, 187200, Note_on_c, 0, 77, 69
1, 187427, Note_on_c, 0, 77, 0
1, 187440, Note_on_c, 0, 67, 90
1, 187440, Note_on_c, 0, 77, 75
1, 187667, Note_on_c, 0, 67, 0
1, 187667, Note_on_c, 0, 77, 0
1, 187680, Note_on_c, 0, 77, 78
1, 187907, Note_on_c, 0, 77, 0
1, 187920, Note_on_c, 0, 65, 71
1, 188147, Note_on_c, 0, 65, 0
1, 188160, Note_on_c, 0, 65, 81
1, 188160, Note_on_c, 0, 77, 64
1, 188387, Note_on_c, 0, 65, 0
1, 188387, Note_on_c, 0, 77, 0
1, 188400, Note_on_c, 0, 77, 69
1, 188627, Note_on_c, 0, 77, 0
1, 188640, Note_on_c, 0, 69, 77
1, 188640, Note_on_c, 0, 77, 77
1, 188867, Note_on_c, 0, 69, 0
1, 188867, Note_on_c, 0, 77, 0
1, 188880, Note_on_c, 0, 65, 73
1, 189107, Note_on_c, 0, 65, 0
1, 189120, Note_on_c, 0, 77, 68
1, 189347, Note_on_c, 0, 77, 0
1, 189360, Note_on_c, 0, 67, 81
1, 189360, Note_on_c, 0, 77, 73
1, 189587, Note_on_c, 0, 67, 0
1, 189587, Note_on_c, 0, 77, 0
1, 190080, Note_on_c, 0, 77, 75
1, 190307, Note_on_c, 0, 77, 0
1, 190320, Note_on_c, 0, 65, 78
1, 190547, Note_on_c, 0, 65, 0
1, 190560, Note_on_c, 0, 69, 80
1, 191243, Note_on_c, 0, 69, 0
1, 191280, Note_on_c, 0, 67, 80
1, 191963, Note_on_c, 0, 67, 0
1, 192000, Note_on_c, 0, 65, 81
1, 192455, Note_on_c, 0, 65, 0
1, 192480, Note_on_c, 0, 69, 81
1, 193163, Note_on_c, 0, 69, 0
1, 193200, Note_on_c, 0, 67, 83
1, 193883, Note_on_c, 0, 67, 0
1, 193920, Note_on_c, 0, 65, 81
1, 194375, Note_on_c, 0, 65, 0
1, 194400, Note_on_c, 0, 69, 85
1, 195083, Note_on_c, 0, 69, 0
1, 195120, Note_on_c, 0, 67, 90
1, 195803, Note_on_c, 0, 67, 0
1, 195840, Note_on_c, 0, 65, 81
1, 196295, Note_on_c, 0, 65, 0
1, 196320, Note_on_c, 0, 69, 77
1, 197003, Note_on_c, 0, 69, 0
1, 197040, Note_on_c, 0, 67, 81
1, 197267, Note_on_c, 0, 67, 0
1, 197760, Note_on_c, 0, 65, 75
1, 198215, Note_on_c, 0, 65, 0
1, 198240, Note_on_c, 0, 69, 80
1, 198923, Note_on_c, 0, 69, 0
1, 198960, Note_on_c, 0, 67, 80
1, 199643, Note_on_c, 0, 67, 0
1, 199680, Note_on_c, 0, 65, 81
1, 200135, Note_on_c, 0, 65, 0
1, 200160, Note_on_c, 0, 69, 81
1, 200843, Note_on_c, 0, 69, 0
1, 200880, Note_on_c, 0, 67, 83
1, 201563, Note_on_c, 0, 67, 0
1, 201600, Note_on_c, 0, 65, 81
1, 202055, Note_on_c, 0, 65, 0
1, 202080, Note_on_c, 0, 69, 85
1, 202763, Note_on_c, 0, 69, 0
1, 202800, Note_on_c, 0, 67, 90
1, 203483, Note_on_c, 0, 67, 0
1, 203520, Note_on_c, 0, 65, 81
1, 203975, Note_on_c, 0, 65, 0
1, 204000, Note_on_c, 0, 69, 77
1, 204683, Note_on_c, 0, 69, 0
1, 204720, Note_on_c, 0, 67, 81
1, 205403, Note_on_c, 0, 67, 0
1, 205440, Note_on_c, 0, 65, 50
1, 209543, Note_on_c, 0, 65, 0
2, 480, Note_on_c, 0, 53, 56
2, 480, Note_on_c, 0, 57, 67
2, 480, Note_on_c, 0, 60, 63
2, 1163, Note_on_c, 0, 53, 0
2, 1163, Note_on_c, 0, 57, 0
2, 1163, Note_on_c, 0, 60, 0
2, 1200, Note_on_c, 0, 48, 59
2, 2339, Note_on_c, 0, 48, 0
2, 2400, Note_on_c, 0, 52, 54
2, 2400, Note_on_c, 0, 55, 59
2, 2400, Note_on_c, 0, 60, 55
2, 3083, Note_on_c, 0, 52, 0
2, 3083, Note_on_c, 0, 55, 0
2, 3083, Note_on_c, 0, 60, 0
2, 3120, Note_on_c, 0, 60, 74
2, 3347, Note_on_c, 0, 60, 0
2, 3360, Note_on_c, 0, 60, 79
2, 4271, Note_on_c, 0, 60, 0
2, 4320, Note_on_c, 0, 53, 56
2, 4320, Note_on_c, 0, 57, 67
2, 4320, Note_on_c, 0, 60, 63
2, 5003, Note_on_c, 0, 53, 0
2, 5003, Note_on_c, 0, 57, 0
2, 5003, Note_on_c, 0, 60, 0
2, 5040, Note_on_c, 0, 48, 59
2, 6179, Note_on_c, 0, 48, 0
2, 6240, Note_on_c, 0, 52, 54
2, 6240, Note_on_c, 0, 55, 59
2, 6240, Note_on_c, 0, 60, 55
2, 6923, Note_on_c, 0, 52, 0
2, 6923, Note_on_c, 0, 55, 0
2, 6923, Note_on_c, 0, 60, 0
2, 6960, Note_on_c, 0, 60, 74
2, 7187, Note_on_c, 0, 60, 0
2, 7200, Note_on_c, 0, 60, 79
2, 8111, Note_on_c, 0, 60, 0
2, 8160, Note_on_c, 0, 53, 56
2, 8160, Note_on_c, 0, 57, 67
2, 8160, Note_on_c, 0, 60, 63
2, 8843, Note_on_c, 0, 53, 0
2, 8843, Note_on_c, 0, 57, 0
2, 8843, Note_on_c, 0, 60, 0
2, 8880, Note_on_c, 0, 48, 59
2, 10019, Note_on_c, 0, 48, 0
2, 10080, Note_on_c, 0, 52, 54
2, 10080, Note_on_c, 0, 55, 59
2, 10080, Note_on_c, 0, 60, 55
2, 10763, Note_on_c, 0, 52, 0
2, 10763, Note_on_c, 0, 55, 0
2, 10763, Note_on_c, 0, 60, 0
2, 10800, Note_on_c, 0, 60, 74
2, 11027, Note_on_c, 0, 60, 0
2, 11040, Note_on_c, 0, 60, 79
2, 11951, Note_on_c, 0, 60, 0
2, 12000, Note_on_c, 0, 53, 56
2, 12000, Note_on_c, 0, 57, 67
2, 12000, Note_on_c, 0, 60, 63
2, 12683, Note_on_c, 0, 53, 0
2, 12683, Note_on_c, 0, 57, 0
2, 12683, Note_on_c, 0, 60, 0
2, 12720, Note_on_c, 0, 48, 59
2, 13859, Note_on_c, 0, 48, 0
2, 13920, Note_on_c, 0, 52, 54
2, 13920, Note_on_c, 0, 55, 59
2, 13920, Note_on_c, 0, 60, 55
2, 14603, Note_on_c, 0, 52, 0
2, 14603, Note_on_c, 0, 55, 0
2, 14603, Note_on_c, 0, 60, 0
2, 14640, Note_on_c, 0, 60, 74
2, 14867, Note_on_c, 0, 60, 0
2, 14880, Note_on_c, 0, 60, 79
2, 15791, Note_on_c, 0, 60, 0
2, 15840, Note_on_c, 0, 65, 97
2, 16067, Note_on_c, 0, 65, 0
2, 16080, Note_on_c, 0, 65, 104
2, 16193, Note_on_c, 0, 65, 0
2, 16200, Note_on_c, 0, 60, 104
2, 16427, Note_on_c, 0, 60, 0
2, 16440, Note_on_c, 0, 60, 88
2, 16553, Note_on_c, 0, 60, 0
2, 16560, Note_on_c, 0, 53, 95
2, 16787, Note_on_c, 0, 53, 0
2, 16800, Note_on_c, 0, 60, 97
2, 16913, Note_on_c, 0, 60, 0
2, 16920, Note_on_c, 0, 57, 76
2, 17033, Note_on_c, 0, 57, 0
2, 17040, Note_on_c, 0, 53, 82
2, 17267, Note_on_c, 0, 53, 0
2, 17280, Note_on_c, 0, 62, 77
2, 17393, Note_on_c, 0, 62, 0
2, 17400, Note_on_c, 0, 60, 77
2, 17513, Note_on_c, 0, 60, 0
2, 17520, Note_on_c, 0, 57, 79
2, 17747, Note_on_c, 0, 57, 0
2, 17760, Note_on_c, 0, 48, 71
2, 17987, Note_on_c, 0, 48, 0
2, 18000, Note_on_c, 0, 53, 60
2, 18113, Note_on_c, 0, 53, 0
2, 18120, Note_on_c, 0, 57, 73
2, 18347, Note_on_c, 0, 57, 0
2, 18360, Note_on_c, 0, 53, 74
2, 18473, Note_on_c, 0, 53, 0
2, 18480, Note_on_c, 0, 48, 61
2, 18707, Note_on_c, 0, 48, 0
2, 18720, Note_on_c, 0, 58, 52
2, 18947, Note_on_c, 0, 58, 0
2, 18960, Note_on_c, 0, 50, 55
2, 19073, Note_on_c, 0, 50, 0
2, 19080, Note_on_c, 0, 55, 74
2, 19193, Note_on_c, 0, 55, 0
2, 19200, Note_on_c, 0, 58, 80
2, 19427, Note_on_c, 0, 58, 0
2, 19440, Note_on_c, 0, 55, 75
2, 19667, Note_on_c, 0, 55, 0
2, 19680, Note_on_c, 0, 53, 60
2, 19907, Note_on_c, 0, 53, 0
2, 19920, Note_on_c, 0, 57, 76
2, 20033, Note_on_c, 0, 57, 0
2, 20040, Note_on_c, 0, 60, 77
2, 20267, Note_on_c, 0, 60, 0
2, 20280, Note_on_c, 0, 60, 73
2, 20393, Note_on_c, 0, 60, 0
2, 20400, Note_on_c, 0, 53, 77
2, 20627, Note_on_c, 0, 53, 0
2, 20640, Note_on_c, 0, 53, 72
2, 20867, Note_on_c, 0, 53, 0
2, 20880, Note_on_c, 0, 57, 77
2, 20993, Note_on_c, 0, 57, 0
2, 21000, Note_on_c, 0, 65, 71
2, 21113, Note_on_c, 0, 65, 0
2, 21120, Note_on_c, 0, 62, 66
2, 21233, Note_on_c, 0, 62, 0
2, 21240, Note_on_c, 0, 60, 80
2, 21353, Note_on_c, 0, 60, 0
2, 21360, Note_on_c, 0, 57, 83
2, 21587, Note_on_c, 0, 57, 0
2, 21600, Note_on_c, 0, 48, 71
2, 21827, Note_on_c, 0, 48, 0
2, 21840, Note_on_c, 0, 53, 60
2, 21953, Note_on_c, 0, 53, 0
2, 21960, Note_on_c, 0, 57, 73
2, 22187, Note_on_c, 0, 57, 0
2, 22200, Note_on_c, 0, 53, 74
2, 22313, Note_on_c, 0, 53, 0
2, 22320, Note_on_c, 0, 48, 61
2, 22547, Note_on_c, 0, 48, 0
2, 22560, Note_on_c, 0, 58, 52
2, 22787, Note_on_c, 0, 58, 0
2, 22800, Note_on_c, 0, 50, 55
2, 22913, Note_on_c, 0, 50, 0
2, 22920, Note_on_c, 0, 55, 74
2, 23033, Note_on_c, 0, 55, 0
2, 23040, Note_on_c, 0, 58, 80
2, 23267, Note_on_c, 0, 58, 0
2, 23280, Note_on_c, 0, 55, 75
2, 23507, Note_on_c, 0, 55, 0
2, 23520, Note_on_c, 0, 53, 60
2, 23747, Note_on_c, 0, 53, 0
2, 23760, Note_on_c, 0, 57, 76
2, 23873, Note_on_c, 0, 57, 0
2, 23880, Note_on_c, 0, 60, 77
2, 24107, Note_on_c, 0, 60, 0
2, 24120, Note_on_c, 0, 60, 73
2, 24233, Note_on_c, 0, 60, 0
2, 24240, Note_on_c, 0, 53, 77
2, 24467, Note_on_c, 0, 53, 0
2, 24480, Note_on_c, 0, 53, 72
2, 24707, Note_on_c, 0, 53, 0
2, 24720, Note_on_c, 0, 57, 77
2, 24833, Note_on_c, 0, 57, 0
2, 24840, Note_on_c, 0, 65, 71
2, 24953, Note_on_c, 0, 65, 0
2, 24960, Note_on_c, 0, 62, 66
2, 25073, Note_on_c, 0, 62, 0
2, 25080, Note_on_c, 0, 60, 80
2, 25193, Note_on_c, 0, 60, 0
2, 25200, Note_on_c, 0, 57, 83
2, 25427, Note_on_c, 0, 57, 0
2, 25440, Note_on_c, 0, 48, 71
2, 25667, Note_on_c, 0, 48, 0
2, 25680, Note_on_c, 0, 53, 60
2, 25793, Note_on_c, 0, 53, 0
2, 25800, Note_on_c, 0, 57, 73
2, 26027, Note_on_c, 0, 57, 0
2, 26040, Note_on_c, 0, 53, 74
2, 26153, Note_on_c, 0, 53, 0
2, 26160, Note_on_c, 0, 48, 61
2, 26387, Note_on_c, 0, 48, 0
2, 26400, Note_on_c, 0, 58, 52
2, 26627, Note_on_c, 0, 58, 0
2, 26640, Note_on_c, 0, 50, 55
2, 26753, Note_on_c, 0, 50, 0
2, 26760, Note_on_c, 0, 55, 74
2, 26873, Note_on_c, 0, 55, 0
2, 26880, Note_on_c, 0, 58, 80
2, 27107, Note_on_c, 0, 58, 0
2, 27120, Note_on_c, 0, 55, 75
2, 27347, Note_on_c, 0, 55, 0
2, 27360, Note_on_c, 0, 53, 60
2, 27587, Note_on_c, 0, 53, 0
2, 27600, Note_on_c, 0, 57, 76
2, 27713, Note_on_c, 0, 57, 0
2, 27720, Note_on_c, 0, 60, 77
2, 27947, Note_on_c, 0, 60, 0
2, 27960, Note_on_c, 0, 60, 73
2, 28073, Note_on_c, 0, 60, 0
2, 28080, Note_on_c, 0, 53, 77
2, 28307, Note_on_c, 0, 53, 0
2, 28320, Note_on_c, 0, 53, 72
2, 28547, Note_on_c, 0, 53, 0
2, 28560, Note_on_c, 0, 57, 77
2, 28673, Note_on_c, 0, 57, 0
2, 28680, Note_on_c, 0, 65, 71
2, 28793, Note_on_c, 0, 65, 0
2, 28800, Note_on_c, 0, 62, 66
2, 28913, Note_on_c, 0, 62, 0
2, 28920, Note_on_c, 0, 60, 80
2, 29033, Note_on_c, 0, 60, 0
2, 29040, Note_on_c, 0, 57, 83
2, 29267, Note_on_c, 0, 57, 0
2, 29280, Note_on_c, 0, 48, 71
2, 29507, Note_on_c, 0, 48, 0
2, 29520, Note_on_c, 0, 53, 60
2, 29633, Note_on_c, 0, 53, 0
2, 29640, Note_on_c, 0, 57, 73
2, 29867, Note_on_c, 0, 57, 0
2, 29880, Note_on_c, 0, 53, 74
2, 29993, Note_on_c, 0, 53, 0
2, 30000, Note_on_c, 0, 48, 61
2, 30227, Note_on_c, 0, 48, 0
2, 30240, Note_on_c, 0, 58, 52
2, 30467, Note_on_c, 0, 58, 0
2, 30480, Note_on_c, 0, 50, 55
2, 30593, Note_on_c, 0, 50, 0
2, 30600, Note_on_c, 0, 55, 74
2, 30713, Note_on_c, 0, 55, 0
2, 30720, Note_on_c, 0, 58, 80
2, 30947, Note_on_c, 0, 58, 0
2, 30960, Note_on_c, 0, 55, 75
2, 31187, Note_on_c, 0, 55, 0
2, 31200, Note_on_c, 0, 65, 97
2, 31427, Note_on_c, 0, 65, 0
2, 31440, Note_on_c, 0, 65, 104
2, 31553, Note_on_c, 0, 65, 0
2, 31560, Note_on_c, 0, 60, 104
2, 31787, Note_on_c, 0, 60, 0
2, 31800, Note_on_c, 0, 60, 88
2, 31913, Note_on_c, 0, 60, 0
2, 31920, Note_on_c, 0, 53, 95
2, 32147, Note_on_c, 0, 53, 0
2, 32160, Note_on_c, 0, 60, 97
2, 32273, Note_on_c, 0, 60, 0
2, 32280, Note_on_c, 0, 57, 76
2, 32393, Note_on_c, 0, 57, 0
2, 32400, Note_on_c, 0, 53, 82
2, 32627, Note_on_c, 0, 53, 0
2, 32640, Note_on_c, 0, 62, 77
2, 32753, Note_on_c, 0, 62, 0
2, 32760, Note_on_c, 0, 60, 77
2, 32873, Note_on_c, 0, 60, 0
2, 32880, Note_on_c, 0, 57, 79
2, 33107, Note_on_c, 0, 57, 0
2, 33120, Note_on_c, 0, 48, 71
2, 33347, Note_on_c, 0, 48, 0
2, 33360, Note_on_c, 0, 53, 60
2, 33473, Note_on_c, 0, 53, 0
2, 33480, Note_on_c, 0, 57, 73
2, 33707, Note_on_c, 0, 57, 0
2, 33720, Note_on_c, 0, 53, 74
2, 33833, Note_on_c, 0, 53, 0
2, 33840, Note_on_c, 0, 48, 61
2, 34067, Note_on_c, 0, 48, 0
2, 34080, Note_on_c, 0, 58, 52
2, 34307, Note_on_c, 0, 58, 0
2, 34320, Note_on_c, 0, 50, 55
2, 34433, Note_on_c, 0, 50, 0
2, 34440, Note_on_c, 0, 55, 74
2, 34553, Note_on_c, 0, 55, 0
2, 34560, Note_on_c, 0, 58, 80
2, 34787, Note_on_c, 0, 58, 0
2, 34800, Note_on_c, 0, 55, 75
2, 35027, Note_on_c, 0, 55, 0
2, 35040, Note_on_c, 0, 53, 60
2, 35267, Note_on_c, 0, 53, 0
2, 35280, Note_on_c, 0, 57, 76
2, 35393, Note_on_c, 0, 57, 0
2, 35400, Note_on_c, 0, 60, 77
2, 35627, Note_on_c, 0, 60, 0
2, 35640, Note_on_c, 0, 60, 73
2, 35753, Note_on_c, 0, 60, 0
2, 35760, Note_on_c, 0, 53, 77
2, 35987, Note_on_c, 0, 53, 0
2, 36000, Note_on_c, 0, 53, 72
2, 36227, Note_on_c, 0, 53, 0
2, 36240, Note_on_c, 0, 57, 77
2, 36353, Note_on_c, 0, 57, 0
2, 36360, Note_on_c, 0, 65, 71
2, 36473, Note_on_c, 0, 65, 0
2, 36480, Note_on_c, 0, 62, 66
2, 36593, Note_on_c, 0, 62, 0
2, 36600, Note_on_c, 0, 60, 80
2, 36713, Note_on_c, 0, 60, 0
2, 36720, Note_on_c, 0, 57, 83
2, 36947, Note_on_c, 0, 57, 0
2, 36960, Note_on_c, 0, 48, 71
2, 37187, Note_on_c, 0, 48, 0
2, 37200, Note_on_c, 0, 53, 60
2, 37313, Note_on_c, 0, 53, 0
2, 37320, Note_on_c, 0, 57, 73
2, 37547, Note_on_c, 0, 57, 0
2, 37560, Note_on_c, 0, 53, 74
2, 37673, Note_on_c, 0, 53, 0
2, 37680, Note_on_c, 0, 48, 61
2, 37907, Note_on_c, 0, 48, 0
2, 37920, Note_on_c, 0, 58, 52
2, 38147, Note_on_c, 0, 58, 0
2, 38160, Note_on_c, 0, 50, 55
2, 38273, Note_on_c, 0, 50, 0
2, 38280, Note_on_c, 0, 55, 74
2, 38393, Note_on_c, 0, 55, 0
2, 38400, Note_on_c, 0, 58, 80
2, 38627, Note_on_c, 0, 58, 0
2, 38640, Note_on_c, 0, 55, 75
2, 38867, Note_on_c, 0, 55, 0
2, 38880, Note_on_c, 0, 53, 60
2, 39107, Note_on_c, 0, 53, 0
2, 39120, Note_on_c, 0, 57, 76
2, 39233, Note_on_c, 0, 57, 0
2, 39240, Note_on_c, 0, 60, 77
2, 39467, Note_on_c, 0, 60, 0
2, 39480, Note_on_c, 0, 60, 73
2, 39593, Note_on_c, 0, 60, 0
2, 39600, Note_on_c, 0, 53, 77
2, 39827, Note_on_c, 0, 53, 0
2, 39840, Note_on_c, 0, 53, 72
2, 40067, Note_on_c, 0, 53, 0
2, 40080, Note_on_c, 0, 57, 77
2, 40200, Note_on_c, 0, 65, 71
2, 40307, Note_on_c, 0, 57, 0
2, 40313, Note_on_c, 0, 65, 0
2, 40320, Note_on_c, 0, 62, 66
2, 40433, Note_on_c, 0, 62, 0
2, 40440, Note_on_c, 0, 60, 80
2, 40553, Note_on_c, 0, 60, 0
2, 40560, Note_on_c, 0, 57, 83
2, 40787, Note_on_c, 0, 57, 0
2, 40800, Note_on_c, 0, 48, 71
2, 41027, Note_on_c, 0, 48, 0
2, 41040, Note_on_c, 0, 53, 60
2, 41153, Note_on_c, 0, 53, 0
2, 41160, Note_on_c, 0, 57, 73
2, 41387, Note_on_c, 0, 57, 0
2, 41400, Note_on_c, 0, 53, 74
2, 41513, Note_on_c, 0, 53, 0
2, 41520, Note_on_c, 0, 48, 61
2, 41747, Note_on_c, 0, 48, 0
2, 41760, Note_on_c, 0, 58, 52
2, 41987, Note_on_c, 0, 58, 0
2, 42000, Note_on_c, 0, 50, 55
2, 42113, Note_on_c, 0, 50, 0
2, 42120, Note_on_c, 0, 55, 74
2, 42233, Note_on_c, 0, 55, 0
2, 42240, Note_on_c, 0, 58, 80
2, 42467, Note_on_c, 0, 58, 0
2, 42480, Note_on_c, 0, 55, 75
2, 42707, Note_on_c, 0, 55, 0
2, 42720, Note_on_c, 0, 53, 60
2, 42947, Note_on_c, 0, 53, 0
2, 42960, Note_on_c, 0, 57, 76
2, 43073, Note_on_c, 0, 57, 0
2, 43080, Note_on_c, 0, 60, 77
2, 43307, Note_on_c, 0, 60, 0
2, 43320, Note_on_c, 0, 60, 73
2, 43433, Note_on_c, 0, 60, 0
2, 43440, Note_on_c, 0, 53, 77
2, 43667, Note_on_c, 0, 53, 0
2, 43680, Note_on_c, 0, 53, 72
2, 43907, Note_on_c, 0, 53, 0
2, 43920, Note_on_c, 0, 57, 77
2, 44040, Note_on_c, 0, 65, 71
2, 44147, Note_on_c, 0, 57, 0
2, 44153, Note_on_c, 0, 65, 0
2, 44160, Note_on_c, 0, 62, 66
2, 44273, Note_on_c, 0, 62, 0
2, 44280, Note_on_c, 0, 60, 80
2, 44393, Note_on_c, 0, 60, 0
2, 44400, Note_on_c, 0, 57, 83
2, 44627, Note_on_c, 0, 57, 0
2, 44640, Note_on_c, 0, 48, 71
2, 44867, Note_on_c, 0, 48, 0
2, 44880, Note_on_c, 0, 53, 60
2, 44993, Note_on_c, 0, 53, 0
2, 45000, Note_on_c, 0, 57, 73
2, 45227, Note_on_c, 0, 57, 0
2, 45240, Note_on_c, 0, 53, 74
2, 45353, Note_on_c, 0, 53, 0
2, 45360, Note_on_c, 0, 48, 61
2, 45587, Note_on_c, 0, 48, 0
2, 45600, Note_on_c, 0, 58, 52
2, 45827, Note_on_c, 0, 58, 0
2, 45840, Note_on_c, 0, 50, 55
2, 45953, Note_on_c, 0, 50, 0
2, 45960, Note_on_c, 0, 55, 74
2, 46073, Note_on_c, 0, 55, 0
2, 46080, Note_on_c, 0, 58, 80
2, 46307, Note_on_c, 0, 58, 0
2, 46320, Note_on_c, 0, 55, 75
2, 46547, Note_on_c, 0, 55, 0
2, 46560, Note_on_c, 0, 39, 86
2, 46560, Note_on_c, 0, 51, 90
2, 46787, Note_on_c, 0, 39, 0
2, 46787, Note_on_c, 0, 51, 0
2, 46800, Note_on_c, 0, 46, 64
2, 47027, Note_on_c, 0, 46, 0
2, 47040, Note_on_c, 0, 39, 95
2, 47040, Note_on_c, 0, 51, 81
2, 47723, Note_on_c, 0, 39, 0
2, 47723, Note_on_c, 0, 51, 0
2, 47760, Note_on_c, 0, 46, 94
2, 47987, Note_on_c, 0, 46, 0
2, 48000, Note_on_c, 0, 46, 86
2, 48000, Note_on_c, 0, 58, 109
2, 48227, Note_on_c, 0, 46, 0
2, 48227, Note_on_c, 0, 58, 0
2, 48240, Note_on_c, 0, 51, 95
2, 48467, Note_on_c, 0, 51, 0
2, 48480, Note_on_c, 0, 44, 101
2, 48480, Note_on_c, 0, 56, 105
2, 48707, Note_on_c, 0, 44, 0
2, 48707, Note_on_c, 0, 56, 0
2, 48720, Note_on_c, 0, 51, 91
2, 48947, Note_on_c, 0, 51, 0
2, 48960, Note_on_c, 0, 44, 97
2, 48960, Note_on_c, 0, 56, 97
2, 49643, Note_on_c, 0, 44, 0
2, 49643, Note_on_c, 0, 56, 0
2, 49680, Note_on_c, 0, 51, 112
2, 49907, Note_on_c, 0, 51, 0
2, 49920, Note_on_c, 0, 37, 90
2, 49920, Note_on_c, 0, 49, 72
2, 50147, Note_on_c, 0, 37, 0
2, 50147, Note_on_c, 0, 49, 0
2, 50160, Note_on_c, 0, 46, 105
2, 50387, Note_on_c, 0, 46, 0
2, 50400, Note_on_c, 0, 39, 86
2, 50400, Note_on_c, 0, 51, 90
2, 50627, Note_on_c, 0, 39, 0
2, 50627, Note_on_c, 0, 51, 0
2, 50640, Note_on_c, 0, 46, 64
2, 50867, Note_on_c, 0, 46, 0
2, 50880, Note_on_c, 0, 39, 95
2, 50880, Note_on_c, 0, 51, 81
2, 51563, Note_on_c, 0, 39, 0
2, 51563, Note_on_c, 0, 51, 0
2, 51600, Note_on_c, 0, 46, 94
2, 51827, Note_on_c, 0, 46, 0
2, 51840, Note_on_c, 0, 46, 86
2, 51840, Note_on_c, 0, 58, 109
2, 52067, Note_on_c, 0, 46, 0
2, 52067, Note_on_c, 0, 58, 0
2, 52080, Note_on_c, 0, 51, 95
2, 52307, Note_on_c, 0, 51, 0
2, 52320, Note_on_c, 0, 44, 101
2, 52320, Note_on_c, 0, 56, 105
2, 52547, Note_on_c, 0, 44, 0
2, 52547, Note_on_c, 0, 56, 0
2, 52560, Note_on_c, 0, 51, 91
2, 52787, Note_on_c, 0, 51, 0
2, 52800, Note_on_c, 0, 44, 97
2, 52800, Note_on_c, 0, 56, 97
2, 53483, Note_on_c, 0, 44, 0
2, 53483, Note_on_c, 0, 56, 0
2, 53520, Note_on_c, 0, 51, 107
2, 53747, Note_on_c, 0, 51, 0
2, 53760, Note_on_c, 0, 37, 90
2, 53760, Note_on_c, 0, 49, 72
2, 53987, Note_on_c, 0, 37, 0
2, 53987, Note_on_c, 0, 49, 0
2, 54000, Note_on_c, 0, 46, 100
2, 54227, Note_on_c, 0, 46, 0
2, 54240, Note_on_c, 0, 39, 87
2, 54240, Note_on_c, 0, 51, 92
2, 54467, Note_on_c, 0, 39, 0
2, 54467, Note_on_c, 0, 51, 0
2, 54480, Note_on_c, 0, 46, 70
2, 54707, Note_on_c, 0, 46, 0
2, 54720, Note_on_c, 0, 39, 87
2, 54720, Note_on_c, 0, 51, 92
2, 55403, Note_on_c, 0, 39, 0
2, 55403, Note_on_c, 0, 51, 0
2, 55440, Note_on_c, 0, 46, 82
2, 55667, Note_on_c, 0, 46, 0
2, 55680, Note_on_c, 0, 46, 83
2, 56135, Note_on_c, 0, 46, 0
2, 56160, Note_on_c, 0, 44, 88
2, 56615, Note_on_c, 0, 44, 0
2, 56640, Note_on_c, 0, 44, 85
2, 57551, Note_on_c, 0, 44, 0
2, 57600, Note_on_c, 0, 37, 87
2, 57600, Note_on_c, 0, 49, 96
2, 57827, Note_on_c, 0, 37, 0
2, 57827, Note_on_c, 0, 49, 0
2, 57840, Note_on_c, 0, 46, 100
2, 58067, Note_on_c, 0, 46, 0
2, 58080, Note_on_c, 0, 39, 87
2, 58080, Note_on_c, 0, 51, 92
2, 58307, Note_on_c, 0, 39, 0
2, 58307, Note_on_c, 0, 51, 0
2, 58320, Note_on_c, 0, 46, 70
2, 58547, Note_on_c, 0, 46, 0
2, 58560, Note_on_c, 0, 39, 87
2, 58560, Note_on_c, 0, 51, 92
2, 59015, Note_on_c, 0, 51, 0
2, 59243, Note_on_c, 0, 39, 0
2, 59280, Note_on_c, 0, 46, 82
2, 59507, Note_on_c, 0, 46, 0
2, 59520, Note_on_c, 0, 46, 83
2, 59975, Note_on_c, 0, 46, 0
2, 60000, Note_on_c, 0, 44, 88
2, 60455, Note_on_c, 0, 44, 0
2, 60480, Note_on_c, 0, 44, 85
2, 61391, Note_on_c, 0, 44, 0
2, 61440, Note_on_c, 0, 37, 87
2, 61440, Note_on_c, 0, 49, 96
2, 61667, Note_on_c, 0, 37, 0
2, 61667, Note_on_c, 0, 49, 0
2, 61680, Note_on_c, 0, 46, 100
2, 61907, Note_on_c, 0, 46, 0
2, 61920, Note_on_c, 0, 39, 87
2, 61920, Note_on_c, 0, 51, 92
2, 62147, Note_on_c, 0, 39, 0
2, 62147, Note_on_c, 0, 51, 0
2, 62160, Note_on_c, 0, 46, 70
2, 62387, Note_on_c, 0, 46, 0
2, 62400, Note_on_c, 0, 39, 87
2, 62400, Note_on_c, 0, 51, 92
2, 63083, Note_on_c, 0, 39, 0
2, 63083, Note_on_c, 0, 51, 0
2, 63120, Note_on_c, 0, 46, 82
2, 63347, Note_on_c, 0, 46, 0
2, 63360, Note_on_c, 0, 46, 83
2, 63815, Note_on_c, 0, 46, 0
2, 63840, Note_on_c, 0, 44, 88
2, 64295, Note_on_c, 0, 44, 0
2, 64320, Note_on_c, 0, 44, 85
2, 65231, Note_on_c, 0, 44, 0
2, 65280, Note_on_c, 0, 37, 87
2, 65280, Note_on_c, 0, 49, 96
2, 65507, Note_on_c, 0, 37, 0
2, 65507, Note_on_c, 0, 49, 0
2, 65520, Note_on_c, 0, 46, 100
2, 65747, Note_on_c, 0, 46, 0
2, 65760, Note_on_c, 0, 39, 87
2, 65760, Note_on_c, 0, 51, 92
2, 65987, Note_on_c, 0, 39, 0
2, 65987, Note_on_c, 0, 51, 0
2, 66000, Note_on_c, 0, 46, 70
2, 66227, Note_on_c, 0, 46, 0
2, 66240, Note_on_c, 0, 39, 87
2, 66240, Note_on_c, 0, 51, 92
2, 66923, Note_on_c, 0, 39, 0
2, 66923, Note_on_c, 0, 51, 0
2, 66960, Note_on_c, 0, 46, 82
2, 67187, Note_on_c, 0, 46, 0
2, 67200, Note_on_c, 0, 46, 83
2, 67655, Note_on_c, 0, 46, 0
2, 67680, Note_on_c, 0, 44, 88
2, 68135, Note_on_c, 0, 44, 0
2, 68160, Note_on_c, 0, 44, 85
2, 69071, Note_on_c, 0, 44, 0
2, 69120, Note_on_c, 0, 37, 87
2, 69120, Note_on_c, 0, 49, 96
2, 69347, Note_on_c, 0, 37, 0
2, 69347, Note_on_c, 0, 49, 0
2, 69360, Note_on_c, 0, 46, 100
2, 69587, Note_on_c, 0, 46, 0
2, 69600, Note_on_c, 0, 39, 87
2, 69600, Note_on_c, 0, 51, 92
2, 69827, Note_on_c, 0, 39, 0
2, 69827, Note_on_c, 0, 51, 0
2, 69840, Note_on_c, 0, 46, 70
2, 70067, Note_on_c, 0, 46, 0
2, 70080, Note_on_c, 0, 39, 87
2, 70080, Note_on_c, 0, 51, 92
2, 70763, Note_on_c, 0, 39, 0
2, 70763, Note_on_c, 0, 51, 0
2, 70800, Note_on_c, 0, 46, 82
2, 71027, Note_on_c, 0, 46, 0
2, 71040, Note_on_c, 0, 46, 83
2, 71495, Note_on_c, 0, 46, 0
2, 71520, Note_on_c, 0, 44, 88
2, 71975, Note_on_c, 0, 44, 0
2, 72000, Note_on_c, 0, 44, 85
2, 72911, Note_on_c, 0, 44, 0
2, 72960, Note_on_c, 0, 37, 87
2, 72960, Note_on_c, 0, 49, 96
2, 73187, Note_on_c, 0, 37, 0
2, 73187, Note_on_c, 0, 49, 0
2, 73200, Note_on_c, 0, 46, 100
2, 73427, Note_on_c, 0, 46, 0
2, 73440, Note_on_c, 0, 39, 87
2, 73440, Note_on_c, 0, 51, 92
2, 73667, Note_on_c, 0, 39, 0
2, 73667, Note_on_c, 0, 51, 0
2, 73680, Note_on_c, 0, 46, 70
2, 73907, Note_on_c, 0, 46, 0
2, 73920, Note_on_c, 0, 39, 87
2, 73920, Note_on_c, 0, 51, 92
2, 74603, Note_on_c, 0, 39, 0
2, 74603, Note_on_c, 0, 51, 0
2, 74640, Note_on_c, 0, 46, 82
2, 74867, Note_on_c, 0, 46, 0
2, 74880, Note_on_c, 0, 46, 83
2, 75335, Note_on_c, 0, 46, 0
2, 75360, Note_on_c, 0, 44, 88
2, 75815, Note_on_c, 0, 44, 0
2, 75840, Note_on_c, 0, 44, 85
2, 76751, Note_on_c, 0, 44, 0
2, 76800, Note_on_c, 0, 37, 87
2, 76800, Note_on_c, 0, 49, 96
2, 77027, Note_on_c, 0, 37, 0
2, 77027, Note_on_c, 0, 49, 0
2, 77040, Note_on_c, 0, 46, 100
2, 77267, Note_on_c, 0, 46, 0
2, 77280, Note_on_c, 0, 39, 87
2, 77280, Note_on_c, 0, 51, 92
2, 77507, Note_on_c, 0, 39, 0
2, 77507, Note_on_c, 0, 51, 0
2, 77520, Note_on_c, 0, 46, 70
2, 77747, Note_on_c, 0, 46, 0
2, 77760, Note_on_c, 0, 39, 87
2, 77760, Note_on_c, 0, 51, 92
2, 78443, Note_on_c, 0, 39, 0
2, 78443, Note_on_c, 0, 51, 0
2, 78480, Note_on_c, 0, 46, 82
2, 78707, Note_on_c, 0, 46, 0
2, 78720, Note_on_c, 0, 46, 83
2, 79175, Note_on_c, 0, 46, 0
2, 79200, Note_on_c, 0, 44, 88
2, 79655, Note_on_c, 0, 44, 0
2, 79680, Note_on_c, 0, 44, 85
2, 80591, Note_on_c, 0, 44, 0
2, 80640, Note_on_c, 0, 37, 87
2, 80640, Note_on_c, 0, 49, 96
2, 80867, Note_on_c, 0, 37, 0
2, 80867, Note_on_c, 0, 49, 0
2, 80880, Note_on_c, 0, 46, 100
2, 81107, Note_on_c, 0, 46, 0
2, 81120, Note_on_c, 0, 39, 87
2, 81120, Note_on_c, 0, 51, 92
2, 81347, Note_on_c, 0, 39, 0
2, 81347, Note_on_c, 0, 51, 0
2, 81360, Note_on_c, 0, 46, 70
2, 81587, Note_on_c, 0, 46, 0
2, 81600, Note_on_c, 0, 39, 87
2, 81600, Note_on_c, 0, 51, 92
2, 82283, Note_on_c, 0, 39, 0
2, 82283, Note_on_c, 0, 51, 0
2, 82320, Note_on_c, 0, 46, 82
2, 82547, Note_on_c, 0, 46, 0
2, 82560, Note_on_c, 0, 46, 83
2, 83015, Note_on_c, 0, 46, 0
2, 83040, Note_on_c, 0, 44, 88
2, 83495, Note_on_c, 0, 44, 0
2, 83520, Note_on_c, 0, 44, 85
2, 84431, Note_on_c, 0, 44, 0
2, 84480, Note_on_c, 0, 37, 87
2, 84480, Note_on_c, 0, 49, 96
2, 84707, Note_on_c, 0, 37, 0
2, 84707, Note_on_c, 0, 49, 0
2, 84720, Note_on_c, 0, 46, 100
2, 84947, Note_on_c, 0, 46, 0
2, 84960, Note_on_c, 0, 39, 87
2, 84960, Note_on_c, 0, 51, 92
2, 85187, Note_on_c, 0, 39, 0
2, 85187, Note_on_c, 0, 51, 0
2, 85200, Note_on_c, 0, 46, 64
2, 85427, Note_on_c, 0, 46, 0
2, 85440, Note_on_c, 0, 39, 87
2, 85440, Note_on_c, 0, 51, 92
2, 86123, Note_on_c, 0, 39, 0
2, 86123, Note_on_c, 0, 51, 0
2, 86160, Note_on_c, 0, 46, 82
2, 86387, Note_on_c, 0, 46, 0
2, 86400, Note_on_c, 0, 46, 83
2, 86627, Note_on_c, 0, 46, 0
2, 86640, Note_on_c, 0, 46, 83
2, 86867, Note_on_c, 0, 46, 0
2, 86880, Note_on_c, 0, 44, 88
2, 87335, Note_on_c, 0, 44, 0
2, 87360, Note_on_c, 0, 44, 85
2, 88271, Note_on_c, 0, 44, 0
2, 88320, Note_on_c, 0, 37, 87
2, 88775, Note_on_c, 0, 37, 0
2, 88800, Note_on_c, 0, 39, 87
2, 89255, Note_on_c, 0, 39, 0
2, 89280, Note_on_c, 0, 39, 87
2, 89963, Note_on_c, 0, 39, 0
2, 90000, Note_on_c, 0, 46, 82
2, 90227, Note_on_c, 0, 46, 0
2, 90240, Note_on_c, 0, 46, 83
2, 90695, Note_on_c, 0, 46, 0
2, 90720, Note_on_c, 0, 44, 88
2, 91175, Note_on_c, 0, 44, 0
2, 91200, Note_on_c, 0, 44, 85
2, 91655, Note_on_c, 0, 44, 0
2, 92640, Note_on_c, 0, 29, 72
2, 92640, Note_on_c, 0, 41, 74
2, 93095, Note_on_c, 0, 29, 0
2, 93095, Note_on_c, 0, 41, 0
2, 93120, Note_on_c, 0, 29, 88
2, 93120, Note_on_c, 0, 41, 85
2, 96311, Note_on_c, 0, 29, 0
2, 96311, Note_on_c, 0, 41, 0
2, 96480, Note_on_c, 0, 29, 75
2, 96480, Note_on_c, 0, 41, 71
2, 100127, Note_on_c, 0, 29, 0
2, 100127, Note_on_c, 0, 41, 0
2, 100320, Note_on_c, 0, 53, 74
2, 100547, Note_on_c, 0, 53, 0
2, 100560, Note_on_c, 0, 57, 75
2, 100673, Note_on_c, 0, 57, 0
2, 100680, Note_on_c, 0, 60, 74
2, 100907, Note_on_c, 0, 60, 0
2, 100920, Note_on_c, 0, 57, 72
2, 101033, Note_on_c, 0, 57, 0
2, 101040, Note_on_c, 0, 53, 73
2, 101267, Note_on_c, 0, 53, 0
2, 101280, Note_on_c, 0, 60, 70
2, 101507, Note_on_c, 0, 60, 0
2, 101520, Note_on_c, 0, 53, 75
2, 101640, Note_on_c, 0, 57, 71
2, 101747, Note_on_c, 0, 53, 0
2, 101753, Note_on_c, 0, 57, 0
2, 101760, Note_on_c, 0, 60, 68
2, 101987, Note_on_c, 0, 60, 0
2, 102000, Note_on_c, 0, 57, 76
2, 102227, Note_on_c, 0, 57, 0
2, 102240, Note_on_c, 0, 48, 63
2, 102467, Note_on_c, 0, 48, 0
2, 102480, Note_on_c, 0, 53, 68
2, 102593, Note_on_c, 0, 53, 0
2, 102600, Note_on_c, 0, 57, 63
2, 102827, Note_on_c, 0, 57, 0
2, 102840, Note_on_c, 0, 53, 85
2, 102960, Note_on_c, 0, 49, 74
2, 103181, Note_on_c, 0, 53, 0
2, 103187, Note_on_c, 0, 49, 0
2, 103200, Note_on_c, 0, 58, 71
2, 103427, Note_on_c, 0, 58, 0
2, 103440, Note_on_c, 0, 50, 82
2, 103560, Note_on_c, 0, 55, 81
2, 103667, Note_on_c, 0, 50, 0
2, 103673, Note_on_c, 0, 55, 0
2, 103680, Note_on_c, 0, 58, 85
2, 103907, Note_on_c, 0, 58, 0
2, 103920, Note_on_c, 0, 55, 71
2, 104147, Note_on_c, 0, 55, 0
2, 104160, Note_on_c, 0, 53, 74
2, 104387, Note_on_c, 0, 53, 0
2, 104400, Note_on_c, 0, 57, 75
2, 104513, Note_on_c, 0, 57, 0
2, 104520, Note_on_c, 0, 60, 88
2, 104747, Note_on_c, 0, 60, 0
2, 104760, Note_on_c, 0, 57, 90
2, 104873, Note_on_c, 0, 57, 0
2, 104880, Note_on_c, 0, 53, 90
2, 105107, Note_on_c, 0, 53, 0
2, 105120, Note_on_c, 0, 60, 80
2, 105347, Note_on_c, 0, 60, 0
2, 105360, Note_on_c, 0, 53, 67
2, 105480, Note_on_c, 0, 57, 82
2, 105587, Note_on_c, 0, 53, 0
2, 105593, Note_on_c, 0, 57, 0
2, 105600, Note_on_c, 0, 60, 76
2, 105827, Note_on_c, 0, 60, 0
2, 105840, Note_on_c, 0, 57, 74
2, 106067, Note_on_c, 0, 57, 0
2, 106080, Note_on_c, 0, 60, 79
2, 106307, Note_on_c, 0, 60, 0
2, 106320, Note_on_c, 0, 53, 67
2, 106433, Note_on_c, 0, 53, 0
2, 106440, Note_on_c, 0, 57, 78
2, 106667, Note_on_c, 0, 57, 0
2, 106680, Note_on_c, 0, 53, 82
2, 106800, Note_on_c, 0, 49, 80
2, 107021, Note_on_c, 0, 53, 0
2, 107027, Note_on_c, 0, 49, 0
2, 107520, Note_on_c, 0, 53, 49
2, 108659, Note_on_c, 0, 53, 0
2, 108720, Note_on_c, 0, 41, 77
2, 109631, Note_on_c, 0, 41, 0
2, 109680, Note_on_c, 0, 41, 95
2, 109907, Note_on_c, 0, 41, 0
2, 109920, Note_on_c, 0, 51, 97
2, 111059, Note_on_c, 0, 51, 0
2, 111120, Note_on_c, 0, 41, 83
2, 111347, Note_on_c, 0, 41, 0
2, 111360, Note_on_c, 0, 41, 69
2, 111587, Note_on_c, 0, 41, 0
2, 111600, Note_on_c, 0, 41, 81
2, 111827, Note_on_c, 0, 41, 0
2, 111840, Note_on_c, 0, 41, 97
2, 112067, Note_on_c, 0, 41, 0
2, 112080, Note_on_c, 0, 41, 102
2, 112307, Note_on_c, 0, 41, 0
2, 112320, Note_on_c, 0, 41, 104
2, 112547, Note_on_c, 0, 41, 0
2, 112560, Note_on_c, 0, 41, 104
2, 112787, Note_on_c, 0, 41, 0
2, 112800, Note_on_c, 0, 41, 95
2, 113027, Note_on_c, 0, 41, 0
2, 113040, Note_on_c, 0, 41, 104
2, 113267, Note_on_c, 0, 41, 0
2, 113280, Note_on_c, 0, 41, 85
2, 113507, Note_on_c, 0, 41, 0
2, 113520, Note_on_c, 0, 41, 107
2, 113747, Note_on_c, 0, 41, 0
2, 113760, Note_on_c, 0, 39, 87
2, 113760, Note_on_c, 0, 51, 92
2, 113987, Note_on_c, 0, 39, 0
2, 113987, Note_on_c, 0, 51, 0
2, 114000, Note_on_c, 0, 46, 56
2, 114227, Note_on_c, 0, 46, 0
2, 114240, Note_on_c, 0, 39, 87
2, 114240, Note_on_c, 0, 51, 92
2, 114923, Note_on_c, 0, 39, 0
2, 114923, Note_on_c, 0, 51, 0
2, 114960, Note_on_c, 0, 46, 82
2, 115187, Note_on_c, 0, 46, 0
2, 115200, Note_on_c, 0, 46, 83
2, 115655, Note_on_c, 0, 46, 0
2, 115680, Note_on_c, 0, 44, 88
2, 116135, Note_on_c, 0, 44, 0
2, 116160, Note_on_c, 0, 44, 85
2, 117071, Note_on_c, 0, 44, 0
2, 117120, Note_on_c, 0, 37, 87
2, 117575, Note_on_c, 0, 37, 0
2, 117600, Note_on_c, 0, 39, 87
2, 117600, Note_on_c, 0, 51, 92
2, 117827, Note_on_c, 0, 39, 0
2, 117827, Note_on_c, 0, 51, 0
2, 117840, Note_on_c, 0, 46, 56
2, 118067, Note_on_c, 0, 46, 0
2, 118080, Note_on_c, 0, 39, 87
2, 118080, Note_on_c, 0, 51, 92
2, 118763, Note_on_c, 0, 39, 0
2, 118763, Note_on_c, 0, 51, 0
2, 118800, Note_on_c, 0, 46, 82
2, 119027, Note_on_c, 0, 46, 0
2, 119040, Note_on_c, 0, 46, 83
2, 119495, Note_on_c, 0, 46, 0
2, 119520, Note_on_c, 0, 44, 88
2, 119975, Note_on_c, 0, 44, 0
2, 120000, Note_on_c, 0, 44, 85
2, 120911, Note_on_c, 0, 44, 0
2, 120960, Note_on_c, 0, 37, 87
2, 121415, Note_on_c, 0, 37, 0
2, 121440, Note_on_c, 0, 39, 87
2, 121440, Note_on_c, 0, 51, 92
2, 121667, Note_on_c, 0, 39, 0
2, 121667, Note_on_c, 0, 51, 0
2, 121680, Note_on_c, 0, 46, 56
2, 121907, Note_on_c, 0, 46, 0
2, 121920, Note_on_c, 0, 39, 87
2, 121920, Note_on_c, 0, 51, 92
2, 122603, Note_on_c, 0, 39, 0
2, 122603, Note_on_c, 0, 51, 0
2, 122640, Note_on_c, 0, 46, 82
2, 122867, Note_on_c, 0, 46, 0
2, 122880, Note_on_c, 0, 46, 83
2, 123335, Note_on_c, 0, 46, 0
2, 123360, Note_on_c, 0, 44, 88
2, 123815, Note_on_c, 0, 44, 0
2, 123840, Note_on_c, 0, 44, 85
2, 124751, Note_on_c, 0, 44, 0
2, 124800, Note_on_c, 0, 37, 87
2, 124800, Note_on_c, 0, 49, 96
2, 125027, Note_on_c, 0, 37, 0
2, 125027, Note_on_c, 0, 49, 0
2, 125040, Note_on_c, 0, 46, 100
2, 125267, Note_on_c, 0, 46, 0
2, 125280, Note_on_c, 0, 39, 87
2, 125280, Note_on_c, 0, 51, 92
2, 125507, Note_on_c, 0, 39, 0
2, 125507, Note_on_c, 0, 51, 0
2, 125520, Note_on_c, 0, 46, 56
2, 125747, Note_on_c, 0, 46, 0
2, 125760, Note_on_c, 0, 39, 87
2, 125760, Note_on_c, 0, 51, 92
2, 126443, Note_on_c, 0, 39, 0
2, 126443, Note_on_c, 0, 51, 0
2, 126480, Note_on_c, 0, 46, 82
2, 126707, Note_on_c, 0, 46, 0
2, 126720, Note_on_c, 0, 46, 83
2, 127175, Note_on_c, 0, 46, 0
2, 127200, Note_on_c, 0, 44, 88
2, 127655, Note_on_c, 0, 44, 0
2, 127680, Note_on_c, 0, 44, 85
2, 128591, Note_on_c, 0, 44, 0
2, 128640, Note_on_c, 0, 37, 87
2, 128640, Note_on_c, 0, 49, 96
2, 128867, Note_on_c, 0, 37, 0
2, 128867, Note_on_c, 0, 49, 0
2, 128880, Note_on_c, 0, 46, 100
2, 129107, Note_on_c, 0, 46, 0
2, 129120, Note_on_c, 0, 39, 87
2, 129120, Note_on_c, 0, 51, 92
2, 129347, Note_on_c, 0, 39, 0
2, 129347, Note_on_c, 0, 51, 0
2, 129360, Note_on_c, 0, 46, 56
2, 129587, Note_on_c, 0, 46, 0
2, 129600, Note_on_c, 0, 39, 87
2, 129600, Note_on_c, 0, 51, 92
2, 130283, Note_on_c, 0, 39, 0
2, 130283, Note_on_c, 0, 51, 0
2, 130320, Note_on_c, 0, 46, 82
2, 130547, Note_on_c, 0, 46, 0
2, 130560, Note_on_c, 0, 46, 83
2, 131015, Note_on_c, 0, 46, 0
2, 131040, Note_on_c, 0, 44, 88
2, 131495, Note_on_c, 0, 44, 0
2, 131520, Note_on_c, 0, 44, 85
2, 132431, Note_on_c, 0, 44, 0
2, 132480, Note_on_c, 0, 37, 87
2, 132480, Note_on_c, 0, 49, 96
2, 132707, Note_on_c, 0, 37, 0
2, 132707, Note_on_c, 0, 49, 0
2, 132720, Note_on_c, 0, 46, 100
2, 132947, Note_on_c, 0, 46, 0
2, 132960, Note_on_c, 0, 39, 87
2, 132960, Note_on_c, 0, 51, 92
2, 133187, Note_on_c, 0, 39, 0
2, 133187, Note_on_c, 0, 51, 0
2, 133200, Note_on_c, 0, 46, 56
2, 133427, Note_on_c, 0, 46, 0
2, 133440, Note_on_c, 0, 39, 87
2, 133440, Note_on_c, 0, 51, 92
2, 134123, Note_on_c, 0, 39, 0
2, 134123, Note_on_c, 0, 51, 0
2, 134160, Note_on_c, 0, 46, 82
2, 134387, Note_on_c, 0, 46, 0
2, 134400, Note_on_c, 0, 46, 83
2, 134855, Note_on_c, 0, 46, 0
2, 134880, Note_on_c, 0, 44, 88
2, 135335, Note_on_c, 0, 44, 0
2, 135360, Note_on_c, 0, 44, 85
2, 136271, Note_on_c, 0, 44, 0
2, 136320, Note_on_c, 0, 37, 87
2, 136320, Note_on_c, 0, 49, 96
2, 136547, Note_on_c, 0, 37, 0
2, 136547, Note_on_c, 0, 49, 0
2, 136560, Note_on_c, 0, 46, 100
2, 136787, Note_on_c, 0, 46, 0
2, 136800, Note_on_c, 0, 39, 87
2, 136800, Note_on_c, 0, 51, 92
2, 137027, Note_on_c, 0, 39, 0
2, 137027, Note_on_c, 0, 51, 0
2, 137040, Note_on_c, 0, 46, 56
2, 137267, Note_on_c, 0, 46, 0
2, 137280, Note_on_c, 0, 39, 87
2, 137280, Note_on_c, 0, 51, 92
2, 137963, Note_on_c, 0, 39, 0
2, 137963, Note_on_c, 0, 51, 0
2, 138000, Note_on_c, 0, 46, 82
2, 138227, Note_on_c, 0, 46, 0
2, 138240, Note_on_c, 0, 46, 83
2, 138695, Note_on_c, 0, 46, 0
2, 138720, Note_on_c, 0, 44, 88
2, 139175, Note_on_c, 0, 44, 0
2, 139200, Note_on_c, 0, 44, 85
2, 140111, Note_on_c, 0, 44, 0
2, 140160, Note_on_c, 0, 37, 87
2, 140160, Note_on_c, 0, 49, 96
2, 140387, Note_on_c, 0, 37, 0
2, 140387, Note_on_c, 0, 49, 0
2, 140400, Note_on_c, 0, 46, 100
2, 140627, Note_on_c, 0, 46, 0
2, 140640, Note_on_c, 0, 39, 87
2, 140640, Note_on_c, 0, 51, 92
2, 140867, Note_on_c, 0, 39, 0
2, 140867, Note_on_c, 0, 51, 0
2, 140880, Note_on_c, 0, 46, 56
2, 141107, Note_on_c, 0, 46, 0
2, 141120, Note_on_c, 0, 39, 87
2, 141120, Note_on_c, 0, 51, 92
2, 141803, Note_on_c, 0, 39, 0
2, 141803, Note_on_c, 0, 51, 0
2, 141840, Note_on_c, 0, 46, 82
2, 142067, Note_on_c, 0, 46, 0
2, 142080, Note_on_c, 0, 46, 83
2, 142535, Note_on_c, 0, 46, 0
2, 142560, Note_on_c, 0, 44, 88
2, 143015, Note_on_c, 0, 44, 0
2, 143040, Note_on_c, 0, 44, 85
2, 143951, Note_on_c, 0, 44, 0
2, 144000, Note_on_c, 0, 37, 87
2, 144000, Note_on_c, 0, 49, 96
2, 144227, Note_on_c, 0, 37, 0
2, 144227, Note_on_c, 0, 49, 0
2, 144240, Note_on_c, 0, 46, 100
2, 144467, Note_on_c, 0, 46, 0
2, 144480, Note_on_c, 0, 39, 87
2, 144480, Note_on_c, 0, 51, 92
2, 144707, Note_on_c, 0, 39, 0
2, 144707, Note_on_c, 0, 51, 0
2, 144720, Note_on_c, 0, 46, 56
2, 144947, Note_on_c, 0, 46, 0
2, 144960, Note_on_c, 0, 39, 87
2, 144960, Note_on_c, 0, 51, 92
2, 145643, Note_on_c, 0, 39, 0
2, 145643, Note_on_c, 0, 51, 0
2, 145680, Note_on_c, 0, 46, 82
2, 145907, Note_on_c, 0, 46, 0
2, 145920, Note_on_c, 0, 46, 83
2, 146160, Note_on_c, 0, 51, 91
2, 146375, Note_on_c, 0, 46, 0
2, 146387, Note_on_c, 0, 51, 0
2, 146400, Note_on_c, 0, 44, 88
2, 146855, Note_on_c, 0, 44, 0
2, 146880, Note_on_c, 0, 44, 85
2, 147791, Note_on_c, 0, 44, 0
2, 147840, Note_on_c, 0, 37, 87
2, 147840, Note_on_c, 0, 49, 96
2, 148067, Note_on_c, 0, 37, 0
2, 148067, Note_on_c, 0, 49, 0
2, 148080, Note_on_c, 0, 46, 100
2, 148307, Note_on_c, 0, 46, 0
2, 148320, Note_on_c, 0, 39, 87
2, 148320, Note_on_c, 0, 51, 92
2, 148547, Note_on_c, 0, 39, 0
2, 148547, Note_on_c, 0, 51, 0
2, 148560, Note_on_c, 0, 46, 56
2, 148787, Note_on_c, 0, 46, 0
2, 148800, Note_on_c, 0, 39, 87
2, 148800, Note_on_c, 0, 51, 92
2, 149483, Note_on_c, 0, 39, 0
2, 149483, Note_on_c, 0, 51, 0
2, 149520, Note_on_c, 0, 46, 82
2, 149747, Note_on_c, 0, 46, 0
2, 149760, Note_on_c, 0, 46, 83
2, 150215, Note_on_c, 0, 46, 0
2, 150240, Note_on_c, 0, 44, 88
2, 150695, Note_on_c, 0, 44, 0
2, 150720, Note_on_c, 0, 44, 85
2, 151631, Note_on_c, 0, 44, 0
2, 151680, Note_on_c, 0, 37, 87
2, 151680, Note_on_c, 0, 49, 96
2, 151907, Note_on_c, 0, 37, 0
2, 151907, Note_on_c, 0, 49, 0
2, 151920, Note_on_c, 0, 46, 100
2, 152147, Note_on_c, 0, 46, 0
2, 152160, Note_on_c, 0, 39, 87
2, 152160, Note_on_c, 0, 51, 92
2, 152387, Note_on_c, 0, 39, 0
2, 152387, Note_on_c, 0, 51, 0
2, 152400, Note_on_c, 0, 46, 56
2, 152627, Note_on_c, 0, 46, 0
2, 152640, Note_on_c, 0, 39, 87
2, 152640, Note_on_c, 0, 51, 92
2, 153323, Note_on_c, 0, 39, 0
2, 153323, Note_on_c, 0, 51, 0
2, 153360, Note_on_c, 0, 46, 82
2, 153587, Note_on_c, 0, 46, 0
2, 153600, Note_on_c, 0, 46, 83
2, 154055, Note_on_c, 0, 46, 0
2, 154080, Note_on_c, 0, 44, 88
2, 154535, Note_on_c, 0, 44, 0
2, 154560, Note_on_c, 0, 44, 85
2, 155471, Note_on_c, 0, 44, 0
2, 155520, Note_on_c, 0, 37, 87
2, 155520, Note_on_c, 0, 49, 96
2, 155747, Note_on_c, 0, 37, 0
2, 155747, Note_on_c, 0, 49, 0
2, 155760, Note_on_c, 0, 46, 100
2, 155987, Note_on_c, 0, 46, 0
2, 156000, Note_on_c, 0, 39, 87
2, 156000, Note_on_c, 0, 51, 92
2, 156227, Note_on_c, 0, 39, 0
2, 156227, Note_on_c, 0, 51, 0
2, 156240, Note_on_c, 0, 46, 56
2, 156467, Note_on_c, 0, 46, 0
2, 156480, Note_on_c, 0, 39, 87
2, 156480, Note_on_c, 0, 51, 92
2, 157163, Note_on_c, 0, 39, 0
2, 157163, Note_on_c, 0, 51, 0
2, 157200, Note_on_c, 0, 46, 82
2, 157427, Note_on_c, 0, 46, 0
2, 157440, Note_on_c, 0, 46, 83
2, 157895, Note_on_c, 0, 46, 0
2, 157920, Note_on_c, 0, 44, 88
2, 158375, Note_on_c, 0, 44, 0
2, 158400, Note_on_c, 0, 44, 85
2, 158855, Note_on_c, 0, 44, 0
2, 159840, Note_on_c, 0, 29, 72
2, 159840, Note_on_c, 0, 41, 74
2, 160295, Note_on_c, 0, 29, 0
2, 160295, Note_on_c, 0, 41, 0
2, 160320, Note_on_c, 0, 29, 88
2, 160320, Note_on_c, 0, 41, 85
2, 163511, Note_on_c, 0, 29, 0
2, 163511, Note_on_c, 0, 41, 0
2, 163680, Note_on_c, 0, 29, 75
2, 163680, Note_on_c, 0, 41, 71
2, 167327, Note_on_c, 0, 29, 0
2, 167327, Note_on_c, 0, 41, 0
2, 167520, Note_on_c, 0, 53, 74
2, 167747, Note_on_c, 0, 53, 0
2, 167760, Note_on_c, 0, 57, 75
2, 167873, Note_on_c, 0, 57, 0
2, 167880, Note_on_c, 0, 60, 74
2, 168107, Note_on_c, 0, 60, 0
2, 168120, Note_on_c, 0, 57, 72
2, 168233, Note_on_c, 0, 57, 0
2, 168240, Note_on_c, 0, 53, 73
2, 168467, Note_on_c, 0, 53, 0
2, 168480, Note_on_c, 0, 60, 70
2, 168707, Note_on_c, 0, 60, 0
2, 168720, Note_on_c, 0, 53, 75
2, 168833, Note_on_c, 0, 53, 0
2, 168840, Note_on_c, 0, 57, 71
2, 168953, Note_on_c, 0, 57, 0
2, 168960, Note_on_c, 0, 60, 68
2, 169187, Note_on_c, 0, 60, 0
2, 169200, Note_on_c, 0, 57, 76
2, 169427, Note_on_c, 0, 57, 0
2, 169440, Note_on_c, 0, 48, 63
2, 169667, Note_on_c, 0, 48, 0
2, 169680, Note_on_c, 0, 53, 68
2, 169793, Note_on_c, 0, 53, 0
2, 169800, Note_on_c, 0, 57, 63
2, 170027, Note_on_c, 0, 57, 0
2, 170040, Note_on_c, 0, 53, 85
2, 170153, Note_on_c, 0, 53, 0
2, 170160, Note_on_c, 0, 49, 74
2, 170387, Note_on_c, 0, 49, 0
2, 170400, Note_on_c, 0, 58, 71
2, 170627, Note_on_c, 0, 58, 0
2, 170640, Note_on_c, 0, 50, 82
2, 170753, Note_on_c, 0, 50, 0
2, 170760, Note_on_c, 0, 55, 81
2, 170873, Note_on_c, 0, 55, 0
2, 170880, Note_on_c, 0, 58, 85
2, 171107, Note_on_c, 0, 58, 0
2, 171120, Note_on_c, 0, 55, 71
2, 171347, Note_on_c, 0, 55, 0
2, 171360, Note_on_c, 0, 53, 74
2, 171587, Note_on_c, 0, 53, 0
2, 171600, Note_on_c, 0, 57, 75
2, 171713, Note_on_c, 0, 57, 0
2, 171720, Note_on_c, 0, 60, 88
2, 171947, Note_on_c, 0, 60, 0
2, 171960, Note_on_c, 0, 57, 90
2, 172073, Note_on_c, 0, 57, 0
2, 172080, Note_on_c, 0, 53, 90
2, 172307, Note_on_c, 0, 53, 0
2, 172320, Note_on_c, 0, 60, 80
2, 172547, Note_on_c, 0, 60, 0
2, 172560, Note_on_c, 0, 53, 67
2, 172673, Note_on_c, 0, 53, 0
2, 172680, Note_on_c, 0, 57, 82
2, 172793, Note_on_c, 0, 57, 0
2, 172800, Note_on_c, 0, 60, 76
2, 173027, Note_on_c, 0, 60, 0
2, 173040, Note_on_c, 0, 57, 74
2, 173267, Note_on_c, 0, 57, 0
2, 173280, Note_on_c, 0, 60, 79
2, 173507, Note_on_c, 0, 60, 0
2, 173520, Note_on_c, 0, 53, 67
2, 173633, Note_on_c, 0, 53, 0
2, 173640, Note_on_c, 0, 57, 78
2, 173867, Note_on_c, 0, 57, 0
2, 173880, Note_on_c, 0, 53, 82
2, 173993, Note_on_c, 0, 53, 0
2, 174000, Note_on_c, 0, 49, 80
2, 174227, Note_on_c, 0, 49, 0
2, 174720, Note_on_c, 0, 53, 49
2, 175175, Note_on_c, 0, 53, 0
2, 175200, Note_on_c, 0, 29, 72
2, 175200, Note_on_c, 0, 41, 74
2, 175655, Note_on_c, 0, 29, 0
2, 175655, Note_on_c, 0, 41, 0
2, 175680, Note_on_c, 0, 29, 88
2, 175680, Note_on_c, 0, 41, 85
2, 178871, Note_on_c, 0, 29, 0
2, 178871, Note_on_c, 0, 41, 0
2, 179040, Note_on_c, 0, 29, 75
2, 179040, Note_on_c, 0, 41, 71
2, 182687, Note_on_c, 0, 29, 0
2, 182687, Note_on_c, 0, 41, 0
2, 182880, Note_on_c, 0, 53, 74
2, 183107, Note_on_c, 0, 53, 0
2, 183120, Note_on_c, 0, 57, 75
2, 183233, Note_on_c, 0, 57, 0
2, 183240, Note_on_c, 0, 60, 74
2, 183467, Note_on_c, 0, 60, 0
2, 183480, Note_on_c, 0, 57, 72
2, 183593, Note_on_c, 0, 57, 0
2, 183600, Note_on_c, 0, 53, 73
2, 183827, Note_on_c, 0, 53, 0
2, 183840, Note_on_c, 0, 60, 70
2, 184067, Note_on_c, 0, 60, 0
2, 184080, Note_on_c, 0, 53, 75
2, 184193, Note_on_c, 0, 53, 0
2, 184200, Note_on_c, 0, 57, 71
2, 184313, Note_on_c, 0, 57, 0
2, 184320, Note_on_c, 0, 60, 68
2, 184547, Note_on_c, 0, 60, 0
2, 184560, Note_on_c, 0, 57, 76
2, 184787, Note_on_c, 0, 57, 0
2, 184800, Note_on_c, 0, 48, 63
2, 185027, Note_on_c, 0, 48, 0
2, 185040, Note_on_c, 0, 53, 68
2, 185153, Note_on_c, 0, 53, 0
2, 185160, Note_on_c, 0, 57, 63
2, 185387, Note_on_c, 0, 57, 0
2, 185400, Note_on_c, 0, 53, 85
2, 185513, Note_on_c, 0, 53, 0
2, 185520, Note_on_c, 0, 49, 74
2, 185747, Note_on_c, 0, 49, 0
2, 185760, Note_on_c, 0, 58, 71
2, 185987, Note_on_c, 0, 58, 0
2, 186000, Note_on_c, 0, 50, 82
2, 186120, Note_on_c, 0, 55, 81
2, 186227, Note_on_c, 0, 50, 0
2, 186233, Note_on_c, 0, 55, 0
2, 186240, Note_on_c, 0, 58, 85
2, 186467, Note_on_c, 0, 58, 0
2, 186480, Note_on_c, 0, 55, 71
2, 186707, Note_on_c, 0, 55, 0
2, 186720, Note_on_c, 0, 53, 74
2, 186947, Note_on_c, 0, 53, 0
2, 186960, Note_on_c, 0, 57, 75
2, 187073, Note_on_c, 0, 57, 0
2, 187080, Note_on_c, 0, 60, 88
2, 187307, Note_on_c, 0, 60, 0
2, 187320, Note_on_c, 0, 57, 90
2, 187440, Note_on_c, 0, 53, 90
2, 187661, Note_on_c, 0, 57, 0
2, 187667, Note_on_c, 0, 53, 0
2, 187680, Note_on_c, 0, 60, 80
2, 187907, Note_on_c, 0, 60, 0
2, 187920, Note_on_c, 0, 53, 67
2, 188033, Note_on_c, 0, 53, 0
2, 188040, Note_on_c, 0, 57, 82
2, 188153, Note_on_c, 0, 57, 0
2, 188160, Note_on_c, 0, 60, 76
2, 188387, Note_on_c, 0, 60, 0
2, 188400, Note_on_c, 0, 57, 74
2, 188627, Note_on_c, 0, 57, 0
2, 188640, Note_on_c, 0, 60, 79
2, 188867, Note_on_c, 0, 60, 0
2, 188880, Note_on_c, 0, 53, 67
2, 188993, Note_on_c, 0, 53, 0
2, 189000, Note_on_c, 0, 57, 78
2, 189227, Note_on_c, 0, 57, 0
2, 189240, Note_on_c, 0, 53, 82
2, 189353, Note_on_c, 0, 53, 0
2, 189360, Note_on_c, 0, 49, 80
2, 189587, Note_on_c, 0, 49, 0
2, 190080, Note_on_c, 0, 53, 49
2, 190535, Note_on_c, 0, 53, 0
2, 190560, Note_on_c, 0, 53, 74
2, 190787, Note_on_c, 0, 53, 0
2, 190800, Note_on_c, 0, 57, 75
2, 190913, Note_on_c, 0, 57, 0
2, 190920, Note_on_c, 0, 60, 74
2, 191147, Note_on_c, 0, 60, 0
2, 191160, Note_on_c, 0, 57, 72
2, 191273, Note_on_c, 0, 57, 0
2, 191280, Note_on_c, 0, 53, 73
2, 191507, Note_on_c, 0, 53, 0
2, 191520, Note_on_c, 0, 60, 70
2, 191747, Note_on_c, 0, 60, 0
2, 191760, Note_on_c, 0, 53, 75
2, 191873, Note_on_c, 0, 53, 0
2, 191880, Note_on_c, 0, 57, 71
2, 191993, Note_on_c, 0, 57, 0
2, 192000, Note_on_c, 0, 60, 68
2, 192227, Note_on_c, 0, 60, 0
2, 192240, Note_on_c, 0, 57, 76
2, 192467, Note_on_c, 0, 57, 0
2, 192480, Note_on_c, 0, 48, 63
2, 192707, Note_on_c, 0, 48, 0
2, 192720, Note_on_c, 0, 53, 68
2, 192833, Note_on_c, 0, 53, 0
2, 192840, Note_on_c, 0, 57, 63
2, 193067, Note_on_c, 0, 57, 0
2, 193080, Note_on_c, 0, 53, 85
2, 193193, Note_on_c, 0, 53, 0
2, 193200, Note_on_c, 0, 49, 74
2, 193427, Note_on_c, 0, 49, 0
2, 193440, Note_on_c, 0, 58, 71
2, 193667, Note_on_c, 0, 58, 0
2, 193680, Note_on_c, 0, 50, 82
2, 193793, Note_on_c, 0, 50, 0
2, 193800, Note_on_c, 0, 55, 81
2, 193913, Note_on_c, 0, 55, 0
2, 193920, Note_on_c, 0, 58, 85
2, 194147, Note_on_c, 0, 58, 0
2, 194160, Note_on_c, 0, 55, 71
2, 194387, Note_on_c, 0, 55, 0
2, 194400, Note_on_c, 0, 53, 74
2, 194627, Note_on_c, 0, 53, 0
2, 194640, Note_on_c, 0, 57, 75
2, 194753, Note_on_c, 0, 57, 0
2, 194760, Note_on_c, 0, 60, 88
2, 194987, Note_on_c, 0, 60, 0
2, 195000, Note_on_c, 0, 57, 90
2, 195113, Note_on_c, 0, 57, 0
2, 195120, Note_on_c, 0, 53, 90
2, 195347, Note_on_c, 0, 53, 0
2, 195360, Note_on_c, 0, 60, 80
2, 195587, Note_on_c, 0, 60, 0
2, 195600, Note_on_c, 0, 53, 67
2, 195720, Note_on_c, 0, 57, 82
2, 195827, Note_on_c, 0, 53, 0
2, 195833, Note_on_c, 0, 57, 0
2, 195840, Note_on_c, 0, 60, 76
2, 196067, Note_on_c, 0, 60, 0
2, 196080, Note_on_c, 0, 57, 74
2, 196307, Note_on_c, 0, 57, 0
2, 196320, Note_on_c, 0, 60, 79
2, 196547, Note_on_c, 0, 60, 0
2, 196560, Note_on_c, 0, 53, 67
2, 196673, Note_on_c, 0, 53, 0
2, 196680, Note_on_c, 0, 57, 78
2, 196907, Note_on_c, 0, 57, 0
2, 196920, Note_on_c, 0, 53, 82
2, 197033, Note_on_c, 0, 53, 0
2, 197040, Note_on_c, 0, 49, 80
2, 197267, Note_on_c, 0, 49, 0
2, 198240, Note_on_c, 0, 53, 74
2, 198467, Note_on_c, 0, 53, 0
2, 198480, Note_on_c, 0, 57, 75
2, 198593, Note_on_c, 0, 57, 0
2, 198600, Note_on_c, 0, 60, 74
2, 198827, Note_on_c, 0, 60, 0
2, 198840, Note_on_c, 0, 57, 72
2, 198953, Note_on_c, 0, 57, 0
2, 198960, Note_on_c, 0, 53, 73
2, 199187, Note_on_c, 0, 53, 0
2, 199200, Note_on_c, 0, 60, 70
2, 199427, Note_on_c, 0, 60, 0
2, 199440, Note_on_c, 0, 53, 75
2, 199553, Note_on_c, 0, 53, 0
2, 199560, Note_on_c, 0, 57, 71
2, 199673, Note_on_c, 0, 57, 0
2, 199680, Note_on_c, 0, 60, 68
2, 199907, Note_on_c, 0, 60, 0
2, 199920, Note_on_c, 0, 57, 76
2, 200147, Note_on_c, 0, 57, 0
2, 200160, Note_on_c, 0, 48, 63
2, 200387, Note_on_c, 0, 48, 0
2, 200400, Note_on_c, 0, 53, 68
2, 200513, Note_on_c, 0, 53, 0
2, 200520, Note_on_c, 0, 57, 63
2, 200747, Note_on_c, 0, 57, 0
2, 200760, Note_on_c, 0, 53, 85
2, 200873, Note_on_c, 0, 53, 0
2, 200880, Note_on_c, 0, 49, 74
2, 201107, Note_on_c, 0, 49, 0
2, 201120, Note_on_c, 0, 58, 71
2, 201347, Note_on_c, 0, 58, 0
2, 201360, Note_on_c, 0, 50, 82
2, 201480, Note_on_c, 0, 55, 81
2, 201587, Note_on_c, 0, 50, 0
2, 201593, Note_on_c, 0, 55, 0
2, 201600, Note_on_c, 0, 58, 85
2, 201827, Note_on_c, 0, 58, 0
2, 201840, Note_on_c, 0, 55, 71
2, 202067, Note_on_c, 0, 55, 0
2, 202080, Note_on_c, 0, 53, 74
2, 202307, Note_on_c, 0, 53, 0
2, 202320, Note_on_c, 0, 57, 75
2, 202433, Note_on_c, 0, 57, 0
2, 202440, Note_on_c, 0, 60, 88
2, 202667, Note_on_c, 0, 60, 0
2, 202680, Note_on_c, 0, 57, 90
2, 202793, Note_on_c, 0, 57, 0
2, 202800, Note_on_c, 0, 53, 90
2, 203027, Note_on_c, 0, 53, 0
2, 203040, Note_on_c, 0, 60, 80
2, 203267, Note_on_c, 0, 60, 0
2, 203280, Note_on_c, 0, 53, 67
2, 203393, Note_on_c, 0, 53, 0
2, 203400, Note_on_c, 0, 57, 82
2, 203513, Note_on_c, 0, 57, 0
2, 203520, Note_on_c, 0, 60, 76
2, 203747, Note_on_c, 0, 60, 0
2, 203760, Note_on_c, 0, 57, 74
2, 203987, Note_on_c, 0, 57, 0
2, 204000, Note_on_c, 0, 60, 79
2, 204227, Note_on_c, 0, 60, 0
2, 204240, Note_on_c, 0, 53, 67
2, 204353, Note_on_c, 0, 53, 0
2, 204360, Note_on_c, 0, 57, 78
2, 204587, Note_on_c, 0, 57, 0
2, 204600, Note_on_c, 0, 53, 82
2, 204713, Note_on_c, 0, 53, 0
2, 204720, Note_on_c, 0, 48, 80
2, 205403, Note_on_c, 0, 48, 0
2, 205440, Note_on_c, 0, 41, 80
2, 209543, Note_on_c, 0, 41, 0
1, 960, Note_on_c, 0, 74, 80
1, 1187, Note_on_c, 0, 74, 0
1, 1200, Note_on_c, 0, 69, 80
1, 1427, Note_on_c, 0, 69, 0
1, 1440, Note_on_c, 0, 69, 80
1, 1667, Note_on_c, 0, 69, 0
1, 1680, Note_on_c, 0, 69, 80
1, 1907, Note_on_c, 0, 69, 0
1, 1920, Note_on_c, 0, 66, 80
1, 2147, Note_on_c, 0, 66, 0
1, 2160, Note_on_c, 0, 66, 80
1, 2387, Note_on_c, 0, 66, 0
1, 4920, Note_on_c, 0, 59, 80
1, 5033, Note_on_c, 0, 59, 0
1, 5040, Note_on_c, 0, 62, 80
1, 5267, Note_on_c, 0, 62, 0
1, 5280, Note_on_c, 0, 64, 80
1, 5507, Note_on_c, 0, 64, 0
1, 5520, Note_on_c, 0, 66, 80
1, 5747, Note_on_c, 0, 66, 0
1, 5760, Note_on_c, 0, 66, 80
1, 5987, Note_on_c, 0, 66, 0
1, 6000, Note_on_c, 0, 64, 80
1, 6227, Note_on_c, 0, 64, 0
1, 6240, Note_on_c, 0, 64, 80
1, 6467, Note_on_c, 0, 64, 0
1, 8640, Note_on_c, 0, 74, 80
1, 8867, Note_on_c, 0, 74, 0
1, 8880, Note_on_c, 0, 69, 80
1, 9107, Note_on_c, 0, 69, 0
1, 9120, Note_on_c, 0, 69, 80
1, 9347, Note_on_c, 0, 69, 0
1, 9360, Note_on_c, 0, 69, 80
1, 9587, Note_on_c, 0, 69, 0
1, 9600, Note_on_c, 0, 66, 80
1, 9827, Note_on_c, 0, 66, 0
1, 9840, Note_on_c, 0, 66, 80
1, 10067, Note_on_c, 0, 66, 0
1, 12240, Note_on_c, 0, 57, 80
1, 12467, Note_on_c, 0, 57, 0
1, 12480, Note_on_c, 0, 66, 80
1, 12707, Note_on_c, 0, 66, 0
1, 12720, Note_on_c, 0, 69, 80
1, 12947, Note_on_c, 0, 69, 0
1, 12960, Note_on_c, 0, 69, 80
1, 13187, Note_on_c, 0, 69, 0
1, 13200, Note_on_c, 0, 66, 80
1, 13655, Note_on_c, 0, 66, 0
1, 13680, Note_on_c, 0, 64, 80
1, 13907, Note_on_c, 0, 64, 0
1, 13920, Note_on_c, 0, 62, 80
1, 14375, Note_on_c, 0, 62, 0
1, 16080, Note_on_c, 0, 57, 80
1, 16307, Note_on_c, 0, 57, 0
1, 16320, Note_on_c, 0, 62, 80
1, 16547, Note_on_c, 0, 62, 0
1, 16560, Note_on_c, 0, 62, 80
1, 16787, Note_on_c, 0, 62, 0
1, 16800, Note_on_c, 0, 62, 80
1, 17027, Note_on_c, 0, 62, 0
1, 17040, Note_on_c, 0, 64, 80
1, 17495, Note_on_c, 0, 64, 0
1, 17520, Note_on_c, 0, 64, 80
1, 17633, Note_on_c, 0, 64, 0
1, 17640, Note_on_c, 0, 62, 80
1, 17753, Note_on_c, 0, 62, 0
1, 17760, Note_on_c, 0, 59, 80
1, 18215, Note_on_c, 0, 59, 0
1, 19920, Note_on_c, 0, 57, 80
1, 20147, Note_on_c, 0, 57, 0
1, 20160, Note_on_c, 0, 62, 80
1, 20387, Note_on_c, 0, 62, 0
1, 20400, Note_on_c, 0, 64, 80
1, 20627, Note_on_c, 0, 64, 0
1, 20640, Note_on_c, 0, 66, 80
1, 20867, Note_on_c, 0, 66, 0
1, 20880, Note_on_c, 0, 66, 80
1, 21335, Note_on_c, 0, 66, 0
1, 21360, Note_on_c, 0, 64, 80
1, 21587, Note_on_c, 0, 64, 0
1, 22800, Note_on_c, 0, 62, 80
1, 22913, Note_on_c, 0, 62, 0
1, 22920, Note_on_c, 0, 62, 80
1, 23033, Note_on_c, 0, 62, 0
1, 23040, Note_on_c, 0, 66, 80
1, 23495, Note_on_c, 0, 66, 0
1, 23520, Note_on_c, 0, 69, 80
1, 23975, Note_on_c, 0, 69, 0
1, 24000, Note_on_c, 0, 66, 80
1, 24227, Note_on_c, 0, 66, 0
1, 24240, Note_on_c, 0, 64, 80
1, 24467, Note_on_c, 0, 64, 0
1, 24480, Note_on_c, 0, 62, 80
1, 24707, Note_on_c, 0, 62, 0
1, 24720, Note_on_c, 0, 64, 80
1, 25175, Note_on_c, 0, 64, 0
1, 25200, Note_on_c, 0, 66, 80
1, 25883, Note_on_c, 0, 66, 0
1, 26160, Note_on_c, 0, 59, 80
1, 26387, Note_on_c, 0, 59, 0
1, 26400, Note_on_c, 0, 59, 80
1, 26627, Note_on_c, 0, 59, 0
1, 26640, Note_on_c, 0, 62, 80
1, 26867, Note_on_c, 0, 62, 0
1, 26880, Note_on_c, 0, 66, 80
1, 27335, Note_on_c, 0, 66, 0
1, 27360, Note_on_c, 0, 69, 80
1, 27815, Note_on_c, 0, 69, 0
1, 27840, Note_on_c, 0, 66, 80
1, 28067, Note_on_c, 0, 66, 0
1, 28080, Note_on_c, 0, 64, 80
1, 28307, Note_on_c, 0, 64, 0
1, 28320, Note_on_c, 0, 62, 80
1, 28547, Note_on_c, 0, 62, 0
1, 28560, Note_on_c, 0, 64, 80
1, 29015, Note_on_c, 0, 64, 0
1, 29040, Note_on_c, 0, 62, 80
1, 29267, Note_on_c, 0, 62, 0
1, 29760, Note_on_c, 0, 59, 80
1, 29987, Note_on_c, 0, 59, 0
1, 30000, Note_on_c, 0, 59, 80
1, 30227, Note_on_c, 0, 59, 0
1, 30240, Note_on_c, 0, 62, 80
1, 30467, Note_on_c, 0, 62, 0
1, 30480, Note_on_c, 0, 62, 80
1, 30707, Note_on_c, 0, 62, 0
1, 30720, Note_on_c, 0, 66, 80
1, 30947, Note_on_c, 0, 66, 0
1, 30960, Note_on_c, 0, 66, 80
1, 31187, Note_on_c, 0, 66, 0
1, 31200, Note_on_c, 0, 69, 80
1, 31655, Note_on_c, 0, 69, 0
1, 31680, Note_on_c, 0, 66, 80
1, 31907, Note_on_c, 0, 66, 0
1, 31920, Note_on_c, 0, 64, 80
1, 32147, Note_on_c, 0, 64, 0
1, 32160, Note_on_c, 0, 62, 80
1, 32387, Note_on_c, 0, 62, 0
1, 32400, Note_on_c, 0, 64, 80
1, 32855, Note_on_c, 0, 64, 0
1, 32880, Note_on_c, 0, 66, 80
1, 33107, Note_on_c, 0, 66, 0
1, 33360, Note_on_c, 0, 62, 80
1, 33815, Note_on_c, 0, 62, 0
1, 33840, Note_on_c, 0, 64, 80
1, 34067, Note_on_c, 0, 64, 0
1, 34080, Note_on_c, 0, 66, 80
1, 34307, Note_on_c, 0, 66, 0
1, 34320, Note_on_c, 0, 67, 80
1, 34547, Note_on_c, 0, 67, 0
1, 34560, Note_on_c, 0, 66, 80
1, 34787, Note_on_c, 0, 66, 0
1, 34800, Note_on_c, 0, 66, 80
1, 35027, Note_on_c, 0, 66, 0
1, 35040, Note_on_c, 0, 64, 80
1, 35267, Note_on_c, 0, 64, 0
1, 35280, Note_on_c, 0, 62, 80
1, 35507, Note_on_c, 0, 62, 0
1, 35520, Note_on_c, 0, 62, 80
1, 35747, Note_on_c, 0, 62, 0
1, 35760, Note_on_c, 0, 64, 80
1, 35987, Note_on_c, 0, 64, 0
1, 36000, Note_on_c, 0, 66, 80
1, 36227, Note_on_c, 0, 66, 0
1, 36240, Note_on_c, 0, 66, 80
1, 36467, Note_on_c, 0, 66, 0
1, 36480, Note_on_c, 0, 64, 80
1, 36935, Note_on_c, 0, 64, 0
1, 36960, Note_on_c, 0, 64, 80
1, 37187, Note_on_c, 0, 64, 0
1, 37200, Note_on_c, 0, 62, 80
1, 37427, Note_on_c, 0, 62, 0
1, 37440, Note_on_c, 0, 66, 80
1, 37667, Note_on_c, 0, 66, 0
1, 37680, Note_on_c, 0, 64, 80
1, 37907, Note_on_c, 0, 64, 0
1, 37920, Note_on_c, 0, 62, 80
1, 38147, Note_on_c, 0, 62, 0
1, 39600, Note_on_c, 0, 74, 80
1, 39827, Note_on_c, 0, 74, 0
1, 39840, Note_on_c, 0, 74, 80
1, 40067, Note_on_c, 0, 74, 0
1, 40080, Note_on_c, 0, 69, 80
1, 40307, Note_on_c, 0, 69, 0
1, 40320, Note_on_c, 0, 69, 80
1, 40547, Note_on_c, 0, 69, 0
1, 40560, Note_on_c, 0, 71, 80
1, 40787, Note_on_c, 0, 71, 0
1, 40800, Note_on_c, 0, 69, 80
1, 41255, Note_on_c, 0, 69, 0
1, 42960, Note_on_c, 0, 74, 80
1, 43187, Note_on_c, 0, 74, 0
1, 43200, Note_on_c, 0, 74, 80
1, 43427, Note_on_c, 0, 74, 0
1, 43440, Note_on_c, 0, 69, 80
1, 43667, Note_on_c, 0, 69, 0
1, 43680, Note_on_c, 0, 69, 80
1, 43907, Note_on_c, 0, 69, 0
1, 43920, Note_on_c, 0, 69, 80
1, 44147, Note_on_c, 0, 69, 0
1, 44160, Note_on_c, 0, 69, 80
1, 44387, Note_on_c, 0, 69, 0
1, 44400, Note_on_c, 0, 71, 80
1, 44627, Note_on_c, 0, 71, 0
1, 44640, Note_on_c, 0, 69, 80
1, 44867, Note_on_c, 0, 69, 0
1, 44880, Note_on_c, 0, 66, 80
1, 45107, Note_on_c, 0, 66, 0
1, 46800, Note_on_c, 0, 74, 80
1, 47027, Note_on_c, 0, 74, 0
1, 47040, Note_on_c, 0, 74, 80
1, 47267, Note_on_c, 0, 74, 0
1, 47280, Note_on_c, 0, 74, 80
1, 47507, Note_on_c, 0, 74, 0
1, 47520, Note_on_c, 0, 69, 80
1, 47747, Note_on_c, 0, 69, 0
1, 47760, Note_on_c, 0, 69, 80
1, 47987, Note_on_c, 0, 69, 0
1, 48000, Note_on_c, 0, 69, 80
1, 48227, Note_on_c, 0, 69, 0
1, 48240, Note_on_c, 0, 71, 80
1, 48467, Note_on_c, 0, 71, 0
1, 48480, Note_on_c, 0, 69, 80
1, 48935, Note_on_c, 0, 69, 0
1, 50640, Note_on_c, 0, 74, 80
1, 51095, Note_on_c, 0, 74, 0
1, 51120, Note_on_c, 0, 74, 80
1, 51347, Note_on_c, 0, 74, 0
1, 51360, Note_on_c, 0, 74, 80
1, 51587, Note_on_c, 0, 74, 0
1, 51600, Note_on_c, 0, 69, 80
1, 51827, Note_on_c, 0, 69, 0
1, 51840, Note_on_c, 0, 69, 80
1, 52067, Note_on_c, 0, 69, 0
1, 52080, Note_on_c, 0, 71, 80
1, 52307, Note_on_c, 0, 71, 0
1, 52320, Note_on_c, 0, 69, 80
1, 52775, Note_on_c, 0, 69, 0
1, 53280, Note_on_c, 0, 62, 80
1, 53393, Note_on_c, 0, 62, 0
1, 53400, Note_on_c, 0, 62, 80
1, 53513, Note_on_c, 0, 62, 0
1, 53520, Note_on_c, 0, 67, 80
1, 53747, Note_on_c, 0, 67, 0
1, 53760, Note_on_c, 0, 66, 80
1, 54215, Note_on_c, 0, 66, 0
1, 54240, Note_on_c, 0, 69, 80
1, 54695, Note_on_c, 0, 69, 0
1, 54720, Note_on_c, 0, 66, 80
1, 54947, Note_on_c, 0, 66, 0
1, 54960, Note_on_c, 0, 64, 80
1, 55187, Note_on_c, 0, 64, 0
1, 55200, Note_on_c, 0, 62, 80
1, 55427, Note_on_c, 0, 62, 0
1, 55440, Note_on_c, 0, 64, 80
1, 55895, Note_on_c, 0, 64, 0
1, 55920, Note_on_c, 0, 66, 80
1, 56603, Note_on_c, 0, 66, 0
1, 56880, Note_on_c, 0, 62, 80
1, 57107, Note_on_c, 0, 62, 0
1, 57120, Note_on_c, 0, 62, 80
1, 57347, Note_on_c, 0, 62, 0
1, 57360, Note_on_c, 0, 64, 80
1, 57587, Note_on_c, 0, 64, 0
1, 57600, Note_on_c, 0, 66, 80
1, 58055, Note_on_c, 0, 66, 0
1, 58080, Note_on_c, 0, 69, 80
1, 58535, Note_on_c, 0, 69, 0
1, 58560, Note_on_c, 0, 66, 80
1, 58787, Note_on_c, 0, 66, 0
1, 58800, Note_on_c, 0, 64, 80
1, 59027, Note_on_c, 0, 64, 0
1, 59040, Note_on_c, 0, 62, 80
1, 59267, Note_on_c, 0, 62, 0
1, 59280, Note_on_c, 0, 64, 80
1, 59735, Note_on_c, 0, 64, 0
1, 59760, Note_on_c, 0, 62, 80
1, 59987, Note_on_c, 0, 62, 0
1, 60720, Note_on_c, 0, 59, 80
1, 60947, Note_on_c, 0, 59, 0
1, 60960, Note_on_c, 0, 62, 80
1, 61187, Note_on_c, 0, 62, 0
1, 61200, Note_on_c, 0, 62, 80
1, 61427, Note_on_c, 0, 62, 0
1, 61440, Note_on_c, 0, 66, 80
1, 61667, Note_on_c, 0, 66, 0
1, 61680, Note_on_c, 0, 66, 80
1, 61907, Note_on_c, 0, 66, 0
1, 61920, Note_on_c, 0, 69, 80
1, 62375, Note_on_c, 0, 69, 0
1, 62400, Note_on_c, 0, 66, 80
1, 62627, Note_on_c, 0, 66, 0
1, 62640, Note_on_c, 0, 64, 80
1, 62867, Note_on_c, 0, 64, 0
1, 62880, Note_on_c, 0, 62, 80
1, 63107, Note_on_c, 0, 62, 0
1, 63120, Note_on_c, 0, 64, 80
1, 63575, Note_on_c, 0, 64, 0
1, 63600, Note_on_c, 0, 66, 80
1, 63827, Note_on_c, 0, 66, 0
1, 64080, Note_on_c, 0, 62, 80
1, 64535, Note_on_c, 0, 62, 0
1, 64560, Note_on_c, 0, 64, 80
1, 64787, Note_on_c, 0, 64, 0
1, 64800, Note_on_c, 0, 66, 80
1, 65027, Note_on_c, 0, 66, 0
1, 65040, Note_on_c, 0, 67, 80
1, 65267, Note_on_c, 0, 67, 0
1, 65280, Note_on_c, 0, 66, 80
1, 65507, Note_on_c, 0, 66, 0
1, 65520, Note_on_c, 0, 66, 80
1, 65747, Note_on_c, 0, 66, 0
1, 65760, Note_on_c, 0, 64, 80
1, 65987, Note_on_c, 0, 64, 0
1, 66000, Note_on_c, 0, 62, 80
1, 66227, Note_on_c, 0, 62, 0
1, 66240, Note_on_c, 0, 62, 80
1, 66467, Note_on_c, 0, 62, 0
1, 66480, Note_on_c, 0, 64, 80
1, 66707, Note_on_c, 0, 64, 0
1, 66720, Note_on_c, 0, 66, 80
1, 66947, Note_on_c, 0, 66, 0
1, 66960, Note_on_c, 0, 66, 80
1, 67187, Note_on_c, 0, 66, 0
1, 67200, Note_on_c, 0, 64, 80
1, 67655, Note_on_c, 0, 64, 0
1, 67680, Note_on_c, 0, 64, 80
1, 67907, Note_on_c, 0, 64, 0
1, 67920, Note_on_c, 0, 62, 80
1, 68147, Note_on_c, 0, 62, 0
1, 68160, Note_on_c, 0, 66, 80
1, 68387, Note_on_c, 0, 66, 0
1, 68400, Note_on_c, 0, 64, 80
1, 68627, Note_on_c, 0, 64, 0
1, 68640, Note_on_c, 0, 62, 80
1, 72743, Note_on_c, 0, 62, 0
2, 0, Note_on_c, 0, 50, 80
2, 0, Note_on_c, 0, 54, 80
2, 911, Note_on_c, 0, 50, 0
2, 911, Note_on_c, 0, 54, 0
2, 960, Note_on_c, 0, 50, 80
2, 960, Note_on_c, 0, 54, 80
2, 1643, Note_on_c, 0, 50, 0
2, 1643, Note_on_c, 0, 54, 0
2, 1680, Note_on_c, 0, 50, 80
2, 1680, Note_on_c, 0, 55, 80
2, 1907, Note_on_c, 0, 50, 0
2, 1907, Note_on_c, 0, 55, 0
2, 1920, Note_on_c, 0, 50, 80
2, 1920, Note_on_c, 0, 55, 80
2, 2831, Note_on_c, 0, 50, 0
2, 2831, Note_on_c, 0, 55, 0
2, 2880, Note_on_c, 0, 50, 80
2, 2880, Note_on_c, 0, 55, 80
2, 3791, Note_on_c, 0, 50, 0
2, 3791, Note_on_c, 0, 55, 0
2, 3840, Note_on_c, 0, 47, 80
2, 3840, Note_on_c, 0, 54, 80
2, 4751, Note_on_c, 0, 47, 0
2, 4751, Note_on_c, 0, 54, 0
2, 4800, Note_on_c, 0, 47, 80
2, 4800, Note_on_c, 0, 54, 80
2, 5711, Note_on_c, 0, 47, 0
2, 5711, Note_on_c, 0, 54, 0
2, 5760, Note_on_c, 0, 47, 80
2, 5760, Note_on_c, 0, 54, 80
2, 6215, Note_on_c, 0, 47, 0
2, 6215, Note_on_c, 0, 54, 0
2, 6240, Note_on_c, 0, 45, 80
2, 6467, Note_on_c, 0, 45, 0
2, 6480, Note_on_c, 0, 49, 80
2, 6480, Note_on_c, 0, 52, 80
2, 7163, Note_on_c, 0, 52, 0
2, 7200, Note_on_c, 0, 52, 80
2, 7619, Note_on_c, 0, 49, 0
2, 7655, Note_on_c, 0, 52, 0
2, 7680, Note_on_c, 0, 50, 80
2, 7680, Note_on_c, 0, 54, 80
2, 8591, Note_on_c, 0, 50, 0
2, 8591, Note_on_c, 0, 54, 0
2, 8640, Note_on_c, 0, 50, 80
2, 8640, Note_on_c, 0, 54, 80
2, 9323, Note_on_c, 0, 50, 0
2, 9323, Note_on_c, 0, 54, 0
2, 9360, Note_on_c, 0, 50, 80
2, 9360, Note_on_c, 0, 57, 80
2, 9587, Note_on_c, 0, 50, 0
2, 9587, Note_on_c, 0, 57, 0
2, 9600, Note_on_c, 0, 50, 80
2, 9600, Note_on_c, 0, 55, 80
2, 10511, Note_on_c, 0, 50, 0
2, 10511, Note_on_c, 0, 55, 0
2, 10560, Note_on_c, 0, 50, 80
2, 10560, Note_on_c, 0, 55, 80
2, 11471, Note_on_c, 0, 50, 0
2, 11471, Note_on_c, 0, 55, 0
2, 11520, Note_on_c, 0, 47, 80
2, 11520, Note_on_c, 0, 54, 80
2, 12431, Note_on_c, 0, 47, 0
2, 12431, Note_on_c, 0, 54, 0
2, 12480, Note_on_c, 0, 45, 80
2, 12480, Note_on_c, 0, 52, 80
2, 13163, Note_on_c, 0, 45, 0
2, 13163, Note_on_c, 0, 52, 0
2, 13200, Note_on_c, 0, 50, 80
2, 13200, Note_on_c, 0, 57, 80
2, 13427, Note_on_c, 0, 50, 0
2, 13427, Note_on_c, 0, 57, 0
2, 13440, Note_on_c, 0, 50, 80
2, 13440, Note_on_c, 0, 57, 80
2, 14351, Note_on_c, 0, 50, 0
2, 14351, Note_on_c, 0, 57, 0
2, 14400, Note_on_c, 0, 50, 80
2, 14400, Note_on_c, 0, 57, 80
2, 15311, Note_on_c, 0, 50, 0
2, 15311, Note_on_c, 0, 57, 0
2, 15360, Note_on_c, 0, 50, 80
2, 15360, Note_on_c, 0, 54, 80
2, 16271, Note_on_c, 0, 50, 0
2, 16271, Note_on_c, 0, 54, 0
2, 16320, Note_on_c, 0, 50, 80
2, 16320, Note_on_c, 0, 54, 80
2, 17003, Note_on_c, 0, 50, 0
2, 17003, Note_on_c, 0, 54, 0
2, 17040, Note_on_c, 0, 50, 80
2, 17040, Note_on_c, 0, 55, 80
2, 17267, Note_on_c, 0, 50, 0
2, 17267, Note_on_c, 0, 55, 0
2, 17280, Note_on_c, 0, 50, 80
2, 17280, Note_on_c, 0, 55, 80
2, 18191, Note_on_c, 0, 50, 0
2, 18191, Note_on_c, 0, 55, 0
2, 18240, Note_on_c, 0, 50, 80
2, 18240, Note_on_c, 0, 55, 80
2, 19151, Note_on_c, 0, 50, 0
2, 19151, Note_on_c, 0, 55, 0
2, 19200, Note_on_c, 0, 47, 80
2, 19200, Note_on_c, 0, 54, 80
2, 20111, Note_on_c, 0, 47, 0
2, 20111, Note_on_c, 0, 54, 0
2, 20160, Note_on_c, 0, 47, 80
2, 20160, Note_on_c, 0, 54, 80
2, 21071, Note_on_c, 0, 47, 0
2, 21071, Note_on_c, 0, 54, 0
2, 21120, Note_on_c, 0, 47, 80
2, 21120, Note_on_c, 0, 54, 80
2, 21575, Note_on_c, 0, 47, 0
2, 21575, Note_on_c, 0, 54, 0
2, 21600, Note_on_c, 0, 45, 80
2, 21827, Note_on_c, 0, 45, 0
2, 21840, Note_on_c, 0, 49, 80
2, 21840, Note_on_c, 0, 52, 80
2, 22523, Note_on_c, 0, 52, 0
2, 22560, Note_on_c, 0, 52, 80
2, 22979, Note_on_c, 0, 49, 0
2, 23015, Note_on_c, 0, 52, 0
2, 23040, Note_on_c, 0, 50, 80
2, 23040, Note_on_c, 0, 54, 80
2, 23040, Note_on_c, 0, 57, 80
2, 23267, Note_on_c, 0, 50, 0
2, 23267, Note_on_c, 0, 54, 0
2, 23267, Note_on_c, 0, 57, 0
2, 23280, Note_on_c, 0, 50, 80
2, 23280, Note_on_c, 0, 54, 80
2, 23280, Note_on_c, 0, 57, 80
2, 23507, Note_on_c, 0, 50, 0
2, 23507, Note_on_c, 0, 54, 0
2, 23507, Note_on_c, 0, 57, 0
2, 23520, Note_on_c, 0, 50, 80
2, 23520, Note_on_c, 0, 54, 80
2, 23520, Note_on_c, 0, 57, 80
2, 23747, Note_on_c, 0, 50, 0
2, 23747, Note_on_c, 0, 54, 0
2, 23747, Note_on_c, 0, 57, 0
2, 23760, Note_on_c, 0, 50, 80
2, 23760, Note_on_c, 0, 54, 80
2, 23760, Note_on_c, 0, 57, 80
2, 23987, Note_on_c, 0, 50, 0
2, 23987, Note_on_c, 0, 54, 0
2, 23987, Note_on_c, 0, 57, 0
2, 24000, Note_on_c, 0, 50, 80
2, 24000, Note_on_c, 0, 54, 80
2, 24000, Note_on_c, 0, 57, 80
2, 24227, Note_on_c, 0, 50, 0
2, 24227, Note_on_c, 0, 54, 0
2, 24227, Note_on_c, 0, 57, 0
2, 24240, Note_on_c, 0, 50, 80
2, 24240, Note_on_c, 0, 54, 80
2, 24240, Note_on_c, 0, 57, 80
2, 24467, Note_on_c, 0, 50, 0
2, 24467, Note_on_c, 0, 54, 0
2, 24467, Note_on_c, 0, 57, 0
2, 24480, Note_on_c, 0, 50, 80
2, 24480, Note_on_c, 0, 54, 80
2, 24480, Note_on_c, 0, 57, 80
2, 24707, Note_on_c, 0, 50, 0
2, 24707, Note_on_c, 0, 54, 0
2, 24707, Note_on_c, 0, 57, 0
2, 24720, Note_on_c, 0, 50, 80
2, 24720, Note_on_c, 0, 54, 80
2, 24720, Note_on_c, 0, 57, 80
2, 24947, Note_on_c, 0, 50, 0
2, 24947, Note_on_c, 0, 54, 0
2, 24947, Note_on_c, 0, 57, 0
2, 24960, Note_on_c, 0, 50, 80
2, 24960, Note_on_c, 0, 55, 80
2, 24960, Note_on_c, 0, 59, 80
2, 25187, Note_on_c, 0, 50, 0
2, 25187, Note_on_c, 0, 55, 0
2, 25187, Note_on_c, 0, 59, 0
2, 25200, Note_on_c, 0, 50, 80
2, 25200, Note_on_c, 0, 55, 80
2, 25200, Note_on_c, 0, 59, 80
2, 25427, Note_on_c, 0, 50, 0
2, 25427, Note_on_c, 0, 55, 0
2, 25427, Note_on_c, 0, 59, 0
2, 25440, Note_on_c, 0, 50, 80
2, 25440, Note_on_c, 0, 55, 80
2, 25440, Note_on_c, 0, 59, 80
2, 25667, Note_on_c, 0, 50, 0
2, 25667, Note_on_c, 0, 55, 0
2, 25667, Note_on_c, 0, 59, 0
2, 25680, Note_on_c, 0, 50, 80
2, 25680, Note_on_c, 0, 55, 80
2, 25680, Note_on_c, 0, 59, 80
2, 25907, Note_on_c, 0, 50, 0
2, 25907, Note_on_c, 0, 55, 0
2, 25907, Note_on_c, 0, 59, 0
2, 25920, Note_on_c, 0, 50, 80
2, 25920, Note_on_c, 0, 55, 80
2, 25920, Note_on_c, 0, 59, 80
2, 26147, Note_on_c, 0, 50, 0
2, 26147, Note_on_c, 0, 55, 0
2, 26147, Note_on_c, 0, 59, 0
2, 26160, Note_on_c, 0, 50, 80
2, 26160, Note_on_c, 0, 55, 80
2, 26160, Note_on_c, 0, 59, 80
2, 26387, Note_on_c, 0, 50, 0
2, 26387, Note_on_c, 0, 55, 0
2, 26387, Note_on_c, 0, 59, 0
2, 26400, Note_on_c, 0, 50, 80
2, 26400, Note_on_c, 0, 55, 80
2, 26400, Note_on_c, 0, 59, 80
2, 26627, Note_on_c, 0, 50, 0
2, 26627, Note_on_c, 0, 55, 0
2, 26627, Note_on_c, 0, 59, 0
2, 26640, Note_on_c, 0, 50, 80
2, 26640, Note_on_c, 0, 55, 80
2, 26640, Note_on_c, 0, 59, 80
2, 26867, Note_on_c, 0, 50, 0
2, 26867, Note_on_c, 0, 55, 0
2, 26867, Note_on_c, 0, 59, 0
2, 26880, Note_on_c, 0, 50, 80
2, 26880, Note_on_c, 0, 54, 80
2, 26880, Note_on_c, 0, 57, 80
2, 27107, Note_on_c, 0, 50, 0
2, 27107, Note_on_c, 0, 54, 0
2, 27107, Note_on_c, 0, 57, 0
2, 27120, Note_on_c, 0, 50, 80
2, 27120, Note_on_c, 0, 54, 80
2, 27120, Note_on_c, 0, 57, 80
2, 27347, Note_on_c, 0, 50, 0
2, 27347, Note_on_c, 0, 54, 0
2, 27347, Note_on_c, 0, 57, 0
2, 27360, Note_on_c, 0, 50, 80
2, 27360, Note_on_c, 0, 54, 80
2, 27360, Note_on_c, 0, 57, 80
2, 27587, Note_on_c, 0, 50, 0
2, 27587, Note_on_c, 0, 54, 0
2, 27587, Note_on_c, 0, 57, 0
2, 27600, Note_on_c, 0, 50, 80
2, 27600, Note_on_c, 0, 54, 80
2, 27600, Note_on_c, 0, 57, 80
2, 27827, Note_on_c, 0, 50, 0
2, 27827, Note_on_c, 0, 54, 0
2, 27827, Note_on_c, 0, 57, 0
2, 27840, Note_on_c, 0, 50, 80
2, 27840, Note_on_c, 0, 54, 80
2, 27840, Note_on_c, 0, 57, 80
2, 28067, Note_on_c, 0, 50, 0
2, 28067, Note_on_c, 0, 54, 0
2, 28067, Note_on_c, 0, 57, 0
2, 28080, Note_on_c, 0, 50, 80
2, 28080, Note_on_c, 0, 54, 80
2, 28080, Note_on_c, 0, 57, 80
2, 28307, Note_on_c, 0, 50, 0
2, 28307, Note_on_c, 0, 54, 0
2, 28307, Note_on_c, 0, 57, 0
2, 28320, Note_on_c, 0, 50, 80
2, 28320, Note_on_c, 0, 54, 80
2, 28320, Note_on_c, 0, 57, 80
2, 28547, Note_on_c, 0, 50, 0
2, 28547, Note_on_c, 0, 54, 0
2, 28547, Note_on_c, 0, 57, 0
2, 28560, Note_on_c, 0, 50, 80
2, 28560, Note_on_c, 0, 54, 80
2, 28560, Note_on_c, 0, 57, 80
2, 28787, Note_on_c, 0, 50, 0
2, 28787, Note_on_c, 0, 54, 0
2, 28787, Note_on_c, 0, 57, 0
2, 28800, Note_on_c, 0, 50, 80
2, 28800, Note_on_c, 0, 54, 80
2, 28800, Note_on_c, 0, 57, 80
2, 29027, Note_on_c, 0, 50, 0
2, 29027, Note_on_c, 0, 54, 0
2, 29027, Note_on_c, 0, 57, 0
2, 29040, Note_on_c, 0, 50, 80
2, 29040, Note_on_c, 0, 54, 80
2, 29040, Note_on_c, 0, 57, 80
2, 29267, Note_on_c, 0, 50, 0
2, 29267, Note_on_c, 0, 54, 0
2, 29267, Note_on_c, 0, 57, 0
2, 29280, Note_on_c, 0, 50, 80
2, 29280, Note_on_c, 0, 54, 80
2, 29280, Note_on_c, 0, 57, 80
2, 29507, Note_on_c, 0, 50, 0
2, 29507, Note_on_c, 0, 54, 0
2, 29507, Note_on_c, 0, 57, 0
2, 29520, Note_on_c, 0, 50, 80
2, 29520, Note_on_c, 0, 54, 80
2, 29520, Note_on_c, 0, 57, 80
2, 29747, Note_on_c, 0, 50, 0
2, 29747, Note_on_c, 0, 54, 0
2, 29747, Note_on_c, 0, 57, 0
2, 29760, Note_on_c, 0, 50, 80
2, 29760, Note_on_c, 0, 54, 80
2, 29760, Note_on_c, 0, 57, 80
2, 29987, Note_on_c, 0, 50, 0
2, 29987, Note_on_c, 0, 54, 0
2, 29987, Note_on_c, 0, 57, 0
2, 30000, Note_on_c, 0, 50, 80
2, 30000, Note_on_c, 0, 54, 80
2, 30000, Note_on_c, 0, 57, 80
2, 30227, Note_on_c, 0, 50, 0
2, 30227, Note_on_c, 0, 54, 0
2, 30227, Note_on_c, 0, 57, 0
2, 30240, Note_on_c, 0, 50, 80
2, 30240, Note_on_c, 0, 54, 80
2, 30240, Note_on_c, 0, 57, 80
2, 30467, Note_on_c, 0, 50, 0
2, 30467, Note_on_c, 0, 54, 0
2, 30467, Note_on_c, 0, 57, 0
2, 30480, Note_on_c, 0, 50, 80
2, 30480, Note_on_c, 0, 54, 80
2, 30480, Note_on_c, 0, 57, 80
2, 30707, Note_on_c, 0, 50, 0
2, 30707, Note_on_c, 0, 54, 0
2, 30707, Note_on_c, 0, 57, 0
2, 30720, Note_on_c, 0, 50, 80
2, 30720, Note_on_c, 0, 54, 80
2, 30720, Note_on_c, 0, 57, 80
2, 30947, Note_on_c, 0, 50, 0
2, 30947, Note_on_c, 0, 54, 0
2, 30947, Note_on_c, 0, 57, 0
2, 30960, Note_on_c, 0, 50, 80
2, 30960, Note_on_c, 0, 54, 80
2, 30960, Note_on_c, 0, 57, 80
2, 31187, Note_on_c, 0, 50, 0
2, 31187, Note_on_c, 0, 54, 0
2, 31187, Note_on_c, 0, 57, 0
2, 31200, Note_on_c, 0, 50, 80
2, 31200, Note_on_c, 0, 54, 80
2, 31200, Note_on_c, 0, 57, 80
2, 31427, Note_on_c, 0, 50, 0
2, 31427, Note_on_c, 0, 54, 0
2, 31427, Note_on_c, 0, 57, 0
2, 31440, Note_on_c, 0, 50, 80
2, 31440, Note_on_c, 0, 54, 80
2, 31440, Note_on_c, 0, 57, 80
2, 31667, Note_on_c, 0, 50, 0
2, 31667, Note_on_c, 0, 54, 0
2, 31667, Note_on_c, 0, 57, 0
2, 31680, Note_on_c, 0, 50, 80
2, 31680, Note_on_c, 0, 54, 80
2, 31680, Note_on_c, 0, 57, 80
2, 31907, Note_on_c, 0, 50, 0
2, 31907, Note_on_c, 0, 54, 0
2, 31907, Note_on_c, 0, 57, 0
2, 31920, Note_on_c, 0, 50, 80
2, 31920, Note_on_c, 0, 54, 80
2, 31920, Note_on_c, 0, 57, 80
2, 32147, Note_on_c, 0, 50, 0
2, 32147, Note_on_c, 0, 54, 0
2, 32147, Note_on_c, 0, 57, 0
2, 32160, Note_on_c, 0, 50, 80
2, 32160, Note_on_c, 0, 54, 80
2, 32160, Note_on_c, 0, 57, 80
2, 32387, Note_on_c, 0, 50, 0
2, 32387, Note_on_c, 0, 54, 0
2, 32387, Note_on_c, 0, 57, 0
2, 32400, Note_on_c, 0, 50, 80
2, 32400, Note_on_c, 0, 55, 80
2, 32400, Note_on_c, 0, 59, 80
2, 32627, Note_on_c, 0, 50, 0
2, 32627, Note_on_c, 0, 55, 0
2, 32627, Note_on_c, 0, 59, 0
2, 32640, Note_on_c, 0, 50, 80
2, 32640, Note_on_c, 0, 55, 80
2, 32640, Note_on_c, 0, 59, 80
2, 32867, Note_on_c, 0, 50, 0
2, 32867, Note_on_c, 0, 55, 0
2, 32867, Note_on_c, 0, 59, 0
2, 32880, Note_on_c, 0, 50, 80
2, 32880, Note_on_c, 0, 55, 80
2, 32880, Note_on_c, 0, 59, 80
2, 33107, Note_on_c, 0, 50, 0
2, 33107, Note_on_c, 0, 55, 0
2, 33107, Note_on_c, 0, 59, 0
2, 33120, Note_on_c, 0, 50, 80
2, 33120, Note_on_c, 0, 55, 80
2, 33120, Note_on_c, 0, 59, 80
2, 33347, Note_on_c, 0, 50, 0
2, 33347, Note_on_c, 0, 55, 0
2, 33347, Note_on_c, 0, 59, 0
2, 33360, Note_on_c, 0, 50, 80
2, 33360, Note_on_c, 0, 55, 80
2, 33360, Note_on_c, 0, 59, 80
2, 33587, Note_on_c, 0, 50, 0
2, 33587, Note_on_c, 0, 55, 0
2, 33587, Note_on_c, 0, 59, 0
2, 33600, Note_on_c, 0, 50, 80
2, 33600, Note_on_c, 0, 55, 80
2, 33600, Note_on_c, 0, 59, 80
2, 33827, Note_on_c, 0, 50, 0
2, 33827, Note_on_c, 0, 55, 0
2, 33827, Note_on_c, 0, 59, 0
2, 33840, Note_on_c, 0, 50, 80
2, 33840, Note_on_c, 0, 55, 80
2, 33840, Note_on_c, 0, 59, 80
2, 34067, Note_on_c, 0, 50, 0
2, 34067, Note_on_c, 0, 55, 0
2, 34067, Note_on_c, 0, 59, 0
2, 34080, Note_on_c, 0, 50, 80
2, 34080, Note_on_c, 0, 55, 80
2, 34080, Note_on_c, 0, 59, 80
2, 34307, Note_on_c, 0, 50, 0
2, 34307, Note_on_c, 0, 55, 0
2, 34307, Note_on_c, 0, 59, 0
2, 34320, Note_on_c, 0, 50, 80
2, 34320, Note_on_c, 0, 55, 80
2, 34320, Note_on_c, 0, 59, 80
2, 34547, Note_on_c, 0, 50, 0
2, 34547, Note_on_c, 0, 55, 0
2, 34547, Note_on_c, 0, 59, 0
2, 34560, Note_on_c, 0, 47, 80
2, 34560, Note_on_c, 0, 54, 80
2, 34560, Note_on_c, 0, 59, 80
2, 34787, Note_on_c, 0, 47, 0
2, 34787, Note_on_c, 0, 54, 0
2, 34787, Note_on_c, 0, 59, 0
2, 34800, Note_on_c, 0, 47, 80
2, 34800, Note_on_c, 0, 54, 80
2, 34800, Note_on_c, 0, 59, 80
2, 35027, Note_on_c, 0, 47, 0
2, 35027, Note_on_c, 0, 54, 0
2, 35027, Note_on_c, 0, 59, 0
2, 35040, Note_on_c, 0, 47, 80
2, 35040, Note_on_c, 0, 54, 80
2, 35040, Note_on_c, 0, 59, 80
2, 35267, Note_on_c, 0, 47, 0
2, 35267, Note_on_c, 0, 54, 0
2, 35267, Note_on_c, 0, 59, 0
2, 35280, Note_on_c, 0, 47, 80
2, 35280, Note_on_c, 0, 54, 80
2, 35280, Note_on_c, 0, 59, 80
2, 35507, Note_on_c, 0, 47, 0
2, 35507, Note_on_c, 0, 54, 0
2, 35507, Note_on_c, 0, 59, 0
2, 35520, Note_on_c, 0, 47, 80
2, 35520, Note_on_c, 0, 54, 80
2, 35520, Note_on_c, 0, 59, 80
2, 35747, Note_on_c, 0, 47, 0
2, 35747, Note_on_c, 0, 54, 0
2, 35747, Note_on_c, 0, 59, 0
2, 35760, Note_on_c, 0, 47, 80
2, 35760, Note_on_c, 0, 54, 80
2, 35760, Note_on_c, 0, 59, 80
2, 35987, Note_on_c, 0, 47, 0
2, 35987, Note_on_c, 0, 54, 0
2, 35987, Note_on_c, 0, 59, 0
2, 36000, Note_on_c, 0, 47, 80
2, 36000, Note_on_c, 0, 54, 80
2, 36000, Note_on_c, 0, 59, 80
2, 36227, Note_on_c, 0, 47, 0
2, 36227, Note_on_c, 0, 54, 0
2, 36227, Note_on_c, 0, 59, 0
2, 36240, Note_on_c, 0, 47, 80
2, 36240, Note_on_c, 0, 54, 80
2, 36240, Note_on_c, 0, 59, 80
2, 36467, Note_on_c, 0, 47, 0
2, 36467, Note_on_c, 0, 54, 0
2, 36467, Note_on_c, 0, 59, 0
2, 36480, Note_on_c, 0, 49, 80
2, 36480, Note_on_c, 0, 52, 80
2, 36480, Note_on_c, 0, 57, 80
2, 36935, Note_on_c, 0, 49, 0
2, 36935, Note_on_c, 0, 52, 0
2, 36935, Note_on_c, 0, 57, 0
2, 36960, Note_on_c, 0, 49, 80
2, 36960, Note_on_c, 0, 52, 80
2, 36960, Note_on_c, 0, 57, 80
2, 37415, Note_on_c, 0, 49, 0
2, 37415, Note_on_c, 0, 52, 0
2, 37415, Note_on_c, 0, 57, 0
2, 37440, Note_on_c, 0, 49, 80
2, 37440, Note_on_c, 0, 52, 80
2, 37440, Note_on_c, 0, 57, 80
2, 37895, Note_on_c, 0, 49, 0
2, 37895, Note_on_c, 0, 52, 0
2, 37895, Note_on_c, 0, 57, 0
2, 37920, Note_on_c, 0, 49, 80
2, 37920, Note_on_c, 0, 52, 80
2, 37920, Note_on_c, 0, 57, 80
2, 38375, Note_on_c, 0, 49, 0
2, 38375, Note_on_c, 0, 52, 0
2, 38375, Note_on_c, 0, 57, 0
2, 38400, Note_on_c, 0, 50, 80
2, 38400, Note_on_c, 0, 54, 80
2, 39311, Note_on_c, 0, 50, 0
2, 39311, Note_on_c, 0, 54, 0
2, 39360, Note_on_c, 0, 50, 80
2, 39360, Note_on_c, 0, 54, 80
2, 40043, Note_on_c, 0, 50, 0
2, 40043, Note_on_c, 0, 54, 0
2, 40080, Note_on_c, 0, 50, 80
2, 40080, Note_on_c, 0, 55, 80
2, 40307, Note_on_c, 0, 50, 0
2, 40307, Note_on_c, 0, 55, 0
2, 40320, Note_on_c, 0, 50, 80
2, 40320, Note_on_c, 0, 55, 80
2, 41231, Note_on_c, 0, 50, 0
2, 41231, Note_on_c, 0, 55, 0
2, 41280, Note_on_c, 0, 50, 80
2, 41280, Note_on_c, 0, 55, 80
2, 42191, Note_on_c, 0, 50, 0
2, 42191, Note_on_c, 0, 55, 0
2, 42240, Note_on_c, 0, 50, 80
2, 42240, Note_on_c, 0, 54, 80
2, 43151, Note_on_c, 0, 50, 0
2, 43151, Note_on_c, 0, 54, 0
2, 43200, Note_on_c, 0, 50, 80
2, 43200, Note_on_c, 0, 54, 80
2, 43883, Note_on_c, 0, 50, 0
2, 43883, Note_on_c, 0, 54, 0
2, 43920, Note_on_c, 0, 50, 80
2, 43920, Note_on_c, 0, 55, 80
2, 44147, Note_on_c, 0, 50, 0
2, 44147, Note_on_c, 0, 55, 0
2, 44160, Note_on_c, 0, 50, 80
2, 44160, Note_on_c, 0, 55, 80
2, 45071, Note_on_c, 0, 50, 0
2, 45071, Note_on_c, 0, 55, 0
2, 45120, Note_on_c, 0, 50, 80
2, 45120, Note_on_c, 0, 55, 80
2, 46031, Note_on_c, 0, 50, 0
2, 46031, Note_on_c, 0, 55, 0
2, 46080, Note_on_c, 0, 50, 80
2, 46080, Note_on_c, 0, 54, 80
2, 46991, Note_on_c, 0, 50, 0
2, 46991, Note_on_c, 0, 54, 0
2, 47040, Note_on_c, 0, 50, 80
2, 47040, Note_on_c, 0, 54, 80
2, 47723, Note_on_c, 0, 50, 0
2, 47723, Note_on_c, 0, 54, 0
2, 47760, Note_on_c, 0, 50, 80
2, 47760, Note_on_c, 0, 55, 80
2, 47987, Note_on_c, 0, 50, 0
2, 47987, Note_on_c, 0, 55, 0
2, 48000, Note_on_c, 0, 50, 80
2, 48000, Note_on_c, 0, 55, 80
2, 48911, Note_on_c, 0, 50, 0
2, 48911, Note_on_c, 0, 55, 0
2, 48960, Note_on_c, 0, 50, 80
2, 48960, Note_on_c, 0, 55, 80
2, 49871, Note_on_c, 0, 50, 0
2, 49871, Note_on_c, 0, 55, 0
2, 49920, Note_on_c, 0, 50, 80
2, 49920, Note_on_c, 0, 54, 80
2, 50831, Note_on_c, 0, 50, 0
2, 50831, Note_on_c, 0, 54, 0
2, 50880, Note_on_c, 0, 50, 80
2, 50880, Note_on_c, 0, 54, 80
2, 51791, Note_on_c, 0, 50, 0
2, 51791, Note_on_c, 0, 54, 0
2, 51840, Note_on_c, 0, 50, 80
2, 51840, Note_on_c, 0, 54, 80
2, 52295, Note_on_c, 0, 50, 0
2, 52295, Note_on_c, 0, 54, 0
2, 52320, Note_on_c, 0, 45, 80
2, 52547, Note_on_c, 0, 45, 0
2, 52560, Note_on_c, 0, 49, 80
2, 52560, Note_on_c, 0, 52, 80
2, 52787, Note_on_c, 0, 49, 0
2, 52787, Note_on_c, 0, 52, 0
2, 52800, Note_on_c, 0, 49, 80
2, 52800, Note_on_c, 0, 52, 80
2, 53711, Note_on_c, 0, 49, 0
2, 53711, Note_on_c, 0, 52, 0
2, 53760, Note_on_c, 0, 50, 80
2, 53760, Note_on_c, 0, 54, 80
2, 53760, Note_on_c, 0, 57, 80
2, 53987, Note_on_c, 0, 50, 0
2, 53987, Note_on_c, 0, 54, 0
2, 53987, Note_on_c, 0, 57, 0
2, 54000, Note_on_c, 0, 50, 80
2, 54000, Note_on_c, 0, 54, 80
2, 54000, Note_on_c, 0, 57, 80
2, 54227, Note_on_c, 0, 50, 0
2, 54227, Note_on_c, 0, 54, 0
2, 54227, Note_on_c, 0, 57, 0
2, 54240, Note_on_c, 0, 50, 80
2, 54240, Note_on_c, 0, 54, 80
2, 54240, Note_on_c, 0, 57, 80
2, 54467, Note_on_c, 0, 50, 0
2, 54467, Note_on_c, 0, 54, 0
2, 54467, Note_on_c, 0, 57, 0
2, 54480, Note_on_c, 0, 50, 80
2, 54480, Note_on_c, 0, 54, 80
2, 54480, Note_on_c, 0, 57, 80
2, 54707, Note_on_c, 0, 50, 0
2, 54707, Note_on_c, 0, 54, 0
2, 54707, Note_on_c, 0, 57, 0
2, 54720, Note_on_c, 0, 50, 80
2, 54720, Note_on_c, 0, 54, 80
2, 54720, Note_on_c, 0, 57, 80
2, 54947, Note_on_c, 0, 50, 0
2, 54947, Note_on_c, 0, 54, 0
2, 54947, Note_on_c, 0, 57, 0
2, 54960, Note_on_c, 0, 50, 80
2, 54960, Note_on_c, 0, 54, 80
2, 54960, Note_on_c, 0, 57, 80
2, 55187, Note_on_c, 0, 50, 0
2, 55187, Note_on_c, 0, 54, 0
2, 55187, Note_on_c, 0, 57, 0
2, 55200, Note_on_c, 0, 50, 80
2, 55200, Note_on_c, 0, 54, 80
2, 55200, Note_on_c, 0, 57, 80
2, 55427, Note_on_c, 0, 50, 0
2, 55427, Note_on_c, 0, 54, 0
2, 55427, Note_on_c, 0, 57, 0
2, 55440, Note_on_c, 0, 50, 80
2, 55440, Note_on_c, 0, 55, 80
2, 55440, Note_on_c, 0, 59, 80
2, 55667, Note_on_c, 0, 50, 0
2, 55667, Note_on_c, 0, 55, 0
2, 55667, Note_on_c, 0, 59, 0
2, 55680, Note_on_c, 0, 50, 80
2, 55680, Note_on_c, 0, 55, 80
2, 55680, Note_on_c, 0, 59, 80
2, 55907, Note_on_c, 0, 50, 0
2, 55907, Note_on_c, 0, 55, 0
2, 55907, Note_on_c, 0, 59, 0
2, 55920, Note_on_c, 0, 50, 80
2, 55920, Note_on_c, 0, 55, 80
2, 55920, Note_on_c, 0, 59, 80
2, 56147, Note_on_c, 0, 50, 0
2, 56147, Note_on_c, 0, 55, 0
2, 56147, Note_on_c, 0, 59, 0
2, 56160, Note_on_c, 0, 50, 80
2, 56160, Note_on_c, 0, 55, 80
2, 56160, Note_on_c, 0, 59, 80
2, 56387, Note_on_c, 0, 50, 0
2, 56387, Note_on_c, 0, 55, 0
2, 56387, Note_on_c, 0, 59, 0
2, 56400, Note_on_c, 0, 50, 80
2, 56400, Note_on_c, 0, 55, 80
2, 56400, Note_on_c, 0, 59, 80
2, 56627, Note_on_c, 0, 50, 0
2, 56627, Note_on_c, 0, 55, 0
2, 56627, Note_on_c, 0, 59, 0
2, 56640, Note_on_c, 0, 50, 80
2, 56640, Note_on_c, 0, 55, 80
2, 56640, Note_on_c, 0, 59, 80
2, 56867, Note_on_c, 0, 50, 0
2, 56867, Note_on_c, 0, 55, 0
2, 56867, Note_on_c, 0, 59, 0
2, 56880, Note_on_c, 0, 50, 80
2, 56880, Note_on_c, 0, 55, 80
2, 56880, Note_on_c, 0, 59, 80
2, 57107, Note_on_c, 0, 50, 0
2, 57107, Note_on_c, 0, 55, 0
2, 57107, Note_on_c, 0, 59, 0
2, 57120, Note_on_c, 0, 50, 80
2, 57120, Note_on_c, 0, 55, 80
2, 57120, Note_on_c, 0, 59, 80
2, 57347, Note_on_c, 0, 50, 0
2, 57347, Note_on_c, 0, 55, 0
2, 57347, Note_on_c, 0, 59, 0
2, 57360, Note_on_c, 0, 50, 80
2, 57360, Note_on_c, 0, 55, 80
2, 57360, Note_on_c, 0, 59, 80
2, 57587, Note_on_c, 0, 50, 0
2, 57587, Note_on_c, 0, 55, 0
2, 57587, Note_on_c, 0, 59, 0
2, 57600, Note_on_c, 0, 50, 80
2, 57600, Note_on_c, 0, 54, 80
2, 57600, Note_on_c, 0, 57, 80
2, 57827, Note_on_c, 0, 50, 0
2, 57827, Note_on_c, 0, 54, 0
2, 57827, Note_on_c, 0, 57, 0
2, 57840, Note_on_c, 0, 50, 80
2, 57840, Note_on_c, 0, 54, 80
2, 57840, Note_on_c, 0, 57, 80
2, 58067, Note_on_c, 0, 50, 0
2, 58067, Note_on_c, 0, 54, 0
2, 58067, Note_on_c, 0, 57, 0
2, 58080, Note_on_c, 0, 50, 80
2, 58080, Note_on_c, 0, 54, 80
2, 58080, Note_on_c, 0, 57, 80
2, 58307, Note_on_c, 0, 50, 0
2, 58307, Note_on_c, 0, 54, 0
2, 58307, Note_on_c, 0, 57, 0
2, 58320, Note_on_c, 0, 50, 80
2, 58320, Note_on_c, 0, 54, 80
2, 58320, Note_on_c, 0, 57, 80
2, 58547, Note_on_c, 0, 50, 0
2, 58547, Note_on_c, 0, 54, 0
2, 58547, Note_on_c, 0, 57, 0
2, 58560, Note_on_c, 0, 50, 80
2, 58560, Note_on_c, 0, 54, 80
2, 58560, Note_on_c, 0, 57, 80
2, 58787, Note_on_c, 0, 50, 0
2, 58787, Note_on_c, 0, 54, 0
2, 58787, Note_on_c, 0, 57, 0
2, 58800, Note_on_c, 0, 50, 80
2, 58800, Note_on_c, 0, 54, 80
2, 58800, Note_on_c, 0, 57, 80
2, 59027, Note_on_c, 0, 50, 0
2, 59027, Note_on_c, 0, 54, 0
2, 59027, Note_on_c, 0, 57, 0
2, 59040, Note_on_c, 0, 50, 80
2, 59040, Note_on_c, 0, 54, 80
2, 59040, Note_on_c, 0, 57, 80
2, 59267, Note_on_c, 0, 50, 0
2, 59267, Note_on_c, 0, 54, 0
2, 59267, Note_on_c, 0, 57, 0
2, 59280, Note_on_c, 0, 50, 80
2, 59280, Note_on_c, 0, 54, 80
2, 59280, Note_on_c, 0, 57, 80
2, 59507, Note_on_c, 0, 50, 0
2, 59507, Note_on_c, 0, 54, 0
2, 59507, Note_on_c, 0, 57, 0
2, 59520, Note_on_c, 0, 50, 80
2, 59520, Note_on_c, 0, 54, 80
2, 59520, Note_on_c, 0, 57, 80
2, 59747, Note_on_c, 0, 50, 0
2, 59747, Note_on_c, 0, 54, 0
2, 59747, Note_on_c, 0, 57, 0
2, 59760, Note_on_c, 0, 50, 80
2, 59760, Note_on_c, 0, 54, 80
2, 59760, Note_on_c, 0, 57, 80
2, 59987, Note_on_c, 0, 50, 0
2, 59987, Note_on_c, 0, 54, 0
2, 59987, Note_on_c, 0, 57, 0
2, 60000, Note_on_c, 0, 50, 80
2, 60000, Note_on_c, 0, 54, 80
2, 60000, Note_on_c, 0, 57, 80
2, 60227, Note_on_c, 0, 50, 0
2, 60227, Note_on_c, 0, 54, 0
2, 60227, Note_on_c, 0, 57, 0
2, 60240, Note_on_c, 0, 50, 80
2, 60240, Note_on_c, 0, 54, 80
2, 60240, Note_on_c, 0, 57, 80
2, 60467, Note_on_c, 0, 50, 0
2, 60467, Note_on_c, 0, 54, 0
2, 60467, Note_on_c, 0, 57, 0
2, 60480, Note_on_c, 0, 50, 80
2, 60480, Note_on_c, 0, 54, 80
2, 60480, Note_on_c, 0, 57, 80
2, 60707, Note_on_c, 0, 50, 0
2, 60707, Note_on_c, 0, 54, 0
2, 60707, Note_on_c, 0, 57, 0
2, 60720, Note_on_c, 0, 50, 80
2, 60720, Note_on_c, 0, 54, 80
2, 60720, Note_on_c, 0, 57, 80
2, 60947, Note_on_c, 0, 50, 0
2, 60947, Note_on_c, 0, 54, 0
2, 60947, Note_on_c, 0, 57, 0
2, 60960, Note_on_c, 0, 50, 80
2, 60960, Note_on_c, 0, 54, 80
2, 60960, Note_on_c, 0, 57, 80
2, 61187, Note_on_c, 0, 50, 0
2, 61187, Note_on_c, 0, 54, 0
2, 61187, Note_on_c, 0, 57, 0
2, 61200, Note_on_c, 0, 50, 80
2, 61200, Note_on_c, 0, 54, 80
2, 61200, Note_on_c, 0, 57, 80
2, 61427, Note_on_c, 0, 50, 0
2, 61427, Note_on_c, 0, 54, 0
2, 61427, Note_on_c, 0, 57, 0
2, 61440, Note_on_c, 0, 50, 80
2, 61440, Note_on_c, 0, 54, 80
2, 61440, Note_on_c, 0, 57, 80
2, 61667, Note_on_c, 0, 50, 0
2, 61667, Note_on_c, 0, 54, 0
2, 61667, Note_on_c, 0, 57, 0
2, 61680, Note_on_c, 0, 50, 80
2, 61680, Note_on_c, 0, 54, 80
2, 61680, Note_on_c, 0, 57, 80
2, 61907, Note_on_c, 0, 50, 0
2, 61907, Note_on_c, 0, 54, 0
2, 61907, Note_on_c, 0, 57, 0
2, 61920, Note_on_c, 0, 50, 80
2, 61920, Note_on_c, 0, 54, 80
2, 61920, Note_on_c, 0, 57, 80
2, 62147, Note_on_c, 0, 50, 0
2, 62147, Note_on_c, 0, 54, 0
2, 62147, Note_on_c, 0, 57, 0
2, 62160, Note_on_c, 0, 50, 80
2, 62160, Note_on_c, 0, 54, 80
2, 62160, Note_on_c, 0, 57, 80
2, 62387, Note_on_c, 0, 50, 0
2, 62387, Note_on_c, 0, 54, 0
2, 62387, Note_on_c, 0, 57, 0
2, 62400, Note_on_c, 0, 50, 80
2, 62400, Note_on_c, 0, 54, 80
2, 62400, Note_on_c, 0, 57, 80
2, 62627, Note_on_c, 0, 50, 0
2, 62627, Note_on_c, 0, 54, 0
2, 62627, Note_on_c, 0, 57, 0
2, 62640, Note_on_c, 0, 50, 80
2, 62640, Note_on_c, 0, 54, 80
2, 62640, Note_on_c, 0, 57, 80
2, 62867, Note_on_c, 0, 50, 0
2, 62867, Note_on_c, 0, 54, 0
2, 62867, Note_on_c, 0, 57, 0
2, 62880, Note_on_c, 0, 50, 80
2, 62880, Note_on_c, 0, 54, 80
2, 62880, Note_on_c, 0, 57, 80
2, 63107, Note_on_c, 0, 50, 0
2, 63107, Note_on_c, 0, 54, 0
2, 63107, Note_on_c, 0, 57, 0
2, 63120, Note_on_c, 0, 50, 80
2, 63120, Note_on_c, 0, 55, 80
2, 63120, Note_on_c, 0, 59, 80
2, 63347, Note_on_c, 0, 50, 0
2, 63347, Note_on_c, 0, 55, 0
2, 63347, Note_on_c, 0, 59, 0
2, 63360, Note_on_c, 0, 50, 80
2, 63360, Note_on_c, 0, 55, 80
2, 63360, Note_on_c, 0, 59, 80
2, 63587, Note_on_c, 0, 50, 0
2, 63587, Note_on_c, 0, 55, 0
2, 63587, Note_on_c, 0, 59, 0
2, 63600, Note_on_c, 0, 50, 80
2, 63600, Note_on_c, 0, 55, 80
2, 63600, Note_on_c, 0, 59, 80
2, 63827, Note_on_c, 0, 50, 0
2, 63827, Note_on_c, 0, 55, 0
2, 63827, Note_on_c, 0, 59, 0
2, 63840, Note_on_c, 0, 50, 80
2, 63840, Note_on_c, 0, 55, 80
2, 63840, Note_on_c, 0, 59, 80
2, 64067, Note_on_c, 0, 50, 0
2, 64067, Note_on_c, 0, 55, 0
2, 64067, Note_on_c, 0, 59, 0
2, 64080, Note_on_c, 0, 50, 80
2, 64080, Note_on_c, 0, 55, 80
2, 64080, Note_on_c, 0, 59, 80
2, 64307, Note_on_c, 0, 50, 0
2, 64307, Note_on_c, 0, 55, 0
2, 64307, Note_on_c, 0, 59, 0
2, 64320, Note_on_c, 0, 50, 80
2, 64320, Note_on_c, 0, 55, 80
2, 64320, Note_on_c, 0, 59, 80
2, 64547, Note_on_c, 0, 50, 0
2, 64547, Note_on_c, 0, 55, 0
2, 64547, Note_on_c, 0, 59, 0
2, 64560, Note_on_c, 0, 50, 80
2, 64560, Note_on_c, 0, 55, 80
2, 64560, Note_on_c, 0, 59, 80
2, 64787, Note_on_c, 0, 50, 0
2, 64787, Note_on_c, 0, 55, 0
2, 64787, Note_on_c, 0, 59, 0
2, 64800, Note_on_c, 0, 50, 80
2, 64800, Note_on_c, 0, 55, 80
2, 64800, Note_on_c, 0, 59, 80
2, 65027, Note_on_c, 0, 50, 0
2, 65027, Note_on_c, 0, 55, 0
2, 65027, Note_on_c, 0, 59, 0
2, 65040, Note_on_c, 0, 50, 80
2, 65040, Note_on_c, 0, 55, 80
2, 65040, Note_on_c, 0, 59, 80
2, 65267, Note_on_c, 0, 50, 0
2, 65267, Note_on_c, 0, 55, 0
2, 65267, Note_on_c, 0, 59, 0
2, 65280, Note_on_c, 0, 47, 80
2, 65280, Note_on_c, 0, 54, 80
2, 65280, Note_on_c, 0, 59, 80
2, 65507, Note_on_c, 0, 47, 0
2, 65507, Note_on_c, 0, 54, 0
2, 65507, Note_on_c, 0, 59, 0
2, 65520, Note_on_c, 0, 47, 80
2, 65520, Note_on_c, 0, 54, 80
2, 65520, Note_on_c, 0, 59, 80
2, 65747, Note_on_c, 0, 47, 0
2, 65747, Note_on_c, 0, 54, 0
2, 65747, Note_on_c, 0, 59, 0
2, 65760, Note_on_c, 0, 47, 80
2, 65760, Note_on_c, 0, 54, 80
2, 65760, Note_on_c, 0, 59, 80
2, 65987, Note_on_c, 0, 47, 0
2, 65987, Note_on_c, 0, 54, 0
2, 65987, Note_on_c, 0, 59, 0
2, 66000, Note_on_c, 0, 47, 80
2, 66000, Note_on_c, 0, 54, 80
2, 66000, Note_on_c, 0, 59, 80
2, 66227, Note_on_c, 0, 47, 0
2, 66227, Note_on_c, 0, 54, 0
2, 66227, Note_on_c, 0, 59, 0
2, 66240, Note_on_c, 0, 47, 80
2, 66240, Note_on_c, 0, 54, 80
2, 66240, Note_on_c, 0, 59, 80
2, 66467, Note_on_c, 0, 47, 0
2, 66467, Note_on_c, 0, 54, 0
2, 66467, Note_on_c, 0, 59, 0
2, 66480, Note_on_c, 0, 47, 80
2, 66480, Note_on_c, 0, 54, 80
2, 66480, Note_on_c, 0, 59, 80
2, 66707, Note_on_c, 0, 47, 0
2, 66707, Note_on_c, 0, 54, 0
2, 66707, Note_on_c, 0, 59, 0
2, 66720, Note_on_c, 0, 47, 80
2, 66720, Note_on_c, 0, 54, 80
2, 66720, Note_on_c, 0, 59, 80
2, 66947, Note_on_c, 0, 47, 0
2, 66947, Note_on_c, 0, 54, 0
2, 66947, Note_on_c, 0, 59, 0
2, 66960, Note_on_c, 0, 47, 80
2, 66960, Note_on_c, 0, 54, 80
2, 66960, Note_on_c, 0, 59, 80
2, 67187, Note_on_c, 0, 47, 0
2, 67187, Note_on_c, 0, 54, 0
2, 67187, Note_on_c, 0, 59, 0
2, 67200, Note_on_c, 0, 49, 80
2, 67200, Note_on_c, 0, 52, 80
2, 67200, Note_on_c, 0, 57, 80
2, 67655, Note_on_c, 0, 49, 0
2, 67655, Note_on_c, 0, 52, 0
2, 67655, Note_on_c, 0, 57, 0
2, 67680, Note_on_c, 0, 49, 80
2, 67680, Note_on_c, 0, 52, 80
2, 67680, Note_on_c, 0, 57, 80
2, 68135, Note_on_c, 0, 49, 0
2, 68135, Note_on_c, 0, 52, 0
2, 68135, Note_on_c, 0, 57, 0
2, 68160, Note_on_c, 0, 49, 80
2, 68160, Note_on_c, 0, 52, 80
2, 68160, Note_on_c, 0, 57, 80
2, 68615, Note_on_c, 0, 49, 0
2, 68615, Note_on_c, 0, 52, 0
2, 68615, Note_on_c, 0, 57, 0
2, 68640, Note_on_c, 0, 49, 80
2, 68640, Note_on_c, 0, 52, 80
2, 68640, Note_on_c, 0, 57, 80
2, 69095, Note_on_c, 0, 49, 0
2, 69095, Note_on_c, 0, 52, 0
2, 69095, Note_on_c, 0, 57, 0
2, 69120, Note_on_c, 0, 50, 80
2, 69120, Note_on_c, 0, 54, 80
2, 69120, Note_on_c, 0, 57, 80
2, 70031, Note_on_c, 0, 50, 0
2, 70031, Note_on_c, 0, 54, 0
2, 70031, Note_on_c, 0, 57, 0
2, 70080, Note_on_c, 0, 50, 80
2, 70080, Note_on_c, 0, 54, 80
2, 70080, Note_on_c, 0, 57, 80
2, 70991, Note_on_c, 0, 50, 0
2, 70991, Note_on_c, 0, 54, 0
2, 70991, Note_on_c, 0, 57, 0
2, 71040, Note_on_c, 0, 50, 80
2, 71040, Note_on_c, 0, 54, 80
2, 71040, Note_on_c, 0, 57, 80
2, 72863, Note_on_c, 0, 50, 0
2, 72863, Note_on_c, 0, 54, 0
2, 72863, Note_on_c, 0, 57, 0
1, 0, Note_on_c, 0, 78, 80
1, 455, Note_on_c, 0, 78, 0
1, 480, Note_on_c, 0, 73, 80
1, 935, Note_on_c, 0, 73, 0
1, 2880, Note_on_c, 0, 71, 80
1, 3335, Note_on_c, 0, 71, 0
1, 3840, Note_on_c, 0, 78, 80
1, 4295, Note_on_c, 0, 78, 0
1, 4320, Note_on_c, 0, 70, 80
1, 4775, Note_on_c, 0, 70, 0
1, 6240, Note_on_c, 0, 70, 80
1, 6695, Note_on_c, 0, 70, 0
1, 6720, Note_on_c, 0, 68, 80
1, 7175, Note_on_c, 0, 68, 0
1, 7680, Note_on_c, 0, 70, 80
1, 8135, Note_on_c, 0, 70, 0
1, 8160, Note_on_c, 0, 68, 80
1, 8615, Note_on_c, 0, 68, 0
1, 10560, Note_on_c, 0, 70, 80
1, 11015, Note_on_c, 0, 70, 0
1, 11040, Note_on_c, 0, 73, 80
1, 11495, Note_on_c, 0, 73, 0
1, 11520, Note_on_c, 0, 68, 80
1, 11975, Note_on_c, 0, 68, 0
1, 13440, Note_on_c, 0, 68, 80
1, 13895, Note_on_c, 0, 68, 0
1, 13920, Note_on_c, 0, 71, 80
1, 14375, Note_on_c, 0, 71, 0
1, 14400, Note_on_c, 0, 68, 80
1, 14855, Note_on_c, 0, 68, 0
1, 14880, Note_on_c, 0, 73, 80
1, 15335, Note_on_c, 0, 73, 0
1, 15360, Note_on_c, 0, 80, 80
1, 15815, Note_on_c, 0, 80, 0
1, 15840, Note_on_c, 0, 75, 80
1, 16295, Note_on_c, 0, 75, 0
1, 17280, Note_on_c, 0, 80, 80
1, 17735, Note_on_c, 0, 80, 0
1, 17760, Note_on_c, 0, 78, 80
1, 17987, Note_on_c, 0, 78, 0
1, 18000, Note_on_c, 0, 78, 80
1, 18227, Note_on_c, 0, 78, 0
1, 18480, Note_on_c, 0, 76, 80
1, 18707, Note_on_c, 0, 76, 0
1, 18720, Note_on_c, 0, 75, 80
1, 18947, Note_on_c, 0, 75, 0
1, 18960, Note_on_c, 0, 80, 80
1, 19187, Note_on_c, 0, 80, 0
1, 19440, Note_on_c, 0, 75, 80
1, 20123, Note_on_c, 0, 75, 0
1, 21120, Note_on_c, 0, 80, 80
1, 21347, Note_on_c, 0, 80, 0
1, 21360, Note_on_c, 0, 75, 80
1, 21587, Note_on_c, 0, 75, 0
1, 21600, Note_on_c, 0, 78, 80
1, 21827, Note_on_c, 0, 78, 0
1, 21840, Note_on_c, 0, 78, 80
1, 22295, Note_on_c, 0, 78, 0
1, 22320, Note_on_c, 0, 76, 80
1, 22547, Note_on_c, 0, 76, 0
1, 22560, Note_on_c, 0, 75, 80
1, 22787, Note_on_c, 0, 75, 0
1, 22800, Note_on_c, 0, 80, 80
1, 23255, Note_on_c, 0, 80, 0
1, 23280, Note_on_c, 0, 78, 80
1, 23507, Note_on_c, 0, 78, 0
1, 23520, Note_on_c, 0, 76, 80
1, 23747, Note_on_c, 0, 76, 0
1, 23760, Note_on_c, 0, 75, 80
1, 24215, Note_on_c, 0, 75, 0
1, 24240, Note_on_c, 0, 71, 80
1, 24467, Note_on_c, 0, 71, 0
1, 24480, Note_on_c, 0, 73, 80
1, 24707, Note_on_c, 0, 73, 0
1, 24720, Note_on_c, 0, 75, 80
1, 25175, Note_on_c, 0, 75, 0
1, 25200, Note_on_c, 0, 76, 80
1, 25427, Note_on_c, 0, 76, 0
1, 25440, Note_on_c, 0, 75, 80
1, 25667, Note_on_c, 0, 75, 0
1, 25680, Note_on_c, 0, 73, 80
1, 26363, Note_on_c, 0, 73, 0
1, 30720, Note_on_c, 0, 80, 80
1, 31175, Note_on_c, 0, 80, 0
1, 31200, Note_on_c, 0, 75, 80
1, 31655, Note_on_c, 0, 75, 0
1, 32640, Note_on_c, 0, 80, 80
1, 32867, Note_on_c, 0, 80, 0
1, 32880, Note_on_c, 0, 78, 80
1, 33107, Note_on_c, 0, 78, 0
1, 33120, Note_on_c, 0, 76, 80
1, 33347, Note_on_c, 0, 76, 0
1, 33360, Note_on_c, 0, 75, 80
1, 33587, Note_on_c, 0, 75, 0
1, 33600, Note_on_c, 0, 75, 80
1, 33827, Note_on_c, 0, 75, 0
1, 33840, Note_on_c, 0, 73, 80
1, 34067, Note_on_c, 0, 73, 0
1, 34080, Note_on_c, 0, 71, 80
1, 34307, Note_on_c, 0, 71, 0
1, 34320, Note_on_c, 0, 80, 80
1, 34547, Note_on_c, 0, 80, 0
1, 34800, Note_on_c, 0, 75, 80
1, 35027, Note_on_c, 0, 75, 0
1, 36480, Note_on_c, 0, 80, 80
1, 36707, Note_on_c, 0, 80, 0
1, 36720, Note_on_c, 0, 78, 80
1, 36947, Note_on_c, 0, 78, 0
1, 36960, Note_on_c, 0, 76, 80
1, 37187, Note_on_c, 0, 76, 0
1, 37200, Note_on_c, 0, 75, 80
1, 37427, Note_on_c, 0, 75, 0
1, 37440, Note_on_c, 0, 75, 80
1, 37667, Note_on_c, 0, 75, 0
1, 37680, Note_on_c, 0, 73, 80
1, 37907, Note_on_c, 0, 73, 0
1, 37920, Note_on_c, 0, 71, 80
1, 38147, Note_on_c, 0, 71, 0
1, 38160, Note_on_c, 0, 80, 80
1, 38615, Note_on_c, 0, 80, 0
1, 38640, Note_on_c, 0, 78, 80
1, 38867, Note_on_c, 0, 78, 0
1, 38880, Note_on_c, 0, 76, 80
1, 39107, Note_on_c, 0, 76, 0
1, 39120, Note_on_c, 0, 75, 80
1, 39575, Note_on_c, 0, 75, 0
1, 39600, Note_on_c, 0, 71, 80
1, 39827, Note_on_c, 0, 71, 0
1, 39840, Note_on_c, 0, 73, 80
1, 40067, Note_on_c, 0, 73, 0
1, 40080, Note_on_c, 0, 75, 80
1, 40535, Note_on_c, 0, 75, 0
1, 40560, Note_on_c, 0, 76, 80
1, 40787, Note_on_c, 0, 76, 0
1, 40800, Note_on_c, 0, 75, 80
1, 41027, Note_on_c, 0, 75, 0
1, 41040, Note_on_c, 0, 73, 80
1, 41723, Note_on_c, 0, 73, 0
1, 46080, Note_on_c, 0, 80, 80
1, 46307, Note_on_c, 0, 80, 0
1, 46320, Note_on_c, 0, 80, 80
1, 46547, Note_on_c, 0, 80, 0
1, 46560, Note_on_c, 0, 78, 80
1, 46787, Note_on_c, 0, 78, 0
1, 46800, Note_on_c, 0, 76, 80
1, 47027, Note_on_c, 0, 76, 0
1, 47040, Note_on_c, 0, 75, 80
1, 47267, Note_on_c, 0, 75, 0
1, 47280, Note_on_c, 0, 76, 80
1, 47507, Note_on_c, 0, 76, 0
1, 47520, Note_on_c, 0, 75, 80
1, 47975, Note_on_c, 0, 75, 0
1, 48960, Note_on_c, 0, 80, 80
1, 49187, Note_on_c, 0, 80, 0
1, 49200, Note_on_c, 0, 80, 80
1, 49427, Note_on_c, 0, 80, 0
1, 49440, Note_on_c, 0, 78, 80
1, 49667, Note_on_c, 0, 78, 0
1, 49680, Note_on_c, 0, 76, 80
1, 49907, Note_on_c, 0, 76, 0
1, 49920, Note_on_c, 0, 75, 80
1, 50147, Note_on_c, 0, 75, 0
1, 50160, Note_on_c, 0, 76, 80
1, 50387, Note_on_c, 0, 76, 0
1, 50400, Note_on_c, 0, 75, 80
1, 50855, Note_on_c, 0, 75, 0
1, 51840, Note_on_c, 0, 80, 80
1, 52067, Note_on_c, 0, 80, 0
1, 52080, Note_on_c, 0, 80, 80
1, 52307, Note_on_c, 0, 80, 0
1, 52320, Note_on_c, 0, 78, 80
1, 52547, Note_on_c, 0, 78, 0
1, 52560, Note_on_c, 0, 76, 80
1, 52787, Note_on_c, 0, 76, 0
1, 52800, Note_on_c, 0, 75, 80
1, 53141, Note_on_c, 0, 75, 0
1, 53160, Note_on_c, 0, 76, 80
1, 53501, Note_on_c, 0, 76, 0
1, 53520, Note_on_c, 0, 75, 80
1, 53747, Note_on_c, 0, 75, 0
1, 54000, Note_on_c, 0, 73, 80
1, 54227, Note_on_c, 0, 73, 0
1, 54360, Note_on_c, 0, 75, 80
1, 54701, Note_on_c, 0, 75, 0
1, 54720, Note_on_c, 0, 73, 80
1, 54833, Note_on_c, 0, 73, 0
1, 54840, Note_on_c, 0, 71, 80
1, 55067, Note_on_c, 0, 71, 0
1, 55080, Note_on_c, 0, 66, 80
1, 55649, Note_on_c, 0, 66, 0
1, 57360, Note_on_c, 0, 73, 80
1, 57587, Note_on_c, 0, 73, 0
1, 57600, Note_on_c, 0, 71, 80
1, 58055, Note_on_c, 0, 71, 0
1, 61440, Note_on_c, 0, 80, 80
1, 61667, Note_on_c, 0, 80, 0
1, 61680, Note_on_c, 0, 80, 80
1, 61907, Note_on_c, 0, 80, 0
1, 61920, Note_on_c, 0, 78, 80
1, 62147, Note_on_c, 0, 78, 0
1, 62160, Note_on_c, 0, 76, 80
1, 62387, Note_on_c, 0, 76, 0
1, 62400, Note_on_c, 0, 75, 80
1, 62627, Note_on_c, 0, 75, 0
1, 62640, Note_on_c, 0, 76, 80
1, 62867, Note_on_c, 0, 76, 0
1, 62880, Note_on_c, 0, 75, 80
1, 63335, Note_on_c, 0, 75, 0
1, 64320, Note_on_c, 0, 80, 80
1, 64547, Note_on_c, 0, 80, 0
1, 64560, Note_on_c, 0, 80, 80
1, 64787, Note_on_c, 0, 80, 0
1, 64800, Note_on_c, 0, 78, 80
1, 65027, Note_on_c, 0, 78, 0
1, 65040, Note_on_c, 0, 76, 80
1, 65267, Note_on_c, 0, 76, 0
1, 65280, Note_on_c, 0, 75, 80
1, 65621, Note_on_c, 0, 75, 0
1, 65640, Note_on_c, 0, 76, 80
1, 65981, Note_on_c, 0, 76, 0
1, 66000, Note_on_c, 0, 75, 80
1, 66227, Note_on_c, 0, 75, 0
1, 67200, Note_on_c, 0, 80, 80
1, 67427, Note_on_c, 0, 80, 0
1, 67440, Note_on_c, 0, 80, 80
1, 67667, Note_on_c, 0, 80, 0
1, 67680, Note_on_c, 0, 78, 80
1, 67907, Note_on_c, 0, 78, 0
1, 67920, Note_on_c, 0, 76, 80
1, 68147, Note_on_c, 0, 76, 0
1, 68160, Note_on_c, 0, 75, 80
1, 68273, Note_on_c, 0, 75, 0
1, 68280, Note_on_c, 0, 76, 80
1, 68507, Note_on_c, 0, 76, 0
1, 68520, Note_on_c, 0, 75, 80
1, 68633, Note_on_c, 0, 75, 0
1, 68880, Note_on_c, 0, 73, 80
1, 69107, Note_on_c, 0, 73, 0
1, 69120, Note_on_c, 0, 73, 80
1, 69461, Note_on_c, 0, 73, 0
1, 69480, Note_on_c, 0, 75, 80
1, 69593, Note_on_c, 0, 75, 0
1, 69760, Note_on_c, 0, 73, 80
1, 69911, Note_on_c, 0, 73, 0
1, 69920, Note_on_c, 0, 71, 80
1, 70071, Note_on_c, 0, 71, 0
1, 70080, Note_on_c, 0, 73, 80
1, 70535, Note_on_c, 0, 73, 0
1, 72720, Note_on_c, 0, 73, 80
1, 72947, Note_on_c, 0, 73, 0
1, 72960, Note_on_c, 0, 71, 80
1, 73415, Note_on_c, 0, 71, 0
1, 76800, Note_on_c, 0, 78, 80
1, 77255, Note_on_c, 0, 78, 0
1, 77280, Note_on_c, 0, 73, 80
1, 77735, Note_on_c, 0, 73, 0
1, 79680, Note_on_c, 0, 71, 80
1, 80135, Note_on_c, 0, 71, 0
1, 80640, Note_on_c, 0, 78, 80
1, 81095, Note_on_c, 0, 78, 0
1, 81120, Note_on_c, 0, 70, 80
1, 81575, Note_on_c, 0, 70, 0
1, 83040, Note_on_c, 0, 70, 80
1, 83495, Note_on_c, 0, 70, 0
1, 83520, Note_on_c, 0, 68, 80
1, 83975, Note_on_c, 0, 68, 0
1, 84480, Note_on_c, 0, 70, 80
1, 84935, Note_on_c, 0, 70, 0
1, 84960, Note_on_c, 0, 66, 80
1, 85415, Note_on_c, 0, 66, 0
1, 87360, Note_on_c, 0, 70, 80
1, 87815, Note_on_c, 0, 70, 0
1, 87840, Note_on_c, 0, 73, 80
1, 88295, Note_on_c, 0, 73, 0
1, 88320, Note_on_c, 0, 68, 80
1, 88775, Note_on_c, 0, 68, 0
1, 90240, Note_on_c, 0, 68, 80
1, 90695, Note_on_c, 0, 68, 0
1, 90720, Note_on_c, 0, 71, 80
1, 91175, Note_on_c, 0, 71, 0
1, 91200, Note_on_c, 0, 68, 80
1, 91655, Note_on_c, 0, 68, 0
1, 91680, Note_on_c, 0, 73, 80
1, 92135, Note_on_c, 0, 73, 0
2, 0, Note_on_c, 0, 52, 80
2, 341, Note_on_c, 0, 52, 0
2, 360, Note_on_c, 0, 59, 80
2, 473, Note_on_c, 0, 59, 0
2, 720, Note_on_c, 0, 61, 80
2, 947, Note_on_c, 0, 61, 0
2, 960, Note_on_c, 0, 52, 80
2, 1301, Note_on_c, 0, 52, 0
2, 1320, Note_on_c, 0, 59, 80
2, 1433, Note_on_c, 0, 59, 0
2, 1680, Note_on_c, 0, 61, 80
2, 1907, Note_on_c, 0, 61, 0
2, 1920, Note_on_c, 0, 52, 80
2, 2261, Note_on_c, 0, 52, 0
2, 2280, Note_on_c, 0, 59, 80
2, 2393, Note_on_c, 0, 59, 0
2, 2640, Note_on_c, 0, 61, 80
2, 2867, Note_on_c, 0, 61, 0
2, 2880, Note_on_c, 0, 52, 80
2, 3221, Note_on_c, 0, 52, 0
2, 3240, Note_on_c, 0, 59, 80
2, 3353, Note_on_c, 0, 59, 0
2, 3600, Note_on_c, 0, 61, 80
2, 3827, Note_on_c, 0, 61, 0
2, 3840, Note_on_c, 0, 49, 80
2, 4181, Note_on_c, 0, 49, 0
2, 4200, Note_on_c, 0, 59, 80
2, 4313, Note_on_c, 0, 59, 0
2, 4560, Note_on_c, 0, 61, 80
2, 4787, Note_on_c, 0, 61, 0
2, 4800, Note_on_c, 0, 49, 80
2, 5141, Note_on_c, 0, 49, 0
2, 5160, Note_on_c, 0, 59, 80
2, 5273, Note_on_c, 0, 59, 0
2, 5520, Note_on_c, 0, 61, 80
2, 5747, Note_on_c, 0, 61, 0
2, 5760, Note_on_c, 0, 49, 80
2, 6101, Note_on_c, 0, 49, 0
2, 6120, Note_on_c, 0, 59, 80
2, 6233, Note_on_c, 0, 59, 0
2, 6480, Note_on_c, 0, 61, 80
2, 6707, Note_on_c, 0, 61, 0
2, 6720, Note_on_c, 0, 49, 80
2, 7061, Note_on_c, 0, 49, 0
2, 7080, Note_on_c, 0, 59, 80
2, 7193, Note_on_c, 0, 59, 0
2, 7440, Note_on_c, 0, 61, 80
2, 7667, Note_on_c, 0, 61, 0
2, 7680, Note_on_c, 0, 51, 80
2, 8021, Note_on_c, 0, 51, 0
2, 8040, Note_on_c, 0, 58, 80
2, 8153, Note_on_c, 0, 58, 0
2, 8400, Note_on_c, 0, 61, 80
2, 8627, Note_on_c, 0, 61, 0
2, 8640, Note_on_c, 0, 51, 80
2, 8981, Note_on_c, 0, 51, 0
2, 9000, Note_on_c, 0, 58, 80
2, 9113, Note_on_c, 0, 58, 0
2, 9360, Note_on_c, 0, 61, 80
2, 9587, Note_on_c, 0, 61, 0
2, 9600, Note_on_c, 0, 51, 80
2, 9941, Note_on_c, 0, 51, 0
2, 9960, Note_on_c, 0, 58, 80
2, 10073, Note_on_c, 0, 58, 0
2, 10320, Note_on_c, 0, 61, 80
2, 10547, Note_on_c, 0, 61, 0
2, 10560, Note_on_c, 0, 51, 80
2, 10901, Note_on_c, 0, 51, 0
2, 10920, Note_on_c, 0, 58, 80
2, 11033, Note_on_c, 0, 58, 0
2, 11280, Note_on_c, 0, 61, 80
2, 11507, Note_on_c, 0, 61, 0
2, 11520, Note_on_c, 0, 56, 80
2, 11861, Note_on_c, 0, 56, 0
2, 11880, Note_on_c, 0, 66, 80
2, 11993, Note_on_c, 0, 66, 0
2, 12240, Note_on_c, 0, 68, 80
2, 12467, Note_on_c, 0, 68, 0
2, 12480, Note_on_c, 0, 56, 80
2, 12821, Note_on_c, 0, 56, 0
2, 12840, Note_on_c, 0, 66, 80
2, 12953, Note_on_c, 0, 66, 0
2, 13200, Note_on_c, 0, 68, 80
2, 13427, Note_on_c, 0, 68, 0
2, 13440, Note_on_c, 0, 49, 80
2, 13781, Note_on_c, 0, 49, 0
2, 13800, Note_on_c, 0, 59, 80
2, 13913, Note_on_c, 0, 59, 0
2, 14160, Note_on_c, 0, 61, 80
2, 14387, Note_on_c, 0, 61, 0
2, 14400, Note_on_c, 0, 49, 80
2, 14741, Note_on_c, 0, 49, 0
2, 14760, Note_on_c, 0, 59, 80
2, 14873, Note_on_c, 0, 59, 0
2, 15120, Note_on_c, 0, 61, 80
2, 15347, Note_on_c, 0, 61, 0
2, 15360, Note_on_c, 0, 49, 80
2, 15701, Note_on_c, 0, 49, 0
2, 15720, Note_on_c, 0, 59, 80
2, 15833, Note_on_c, 0, 59, 0
2, 16080, Note_on_c, 0, 61, 80
2, 16307, Note_on_c, 0, 61, 0
2, 16320, Note_on_c, 0, 49, 80
2, 16661, Note_on_c, 0, 49, 0
2, 16680, Note_on_c, 0, 59, 80
2, 16793, Note_on_c, 0, 59, 0
2, 17040, Note_on_c, 0, 61, 80
2, 17267, Note_on_c, 0, 61, 0
2, 17280, Note_on_c, 0, 52, 80
2, 17621, Note_on_c, 0, 52, 0
2, 17640, Note_on_c, 0, 59, 80
2, 17753, Note_on_c, 0, 59, 0
2, 18000, Note_on_c, 0, 61, 80
2, 18227, Note_on_c, 0, 61, 0
2, 18240, Note_on_c, 0, 52, 80
2, 18581, Note_on_c, 0, 52, 0
2, 18600, Note_on_c, 0, 59, 80
2, 18713, Note_on_c, 0, 59, 0
2, 18960, Note_on_c, 0, 61, 80
2, 19187, Note_on_c, 0, 61, 0
2, 19200, Note_on_c, 0, 49, 80
2, 19541, Note_on_c, 0, 49, 0
2, 19560, Note_on_c, 0, 59, 80
2, 19673, Note_on_c, 0, 59, 0
2, 19920, Note_on_c, 0, 61, 80
2, 20147, Note_on_c, 0, 61, 0
2, 20160, Note_on_c, 0, 49, 80
2, 20501, Note_on_c, 0, 49, 0
2, 20520, Note_on_c, 0, 59, 80
2, 20633, Note_on_c, 0, 59, 0
2, 20880, Note_on_c, 0, 61, 80
2, 21107, Note_on_c, 0, 61, 0
2, 21120, Note_on_c, 0, 49, 80
2, 21461, Note_on_c, 0, 49, 0
2, 21480, Note_on_c, 0, 59, 80
2, 21593, Note_on_c, 0, 59, 0
2, 21840, Note_on_c, 0, 61, 80
2, 22067, Note_on_c, 0, 61, 0
2, 22080, Note_on_c, 0, 49, 80
2, 22421, Note_on_c, 0, 49, 0
2, 22440, Note_on_c, 0, 59, 80
2, 22553, Note_on_c, 0, 59, 0
2, 22800, Note_on_c, 0, 58, 80
2, 23027, Note_on_c, 0, 58, 0
2, 23040, Note_on_c, 0, 51, 80
2, 23381, Note_on_c, 0, 51, 0
2, 23400, Note_on_c, 0, 58, 80
2, 23513, Note_on_c, 0, 58, 0
2, 23760, Note_on_c, 0, 59, 80
2, 23987, Note_on_c, 0, 59, 0
2, 24000, Note_on_c, 0, 51, 80
2, 24341, Note_on_c, 0, 51, 0
2, 24360, Note_on_c, 0, 58, 80
2, 24473, Note_on_c, 0, 58, 0
2, 24720, Note_on_c, 0, 59, 80
2, 24947, Note_on_c, 0, 59, 0
2, 24960, Note_on_c, 0, 51, 80
2, 25301, Note_on_c, 0, 51, 0
2, 25320, Note_on_c, 0, 58, 80
2, 25433, Note_on_c, 0, 58, 0
2, 25680, Note_on_c, 0, 59, 80
2, 25907, Note_on_c, 0, 59, 0
2, 25920, Note_on_c, 0, 51, 80
2, 26261, Note_on_c, 0, 51, 0
2, 26280, Note_on_c, 0, 58, 80
2, 26393, Note_on_c, 0, 58, 0
2, 26640, Note_on_c, 0, 59, 80
2, 26867, Note_on_c, 0, 59, 0
2, 26880, Note_on_c, 0, 56, 80
2, 27221, Note_on_c, 0, 56, 0
2, 27240, Note_on_c, 0, 66, 80
2, 27353, Note_on_c, 0, 66, 0
2, 27600, Note_on_c, 0, 68, 80
2, 27827, Note_on_c, 0, 68, 0
2, 27840, Note_on_c, 0, 56, 80
2, 28181, Note_on_c, 0, 56, 0
2, 28200, Note_on_c, 0, 66, 80
2, 28313, Note_on_c, 0, 66, 0
2, 28560, Note_on_c, 0, 68, 80
2, 28787, Note_on_c, 0, 68, 0
2, 28800, Note_on_c, 0, 52, 80
2, 29141, Note_on_c, 0, 52, 0
2, 29160, Note_on_c, 0, 59, 80
2, 29273, Note_on_c, 0, 59, 0
2, 29520, Note_on_c, 0, 61, 80
2, 29747, Note_on_c, 0, 61, 0
2, 29760, Note_on_c, 0, 52, 80
2, 30101, Note_on_c, 0, 52, 0
2, 30120, Note_on_c, 0, 59, 80
2, 30233, Note_on_c, 0, 59, 0
2, 30480, Note_on_c, 0, 61, 80
2, 30707, Note_on_c, 0, 61, 0
2, 30720, Note_on_c, 0, 52, 80
2, 31061, Note_on_c, 0, 52, 0
2, 31080, Note_on_c, 0, 59, 80
2, 31193, Note_on_c, 0, 59, 0
2, 31440, Note_on_c, 0, 61, 80
2, 31667, Note_on_c, 0, 61, 0
2, 31680, Note_on_c, 0, 52, 80
2, 32021, Note_on_c, 0, 52, 0
2, 32040, Note_on_c, 0, 59, 80
2, 32153, Note_on_c, 0, 59, 0
2, 32400, Note_on_c, 0, 61, 80
2, 32627, Note_on_c, 0, 61, 0
2, 32640, Note_on_c, 0, 52, 80
2, 32981, Note_on_c, 0, 52, 0
2, 33000, Note_on_c, 0, 59, 80
2, 33113, Note_on_c, 0, 59, 0
2, 33360, Note_on_c, 0, 61, 80
2, 33587, Note_on_c, 0, 61, 0
2, 33600, Note_on_c, 0, 52, 80
2, 33941, Note_on_c, 0, 52, 0
2, 33960, Note_on_c, 0, 59, 80
2, 34073, Note_on_c, 0, 59, 0
2, 34320, Note_on_c, 0, 61, 80
2, 34547, Note_on_c, 0, 61, 0
2, 34560, Note_on_c, 0, 52, 80
2, 34901, Note_on_c, 0, 52, 0
2, 34920, Note_on_c, 0, 59, 80
2, 35033, Note_on_c, 0, 59, 0
2, 35280, Note_on_c, 0, 61, 80
2, 35507, Note_on_c, 0, 61, 0
2, 35520, Note_on_c, 0, 52, 80
2, 35861, Note_on_c, 0, 52, 0
2, 35880, Note_on_c, 0, 59, 80
2, 35993, Note_on_c, 0, 59, 0
2, 36240, Note_on_c, 0, 61, 80
2, 36467, Note_on_c, 0, 61, 0
2, 36480, Note_on_c, 0, 52, 80
2, 36821, Note_on_c, 0, 52, 0
2, 36840, Note_on_c, 0, 59, 80
2, 36953, Note_on_c, 0, 59, 0
2, 37200, Note_on_c, 0, 61, 80
2, 37427, Note_on_c, 0, 61, 0
2, 37440, Note_on_c, 0, 52, 80
2, 37781, Note_on_c, 0, 52, 0
2, 37800, Note_on_c, 0, 59, 80
2, 37913, Note_on_c, 0, 59, 0
2, 38160, Note_on_c, 0, 61, 80
2, 38387, Note_on_c, 0, 61, 0
2, 38400, Note_on_c, 0, 51, 80
2, 38741, Note_on_c, 0, 51, 0
2, 38760, Note_on_c, 0, 58, 80
2, 38873, Note_on_c, 0, 58, 0
2, 39120, Note_on_c, 0, 59, 80
2, 39347, Note_on_c, 0, 59, 0
2, 39360, Note_on_c, 0, 51, 80
2, 39701, Note_on_c, 0, 51, 0
2, 39720, Note_on_c, 0, 58, 80
2, 39833, Note_on_c, 0, 58, 0
2, 40080, Note_on_c, 0, 59, 80
2, 40307, Note_on_c, 0, 59, 0
2, 40320, Note_on_c, 0, 51, 80
2, 40661, Note_on_c, 0, 51, 0
2, 40680, Note_on_c, 0, 58, 80
2, 40793, Note_on_c, 0, 58, 0
2, 41040, Note_on_c, 0, 59, 80
2, 41267, Note_on_c, 0, 59, 0
2, 41280, Note_on_c, 0, 51, 80
2, 41621, Note_on_c, 0, 51, 0
2, 41640, Note_on_c, 0, 58, 80
2, 41753, Note_on_c, 0, 58, 0
2, 42000, Note_on_c, 0, 59, 80
2, 42227, Note_on_c, 0, 59, 0
2, 42240, Note_on_c, 0, 56, 80
2, 42581, Note_on_c, 0, 56, 0
2, 42600, Note_on_c, 0, 66, 80
2, 42713, Note_on_c, 0, 66, 0
2, 42960, Note_on_c, 0, 68, 80
2, 43187, Note_on_c, 0, 68, 0
2, 43200, Note_on_c, 0, 56, 80
2, 43541, Note_on_c, 0, 56, 0
2, 43560, Note_on_c, 0, 66, 80
2, 43673, Note_on_c, 0, 66, 0
2, 43920, Note_on_c, 0, 68, 80
2, 44147, Note_on_c, 0, 68, 0
2, 44160, Note_on_c, 0, 52, 80
2, 44501, Note_on_c, 0, 52, 0
2, 44520, Note_on_c, 0, 59, 80
2, 44633, Note_on_c, 0, 59, 0
2, 44880, Note_on_c, 0, 61, 80
2, 45107, Note_on_c, 0, 61, 0
2, 45120, Note_on_c, 0, 52, 80
2, 45461, Note_on_c, 0, 52, 0
2, 45480, Note_on_c, 0, 59, 80
2, 45593, Note_on_c, 0, 59, 0
2, 45840, Note_on_c, 0, 61, 80
2, 46067, Note_on_c, 0, 61, 0
2, 46080, Note_on_c, 0, 52, 80
2, 46421, Note_on_c, 0, 52, 0
2, 46440, Note_on_c, 0, 59, 80
2, 46553, Note_on_c, 0, 59, 0
2, 46800, Note_on_c, 0, 61, 80
2, 47027, Note_on_c, 0, 61, 0
2, 47040, Note_on_c, 0, 52, 80
2, 47381, Note_on_c, 0, 52, 0
2, 47400, Note_on_c, 0, 59, 80
2, 47513, Note_on_c, 0, 59, 0
2, 47760, Note_on_c, 0, 61, 80
2, 47987, Note_on_c, 0, 61, 0
2, 48000, Note_on_c, 0, 52, 80
2, 48341, Note_on_c, 0, 52, 0
2, 48360, Note_on_c, 0, 59, 80
2, 48473, Note_on_c, 0, 59, 0
2, 48720, Note_on_c, 0, 61, 80
2, 48947, Note_on_c, 0, 61, 0
2, 48960, Note_on_c, 0, 52, 80
2, 49301, Note_on_c, 0, 52, 0
2, 49320, Note_on_c, 0, 59, 80
2, 49433, Note_on_c, 0, 59, 0
2, 49680, Note_on_c, 0, 61, 80
2, 49907, Note_on_c, 0, 61, 0
2, 49920, Note_on_c, 0, 49, 80
2, 50261, Note_on_c, 0, 49, 0
2, 50280, Note_on_c, 0, 59, 80
2, 50393, Note_on_c, 0, 59, 0
2, 50640, Note_on_c, 0, 61, 80
2, 50867, Note_on_c, 0, 61, 0
2, 50880, Note_on_c, 0, 49, 80
2, 51221, Note_on_c, 0, 49, 0
2, 51240, Note_on_c, 0, 59, 80
2, 51353, Note_on_c, 0, 59, 0
2, 51600, Note_on_c, 0, 61, 80
2, 51827, Note_on_c, 0, 61, 0
2, 51840, Note_on_c, 0, 49, 80
2, 52181, Note_on_c, 0, 49, 0
2, 52200, Note_on_c, 0, 59, 80
2, 52313, Note_on_c, 0, 59, 0
2, 52560, Note_on_c, 0, 61, 80
2, 52787, Note_on_c, 0, 61, 0
2, 52800, Note_on_c, 0, 49, 80
2, 53141, Note_on_c, 0, 49, 0
2, 53160, Note_on_c, 0, 59, 80
2, 53273, Note_on_c, 0, 59, 0
2, 53520, Note_on_c, 0, 58, 80
2, 53747, Note_on_c, 0, 58, 0
2, 53760, Note_on_c, 0, 51, 80
2, 54101, Note_on_c, 0, 51, 0
2, 54120, Note_on_c, 0, 58, 80
2, 54233, Note_on_c, 0, 58, 0
2, 54480, Note_on_c, 0, 59, 80
2, 54707, Note_on_c, 0, 59, 0
2, 54720, Note_on_c, 0, 51, 80
2, 55061, Note_on_c, 0, 51, 0
2, 55080, Note_on_c, 0, 58, 80
2, 55193, Note_on_c, 0, 58, 0
2, 55440, Note_on_c, 0, 59, 80
2, 55667, Note_on_c, 0, 59, 0
2, 55680, Note_on_c, 0, 51, 80
2, 56021, Note_on_c, 0, 51, 0
2, 56040, Note_on_c, 0, 58, 80
2, 56153, Note_on_c, 0, 58, 0
2, 56400, Note_on_c, 0, 59, 80
2, 56627, Note_on_c, 0, 59, 0
2, 56640, Note_on_c, 0, 51, 80
2, 56981, Note_on_c, 0, 51, 0
2, 57000, Note_on_c, 0, 58, 80
2, 57113, Note_on_c, 0, 58, 0
2, 57360, Note_on_c, 0, 59, 80
2, 57587, Note_on_c, 0, 59, 0
2, 57600, Note_on_c, 0, 56, 80
2, 57941, Note_on_c, 0, 56, 0
2, 57960, Note_on_c, 0, 66, 80
2, 58073, Note_on_c, 0, 66, 0
2, 58320, Note_on_c, 0, 68, 80
2, 58547, Note_on_c, 0, 68, 0
2, 58560, Note_on_c, 0, 56, 80
2, 58901, Note_on_c, 0, 56, 0
2, 58920, Note_on_c, 0, 66, 80
2, 59033, Note_on_c, 0, 66, 0
2, 59280, Note_on_c, 0, 68, 80
2, 59507, Note_on_c, 0, 68, 0
2, 59520, Note_on_c, 0, 52, 80
2, 59861, Note_on_c, 0, 52, 0
2, 59880, Note_on_c, 0, 59, 80
2, 59993, Note_on_c, 0, 59, 0
2, 60240, Note_on_c, 0, 61, 80
2, 60467, Note_on_c, 0, 61, 0
2, 60480, Note_on_c, 0, 52, 80
2, 60821, Note_on_c, 0, 52, 0
2, 60840, Note_on_c, 0, 59, 80
2, 60953, Note_on_c, 0, 59, 0
2, 61200, Note_on_c, 0, 61, 80
2, 61427, Note_on_c, 0, 61, 0
2, 61440, Note_on_c, 0, 52, 80
2, 61781, Note_on_c, 0, 52, 0
2, 61800, Note_on_c, 0, 59, 80
2, 61913, Note_on_c, 0, 59, 0
2, 62160, Note_on_c, 0, 61, 80
2, 62387, Note_on_c, 0, 61, 0
2, 62400, Note_on_c, 0, 52, 80
2, 62741, Note_on_c, 0, 52, 0
2, 62760, Note_on_c, 0, 59, 80
2, 62873, Note_on_c, 0, 59, 0
2, 63120, Note_on_c, 0, 61, 80
2, 63347, Note_on_c, 0, 61, 0
2, 63360, Note_on_c, 0, 52, 80
2, 63701, Note_on_c, 0, 52, 0
2, 63720, Note_on_c, 0, 59, 80
2, 63833, Note_on_c, 0, 59, 0
2, 64080, Note_on_c, 0, 61, 80
2, 64307, Note_on_c, 0, 61, 0
2, 64320, Note_on_c, 0, 52, 80
2, 64661, Note_on_c, 0, 52, 0
2, 64680, Note_on_c, 0, 59, 80
2, 64793, Note_on_c, 0, 59, 0
2, 65040, Note_on_c, 0, 61, 80
2, 65267, Note_on_c, 0, 61, 0
2, 65280, Note_on_c, 0, 49, 80
2, 65621, Note_on_c, 0, 49, 0
2, 65640, Note_on_c, 0, 59, 80
2, 65753, Note_on_c, 0, 59, 0
2, 66000, Note_on_c, 0, 61, 80
2, 66227, Note_on_c, 0, 61, 0
2, 66240, Note_on_c, 0, 49, 80
2, 66581, Note_on_c, 0, 49, 0
2, 66600, Note_on_c, 0, 59, 80
2, 66713, Note_on_c, 0, 59, 0
2, 66960, Note_on_c, 0, 61, 80
2, 67187, Note_on_c, 0, 61, 0
2, 67200, Note_on_c, 0, 49, 80
2, 67541, Note_on_c, 0, 49, 0
2, 67560, Note_on_c, 0, 59, 80
2, 67673, Note_on_c, 0, 59, 0
2, 67920, Note_on_c, 0, 61, 80
2, 68147, Note_on_c, 0, 61, 0
2, 68160, Note_on_c, 0, 49, 80
2, 68501, Note_on_c, 0, 49, 0
2, 68520, Note_on_c, 0, 59, 80
2, 68633, Note_on_c, 0, 59, 0
2, 68880, Note_on_c, 0, 58, 80
2, 69107, Note_on_c, 0, 58, 0
2, 69120, Note_on_c, 0, 51, 80
2, 69461, Note_on_c, 0, 51, 0
2, 69480, Note_on_c, 0, 58, 80
2, 69593, Note_on_c, 0, 58, 0
2, 69840, Note_on_c, 0, 59, 80
2, 70067, Note_on_c, 0, 59, 0
2, 70080, Note_on_c, 0, 51, 80
2, 70421, Note_on_c, 0, 51, 0
2, 70440, Note_on_c, 0, 58, 80
2, 70553, Note_on_c, 0, 58, 0
2, 70800, Note_on_c, 0, 59, 80
2, 71027, Note_on_c, 0, 59, 0
2, 71040, Note_on_c, 0, 51, 80
2, 71381, Note_on_c, 0, 51, 0
2, 71400, Note_on_c, 0, 58, 80
2, 71513, Note_on_c, 0, 58, 0
2, 71760, Note_on_c, 0, 59, 80
2, 71987, Note_on_c, 0, 59, 0
2, 72000, Note_on_c, 0, 51, 80
2, 72341, Note_on_c, 0, 51, 0
2, 72360, Note_on_c, 0, 58, 80
2, 72473, Note_on_c, 0, 58, 0
2, 72720, Note_on_c, 0, 59, 80
2, 72947, Note_on_c, 0, 59, 0
2, 72960, Note_on_c, 0, 56, 80
2, 73301, Note_on_c, 0, 56, 0
2, 73320, Note_on_c, 0, 66, 80
2, 73433, Note_on_c, 0, 66, 0
2, 73680, Note_on_c, 0, 68, 80
2, 73907, Note_on_c, 0, 68, 0
2, 73920, Note_on_c, 0, 56, 80
2, 74261, Note_on_c, 0, 56, 0
2, 74280, Note_on_c, 0, 66, 80
2, 74393, Note_on_c, 0, 66, 0
2, 74640, Note_on_c, 0, 68, 80
2, 74867, Note_on_c, 0, 68, 0
2, 74880, Note_on_c, 0, 52, 80
2, 75221, Note_on_c, 0, 52, 0
2, 75240, Note_on_c, 0, 59, 80
2, 75353, Note_on_c, 0, 59, 0
2, 75600, Note_on_c, 0, 61, 80
2, 75827, Note_on_c, 0, 61, 0
2, 75840, Note_on_c, 0, 52, 80
2, 76181, Note_on_c, 0, 52, 0
2, 76200, Note_on_c, 0, 59, 80
2, 76313, Note_on_c, 0, 59, 0
2, 76560, Note_on_c, 0, 61, 80
2, 76787, Note_on_c, 0, 61, 0
2, 76800, Note_on_c, 0, 52, 80
2, 76800, Note_on_c, 0, 56, 80
2, 76800, Note_on_c, 0, 59, 80
2, 79991, Note_on_c, 0, 52, 0
2, 79991, Note_on_c, 0, 56, 0
2, 79991, Note_on_c, 0, 59, 0
2, 80160, Note_on_c, 0, 52, 80
2, 80160, Note_on_c, 0, 56, 80
2, 80160, Note_on_c, 0, 59, 80
2, 80387, Note_on_c, 0, 52, 0
2, 80387, Note_on_c, 0, 56, 0
2, 80387, Note_on_c, 0, 59, 0
2, 80400, Note_on_c, 0, 49, 80
2, 80400, Note_on_c, 0, 52, 80
2, 80400, Note_on_c, 0, 56, 80
2, 83363, Note_on_c, 0, 49, 0
2, 83363, Note_on_c, 0, 52, 0
2, 83363, Note_on_c, 0, 56, 0
2, 83520, Note_on_c, 0, 49, 80
2, 83520, Note_on_c, 0, 54, 80
2, 83520, Note_on_c, 0, 58, 80
2, 84431, Note_on_c, 0, 49, 0
2, 84431, Note_on_c, 0, 54, 0
2, 84431, Note_on_c, 0, 58, 0
2, 84480, Note_on_c, 0, 51, 80
2, 84480, Note_on_c, 0, 54, 80
2, 84480, Note_on_c, 0, 58, 80
2, 87215, Note_on_c, 0, 51, 0
2, 87215, Note_on_c, 0, 54, 0
2, 87215, Note_on_c, 0, 58, 0
2, 87360, Note_on_c, 0, 51, 80
2, 87360, Note_on_c, 0, 54, 80
2, 87360, Note_on_c, 0, 59, 80
2, 87815, Note_on_c, 0, 51, 0
2, 87815, Note_on_c, 0, 54, 0
2, 87815, Note_on_c, 0, 59, 0
2, 87840, Note_on_c, 0, 58, 80
2, 88295, Note_on_c, 0, 58, 0
2, 88320, Note_on_c, 0, 51, 80
2, 88383, Note_on_c, 0, 56, 80
2, 88446, Note_on_c, 0, 59, 80
2, 90238, Note_on_c, 0, 56, 0
2, 90238, Note_on_c, 0, 59, 0
2, 90239, Note_on_c, 0, 51, 0
2, 90240, Note_on_c, 0, 52, 80
2, 90240, Note_on_c, 0, 56, 80
2, 90240, Note_on_c, 0, 59, 80
2, 91151, Note_on_c, 0, 52, 0
2, 91151, Note_on_c, 0, 56, 0
2, 91151, Note_on_c, 0, 59, 0
2, 91200, Note_on_c, 0, 52, 80
2, 91200, Note_on_c, 0, 56, 80
2, 91200, Note_on_c, 0, 59, 80
2, 91655, Note_on_c, 0, 52, 0
2, 91655, Note_on_c, 0, 56, 0
2, 91655, Note_on_c, 0, 59, 0
2, 91680, Note_on_c, 0, 52, 80
2, 91743, Note_on_c, 0, 56, 80
2, 91807, Note_on_c, 0, 59, 80
2, 92158, Note_on_c, 0, 56, 0
2, 92158, Note_on_c, 0, 59, 0
2, 92159, Note_on_c, 0, 52, 0
1, 0, Note_on_c, 0, 67, 64
1, 911, Note_on_c, 0, 67, 0
1, 960, Note_on_c, 0, 63, 64
1, 1871, Note_on_c, 0, 63, 0
1, 1920, Note_on_c, 0, 56, 64
1, 3287, Note_on_c, 0, 56, 0
1, 3360, Note_on_c, 0, 62, 64
1, 3815, Note_on_c, 0, 62, 0
1, 3840, Note_on_c, 0, 67, 64
1, 4751, Note_on_c, 0, 67, 0
1, 4800, Note_on_c, 0, 63, 64
1, 5711, Note_on_c, 0, 63, 0
1, 5760, Note_on_c, 0, 56, 64
1, 7127, Note_on_c, 0, 56, 0
1, 7200, Note_on_c, 0, 62, 64
1, 7427, Note_on_c, 0, 62, 0
1, 7440, Note_on_c, 0, 62, 64
1, 7667, Note_on_c, 0, 62, 0
1, 7680, Note_on_c, 0, 67, 64
1, 8135, Note_on_c, 0, 67, 0
1, 8160, Note_on_c, 0, 63, 64
1, 8615, Note_on_c, 0, 63, 0
1, 8640, Note_on_c, 0, 68, 64
1, 8753, Note_on_c, 0, 68, 0
1, 8760, Note_on_c, 0, 67, 64
1, 8873, Note_on_c, 0, 67, 0
1, 8880, Note_on_c, 0, 65, 64
1, 9107, Note_on_c, 0, 65, 0
1, 9120, Note_on_c, 0, 65, 64
1, 9575, Note_on_c, 0, 65, 0
1, 9600, Note_on_c, 0, 63, 64
1, 9713, Note_on_c, 0, 63, 0
1, 9720, Note_on_c, 0, 67, 64
1, 9947, Note_on_c, 0, 67, 0
1, 9960, Note_on_c, 0, 63, 64
1, 10073, Note_on_c, 0, 63, 0
1, 10080, Note_on_c, 0, 65, 64
1, 10307, Note_on_c, 0, 65, 0
1, 10320, Note_on_c, 0, 63, 64
1, 10433, Note_on_c, 0, 63, 0
1, 10440, Note_on_c, 0, 65, 64
1, 10553, Note_on_c, 0, 65, 0
1, 10560, Note_on_c, 0, 63, 64
1, 10673, Note_on_c, 0, 63, 0
1, 10680, Note_on_c, 0, 67, 64
1, 10907, Note_on_c, 0, 67, 0
1, 10920, Note_on_c, 0, 63, 64
1, 11033, Note_on_c, 0, 63, 0
1, 11040, Note_on_c, 0, 65, 64
1, 11267, Note_on_c, 0, 65, 0
1, 11280, Note_on_c, 0, 63, 64
1, 11393, Note_on_c, 0, 63, 0
1, 11400, Note_on_c, 0, 65, 64
1, 11513, Note_on_c, 0, 65, 0
1, 11520, Note_on_c, 0, 67, 64
1, 11975, Note_on_c, 0, 67, 0
1, 12000, Note_on_c, 0, 63, 64
1, 12455, Note_on_c, 0, 63, 0
1, 12480, Note_on_c, 0, 68, 64
1, 12593, Note_on_c, 0, 68, 0
1, 12600, Note_on_c, 0, 67, 64
1, 12713, Note_on_c, 0, 67, 0
1, 12720, Note_on_c, 0, 65, 64
1, 12947, Note_on_c, 0, 65, 0
1, 12960, Note_on_c, 0, 65, 64
1, 13415, Note_on_c, 0, 65, 0
1, 13440, Note_on_c, 0, 63, 64
1, 13553, Note_on_c, 0, 63, 0
1, 13560, Note_on_c, 0, 67, 64
1, 13787, Note_on_c, 0, 67, 0
1, 13800, Note_on_c, 0, 63, 64
1, 13913, Note_on_c, 0, 63, 0
1, 13920, Note_on_c, 0, 65, 64
1, 14147, Note_on_c, 0, 65, 0
1, 14160, Note_on_c, 0, 63, 64
1, 14273, Note_on_c, 0, 63, 0
1, 14280, Note_on_c, 0, 65, 64
1, 14393, Note_on_c, 0, 65, 0
1, 14400, Note_on_c, 0, 63, 64
1, 14513, Note_on_c, 0, 63, 0
1, 14520, Note_on_c, 0, 67, 64
1, 14747, Note_on_c, 0, 67, 0
1, 14760, Note_on_c, 0, 63, 64
1, 14873, Note_on_c, 0, 63, 0
1, 14880, Note_on_c, 0, 65, 64
1, 15107, Note_on_c, 0, 65, 0
1, 15120, Note_on_c, 0, 63, 64
1, 15233, Note_on_c, 0, 63, 0
1, 15240, Note_on_c, 0, 65, 64
1, 15353, Note_on_c, 0, 65, 0
1, 15360, Note_on_c, 0, 75, 64
1, 15587, Note_on_c, 0, 75, 0
1, 15600, Note_on_c, 0, 72, 64
1, 15827, Note_on_c, 0, 72, 0
1, 15840, Note_on_c, 0, 67, 64
1, 15953, Note_on_c, 0, 67, 0
1, 15960, Note_on_c, 0, 65, 64
1, 16073, Note_on_c, 0, 65, 0
1, 16080, Note_on_c, 0, 67, 64
1, 16193, Note_on_c, 0, 67, 0
1, 16200, Note_on_c, 0, 65, 64
1, 16313, Note_on_c, 0, 65, 0
1, 16320, Note_on_c, 0, 67, 64
1, 16433, Note_on_c, 0, 67, 0
1, 16440, Note_on_c, 0, 65, 64
1, 16553, Note_on_c, 0, 65, 0
1, 16560, Note_on_c, 0, 67, 64
1, 16673, Note_on_c, 0, 67, 0
1, 16680, Note_on_c, 0, 65, 64
1, 16793, Note_on_c, 0, 65, 0
1, 16800, Note_on_c, 0, 67, 64
1, 17027, Note_on_c, 0, 67, 0
1, 17040, Note_on_c, 0, 65, 64
1, 17267, Note_on_c, 0, 65, 0
1, 17280, Note_on_c, 0, 75, 64
1, 17393, Note_on_c, 0, 75, 0
1, 17400, Note_on_c, 0, 74, 64
1, 17513, Note_on_c, 0, 74, 0
1, 17520, Note_on_c, 0, 72, 64
1, 17747, Note_on_c, 0, 72, 0
1, 17760, Note_on_c, 0, 67, 64
1, 17873, Note_on_c, 0, 67, 0
1, 17880, Note_on_c, 0, 65, 64
1, 17993, Note_on_c, 0, 65, 0
1, 18000, Note_on_c, 0, 67, 64
1, 18113, Note_on_c, 0, 67, 0
1, 18120, Note_on_c, 0, 65, 64
1, 18233, Note_on_c, 0, 65, 0
1, 18240, Note_on_c, 0, 67, 64
1, 18353, Note_on_c, 0, 67, 0
1, 18360, Note_on_c, 0, 65, 64
1, 18473, Note_on_c, 0, 65, 0
1, 18480, Note_on_c, 0, 67, 64
1, 18593, Note_on_c, 0, 67, 0
1, 18600, Note_on_c, 0, 65, 64
1, 18713, Note_on_c, 0, 65, 0
1, 18720, Note_on_c, 0, 67, 64
1, 18947, Note_on_c, 0, 67, 0
1, 18960, Note_on_c, 0, 65, 64
1, 19187, Note_on_c, 0, 65, 0
1, 19200, Note_on_c, 0, 75, 64
1, 19313, Note_on_c, 0, 75, 0
1, 19320, Note_on_c, 0, 74, 64
1, 19433, Note_on_c, 0, 74, 0
1, 19440, Note_on_c, 0, 72, 64
1, 19667, Note_on_c, 0, 72, 0
1, 19680, Note_on_c, 0, 67, 64
1, 19793, Note_on_c, 0, 67, 0
1, 19800, Note_on_c, 0, 65, 64
1, 19913, Note_on_c, 0, 65, 0
1, 19920, Note_on_c, 0, 67, 64
1, 20033, Note_on_c, 0, 67, 0
1, 20040, Note_on_c, 0, 65, 64
1, 20153, Note_on_c, 0, 65, 0
1, 20160, Note_on_c, 0, 67, 64
1, 20273, Note_on_c, 0, 67, 0
1, 20280, Note_on_c, 0, 65, 64
1, 20393, Note_on_c, 0, 65, 0
1, 20400, Note_on_c, 0, 67, 64
1, 20513, Note_on_c, 0, 67, 0
1, 20520, Note_on_c, 0, 65, 64
1, 20633, Note_on_c, 0, 65, 0
1, 20640, Note_on_c, 0, 67, 64
1, 20867, Note_on_c, 0, 67, 0
1, 20880, Note_on_c, 0, 65, 64
1, 21107, Note_on_c, 0, 65, 0
1, 21120, Note_on_c, 0, 63, 64
1, 21233, Note_on_c, 0, 63, 0
1, 21240, Note_on_c, 0, 70, 64
1, 21467, Note_on_c, 0, 70, 0
1, 21480, Note_on_c, 0, 65, 64
1, 21593, Note_on_c, 0, 65, 0
1, 21600, Note_on_c, 0, 65, 64
1, 21827, Note_on_c, 0, 65, 0
1, 21840, Note_on_c, 0, 63, 64
1, 22067, Note_on_c, 0, 63, 0
1, 22080, Note_on_c, 0, 63, 64
1, 22193, Note_on_c, 0, 63, 0
1, 22200, Note_on_c, 0, 70, 64
1, 22427, Note_on_c, 0, 70, 0
1, 22440, Note_on_c, 0, 65, 64
1, 22553, Note_on_c, 0, 65, 0
1, 22560, Note_on_c, 0, 65, 64
1, 22787, Note_on_c, 0, 65, 0
1, 22800, Note_on_c, 0, 63, 64
1, 23027, Note_on_c, 0, 63, 0
1, 23040, Note_on_c, 0, 75, 64
1, 23267, Note_on_c, 0, 75, 0
1, 23280, Note_on_c, 0, 72, 64
1, 23507, Note_on_c, 0, 72, 0
1, 23520, Note_on_c, 0, 67, 64
1, 23633, Note_on_c, 0, 67, 0
1, 23640, Note_on_c, 0, 65, 64
1, 23753, Note_on_c, 0, 65, 0
1, 23760, Note_on_c, 0, 67, 64
1, 23873, Note_on_c, 0, 67, 0
1, 23880, Note_on_c, 0, 65, 64
1, 23993, Note_on_c, 0, 65, 0
1, 24000, Note_on_c, 0, 67, 64
1, 24113, Note_on_c, 0, 67, 0
1, 24120, Note_on_c, 0, 65, 64
1, 24233, Note_on_c, 0, 65, 0
1, 24240, Note_on_c, 0, 67, 64
1, 24353, Note_on_c, 0, 67, 0
1, 24360, Note_on_c, 0, 65, 64
1, 24473, Note_on_c, 0, 65, 0
1, 24480, Note_on_c, 0, 67, 64
1, 24707, Note_on_c, 0, 67, 0
1, 24720, Note_on_c, 0, 65, 64
1, 24947, Note_on_c, 0, 65, 0
1, 24960, Note_on_c, 0, 75, 64
1, 25073, Note_on_c, 0, 75, 0
1, 25080, Note_on_c, 0, 74, 64
1, 25193, Note_on_c, 0, 74, 0
1, 25200, Note_on_c, 0, 72, 64
1, 25427, Note_on_c, 0, 72, 0
1, 25440, Note_on_c, 0, 67, 64
1, 25553, Note_on_c, 0, 67, 0
1, 25560, Note_on_c, 0, 65, 64
1, 25673, Note_on_c, 0, 65, 0
1, 25680, Note_on_c, 0, 67, 64
1, 25793, Note_on_c, 0, 67, 0
1, 25800, Note_on_c, 0, 65, 64
1, 25913, Note_on_c, 0, 65, 0
1, 25920, Note_on_c, 0, 67, 64
1, 26033, Note_on_c, 0, 67, 0
1, 26040, Note_on_c, 0, 65, 64
1, 26153, Note_on_c, 0, 65, 0
1, 26160, Note_on_c, 0, 67, 64
1, 26273, Note_on_c, 0, 67, 0
1, 26280, Note_on_c, 0, 65, 64
1, 26393, Note_on_c, 0, 65, 0
1, 26400, Note_on_c, 0, 67, 64
1, 26627, Note_on_c, 0, 67, 0
1, 26640, Note_on_c, 0, 65, 64
1, 26867, Note_on_c, 0, 65, 0
1, 26880, Note_on_c, 0, 75, 64
1, 26993, Note_on_c, 0, 75, 0
1, 27000, Note_on_c, 0, 74, 64
1, 27113, Note_on_c, 0, 74, 0
1, 27120, Note_on_c, 0, 72, 64
1, 27347, Note_on_c, 0, 72, 0
1, 27360, Note_on_c, 0, 67, 64
1, 27473, Note_on_c, 0, 67, 0
1, 27480, Note_on_c, 0, 65, 64
1, 27593, Note_on_c, 0, 65, 0
1, 27600, Note_on_c, 0, 67, 64
1, 27713, Note_on_c, 0, 67, 0
1, 27720, Note_on_c, 0, 65, 64
1, 27833, Note_on_c, 0, 65, 0
1, 27840, Note_on_c, 0, 67, 64
1, 27953, Note_on_c, 0, 67, 0
1, 27960, Note_on_c, 0, 65, 64
1, 28073, Note_on_c, 0, 65, 0
1, 28080, Note_on_c, 0, 67, 64
1, 28193, Note_on_c, 0, 67, 0
1, 28200, Note_on_c, 0, 65, 64
1, 28313, Note_on_c, 0, 65, 0
1, 28320, Note_on_c, 0, 67, 64
1, 28547, Note_on_c, 0, 67, 0
1, 28560, Note_on_c, 0, 65, 64
1, 28787, Note_on_c, 0, 65, 0
1, 28800, Note_on_c, 0, 63, 64
1, 28913, Note_on_c, 0, 63, 0
1, 28920, Note_on_c, 0, 70, 64
1, 29147, Note_on_c, 0, 70, 0
1, 29160, Note_on_c, 0, 65, 64
1, 29273, Note_on_c, 0, 65, 0
1, 29280, Note_on_c, 0, 65, 64
1, 29507, Note_on_c, 0, 65, 0
1, 29520, Note_on_c, 0, 63, 64
1, 29747, Note_on_c, 0, 63, 0
1, 29760, Note_on_c, 0, 63, 64
1, 29873, Note_on_c, 0, 63, 0
1, 29880, Note_on_c, 0, 70, 64
1, 30107, Note_on_c, 0, 70, 0
1, 30120, Note_on_c, 0, 65, 64
1, 30233, Note_on_c, 0, 65, 0
1, 30240, Note_on_c, 0, 65, 64
1, 30467, Note_on_c, 0, 65, 0
1, 30480, Note_on_c, 0, 63, 64
1, 30935, Note_on_c, 0, 63, 0
1, 30960, Note_on_c, 0, 65, 64
1, 31187, Note_on_c, 0, 65, 0
1, 31200, Note_on_c, 0, 67, 64
1, 31427, Note_on_c, 0, 67, 0
1, 31440, Note_on_c, 0, 63, 64
1, 31667, Note_on_c, 0, 63, 0
1, 31680, Note_on_c, 0, 68, 64
1, 31907, Note_on_c, 0, 68, 0
1, 31920, Note_on_c, 0, 67, 64
1, 32147, Note_on_c, 0, 67, 0
1, 32160, Note_on_c, 0, 65, 64
1, 32387, Note_on_c, 0, 65, 0
1, 32400, Note_on_c, 0, 63, 64
1, 32627, Note_on_c, 0, 63, 0
1, 32640, Note_on_c, 0, 60, 64
1, 32867, Note_on_c, 0, 60, 0
1, 32880, Note_on_c, 0, 65, 64
1, 33107, Note_on_c, 0, 65, 0
1, 33120, Note_on_c, 0, 67, 64
1, 33347, Note_on_c, 0, 67, 0
1, 33360, Note_on_c, 0, 63, 64
1, 33587, Note_on_c, 0, 63, 0
1, 33600, Note_on_c, 0, 68, 64
1, 33827, Note_on_c, 0, 68, 0
1, 33840, Note_on_c, 0, 67, 64
1, 34067, Note_on_c, 0, 67, 0
1, 34080, Note_on_c, 0, 65, 64
1, 34307, Note_on_c, 0, 65, 0
1, 34320, Note_on_c, 0, 63, 64
1, 34547, Note_on_c, 0, 63, 0
1, 34560, Note_on_c, 0, 60, 64
1, 34787, Note_on_c, 0, 60, 0
1, 34800, Note_on_c, 0, 67, 64
1, 35027, Note_on_c, 0, 67, 0
1, 35040, Note_on_c, 0, 67, 64
1, 35267, Note_on_c, 0, 67, 0
1, 35280, Note_on_c, 0, 63, 64
1, 35507, Note_on_c, 0, 63, 0
1, 35520, Note_on_c, 0, 68, 64
1, 35747, Note_on_c, 0, 68, 0
1, 35760, Note_on_c, 0, 67, 64
1, 35987, Note_on_c, 0, 67, 0
1, 36000, Note_on_c, 0, 65, 64
1, 36227, Note_on_c, 0, 65, 0
1, 36240, Note_on_c, 0, 63, 64
1, 36467, Note_on_c, 0, 63, 0
1, 36480, Note_on_c, 0, 60, 64
1, 36707, Note_on_c, 0, 60, 0
1, 36720, Note_on_c, 0, 67, 64
1, 36947, Note_on_c, 0, 67, 0
1, 36960, Note_on_c, 0, 67, 64
1, 37187, Note_on_c, 0, 67, 0
1, 37200, Note_on_c, 0, 70, 64
1, 37427, Note_on_c, 0, 70, 0
1, 37440, Note_on_c, 0, 68, 64
1, 37667, Note_on_c, 0, 68, 0
1, 37680, Note_on_c, 0, 67, 64
1, 37907, Note_on_c, 0, 67, 0
1, 37920, Note_on_c, 0, 65, 64
1, 38147, Note_on_c, 0, 65, 0
1, 38160, Note_on_c, 0, 63, 64
1, 38615, Note_on_c, 0, 63, 0
1, 38640, Note_on_c, 0, 67, 64
1, 38867, Note_on_c, 0, 67, 0
1, 38880, Note_on_c, 0, 67, 64
1, 39221, Note_on_c, 0, 67, 0
1, 39240, Note_on_c, 0, 65, 64
1, 39581, Note_on_c, 0, 65, 0
1, 39600, Note_on_c, 0, 67, 64
1, 39827, Note_on_c, 0, 67, 0
1, 39840, Note_on_c, 0, 67, 64
1, 40181, Note_on_c, 0, 67, 0
1, 40200, Note_on_c, 0, 65, 64
1, 40541, Note_on_c, 0, 65, 0
1, 40560, Note_on_c, 0, 67, 64
1, 40787, Note_on_c, 0, 67, 0
1, 40800, Note_on_c, 0, 67, 64
1, 41027, Note_on_c, 0, 67, 0
1, 41040, Note_on_c, 0, 63, 64
1, 41267, Note_on_c, 0, 63, 0
1, 41280, Note_on_c, 0, 68, 64
1, 41507, Note_on_c, 0, 68, 0
1, 41520, Note_on_c, 0, 67, 64
1, 41747, Note_on_c, 0, 67, 0
1, 41760, Note_on_c, 0, 65, 64
1, 41987, Note_on_c, 0, 65, 0
1, 42000, Note_on_c, 0, 63, 64
1, 42455, Note_on_c, 0, 63, 0
1, 42480, Note_on_c, 0, 67, 64
1, 42707, Note_on_c, 0, 67, 0
1, 42720, Note_on_c, 0, 67, 64
1, 43061, Note_on_c, 0, 67, 0
1, 43080, Note_on_c, 0, 65, 64
1, 43421, Note_on_c, 0, 65, 0
1, 43440, Note_on_c, 0, 67, 64
1, 43667, Note_on_c, 0, 67, 0
1, 43680, Note_on_c, 0, 67, 64
1, 44021, Note_on_c, 0, 67, 0
1, 44040, Note_on_c, 0, 65, 64
1, 44381, Note_on_c, 0, 65, 0
1, 44400, Note_on_c, 0, 67, 64
1, 44627, Note_on_c, 0, 67, 0
1, 44640, Note_on_c, 0, 67, 64
1, 44867, Note_on_c, 0, 67, 0
1, 44880, Note_on_c, 0, 63, 64
1, 45107, Note_on_c, 0, 63, 0
1, 45120, Note_on_c, 0, 68, 64
1, 45347, Note_on_c, 0, 68, 0
1, 45360, Note_on_c, 0, 67, 64
1, 45587, Note_on_c, 0, 67, 0
1, 45600, Note_on_c, 0, 65, 64
1, 45827, Note_on_c, 0, 65, 0
1, 45840, Note_on_c, 0, 63, 64
1, 46067, Note_on_c, 0, 63, 0
1, 46080, Note_on_c, 0, 75, 64
1, 46307, Note_on_c, 0, 75, 0
1, 46320, Note_on_c, 0, 72, 64
1, 46547, Note_on_c, 0, 72, 0
1, 46560, Note_on_c, 0, 67, 64
1, 46673, Note_on_c, 0, 67, 0
1, 46680, Note_on_c, 0, 65, 64
1, 46793, Note_on_c, 0, 65, 0
1, 46800, Note_on_c, 0, 67, 64
1, 46913, Note_on_c, 0, 67, 0
1, 46920, Note_on_c, 0, 65, 64
1, 47033, Note_on_c, 0, 65, 0
1, 47040, Note_on_c, 0, 67, 64
1, 47153, Note_on_c, 0, 67, 0
1, 47160, Note_on_c, 0, 65, 64
1, 47273, Note_on_c, 0, 65, 0
1, 47280, Note_on_c, 0, 67, 64
1, 47393, Note_on_c, 0, 67, 0
1, 47400, Note_on_c, 0, 65, 64
1, 47513, Note_on_c, 0, 65, 0
1, 47520, Note_on_c, 0, 67, 64
1, 47747, Note_on_c, 0, 67, 0
1, 47760, Note_on_c, 0, 65, 64
1, 47987, Note_on_c, 0, 65, 0
1, 48000, Note_on_c, 0, 75, 64
1, 48113, Note_on_c, 0, 75, 0
1, 48120, Note_on_c, 0, 74, 64
1, 48233, Note_on_c, 0, 74, 0
1, 48240, Note_on_c, 0, 72, 64
1, 48467, Note_on_c, 0, 72, 0
1, 48480, Note_on_c, 0, 67, 64
1, 48593, Note_on_c, 0, 67, 0
1, 48600, Note_on_c, 0, 65, 64
1, 48713, Note_on_c, 0, 65, 0
1, 48720, Note_on_c, 0, 67, 64
1, 48833, Note_on_c, 0, 67, 0
1, 48840, Note_on_c, 0, 65, 64
1, 48953, Note_on_c, 0, 65, 0
1, 48960, Note_on_c, 0, 67, 64
1, 49073, Note_on_c, 0, 67, 0
1, 49080, Note_on_c, 0, 65, 64
1, 49193, Note_on_c, 0, 65, 0
1, 49200, Note_on_c, 0, 67, 64
1, 49313, Note_on_c, 0, 67, 0
1, 49320, Note_on_c, 0, 65, 64
1, 49433, Note_on_c, 0, 65, 0
1, 49440, Note_on_c, 0, 67, 64
1, 49667, Note_on_c, 0, 67, 0
1, 49680, Note_on_c, 0, 65, 64
1, 49907, Note_on_c, 0, 65, 0
1, 49920, Note_on_c, 0, 75, 64
1, 50033, Note_on_c, 0, 75, 0
1, 50040, Note_on_c, 0, 74, 64
1, 50153, Note_on_c, 0, 74, 0
1, 50160, Note_on_c, 0, 72, 64
1, 50387, Note_on_c, 0, 72, 0
1, 50400, Note_on_c, 0, 67, 64
1, 50513, Note_on_c, 0, 67, 0
1, 50520, Note_on_c, 0, 65, 64
1, 50633, Note_on_c, 0, 65, 0
1, 50640, Note_on_c, 0, 67, 64
1, 50753, Note_on_c, 0, 67, 0
1, 50760, Note_on_c, 0, 65, 64
1, 50873, Note_on_c, 0, 65, 0
1, 50880, Note_on_c, 0, 67, 64
1, 50993, Note_on_c, 0, 67, 0
1, 51000, Note_on_c, 0, 65, 64
1, 51113, Note_on_c, 0, 65, 0
1, 51120, Note_on_c, 0, 67, 64
1, 51233, Note_on_c, 0, 67, 0
1, 51240, Note_on_c, 0, 65, 64
1, 51353, Note_on_c, 0, 65, 0
1, 51360, Note_on_c, 0, 67, 64
1, 51587, Note_on_c, 0, 67, 0
1, 51600, Note_on_c, 0, 65, 64
1, 51827, Note_on_c, 0, 65, 0
1, 51840, Note_on_c, 0, 63, 64
1, 51953, Note_on_c, 0, 63, 0
1, 51960, Note_on_c, 0, 70, 64
1, 52187, Note_on_c, 0, 70, 0
1, 52200, Note_on_c, 0, 65, 64
1, 52313, Note_on_c, 0, 65, 0
1, 52320, Note_on_c, 0, 65, 64
1, 52547, Note_on_c, 0, 65, 0
1, 52560, Note_on_c, 0, 63, 64
1, 52787, Note_on_c, 0, 63, 0
1, 52800, Note_on_c, 0, 63, 64
1, 52913, Note_on_c, 0, 63, 0
1, 52920, Note_on_c, 0, 70, 64
1, 53147, Note_on_c, 0, 70, 0
1, 53160, Note_on_c, 0, 65, 64
1, 53273, Note_on_c, 0, 65, 0
1, 53280, Note_on_c, 0, 65, 64
1, 53507, Note_on_c, 0, 65, 0
1, 53520, Note_on_c, 0, 63, 64
1, 53747, Note_on_c, 0, 63, 0
1, 53760, Note_on_c, 0, 75, 64
1, 53987, Note_on_c, 0, 75, 0
1, 54000, Note_on_c, 0, 72, 64
1, 54227, Note_on_c, 0, 72, 0
1, 54240, Note_on_c, 0, 67, 64
1, 54353, Note_on_c, 0, 67, 0
1, 54360, Note_on_c, 0, 65, 64
1, 54473, Note_on_c, 0, 65, 0
1, 54480, Note_on_c, 0, 67, 64
1, 54593, Note_on_c, 0, 67, 0
1, 54600, Note_on_c, 0, 65, 64
1, 54713, Note_on_c, 0, 65, 0
1, 54720, Note_on_c, 0, 67, 64
1, 54833, Note_on_c, 0, 67, 0
1, 54840, Note_on_c, 0, 65, 64
1, 54953, Note_on_c, 0, 65, 0
1, 54960, Note_on_c, 0, 67, 64
1, 55073, Note_on_c, 0, 67, 0
1, 55080, Note_on_c, 0, 65, 64
1, 55193, Note_on_c, 0, 65, 0
1, 55200, Note_on_c, 0, 67, 64
1, 55427, Note_on_c, 0, 67, 0
1, 55440, Note_on_c, 0, 65, 64
1, 55667, Note_on_c, 0, 65, 0
1, 55680, Note_on_c, 0, 75, 64
1, 55793, Note_on_c, 0, 75, 0
1, 55800, Note_on_c, 0, 74, 64
1, 55913, Note_on_c, 0, 74, 0
1, 55920, Note_on_c, 0, 72, 64
1, 56147, Note_on_c, 0, 72, 0
1, 56160, Note_on_c, 0, 67, 64
1, 56273, Note_on_c, 0, 67, 0
1, 56280, Note_on_c, 0, 65, 64
1, 56393, Note_on_c, 0, 65, 0
1, 56400, Note_on_c, 0, 67, 64
1, 56513, Note_on_c, 0, 67, 0
1, 56520, Note_on_c, 0, 65, 64
1, 56633, Note_on_c, 0, 65, 0
1, 56640, Note_on_c, 0, 67, 64
1, 56753, Note_on_c, 0, 67, 0
1, 56760, Note_on_c, 0, 65, 64
1, 56873, Note_on_c, 0, 65, 0
1, 56880, Note_on_c, 0, 67, 64
1, 56993, Note_on_c, 0, 67, 0
1, 57000, Note_on_c, 0, 65, 64
1, 57113, Note_on_c, 0, 65, 0
1, 57120, Note_on_c, 0, 67, 64
1, 57347, Note_on_c, 0, 67, 0
1, 57360, Note_on_c, 0, 65, 64
1, 57587, Note_on_c, 0, 65, 0
1, 57600, Note_on_c, 0, 75, 64
1, 57713, Note_on_c, 0, 75, 0
1, 57720, Note_on_c, 0, 74, 64
1, 57833, Note_on_c, 0, 74, 0
1, 57840, Note_on_c, 0, 72, 64
1, 58067, Note_on_c, 0, 72, 0
1, 58080, Note_on_c, 0, 67, 64
1, 58193, Note_on_c, 0, 67, 0
1, 58200, Note_on_c, 0, 65, 64
1, 58313, Note_on_c, 0, 65, 0
1, 58320, Note_on_c, 0, 67, 64
1, 58433, Note_on_c, 0, 67, 0
1, 58440, Note_on_c, 0, 65, 64
1, 58553, Note_on_c, 0, 65, 0
1, 58560, Note_on_c, 0, 67, 64
1, 58673, Note_on_c, 0, 67, 0
1, 58680, Note_on_c, 0, 65, 64
1, 58793, Note_on_c, 0, 65, 0
1, 58800, Note_on_c, 0, 67, 64
1, 58913, Note_on_c, 0, 67, 0
1, 58920, Note_on_c, 0, 65, 64
1, 59033, Note_on_c, 0, 65, 0
1, 59040, Note_on_c, 0, 67, 64
1, 59267, Note_on_c, 0, 67, 0
1, 59280, Note_on_c, 0, 65, 64
1, 59507, Note_on_c, 0, 65, 0
1, 59520, Note_on_c, 0, 63, 64
1, 59633, Note_on_c, 0, 63, 0
1, 59640, Note_on_c, 0, 70, 64
1, 59867, Note_on_c, 0, 70, 0
1, 59880, Note_on_c, 0, 65, 64
1, 59993, Note_on_c, 0, 65, 0
1, 60000, Note_on_c, 0, 65, 64
1, 60227, Note_on_c, 0, 65, 0
1, 60240, Note_on_c, 0, 63, 64
1, 60467, Note_on_c, 0, 63, 0
1, 60480, Note_on_c, 0, 63, 64
1, 60593, Note_on_c, 0, 63, 0
1, 60600, Note_on_c, 0, 70, 64
1, 60827, Note_on_c, 0, 70, 0
1, 60840, Note_on_c, 0, 65, 64
1, 60953, Note_on_c, 0, 65, 0
1, 60960, Note_on_c, 0, 65, 64
1, 61187, Note_on_c, 0, 65, 0
1, 61200, Note_on_c, 0, 63, 64
1, 61427, Note_on_c, 0, 63, 0
1, 61440, Note_on_c, 0, 67, 49
1, 62351, Note_on_c, 0, 67, 0
1, 62400, Note_on_c, 0, 63, 49
1, 63311, Note_on_c, 0, 63, 0
1, 63360, Note_on_c, 0, 56, 49
1, 64727, Note_on_c, 0, 56, 0
1, 64800, Note_on_c, 0, 62, 49
1, 65255, Note_on_c, 0, 62, 0
1, 65280, Note_on_c, 0, 67, 49
1, 66191, Note_on_c, 0, 67, 0
1, 66240, Note_on_c, 0, 63, 49
1, 67151, Note_on_c, 0, 63, 0
1, 67200, Note_on_c, 0, 56, 49
1, 68567, Note_on_c, 0, 56, 0
1, 68640, Note_on_c, 0, 62, 49
1, 68867, Note_on_c, 0, 62, 0
1, 68880, Note_on_c, 0, 62, 49
1, 69107, Note_on_c, 0, 62, 0
1, 69120, Note_on_c, 0, 67, 49
1, 70031, Note_on_c, 0, 67, 0
1, 70080, Note_on_c, 0, 63, 49
1, 70991, Note_on_c, 0, 63, 0
1, 71040, Note_on_c, 0, 56, 49
1, 71040, Note_on_c, 0, 68, 49
1, 72407, Note_on_c, 0, 56, 0
1, 72407, Note_on_c, 0, 68, 0
1, 72480, Note_on_c, 0, 62, 49
1, 72707, Note_on_c, 0, 62, 0
1, 72720, Note_on_c, 0, 62, 49
1, 72947, Note_on_c, 0, 62, 0
1, 72960, Note_on_c, 0, 67, 49
1, 73871, Note_on_c, 0, 67, 0
1, 73920, Note_on_c, 0, 63, 49
1, 74831, Note_on_c, 0, 63, 0
1, 74880, Note_on_c, 0, 56, 49
1, 74880, Note_on_c, 0, 68, 49
1, 76247, Note_on_c, 0, 56, 0
1, 76247, Note_on_c, 0, 68, 0
1, 76320, Note_on_c, 0, 62, 49
1, 76547, Note_on_c, 0, 62, 0
1, 76560, Note_on_c, 0, 62, 49
1, 76787, Note_on_c, 0, 62, 0
1, 76800, Note_on_c, 0, 75, 64
1, 77027, Note_on_c, 0, 75, 0
1, 77040, Note_on_c, 0, 72, 64
1, 77267, Note_on_c, 0, 72, 0
1, 77280, Note_on_c, 0, 67, 64
1, 77393, Note_on_c, 0, 67, 0
1, 77400, Note_on_c, 0, 65, 64
1, 77513, Note_on_c, 0, 65, 0
1, 77520, Note_on_c, 0, 67, 64
1, 77633, Note_on_c, 0, 67, 0
1, 77640, Note_on_c, 0, 65, 64
1, 77753, Note_on_c, 0, 65, 0
1, 77760, Note_on_c, 0, 67, 64
1, 77873, Note_on_c, 0, 67, 0
1, 77880, Note_on_c, 0, 65, 64
1, 77993, Note_on_c, 0, 65, 0
1, 78000, Note_on_c, 0, 67, 64
1, 78113, Note_on_c, 0, 67, 0
1, 78120, Note_on_c, 0, 65, 64
1, 78233, Note_on_c, 0, 65, 0
1, 78240, Note_on_c, 0, 67, 64
1, 78467, Note_on_c, 0, 67, 0
1, 78480, Note_on_c, 0, 65, 64
1, 78707, Note_on_c, 0, 65, 0
1, 78720, Note_on_c, 0, 75, 64
1, 78833, Note_on_c, 0, 75, 0
1, 78840, Note_on_c, 0, 74, 64
1, 78953, Note_on_c, 0, 74, 0
1, 78960, Note_on_c, 0, 72, 64
1, 79187, Note_on_c, 0, 72, 0
1, 79200, Note_on_c, 0, 67, 64
1, 79313, Note_on_c, 0, 67, 0
1, 79320, Note_on_c, 0, 65, 64
1, 79433, Note_on_c, 0, 65, 0
1, 79440, Note_on_c, 0, 67, 64
1, 79553, Note_on_c, 0, 67, 0
1, 79560, Note_on_c, 0, 65, 64
1, 79673, Note_on_c, 0, 65, 0
1, 79680, Note_on_c, 0, 67, 64
1, 79793, Note_on_c, 0, 67, 0
1, 79800, Note_on_c, 0, 65, 64
1, 79913, Note_on_c, 0, 65, 0
1, 79920, Note_on_c, 0, 67, 64
1, 80033, Note_on_c, 0, 67, 0
1, 80040, Note_on_c, 0, 65, 64
1, 80153, Note_on_c, 0, 65, 0
1, 80160, Note_on_c, 0, 67, 64
1, 80387, Note_on_c, 0, 67, 0
1, 80400, Note_on_c, 0, 65, 64
1, 80627, Note_on_c, 0, 65, 0
1, 80640, Note_on_c, 0, 75, 64
1, 80753, Note_on_c, 0, 75, 0
1, 80760, Note_on_c, 0, 74, 64
1, 80873, Note_on_c, 0, 74, 0
1, 80880, Note_on_c, 0, 72, 64
1, 81107, Note_on_c, 0, 72, 0
1, 81120, Note_on_c, 0, 67, 64
1, 81233, Note_on_c, 0, 67, 0
1, 81240, Note_on_c, 0, 65, 64
1, 81353, Note_on_c, 0, 65, 0
1, 81360, Note_on_c, 0, 67, 64
1, 81473, Note_on_c, 0, 67, 0
1, 81480, Note_on_c, 0, 65, 64
1, 81593, Note_on_c, 0, 65, 0
1, 81600, Note_on_c, 0, 67, 64
1, 81713, Note_on_c, 0, 67, 0
1, 81720, Note_on_c, 0, 65, 64
1, 81833, Note_on_c, 0, 65, 0
1, 81840, Note_on_c, 0, 67, 64
1, 81953, Note_on_c, 0, 67, 0
1, 81960, Note_on_c, 0, 65, 64
1, 82073, Note_on_c, 0, 65, 0
1, 82080, Note_on_c, 0, 67, 64
1, 82307, Note_on_c, 0, 67, 0
1, 82320, Note_on_c, 0, 65, 64
1, 82547, Note_on_c, 0, 65, 0
1, 82560, Note_on_c, 0, 63, 64
1, 82673, Note_on_c, 0, 63, 0
1, 82680, Note_on_c, 0, 70, 64
1, 82907, Note_on_c, 0, 70, 0
1, 82920, Note_on_c, 0, 65, 64
1, 83033, Note_on_c, 0, 65, 0
1, 83040, Note_on_c, 0, 65, 64
1, 83267, Note_on_c, 0, 65, 0
1, 83280, Note_on_c, 0, 63, 64
1, 83507, Note_on_c, 0, 63, 0
1, 83520, Note_on_c, 0, 63, 64
1, 83633, Note_on_c, 0, 63, 0
1, 83640, Note_on_c, 0, 70, 64
1, 83867, Note_on_c, 0, 70, 0
1, 83880, Note_on_c, 0, 65, 64
1, 83993, Note_on_c, 0, 65, 0
1, 84000, Note_on_c, 0, 65, 64
1, 84227, Note_on_c, 0, 65, 0
1, 84240, Note_on_c, 0, 63, 64
1, 84467, Note_on_c, 0, 63, 0
1, 84480, Note_on_c, 0, 75, 64
1, 84707, Note_on_c, 0, 75, 0
1, 84720, Note_on_c, 0, 72, 64
1, 84947, Note_on_c, 0, 72, 0
1, 84960, Note_on_c, 0, 67, 64
1, 85073, Note_on_c, 0, 67, 0
1, 85080, Note_on_c, 0, 65, 64
1, 85193, Note_on_c, 0, 65, 0
1, 85200, Note_on_c, 0, 67, 64
1, 85313, Note_on_c, 0, 67, 0
1, 85320, Note_on_c, 0, 65, 64
1, 85433, Note_on_c, 0, 65, 0
1, 85440, Note_on_c, 0, 67, 64
1, 85553, Note_on_c, 0, 67, 0
1, 85560, Note_on_c, 0, 65, 64
1, 85673, Note_on_c, 0, 65, 0
1, 85680, Note_on_c, 0, 67, 64
1, 85793, Note_on_c, 0, 67, 0
1, 85800, Note_on_c, 0, 65, 64
1, 85913, Note_on_c, 0, 65, 0
1, 85920, Note_on_c, 0, 67, 64
1, 86147, Note_on_c, 0, 67, 0
1, 86160, Note_on_c, 0, 65, 64
1, 86387, Note_on_c, 0, 65, 0
1, 86400, Note_on_c, 0, 75, 64
1, 86513, Note_on_c, 0, 75, 0
1, 86520, Note_on_c, 0, 74, 64
1, 86633, Note_on_c, 0, 74, 0
1, 86640, Note_on_c, 0, 72, 64
1, 86867, Note_on_c, 0, 72, 0
1, 86880, Note_on_c, 0, 67, 64
1, 86993, Note_on_c, 0, 67, 0
1, 87000, Note_on_c, 0, 65, 64
1, 87113, Note_on_c, 0, 65, 0
1, 87120, Note_on_c, 0, 67, 64
1, 87233, Note_on_c, 0, 67, 0
1, 87240, Note_on_c, 0, 65, 64
1, 87353, Note_on_c, 0, 65, 0
1, 87360, Note_on_c, 0, 67, 64
1, 87473, Note_on_c, 0, 67, 0
1, 87480, Note_on_c, 0, 65, 64
1, 87593, Note_on_c, 0, 65, 0
1, 87600, Note_on_c, 0, 67, 64
1, 87713, Note_on_c, 0, 67, 0
1, 87720, Note_on_c, 0, 65, 64
1, 87833, Note_on_c, 0, 65, 0
1, 87840, Note_on_c, 0, 67, 64
1, 88067, Note_on_c, 0, 67, 0
1, 88080, Note_on_c, 0, 65, 64
1, 88307, Note_on_c, 0, 65, 0
1, 88320, Note_on_c, 0, 75, 64
1, 88433, Note_on_c, 0, 75, 0
1, 88440, Note_on_c, 0, 74, 64
1, 88553, Note_on_c, 0, 74, 0
1, 88560, Note_on_c, 0, 72, 64
1, 88787, Note_on_c, 0, 72, 0
1, 88800, Note_on_c, 0, 67, 64
1, 88913, Note_on_c, 0, 67, 0
1, 88920, Note_on_c, 0, 65, 64
1, 89033, Note_on_c, 0, 65, 0
1, 89040, Note_on_c, 0, 67, 64
1, 89153, Note_on_c, 0, 67, 0
1, 89160, Note_on_c, 0, 65, 64
1, 89273, Note_on_c, 0, 65, 0
1, 89280, Note_on_c, 0, 67, 64
1, 89393, Note_on_c, 0, 67, 0
1, 89400, Note_on_c, 0, 65, 64
1, 89513, Note_on_c, 0, 65, 0
1, 89520, Note_on_c, 0, 67, 64
1, 89633, Note_on_c, 0, 67, 0
1, 89640, Note_on_c, 0, 65, 64
1, 89753, Note_on_c, 0, 65, 0
1, 89760, Note_on_c, 0, 67, 64
1, 89987, Note_on_c, 0, 67, 0
1, 90000, Note_on_c, 0, 65, 64
1, 90227, Note_on_c, 0, 65, 0
1, 90240, Note_on_c, 0, 63, 64
1, 90353, Note_on_c, 0, 63, 0
1, 90360, Note_on_c, 0, 70, 64
1, 90587, Note_on_c, 0, 70, 0
1, 90600, Note_on_c, 0, 65, 64
1, 90713, Note_on_c, 0, 65, 0
1, 90720, Note_on_c, 0, 65, 64
1, 90947, Note_on_c, 0, 65, 0
1, 90960, Note_on_c, 0, 63, 64
1, 91187, Note_on_c, 0, 63, 0
1, 91200, Note_on_c, 0, 63, 64
1, 91313, Note_on_c, 0, 63, 0
1, 91320, Note_on_c, 0, 70, 64
1, 91547, Note_on_c, 0, 70, 0
1, 91560, Note_on_c, 0, 65, 64
1, 91673, Note_on_c, 0, 65, 0
1, 91680, Note_on_c, 0, 65, 64
1, 91907, Note_on_c, 0, 65, 0
1, 91920, Note_on_c, 0, 63, 64
1, 92147, Note_on_c, 0, 63, 0
1, 92160, Note_on_c, 0, 67, 64
1, 92615, Note_on_c, 0, 67, 0
1, 92640, Note_on_c, 0, 63, 64
1, 93095, Note_on_c, 0, 63, 0
1, 93120, Note_on_c, 0, 68, 64
1, 93233, Note_on_c, 0, 68, 0
1, 93240, Note_on_c, 0, 67, 64
1, 93353, Note_on_c, 0, 67, 0
1, 93360, Note_on_c, 0, 65, 64
1, 93587, Note_on_c, 0, 65, 0
1, 93600, Note_on_c, 0, 65, 64
1, 94055, Note_on_c, 0, 65, 0
1, 94080, Note_on_c, 0, 63, 64
1, 94193, Note_on_c, 0, 63, 0
1, 94200, Note_on_c, 0, 67, 64
1, 94427, Note_on_c, 0, 67, 0
1, 94440, Note_on_c, 0, 63, 64
1, 94553, Note_on_c, 0, 63, 0
1, 94560, Note_on_c, 0, 65, 64
1, 94787, Note_on_c, 0, 65, 0
1, 94800, Note_on_c, 0, 63, 64
1, 94913, Note_on_c, 0, 63, 0
1, 94920, Note_on_c, 0, 65, 64
1, 95033, Note_on_c, 0, 65, 0
1, 95040, Note_on_c, 0, 63, 64
1, 95153, Note_on_c, 0, 63, 0
1, 95160, Note_on_c, 0, 67, 64
1, 95387, Note_on_c, 0, 67, 0
1, 95400, Note_on_c, 0, 63, 64
1, 95513, Note_on_c, 0, 63, 0
1, 95520, Note_on_c, 0, 65, 64
1, 95747, Note_on_c, 0, 65, 0
1, 95760, Note_on_c, 0, 63, 64
1, 95873, Note_on_c, 0, 63, 0
1, 95880, Note_on_c, 0, 65, 64
1, 97817, Note_on_c, 0, 65, 0
2, 0, Note_on_c, 0, 55, 64
2, 911, Note_on_c, 0, 55, 0
2, 960, Note_on_c, 0, 51, 64
2, 1871, Note_on_c, 0, 51, 0
2, 1920, Note_on_c, 0, 44, 64
2, 3287, Note_on_c, 0, 44, 0
2, 3360, Note_on_c, 0, 50, 64
2, 3815, Note_on_c, 0, 50, 0
2, 3840, Note_on_c, 0, 55, 64
2, 4751, Note_on_c, 0, 55, 0
2, 4800, Note_on_c, 0, 51, 64
2, 5711, Note_on_c, 0, 51, 0
2, 5760, Note_on_c, 0, 44, 64
2, 7127, Note_on_c, 0, 44, 0
2, 7200, Note_on_c, 0, 50, 64
2, 7655, Note_on_c, 0, 50, 0
2, 7680, Note_on_c, 0, 43, 64
2, 7680, Note_on_c, 0, 55, 64
2, 8591, Note_on_c, 0, 43, 0
2, 8591, Note_on_c, 0, 55, 0
2, 8640, Note_on_c, 0, 51, 64
2, 9551, Note_on_c, 0, 51, 0
2, 9600, Note_on_c, 0, 39, 64
2, 9600, Note_on_c, 0, 51, 64
2, 11423, Note_on_c, 0, 39, 0
2, 11423, Note_on_c, 0, 51, 0
2, 11520, Note_on_c, 0, 43, 64
2, 11520, Note_on_c, 0, 55, 64
2, 12431, Note_on_c, 0, 43, 0
2, 12431, Note_on_c, 0, 55, 0
2, 12480, Note_on_c, 0, 51, 64
2, 13391, Note_on_c, 0, 51, 0
2, 13440, Note_on_c, 0, 39, 64
2, 13440, Note_on_c, 0, 51, 64
2, 15263, Note_on_c, 0, 39, 0
2, 15263, Note_on_c, 0, 51, 0
2, 15360, Note_on_c, 0, 55, 64
2, 15815, Note_on_c, 0, 55, 0
2, 15840, Note_on_c, 0, 51, 64
2, 16295, Note_on_c, 0, 51, 0
2, 16320, Note_on_c, 0, 56, 64
2, 16433, Note_on_c, 0, 56, 0
2, 16440, Note_on_c, 0, 55, 64
2, 16553, Note_on_c, 0, 55, 0
2, 16560, Note_on_c, 0, 53, 64
2, 16787, Note_on_c, 0, 53, 0
2, 16800, Note_on_c, 0, 53, 64
2, 17255, Note_on_c, 0, 53, 0
2, 17280, Note_on_c, 0, 51, 64
2, 17393, Note_on_c, 0, 51, 0
2, 17400, Note_on_c, 0, 55, 64
2, 17627, Note_on_c, 0, 55, 0
2, 17640, Note_on_c, 0, 51, 64
2, 17753, Note_on_c, 0, 51, 0
2, 17760, Note_on_c, 0, 53, 64
2, 17987, Note_on_c, 0, 53, 0
2, 18000, Note_on_c, 0, 51, 64
2, 18113, Note_on_c, 0, 51, 0
2, 18120, Note_on_c, 0, 53, 64
2, 18233, Note_on_c, 0, 53, 0
2, 18240, Note_on_c, 0, 51, 64
2, 18353, Note_on_c, 0, 51, 0
2, 18360, Note_on_c, 0, 55, 64
2, 18587, Note_on_c, 0, 55, 0
2, 18600, Note_on_c, 0, 51, 64
2, 18713, Note_on_c, 0, 51, 0
2, 18720, Note_on_c, 0, 53, 64
2, 18947, Note_on_c, 0, 53, 0
2, 18960, Note_on_c, 0, 51, 64
2, 19073, Note_on_c, 0, 51, 0
2, 19080, Note_on_c, 0, 53, 64
2, 19193, Note_on_c, 0, 53, 0
2, 19200, Note_on_c, 0, 55, 64
2, 19655, Note_on_c, 0, 55, 0
2, 19680, Note_on_c, 0, 51, 64
2, 20135, Note_on_c, 0, 51, 0
2, 20160, Note_on_c, 0, 56, 64
2, 20273, Note_on_c, 0, 56, 0
2, 20280, Note_on_c, 0, 55, 64
2, 20393, Note_on_c, 0, 55, 0
2, 20400, Note_on_c, 0, 53, 64
2, 20627, Note_on_c, 0, 53, 0
2, 20640, Note_on_c, 0, 53, 64
2, 21095, Note_on_c, 0, 53, 0
2, 21120, Note_on_c, 0, 51, 64
2, 21233, Note_on_c, 0, 51, 0
2, 21240, Note_on_c, 0, 55, 64
2, 21467, Note_on_c, 0, 55, 0
2, 21480, Note_on_c, 0, 51, 64
2, 21593, Note_on_c, 0, 51, 0
2, 21600, Note_on_c, 0, 53, 64
2, 21827, Note_on_c, 0, 53, 0
2, 21840, Note_on_c, 0, 51, 64
2, 21953, Note_on_c, 0, 51, 0
2, 21960, Note_on_c, 0, 53, 64
2, 22073, Note_on_c, 0, 53, 0
2, 22080, Note_on_c, 0, 51, 64
2, 22193, Note_on_c, 0, 51, 0
2, 22200, Note_on_c, 0, 55, 64
2, 22427, Note_on_c, 0, 55, 0
2, 22440, Note_on_c, 0, 51, 64
2, 22553, Note_on_c, 0, 51, 0
2, 22560, Note_on_c, 0, 53, 64
2, 22787, Note_on_c, 0, 53, 0
2, 22800, Note_on_c, 0, 51, 64
2, 22913, Note_on_c, 0, 51, 0
2, 22920, Note_on_c, 0, 53, 64
2, 23033, Note_on_c, 0, 53, 0
2, 23040, Note_on_c, 0, 55, 64
2, 23495, Note_on_c, 0, 55, 0
2, 23520, Note_on_c, 0, 51, 64
2, 23975, Note_on_c, 0, 51, 0
2, 24000, Note_on_c, 0, 56, 64
2, 24113, Note_on_c, 0, 56, 0
2, 24120, Note_on_c, 0, 55, 64
2, 24233, Note_on_c, 0, 55, 0
2, 24240, Note_on_c, 0, 53, 64
2, 24467, Note_on_c, 0, 53, 0
2, 24480, Note_on_c, 0, 53, 64
2, 24935, Note_on_c, 0, 53, 0
2, 24960, Note_on_c, 0, 51, 64
2, 25073, Note_on_c, 0, 51, 0
2, 25080, Note_on_c, 0, 55, 64
2, 25307, Note_on_c, 0, 55, 0
2, 25320, Note_on_c, 0, 51, 64
2, 25433, Note_on_c, 0, 51, 0
2, 25440, Note_on_c, 0, 53, 64
2, 25667, Note_on_c, 0, 53, 0
2, 25680, Note_on_c, 0, 51, 64
2, 25793, Note_on_c, 0, 51, 0
2, 25800, Note_on_c, 0, 53, 64
2, 25913, Note_on_c, 0, 53, 0
2, 25920, Note_on_c, 0, 51, 64
2, 26033, Note_on_c, 0, 51, 0
2, 26040, Note_on_c, 0, 55, 64
2, 26267, Note_on_c, 0, 55, 0
2, 26280, Note_on_c, 0, 51, 64
2, 26393, Note_on_c, 0, 51, 0
2, 26400, Note_on_c, 0, 53, 64
2, 26627, Note_on_c, 0, 53, 0
2, 26640, Note_on_c, 0, 51, 64
2, 26753, Note_on_c, 0, 51, 0
2, 26760, Note_on_c, 0, 53, 64
2, 26873, Note_on_c, 0, 53, 0
2, 26880, Note_on_c, 0, 55, 64
2, 27335, Note_on_c, 0, 55, 0
2, 27360, Note_on_c, 0, 51, 64
2, 27815, Note_on_c, 0, 51, 0
2, 27840, Note_on_c, 0, 56, 64
2, 27953, Note_on_c, 0, 56, 0
2, 27960, Note_on_c, 0, 55, 64
2, 28073, Note_on_c, 0, 55, 0
2, 28080, Note_on_c, 0, 53, 64
2, 28307, Note_on_c, 0, 53, 0
2, 28320, Note_on_c, 0, 53, 64
2, 28775, Note_on_c, 0, 53, 0
2, 28800, Note_on_c, 0, 51, 64
2, 28913, Note_on_c, 0, 51, 0
2, 28920, Note_on_c, 0, 55, 64
2, 29147, Note_on_c, 0, 55, 0
2, 29160, Note_on_c, 0, 51, 64
2, 29273, Note_on_c, 0, 51, 0
2, 29280, Note_on_c, 0, 53, 64
2, 29507, Note_on_c, 0, 53, 0
2, 29520, Note_on_c, 0, 51, 64
2, 29633, Note_on_c, 0, 51, 0
2, 29640, Note_on_c, 0, 53, 64
2, 29753, Note_on_c, 0, 53, 0
2, 29760, Note_on_c, 0, 51, 64
2, 29873, Note_on_c, 0, 51, 0
2, 29880, Note_on_c, 0, 55, 64
2, 30107, Note_on_c, 0, 55, 0
2, 30120, Note_on_c, 0, 51, 64
2, 30233, Note_on_c, 0, 51, 0
2, 30240, Note_on_c, 0, 53, 64
2, 30467, Note_on_c, 0, 53, 0
2, 30480, Note_on_c, 0, 51, 64
2, 30593, Note_on_c, 0, 51, 0
2, 30600, Note_on_c, 0, 53, 64
2, 30713, Note_on_c, 0, 53, 0
2, 30720, Note_on_c, 0, 43, 64
2, 30720, Note_on_c, 0, 55, 64
2, 31631, Note_on_c, 0, 43, 0
2, 31631, Note_on_c, 0, 55, 0
2, 31680, Note_on_c, 0, 51, 64
2, 32591, Note_on_c, 0, 51, 0
2, 32640, Note_on_c, 0, 39, 64
2, 32640, Note_on_c, 0, 51, 64
2, 34463, Note_on_c, 0, 39, 0
2, 34463, Note_on_c, 0, 51, 0
2, 34560, Note_on_c, 0, 43, 64
2, 34560, Note_on_c, 0, 55, 64
2, 35471, Note_on_c, 0, 43, 0
2, 35471, Note_on_c, 0, 55, 0
2, 35520, Note_on_c, 0, 51, 64
2, 36431, Note_on_c, 0, 51, 0
2, 36480, Note_on_c, 0, 39, 64
2, 36480, Note_on_c, 0, 51, 64
2, 38303, Note_on_c, 0, 39, 0
2, 38303, Note_on_c, 0, 51, 0
2, 38400, Note_on_c, 0, 55, 64
2, 38855, Note_on_c, 0, 55, 0
2, 38880, Note_on_c, 0, 51, 64
2, 39335, Note_on_c, 0, 51, 0
2, 39360, Note_on_c, 0, 56, 64
2, 39473, Note_on_c, 0, 56, 0
2, 39480, Note_on_c, 0, 55, 64
2, 39593, Note_on_c, 0, 55, 0
2, 39600, Note_on_c, 0, 53, 64
2, 39827, Note_on_c, 0, 53, 0
2, 39840, Note_on_c, 0, 53, 64
2, 40295, Note_on_c, 0, 53, 0
2, 40320, Note_on_c, 0, 51, 64
2, 40433, Note_on_c, 0, 51, 0
2, 40440, Note_on_c, 0, 55, 64
2, 40667, Note_on_c, 0, 55, 0
2, 40680, Note_on_c, 0, 51, 64
2, 40793, Note_on_c, 0, 51, 0
2, 40800, Note_on_c, 0, 53, 64
2, 41027, Note_on_c, 0, 53, 0
2, 41040, Note_on_c, 0, 51, 64
2, 41153, Note_on_c, 0, 51, 0
2, 41160, Note_on_c, 0, 53, 64
2, 41273, Note_on_c, 0, 53, 0
2, 41280, Note_on_c, 0, 51, 64
2, 41393, Note_on_c, 0, 51, 0
2, 41400, Note_on_c, 0, 55, 64
2, 41627, Note_on_c, 0, 55, 0
2, 41640, Note_on_c, 0, 51, 64
2, 41753, Note_on_c, 0, 51, 0
2, 41760, Note_on_c, 0, 53, 64
2, 41987, Note_on_c, 0, 53, 0
2, 42000, Note_on_c, 0, 51, 64
2, 42113, Note_on_c, 0, 51, 0
2, 42120, Note_on_c, 0, 53, 64
2, 42233, Note_on_c, 0, 53, 0
2, 42240, Note_on_c, 0, 55, 64
2, 42695, Note_on_c, 0, 55, 0
2, 42720, Note_on_c, 0, 51, 64
2, 43175, Note_on_c, 0, 51, 0
2, 43200, Note_on_c, 0, 56, 64
2, 43313, Note_on_c, 0, 56, 0
2, 43320, Note_on_c, 0, 55, 64
2, 43433, Note_on_c, 0, 55, 0
2, 43440, Note_on_c, 0, 53, 64
2, 43667, Note_on_c, 0, 53, 0
2, 43680, Note_on_c, 0, 53, 64
2, 44135, Note_on_c, 0, 53, 0
2, 44160, Note_on_c, 0, 51, 64
2, 44273, Note_on_c, 0, 51, 0
2, 44280, Note_on_c, 0, 55, 64
2, 44507, Note_on_c, 0, 55, 0
2, 44520, Note_on_c, 0, 51, 64
2, 44633, Note_on_c, 0, 51, 0
2, 44640, Note_on_c, 0, 53, 64
2, 44867, Note_on_c, 0, 53, 0
2, 44880, Note_on_c, 0, 51, 64
2, 44993, Note_on_c, 0, 51, 0
2, 45000, Note_on_c, 0, 53, 64
2, 45113, Note_on_c, 0, 53, 0
2, 45120, Note_on_c, 0, 51, 64
2, 45233, Note_on_c, 0, 51, 0
2, 45240, Note_on_c, 0, 55, 64
2, 45467, Note_on_c, 0, 55, 0
2, 45480, Note_on_c, 0, 51, 64
2, 45593, Note_on_c, 0, 51, 0
2, 45600, Note_on_c, 0, 53, 64
2, 45827, Note_on_c, 0, 53, 0
2, 45840, Note_on_c, 0, 51, 64
2, 45953, Note_on_c, 0, 51, 0
2, 45960, Note_on_c, 0, 53, 64
2, 46073, Note_on_c, 0, 53, 0
2, 46080, Note_on_c, 0, 55, 64
2, 46535, Note_on_c, 0, 55, 0
2, 46560, Note_on_c, 0, 51, 64
2, 47015, Note_on_c, 0, 51, 0
2, 47040, Note_on_c, 0, 56, 64
2, 47153, Note_on_c, 0, 56, 0
2, 47160, Note_on_c, 0, 55, 64
2, 47273, Note_on_c, 0, 55, 0
2, 47280, Note_on_c, 0, 53, 64
2, 47507, Note_on_c, 0, 53, 0
2, 47520, Note_on_c, 0, 53, 64
2, 47975, Note_on_c, 0, 53, 0
2, 48000, Note_on_c, 0, 51, 64
2, 48113, Note_on_c, 0, 51, 0
2, 48120, Note_on_c, 0, 55, 64
2, 48347, Note_on_c, 0, 55, 0
2, 48360, Note_on_c, 0, 51, 64
2, 48473, Note_on_c, 0, 51, 0
2, 48480, Note_on_c, 0, 53, 64
2, 48707, Note_on_c, 0, 53, 0
2, 48720, Note_on_c, 0, 51, 64
2, 48833, Note_on_c, 0, 51, 0
2, 48840, Note_on_c, 0, 53, 64
2, 48953, Note_on_c, 0, 53, 0
2, 48960, Note_on_c, 0, 51, 64
2, 49073, Note_on_c, 0, 51, 0
2, 49080, Note_on_c, 0, 55, 64
2, 49307, Note_on_c, 0, 55, 0
2, 49320, Note_on_c, 0, 51, 64
2, 49433, Note_on_c, 0, 51, 0
2, 49440, Note_on_c, 0, 53, 64
2, 49667, Note_on_c, 0, 53, 0
2, 49680, Note_on_c, 0, 51, 64
2, 49793, Note_on_c, 0, 51, 0
2, 49800, Note_on_c, 0, 53, 64
2, 49913, Note_on_c, 0, 53, 0
2, 49920, Note_on_c, 0, 55, 64
2, 50375, Note_on_c, 0, 55, 0
2, 50400, Note_on_c, 0, 51, 64
2, 50855, Note_on_c, 0, 51, 0
2, 50880, Note_on_c, 0, 56, 64
2, 50993, Note_on_c, 0, 56, 0
2, 51000, Note_on_c, 0, 55, 64
2, 51113, Note_on_c, 0, 55, 0
2, 51120, Note_on_c, 0, 53, 64
2, 51347, Note_on_c, 0, 53, 0
2, 51360, Note_on_c, 0, 53, 64
2, 51815, Note_on_c, 0, 53, 0
2, 51840, Note_on_c, 0, 51, 64
2, 51953, Note_on_c, 0, 51, 0
2, 51960, Note_on_c, 0, 55, 64
2, 52187, Note_on_c, 0, 55, 0
2, 52200, Note_on_c, 0, 51, 64
2, 52313, Note_on_c, 0, 51, 0
2, 52320, Note_on_c, 0, 53, 64
2, 52547, Note_on_c, 0, 53, 0
2, 52560, Note_on_c, 0, 51, 64
2, 52673, Note_on_c, 0, 51, 0
2, 52680, Note_on_c, 0, 53, 64
2, 52793, Note_on_c, 0, 53, 0
2, 52800, Note_on_c, 0, 51, 64
2, 52913, Note_on_c, 0, 51, 0
2, 52920, Note_on_c, 0, 55, 64
2, 53147, Note_on_c, 0, 55, 0
2, 53160, Note_on_c, 0, 51, 64
2, 53273, Note_on_c, 0, 51, 0
2, 53280, Note_on_c, 0, 53, 64
2, 53507, Note_on_c, 0, 53, 0
2, 53520, Note_on_c, 0, 51, 64
2, 53633, Note_on_c, 0, 51, 0
2, 53640, Note_on_c, 0, 53, 64
2, 53753, Note_on_c, 0, 53, 0
2, 53760, Note_on_c, 0, 55, 64
2, 54215, Note_on_c, 0, 55, 0
2, 54240, Note_on_c, 0, 51, 64
2, 54695, Note_on_c, 0, 51, 0
2, 54720, Note_on_c, 0, 56, 64
2, 54833, Note_on_c, 0, 56, 0
2, 54840, Note_on_c, 0, 55, 64
2, 54953, Note_on_c, 0, 55, 0
2, 54960, Note_on_c, 0, 53, 64
2, 55187, Note_on_c, 0, 53, 0
2, 55200, Note_on_c, 0, 53, 64
2, 55655, Note_on_c, 0, 53, 0
2, 55680, Note_on_c, 0, 51, 64
2, 55793, Note_on_c, 0, 51, 0
2, 55800, Note_on_c, 0, 55, 64
2, 56027, Note_on_c, 0, 55, 0
2, 56040, Note_on_c, 0, 51, 64
2, 56153, Note_on_c, 0, 51, 0
2, 56160, Note_on_c, 0, 53, 64
2, 56387, Note_on_c, 0, 53, 0
2, 56400, Note_on_c, 0, 51, 64
2, 56513, Note_on_c, 0, 51, 0
2, 56520, Note_on_c, 0, 53, 64
2, 56633, Note_on_c, 0, 53, 0
2, 56640, Note_on_c, 0, 51, 64
2, 56753, Note_on_c, 0, 51, 0
2, 56760, Note_on_c, 0, 55, 64
2, 56987, Note_on_c, 0, 55, 0
2, 57000, Note_on_c, 0, 51, 64
2, 57113, Note_on_c, 0, 51, 0
2, 57120, Note_on_c, 0, 53, 64
2, 57347, Note_on_c, 0, 53, 0
2, 57360, Note_on_c, 0, 51, 64
2, 57473, Note_on_c, 0, 51, 0
2, 57480, Note_on_c, 0, 53, 64
2, 57593, Note_on_c, 0, 53, 0
2, 57600, Note_on_c, 0, 55, 64
2, 58055, Note_on_c, 0, 55, 0
2, 58080, Note_on_c, 0, 51, 64
2, 58535, Note_on_c, 0, 51, 0
2, 58560, Note_on_c, 0, 56, 64
2, 58673, Note_on_c, 0, 56, 0
2, 58680, Note_on_c, 0, 55, 64
2, 58793, Note_on_c, 0, 55, 0
2, 58800, Note_on_c, 0, 53, 64
2, 59027, Note_on_c, 0, 53, 0
2, 59040, Note_on_c, 0, 53, 64
2, 59495, Note_on_c, 0, 53, 0
2, 59520, Note_on_c, 0, 51, 64
2, 59633, Note_on_c, 0, 51, 0
2, 59640, Note_on_c, 0, 55, 64
2, 59867, Note_on_c, 0, 55, 0
2, 59880, Note_on_c, 0, 51, 64
2, 59993, Note_on_c, 0, 51, 0
2, 60000, Note_on_c, 0, 53, 64
2, 60227, Note_on_c, 0, 53, 0
2, 60240, Note_on_c, 0, 51, 64
2, 60353, Note_on_c, 0, 51, 0
2, 60360, Note_on_c, 0, 53, 64
2, 60473, Note_on_c, 0, 53, 0
2, 60480, Note_on_c, 0, 51, 64
2, 60593, Note_on_c, 0, 51, 0
2, 60600, Note_on_c, 0, 55, 64
2, 60827, Note_on_c, 0, 55, 0
2, 60840, Note_on_c, 0, 51, 64
2, 60953, Note_on_c, 0, 51, 0
2, 60960, Note_on_c, 0, 53, 64
2, 61187, Note_on_c, 0, 53, 0
2, 61200, Note_on_c, 0, 51, 64
2, 61313, Note_on_c, 0, 51, 0
2, 61320, Note_on_c, 0, 53, 64
2, 61433, Note_on_c, 0, 53, 0
2, 61440, Note_on_c, 0, 55, 49
2, 62351, Note_on_c, 0, 55, 0
2, 62400, Note_on_c, 0, 51, 49
2, 63311, Note_on_c, 0, 51, 0
2, 63360, Note_on_c, 0, 44, 49
2, 64727, Note_on_c, 0, 44, 0
2, 64800, Note_on_c, 0, 50, 49
2, 65255, Note_on_c, 0, 50, 0
2, 65280, Note_on_c, 0, 55, 49
2, 66191, Note_on_c, 0, 55, 0
2, 66240, Note_on_c, 0, 51, 49
2, 67151, Note_on_c, 0, 51, 0
2, 67200, Note_on_c, 0, 44, 49
2, 68567, Note_on_c, 0, 44, 0
2, 68640, Note_on_c, 0, 50, 49
2, 69095, Note_on_c, 0, 50, 0
2, 69120, Note_on_c, 0, 48, 49
2, 69183, Note_on_c, 0, 51, 49
2, 69247, Note_on_c, 0, 55, 49
2, 70078, Note_on_c, 0, 51, 0
2, 70078, Note_on_c, 0, 55, 0
2, 70079, Note_on_c, 0, 48, 0
2, 70080, Note_on_c, 0, 51, 49
2, 70143, Note_on_c, 0, 55, 49
2, 70207, Note_on_c, 0, 58, 49
2, 71038, Note_on_c, 0, 55, 0
2, 71038, Note_on_c, 0, 58, 0
2, 71039, Note_on_c, 0, 51, 0
2, 71040, Note_on_c, 0, 56, 49
2, 71103, Note_on_c, 0, 55, 49
2, 71166, Note_on_c, 0, 53, 49
2, 72478, Note_on_c, 0, 53, 0
2, 72478, Note_on_c, 0, 55, 0
2, 72479, Note_on_c, 0, 56, 0
2, 72480, Note_on_c, 0, 50, 49
2, 72935, Note_on_c, 0, 50, 0
2, 72960, Note_on_c, 0, 48, 49
2, 73023, Note_on_c, 0, 51, 49
2, 73087, Note_on_c, 0, 55, 49
2, 73918, Note_on_c, 0, 51, 0
2, 73918, Note_on_c, 0, 55, 0
2, 73919, Note_on_c, 0, 48, 0
2, 73920, Note_on_c, 0, 51, 49
2, 73983, Note_on_c, 0, 55, 49
2, 74047, Note_on_c, 0, 58, 49
2, 74878, Note_on_c, 0, 55, 0
2, 74878, Note_on_c, 0, 58, 0
2, 74879, Note_on_c, 0, 51, 0
2, 74880, Note_on_c, 0, 60, 49
2, 74943, Note_on_c, 0, 55, 49
2, 75006, Note_on_c, 0, 53, 49
2, 76318, Note_on_c, 0, 53, 0
2, 76318, Note_on_c, 0, 55, 0
2, 76319, Note_on_c, 0, 60, 0
2, 76320, Note_on_c, 0, 50, 49
2, 76775, Note_on_c, 0, 50, 0
2, 76800, Note_on_c, 0, 55, 64
2, 77255, Note_on_c, 0, 55, 0
2, 77280, Note_on_c, 0, 51, 64
2, 77735, Note_on_c, 0, 51, 0
2, 77760, Note_on_c, 0, 56, 64
2, 77873, Note_on_c, 0, 56, 0
2, 77880, Note_on_c, 0, 55, 64
2, 77993, Note_on_c, 0, 55, 0
2, 78000, Note_on_c, 0, 53, 64
2, 78227, Note_on_c, 0, 53, 0
2, 78240, Note_on_c, 0, 53, 64
2, 78695, Note_on_c, 0, 53, 0
2, 78720, Note_on_c, 0, 51, 64
2, 78833, Note_on_c, 0, 51, 0
2, 78840, Note_on_c, 0, 55, 64
2, 79067, Note_on_c, 0, 55, 0
2, 79080, Note_on_c, 0, 51, 64
2, 79193, Note_on_c, 0, 51, 0
2, 79200, Note_on_c, 0, 53, 64
2, 79427, Note_on_c, 0, 53, 0
2, 79440, Note_on_c, 0, 51, 64
2, 79553, Note_on_c, 0, 51, 0
2, 79560, Note_on_c, 0, 53, 64
2, 79673, Note_on_c, 0, 53, 0
2, 79680, Note_on_c, 0, 51, 64
2, 79793, Note_on_c, 0, 51, 0
2, 79800, Note_on_c, 0, 55, 64
2, 80027, Note_on_c, 0, 55, 0
2, 80040, Note_on_c, 0, 51, 64
2, 80153, Note_on_c, 0, 51, 0
2, 80160, Note_on_c, 0, 53, 64
2, 80387, Note_on_c, 0, 53, 0
2, 80400, Note_on_c, 0, 51, 64
2, 80513, Note_on_c, 0, 51, 0
2, 80520, Note_on_c, 0, 53, 64
2, 80633, Note_on_c, 0, 53, 0
2, 80640, Note_on_c, 0, 55, 64
2, 81095, Note_on_c, 0, 55, 0
2, 81120, Note_on_c, 0, 51, 64
2, 81575, Note_on_c, 0, 51, 0
2, 81600, Note_on_c, 0, 56, 64
2, 81713, Note_on_c, 0, 56, 0
2, 81720, Note_on_c, 0, 55, 64
2, 81833, Note_on_c, 0, 55, 0
2, 81840, Note_on_c, 0, 53, 64
2, 82067, Note_on_c, 0, 53, 0
2, 82080, Note_on_c, 0, 53, 64
2, 82535, Note_on_c, 0, 53, 0
2, 82560, Note_on_c, 0, 51, 64
2, 82673, Note_on_c, 0, 51, 0
2, 82680, Note_on_c, 0, 55, 64
2, 82907, Note_on_c, 0, 55, 0
2, 82920, Note_on_c, 0, 51, 64
2, 83033, Note_on_c, 0, 51, 0
2, 83040, Note_on_c, 0, 53, 64
2, 83267, Note_on_c, 0, 53, 0
2, 83280, Note_on_c, 0, 51, 64
2, 83393, Note_on_c, 0, 51, 0
2, 83400, Note_on_c, 0, 53, 64
2, 83513, Note_on_c, 0, 53, 0
2, 83520, Note_on_c, 0, 51, 64
2, 83633, Note_on_c, 0, 51, 0
2, 83640, Note_on_c, 0, 55, 64
2, 83867, Note_on_c, 0, 55, 0
2, 83880, Note_on_c, 0, 51, 64
2, 83993, Note_on_c, 0, 51, 0
2, 84000, Note_on_c, 0, 53, 64
2, 84227, Note_on_c, 0, 53, 0
2, 84240, Note_on_c, 0, 51, 64
2, 84353, Note_on_c, 0, 51, 0
2, 84360, Note_on_c, 0, 53, 64
2, 84473, Note_on_c, 0, 53, 0
2, 84480, Note_on_c, 0, 55, 64
2, 84935, Note_on_c, 0, 55, 0
2, 84960, Note_on_c, 0, 51, 64
2, 85415, Note_on_c, 0, 51, 0
2, 85440, Note_on_c, 0, 56, 64
2, 85553, Note_on_c, 0, 56, 0
2, 85560, Note_on_c, 0, 55, 64
2, 85673, Note_on_c, 0, 55, 0
2, 85680, Note_on_c, 0, 53, 64
2, 85907, Note_on_c, 0, 53, 0
2, 85920, Note_on_c, 0, 53, 64
2, 86375, Note_on_c, 0, 53, 0
2, 86400, Note_on_c, 0, 51, 64
2, 86513, Note_on_c, 0, 51, 0
2, 86520, Note_on_c, 0, 55, 64
2, 86747, Note_on_c, 0, 55, 0
2, 86760, Note_on_c, 0, 51, 64
2, 86873, Note_on_c, 0, 51, 0
2, 86880, Note_on_c, 0, 53, 64
2, 87107, Note_on_c, 0, 53, 0
2, 87120, Note_on_c, 0, 51, 64
2, 87233, Note_on_c, 0, 51, 0
2, 87240, Note_on_c, 0, 53, 64
2, 87353, Note_on_c, 0, 53, 0
2, 87360, Note_on_c, 0, 51, 64
2, 87473, Note_on_c, 0, 51, 0
2, 87480, Note_on_c, 0, 55, 64
2, 87707, Note_on_c, 0, 55, 0
2, 87720, Note_on_c, 0, 51, 64
2, 87833, Note_on_c, 0, 51, 0
2, 87840, Note_on_c, 0, 53, 64
2, 88067, Note_on_c, 0, 53, 0
2, 88080, Note_on_c, 0, 51, 64
2, 88193, Note_on_c, 0, 51, 0
2, 88200, Note_on_c, 0, 53, 64
2, 88313, Note_on_c, 0, 53, 0
2, 88320, Note_on_c, 0, 55, 64
2, 88775, Note_on_c, 0, 55, 0
2, 88800, Note_on_c, 0, 51, 64
2, 89255, Note_on_c, 0, 51, 0
2, 89280, Note_on_c, 0, 56, 64
2, 89393, Note_on_c, 0, 56, 0
2, 89400, Note_on_c, 0, 55, 64
2, 89513, Note_on_c, 0, 55, 0
2, 89520, Note_on_c, 0, 53, 64
2, 89747, Note_on_c, 0, 53, 0
2, 89760, Note_on_c, 0, 53, 64
2, 90215, Note_on_c, 0, 53, 0
2, 90240, Note_on_c, 0, 51, 64
2, 90353, Note_on_c, 0, 51, 0
2, 90360, Note_on_c, 0, 55, 64
2, 90587, Note_on_c, 0, 55, 0
2, 90600, Note_on_c, 0, 51, 64
2, 90713, Note_on_c, 0, 51, 0
2, 90720, Note_on_c, 0, 53, 64
2, 90947, Note_on_c, 0, 53, 0
2, 90960, Note_on_c, 0, 51, 64
2, 91073, Note_on_c, 0, 51, 0
2, 91080, Note_on_c, 0, 53, 64
2, 91193, Note_on_c, 0, 53, 0
2, 91200, Note_on_c, 0, 51, 64
2, 91313, Note_on_c, 0, 51, 0
2, 91320, Note_on_c, 0, 55, 64
2, 91547, Note_on_c, 0, 55, 0
2, 91560, Note_on_c, 0, 51, 64
2, 91673, Note_on_c, 0, 51, 0
2, 91680, Note_on_c, 0, 53, 64
2, 91907, Note_on_c, 0, 53, 0
2, 91920, Note_on_c, 0, 51, 64
2, 92033, Note_on_c, 0, 51, 0
2, 92040, Note_on_c, 0, 53, 64
2, 92153, Note_on_c, 0, 53, 0
2, 92160, Note_on_c, 0, 48, 64
2, 92223, Note_on_c, 0, 51, 64
2, 92287, Note_on_c, 0, 55, 64
2, 93118, Note_on_c, 0, 51, 0
2, 93118, Note_on_c, 0, 55, 0
2, 93119, Note_on_c, 0, 48, 0
2, 93120, Note_on_c, 0, 51, 64
2, 93183, Note_on_c, 0, 55, 64
2, 93247, Note_on_c, 0, 58, 64
2, 94078, Note_on_c, 0, 55, 0
2, 94078, Note_on_c, 0, 58, 0
2, 94079, Note_on_c, 0, 51, 0
2, 94080, Note_on_c, 0, 51, 64
2, 94110, Note_on_c, 0, 48, 64
2, 94143, Note_on_c, 0, 44, 64
2, 97822, Note_on_c, 0, 44, 0
2, 97822, Note_on_c, 0, 48, 0
2, 97823, Note_on_c, 0, 51, 0
1, 240, Note_on_c, 0, 71, 64
1, 240, Note_on_c, 0, 82, 64
1, 467, Note_on_c, 0, 71, 0
1, 467, Note_on_c, 0, 82, 0
1, 480, Note_on_c, 0, 71, 64
1, 480, Note_on_c, 0, 80, 64
1, 707, Note_on_c, 0, 71, 0
1, 707, Note_on_c, 0, 80, 0
1, 720, Note_on_c, 0, 78, 64
1, 947, Note_on_c, 0, 78, 0
1, 960, Note_on_c, 0, 70, 64
1, 960, Note_on_c, 0, 77, 64
1, 1187, Note_on_c, 0, 70, 0
1, 1187, Note_on_c, 0, 77, 0
1, 1200, Note_on_c, 0, 73, 64
1, 1427, Note_on_c, 0, 73, 0
1, 1440, Note_on_c, 0, 70, 64
1, 1667, Note_on_c, 0, 70, 0
1, 1680, Note_on_c, 0, 70, 64
1, 1680, Note_on_c, 0, 75, 64
1, 2819, Note_on_c, 0, 70, 0
1, 2819, Note_on_c, 0, 75, 0
1, 2880, Note_on_c, 0, 70, 64
1, 2920, Note_on_c, 0, 70, 0
1, 2921, Note_on_c, 0, 73, 64
1, 3019, Note_on_c, 0, 73, 0
1, 3120, Note_on_c, 0, 75, 64
1, 3239, Note_on_c, 0, 75, 0
1, 3360, Note_on_c, 0, 78, 64
1, 3479, Note_on_c, 0, 78, 0
1, 3600, Note_on_c, 0, 85, 64
1, 3719, Note_on_c, 0, 85, 0
1, 3840, Note_on_c, 0, 71, 64
1, 3840, Note_on_c, 0, 75, 64
1, 3840, Note_on_c, 0, 82, 64
1, 4751, Note_on_c, 0, 71, 0
1, 4751, Note_on_c, 0, 75, 0
1, 4751, Note_on_c, 0, 82, 0
1, 4800, Note_on_c, 0, 70, 64
1, 4800, Note_on_c, 0, 77, 64
1, 5027, Note_on_c, 0, 70, 0
1, 5027, Note_on_c, 0, 77, 0
1, 5040, Note_on_c, 0, 78, 64
1, 5267, Note_on_c, 0, 78, 0
1, 5280, Note_on_c, 0, 80, 64
1, 5507, Note_on_c, 0, 80, 0
1, 5520, Note_on_c, 0, 78, 64
1, 6480, Note_on_c, 0, 70, 64
1, 6480, Note_on_c, 0, 82, 64
1, 6707, Note_on_c, 0, 70, 0
1, 6707, Note_on_c, 0, 82, 0
1, 6720, Note_on_c, 0, 75, 64
1, 6720, Note_on_c, 0, 87, 64
1, 6839, Note_on_c, 0, 75, 0
1, 6839, Note_on_c, 0, 87, 0
1, 6960, Note_on_c, 0, 77, 64
1, 6960, Note_on_c, 0, 89, 64
1, 7079, Note_on_c, 0, 77, 0
1, 7079, Note_on_c, 0, 89, 0
1, 7200, Note_on_c, 0, 78, 64
1, 7200, Note_on_c, 0, 90, 64
1, 7319, Note_on_c, 0, 78, 0
1, 7319, Note_on_c, 0, 90, 0
1, 7440, Note_on_c, 0, 82, 76
1, 7440, Note_on_c, 0, 94, 76
1, 7571, Note_on_c, 0, 78, 0
1, 7679, Note_on_c, 0, 82, 0
1, 7679, Note_on_c, 0, 94, 0
1, 7920, Note_on_c, 0, 71, 64
1, 7983, Note_on_c, 0, 75, 64
1, 8047, Note_on_c, 0, 82, 64
1, 8158, Note_on_c, 0, 75, 0
1, 8158, Note_on_c, 0, 82, 0
1, 8159, Note_on_c, 0, 71, 0
1, 8160, Note_on_c, 0, 80, 64
1, 8387, Note_on_c, 0, 80, 0
1, 8400, Note_on_c, 0, 78, 64
1, 8627, Note_on_c, 0, 78, 0
1, 8640, Note_on_c, 0, 70, 64
1, 8640, Note_on_c, 0, 77, 64
1, 8867, Note_on_c, 0, 70, 0
1, 8867, Note_on_c, 0, 77, 0
1, 8880, Note_on_c, 0, 73, 64
1, 9107, Note_on_c, 0, 73, 0
1, 9120, Note_on_c, 0, 70, 64
1, 9347, Note_on_c, 0, 70, 0
1, 9360, Note_on_c, 0, 70, 64
1, 9360, Note_on_c, 0, 75, 64
1, 10499, Note_on_c, 0, 70, 0
1, 10499, Note_on_c, 0, 75, 0
1, 10560, Note_on_c, 0, 70, 64
1, 10600, Note_on_c, 0, 70, 0
1, 10601, Note_on_c, 0, 73, 64
1, 10699, Note_on_c, 0, 73, 0
1, 10800, Note_on_c, 0, 75, 64
1, 10919, Note_on_c, 0, 75, 0
1, 11040, Note_on_c, 0, 78, 64
1, 11159, Note_on_c, 0, 78, 0
1, 11280, Note_on_c, 0, 85, 64
1, 11399, Note_on_c, 0, 85, 0
1, 11520, Note_on_c, 0, 71, 64
1, 11570, Note_on_c, 0, 75, 64
1, 11621, Note_on_c, 0, 82, 64
1, 12706, Note_on_c, 0, 75, 0
1, 12706, Note_on_c, 0, 82, 0
1, 12707, Note_on_c, 0, 71, 0
1, 12720, Note_on_c, 0, 80, 64
1, 12947, Note_on_c, 0, 80, 0
1, 12960, Note_on_c, 0, 78, 64
1, 13187, Note_on_c, 0, 78, 0
1, 13200, Note_on_c, 0, 75, 64
1, 15251, Note_on_c, 0, 75, 0
1, 15360, Note_on_c, 0, 71, 64
1, 15423, Note_on_c, 0, 75, 64
1, 15487, Note_on_c, 0, 82, 64
1, 15598, Note_on_c, 0, 75, 0
1, 15598, Note_on_c, 0, 82, 0
1, 15599, Note_on_c, 0, 71, 0
1, 15600, Note_on_c, 0, 80, 64
1, 16283, Note_on_c, 0, 80, 0
1, 17040, Note_on_c, 0, 78, 64
1, 17267, Note_on_c, 0, 78, 0
1, 17280, Note_on_c, 0, 75, 64
1, 17280, Note_on_c, 0, 82, 64
1, 17507, Note_on_c, 0, 75, 0
1, 17507, Note_on_c, 0, 82, 0
1, 17520, Note_on_c, 0, 83, 64
1, 17747, Note_on_c, 0, 83, 0
1, 17760, Note_on_c, 0, 82, 64
1, 17987, Note_on_c, 0, 82, 0
1, 18000, Note_on_c, 0, 80, 64
1, 18227, Note_on_c, 0, 80, 0
1, 18240, Note_on_c, 0, 80, 64
1, 18467, Note_on_c, 0, 80, 0
1, 18480, Note_on_c, 0, 78, 64
1, 18707, Note_on_c, 0, 78, 0
1, 18720, Note_on_c, 0, 78, 64
1, 19175, Note_on_c, 0, 78, 0
1, 19200, Note_on_c, 0, 71, 64
1, 19263, Note_on_c, 0, 75, 64
1, 19327, Note_on_c, 0, 82, 64
1, 19438, Note_on_c, 0, 75, 0
1, 19438, Note_on_c, 0, 82, 0
1, 19439, Note_on_c, 0, 71, 0
1, 19440, Note_on_c, 0, 80, 64
1, 20123, Note_on_c, 0, 80, 0
1, 20880, Note_on_c, 0, 78, 64
1, 21107, Note_on_c, 0, 78, 0
1, 21120, Note_on_c, 0, 75, 64
1, 21120, Note_on_c, 0, 82, 64
1, 21347, Note_on_c, 0, 75, 0
1, 21347, Note_on_c, 0, 82, 0
1, 21360, Note_on_c, 0, 83, 64
1, 21587, Note_on_c, 0, 83, 0
1, 21600, Note_on_c, 0, 82, 64
1, 21827, Note_on_c, 0, 82, 0
1, 21840, Note_on_c, 0, 80, 64
1, 22067, Note_on_c, 0, 80, 0
1, 22080, Note_on_c, 0, 80, 64
1, 22307, Note_on_c, 0, 80, 0
1, 22320, Note_on_c, 0, 78, 64
1, 22547, Note_on_c, 0, 78, 0
1, 22560, Note_on_c, 0, 78, 64
1, 22787, Note_on_c, 0, 78, 0
1, 22800, Note_on_c, 0, 78, 64
1, 23027, Note_on_c, 0, 78, 0
1, 23040, Note_on_c, 0, 71, 64
1, 23040, Note_on_c, 0, 75, 64
1, 23040, Note_on_c, 0, 82, 64
1, 23267, Note_on_c, 0, 71, 0
1, 23267, Note_on_c, 0, 75, 0
1, 23267, Note_on_c, 0, 82, 0
1, 23280, Note_on_c, 0, 80, 64
1, 23963, Note_on_c, 0, 80, 0
1, 24720, Note_on_c, 0, 78, 64
1, 24947, Note_on_c, 0, 78, 0
1, 24960, Note_on_c, 0, 75, 64
1, 24960, Note_on_c, 0, 82, 64
1, 25187, Note_on_c, 0, 75, 0
1, 25187, Note_on_c, 0, 82, 0
1, 25200, Note_on_c, 0, 83, 64
1, 25427, Note_on_c, 0, 83, 0
1, 25440, Note_on_c, 0, 82, 64
1, 25667, Note_on_c, 0, 82, 0
1, 25680, Note_on_c, 0, 80, 64
1, 25907, Note_on_c, 0, 80, 0
1, 25920, Note_on_c, 0, 75, 64
1, 25920, Note_on_c, 0, 80, 64
1, 26375, Note_on_c, 0, 75, 0
1, 26375, Note_on_c, 0, 80, 0
1, 26400, Note_on_c, 0, 75, 64
1, 26627, Note_on_c, 0, 75, 0
1, 26640, Note_on_c, 0, 71, 64
1, 26640, Note_on_c, 0, 75, 64
1, 26640, Note_on_c, 0, 80, 64
1, 27779, Note_on_c, 0, 71, 0
1, 27779, Note_on_c, 0, 75, 0
1, 27779, Note_on_c, 0, 80, 0
1, 27840, Note_on_c, 0, 73, 64
1, 27840, Note_on_c, 0, 77, 64
1, 28523, Note_on_c, 0, 73, 0
1, 28523, Note_on_c, 0, 77, 0
1, 28560, Note_on_c, 0, 70, 64
1, 28560, Note_on_c, 0, 75, 64
1, 30611, Note_on_c, 0, 70, 0
1, 30611, Note_on_c, 0, 75, 0
1, 30720, Note_on_c, 0, 71, 64
1, 30783, Note_on_c, 0, 75, 64
1, 30847, Note_on_c, 0, 82, 64
1, 30958, Note_on_c, 0, 75, 0
1, 30958, Note_on_c, 0, 82, 0
1, 30959, Note_on_c, 0, 71, 0
1, 30960, Note_on_c, 0, 71, 64
1, 30960, Note_on_c, 0, 80, 64
1, 31643, Note_on_c, 0, 71, 0
1, 31643, Note_on_c, 0, 80, 0
1, 32400, Note_on_c, 0, 78, 64
1, 32627, Note_on_c, 0, 78, 0
1, 32640, Note_on_c, 0, 70, 64
1, 32640, Note_on_c, 0, 78, 64
1, 32640, Note_on_c, 0, 82, 64
1, 32867, Note_on_c, 0, 70, 0
1, 32867, Note_on_c, 0, 78, 0
1, 32867, Note_on_c, 0, 82, 0
1, 32880, Note_on_c, 0, 70, 64
1, 32880, Note_on_c, 0, 83, 64
1, 33107, Note_on_c, 0, 70, 0
1, 33107, Note_on_c, 0, 83, 0
1, 33120, Note_on_c, 0, 70, 64
1, 33120, Note_on_c, 0, 82, 64
1, 33347, Note_on_c, 0, 70, 0
1, 33347, Note_on_c, 0, 82, 0
1, 33360, Note_on_c, 0, 70, 64
1, 33360, Note_on_c, 0, 80, 64
1, 33587, Note_on_c, 0, 70, 0
1, 33587, Note_on_c, 0, 80, 0
1, 33600, Note_on_c, 0, 70, 64
1, 33600, Note_on_c, 0, 80, 64
1, 33827, Note_on_c, 0, 70, 0
1, 33827, Note_on_c, 0, 80, 0
1, 33840, Note_on_c, 0, 70, 76
1, 33840, Note_on_c, 0, 78, 76
1, 34079, Note_on_c, 0, 70, 0
1, 34079, Note_on_c, 0, 78, 0
1, 34080, Note_on_c, 0, 70, 76
1, 34080, Note_on_c, 0, 78, 76
1, 34319, Note_on_c, 0, 70, 0
1, 34319, Note_on_c, 0, 78, 0
1, 34320, Note_on_c, 0, 70, 76
1, 34320, Note_on_c, 0, 78, 76
1, 34559, Note_on_c, 0, 70, 0
1, 34559, Note_on_c, 0, 78, 0
1, 34560, Note_on_c, 0, 71, 64
1, 34623, Note_on_c, 0, 75, 64
1, 34687, Note_on_c, 0, 82, 64
1, 34798, Note_on_c, 0, 75, 0
1, 34798, Note_on_c, 0, 82, 0
1, 34799, Note_on_c, 0, 71, 0
1, 34800, Note_on_c, 0, 71, 64
1, 34800, Note_on_c, 0, 80, 64
1, 35483, Note_on_c, 0, 71, 0
1, 35483, Note_on_c, 0, 80, 0
1, 36240, Note_on_c, 0, 78, 64
1, 36467, Note_on_c, 0, 78, 0
1, 36480, Note_on_c, 0, 70, 64
1, 36480, Note_on_c, 0, 78, 64
1, 36480, Note_on_c, 0, 82, 64
1, 36707, Note_on_c, 0, 70, 0
1, 36707, Note_on_c, 0, 78, 0
1, 36707, Note_on_c, 0, 82, 0
1, 36720, Note_on_c, 0, 70, 64
1, 36720, Note_on_c, 0, 83, 64
1, 36947, Note_on_c, 0, 70, 0
1, 36947, Note_on_c, 0, 83, 0
1, 36960, Note_on_c, 0, 70, 64
1, 36960, Note_on_c, 0, 82, 64
1, 37187, Note_on_c, 0, 70, 0
1, 37187, Note_on_c, 0, 82, 0
1, 37200, Note_on_c, 0, 70, 64
1, 37200, Note_on_c, 0, 80, 64
1, 37427, Note_on_c, 0, 70, 0
1, 37427, Note_on_c, 0, 80, 0
1, 37440, Note_on_c, 0, 70, 64
1, 37440, Note_on_c, 0, 80, 64
1, 37667, Note_on_c, 0, 70, 0
1, 37667, Note_on_c, 0, 80, 0
1, 37680, Note_on_c, 0, 70, 76
1, 37680, Note_on_c, 0, 78, 76
1, 37919, Note_on_c, 0, 70, 0
1, 37919, Note_on_c, 0, 78, 0
1, 37920, Note_on_c, 0, 70, 76
1, 37920, Note_on_c, 0, 78, 76
1, 38159, Note_on_c, 0, 70, 0
1, 38159, Note_on_c, 0, 78, 0
1, 38160, Note_on_c, 0, 70, 76
1, 38160, Note_on_c, 0, 78, 76
1, 38399, Note_on_c, 0, 70, 0
1, 38399, Note_on_c, 0, 78, 0
1, 38400, Note_on_c, 0, 71, 64
1, 38400, Note_on_c, 0, 75, 64
1, 38400, Note_on_c, 0, 82, 64
1, 38627, Note_on_c, 0, 71, 0
1, 38627, Note_on_c, 0, 75, 0
1, 38627, Note_on_c, 0, 82, 0
1, 38640, Note_on_c, 0, 71, 64
1, 38640, Note_on_c, 0, 80, 64
1, 39323, Note_on_c, 0, 71, 0
1, 39323, Note_on_c, 0, 80, 0
1, 40080, Note_on_c, 0, 78, 64
1, 40307, Note_on_c, 0, 78, 0
1, 40320, Note_on_c, 0, 70, 64
1, 40320, Note_on_c, 0, 78, 64
1, 40320, Note_on_c, 0, 82, 64
1, 40547, Note_on_c, 0, 70, 0
1, 40547, Note_on_c, 0, 78, 0
1, 40547, Note_on_c, 0, 82, 0
1, 40560, Note_on_c, 0, 70, 64
1, 40560, Note_on_c, 0, 83, 64
1, 40787, Note_on_c, 0, 70, 0
1, 40787, Note_on_c, 0, 83, 0
1, 40800, Note_on_c, 0, 70, 64
1, 40800, Note_on_c, 0, 82, 64
1, 41027, Note_on_c, 0, 70, 0
1, 41027, Note_on_c, 0, 82, 0
1, 41040, Note_on_c, 0, 70, 64
1, 41040, Note_on_c, 0, 80, 64
1, 41267, Note_on_c, 0, 70, 0
1, 41267, Note_on_c, 0, 80, 0
1, 41280, Note_on_c, 0, 70, 64
1, 41280, Note_on_c, 0, 75, 64
1, 41280, Note_on_c, 0, 80, 64
1, 41735, Note_on_c, 0, 70, 0
1, 41735, Note_on_c, 0, 75, 0
1, 41735, Note_on_c, 0, 80, 0
1, 41760, Note_on_c, 0, 75, 64
1, 41987, Note_on_c, 0, 75, 0
1, 42000, Note_on_c, 0, 71, 64
1, 42000, Note_on_c, 0, 75, 64
1, 42000, Note_on_c, 0, 80, 64
1, 43139, Note_on_c, 0, 71, 0
1, 43139, Note_on_c, 0, 75, 0
1, 43139, Note_on_c, 0, 80, 0
1, 43200, Note_on_c, 0, 68, 64
1, 43200, Note_on_c, 0, 73, 64
1, 43200, Note_on_c, 0, 77, 64
1, 43883, Note_on_c, 0, 68, 0
1, 43883, Note_on_c, 0, 73, 0
1, 43883, Note_on_c, 0, 77, 0
1, 43920, Note_on_c, 0, 70, 64
1, 43920, Note_on_c, 0, 73, 64
1, 43920, Note_on_c, 0, 75, 64
1, 45059, Note_on_c, 0, 70, 0
1, 45059, Note_on_c, 0, 73, 0
1, 45059, Note_on_c, 0, 75, 0
1, 45600, Note_on_c, 0, 73, 64
1, 45600, Note_on_c, 0, 85, 64
1, 45827, Note_on_c, 0, 73, 0
1, 45827, Note_on_c, 0, 85, 0
1, 45840, Note_on_c, 0, 71, 64
1, 45840, Note_on_c, 0, 83, 64
1, 46067, Note_on_c, 0, 71, 0
1, 46067, Note_on_c, 0, 83, 0
1, 46080, Note_on_c, 0, 70, 80
1, 46080, Note_on_c, 0, 75, 80
1, 46080, Note_on_c, 0, 82, 80
1, 46307, Note_on_c, 0, 70, 0
1, 46307, Note_on_c, 0, 75, 0
1, 46307, Note_on_c, 0, 82, 0
1, 46320, Note_on_c, 0, 68, 80
1, 46320, Note_on_c, 0, 80, 80
1, 46547, Note_on_c, 0, 68, 0
1, 46547, Note_on_c, 0, 80, 0
1, 46800, Note_on_c, 0, 66, 80
1, 46800, Note_on_c, 0, 78, 80
1, 47483, Note_on_c, 0, 66, 0
1, 47483, Note_on_c, 0, 78, 0
1, 47520, Note_on_c, 0, 73, 80
1, 47520, Note_on_c, 0, 85, 80
1, 47747, Note_on_c, 0, 73, 0
1, 47747, Note_on_c, 0, 85, 0
1, 47760, Note_on_c, 0, 71, 80
1, 47760, Note_on_c, 0, 83, 80
1, 47987, Note_on_c, 0, 71, 0
1, 47987, Note_on_c, 0, 83, 0
1, 48000, Note_on_c, 0, 82, 80
1, 48227, Note_on_c, 0, 82, 0
1, 48240, Note_on_c, 0, 71, 80
1, 48240, Note_on_c, 0, 75, 80
1, 48240, Note_on_c, 0, 80, 80
1, 48923, Note_on_c, 0, 71, 0
1, 48923, Note_on_c, 0, 75, 0
1, 48923, Note_on_c, 0, 80, 0
1, 49440, Note_on_c, 0, 73, 80
1, 49440, Note_on_c, 0, 85, 80
1, 49667, Note_on_c, 0, 73, 0
1, 49667, Note_on_c, 0, 85, 0
1, 49680, Note_on_c, 0, 71, 80
1, 49680, Note_on_c, 0, 83, 80
1, 49907, Note_on_c, 0, 71, 0
1, 49907, Note_on_c, 0, 83, 0
1, 49920, Note_on_c, 0, 82, 80
1, 50147, Note_on_c, 0, 82, 0
1, 50160, Note_on_c, 0, 71, 80
1, 50160, Note_on_c, 0, 75, 80
1, 50160, Note_on_c, 0, 80, 80
1, 50843, Note_on_c, 0, 71, 0
1, 50843, Note_on_c, 0, 75, 0
1, 50843, Note_on_c, 0, 80, 0
1, 51360, Note_on_c, 0, 73, 80
1, 51360, Note_on_c, 0, 85, 80
1, 51587, Note_on_c, 0, 73, 0
1, 51587, Note_on_c, 0, 85, 0
1, 51600, Note_on_c, 0, 71, 80
1, 51600, Note_on_c, 0, 83, 80
1, 51827, Note_on_c, 0, 71, 0
1, 51827, Note_on_c, 0, 83, 0
1, 51840, Note_on_c, 0, 70, 80
1, 51840, Note_on_c, 0, 75, 80
1, 51840, Note_on_c, 0, 82, 80
1, 52067, Note_on_c, 0, 70, 0
1, 52067, Note_on_c, 0, 75, 0
1, 52067, Note_on_c, 0, 82, 0
1, 52080, Note_on_c, 0, 71, 80
1, 52080, Note_on_c, 0, 83, 80
1, 52763, Note_on_c, 0, 71, 0
1, 52763, Note_on_c, 0, 83, 0
1, 53520, Note_on_c, 0, 75, 96
1, 53520, Note_on_c, 0, 78, 96
1, 53520, Note_on_c, 0, 85, 96
1, 53873, Note_on_c, 0, 75, 0
1, 53873, Note_on_c, 0, 78, 0
1, 53873, Note_on_c, 0, 85, 0
1, 53880, Note_on_c, 0, 82, 96
1, 53999, Note_on_c, 0, 82, 0
1, 54000, Note_on_c, 0, 80, 96
1, 54239, Note_on_c, 0, 80, 0
1, 54240, Note_on_c, 0, 78, 96
1, 55175, Note_on_c, 0, 78, 0
1, 55200, Note_on_c, 0, 78, 80
1, 55427, Note_on_c, 0, 78, 0
1, 55440, Note_on_c, 0, 80, 80
1, 55667, Note_on_c, 0, 80, 0
1, 55680, Note_on_c, 0, 72, 80
1, 55680, Note_on_c, 0, 75, 80
1, 55680, Note_on_c, 0, 82, 80
1, 55907, Note_on_c, 0, 72, 0
1, 55907, Note_on_c, 0, 75, 0
1, 55907, Note_on_c, 0, 82, 0
1, 55920, Note_on_c, 0, 80, 80
1, 56147, Note_on_c, 0, 80, 0
1, 56880, Note_on_c, 0, 78, 80
1, 57107, Note_on_c, 0, 78, 0
1, 57120, Note_on_c, 0, 71, 96
1, 57120, Note_on_c, 0, 75, 96
1, 57120, Note_on_c, 0, 82, 96
1, 57359, Note_on_c, 0, 71, 0
1, 57359, Note_on_c, 0, 75, 0
1, 57359, Note_on_c, 0, 82, 0
1, 57360, Note_on_c, 0, 71, 96
1, 57360, Note_on_c, 0, 75, 96
1, 57360, Note_on_c, 0, 82, 96
1, 57599, Note_on_c, 0, 71, 0
1, 57599, Note_on_c, 0, 75, 0
1, 57599, Note_on_c, 0, 82, 0
1, 57840, Note_on_c, 0, 82, 115
1, 57840, Note_on_c, 0, 94, 115
1, 58079, Note_on_c, 0, 82, 0
1, 58079, Note_on_c, 0, 94, 0
1, 58080, Note_on_c, 0, 80, 115
1, 58080, Note_on_c, 0, 92, 115
1, 58319, Note_on_c, 0, 80, 0
1, 58319, Note_on_c, 0, 92, 0
1, 58320, Note_on_c, 0, 78, 115
1, 58320, Note_on_c, 0, 90, 115
1, 58559, Note_on_c, 0, 78, 0
1, 58559, Note_on_c, 0, 90, 0
1, 58560, Note_on_c, 0, 77, 115
1, 58560, Note_on_c, 0, 89, 115
1, 58799, Note_on_c, 0, 77, 0
1, 58799, Note_on_c, 0, 89, 0
1, 58800, Note_on_c, 0, 73, 115
1, 58800, Note_on_c, 0, 85, 115
1, 59039, Note_on_c, 0, 73, 0
1, 59039, Note_on_c, 0, 85, 0
1, 59040, Note_on_c, 0, 70, 96
1, 59040, Note_on_c, 0, 73, 96
1, 59040, Note_on_c, 0, 80, 96
1, 59267, Note_on_c, 0, 70, 0
1, 59267, Note_on_c, 0, 73, 0
1, 59267, Note_on_c, 0, 80, 0
1, 59280, Note_on_c, 0, 70, 96
1, 59280, Note_on_c, 0, 73, 96
1, 59280, Note_on_c, 0, 80, 96
1, 59507, Note_on_c, 0, 70, 0
1, 59507, Note_on_c, 0, 73, 0
1, 59507, Note_on_c, 0, 80, 0
1, 59520, Note_on_c, 0, 70, 96
1, 59520, Note_on_c, 0, 78, 96
1, 59747, Note_on_c, 0, 70, 0
1, 59747, Note_on_c, 0, 78, 0
1, 59760, Note_on_c, 0, 70, 96
1, 59760, Note_on_c, 0, 75, 96
1, 59987, Note_on_c, 0, 70, 0
1, 59987, Note_on_c, 0, 75, 0
1, 60960, Note_on_c, 0, 70, 96
1, 60960, Note_on_c, 0, 78, 96
1, 61187, Note_on_c, 0, 70, 0
1, 61187, Note_on_c, 0, 78, 0
1, 61200, Note_on_c, 0, 70, 96
1, 61200, Note_on_c, 0, 75, 96
1, 61200, Note_on_c, 0, 80, 96
1, 61427, Note_on_c, 0, 70, 0
1, 61427, Note_on_c, 0, 75, 0
1, 61427, Note_on_c, 0, 80, 0
1, 61440, Note_on_c, 0, 71, 96
1, 61440, Note_on_c, 0, 75, 96
1, 61440, Note_on_c, 0, 78, 96
1, 61440, Note_on_c, 0, 82, 96
1, 61667, Note_on_c, 0, 71, 0
1, 61667, Note_on_c, 0, 75, 0
1, 61667, Note_on_c, 0, 78, 0
1, 61667, Note_on_c, 0, 82, 0
1, 61680, Note_on_c, 0, 71, 96
1, 61680, Note_on_c, 0, 75, 96
1, 61680, Note_on_c, 0, 80, 96
1, 62363, Note_on_c, 0, 71, 0
1, 62363, Note_on_c, 0, 75, 0
1, 62363, Note_on_c, 0, 80, 0
1, 62640, Note_on_c, 0, 73, 96
1, 62640, Note_on_c, 0, 75, 96
1, 62640, Note_on_c, 0, 78, 96
1, 62867, Note_on_c, 0, 73, 0
1, 62867, Note_on_c, 0, 75, 0
1, 62867, Note_on_c, 0, 78, 0
1, 62880, Note_on_c, 0, 73, 96
1, 62880, Note_on_c, 0, 75, 96
1, 62880, Note_on_c, 0, 80, 96
1, 63107, Note_on_c, 0, 73, 0
1, 63107, Note_on_c, 0, 75, 0
1, 63107, Note_on_c, 0, 80, 0
1, 63120, Note_on_c, 0, 73, 96
1, 63120, Note_on_c, 0, 75, 96
1, 63120, Note_on_c, 0, 80, 96
1, 63347, Note_on_c, 0, 73, 0
1, 63347, Note_on_c, 0, 75, 0
1, 63347, Note_on_c, 0, 80, 0
1, 63360, Note_on_c, 0, 70, 96
1, 63360, Note_on_c, 0, 78, 96
1, 63587, Note_on_c, 0, 70, 0
1, 63587, Note_on_c, 0, 78, 0
1, 63600, Note_on_c, 0, 70, 96
1, 63600, Note_on_c, 0, 75, 96
1, 63827, Note_on_c, 0, 70, 0
1, 63827, Note_on_c, 0, 75, 0
1, 64560, Note_on_c, 0, 78, 96
1, 64787, Note_on_c, 0, 78, 0
1, 64800, Note_on_c, 0, 70, 115
1, 64800, Note_on_c, 0, 75, 115
1, 64800, Note_on_c, 0, 78, 115
1, 64800, Note_on_c, 0, 82, 115
1, 64959, Note_on_c, 0, 70, 0
1, 64959, Note_on_c, 0, 75, 0
1, 64959, Note_on_c, 0, 78, 0
1, 64959, Note_on_c, 0, 82, 0
1, 65040, Note_on_c, 0, 70, 115
1, 65040, Note_on_c, 0, 75, 115
1, 65040, Note_on_c, 0, 78, 115
1, 65040, Note_on_c, 0, 82, 115
1, 65199, Note_on_c, 0, 70, 0
1, 65199, Note_on_c, 0, 75, 0
1, 65199, Note_on_c, 0, 78, 0
1, 65199, Note_on_c, 0, 82, 0
1, 65520, Note_on_c, 0, 82, 115
1, 65520, Note_on_c, 0, 94, 115
1, 65759, Note_on_c, 0, 82, 0
1, 65759, Note_on_c, 0, 94, 0
1, 65760, Note_on_c, 0, 80, 115
1, 65760, Note_on_c, 0, 92, 115
1, 65999, Note_on_c, 0, 80, 0
1, 65999, Note_on_c, 0, 92, 0
1, 66000, Note_on_c, 0, 78, 115
1, 66000, Note_on_c, 0, 90, 115
1, 66239, Note_on_c, 0, 78, 0
1, 66239, Note_on_c, 0, 90, 0
1, 66240, Note_on_c, 0, 77, 115
1, 66240, Note_on_c, 0, 89, 115
1, 66479, Note_on_c, 0, 77, 0
1, 66479, Note_on_c, 0, 89, 0
1, 66480, Note_on_c, 0, 73, 115
1, 66480, Note_on_c, 0, 85, 115
1, 66719, Note_on_c, 0, 73, 0
1, 66719, Note_on_c, 0, 85, 0
1, 66720, Note_on_c, 0, 70, 96
1, 66720, Note_on_c, 0, 73, 96
1, 66720, Note_on_c, 0, 80, 96
1, 66947, Note_on_c, 0, 70, 0
1, 66947, Note_on_c, 0, 73, 0
1, 66947, Note_on_c, 0, 80, 0
1, 66960, Note_on_c, 0, 70, 96
1, 66960, Note_on_c, 0, 73, 96
1, 66960, Note_on_c, 0, 80, 96
1, 67187, Note_on_c, 0, 70, 0
1, 67187, Note_on_c, 0, 73, 0
1, 67187, Note_on_c, 0, 80, 0
1, 67200, Note_on_c, 0, 70, 96
1, 67200, Note_on_c, 0, 78, 96
1, 67427, Note_on_c, 0, 70, 0
1, 67427, Note_on_c, 0, 78, 0
1, 67440, Note_on_c, 0, 70, 96
1, 67440, Note_on_c, 0, 75, 96
1, 67667, Note_on_c, 0, 70, 0
1, 67667, Note_on_c, 0, 75, 0
1, 68760, Note_on_c, 0, 78, 96
1, 68873, Note_on_c, 0, 78, 0
1, 68880, Note_on_c, 0, 78, 96
1, 68993, Note_on_c, 0, 78, 0
1, 69000, Note_on_c, 0, 78, 96
1, 69227, Note_on_c, 0, 78, 0
1, 69240, Note_on_c, 0, 71, 96
1, 69303, Note_on_c, 0, 75, 96
1, 69367, Note_on_c, 0, 80, 96
1, 69598, Note_on_c, 0, 75, 0
1, 69598, Note_on_c, 0, 80, 0
1, 69599, Note_on_c, 0, 71, 0
1, 69600, Note_on_c, 0, 71, 96
1, 69600, Note_on_c, 0, 75, 96
1, 69600, Note_on_c, 0, 82, 96
1, 70055, Note_on_c, 0, 71, 0
1, 70055, Note_on_c, 0, 75, 0
1, 70055, Note_on_c, 0, 82, 0
1, 70320, Note_on_c, 0, 78, 96
1, 70547, Note_on_c, 0, 78, 0
1, 70560, Note_on_c, 0, 70, 96
1, 70560, Note_on_c, 0, 80, 96
1, 70787, Note_on_c, 0, 70, 0
1, 70787, Note_on_c, 0, 80, 0
1, 70800, Note_on_c, 0, 70, 96
1, 70800, Note_on_c, 0, 80, 96
1, 71027, Note_on_c, 0, 70, 0
1, 71027, Note_on_c, 0, 80, 0
1, 71040, Note_on_c, 0, 70, 96
1, 71040, Note_on_c, 0, 78, 96
1, 71267, Note_on_c, 0, 70, 0
1, 71267, Note_on_c, 0, 78, 0
1, 71280, Note_on_c, 0, 75, 96
1, 71963, Note_on_c, 0, 75, 0
1, 72960, Note_on_c, 0, 71, 80
1, 73023, Note_on_c, 0, 75, 80
1, 73087, Note_on_c, 0, 82, 80
1, 73198, Note_on_c, 0, 75, 0
1, 73198, Note_on_c, 0, 82, 0
1, 73199, Note_on_c, 0, 71, 0
1, 73200, Note_on_c, 0, 71, 80
1, 73200, Note_on_c, 0, 80, 80
1, 73883, Note_on_c, 0, 71, 0
1, 73883, Note_on_c, 0, 80, 0
1, 74640, Note_on_c, 0, 78, 80
1, 74867, Note_on_c, 0, 78, 0
1, 74880, Note_on_c, 0, 70, 80
1, 74880, Note_on_c, 0, 78, 80
1, 74880, Note_on_c, 0, 82, 80
1, 75107, Note_on_c, 0, 70, 0
1, 75107, Note_on_c, 0, 78, 0
1, 75107, Note_on_c, 0, 82, 0
1, 75120, Note_on_c, 0, 70, 80
1, 75120, Note_on_c, 0, 83, 80
1, 75347, Note_on_c, 0, 70, 0
1, 75347, Note_on_c, 0, 83, 0
1, 75360, Note_on_c, 0, 70, 80
1, 75360, Note_on_c, 0, 82, 80
1, 75587, Note_on_c, 0, 70, 0
1, 75587, Note_on_c, 0, 82, 0
1, 75600, Note_on_c, 0, 70, 80
1, 75600, Note_on_c, 0, 80, 80
1, 75827, Note_on_c, 0, 70, 0
1, 75827, Note_on_c, 0, 80, 0
1, 75840, Note_on_c, 0, 70, 80
1, 75840, Note_on_c, 0, 80, 80
1, 76067, Note_on_c, 0, 70, 0
1, 76067, Note_on_c, 0, 80, 0
1, 76080, Note_on_c, 0, 70, 80
1, 76080, Note_on_c, 0, 78, 80
1, 76307, Note_on_c, 0, 70, 0
1, 76307, Note_on_c, 0, 78, 0
1, 76320, Note_on_c, 0, 70, 80
1, 76320, Note_on_c, 0, 78, 80
1, 76775, Note_on_c, 0, 70, 0
1, 76775, Note_on_c, 0, 78, 0
1, 76800, Note_on_c, 0, 71, 80
1, 76863, Note_on_c, 0, 75, 80
1, 76927, Note_on_c, 0, 82, 80
1, 77038, Note_on_c, 0, 75, 0
1, 77038, Note_on_c, 0, 82, 0
1, 77039, Note_on_c, 0, 71, 0
1, 77040, Note_on_c, 0, 71, 80
1, 77040, Note_on_c, 0, 80, 80
1, 77723, Note_on_c, 0, 71, 0
1, 77723, Note_on_c, 0, 80, 0
1, 78480, Note_on_c, 0, 78, 80
1, 78707, Note_on_c, 0, 78, 0
1, 78720, Note_on_c, 0, 70, 80
1, 78720, Note_on_c, 0, 78, 80
1, 78720, Note_on_c, 0, 82, 80
1, 78947, Note_on_c, 0, 70, 0
1, 78947, Note_on_c, 0, 78, 0
1, 78947, Note_on_c, 0, 82, 0
1, 78960, Note_on_c, 0, 70, 80
1, 78960, Note_on_c, 0, 83, 80
1, 79187, Note_on_c, 0, 70, 0
1, 79187, Note_on_c, 0, 83, 0
1, 79200, Note_on_c, 0, 70, 80
1, 79200, Note_on_c, 0, 82, 80
1, 79427, Note_on_c, 0, 70, 0
1, 79427, Note_on_c, 0, 82, 0
1, 79440, Note_on_c, 0, 70, 80
1, 79440, Note_on_c, 0, 80, 80
1, 79667, Note_on_c, 0, 70, 0
1, 79667, Note_on_c, 0, 80, 0
1, 79680, Note_on_c, 0, 70, 80
1, 79680, Note_on_c, 0, 80, 80
1, 79907, Note_on_c, 0, 70, 0
1, 79907, Note_on_c, 0, 80, 0
1, 79920, Note_on_c, 0, 70, 80
1, 79920, Note_on_c, 0, 78, 80
1, 80147, Note_on_c, 0, 70, 0
1, 80147, Note_on_c, 0, 78, 0
1, 80160, Note_on_c, 0, 70, 80
1, 80160, Note_on_c, 0, 78, 80
1, 80387, Note_on_c, 0, 70, 0
1, 80387, Note_on_c, 0, 78, 0
1, 80400, Note_on_c, 0, 70, 80
1, 80400, Note_on_c, 0, 78, 80
1, 80627, Note_on_c, 0, 70, 0
1, 80627, Note_on_c, 0, 78, 0
1, 80640, Note_on_c, 0, 71, 80
1, 80703, Note_on_c, 0, 75, 80
1, 80767, Note_on_c, 0, 82, 80
1, 80878, Note_on_c, 0, 75, 0
1, 80878, Note_on_c, 0, 82, 0
1, 80879, Note_on_c, 0, 71, 0
1, 80880, Note_on_c, 0, 71, 80
1, 80880, Note_on_c, 0, 80, 80
1, 81563, Note_on_c, 0, 71, 0
1, 81563, Note_on_c, 0, 80, 0
1, 82320, Note_on_c, 0, 78, 80
1, 82547, Note_on_c, 0, 78, 0
1, 82560, Note_on_c, 0, 70, 80
1, 82560, Note_on_c, 0, 78, 80
1, 82560, Note_on_c, 0, 82, 80
1, 82787, Note_on_c, 0, 70, 0
1, 82787, Note_on_c, 0, 78, 0
1, 82787, Note_on_c, 0, 82, 0
1, 82800, Note_on_c, 0, 70, 80
1, 82800, Note_on_c, 0, 83, 80
1, 83027, Note_on_c, 0, 70, 0
1, 83027, Note_on_c, 0, 83, 0
1, 83040, Note_on_c, 0, 70, 80
1, 83040, Note_on_c, 0, 82, 80
1, 83267, Note_on_c, 0, 70, 0
1, 83267, Note_on_c, 0, 82, 0
1, 83280, Note_on_c, 0, 70, 80
1, 83280, Note_on_c, 0, 80, 80
1, 83507, Note_on_c, 0, 70, 0
1, 83507, Note_on_c, 0, 80, 0
1, 83520, Note_on_c, 0, 70, 80
1, 83520, Note_on_c, 0, 75, 80
1, 83520, Note_on_c, 0, 80, 80
1, 83975, Note_on_c, 0, 70, 0
1, 83975, Note_on_c, 0, 75, 0
1, 83975, Note_on_c, 0, 80, 0
1, 84000, Note_on_c, 0, 75, 80
1, 84227, Note_on_c, 0, 75, 0
1, 84240, Note_on_c, 0, 71, 80
1, 84240, Note_on_c, 0, 75, 80
1, 84240, Note_on_c, 0, 80, 80
1, 85379, Note_on_c, 0, 71, 0
1, 85379, Note_on_c, 0, 75, 0
1, 85379, Note_on_c, 0, 80, 0
1, 85440, Note_on_c, 0, 68, 80
1, 85440, Note_on_c, 0, 73, 80
1, 85440, Note_on_c, 0, 77, 80
1, 86123, Note_on_c, 0, 68, 0
1, 86123, Note_on_c, 0, 73, 0
1, 86123, Note_on_c, 0, 77, 0
1, 86160, Note_on_c, 0, 70, 80
1, 86160, Note_on_c, 0, 75, 80
1, 87299, Note_on_c, 0, 70, 0
1, 87299, Note_on_c, 0, 75, 0
1, 87840, Note_on_c, 0, 73, 96
1, 87840, Note_on_c, 0, 85, 96
1, 88079, Note_on_c, 0, 73, 0
1, 88079, Note_on_c, 0, 85, 0
1, 88080, Note_on_c, 0, 71, 96
1, 88080, Note_on_c, 0, 83, 96
1, 88319, Note_on_c, 0, 71, 0
1, 88319, Note_on_c, 0, 83, 0
1, 88320, Note_on_c, 0, 70, 80
1, 88320, Note_on_c, 0, 75, 80
1, 88320, Note_on_c, 0, 82, 80
1, 88547, Note_on_c, 0, 70, 0
1, 88547, Note_on_c, 0, 75, 0
1, 88547, Note_on_c, 0, 82, 0
1, 88560, Note_on_c, 0, 68, 80
1, 88560, Note_on_c, 0, 80, 80
1, 88787, Note_on_c, 0, 68, 0
1, 88787, Note_on_c, 0, 80, 0
1, 89040, Note_on_c, 0, 66, 80
1, 89040, Note_on_c, 0, 78, 80
1, 89723, Note_on_c, 0, 66, 0
1, 89723, Note_on_c, 0, 78, 0
1, 89760, Note_on_c, 0, 73, 96
1, 89760, Note_on_c, 0, 85, 96
1, 89999, Note_on_c, 0, 73, 0
1, 89999, Note_on_c, 0, 85, 0
1, 90000, Note_on_c, 0, 71, 96
1, 90000, Note_on_c, 0, 83, 96
1, 90239, Note_on_c, 0, 71, 0
1, 90239, Note_on_c, 0, 83, 0
1, 90240, Note_on_c, 0, 82, 80
1, 90467, Note_on_c, 0, 82, 0
1, 90480, Note_on_c, 0, 71, 80
1, 90480, Note_on_c, 0, 75, 80
1, 90480, Note_on_c, 0, 80, 80
1, 91163, Note_on_c, 0, 71, 0
1, 91163, Note_on_c, 0, 75, 0
1, 91163, Note_on_c, 0, 80, 0
1, 91680, Note_on_c, 0, 73, 96
1, 91680, Note_on_c, 0, 85, 96
1, 91919, Note_on_c, 0, 73, 0
1, 91919, Note_on_c, 0, 85, 0
1, 91920, Note_on_c, 0, 71, 96
1, 91920, Note_on_c, 0, 83, 96
1, 92159, Note_on_c, 0, 71, 0
1, 92159, Note_on_c, 0, 83, 0
1, 92160, Note_on_c, 0, 82, 80
1, 92387, Note_on_c, 0, 82, 0
1, 92400, Note_on_c, 0, 71, 80
1, 92400, Note_on_c, 0, 75, 80
1, 92400, Note_on_c, 0, 80, 80
1, 93083, Note_on_c, 0, 71, 0
1, 93083, Note_on_c, 0, 75, 0
1, 93083, Note_on_c, 0, 80, 0
1, 93600, Note_on_c, 0, 73, 96
1, 93600, Note_on_c, 0, 85, 96
1, 93839, Note_on_c, 0, 73, 0
1, 93839, Note_on_c, 0, 85, 0
1, 93840, Note_on_c, 0, 71, 96
1, 93840, Note_on_c, 0, 83, 96
1, 94079, Note_on_c, 0, 71, 0
1, 94079, Note_on_c, 0, 83, 0
1, 94080, Note_on_c, 0, 70, 80
1, 94080, Note_on_c, 0, 75, 80
1, 94080, Note_on_c, 0, 82, 80
1, 94307, Note_on_c, 0, 70, 0
1, 94307, Note_on_c, 0, 75, 0
1, 94307, Note_on_c, 0, 82, 0
1, 94320, Note_on_c, 0, 71, 80
1, 94320, Note_on_c, 0, 82, 80
1, 94547, Note_on_c, 0, 71, 0
1, 94547, Note_on_c, 0, 82, 0
1, 94560, Note_on_c, 0, 75, 80
1, 94560, Note_on_c, 0, 87, 80
1, 95015, Note_on_c, 0, 75, 0
1, 95015, Note_on_c, 0, 87, 0
1, 95760, Note_on_c, 0, 75, 80
1, 95760, Note_on_c, 0, 78, 80
1, 95760, Note_on_c, 0, 85, 80
1, 96101, Note_on_c, 0, 75, 0
1, 96101, Note_on_c, 0, 78, 0
1, 96101, Note_on_c, 0, 85, 0
1, 96120, Note_on_c, 0, 82, 80
1, 96233, Note_on_c, 0, 82, 0
1, 96240, Note_on_c, 0, 80, 80
1, 96467, Note_on_c, 0, 80, 0
1, 96480, Note_on_c, 0, 78, 80
1, 97391, Note_on_c, 0, 78, 0
1, 97440, Note_on_c, 0, 78, 80
1, 97667, Note_on_c, 0, 78, 0
1, 97680, Note_on_c, 0, 80, 80
1, 97907, Note_on_c, 0, 80, 0
1, 97920, Note_on_c, 0, 72, 80
1, 97920, Note_on_c, 0, 75, 80
1, 97920, Note_on_c, 0, 82, 80
1, 98147, Note_on_c, 0, 72, 0
1, 98147, Note_on_c, 0, 75, 0
1, 98147, Note_on_c, 0, 82, 0
1, 98160, Note_on_c, 0, 80, 80
1, 98387, Note_on_c, 0, 80, 0
1, 98880, Note_on_c, 0, 78, 80
1, 98880, Note_on_c, 0, 90, 80
1, 98934, Note_on_c, 0, 78, 0
1, 98934, Note_on_c, 0, 90, 0
1, 98939, Note_on_c, 0, 80, 80
1, 98939, Note_on_c, 0, 92, 80
1, 98993, Note_on_c, 0, 80, 0
1, 98993, Note_on_c, 0, 92, 0
1, 99000, Note_on_c, 0, 78, 80
1, 99000, Note_on_c, 0, 90, 80
1, 99054, Note_on_c, 0, 78, 0
1, 99054, Note_on_c, 0, 90, 0
1, 99059, Note_on_c, 0, 80, 80
1, 99059, Note_on_c, 0, 92, 80
1, 99113, Note_on_c, 0, 80, 0
1, 99113, Note_on_c, 0, 92, 0
1, 99120, Note_on_c, 0, 78, 80
1, 99120, Note_on_c, 0, 90, 80
1, 99174, Note_on_c, 0, 78, 0
1, 99174, Note_on_c, 0, 90, 0
1, 99179, Note_on_c, 0, 80, 80
1, 99179, Note_on_c, 0, 92, 80
1, 99233, Note_on_c, 0, 80, 0
1, 99233, Note_on_c, 0, 92, 0
1, 99240, Note_on_c, 0, 78, 80
1, 99240, Note_on_c, 0, 90, 80
1, 99294, Note_on_c, 0, 78, 0
1, 99294, Note_on_c, 0, 90, 0
1, 99299, Note_on_c, 0, 80, 80
1, 99299, Note_on_c, 0, 92, 80
1, 99353, Note_on_c, 0, 80, 0
1, 99353, Note_on_c, 0, 92, 0
1, 99360, Note_on_c, 0, 78, 80
1, 99360, Note_on_c, 0, 90, 80
1, 99414, Note_on_c, 0, 78, 0
1, 99414, Note_on_c, 0, 90, 0
1, 99419, Note_on_c, 0, 80, 80
1, 99419, Note_on_c, 0, 92, 80
1, 99473, Note_on_c, 0, 80, 0
1, 99473, Note_on_c, 0, 92, 0
1, 99480, Note_on_c, 0, 78, 80
1, 99480, Note_on_c, 0, 90, 80
1, 99534, Note_on_c, 0, 78, 0
1, 99534, Note_on_c, 0, 90, 0
1, 99539, Note_on_c, 0, 80, 80
1, 99539, Note_on_c, 0, 92, 80
1, 99593, Note_on_c, 0, 80, 0
1, 99593, Note_on_c, 0, 92, 0
1, 99600, Note_on_c, 0, 78, 80
1, 99600, Note_on_c, 0, 90, 80
1, 99654, Note_on_c, 0, 78, 0
1, 99654, Note_on_c, 0, 90, 0
1, 99659, Note_on_c, 0, 80, 80
1, 99659, Note_on_c, 0, 92, 80
1, 99713, Note_on_c, 0, 80, 0
1, 99713, Note_on_c, 0, 92, 0
1, 99720, Note_on_c, 0, 78, 80
1, 99720, Note_on_c, 0, 90, 80
1, 99774, Note_on_c, 0, 78, 0
1, 99774, Note_on_c, 0, 90, 0
1, 99779, Note_on_c, 0, 80, 80
1, 99779, Note_on_c, 0, 92, 80
1, 99833, Note_on_c, 0, 80, 0
1, 99833, Note_on_c, 0, 92, 0
1, 99840, Note_on_c, 0, 70, 96
1, 99840, Note_on_c, 0, 73, 96
1, 99840, Note_on_c, 0, 77, 96
1, 100079, Note_on_c, 0, 70, 0
1, 100079, Note_on_c, 0, 73, 0
1, 100079, Note_on_c, 0, 77, 0
1, 100080, Note_on_c, 0, 70, 96
1, 100080, Note_on_c, 0, 73, 96
1, 100080, Note_on_c, 0, 77, 96
1, 100319, Note_on_c, 0, 70, 0
1, 100319, Note_on_c, 0, 73, 0
1, 100319, Note_on_c, 0, 77, 0
1, 100800, Note_on_c, 0, 70, 80
1, 100800, Note_on_c, 0, 73, 80
1, 100800, Note_on_c, 0, 77, 80
1, 101027, Note_on_c, 0, 70, 0
1, 101027, Note_on_c, 0, 73, 0
1, 101027, Note_on_c, 0, 77, 0
1, 101040, Note_on_c, 0, 78, 80
1, 101267, Note_on_c, 0, 78, 0
1, 101280, Note_on_c, 0, 75, 80
1, 101280, Note_on_c, 0, 78, 80
1, 101280, Note_on_c, 0, 82, 80
1, 101507, Note_on_c, 0, 75, 0
1, 101507, Note_on_c, 0, 78, 0
1, 101507, Note_on_c, 0, 82, 0
1, 101520, Note_on_c, 0, 75, 80
1, 101520, Note_on_c, 0, 78, 80
1, 101520, Note_on_c, 0, 82, 80
1, 101747, Note_on_c, 0, 75, 0
1, 101747, Note_on_c, 0, 78, 0
1, 101747, Note_on_c, 0, 82, 0
1, 101760, Note_on_c, 0, 71, 80
1, 101760, Note_on_c, 0, 75, 80
1, 101760, Note_on_c, 0, 82, 80
1, 101987, Note_on_c, 0, 71, 0
1, 101987, Note_on_c, 0, 75, 0
1, 101987, Note_on_c, 0, 82, 0
1, 102000, Note_on_c, 0, 82, 96
1, 102000, Note_on_c, 0, 94, 96
1, 102239, Note_on_c, 0, 82, 0
1, 102239, Note_on_c, 0, 94, 0
1, 102240, Note_on_c, 0, 80, 96
1, 102240, Note_on_c, 0, 92, 96
1, 102479, Note_on_c, 0, 80, 0
1, 102479, Note_on_c, 0, 92, 0
1, 102480, Note_on_c, 0, 78, 96
1, 102480, Note_on_c, 0, 90, 96
1, 102719, Note_on_c, 0, 78, 0
1, 102719, Note_on_c, 0, 90, 0
1, 102720, Note_on_c, 0, 77, 96
1, 102720, Note_on_c, 0, 89, 96
1, 102959, Note_on_c, 0, 77, 0
1, 102959, Note_on_c, 0, 89, 0
1, 102960, Note_on_c, 0, 73, 96
1, 102960, Note_on_c, 0, 85, 96
1, 103199, Note_on_c, 0, 73, 0
1, 103199, Note_on_c, 0, 85, 0
1, 103200, Note_on_c, 0, 70, 80
1, 103200, Note_on_c, 0, 73, 80
1, 103200, Note_on_c, 0, 80, 80
1, 103427, Note_on_c, 0, 70, 0
1, 103427, Note_on_c, 0, 73, 0
1, 103427, Note_on_c, 0, 80, 0
1, 103440, Note_on_c, 0, 70, 80
1, 103440, Note_on_c, 0, 73, 80
1, 103440, Note_on_c, 0, 80, 80
1, 103667, Note_on_c, 0, 70, 0
1, 103667, Note_on_c, 0, 73, 0
1, 103667, Note_on_c, 0, 80, 0
1, 103680, Note_on_c, 0, 70, 80
1, 103680, Note_on_c, 0, 78, 80
1, 103907, Note_on_c, 0, 70, 0
1, 103907, Note_on_c, 0, 78, 0
1, 103920, Note_on_c, 0, 70, 80
1, 103920, Note_on_c, 0, 75, 80
1, 104147, Note_on_c, 0, 70, 0
1, 104147, Note_on_c, 0, 75, 0
1, 105120, Note_on_c, 0, 70, 80
1, 105120, Note_on_c, 0, 78, 80
1, 105347, Note_on_c, 0, 70, 0
1, 105347, Note_on_c, 0, 78, 0
1, 105360, Note_on_c, 0, 70, 80
1, 105360, Note_on_c, 0, 75, 80
1, 105360, Note_on_c, 0, 80, 80
1, 105587, Note_on_c, 0, 70, 0
1, 105587, Note_on_c, 0, 75, 0
1, 105587, Note_on_c, 0, 80, 0
1, 105600, Note_on_c, 0, 71, 80
1, 105600, Note_on_c, 0, 75, 80
1, 105600, Note_on_c, 0, 78, 80
1, 105600, Note_on_c, 0, 82, 80
1, 105827, Note_on_c, 0, 71, 0
1, 105827, Note_on_c, 0, 75, 0
1, 105827, Note_on_c, 0, 78, 0
1, 105827, Note_on_c, 0, 82, 0
1, 105840, Note_on_c, 0, 71, 80
1, 105840, Note_on_c, 0, 75, 80
1, 105840, Note_on_c, 0, 80, 80
1, 106523, Note_on_c, 0, 71, 0
1, 106523, Note_on_c, 0, 75, 0
1, 106523, Note_on_c, 0, 80, 0
1, 106800, Note_on_c, 0, 73, 80
1, 106800, Note_on_c, 0, 75, 80
1, 106800, Note_on_c, 0, 78, 80
1, 107027, Note_on_c, 0, 73, 0
1, 107027, Note_on_c, 0, 75, 0
1, 107027, Note_on_c, 0, 78, 0
1, 107040, Note_on_c, 0, 73, 80
1, 107040, Note_on_c, 0, 75, 80
1, 107040, Note_on_c, 0, 80, 80
1, 107267, Note_on_c, 0, 73, 0
1, 107267, Note_on_c, 0, 75, 0
1, 107267, Note_on_c, 0, 80, 0
1, 107280, Note_on_c, 0, 73, 80
1, 107280, Note_on_c, 0, 75, 80
1, 107280, Note_on_c, 0, 80, 80
1, 107507, Note_on_c, 0, 73, 0
1, 107507, Note_on_c, 0, 75, 0
1, 107507, Note_on_c, 0, 80, 0
1, 107520, Note_on_c, 0, 70, 80
1, 107520, Note_on_c, 0, 78, 80
1, 107747, Note_on_c, 0, 70, 0
1, 107747, Note_on_c, 0, 78, 0
1, 107760, Note_on_c, 0, 70, 80
1, 107760, Note_on_c, 0, 75, 80
1, 107987, Note_on_c, 0, 70, 0
1, 107987, Note_on_c, 0, 75, 0
1, 108720, Note_on_c, 0, 78, 80
1, 108839, Note_on_c, 0, 78, 0
1, 108960, Note_on_c, 0, 70, 96
1, 108960, Note_on_c, 0, 75, 96
1, 108960, Note_on_c, 0, 78, 96
1, 108960, Note_on_c, 0, 82, 96
1, 109119, Note_on_c, 0, 70, 0
1, 109119, Note_on_c, 0, 75, 0
1, 109119, Note_on_c, 0, 78, 0
1, 109119, Note_on_c, 0, 82, 0
1, 109200, Note_on_c, 0, 70, 96
1, 109200, Note_on_c, 0, 75, 96
1, 109200, Note_on_c, 0, 78, 96
1, 109200, Note_on_c, 0, 82, 96
1, 109359, Note_on_c, 0, 70, 0
1, 109359, Note_on_c, 0, 75, 0
1, 109359, Note_on_c, 0, 78, 0
1, 109359, Note_on_c, 0, 82, 0
1, 109680, Note_on_c, 0, 82, 96
1, 109680, Note_on_c, 0, 94, 96
1, 109919, Note_on_c, 0, 82, 0
1, 109919, Note_on_c, 0, 94, 0
1, 109920, Note_on_c, 0, 80, 96
1, 109920, Note_on_c, 0, 92, 96
1, 110159, Note_on_c, 0, 80, 0
1, 110159, Note_on_c, 0, 92, 0
1, 110160, Note_on_c, 0, 78, 96
1, 110160, Note_on_c, 0, 90, 96
1, 110399, Note_on_c, 0, 78, 0
1, 110399, Note_on_c, 0, 90, 0
1, 110400, Note_on_c, 0, 77, 96
1, 110400, Note_on_c, 0, 89, 96
1, 110639, Note_on_c, 0, 77, 0
1, 110639, Note_on_c, 0, 89, 0
1, 110640, Note_on_c, 0, 73, 96
1, 110640, Note_on_c, 0, 85, 96
1, 110879, Note_on_c, 0, 73, 0
1, 110879, Note_on_c, 0, 85, 0
1, 110880, Note_on_c, 0, 70, 80
1, 110880, Note_on_c, 0, 73, 80
1, 110880, Note_on_c, 0, 80, 80
1, 111107, Note_on_c, 0, 70, 0
1, 111107, Note_on_c, 0, 73, 0
1, 111107, Note_on_c, 0, 80, 0
1, 111120, Note_on_c, 0, 70, 80
1, 111120, Note_on_c, 0, 73, 80
1, 111120, Note_on_c, 0, 80, 80
1, 111347, Note_on_c, 0, 70, 0
1, 111347, Note_on_c, 0, 73, 0
1, 111347, Note_on_c, 0, 80, 0
1, 111360, Note_on_c, 0, 70, 80
1, 111360, Note_on_c, 0, 78, 80
1, 111587, Note_on_c, 0, 70, 0
1, 111587, Note_on_c, 0, 78, 0
1, 111600, Note_on_c, 0, 70, 80
1, 111600, Note_on_c, 0, 75, 80
1, 111827, Note_on_c, 0, 70, 0
1, 111827, Note_on_c, 0, 75, 0
1, 112920, Note_on_c, 0, 78, 80
1, 113033, Note_on_c, 0, 78, 0
1, 113040, Note_on_c, 0, 78, 80
1, 113153, Note_on_c, 0, 78, 0
1, 113160, Note_on_c, 0, 78, 80
1, 113387, Note_on_c, 0, 78, 0
1, 113400, Note_on_c, 0, 71, 80
1, 113400, Note_on_c, 0, 75, 80
1, 113400, Note_on_c, 0, 80, 80
1, 113741, Note_on_c, 0, 71, 0
1, 113741, Note_on_c, 0, 75, 0
1, 113741, Note_on_c, 0, 80, 0
1, 113760, Note_on_c, 0, 71, 80
1, 113760, Note_on_c, 0, 75, 80
1, 113760, Note_on_c, 0, 82, 80
1, 114215, Note_on_c, 0, 71, 0
1, 114215, Note_on_c, 0, 75, 0
1, 114215, Note_on_c, 0, 82, 0
1, 114480, Note_on_c, 0, 78, 80
1, 114707, Note_on_c, 0, 78, 0
1, 114720, Note_on_c, 0, 70, 80
1, 114720, Note_on_c, 0, 80, 80
1, 114947, Note_on_c, 0, 70, 0
1, 114947, Note_on_c, 0, 80, 0
1, 114960, Note_on_c, 0, 70, 80
1, 114960, Note_on_c, 0, 80, 80
1, 115187, Note_on_c, 0, 70, 0
1, 115187, Note_on_c, 0, 80, 0
1, 115200, Note_on_c, 0, 70, 80
1, 115200, Note_on_c, 0, 78, 80
1, 115427, Note_on_c, 0, 70, 0
1, 115427, Note_on_c, 0, 78, 0
1, 115440, Note_on_c, 0, 75, 80
1, 117035, Note_on_c, 0, 75, 0
1, 117360, Note_on_c, 0, 82, 96
1, 117360, Note_on_c, 0, 94, 96
1, 117599, Note_on_c, 0, 82, 0
1, 117599, Note_on_c, 0, 94, 0
1, 117600, Note_on_c, 0, 80, 96
1, 117600, Note_on_c, 0, 92, 96
1, 117839, Note_on_c, 0, 80, 0
1, 117839, Note_on_c, 0, 92, 0
1, 117840, Note_on_c, 0, 78, 96
1, 117840, Note_on_c, 0, 90, 96
1, 118079, Note_on_c, 0, 78, 0
1, 118079, Note_on_c, 0, 90, 0
1, 118080, Note_on_c, 0, 77, 96
1, 118080, Note_on_c, 0, 89, 96
1, 118319, Note_on_c, 0, 77, 0
1, 118319, Note_on_c, 0, 89, 0
1, 118320, Note_on_c, 0, 73, 96
1, 118320, Note_on_c, 0, 85, 96
1, 118559, Note_on_c, 0, 73, 0
1, 118559, Note_on_c, 0, 85, 0
1, 118560, Note_on_c, 0, 70, 80
1, 118560, Note_on_c, 0, 73, 80
1, 118560, Note_on_c, 0, 80, 80
1, 118787, Note_on_c, 0, 70, 0
1, 118787, Note_on_c, 0, 73, 0
1, 118787, Note_on_c, 0, 80, 0
1, 118800, Note_on_c, 0, 70, 80
1, 118800, Note_on_c, 0, 73, 80
1, 118800, Note_on_c, 0, 80, 80
1, 119027, Note_on_c, 0, 70, 0
1, 119027, Note_on_c, 0, 73, 0
1, 119027, Note_on_c, 0, 80, 0
1, 119040, Note_on_c, 0, 70, 80
1, 119040, Note_on_c, 0, 78, 80
1, 119267, Note_on_c, 0, 70, 0
1, 119267, Note_on_c, 0, 78, 0
1, 119280, Note_on_c, 0, 70, 80
1, 119280, Note_on_c, 0, 75, 80
1, 119507, Note_on_c, 0, 70, 0
1, 119507, Note_on_c, 0, 75, 0
1, 120600, Note_on_c, 0, 78, 80
1, 120713, Note_on_c, 0, 78, 0
1, 120720, Note_on_c, 0, 78, 80
1, 120833, Note_on_c, 0, 78, 0
1, 120840, Note_on_c, 0, 78, 80
1, 120953, Note_on_c, 0, 78, 0
1, 120960, Note_on_c, 0, 71, 80
1, 120960, Note_on_c, 0, 75, 80
1, 120960, Note_on_c, 0, 78, 80
1, 120960, Note_on_c, 0, 82, 80
1, 121187, Note_on_c, 0, 71, 0
1, 121187, Note_on_c, 0, 75, 0
1, 121187, Note_on_c, 0, 78, 0
1, 121187, Note_on_c, 0, 82, 0
1, 121200, Note_on_c, 0, 71, 80
1, 121200, Note_on_c, 0, 75, 80
1, 121200, Note_on_c, 0, 80, 80
1, 121883, Note_on_c, 0, 71, 0
1, 121883, Note_on_c, 0, 75, 0
1, 121883, Note_on_c, 0, 80, 0
1, 122160, Note_on_c, 0, 73, 80
1, 122160, Note_on_c, 0, 75, 80
1, 122160, Note_on_c, 0, 78, 80
1, 122387, Note_on_c, 0, 73, 0
1, 122387, Note_on_c, 0, 75, 0
1, 122387, Note_on_c, 0, 78, 0
1, 122400, Note_on_c, 0, 73, 80
1, 122400, Note_on_c, 0, 75, 80
1, 122400, Note_on_c, 0, 80, 80
1, 122627, Note_on_c, 0, 73, 0
1, 122627, Note_on_c, 0, 75, 0
1, 122627, Note_on_c, 0, 80, 0
1, 122640, Note_on_c, 0, 73, 80
1, 122640, Note_on_c, 0, 75, 80
1, 122640, Note_on_c, 0, 80, 80
1, 122867, Note_on_c, 0, 73, 0
1, 122867, Note_on_c, 0, 75, 0
1, 122867, Note_on_c, 0, 80, 0
1, 122880, Note_on_c, 0, 70, 80
1, 122880, Note_on_c, 0, 78, 80
1, 123107, Note_on_c, 0, 70, 0
1, 123107, Note_on_c, 0, 78, 0
1, 123120, Note_on_c, 0, 70, 80
1, 123120, Note_on_c, 0, 75, 80
1, 123347, Note_on_c, 0, 70, 0
1, 123347, Note_on_c, 0, 75, 0
1, 124080, Note_on_c, 0, 78, 80
1, 124199, Note_on_c, 0, 78, 0
1, 124320, Note_on_c, 0, 70, 96
1, 124320, Note_on_c, 0, 75, 96
1, 124320, Note_on_c, 0, 78, 96
1, 124320, Note_on_c, 0, 82, 96
1, 124439, Note_on_c, 0, 70, 0
1, 124439, Note_on_c, 0, 75, 0
1, 124439, Note_on_c, 0, 78, 0
1, 124439, Note_on_c, 0, 82, 0
1, 124560, Note_on_c, 0, 70, 96
1, 124560, Note_on_c, 0, 75, 96
1, 124560, Note_on_c, 0, 78, 96
1, 124560, Note_on_c, 0, 82, 96
1, 124679, Note_on_c, 0, 70, 0
1, 124679, Note_on_c, 0, 75, 0
1, 124679, Note_on_c, 0, 78, 0
1, 124679, Note_on_c, 0, 82, 0
1, 125040, Note_on_c, 0, 82, 96
1, 125040, Note_on_c, 0, 94, 96
1, 125279, Note_on_c, 0, 82, 0
1, 125279, Note_on_c, 0, 94, 0
1, 125280, Note_on_c, 0, 80, 96
1, 125280, Note_on_c, 0, 92, 96
1, 125519, Note_on_c, 0, 80, 0
1, 125519, Note_on_c, 0, 92, 0
1, 125520, Note_on_c, 0, 78, 96
1, 125520, Note_on_c, 0, 90, 96
1, 125759, Note_on_c, 0, 78, 0
1, 125759, Note_on_c, 0, 90, 0
1, 125760, Note_on_c, 0, 77, 96
1, 125760, Note_on_c, 0, 89, 96
1, 125999, Note_on_c, 0, 77, 0
1, 125999, Note_on_c, 0, 89, 0
1, 126000, Note_on_c, 0, 73, 96
1, 126000, Note_on_c, 0, 85, 96
1, 126239, Note_on_c, 0, 73, 0
1, 126239, Note_on_c, 0, 85, 0
1, 126240, Note_on_c, 0, 70, 80
1, 126240, Note_on_c, 0, 73, 80
1, 126240, Note_on_c, 0, 80, 80
1, 126467, Note_on_c, 0, 70, 0
1, 126467, Note_on_c, 0, 73, 0
1, 126467, Note_on_c, 0, 80, 0
1, 126480, Note_on_c, 0, 70, 80
1, 126480, Note_on_c, 0, 73, 80
1, 126480, Note_on_c, 0, 80, 80
1, 126707, Note_on_c, 0, 70, 0
1, 126707, Note_on_c, 0, 73, 0
1, 126707, Note_on_c, 0, 80, 0
1, 126720, Note_on_c, 0, 70, 80
1, 126720, Note_on_c, 0, 78, 80
1, 126947, Note_on_c, 0, 70, 0
1, 126947, Note_on_c, 0, 78, 0
1, 126960, Note_on_c, 0, 70, 80
1, 126960, Note_on_c, 0, 75, 80
1, 127187, Note_on_c, 0, 70, 0
1, 127187, Note_on_c, 0, 75, 0
1, 128280, Note_on_c, 0, 78, 80
1, 128393, Note_on_c, 0, 78, 0
1, 128400, Note_on_c, 0, 78, 80
1, 128513, Note_on_c, 0, 78, 0
1, 128520, Note_on_c, 0, 78, 80
1, 128747, Note_on_c, 0, 78, 0
1, 128760, Note_on_c, 0, 71, 80
1, 128760, Note_on_c, 0, 75, 80
1, 128760, Note_on_c, 0, 80, 80
1, 129101, Note_on_c, 0, 71, 0
1, 129101, Note_on_c, 0, 75, 0
1, 129101, Note_on_c, 0, 80, 0
1, 129120, Note_on_c, 0, 71, 80
1, 129120, Note_on_c, 0, 75, 80
1, 129120, Note_on_c, 0, 82, 80
1, 129575, Note_on_c, 0, 71, 0
1, 129575, Note_on_c, 0, 75, 0
1, 129575, Note_on_c, 0, 82, 0
1, 129840, Note_on_c, 0, 78, 80
1, 130067, Note_on_c, 0, 78, 0
1, 130080, Note_on_c, 0, 70, 80
1, 130080, Note_on_c, 0, 80, 80
1, 130307, Note_on_c, 0, 70, 0
1, 130307, Note_on_c, 0, 80, 0
1, 130320, Note_on_c, 0, 70, 80
1, 130320, Note_on_c, 0, 80, 80
1, 130547, Note_on_c, 0, 70, 0
1, 130547, Note_on_c, 0, 80, 0
1, 130560, Note_on_c, 0, 70, 80
1, 130560, Note_on_c, 0, 78, 80
1, 130787, Note_on_c, 0, 70, 0
1, 130787, Note_on_c, 0, 78, 0
1, 130800, Note_on_c, 0, 75, 78
1, 131483, Note_on_c, 0, 75, 0
1, 132720, Note_on_c, 0, 71, 64
1, 132783, Note_on_c, 0, 75, 64
1, 132847, Note_on_c, 0, 82, 64
1, 132958, Note_on_c, 0, 75, 0
1, 132958, Note_on_c, 0, 82, 0
1, 132959, Note_on_c, 0, 71, 0
1, 132960, Note_on_c, 0, 80, 64
1, 133187, Note_on_c, 0, 80, 0
1, 133200, Note_on_c, 0, 78, 64
1, 133427, Note_on_c, 0, 78, 0
1, 133440, Note_on_c, 0, 68, 64
1, 133440, Note_on_c, 0, 73, 64
1, 133440, Note_on_c, 0, 77, 64
1, 133667, Note_on_c, 0, 68, 0
1, 133667, Note_on_c, 0, 73, 0
1, 133667, Note_on_c, 0, 77, 0
1, 133680, Note_on_c, 0, 73, 64
1, 133907, Note_on_c, 0, 73, 0
1, 133920, Note_on_c, 0, 70, 64
1, 134147, Note_on_c, 0, 70, 0
1, 134160, Note_on_c, 0, 66, 64
1, 134160, Note_on_c, 0, 70, 64
1, 134160, Note_on_c, 0, 75, 64
1, 135299, Note_on_c, 0, 66, 0
1, 135299, Note_on_c, 0, 70, 0
1, 135299, Note_on_c, 0, 75, 0
1, 136320, Note_on_c, 0, 71, 64
1, 136320, Note_on_c, 0, 75, 64
1, 136320, Note_on_c, 0, 82, 64
1, 137231, Note_on_c, 0, 71, 0
1, 137231, Note_on_c, 0, 75, 0
1, 137231, Note_on_c, 0, 82, 0
1, 137280, Note_on_c, 0, 77, 64
1, 137507, Note_on_c, 0, 77, 0
1, 137520, Note_on_c, 0, 78, 64
1, 137747, Note_on_c, 0, 78, 0
1, 137760, Note_on_c, 0, 80, 64
1, 137987, Note_on_c, 0, 80, 0
1, 138000, Note_on_c, 0, 70, 64
1, 138000, Note_on_c, 0, 78, 64
1, 138960, Note_on_c, 0, 70, 64
1, 138960, Note_on_c, 0, 82, 64
1, 139187, Note_on_c, 0, 70, 0
1, 139187, Note_on_c, 0, 82, 0
1, 139200, Note_on_c, 0, 75, 64
1, 139200, Note_on_c, 0, 87, 64
1, 139319, Note_on_c, 0, 75, 0
1, 139319, Note_on_c, 0, 87, 0
1, 139440, Note_on_c, 0, 77, 64
1, 139440, Note_on_c, 0, 89, 64
1, 139559, Note_on_c, 0, 77, 0
1, 139559, Note_on_c, 0, 89, 0
1, 139680, Note_on_c, 0, 78, 64
1, 139680, Note_on_c, 0, 90, 64
1, 139799, Note_on_c, 0, 78, 0
1, 139799, Note_on_c, 0, 90, 0
1, 139920, Note_on_c, 0, 82, 64
1, 139920, Note_on_c, 0, 94, 64
1, 140039, Note_on_c, 0, 82, 0
1, 140039, Note_on_c, 0, 94, 0
1, 140051, Note_on_c, 0, 70, 0
1, 140051, Note_on_c, 0, 78, 0
1, 140400, Note_on_c, 0, 71, 64
1, 140463, Note_on_c, 0, 75, 64
1, 140527, Note_on_c, 0, 82, 64
1, 140638, Note_on_c, 0, 75, 0
1, 140638, Note_on_c, 0, 82, 0
1, 140639, Note_on_c, 0, 71, 0
1, 140640, Note_on_c, 0, 71, 64
1, 140640, Note_on_c, 0, 80, 64
1, 140867, Note_on_c, 0, 71, 0
1, 140867, Note_on_c, 0, 80, 0
1, 140880, Note_on_c, 0, 78, 64
1, 141107, Note_on_c, 0, 78, 0
1, 141120, Note_on_c, 0, 68, 64
1, 141120, Note_on_c, 0, 73, 64
1, 141120, Note_on_c, 0, 77, 64
1, 141347, Note_on_c, 0, 68, 0
1, 141347, Note_on_c, 0, 73, 0
1, 141347, Note_on_c, 0, 77, 0
1, 141360, Note_on_c, 0, 73, 64
1, 141587, Note_on_c, 0, 73, 0
1, 141600, Note_on_c, 0, 85, 64
1, 141827, Note_on_c, 0, 85, 0
1, 141840, Note_on_c, 0, 70, 64
1, 141840, Note_on_c, 0, 75, 64
1, 141840, Note_on_c, 0, 78, 64
1, 141840, Note_on_c, 0, 82, 64
1, 142979, Note_on_c, 0, 70, 0
1, 142979, Note_on_c, 0, 75, 0
1, 142979, Note_on_c, 0, 78, 0
1, 142979, Note_on_c, 0, 82, 0
1, 143040, Note_on_c, 0, 70, 64
1, 143080, Note_on_c, 0, 70, 0
1, 143081, Note_on_c, 0, 73, 64
1, 143179, Note_on_c, 0, 73, 0
1, 143280, Note_on_c, 0, 75, 64
1, 143399, Note_on_c, 0, 75, 0
1, 143520, Note_on_c, 0, 78, 64
1, 143639, Note_on_c, 0, 78, 0
1, 143760, Note_on_c, 0, 85, 64
1, 143879, Note_on_c, 0, 85, 0
1, 144000, Note_on_c, 0, 71, 64
1, 144050, Note_on_c, 0, 75, 64
1, 144101, Note_on_c, 0, 82, 64
1, 145186, Note_on_c, 0, 75, 0
1, 145186, Note_on_c, 0, 82, 0
1, 145187, Note_on_c, 0, 71, 0
1, 145200, Note_on_c, 0, 80, 64
1, 145427, Note_on_c, 0, 80, 0
1, 145440, Note_on_c, 0, 78, 64
1, 145667, Note_on_c, 0, 78, 0
1, 145680, Note_on_c, 0, 75, 64
1, 147731, Note_on_c, 0, 75, 0
2, 0, Note_on_c, 0, 59, 64
2, 0, Note_on_c, 0, 63, 64
2, 0, Note_on_c, 0, 66, 64
2, 911, Note_on_c, 0, 59, 0
2, 911, Note_on_c, 0, 63, 0
2, 911, Note_on_c, 0, 66, 0
2, 960, Note_on_c, 0, 61, 64
2, 960, Note_on_c, 0, 65, 64
2, 960, Note_on_c, 0, 68, 64
2, 1643, Note_on_c, 0, 61, 0
2, 1643, Note_on_c, 0, 65, 0
2, 1643, Note_on_c, 0, 68, 0
2, 1680, Note_on_c, 0, 63, 64
2, 1680, Note_on_c, 0, 66, 64
2, 3731, Note_on_c, 0, 63, 0
2, 3731, Note_on_c, 0, 66, 0
2, 3840, Note_on_c, 0, 59, 64
2, 3840, Note_on_c, 0, 63, 64
2, 3840, Note_on_c, 0, 66, 64
2, 4751, Note_on_c, 0, 59, 0
2, 4751, Note_on_c, 0, 63, 0
2, 4751, Note_on_c, 0, 66, 0
2, 4800, Note_on_c, 0, 61, 64
2, 4800, Note_on_c, 0, 65, 64
2, 4800, Note_on_c, 0, 68, 64
2, 5483, Note_on_c, 0, 61, 0
2, 5483, Note_on_c, 0, 65, 0
2, 5483, Note_on_c, 0, 68, 0
2, 5520, Note_on_c, 0, 63, 64
2, 5520, Note_on_c, 0, 66, 64
2, 5520, Note_on_c, 0, 70, 64
2, 7571, Note_on_c, 0, 63, 0
2, 7571, Note_on_c, 0, 66, 0
2, 7571, Note_on_c, 0, 70, 0
2, 7680, Note_on_c, 0, 59, 64
2, 7680, Note_on_c, 0, 63, 64
2, 7680, Note_on_c, 0, 66, 64
2, 8591, Note_on_c, 0, 59, 0
2, 8591, Note_on_c, 0, 63, 0
2, 8591, Note_on_c, 0, 66, 0
2, 8640, Note_on_c, 0, 61, 64
2, 8640, Note_on_c, 0, 65, 64
2, 8640, Note_on_c, 0, 68, 64
2, 9323, Note_on_c, 0, 61, 0
2, 9323, Note_on_c, 0, 65, 0
2, 9323, Note_on_c, 0, 68, 0
2, 9360, Note_on_c, 0, 63, 64
2, 9360, Note_on_c, 0, 66, 64
2, 11411, Note_on_c, 0, 63, 0
2, 11411, Note_on_c, 0, 66, 0
2, 11520, Note_on_c, 0, 59, 64
2, 11583, Note_on_c, 0, 63, 64
2, 11647, Note_on_c, 0, 66, 64
2, 12478, Note_on_c, 0, 63, 0
2, 12478, Note_on_c, 0, 66, 0
2, 12479, Note_on_c, 0, 59, 0
2, 12480, Note_on_c, 0, 61, 64
2, 12480, Note_on_c, 0, 65, 64
2, 12480, Note_on_c, 0, 68, 64
2, 13163, Note_on_c, 0, 61, 0
2, 13163, Note_on_c, 0, 65, 0
2, 13163, Note_on_c, 0, 68, 0
2, 13200, Note_on_c, 0, 63, 64
2, 13200, Note_on_c, 0, 66, 64
2, 13200, Note_on_c, 0, 70, 64
2, 15251, Note_on_c, 0, 63, 0
2, 15251, Note_on_c, 0, 66, 0
2, 15251, Note_on_c, 0, 70, 0
2, 15360, Note_on_c, 0, 59, 64
2, 15360, Note_on_c, 0, 63, 64
2, 15360, Note_on_c, 0, 66, 64
2, 15360, Note_on_c, 0, 70, 64
2, 16271, Note_on_c, 0, 59, 0
2, 16271, Note_on_c, 0, 63, 0
2, 16271, Note_on_c, 0, 66, 0
2, 16271, Note_on_c, 0, 70, 0
2, 16320, Note_on_c, 0, 61, 64
2, 16320, Note_on_c, 0, 65, 64
2, 16320, Note_on_c, 0, 68, 64
2, 17003, Note_on_c, 0, 61, 0
2, 17003, Note_on_c, 0, 65, 0
2, 17003, Note_on_c, 0, 68, 0
2, 17040, Note_on_c, 0, 63, 64
2, 17040, Note_on_c, 0, 66, 64
2, 17040, Note_on_c, 0, 70, 64
2, 19091, Note_on_c, 0, 63, 0
2, 19091, Note_on_c, 0, 66, 0
2, 19091, Note_on_c, 0, 70, 0
2, 19200, Note_on_c, 0, 59, 64
2, 19200, Note_on_c, 0, 63, 64
2, 19200, Note_on_c, 0, 66, 64
2, 19200, Note_on_c, 0, 70, 64
2, 20111, Note_on_c, 0, 59, 0
2, 20111, Note_on_c, 0, 63, 0
2, 20111, Note_on_c, 0, 66, 0
2, 20111, Note_on_c, 0, 70, 0
2, 20160, Note_on_c, 0, 61, 64
2, 20160, Note_on_c, 0, 65, 64
2, 20160, Note_on_c, 0, 68, 64
2, 20843, Note_on_c, 0, 61, 0
2, 20843, Note_on_c, 0, 65, 0
2, 20843, Note_on_c, 0, 68, 0
2, 20880, Note_on_c, 0, 63, 64
2, 20880, Note_on_c, 0, 66, 64
2, 20880, Note_on_c, 0, 70, 64
2, 22247, Note_on_c, 0, 63, 0
2, 22247, Note_on_c, 0, 66, 0
2, 22247, Note_on_c, 0, 70, 0
2, 22320, Note_on_c, 0, 66, 64
2, 22547, Note_on_c, 0, 66, 0
2, 22560, Note_on_c, 0, 70, 64
2, 22787, Note_on_c, 0, 70, 0
2, 22800, Note_on_c, 0, 63, 64
2, 23027, Note_on_c, 0, 63, 0
2, 23040, Note_on_c, 0, 59, 64
2, 23040, Note_on_c, 0, 63, 64
2, 23040, Note_on_c, 0, 66, 64
2, 23040, Note_on_c, 0, 70, 64
2, 23951, Note_on_c, 0, 59, 0
2, 23951, Note_on_c, 0, 63, 0
2, 23951, Note_on_c, 0, 66, 0
2, 23951, Note_on_c, 0, 70, 0
2, 24000, Note_on_c, 0, 61, 64
2, 24000, Note_on_c, 0, 65, 64
2, 24000, Note_on_c, 0, 68, 64
2, 24683, Note_on_c, 0, 61, 0
2, 24683, Note_on_c, 0, 65, 0
2, 24683, Note_on_c, 0, 68, 0
2, 24720, Note_on_c, 0, 63, 64
2, 24720, Note_on_c, 0, 66, 64
2, 24720, Note_on_c, 0, 70, 64
2, 25859, Note_on_c, 0, 63, 0
2, 25859, Note_on_c, 0, 66, 0
2, 25859, Note_on_c, 0, 70, 0
2, 26400, Note_on_c, 0, 66, 64
2, 26855, Note_on_c, 0, 66, 0
2, 26880, Note_on_c, 0, 59, 64
2, 26880, Note_on_c, 0, 63, 64
2, 26880, Note_on_c, 0, 66, 64
2, 27791, Note_on_c, 0, 59, 0
2, 27791, Note_on_c, 0, 63, 0
2, 27791, Note_on_c, 0, 66, 0
2, 27840, Note_on_c, 0, 61, 64
2, 27840, Note_on_c, 0, 65, 64
2, 27840, Note_on_c, 0, 68, 64
2, 28523, Note_on_c, 0, 61, 0
2, 28523, Note_on_c, 0, 65, 0
2, 28523, Note_on_c, 0, 68, 0
2, 28560, Note_on_c, 0, 63, 64
2, 28560, Note_on_c, 0, 66, 64
2, 29243, Note_on_c, 0, 63, 0
2, 29243, Note_on_c, 0, 66, 0
2, 29280, Note_on_c, 0, 66, 64
2, 29735, Note_on_c, 0, 66, 0
2, 29760, Note_on_c, 0, 70, 64
2, 29987, Note_on_c, 0, 70, 0
2, 30000, Note_on_c, 0, 66, 64
2, 30227, Note_on_c, 0, 66, 0
2, 30240, Note_on_c, 0, 63, 64
2, 30353, Note_on_c, 0, 63, 0
2, 30360, Note_on_c, 0, 58, 64
2, 30473, Note_on_c, 0, 58, 0
2, 30480, Note_on_c, 0, 54, 64
2, 30593, Note_on_c, 0, 54, 0
2, 30600, Note_on_c, 0, 51, 64
2, 30713, Note_on_c, 0, 51, 0
2, 30720, Note_on_c, 0, 47, 64
2, 30833, Note_on_c, 0, 47, 0
2, 30840, Note_on_c, 0, 54, 64
2, 30953, Note_on_c, 0, 54, 0
2, 30960, Note_on_c, 0, 59, 64
2, 31073, Note_on_c, 0, 59, 0
2, 31080, Note_on_c, 0, 63, 64
2, 31193, Note_on_c, 0, 63, 0
2, 31200, Note_on_c, 0, 66, 64
2, 31541, Note_on_c, 0, 66, 0
2, 31560, Note_on_c, 0, 47, 64
2, 31673, Note_on_c, 0, 47, 0
2, 31680, Note_on_c, 0, 49, 64
2, 31793, Note_on_c, 0, 49, 0
2, 31800, Note_on_c, 0, 56, 64
2, 31913, Note_on_c, 0, 56, 0
2, 31920, Note_on_c, 0, 61, 64
2, 32033, Note_on_c, 0, 61, 0
2, 32040, Note_on_c, 0, 65, 64
2, 32153, Note_on_c, 0, 65, 0
2, 32160, Note_on_c, 0, 68, 64
2, 32387, Note_on_c, 0, 68, 0
2, 32400, Note_on_c, 0, 51, 64
2, 32969, Note_on_c, 0, 51, 0
2, 33000, Note_on_c, 0, 58, 64
2, 33113, Note_on_c, 0, 58, 0
2, 33120, Note_on_c, 0, 63, 64
2, 33233, Note_on_c, 0, 63, 0
2, 33240, Note_on_c, 0, 66, 64
2, 33353, Note_on_c, 0, 66, 0
2, 33720, Note_on_c, 0, 58, 64
2, 33833, Note_on_c, 0, 58, 0
2, 33840, Note_on_c, 0, 63, 64
2, 33953, Note_on_c, 0, 63, 0
2, 33960, Note_on_c, 0, 51, 64
2, 34073, Note_on_c, 0, 51, 0
2, 34080, Note_on_c, 0, 58, 64
2, 34307, Note_on_c, 0, 58, 0
2, 34320, Note_on_c, 0, 51, 64
2, 34547, Note_on_c, 0, 51, 0
2, 34560, Note_on_c, 0, 47, 64
2, 34673, Note_on_c, 0, 47, 0
2, 34680, Note_on_c, 0, 54, 64
2, 34793, Note_on_c, 0, 54, 0
2, 34800, Note_on_c, 0, 59, 64
2, 34913, Note_on_c, 0, 59, 0
2, 34920, Note_on_c, 0, 63, 64
2, 35033, Note_on_c, 0, 63, 0
2, 35040, Note_on_c, 0, 66, 64
2, 35381, Note_on_c, 0, 66, 0
2, 35400, Note_on_c, 0, 47, 64
2, 35513, Note_on_c, 0, 47, 0
2, 35520, Note_on_c, 0, 49, 64
2, 35633, Note_on_c, 0, 49, 0
2, 35640, Note_on_c, 0, 56, 64
2, 35753, Note_on_c, 0, 56, 0
2, 35760, Note_on_c, 0, 61, 64
2, 35873, Note_on_c, 0, 61, 0
2, 35880, Note_on_c, 0, 65, 64
2, 35993, Note_on_c, 0, 65, 0
2, 36000, Note_on_c, 0, 68, 64
2, 36227, Note_on_c, 0, 68, 0
2, 36240, Note_on_c, 0, 49, 64
2, 36467, Note_on_c, 0, 49, 0
2, 36480, Note_on_c, 0, 51, 64
2, 36821, Note_on_c, 0, 51, 0
2, 36840, Note_on_c, 0, 58, 64
2, 36953, Note_on_c, 0, 58, 0
2, 36960, Note_on_c, 0, 63, 64
2, 37415, Note_on_c, 0, 63, 0
2, 37560, Note_on_c, 0, 58, 64
2, 37673, Note_on_c, 0, 58, 0
2, 37680, Note_on_c, 0, 63, 64
2, 37793, Note_on_c, 0, 63, 0
2, 37800, Note_on_c, 0, 51, 64
2, 37913, Note_on_c, 0, 51, 0
2, 37920, Note_on_c, 0, 58, 64
2, 38033, Note_on_c, 0, 58, 0
2, 38040, Note_on_c, 0, 63, 64
2, 38153, Note_on_c, 0, 63, 0
2, 38160, Note_on_c, 0, 51, 64
2, 38387, Note_on_c, 0, 51, 0
2, 38400, Note_on_c, 0, 47, 64
2, 38513, Note_on_c, 0, 47, 0
2, 38520, Note_on_c, 0, 54, 64
2, 38633, Note_on_c, 0, 54, 0
2, 38640, Note_on_c, 0, 59, 64
2, 38753, Note_on_c, 0, 59, 0
2, 38760, Note_on_c, 0, 63, 64
2, 38873, Note_on_c, 0, 63, 0
2, 38880, Note_on_c, 0, 66, 64
2, 39221, Note_on_c, 0, 66, 0
2, 39240, Note_on_c, 0, 47, 64
2, 39353, Note_on_c, 0, 47, 0
2, 39360, Note_on_c, 0, 49, 64
2, 39473, Note_on_c, 0, 49, 0
2, 39480, Note_on_c, 0, 56, 64
2, 39593, Note_on_c, 0, 56, 0
2, 39600, Note_on_c, 0, 61, 64
2, 39713, Note_on_c, 0, 61, 0
2, 39720, Note_on_c, 0, 65, 64
2, 39833, Note_on_c, 0, 65, 0
2, 39840, Note_on_c, 0, 68, 64
2, 40067, Note_on_c, 0, 68, 0
2, 40080, Note_on_c, 0, 51, 64
2, 40649, Note_on_c, 0, 51, 0
2, 40680, Note_on_c, 0, 58, 64
2, 40793, Note_on_c, 0, 58, 0
2, 40800, Note_on_c, 0, 63, 64
2, 41255, Note_on_c, 0, 63, 0
2, 41640, Note_on_c, 0, 58, 64
2, 41753, Note_on_c, 0, 58, 0
2, 41760, Note_on_c, 0, 63, 64
2, 41987, Note_on_c, 0, 63, 0
2, 42000, Note_on_c, 0, 51, 64
2, 42227, Note_on_c, 0, 51, 0
2, 42240, Note_on_c, 0, 47, 64
2, 42240, Note_on_c, 0, 54, 64
2, 42240, Note_on_c, 0, 58, 64
2, 43151, Note_on_c, 0, 47, 0
2, 43151, Note_on_c, 0, 54, 0
2, 43151, Note_on_c, 0, 58, 0
2, 43200, Note_on_c, 0, 49, 64
2, 43200, Note_on_c, 0, 56, 64
2, 43200, Note_on_c, 0, 61, 64
2, 43883, Note_on_c, 0, 49, 0
2, 43883, Note_on_c, 0, 56, 0
2, 43883, Note_on_c, 0, 61, 0
2, 43920, Note_on_c, 0, 51, 64
2, 43920, Note_on_c, 0, 54, 64
2, 43920, Note_on_c, 0, 58, 64
2, 43920, Note_on_c, 0, 61, 64
2, 44375, Note_on_c, 0, 51, 0
2, 44375, Note_on_c, 0, 54, 0
2, 44375, Note_on_c, 0, 58, 0
2, 44375, Note_on_c, 0, 61, 0
2, 44400, Note_on_c, 0, 58, 64
2, 44627, Note_on_c, 0, 58, 0
2, 44640, Note_on_c, 0, 63, 64
2, 45095, Note_on_c, 0, 63, 0
2, 45480, Note_on_c, 0, 58, 64
2, 45593, Note_on_c, 0, 58, 0
2, 45600, Note_on_c, 0, 63, 64
2, 45827, Note_on_c, 0, 63, 0
2, 45840, Note_on_c, 0, 51, 64
2, 46067, Note_on_c, 0, 51, 0
2, 46080, Note_on_c, 0, 39, 80
2, 46080, Note_on_c, 0, 51, 80
2, 46535, Note_on_c, 0, 39, 0
2, 46535, Note_on_c, 0, 51, 0
2, 46560, Note_on_c, 0, 51, 80
2, 46560, Note_on_c, 0, 54, 80
2, 46560, Note_on_c, 0, 58, 80
2, 46560, Note_on_c, 0, 63, 80
2, 46787, Note_on_c, 0, 51, 0
2, 46787, Note_on_c, 0, 54, 0
2, 46787, Note_on_c, 0, 58, 0
2, 46787, Note_on_c, 0, 63, 0
2, 46800, Note_on_c, 0, 39, 80
2, 46800, Note_on_c, 0, 51, 80
2, 47027, Note_on_c, 0, 39, 0
2, 47027, Note_on_c, 0, 51, 0
2, 47280, Note_on_c, 0, 39, 80
2, 47280, Note_on_c, 0, 51, 80
2, 47507, Note_on_c, 0, 39, 0
2, 47507, Note_on_c, 0, 51, 0
2, 47520, Note_on_c, 0, 51, 80
2, 47520, Note_on_c, 0, 54, 80
2, 47520, Note_on_c, 0, 58, 80
2, 47520, Note_on_c, 0, 63, 80
2, 47747, Note_on_c, 0, 51, 0
2, 47747, Note_on_c, 0, 54, 0
2, 47747, Note_on_c, 0, 58, 0
2, 47747, Note_on_c, 0, 63, 0
2, 47760, Note_on_c, 0, 39, 80
2, 47760, Note_on_c, 0, 51, 80
2, 47987, Note_on_c, 0, 39, 0
2, 47987, Note_on_c, 0, 51, 0
2, 48000, Note_on_c, 0, 32, 80
2, 48000, Note_on_c, 0, 44, 80
2, 48455, Note_on_c, 0, 32, 0
2, 48455, Note_on_c, 0, 44, 0
2, 48480, Note_on_c, 0, 51, 80
2, 48480, Note_on_c, 0, 54, 80
2, 48480, Note_on_c, 0, 60, 80
2, 48707, Note_on_c, 0, 51, 0
2, 48707, Note_on_c, 0, 54, 0
2, 48707, Note_on_c, 0, 60, 0
2, 48720, Note_on_c, 0, 44, 80
2, 48720, Note_on_c, 0, 56, 80
2, 48947, Note_on_c, 0, 44, 0
2, 48947, Note_on_c, 0, 56, 0
2, 49200, Note_on_c, 0, 44, 80
2, 49200, Note_on_c, 0, 51, 80
2, 49200, Note_on_c, 0, 56, 80
2, 49427, Note_on_c, 0, 44, 0
2, 49427, Note_on_c, 0, 51, 0
2, 49427, Note_on_c, 0, 56, 0
2, 49440, Note_on_c, 0, 51, 80
2, 49440, Note_on_c, 0, 56, 80
2, 49440, Note_on_c, 0, 60, 80
2, 49667, Note_on_c, 0, 51, 0
2, 49667, Note_on_c, 0, 56, 0
2, 49667, Note_on_c, 0, 60, 0
2, 49680, Note_on_c, 0, 44, 80
2, 49680, Note_on_c, 0, 51, 80
2, 49680, Note_on_c, 0, 56, 80
2, 49907, Note_on_c, 0, 44, 0
2, 49907, Note_on_c, 0, 51, 0
2, 49907, Note_on_c, 0, 56, 0
2, 49920, Note_on_c, 0, 41, 80
2, 49920, Note_on_c, 0, 48, 80
2, 49920, Note_on_c, 0, 53, 80
2, 50375, Note_on_c, 0, 41, 0
2, 50375, Note_on_c, 0, 48, 0
2, 50375, Note_on_c, 0, 53, 0
2, 50400, Note_on_c, 0, 53, 80
2, 50400, Note_on_c, 0, 56, 80
2, 50400, Note_on_c, 0, 60, 80
2, 50400, Note_on_c, 0, 63, 80
2, 50627, Note_on_c, 0, 53, 0
2, 50627, Note_on_c, 0, 56, 0
2, 50627, Note_on_c, 0, 60, 0
2, 50627, Note_on_c, 0, 63, 0
2, 50640, Note_on_c, 0, 41, 80
2, 50640, Note_on_c, 0, 53, 80
2, 50867, Note_on_c, 0, 41, 0
2, 50867, Note_on_c, 0, 53, 0
2, 51120, Note_on_c, 0, 41, 80
2, 51120, Note_on_c, 0, 53, 80
2, 51347, Note_on_c, 0, 41, 0
2, 51347, Note_on_c, 0, 53, 0
2, 51360, Note_on_c, 0, 53, 80
2, 51360, Note_on_c, 0, 56, 80
2, 51360, Note_on_c, 0, 60, 80
2, 51360, Note_on_c, 0, 63, 80
2, 51587, Note_on_c, 0, 53, 0
2, 51587, Note_on_c, 0, 56, 0
2, 51587, Note_on_c, 0, 60, 0
2, 51587, Note_on_c, 0, 63, 0
2, 51600, Note_on_c, 0, 41, 80
2, 51600, Note_on_c, 0, 53, 80
2, 51827, Note_on_c, 0, 41, 0
2, 51827, Note_on_c, 0, 53, 0
2, 51840, Note_on_c, 0, 39, 80
2, 51840, Note_on_c, 0, 51, 80
2, 52295, Note_on_c, 0, 39, 0
2, 52295, Note_on_c, 0, 51, 0
2, 52320, Note_on_c, 0, 51, 80
2, 52320, Note_on_c, 0, 54, 80
2, 52320, Note_on_c, 0, 58, 80
2, 52320, Note_on_c, 0, 63, 80
2, 52547, Note_on_c, 0, 51, 0
2, 52547, Note_on_c, 0, 54, 0
2, 52547, Note_on_c, 0, 58, 0
2, 52547, Note_on_c, 0, 63, 0
2, 52560, Note_on_c, 0, 39, 80
2, 52560, Note_on_c, 0, 51, 80
2, 52787, Note_on_c, 0, 39, 0
2, 52787, Note_on_c, 0, 51, 0
2, 53040, Note_on_c, 0, 39, 80
2, 53040, Note_on_c, 0, 51, 80
2, 53267, Note_on_c, 0, 39, 0
2, 53267, Note_on_c, 0, 51, 0
2, 53280, Note_on_c, 0, 51, 80
2, 53280, Note_on_c, 0, 54, 80
2, 53280, Note_on_c, 0, 58, 80
2, 53280, Note_on_c, 0, 63, 80
2, 53507, Note_on_c, 0, 51, 0
2, 53507, Note_on_c, 0, 54, 0
2, 53507, Note_on_c, 0, 58, 0
2, 53507, Note_on_c, 0, 63, 0
2, 53520, Note_on_c, 0, 39, 80
2, 53520, Note_on_c, 0, 51, 80
2, 53747, Note_on_c, 0, 39, 0
2, 53747, Note_on_c, 0, 51, 0
2, 53760, Note_on_c, 0, 44, 80
2, 53760, Note_on_c, 0, 49, 80
2, 53760, Note_on_c, 0, 56, 80
2, 54101, Note_on_c, 0, 44, 0
2, 54101, Note_on_c, 0, 49, 0
2, 54101, Note_on_c, 0, 56, 0
2, 54120, Note_on_c, 0, 51, 80
2, 54233, Note_on_c, 0, 51, 0
2, 54240, Note_on_c, 0, 56, 80
2, 54467, Note_on_c, 0, 56, 0
2, 54480, Note_on_c, 0, 44, 80
2, 54480, Note_on_c, 0, 51, 80
2, 54480, Note_on_c, 0, 56, 80
2, 54707, Note_on_c, 0, 44, 0
2, 54707, Note_on_c, 0, 51, 0
2, 54707, Note_on_c, 0, 56, 0
2, 54960, Note_on_c, 0, 44, 80
2, 54960, Note_on_c, 0, 51, 80
2, 54960, Note_on_c, 0, 56, 80
2, 55187, Note_on_c, 0, 44, 0
2, 55187, Note_on_c, 0, 51, 0
2, 55187, Note_on_c, 0, 56, 0
2, 55200, Note_on_c, 0, 44, 80
2, 55200, Note_on_c, 0, 56, 80
2, 55655, Note_on_c, 0, 44, 0
2, 55655, Note_on_c, 0, 56, 0
2, 55680, Note_on_c, 0, 41, 80
2, 55680, Note_on_c, 0, 48, 80
2, 55680, Note_on_c, 0, 53, 80
2, 56135, Note_on_c, 0, 41, 0
2, 56135, Note_on_c, 0, 48, 0
2, 56135, Note_on_c, 0, 53, 0
2, 56160, Note_on_c, 0, 53, 80
2, 56160, Note_on_c, 0, 56, 80
2, 56160, Note_on_c, 0, 60, 80
2, 56160, Note_on_c, 0, 63, 80
2, 56387, Note_on_c, 0, 53, 0
2, 56387, Note_on_c, 0, 56, 0
2, 56387, Note_on_c, 0, 60, 0
2, 56387, Note_on_c, 0, 63, 0
2, 56400, Note_on_c, 0, 41, 80
2, 56400, Note_on_c, 0, 53, 80
2, 56627, Note_on_c, 0, 41, 0
2, 56627, Note_on_c, 0, 53, 0
2, 57600, Note_on_c, 0, 35, 96
2, 57600, Note_on_c, 0, 47, 96
2, 57941, Note_on_c, 0, 35, 0
2, 57941, Note_on_c, 0, 47, 0
2, 57960, Note_on_c, 0, 54, 96
2, 58073, Note_on_c, 0, 54, 0
2, 58080, Note_on_c, 0, 59, 96
2, 58307, Note_on_c, 0, 59, 0
2, 58320, Note_on_c, 0, 47, 96
2, 58320, Note_on_c, 0, 54, 96
2, 58547, Note_on_c, 0, 47, 0
2, 58547, Note_on_c, 0, 54, 0
2, 58560, Note_on_c, 0, 37, 96
2, 58560, Note_on_c, 0, 49, 96
2, 58901, Note_on_c, 0, 37, 0
2, 58901, Note_on_c, 0, 49, 0
2, 58920, Note_on_c, 0, 49, 96
2, 58920, Note_on_c, 0, 56, 96
2, 59033, Note_on_c, 0, 49, 0
2, 59033, Note_on_c, 0, 56, 0
2, 59040, Note_on_c, 0, 61, 96
2, 59267, Note_on_c, 0, 61, 0
2, 59280, Note_on_c, 0, 39, 96
2, 59280, Note_on_c, 0, 51, 96
2, 59735, Note_on_c, 0, 39, 0
2, 59735, Note_on_c, 0, 51, 0
2, 59760, Note_on_c, 0, 51, 96
2, 59760, Note_on_c, 0, 54, 96
2, 59760, Note_on_c, 0, 58, 96
2, 59873, Note_on_c, 0, 51, 0
2, 59873, Note_on_c, 0, 54, 0
2, 59873, Note_on_c, 0, 58, 0
2, 59880, Note_on_c, 0, 63, 96
2, 59993, Note_on_c, 0, 63, 0
2, 60000, Note_on_c, 0, 51, 96
2, 60000, Note_on_c, 0, 54, 96
2, 60000, Note_on_c, 0, 58, 96
2, 60227, Note_on_c, 0, 51, 0
2, 60227, Note_on_c, 0, 54, 0
2, 60227, Note_on_c, 0, 58, 0
2, 60240, Note_on_c, 0, 39, 96
2, 60240, Note_on_c, 0, 51, 96
2, 60467, Note_on_c, 0, 39, 0
2, 60467, Note_on_c, 0, 51, 0
2, 60720, Note_on_c, 0, 54, 96
2, 60720, Note_on_c, 0, 58, 96
2, 60947, Note_on_c, 0, 54, 0
2, 60947, Note_on_c, 0, 58, 0
2, 60960, Note_on_c, 0, 63, 96
2, 61187, Note_on_c, 0, 63, 0
2, 61200, Note_on_c, 0, 51, 96
2, 61200, Note_on_c, 0, 54, 96
2, 61427, Note_on_c, 0, 51, 0
2, 61427, Note_on_c, 0, 54, 0
2, 61440, Note_on_c, 0, 35, 96
2, 61440, Note_on_c, 0, 47, 96
2, 61895, Note_on_c, 0, 35, 0
2, 61895, Note_on_c, 0, 47, 0
2, 61920, Note_on_c, 0, 54, 96
2, 61920, Note_on_c, 0, 59, 96
2, 61920, Note_on_c, 0, 63, 96
2, 62147, Note_on_c, 0, 54, 0
2, 62147, Note_on_c, 0, 59, 0
2, 62147, Note_on_c, 0, 63, 0
2, 62160, Note_on_c, 0, 35, 96
2, 62160, Note_on_c, 0, 47, 96
2, 62387, Note_on_c, 0, 35, 0
2, 62387, Note_on_c, 0, 47, 0
2, 62400, Note_on_c, 0, 37, 96
2, 62400, Note_on_c, 0, 49, 96
2, 62741, Note_on_c, 0, 37, 0
2, 62741, Note_on_c, 0, 49, 0
2, 62760, Note_on_c, 0, 49, 96
2, 62760, Note_on_c, 0, 56, 96
2, 62873, Note_on_c, 0, 49, 0
2, 62873, Note_on_c, 0, 56, 0
2, 62880, Note_on_c, 0, 61, 96
2, 63107, Note_on_c, 0, 61, 0
2, 63120, Note_on_c, 0, 49, 96
2, 63347, Note_on_c, 0, 49, 0
2, 63360, Note_on_c, 0, 39, 96
2, 63360, Note_on_c, 0, 51, 96
2, 63815, Note_on_c, 0, 39, 0
2, 63815, Note_on_c, 0, 51, 0
2, 63840, Note_on_c, 0, 51, 96
2, 63840, Note_on_c, 0, 54, 96
2, 63840, Note_on_c, 0, 58, 96
2, 63840, Note_on_c, 0, 63, 96
2, 64067, Note_on_c, 0, 51, 0
2, 64067, Note_on_c, 0, 54, 0
2, 64067, Note_on_c, 0, 58, 0
2, 64067, Note_on_c, 0, 63, 0
2, 64080, Note_on_c, 0, 39, 96
2, 64080, Note_on_c, 0, 51, 96
2, 64307, Note_on_c, 0, 39, 0
2, 64307, Note_on_c, 0, 51, 0
2, 64560, Note_on_c, 0, 39, 96
2, 64560, Note_on_c, 0, 51, 96
2, 64787, Note_on_c, 0, 39, 0
2, 64787, Note_on_c, 0, 51, 0
2, 64800, Note_on_c, 0, 51, 96
2, 64800, Note_on_c, 0, 54, 96
2, 64800, Note_on_c, 0, 58, 96
2, 64800, Note_on_c, 0, 63, 96
2, 65027, Note_on_c, 0, 51, 0
2, 65027, Note_on_c, 0, 54, 0
2, 65027, Note_on_c, 0, 58, 0
2, 65027, Note_on_c, 0, 63, 0
2, 65040, Note_on_c, 0, 39, 96
2, 65040, Note_on_c, 0, 51, 96
2, 65267, Note_on_c, 0, 39, 0
2, 65267, Note_on_c, 0, 51, 0
2, 65280, Note_on_c, 0, 35, 96
2, 65280, Note_on_c, 0, 47, 96
2, 65621, Note_on_c, 0, 35, 0
2, 65621, Note_on_c, 0, 47, 0
2, 65640, Note_on_c, 0, 54, 96
2, 65753, Note_on_c, 0, 54, 0
2, 65760, Note_on_c, 0, 59, 96
2, 65987, Note_on_c, 0, 59, 0
2, 66000, Note_on_c, 0, 47, 96
2, 66000, Note_on_c, 0, 54, 96
2, 66227, Note_on_c, 0, 47, 0
2, 66227, Note_on_c, 0, 54, 0
2, 66240, Note_on_c, 0, 37, 96
2, 66240, Note_on_c, 0, 49, 96
2, 66581, Note_on_c, 0, 37, 0
2, 66581, Note_on_c, 0, 49, 0
2, 66600, Note_on_c, 0, 49, 96
2, 66600, Note_on_c, 0, 56, 96
2, 66713, Note_on_c, 0, 49, 0
2, 66713, Note_on_c, 0, 56, 0
2, 66720, Note_on_c, 0, 61, 96
2, 66947, Note_on_c, 0, 61, 0
2, 66960, Note_on_c, 0, 49, 96
2, 67187, Note_on_c, 0, 49, 0
2, 67200, Note_on_c, 0, 39, 96
2, 67200, Note_on_c, 0, 51, 96
2, 67541, Note_on_c, 0, 39, 0
2, 67541, Note_on_c, 0, 51, 0
2, 67560, Note_on_c, 0, 58, 96
2, 67673, Note_on_c, 0, 58, 0
2, 67680, Note_on_c, 0, 63, 96
2, 67907, Note_on_c, 0, 63, 0
2, 67920, Note_on_c, 0, 54, 96
2, 67920, Note_on_c, 0, 58, 96
2, 68147, Note_on_c, 0, 54, 0
2, 68147, Note_on_c, 0, 58, 0
2, 68400, Note_on_c, 0, 54, 96
2, 68400, Note_on_c, 0, 58, 96
2, 68627, Note_on_c, 0, 54, 0
2, 68627, Note_on_c, 0, 58, 0
2, 68640, Note_on_c, 0, 63, 96
2, 68867, Note_on_c, 0, 63, 0
2, 68880, Note_on_c, 0, 51, 96
2, 68880, Note_on_c, 0, 54, 96
2, 69107, Note_on_c, 0, 51, 0
2, 69107, Note_on_c, 0, 54, 0
2, 69120, Note_on_c, 0, 35, 96
2, 69120, Note_on_c, 0, 47, 96
2, 69461, Note_on_c, 0, 35, 0
2, 69461, Note_on_c, 0, 47, 0
2, 69480, Note_on_c, 0, 54, 96
2, 69593, Note_on_c, 0, 54, 0
2, 69600, Note_on_c, 0, 47, 96
2, 69600, Note_on_c, 0, 59, 96
2, 69827, Note_on_c, 0, 47, 0
2, 69827, Note_on_c, 0, 59, 0
2, 69840, Note_on_c, 0, 47, 96
2, 70067, Note_on_c, 0, 47, 0
2, 70080, Note_on_c, 0, 37, 96
2, 70080, Note_on_c, 0, 49, 96
2, 70535, Note_on_c, 0, 37, 0
2, 70535, Note_on_c, 0, 49, 0
2, 70560, Note_on_c, 0, 61, 96
2, 70787, Note_on_c, 0, 61, 0
2, 70800, Note_on_c, 0, 37, 96
2, 70800, Note_on_c, 0, 49, 96
2, 71027, Note_on_c, 0, 37, 0
2, 71027, Note_on_c, 0, 49, 0
2, 71040, Note_on_c, 0, 39, 96
2, 71040, Note_on_c, 0, 51, 96
2, 71495, Note_on_c, 0, 39, 0
2, 71495, Note_on_c, 0, 51, 0
2, 71520, Note_on_c, 0, 58, 96
2, 71975, Note_on_c, 0, 58, 0
2, 72000, Note_on_c, 0, 63, 96
2, 72227, Note_on_c, 0, 63, 0
2, 72240, Note_on_c, 0, 58, 92
2, 72467, Note_on_c, 0, 58, 0
2, 72480, Note_on_c, 0, 63, 88
2, 72593, Note_on_c, 0, 63, 0
2, 72600, Note_on_c, 0, 58, 86
2, 72713, Note_on_c, 0, 58, 0
2, 72720, Note_on_c, 0, 54, 84
2, 72833, Note_on_c, 0, 54, 0
2, 72840, Note_on_c, 0, 51, 82
2, 72953, Note_on_c, 0, 51, 0
2, 72960, Note_on_c, 0, 47, 80
2, 73073, Note_on_c, 0, 47, 0
2, 73080, Note_on_c, 0, 54, 80
2, 73193, Note_on_c, 0, 54, 0
2, 73200, Note_on_c, 0, 59, 80
2, 73313, Note_on_c, 0, 59, 0
2, 73320, Note_on_c, 0, 63, 80
2, 73433, Note_on_c, 0, 63, 0
2, 73440, Note_on_c, 0, 66, 80
2, 73781, Note_on_c, 0, 66, 0
2, 73800, Note_on_c, 0, 47, 80
2, 73913, Note_on_c, 0, 47, 0
2, 73920, Note_on_c, 0, 49, 80
2, 74033, Note_on_c, 0, 49, 0
2, 74040, Note_on_c, 0, 56, 80
2, 74153, Note_on_c, 0, 56, 0
2, 74160, Note_on_c, 0, 61, 80
2, 74273, Note_on_c, 0, 61, 0
2, 74280, Note_on_c, 0, 65, 80
2, 74393, Note_on_c, 0, 65, 0
2, 74400, Note_on_c, 0, 68, 80
2, 74627, Note_on_c, 0, 68, 0
2, 74640, Note_on_c, 0, 51, 80
2, 75209, Note_on_c, 0, 51, 0
2, 75240, Note_on_c, 0, 58, 80
2, 75353, Note_on_c, 0, 58, 0
2, 75360, Note_on_c, 0, 63, 80
2, 75473, Note_on_c, 0, 63, 0
2, 75480, Note_on_c, 0, 66, 80
2, 75593, Note_on_c, 0, 66, 0
2, 75960, Note_on_c, 0, 58, 80
2, 76073, Note_on_c, 0, 58, 0
2, 76080, Note_on_c, 0, 63, 80
2, 76193, Note_on_c, 0, 63, 0
2, 76200, Note_on_c, 0, 51, 80
2, 76313, Note_on_c, 0, 51, 0
2, 76320, Note_on_c, 0, 58, 80
2, 76547, Note_on_c, 0, 58, 0
2, 76560, Note_on_c, 0, 51, 80
2, 76787, Note_on_c, 0, 51, 0
2, 76800, Note_on_c, 0, 47, 80
2, 76913, Note_on_c, 0, 47, 0
2, 76920, Note_on_c, 0, 54, 80
2, 77033, Note_on_c, 0, 54, 0
2, 77040, Note_on_c, 0, 59, 80
2, 77153, Note_on_c, 0, 59, 0
2, 77160, Note_on_c, 0, 63, 80
2, 77273, Note_on_c, 0, 63, 0
2, 77280, Note_on_c, 0, 66, 80
2, 77621, Note_on_c, 0, 66, 0
2, 77640, Note_on_c, 0, 47, 80
2, 77753, Note_on_c, 0, 47, 0
2, 77760, Note_on_c, 0, 49, 80
2, 77873, Note_on_c, 0, 49, 0
2, 77880, Note_on_c, 0, 56, 80
2, 77993, Note_on_c, 0, 56, 0
2, 78000, Note_on_c, 0, 61, 80
2, 78113, Note_on_c, 0, 61, 0
2, 78120, Note_on_c, 0, 65, 80
2, 78233, Note_on_c, 0, 65, 0
2, 78240, Note_on_c, 0, 68, 80
2, 78467, Note_on_c, 0, 68, 0
2, 78480, Note_on_c, 0, 49, 80
2, 78707, Note_on_c, 0, 49, 0
2, 78720, Note_on_c, 0, 51, 80
2, 79061, Note_on_c, 0, 51, 0
2, 79080, Note_on_c, 0, 58, 80
2, 79193, Note_on_c, 0, 58, 0
2, 79200, Note_on_c, 0, 63, 80
2, 79655, Note_on_c, 0, 63, 0
2, 79800, Note_on_c, 0, 58, 80
2, 79913, Note_on_c, 0, 58, 0
2, 79920, Note_on_c, 0, 63, 80
2, 80033, Note_on_c, 0, 63, 0
2, 80040, Note_on_c, 0, 51, 80
2, 80153, Note_on_c, 0, 51, 0
2, 80160, Note_on_c, 0, 58, 80
2, 80273, Note_on_c, 0, 58, 0
2, 80280, Note_on_c, 0, 63, 80
2, 80393, Note_on_c, 0, 63, 0
2, 80400, Note_on_c, 0, 51, 80
2, 80627, Note_on_c, 0, 51, 0
2, 80640, Note_on_c, 0, 47, 80
2, 80753, Note_on_c, 0, 47, 0
2, 80760, Note_on_c, 0, 54, 80
2, 80873, Note_on_c, 0, 54, 0
2, 80880, Note_on_c, 0, 59, 80
2, 80993, Note_on_c, 0, 59, 0
2, 81000, Note_on_c, 0, 63, 80
2, 81113, Note_on_c, 0, 63, 0
2, 81120, Note_on_c, 0, 66, 80
2, 81461, Note_on_c, 0, 66, 0
2, 81480, Note_on_c, 0, 47, 80
2, 81593, Note_on_c, 0, 47, 0
2, 81600, Note_on_c, 0, 49, 80
2, 81713, Note_on_c, 0, 49, 0
2, 81720, Note_on_c, 0, 56, 80
2, 81833, Note_on_c, 0, 56, 0
2, 81840, Note_on_c, 0, 61, 80
2, 81953, Note_on_c, 0, 61, 0
2, 81960, Note_on_c, 0, 65, 80
2, 82073, Note_on_c, 0, 65, 0
2, 82080, Note_on_c, 0, 68, 80
2, 82307, Note_on_c, 0, 68, 0
2, 82320, Note_on_c, 0, 51, 80
2, 82889, Note_on_c, 0, 51, 0
2, 82920, Note_on_c, 0, 58, 80
2, 83033, Note_on_c, 0, 58, 0
2, 83040, Note_on_c, 0, 63, 80
2, 83495, Note_on_c, 0, 63, 0
2, 83880, Note_on_c, 0, 58, 80
2, 83993, Note_on_c, 0, 58, 0
2, 84000, Note_on_c, 0, 63, 80
2, 84227, Note_on_c, 0, 63, 0
2, 84240, Note_on_c, 0, 51, 80
2, 84467, Note_on_c, 0, 51, 0
2, 84480, Note_on_c, 0, 47, 80
2, 84480, Note_on_c, 0, 54, 80
2, 84480, Note_on_c, 0, 58, 80
2, 85391, Note_on_c, 0, 47, 0
2, 85391, Note_on_c, 0, 54, 0
2, 85391, Note_on_c, 0, 58, 0
2, 85440, Note_on_c, 0, 49, 80
2, 85440, Note_on_c, 0, 56, 80
2, 85440, Note_on_c, 0, 61, 80
2, 86123, Note_on_c, 0, 49, 0
2, 86123, Note_on_c, 0, 56, 0
2, 86123, Note_on_c, 0, 61, 0
2, 86160, Note_on_c, 0, 51, 80
2, 86160, Note_on_c, 0, 54, 80
2, 86160, Note_on_c, 0, 58, 80
2, 86160, Note_on_c, 0, 61, 80
2, 86615, Note_on_c, 0, 51, 0
2, 86615, Note_on_c, 0, 54, 0
2, 86615, Note_on_c, 0, 58, 0
2, 86615, Note_on_c, 0, 61, 0
2, 86640, Note_on_c, 0, 58, 80
2, 86867, Note_on_c, 0, 58, 0
2, 86880, Note_on_c, 0, 63, 80
2, 87335, Note_on_c, 0, 63, 0
2, 87720, Note_on_c, 0, 58, 80
2, 87833, Note_on_c, 0, 58, 0
2, 87840, Note_on_c, 0, 63, 80
2, 88067, Note_on_c, 0, 63, 0
2, 88080, Note_on_c, 0, 51, 80
2, 88307, Note_on_c, 0, 51, 0
2, 88320, Note_on_c, 0, 39, 80
2, 88320, Note_on_c, 0, 51, 80
2, 88775, Note_on_c, 0, 39, 0
2, 88775, Note_on_c, 0, 51, 0
2, 88800, Note_on_c, 0, 51, 80
2, 88800, Note_on_c, 0, 54, 80
2, 88800, Note_on_c, 0, 58, 80
2, 88800, Note_on_c, 0, 63, 80
2, 89027, Note_on_c, 0, 51, 0
2, 89027, Note_on_c, 0, 54, 0
2, 89027, Note_on_c, 0, 58, 0
2, 89027, Note_on_c, 0, 63, 0
2, 89040, Note_on_c, 0, 39, 80
2, 89040, Note_on_c, 0, 51, 80
2, 89267, Note_on_c, 0, 39, 0
2, 89267, Note_on_c, 0, 51, 0
2, 89520, Note_on_c, 0, 39, 80
2, 89520, Note_on_c, 0, 51, 80
2, 89747, Note_on_c, 0, 39, 0
2, 89747, Note_on_c, 0, 51, 0
2, 89760, Note_on_c, 0, 51, 80
2, 89760, Note_on_c, 0, 54, 80
2, 89760, Note_on_c, 0, 58, 80
2, 89760, Note_on_c, 0, 63, 80
2, 89987, Note_on_c, 0, 51, 0
2, 89987, Note_on_c, 0, 54, 0
2, 89987, Note_on_c, 0, 58, 0
2, 89987, Note_on_c, 0, 63, 0
2, 90000, Note_on_c, 0, 39, 80
2, 90000, Note_on_c, 0, 51, 80
2, 90227, Note_on_c, 0, 39, 0
2, 90227, Note_on_c, 0, 51, 0
2, 90240, Note_on_c, 0, 32, 80
2, 90240, Note_on_c, 0, 44, 80
2, 90695, Note_on_c, 0, 32, 0
2, 90695, Note_on_c, 0, 44, 0
2, 90720, Note_on_c, 0, 51, 80
2, 90720, Note_on_c, 0, 54, 80
2, 90720, Note_on_c, 0, 60, 80
2, 90947, Note_on_c, 0, 51, 0
2, 90947, Note_on_c, 0, 54, 0
2, 90947, Note_on_c, 0, 60, 0
2, 90960, Note_on_c, 0, 44, 80
2, 90960, Note_on_c, 0, 56, 80
2, 91187, Note_on_c, 0, 44, 0
2, 91187, Note_on_c, 0, 56, 0
2, 91440, Note_on_c, 0, 44, 80
2, 91440, Note_on_c, 0, 51, 80
2, 91440, Note_on_c, 0, 56, 80
2, 91667, Note_on_c, 0, 44, 0
2, 91667, Note_on_c, 0, 51, 0
2, 91667, Note_on_c, 0, 56, 0
2, 91680, Note_on_c, 0, 51, 80
2, 91680, Note_on_c, 0, 56, 80
2, 91680, Note_on_c, 0, 60, 80
2, 91907, Note_on_c, 0, 51, 0
2, 91907, Note_on_c, 0, 56, 0
2, 91907, Note_on_c, 0, 60, 0
2, 91920, Note_on_c, 0, 44, 80
2, 91920, Note_on_c, 0, 51, 80
2, 91920, Note_on_c, 0, 56, 80
2, 92147, Note_on_c, 0, 44, 0
2, 92147, Note_on_c, 0, 51, 0
2, 92147, Note_on_c, 0, 56, 0
2, 92160, Note_on_c, 0, 41, 80
2, 92160, Note_on_c, 0, 48, 80
2, 92160, Note_on_c, 0, 53, 80
2, 92615, Note_on_c, 0, 41, 0
2, 92615, Note_on_c, 0, 48, 0
2, 92615, Note_on_c, 0, 53, 0
2, 92640, Note_on_c, 0, 53, 80
2, 92640, Note_on_c, 0, 56, 80
2, 92640, Note_on_c, 0, 60, 80
2, 92640, Note_on_c, 0, 63, 80
2, 92867, Note_on_c, 0, 53, 0
2, 92867, Note_on_c, 0, 56, 0
2, 92867, Note_on_c, 0, 60, 0
2, 92867, Note_on_c, 0, 63, 0
2, 92880, Note_on_c, 0, 41, 80
2, 92880, Note_on_c, 0, 53, 80
2, 93107, Note_on_c, 0, 41, 0
2, 93107, Note_on_c, 0, 53, 0
2, 93360, Note_on_c, 0, 41, 80
2, 93360, Note_on_c, 0, 53, 80
2, 93587, Note_on_c, 0, 41, 0
2, 93587, Note_on_c, 0, 53, 0
2, 93600, Note_on_c, 0, 53, 80
2, 93600, Note_on_c, 0, 56, 80
2, 93600, Note_on_c, 0, 60, 80
2, 93600, Note_on_c, 0, 63, 80
2, 93827, Note_on_c, 0, 53, 0
2, 93827, Note_on_c, 0, 56, 0
2, 93827, Note_on_c, 0, 60, 0
2, 93827, Note_on_c, 0, 63, 0
2, 93840, Note_on_c, 0, 41, 80
2, 93840, Note_on_c, 0, 53, 80
2, 94067, Note_on_c, 0, 41, 0
2, 94067, Note_on_c, 0, 53, 0
2, 94080, Note_on_c, 0, 39, 80
2, 94080, Note_on_c, 0, 51, 80
2, 94535, Note_on_c, 0, 39, 0
2, 94535, Note_on_c, 0, 51, 0
2, 94560, Note_on_c, 0, 51, 80
2, 94560, Note_on_c, 0, 54, 80
2, 94560, Note_on_c, 0, 58, 80
2, 94560, Note_on_c, 0, 63, 80
2, 94787, Note_on_c, 0, 51, 0
2, 94787, Note_on_c, 0, 54, 0
2, 94787, Note_on_c, 0, 58, 0
2, 94787, Note_on_c, 0, 63, 0
2, 94800, Note_on_c, 0, 39, 80
2, 94800, Note_on_c, 0, 51, 80
2, 95027, Note_on_c, 0, 39, 0
2, 95027, Note_on_c, 0, 51, 0
2, 95280, Note_on_c, 0, 39, 80
2, 95280, Note_on_c, 0, 51, 80
2, 95507, Note_on_c, 0, 39, 0
2, 95507, Note_on_c, 0, 51, 0
2, 95520, Note_on_c, 0, 51, 80
2, 95520, Note_on_c, 0, 54, 80
2, 95520, Note_on_c, 0, 58, 80
2, 95520, Note_on_c, 0, 63, 80
2, 95747, Note_on_c, 0, 51, 0
2, 95747, Note_on_c, 0, 54, 0
2, 95747, Note_on_c, 0, 58, 0
2, 95747, Note_on_c, 0, 63, 0
2, 95760, Note_on_c, 0, 39, 80
2, 95760, Note_on_c, 0, 51, 80
2, 95987, Note_on_c, 0, 39, 0
2, 95987, Note_on_c, 0, 51, 0
2, 96000, Note_on_c, 0, 44, 80
2, 96000, Note_on_c, 0, 49, 80
2, 96000, Note_on_c, 0, 56, 80
2, 96341, Note_on_c, 0, 44, 0
2, 96341, Note_on_c, 0, 49, 0
2, 96341, Note_on_c, 0, 56, 0
2, 96360, Note_on_c, 0, 51, 80
2, 96473, Note_on_c, 0, 51, 0
2, 96480, Note_on_c, 0, 56, 80
2, 96707, Note_on_c, 0, 56, 0
2, 96720, Note_on_c, 0, 44, 80
2, 96720, Note_on_c, 0, 51, 80
2, 96720, Note_on_c, 0, 56, 80
2, 96947, Note_on_c, 0, 44, 0
2, 96947, Note_on_c, 0, 51, 0
2, 96947, Note_on_c, 0, 56, 0
2, 97200, Note_on_c, 0, 44, 80
2, 97200, Note_on_c, 0, 51, 80
2, 97200, Note_on_c, 0, 56, 80
2, 97427, Note_on_c, 0, 44, 0
2, 97427, Note_on_c, 0, 51, 0
2, 97427, Note_on_c, 0, 56, 0
2, 97440, Note_on_c, 0, 44, 80
2, 97440, Note_on_c, 0, 56, 80
2, 97895, Note_on_c, 0, 44, 0
2, 97895, Note_on_c, 0, 56, 0
2, 97920, Note_on_c, 0, 41, 80
2, 97920, Note_on_c, 0, 48, 80
2, 97920, Note_on_c, 0, 53, 80
2, 98375, Note_on_c, 0, 41, 0
2, 98375, Note_on_c, 0, 48, 0
2, 98375, Note_on_c, 0, 53, 0
2, 98400, Note_on_c, 0, 53, 80
2, 98400, Note_on_c, 0, 56, 80
2, 98400, Note_on_c, 0, 60, 80
2, 98400, Note_on_c, 0, 63, 80
2, 98627, Note_on_c, 0, 53, 0
2, 98627, Note_on_c, 0, 56, 0
2, 98627, Note_on_c, 0, 60, 0
2, 98627, Note_on_c, 0, 63, 0
2, 98640, Note_on_c, 0, 41, 80
2, 98640, Note_on_c, 0, 53, 80
2, 99779, Note_on_c, 0, 41, 0
2, 99779, Note_on_c, 0, 53, 0
2, 99840, Note_on_c, 0, 46, 80
2, 99840, Note_on_c, 0, 53, 80
2, 99840, Note_on_c, 0, 58, 80
2, 100067, Note_on_c, 0, 46, 0
2, 100067, Note_on_c, 0, 53, 0
2, 100067, Note_on_c, 0, 58, 0
2, 100080, Note_on_c, 0, 46, 80
2, 100080, Note_on_c, 0, 53, 80
2, 100080, Note_on_c, 0, 58, 80
2, 100307, Note_on_c, 0, 46, 0
2, 100307, Note_on_c, 0, 53, 0
2, 100307, Note_on_c, 0, 58, 0
2, 100800, Note_on_c, 0, 46, 80
2, 100800, Note_on_c, 0, 53, 80
2, 100800, Note_on_c, 0, 58, 80
2, 101255, Note_on_c, 0, 46, 0
2, 101255, Note_on_c, 0, 53, 0
2, 101255, Note_on_c, 0, 58, 0
2, 101760, Note_on_c, 0, 35, 80
2, 101760, Note_on_c, 0, 47, 80
2, 102443, Note_on_c, 0, 35, 0
2, 102443, Note_on_c, 0, 47, 0
2, 102480, Note_on_c, 0, 47, 80
2, 102480, Note_on_c, 0, 54, 80
2, 102593, Note_on_c, 0, 47, 0
2, 102593, Note_on_c, 0, 54, 0
2, 102600, Note_on_c, 0, 58, 80
2, 102713, Note_on_c, 0, 58, 0
2, 102720, Note_on_c, 0, 37, 80
2, 102720, Note_on_c, 0, 49, 80
2, 103061, Note_on_c, 0, 37, 0
2, 103061, Note_on_c, 0, 49, 0
2, 103080, Note_on_c, 0, 49, 80
2, 103080, Note_on_c, 0, 56, 80
2, 103193, Note_on_c, 0, 49, 0
2, 103193, Note_on_c, 0, 56, 0
2, 103200, Note_on_c, 0, 61, 80
2, 103427, Note_on_c, 0, 61, 0
2, 103440, Note_on_c, 0, 49, 80
2, 103667, Note_on_c, 0, 49, 0
2, 103680, Note_on_c, 0, 39, 80
2, 103680, Note_on_c, 0, 51, 80
2, 104021, Note_on_c, 0, 39, 0
2, 104021, Note_on_c, 0, 51, 0
2, 104040, Note_on_c, 0, 58, 80
2, 104153, Note_on_c, 0, 58, 0
2, 104160, Note_on_c, 0, 63, 80
2, 104387, Note_on_c, 0, 63, 0
2, 104400, Note_on_c, 0, 54, 80
2, 104400, Note_on_c, 0, 58, 80
2, 104627, Note_on_c, 0, 54, 0
2, 104627, Note_on_c, 0, 58, 0
2, 104880, Note_on_c, 0, 54, 80
2, 104880, Note_on_c, 0, 58, 80
2, 105107, Note_on_c, 0, 54, 0
2, 105107, Note_on_c, 0, 58, 0
2, 105120, Note_on_c, 0, 63, 80
2, 105347, Note_on_c, 0, 63, 0
2, 105360, Note_on_c, 0, 51, 80
2, 105360, Note_on_c, 0, 54, 80
2, 105587, Note_on_c, 0, 51, 0
2, 105587, Note_on_c, 0, 54, 0
2, 105600, Note_on_c, 0, 35, 80
2, 105600, Note_on_c, 0, 47, 80
2, 106055, Note_on_c, 0, 35, 0
2, 106055, Note_on_c, 0, 47, 0
2, 106080, Note_on_c, 0, 47, 80
2, 106080, Note_on_c, 0, 59, 80
2, 106307, Note_on_c, 0, 47, 0
2, 106307, Note_on_c, 0, 59, 0
2, 106320, Note_on_c, 0, 35, 80
2, 106320, Note_on_c, 0, 47, 80
2, 106547, Note_on_c, 0, 35, 0
2, 106547, Note_on_c, 0, 47, 0
2, 106560, Note_on_c, 0, 37, 80
2, 106560, Note_on_c, 0, 49, 80
2, 106787, Note_on_c, 0, 37, 0
2, 106787, Note_on_c, 0, 49, 0
2, 106800, Note_on_c, 0, 49, 80
2, 106800, Note_on_c, 0, 56, 80
2, 107027, Note_on_c, 0, 49, 0
2, 107027, Note_on_c, 0, 56, 0
2, 107040, Note_on_c, 0, 61, 80
2, 107267, Note_on_c, 0, 61, 0
2, 107280, Note_on_c, 0, 37, 80
2, 107280, Note_on_c, 0, 49, 80
2, 107507, Note_on_c, 0, 37, 0
2, 107507, Note_on_c, 0, 49, 0
2, 107520, Note_on_c, 0, 39, 80
2, 107520, Note_on_c, 0, 51, 80
2, 107975, Note_on_c, 0, 39, 0
2, 107975, Note_on_c, 0, 51, 0
2, 108000, Note_on_c, 0, 51, 80
2, 108000, Note_on_c, 0, 54, 80
2, 108000, Note_on_c, 0, 58, 80
2, 108000, Note_on_c, 0, 63, 80
2, 108227, Note_on_c, 0, 51, 0
2, 108227, Note_on_c, 0, 54, 0
2, 108227, Note_on_c, 0, 58, 0
2, 108227, Note_on_c, 0, 63, 0
2, 108240, Note_on_c, 0, 39, 80
2, 108240, Note_on_c, 0, 51, 80
2, 108467, Note_on_c, 0, 39, 0
2, 108467, Note_on_c, 0, 51, 0
2, 108720, Note_on_c, 0, 39, 80
2, 108720, Note_on_c, 0, 51, 80
2, 108947, Note_on_c, 0, 39, 0
2, 108947, Note_on_c, 0, 51, 0
2, 108960, Note_on_c, 0, 51, 80
2, 108960, Note_on_c, 0, 54, 80
2, 108960, Note_on_c, 0, 58, 80
2, 108960, Note_on_c, 0, 63, 80
2, 109187, Note_on_c, 0, 51, 0
2, 109187, Note_on_c, 0, 54, 0
2, 109187, Note_on_c, 0, 58, 0
2, 109187, Note_on_c, 0, 63, 0
2, 109200, Note_on_c, 0, 39, 80
2, 109200, Note_on_c, 0, 51, 80
2, 109427, Note_on_c, 0, 39, 0
2, 109427, Note_on_c, 0, 51, 0
2, 109440, Note_on_c, 0, 35, 80
2, 109440, Note_on_c, 0, 47, 80
2, 109781, Note_on_c, 0, 35, 0
2, 109781, Note_on_c, 0, 47, 0
2, 109800, Note_on_c, 0, 54, 80
2, 109913, Note_on_c, 0, 54, 0
2, 109920, Note_on_c, 0, 59, 80
2, 110147, Note_on_c, 0, 59, 0
2, 110160, Note_on_c, 0, 47, 80
2, 110160, Note_on_c, 0, 54, 80
2, 110387, Note_on_c, 0, 47, 0
2, 110387, Note_on_c, 0, 54, 0
2, 110400, Note_on_c, 0, 37, 80
2, 110400, Note_on_c, 0, 49, 80
2, 110741, Note_on_c, 0, 37, 0
2, 110741, Note_on_c, 0, 49, 0
2, 110760, Note_on_c, 0, 49, 80
2, 110760, Note_on_c, 0, 56, 80
2, 110873, Note_on_c, 0, 49, 0
2, 110873, Note_on_c, 0, 56, 0
2, 110880, Note_on_c, 0, 61, 80
2, 111107, Note_on_c, 0, 61, 0
2, 111120, Note_on_c, 0, 49, 80
2, 111347, Note_on_c, 0, 49, 0
2, 111360, Note_on_c, 0, 35, 80
2, 111360, Note_on_c, 0, 47, 80
2, 111701, Note_on_c, 0, 35, 0
2, 111701, Note_on_c, 0, 47, 0
2, 111720, Note_on_c, 0, 58, 80
2, 111833, Note_on_c, 0, 58, 0
2, 111840, Note_on_c, 0, 63, 80
2, 112067, Note_on_c, 0, 63, 0
2, 112080, Note_on_c, 0, 54, 80
2, 112080, Note_on_c, 0, 58, 80
2, 112307, Note_on_c, 0, 54, 0
2, 112307, Note_on_c, 0, 58, 0
2, 112560, Note_on_c, 0, 54, 80
2, 112560, Note_on_c, 0, 58, 80
2, 112787, Note_on_c, 0, 54, 0
2, 112787, Note_on_c, 0, 58, 0
2, 112800, Note_on_c, 0, 63, 80
2, 113027, Note_on_c, 0, 63, 0
2, 113040, Note_on_c, 0, 51, 80
2, 113040, Note_on_c, 0, 54, 80
2, 113267, Note_on_c, 0, 51, 0
2, 113267, Note_on_c, 0, 54, 0
2, 113280, Note_on_c, 0, 35, 80
2, 113280, Note_on_c, 0, 47, 80
2, 113735, Note_on_c, 0, 35, 0
2, 113735, Note_on_c, 0, 47, 0
2, 113760, Note_on_c, 0, 47, 80
2, 113760, Note_on_c, 0, 54, 80
2, 113760, Note_on_c, 0, 59, 80
2, 113987, Note_on_c, 0, 47, 0
2, 113987, Note_on_c, 0, 54, 0
2, 113987, Note_on_c, 0, 59, 0
2, 114000, Note_on_c, 0, 47, 80
2, 114227, Note_on_c, 0, 47, 0
2, 114240, Note_on_c, 0, 37, 80
2, 114240, Note_on_c, 0, 49, 80
2, 114695, Note_on_c, 0, 37, 0
2, 114695, Note_on_c, 0, 49, 0
2, 114720, Note_on_c, 0, 61, 80
2, 114947, Note_on_c, 0, 61, 0
2, 114960, Note_on_c, 0, 39, 80
2, 114960, Note_on_c, 0, 51, 80
2, 115643, Note_on_c, 0, 39, 0
2, 115643, Note_on_c, 0, 51, 0
2, 115680, Note_on_c, 0, 51, 80
2, 115680, Note_on_c, 0, 54, 80
2, 115680, Note_on_c, 0, 58, 80
2, 115907, Note_on_c, 0, 51, 0
2, 115907, Note_on_c, 0, 54, 0
2, 115907, Note_on_c, 0, 58, 0
2, 115920, Note_on_c, 0, 63, 80
2, 116147, Note_on_c, 0, 63, 0
2, 116400, Note_on_c, 0, 39, 80
2, 116400, Note_on_c, 0, 51, 80
2, 116627, Note_on_c, 0, 39, 0
2, 116627, Note_on_c, 0, 51, 0
2, 116640, Note_on_c, 0, 51, 80
2, 116640, Note_on_c, 0, 54, 80
2, 116640, Note_on_c, 0, 58, 80
2, 116640, Note_on_c, 0, 63, 80
2, 116867, Note_on_c, 0, 51, 0
2, 116867, Note_on_c, 0, 54, 0
2, 116867, Note_on_c, 0, 58, 0
2, 116867, Note_on_c, 0, 63, 0
2, 116880, Note_on_c, 0, 39, 80
2, 116880, Note_on_c, 0, 51, 80
2, 117107, Note_on_c, 0, 39, 0
2, 117107, Note_on_c, 0, 51, 0
2, 117120, Note_on_c, 0, 35, 80
2, 117120, Note_on_c, 0, 47, 80
2, 117461, Note_on_c, 0, 35, 0
2, 117461, Note_on_c, 0, 47, 0
2, 117480, Note_on_c, 0, 54, 80
2, 117593, Note_on_c, 0, 54, 0
2, 117600, Note_on_c, 0, 59, 80
2, 117827, Note_on_c, 0, 59, 0
2, 117840, Note_on_c, 0, 47, 80
2, 117840, Note_on_c, 0, 54, 80
2, 118067, Note_on_c, 0, 47, 0
2, 118067, Note_on_c, 0, 54, 0
2, 118080, Note_on_c, 0, 37, 80
2, 118080, Note_on_c, 0, 49, 80
2, 118421, Note_on_c, 0, 37, 0
2, 118421, Note_on_c, 0, 49, 0
2, 118440, Note_on_c, 0, 49, 80
2, 118440, Note_on_c, 0, 56, 80
2, 118553, Note_on_c, 0, 49, 0
2, 118553, Note_on_c, 0, 56, 0
2, 118560, Note_on_c, 0, 61, 80
2, 118787, Note_on_c, 0, 61, 0
2, 118800, Note_on_c, 0, 49, 80
2, 119027, Note_on_c, 0, 49, 0
2, 119040, Note_on_c, 0, 35, 80
2, 119040, Note_on_c, 0, 47, 80
2, 119381, Note_on_c, 0, 35, 0
2, 119381, Note_on_c, 0, 47, 0
2, 119400, Note_on_c, 0, 58, 80
2, 119513, Note_on_c, 0, 58, 0
2, 119520, Note_on_c, 0, 63, 80
2, 119747, Note_on_c, 0, 63, 0
2, 119760, Note_on_c, 0, 54, 80
2, 119760, Note_on_c, 0, 58, 80
2, 119987, Note_on_c, 0, 54, 0
2, 119987, Note_on_c, 0, 58, 0
2, 120240, Note_on_c, 0, 54, 80
2, 120240, Note_on_c, 0, 58, 80
2, 120467, Note_on_c, 0, 54, 0
2, 120467, Note_on_c, 0, 58, 0
2, 120480, Note_on_c, 0, 63, 80
2, 120707, Note_on_c, 0, 63, 0
2, 120720, Note_on_c, 0, 51, 80
2, 120720, Note_on_c, 0, 54, 80
2, 120947, Note_on_c, 0, 51, 0
2, 120947, Note_on_c, 0, 54, 0
2, 120960, Note_on_c, 0, 35, 80
2, 120960, Note_on_c, 0, 47, 80
2, 121415, Note_on_c, 0, 35, 0
2, 121415, Note_on_c, 0, 47, 0
2, 121440, Note_on_c, 0, 47, 80
2, 121440, Note_on_c, 0, 59, 80
2, 121667, Note_on_c, 0, 47, 0
2, 121667, Note_on_c, 0, 59, 0
2, 121680, Note_on_c, 0, 35, 80
2, 121680, Note_on_c, 0, 47, 80
2, 121907, Note_on_c, 0, 35, 0
2, 121907, Note_on_c, 0, 47, 0
2, 121920, Note_on_c, 0, 37, 80
2, 121920, Note_on_c, 0, 49, 80
2, 122147, Note_on_c, 0, 37, 0
2, 122147, Note_on_c, 0, 49, 0
2, 122160, Note_on_c, 0, 49, 80
2, 122160, Note_on_c, 0, 56, 80
2, 122387, Note_on_c, 0, 49, 0
2, 122387, Note_on_c, 0, 56, 0
2, 122400, Note_on_c, 0, 61, 80
2, 122627, Note_on_c, 0, 61, 0
2, 122640, Note_on_c, 0, 37, 80
2, 122640, Note_on_c, 0, 49, 80
2, 122867, Note_on_c, 0, 37, 0
2, 122867, Note_on_c, 0, 49, 0
2, 122880, Note_on_c, 0, 39, 80
2, 122880, Note_on_c, 0, 51, 80
2, 123335, Note_on_c, 0, 39, 0
2, 123335, Note_on_c, 0, 51, 0
2, 123360, Note_on_c, 0, 51, 80
2, 123360, Note_on_c, 0, 54, 80
2, 123360, Note_on_c, 0, 58, 80
2, 123360, Note_on_c, 0, 63, 80
2, 123587, Note_on_c, 0, 51, 0
2, 123587, Note_on_c, 0, 54, 0
2, 123587, Note_on_c, 0, 58, 0
2, 123587, Note_on_c, 0, 63, 0
2, 123600, Note_on_c, 0, 39, 80
2, 123600, Note_on_c, 0, 51, 80
2, 123827, Note_on_c, 0, 39, 0
2, 123827, Note_on_c, 0, 51, 0
2, 124080, Note_on_c, 0, 39, 80
2, 124080, Note_on_c, 0, 51, 80
2, 124307, Note_on_c, 0, 39, 0
2, 124307, Note_on_c, 0, 51, 0
2, 124320, Note_on_c, 0, 51, 80
2, 124320, Note_on_c, 0, 54, 80
2, 124320, Note_on_c, 0, 58, 80
2, 124320, Note_on_c, 0, 63, 80
2, 124547, Note_on_c, 0, 51, 0
2, 124547, Note_on_c, 0, 54, 0
2, 124547, Note_on_c, 0, 58, 0
2, 124547, Note_on_c, 0, 63, 0
2, 124560, Note_on_c, 0, 39, 80
2, 124560, Note_on_c, 0, 51, 80
2, 124787, Note_on_c, 0, 39, 0
2, 124787, Note_on_c, 0, 51, 0
2, 124800, Note_on_c, 0, 35, 80
2, 124800, Note_on_c, 0, 47, 80
2, 125141, Note_on_c, 0, 35, 0
2, 125141, Note_on_c, 0, 47, 0
2, 125160, Note_on_c, 0, 54, 80
2, 125273, Note_on_c, 0, 54, 0
2, 125280, Note_on_c, 0, 59, 80
2, 125507, Note_on_c, 0, 59, 0
2, 125520, Note_on_c, 0, 47, 80
2, 125520, Note_on_c, 0, 54, 80
2, 125747, Note_on_c, 0, 47, 0
2, 125747, Note_on_c, 0, 54, 0
2, 125760, Note_on_c, 0, 37, 80
2, 125760, Note_on_c, 0, 49, 80
2, 126101, Note_on_c, 0, 37, 0
2, 126101, Note_on_c, 0, 49, 0
2, 126120, Note_on_c, 0, 49, 80
2, 126120, Note_on_c, 0, 56, 80
2, 126233, Note_on_c, 0, 49, 0
2, 126233, Note_on_c, 0, 56, 0
2, 126240, Note_on_c, 0, 61, 80
2, 126467, Note_on_c, 0, 61, 0
2, 126480, Note_on_c, 0, 49, 80
2, 126707, Note_on_c, 0, 49, 0
2, 126720, Note_on_c, 0, 35, 80
2, 126720, Note_on_c, 0, 47, 80
2, 127061, Note_on_c, 0, 35, 0
2, 127061, Note_on_c, 0, 47, 0
2, 127080, Note_on_c, 0, 58, 80
2, 127193, Note_on_c, 0, 58, 0
2, 127200, Note_on_c, 0, 63, 80
2, 127427, Note_on_c, 0, 63, 0
2, 127440, Note_on_c, 0, 54, 80
2, 127440, Note_on_c, 0, 58, 80
2, 127667, Note_on_c, 0, 54, 0
2, 127667, Note_on_c, 0, 58, 0
2, 127920, Note_on_c, 0, 54, 80
2, 127920, Note_on_c, 0, 58, 80
2, 128147, Note_on_c, 0, 54, 0
2, 128147, Note_on_c, 0, 58, 0
2, 128160, Note_on_c, 0, 63, 80
2, 128387, Note_on_c, 0, 63, 0
2, 128400, Note_on_c, 0, 51, 80
2, 128400, Note_on_c, 0, 54, 80
2, 128627, Note_on_c, 0, 51, 0
2, 128627, Note_on_c, 0, 54, 0
2, 128640, Note_on_c, 0, 35, 80
2, 128640, Note_on_c, 0, 47, 80
2, 128981, Note_on_c, 0, 35, 0
2, 128981, Note_on_c, 0, 47, 0
2, 129000, Note_on_c, 0, 54, 80
2, 129113, Note_on_c, 0, 54, 0
2, 129120, Note_on_c, 0, 59, 80
2, 129347, Note_on_c, 0, 59, 0
2, 129360, Note_on_c, 0, 47, 80
2, 129360, Note_on_c, 0, 54, 80
2, 129587, Note_on_c, 0, 47, 0
2, 129587, Note_on_c, 0, 54, 0
2, 129600, Note_on_c, 0, 37, 80
2, 129600, Note_on_c, 0, 49, 80
2, 129941, Note_on_c, 0, 37, 0
2, 129941, Note_on_c, 0, 49, 0
2, 129960, Note_on_c, 0, 49, 80
2, 129960, Note_on_c, 0, 56, 80
2, 130073, Note_on_c, 0, 49, 0
2, 130073, Note_on_c, 0, 56, 0
2, 130080, Note_on_c, 0, 61, 80
2, 130307, Note_on_c, 0, 61, 0
2, 130320, Note_on_c, 0, 49, 80
2, 130547, Note_on_c, 0, 49, 0
2, 130560, Note_on_c, 0, 39, 80
2, 130560, Note_on_c, 0, 51, 80
2, 131015, Note_on_c, 0, 39, 0
2, 131015, Note_on_c, 0, 51, 0
2, 131040, Note_on_c, 0, 58, 76
2, 131495, Note_on_c, 0, 58, 0
2, 131520, Note_on_c, 0, 63, 72
2, 131747, Note_on_c, 0, 63, 0
2, 131760, Note_on_c, 0, 58, 70
2, 131987, Note_on_c, 0, 58, 0
2, 132000, Note_on_c, 0, 63, 68
2, 132113, Note_on_c, 0, 63, 0
2, 132120, Note_on_c, 0, 58, 67
2, 132233, Note_on_c, 0, 58, 0
2, 132240, Note_on_c, 0, 54, 66
2, 132353, Note_on_c, 0, 54, 0
2, 132360, Note_on_c, 0, 51, 65
2, 132473, Note_on_c, 0, 51, 0
2, 132480, Note_on_c, 0, 47, 64
2, 132480, Note_on_c, 0, 51, 64
2, 132480, Note_on_c, 0, 54, 64
2, 132480, Note_on_c, 0, 58, 64
2, 133391, Note_on_c, 0, 47, 0
2, 133391, Note_on_c, 0, 51, 0
2, 133391, Note_on_c, 0, 54, 0
2, 133391, Note_on_c, 0, 58, 0
2, 133440, Note_on_c, 0, 49, 64
2, 133440, Note_on_c, 0, 53, 64
2, 133440, Note_on_c, 0, 56, 64
2, 133440, Note_on_c, 0, 61, 64
2, 134123, Note_on_c, 0, 49, 0
2, 134123, Note_on_c, 0, 53, 0
2, 134123, Note_on_c, 0, 56, 0
2, 134123, Note_on_c, 0, 61, 0
2, 134160, Note_on_c, 0, 51, 64
2, 134160, Note_on_c, 0, 54, 64
2, 134160, Note_on_c, 0, 58, 64
2, 134160, Note_on_c, 0, 63, 64
2, 136211, Note_on_c, 0, 51, 0
2, 136211, Note_on_c, 0, 54, 0
2, 136211, Note_on_c, 0, 58, 0
2, 136211, Note_on_c, 0, 63, 0
2, 136320, Note_on_c, 0, 47, 64
2, 136320, Note_on_c, 0, 51, 64
2, 136320, Note_on_c, 0, 54, 64
2, 136320, Note_on_c, 0, 58, 64
2, 137231, Note_on_c, 0, 47, 0
2, 137231, Note_on_c, 0, 51, 0
2, 137231, Note_on_c, 0, 54, 0
2, 137231, Note_on_c, 0, 58, 0
2, 137280, Note_on_c, 0, 49, 64
2, 137280, Note_on_c, 0, 53, 64
2, 137280, Note_on_c, 0, 56, 64
2, 137280, Note_on_c, 0, 61, 64
2, 137963, Note_on_c, 0, 49, 0
2, 137963, Note_on_c, 0, 53, 0
2, 137963, Note_on_c, 0, 56, 0
2, 137963, Note_on_c, 0, 61, 0
2, 138000, Note_on_c, 0, 51, 64
2, 138000, Note_on_c, 0, 54, 64
2, 138000, Note_on_c, 0, 58, 64
2, 138000, Note_on_c, 0, 63, 64
2, 140051, Note_on_c, 0, 51, 0
2, 140051, Note_on_c, 0, 54, 0
2, 140051, Note_on_c, 0, 58, 0
2, 140051, Note_on_c, 0, 63, 0
2, 140160, Note_on_c, 0, 47, 64
2, 140160, Note_on_c, 0, 51, 64
2, 140160, Note_on_c, 0, 54, 64
2, 140160, Note_on_c, 0, 58, 64
2, 141071, Note_on_c, 0, 47, 0
2, 141071, Note_on_c, 0, 51, 0
2, 141071, Note_on_c, 0, 54, 0
2, 141071, Note_on_c, 0, 58, 0
2, 141120, Note_on_c, 0, 49, 64
2, 141120, Note_on_c, 0, 53, 64
2, 141120, Note_on_c, 0, 56, 64
2, 141120, Note_on_c, 0, 61, 64
2, 141803, Note_on_c, 0, 49, 0
2, 141803, Note_on_c, 0, 53, 0
2, 141803, Note_on_c, 0, 56, 0
2, 141803, Note_on_c, 0, 61, 0
2, 141840, Note_on_c, 0, 51, 64
2, 141840, Note_on_c, 0, 54, 64
2, 141840, Note_on_c, 0, 58, 64
2, 141840, Note_on_c, 0, 63, 64
2, 143891, Note_on_c, 0, 51, 0
2, 143891, Note_on_c, 0, 54, 0
2, 143891, Note_on_c, 0, 58, 0
2, 143891, Note_on_c, 0, 63, 0
2, 144000, Note_on_c, 0, 47, 64
2, 144000, Note_on_c, 0, 51, 64
2, 144000, Note_on_c, 0, 54, 64
2, 144000, Note_on_c, 0, 58, 64
2, 144911, Note_on_c, 0, 47, 0
2, 144911, Note_on_c, 0, 51, 0
2, 144911, Note_on_c, 0, 54, 0
2, 144911, Note_on_c, 0, 58, 0
2, 144960, Note_on_c, 0, 49, 64
2, 144960, Note_on_c, 0, 53, 64
2, 144960, Note_on_c, 0, 56, 64
2, 144960, Note_on_c, 0, 61, 64
2, 145643, Note_on_c, 0, 49, 0
2, 145643, Note_on_c, 0, 53, 0
2, 145643, Note_on_c, 0, 56, 0
2, 145643, Note_on_c, 0, 61, 0
2, 145680, Note_on_c, 0, 51, 64
2, 145680, Note_on_c, 0, 54, 64
2, 145680, Note_on_c, 0, 58, 64
2, 145680, Note_on_c, 0, 63, 64
2, 147731, Note_on_c, 0, 51, 0
2, 147731, Note_on_c, 0, 54, 0
2, 147731, Note_on_c, 0, 58, 0
2, 147731, Note_on_c, 0, 63, 0
1, 0, Note_on_c, 0, 55, 80
1, 119, Note_on_c, 0, 55, 0
1, 120, Note_on_c, 0, 59, 80
1, 233, Note_on_c, 0, 59, 0
1, 240, Note_on_c, 0, 67, 80
1, 467, Note_on_c, 0, 67, 0
1, 480, Note_on_c, 0, 67, 80
1, 707, Note_on_c, 0, 67, 0
1, 720, Note_on_c, 0, 60, 80
1, 947, Note_on_c, 0, 60, 0
1, 960, Note_on_c, 0, 67, 80
1, 1187, Note_on_c, 0, 67, 0
1, 1200, Note_on_c, 0, 66, 80
1, 1427, Note_on_c, 0, 66, 0
1, 1440, Note_on_c, 0, 66, 80
1, 1895, Note_on_c, 0, 66, 0
1, 1920, Note_on_c, 0, 57, 80
1, 1920, Note_on_c, 0, 62, 80
1, 1920, Note_on_c, 0, 66, 80
1, 2603, Note_on_c, 0, 57, 0
1, 2603, Note_on_c, 0, 62, 0
1, 2603, Note_on_c, 0, 66, 0
1, 2640, Note_on_c, 0, 55, 80
1, 2640, Note_on_c, 0, 59, 80
1, 2640, Note_on_c, 0, 64, 80
1, 3779, Note_on_c, 0, 55, 0
1, 3779, Note_on_c, 0, 59, 0
1, 3779, Note_on_c, 0, 64, 0
1, 3840, Note_on_c, 0, 55, 80
1, 3840, Note_on_c, 0, 64, 80
1, 4067, Note_on_c, 0, 55, 0
1, 4067, Note_on_c, 0, 64, 0
1, 4080, Note_on_c, 0, 59, 80
1, 4307, Note_on_c, 0, 59, 0
1, 4320, Note_on_c, 0, 55, 80
1, 4547, Note_on_c, 0, 55, 0
1, 4560, Note_on_c, 0, 57, 80
1, 5699, Note_on_c, 0, 57, 0
1, 5760, Note_on_c, 0, 54, 80
1, 5760, Note_on_c, 0, 57, 80
1, 6443, Note_on_c, 0, 54, 0
1, 6443, Note_on_c, 0, 57, 0
1, 6480, Note_on_c, 0, 55, 80
1, 6480, Note_on_c, 0, 59, 80
1, 7619, Note_on_c, 0, 55, 0
1, 7619, Note_on_c, 0, 59, 0
1, 7680, Note_on_c, 0, 59, 80
1, 7907, Note_on_c, 0, 59, 0
1, 7920, Note_on_c, 0, 67, 80
1, 8147, Note_on_c, 0, 67, 0
1, 8160, Note_on_c, 0, 67, 80
1, 8387, Note_on_c, 0, 67, 0
1, 8400, Note_on_c, 0, 67, 80
1, 8513, Note_on_c, 0, 67, 0
1, 8520, Note_on_c, 0, 69, 80
1, 8633, Note_on_c, 0, 69, 0
1, 8640, Note_on_c, 0, 67, 80
1, 8867, Note_on_c, 0, 67, 0
1, 8880, Note_on_c, 0, 66, 80
1, 9107, Note_on_c, 0, 66, 0
1, 9120, Note_on_c, 0, 66, 80
1, 9575, Note_on_c, 0, 66, 0
1, 9600, Note_on_c, 0, 57, 80
1, 9600, Note_on_c, 0, 62, 80
1, 9600, Note_on_c, 0, 66, 80
1, 10283, Note_on_c, 0, 57, 0
1, 10283, Note_on_c, 0, 62, 0
1, 10283, Note_on_c, 0, 66, 0
1, 10320, Note_on_c, 0, 55, 80
1, 10320, Note_on_c, 0, 59, 80
1, 10320, Note_on_c, 0, 64, 80
1, 11459, Note_on_c, 0, 55, 0
1, 11459, Note_on_c, 0, 59, 0
1, 11459, Note_on_c, 0, 64, 0
1, 11520, Note_on_c, 0, 55, 80
1, 11520, Note_on_c, 0, 59, 80
1, 11520, Note_on_c, 0, 64, 80
1, 11747, Note_on_c, 0, 55, 0
1, 11747, Note_on_c, 0, 59, 0
1, 11747, Note_on_c, 0, 64, 0
1, 11760, Note_on_c, 0, 59, 80
1, 11987, Note_on_c, 0, 59, 0
1, 12000, Note_on_c, 0, 59, 80
1, 12227, Note_on_c, 0, 59, 0
1, 12240, Note_on_c, 0, 57, 80
1, 12923, Note_on_c, 0, 57, 0
1, 12960, Note_on_c, 0, 55, 80
1, 13415, Note_on_c, 0, 55, 0
1, 13440, Note_on_c, 0, 54, 80
1, 13440, Note_on_c, 0, 57, 80
1, 13895, Note_on_c, 0, 54, 0
1, 13895, Note_on_c, 0, 57, 0
1, 13920, Note_on_c, 0, 55, 80
1, 14033, Note_on_c, 0, 55, 0
1, 14040, Note_on_c, 0, 54, 80
1, 14153, Note_on_c, 0, 54, 0
1, 14160, Note_on_c, 0, 52, 80
1, 14387, Note_on_c, 0, 52, 0
1, 14880, Note_on_c, 0, 55, 80
1, 14999, Note_on_c, 0, 55, 0
1, 15000, Note_on_c, 0, 59, 80
1, 15113, Note_on_c, 0, 59, 0
1, 15120, Note_on_c, 0, 67, 80
1, 15347, Note_on_c, 0, 67, 0
1, 15360, Note_on_c, 0, 67, 80
1, 15587, Note_on_c, 0, 67, 0
1, 15600, Note_on_c, 0, 60, 80
1, 15827, Note_on_c, 0, 60, 0
1, 15840, Note_on_c, 0, 67, 80
1, 16067, Note_on_c, 0, 67, 0
1, 16080, Note_on_c, 0, 66, 80
1, 16307, Note_on_c, 0, 66, 0
1, 16320, Note_on_c, 0, 66, 80
1, 16775, Note_on_c, 0, 66, 0
1, 16800, Note_on_c, 0, 57, 80
1, 16800, Note_on_c, 0, 62, 80
1, 16800, Note_on_c, 0, 66, 80
1, 17483, Note_on_c, 0, 57, 0
1, 17483, Note_on_c, 0, 62, 0
1, 17483, Note_on_c, 0, 66, 0
1, 17520, Note_on_c, 0, 55, 80
1, 17520, Note_on_c, 0, 59, 80
1, 17520, Note_on_c, 0, 64, 80
1, 18659, Note_on_c, 0, 55, 0
1, 18659, Note_on_c, 0, 59, 0
1, 18659, Note_on_c, 0, 64, 0
1, 18720, Note_on_c, 0, 55, 80
1, 18720, Note_on_c, 0, 64, 80
1, 18947, Note_on_c, 0, 55, 0
1, 18947, Note_on_c, 0, 64, 0
1, 18960, Note_on_c, 0, 59, 80
1, 19187, Note_on_c, 0, 59, 0
1, 19200, Note_on_c, 0, 55, 80
1, 19427, Note_on_c, 0, 55, 0
1, 19440, Note_on_c, 0, 57, 80
1, 20579, Note_on_c, 0, 57, 0
1, 20640, Note_on_c, 0, 54, 80
1, 20640, Note_on_c, 0, 57, 80
1, 21323, Note_on_c, 0, 54, 0
1, 21323, Note_on_c, 0, 57, 0
1, 21360, Note_on_c, 0, 55, 80
1, 21360, Note_on_c, 0, 59, 80
1, 22499, Note_on_c, 0, 55, 0
1, 22499, Note_on_c, 0, 59, 0
1, 22560, Note_on_c, 0, 59, 80
1, 22787, Note_on_c, 0, 59, 0
1, 22800, Note_on_c, 0, 67, 80
1, 23027, Note_on_c, 0, 67, 0
1, 23040, Note_on_c, 0, 67, 80
1, 23267, Note_on_c, 0, 67, 0
1, 23280, Note_on_c, 0, 67, 80
1, 23393, Note_on_c, 0, 67, 0
1, 23400, Note_on_c, 0, 69, 80
1, 23513, Note_on_c, 0, 69, 0
1, 23520, Note_on_c, 0, 67, 80
1, 23747, Note_on_c, 0, 67, 0
1, 23760, Note_on_c, 0, 66, 80
1, 23987, Note_on_c, 0, 66, 0
1, 24000, Note_on_c, 0, 66, 80
1, 24455, Note_on_c, 0, 66, 0
1, 24480, Note_on_c, 0, 57, 80
1, 24480, Note_on_c, 0, 62, 80
1, 24480, Note_on_c, 0, 66, 80
1, 25163, Note_on_c, 0, 57, 0
1, 25163, Note_on_c, 0, 62, 0
1, 25163, Note_on_c, 0, 66, 0
1, 25200, Note_on_c, 0, 55, 80
1, 25200, Note_on_c, 0, 59, 80
1, 25200, Note_on_c, 0, 64, 80
1, 26339, Note_on_c, 0, 55, 0
1, 26339, Note_on_c, 0, 59, 0
1, 26339, Note_on_c, 0, 64, 0
1, 26400, Note_on_c, 0, 55, 80
1, 26400, Note_on_c, 0, 59, 80
1, 26400, Note_on_c, 0, 64, 80
1, 26627, Note_on_c, 0, 55, 0
1, 26627, Note_on_c, 0, 59, 0
1, 26627, Note_on_c, 0, 64, 0
1, 26640, Note_on_c, 0, 59, 80
1, 26867, Note_on_c, 0, 59, 0
1, 26880, Note_on_c, 0, 59, 80
1, 27107, Note_on_c, 0, 59, 0
1, 27120, Note_on_c, 0, 57, 80
1, 27803, Note_on_c, 0, 57, 0
1, 27840, Note_on_c, 0, 55, 80
1, 28295, Note_on_c, 0, 55, 0
1, 28320, Note_on_c, 0, 54, 80
1, 28320, Note_on_c, 0, 57, 80
1, 28775, Note_on_c, 0, 54, 0
1, 28775, Note_on_c, 0, 57, 0
1, 28800, Note_on_c, 0, 55, 80
1, 28913, Note_on_c, 0, 55, 0
1, 28920, Note_on_c, 0, 54, 80
1, 29033, Note_on_c, 0, 54, 0
1, 29040, Note_on_c, 0, 52, 80
1, 29267, Note_on_c, 0, 52, 0
1, 29760, Note_on_c, 0, 55, 80
1, 29987, Note_on_c, 0, 55, 0
1, 30000, Note_on_c, 0, 57, 80
1, 30227, Note_on_c, 0, 57, 0
1, 30240, Note_on_c, 0, 55, 80
1, 30240, Note_on_c, 0, 59, 80
1, 30467, Note_on_c, 0, 55, 0
1, 30467, Note_on_c, 0, 59, 0
1, 30480, Note_on_c, 0, 67, 80
1, 30707, Note_on_c, 0, 67, 0
1, 30720, Note_on_c, 0, 67, 80
1, 30947, Note_on_c, 0, 67, 0
1, 30960, Note_on_c, 0, 60, 80
1, 31187, Note_on_c, 0, 60, 0
1, 31200, Note_on_c, 0, 67, 80
1, 31427, Note_on_c, 0, 67, 0
1, 31440, Note_on_c, 0, 66, 80
1, 31667, Note_on_c, 0, 66, 0
1, 31680, Note_on_c, 0, 66, 80
1, 32135, Note_on_c, 0, 66, 0
1, 32160, Note_on_c, 0, 57, 80
1, 32160, Note_on_c, 0, 62, 80
1, 32160, Note_on_c, 0, 66, 80
1, 32843, Note_on_c, 0, 57, 0
1, 32843, Note_on_c, 0, 62, 0
1, 32843, Note_on_c, 0, 66, 0
1, 32880, Note_on_c, 0, 55, 80
1, 32880, Note_on_c, 0, 59, 80
1, 32880, Note_on_c, 0, 64, 80
1, 34019, Note_on_c, 0, 55, 0
1, 34019, Note_on_c, 0, 59, 0
1, 34019, Note_on_c, 0, 64, 0
1, 34080, Note_on_c, 0, 55, 80
1, 34080, Note_on_c, 0, 64, 80
1, 34307, Note_on_c, 0, 55, 0
1, 34307, Note_on_c, 0, 64, 0
1, 34320, Note_on_c, 0, 59, 80
1, 34547, Note_on_c, 0, 59, 0
1, 34560, Note_on_c, 0, 55, 80
1, 34787, Note_on_c, 0, 55, 0
1, 34800, Note_on_c, 0, 57, 80
1, 35939, Note_on_c, 0, 57, 0
1, 36000, Note_on_c, 0, 54, 80
1, 36000, Note_on_c, 0, 57, 80
1, 36683, Note_on_c, 0, 54, 0
1, 36683, Note_on_c, 0, 57, 0
1, 36720, Note_on_c, 0, 55, 80
1, 36720, Note_on_c, 0, 59, 80
1, 37859, Note_on_c, 0, 55, 0
1, 37859, Note_on_c, 0, 59, 0
1, 37920, Note_on_c, 0, 55, 80
1, 37920, Note_on_c, 0, 59, 80
1, 38147, Note_on_c, 0, 55, 0
1, 38147, Note_on_c, 0, 59, 0
1, 38160, Note_on_c, 0, 67, 80
1, 38387, Note_on_c, 0, 67, 0
1, 38400, Note_on_c, 0, 67, 80
1, 38627, Note_on_c, 0, 67, 0
1, 38640, Note_on_c, 0, 67, 80
1, 38753, Note_on_c, 0, 67, 0
1, 38760, Note_on_c, 0, 69, 80
1, 38873, Note_on_c, 0, 69, 0
1, 38880, Note_on_c, 0, 67, 80
1, 39107, Note_on_c, 0, 67, 0
1, 39120, Note_on_c, 0, 66, 80
1, 39347, Note_on_c, 0, 66, 0
1, 39360, Note_on_c, 0, 66, 80
1, 39815, Note_on_c, 0, 66, 0
1, 39840, Note_on_c, 0, 57, 80
1, 39840, Note_on_c, 0, 62, 80
1, 39840, Note_on_c, 0, 66, 80
1, 40523, Note_on_c, 0, 57, 0
1, 40523, Note_on_c, 0, 62, 0
1, 40523, Note_on_c, 0, 66, 0
1, 40560, Note_on_c, 0, 55, 80
1, 40560, Note_on_c, 0, 59, 80
1, 40560, Note_on_c, 0, 64, 80
1, 41699, Note_on_c, 0, 55, 0
1, 41699, Note_on_c, 0, 59, 0
1, 41699, Note_on_c, 0, 64, 0
1, 41760, Note_on_c, 0, 55, 80
1, 41760, Note_on_c, 0, 59, 80
1, 41760, Note_on_c, 0, 64, 80
1, 41987, Note_on_c, 0, 55, 0
1, 41987, Note_on_c, 0, 59, 0
1, 41987, Note_on_c, 0, 64, 0
1, 42000, Note_on_c, 0, 59, 80
1, 42227, Note_on_c, 0, 59, 0
1, 42240, Note_on_c, 0, 59, 80
1, 42467, Note_on_c, 0, 59, 0
1, 42480, Note_on_c, 0, 57, 80
1, 43163, Note_on_c, 0, 57, 0
1, 43200, Note_on_c, 0, 55, 80
1, 43655, Note_on_c, 0, 55, 0
1, 43680, Note_on_c, 0, 54, 80
1, 43680, Note_on_c, 0, 57, 80
1, 44135, Note_on_c, 0, 54, 0
1, 44135, Note_on_c, 0, 57, 0
1, 44160, Note_on_c, 0, 55, 80
1, 44273, Note_on_c, 0, 55, 0
1, 44280, Note_on_c, 0, 54, 80
1, 44393, Note_on_c, 0, 54, 0
1, 44400, Note_on_c, 0, 52, 80
1, 45539, Note_on_c, 0, 52, 0
1, 45600, Note_on_c, 0, 55, 80
1, 45827, Note_on_c, 0, 55, 0
1, 45840, Note_on_c, 0, 57, 80
1, 46067, Note_on_c, 0, 57, 0
1, 46080, Note_on_c, 0, 55, 80
1, 46080, Note_on_c, 0, 59, 80
1, 46307, Note_on_c, 0, 55, 0
1, 46307, Note_on_c, 0, 59, 0
1, 46320, Note_on_c, 0, 67, 80
1, 46547, Note_on_c, 0, 67, 0
1, 46560, Note_on_c, 0, 67, 80
1, 46787, Note_on_c, 0, 67, 0
1, 46800, Note_on_c, 0, 60, 80
1, 47027, Note_on_c, 0, 60, 0
1, 47040, Note_on_c, 0, 67, 80
1, 47267, Note_on_c, 0, 67, 0
1, 47280, Note_on_c, 0, 66, 80
1, 47507, Note_on_c, 0, 66, 0
1, 47520, Note_on_c, 0, 66, 80
1, 47975, Note_on_c, 0, 66, 0
1, 48000, Note_on_c, 0, 57, 80
1, 48000, Note_on_c, 0, 62, 80
1, 48000, Note_on_c, 0, 66, 80
1, 48683, Note_on_c, 0, 57, 0
1, 48683, Note_on_c, 0, 62, 0
1, 48683, Note_on_c, 0, 66, 0
1, 48720, Note_on_c, 0, 55, 80
1, 48720, Note_on_c, 0, 59, 80
1, 48720, Note_on_c, 0, 64, 80
1, 49859, Note_on_c, 0, 55, 0
1, 49859, Note_on_c, 0, 59, 0
1, 49859, Note_on_c, 0, 64, 0
1, 49920, Note_on_c, 0, 55, 80
1, 49920, Note_on_c, 0, 64, 80
1, 50147, Note_on_c, 0, 55, 0
1, 50147, Note_on_c, 0, 64, 0
1, 50160, Note_on_c, 0, 59, 80
1, 50387, Note_on_c, 0, 59, 0
1, 50400, Note_on_c, 0, 55, 80
1, 50627, Note_on_c, 0, 55, 0
1, 50640, Note_on_c, 0, 57, 80
1, 51779, Note_on_c, 0, 57, 0
1, 51840, Note_on_c, 0, 54, 80
1, 51840, Note_on_c, 0, 57, 80
1, 52523, Note_on_c, 0, 54, 0
1, 52523, Note_on_c, 0, 57, 0
1, 52560, Note_on_c, 0, 55, 80
1, 52560, Note_on_c, 0, 59, 80
1, 53699, Note_on_c, 0, 55, 0
1, 53699, Note_on_c, 0, 59, 0
1, 53760, Note_on_c, 0, 55, 80
1, 53760, Note_on_c, 0, 59, 80
1, 53987, Note_on_c, 0, 55, 0
1, 53987, Note_on_c, 0, 59, 0
1, 54000, Note_on_c, 0, 67, 80
1, 54227, Note_on_c, 0, 67, 0
1, 54240, Note_on_c, 0, 67, 80
1, 54467, Note_on_c, 0, 67, 0
1, 54480, Note_on_c, 0, 67, 80
1, 54593, Note_on_c, 0, 67, 0
1, 54600, Note_on_c, 0, 69, 80
1, 54713, Note_on_c, 0, 69, 0
1, 54720, Note_on_c, 0, 67, 80
1, 54947, Note_on_c, 0, 67, 0
1, 54960, Note_on_c, 0, 66, 80
1, 55187, Note_on_c, 0, 66, 0
1, 55200, Note_on_c, 0, 66, 80
1, 55655, Note_on_c, 0, 66, 0
1, 55680, Note_on_c, 0, 57, 80
1, 55680, Note_on_c, 0, 62, 80
1, 55680, Note_on_c, 0, 66, 80
1, 56363, Note_on_c, 0, 57, 0
1, 56363, Note_on_c, 0, 62, 0
1, 56363, Note_on_c, 0, 66, 0
1, 56400, Note_on_c, 0, 55, 80
1, 56400, Note_on_c, 0, 59, 80
1, 56400, Note_on_c, 0, 64, 80
1, 57539, Note_on_c, 0, 55, 0
1, 57539, Note_on_c, 0, 59, 0
1, 57539, Note_on_c, 0, 64, 0
1, 57600, Note_on_c, 0, 55, 80
1, 57600, Note_on_c, 0, 59, 80
1, 57600, Note_on_c, 0, 64, 80
1, 57827, Note_on_c, 0, 55, 0
1, 57827, Note_on_c, 0, 59, 0
1, 57827, Note_on_c, 0, 64, 0
1, 57840, Note_on_c, 0, 59, 80
1, 58067, Note_on_c, 0, 59, 0
1, 58080, Note_on_c, 0, 59, 80
1, 58307, Note_on_c, 0, 59, 0
1, 58320, Note_on_c, 0, 57, 80
1, 59003, Note_on_c, 0, 57, 0
1, 59040, Note_on_c, 0, 55, 80
1, 59495, Note_on_c, 0, 55, 0
1, 59520, Note_on_c, 0, 54, 80
1, 59520, Note_on_c, 0, 57, 80
1, 59975, Note_on_c, 0, 54, 0
1, 59975, Note_on_c, 0, 57, 0
1, 60000, Note_on_c, 0, 55, 80
1, 60113, Note_on_c, 0, 55, 0
1, 60120, Note_on_c, 0, 54, 80
1, 60233, Note_on_c, 0, 54, 0
1, 60240, Note_on_c, 0, 52, 80
1, 61379, Note_on_c, 0, 52, 0
2, 0, Note_on_c, 0, 40, 80
2, 683, Note_on_c, 0, 40, 0
2, 720, Note_on_c, 0, 36, 80
2, 1859, Note_on_c, 0, 36, 0
2, 1920, Note_on_c, 0, 38, 80
2, 2603, Note_on_c, 0, 38, 0
2, 2640, Note_on_c, 0, 40, 80
2, 3779, Note_on_c, 0, 40, 0
2, 3840, Note_on_c, 0, 40, 80
2, 4523, Note_on_c, 0, 40, 0
2, 4560, Note_on_c, 0, 36, 80
2, 5699, Note_on_c, 0, 36, 0
2, 5760, Note_on_c, 0, 38, 80
2, 6443, Note_on_c, 0, 38, 0
2, 6480, Note_on_c, 0, 40, 80
2, 7619, Note_on_c, 0, 40, 0
2, 7680, Note_on_c, 0, 40, 80
2, 8363, Note_on_c, 0, 40, 0
2, 8400, Note_on_c, 0, 36, 80
2, 9539, Note_on_c, 0, 36, 0
2, 9600, Note_on_c, 0, 38, 80
2, 10283, Note_on_c, 0, 38, 0
2, 10320, Note_on_c, 0, 40, 80
2, 11459, Note_on_c, 0, 40, 0
2, 11520, Note_on_c, 0, 40, 80
2, 12203, Note_on_c, 0, 40, 0
2, 12240, Note_on_c, 0, 36, 80
2, 13379, Note_on_c, 0, 36, 0
2, 13440, Note_on_c, 0, 38, 80
2, 14123, Note_on_c, 0, 38, 0
2, 14160, Note_on_c, 0, 40, 80
2, 14867, Note_on_c, 0, 40, 0
2, 14880, Note_on_c, 0, 40, 80
2, 15563, Note_on_c, 0, 40, 0
2, 15600, Note_on_c, 0, 36, 80
2, 16739, Note_on_c, 0, 36, 0
2, 16800, Note_on_c, 0, 38, 80
2, 17483, Note_on_c, 0, 38, 0
2, 17520, Note_on_c, 0, 40, 80
2, 18659, Note_on_c, 0, 40, 0
2, 18720, Note_on_c, 0, 40, 80
2, 19403, Note_on_c, 0, 40, 0
2, 19440, Note_on_c, 0, 36, 80
2, 20579, Note_on_c, 0, 36, 0
2, 20640, Note_on_c, 0, 38, 80
2, 21323, Note_on_c, 0, 38, 0
2, 21360, Note_on_c, 0, 40, 80
2, 22499, Note_on_c, 0, 40, 0
2, 22560, Note_on_c, 0, 40, 80
2, 23243, Note_on_c, 0, 40, 0
2, 23280, Note_on_c, 0, 36, 80
2, 24419, Note_on_c, 0, 36, 0
2, 24480, Note_on_c, 0, 38, 80
2, 25163, Note_on_c, 0, 38, 0
2, 25200, Note_on_c, 0, 40, 80
2, 26339, Note_on_c, 0, 40, 0
2, 26400, Note_on_c, 0, 40, 80
2, 27083, Note_on_c, 0, 40, 0
2, 27120, Note_on_c, 0, 36, 80
2, 28259, Note_on_c, 0, 36, 0
2, 28320, Note_on_c, 0, 38, 80
2, 29003, Note_on_c, 0, 38, 0
2, 29040, Note_on_c, 0, 40, 80
2, 29747, Note_on_c, 0, 40, 0
2, 29760, Note_on_c, 0, 40, 80
2, 30215, Note_on_c, 0, 40, 0
2, 30240, Note_on_c, 0, 40, 80
2, 30240, Note_on_c, 0, 47, 80
2, 30923, Note_on_c, 0, 40, 0
2, 30923, Note_on_c, 0, 47, 0
2, 30960, Note_on_c, 0, 36, 80
2, 30960, Note_on_c, 0, 43, 80
2, 32099, Note_on_c, 0, 36, 0
2, 32099, Note_on_c, 0, 43, 0
2, 32160, Note_on_c, 0, 38, 80
2, 32160, Note_on_c, 0, 45, 80
2, 32843, Note_on_c, 0, 38, 0
2, 32843, Note_on_c, 0, 45, 0
2, 32880, Note_on_c, 0, 40, 80
2, 32880, Note_on_c, 0, 47, 80
2, 34019, Note_on_c, 0, 40, 0
2, 34019, Note_on_c, 0, 47, 0
2, 34080, Note_on_c, 0, 40, 80
2, 34080, Note_on_c, 0, 47, 80
2, 34763, Note_on_c, 0, 40, 0
2, 34763, Note_on_c, 0, 47, 0
2, 34800, Note_on_c, 0, 36, 80
2, 34800, Note_on_c, 0, 43, 80
2, 35939, Note_on_c, 0, 36, 0
2, 35939, Note_on_c, 0, 43, 0
2, 36000, Note_on_c, 0, 38, 80
2, 36000, Note_on_c, 0, 45, 80
2, 36683, Note_on_c, 0, 38, 0
2, 36683, Note_on_c, 0, 45, 0
2, 36720, Note_on_c, 0, 40, 80
2, 36720, Note_on_c, 0, 47, 80
2, 37859, Note_on_c, 0, 40, 0
2, 37859, Note_on_c, 0, 47, 0
2, 37920, Note_on_c, 0, 40, 80
2, 37920, Note_on_c, 0, 47, 80
2, 38603, Note_on_c, 0, 40, 0
2, 38603, Note_on_c, 0, 47, 0
2, 38640, Note_on_c, 0, 36, 80
2, 38640, Note_on_c, 0, 43, 80
2, 39779, Note_on_c, 0, 36, 0
2, 39779, Note_on_c, 0, 43, 0
2, 39840, Note_on_c, 0, 38, 80
2, 39840, Note_on_c, 0, 45, 80
2, 40523, Note_on_c, 0, 38, 0
2, 40523, Note_on_c, 0, 45, 0
2, 40560, Note_on_c, 0, 40, 80
2, 40560, Note_on_c, 0, 47, 80
2, 41699, Note_on_c, 0, 40, 0
2, 41699, Note_on_c, 0, 47, 0
2, 41760, Note_on_c, 0, 40, 80
2, 41760, Note_on_c, 0, 47, 80
2, 42443, Note_on_c, 0, 40, 0
2, 42443, Note_on_c, 0, 47, 0
2, 42480, Note_on_c, 0, 36, 80
2, 42480, Note_on_c, 0, 43, 80
2, 43619, Note_on_c, 0, 36, 0
2, 43619, Note_on_c, 0, 43, 0
2, 43680, Note_on_c, 0, 38, 80
2, 43680, Note_on_c, 0, 45, 80
2, 44363, Note_on_c, 0, 38, 0
2, 44363, Note_on_c, 0, 45, 0
2, 44400, Note_on_c, 0, 36, 80
2, 44400, Note_on_c, 0, 47, 80
2, 45539, Note_on_c, 0, 36, 0
2, 45539, Note_on_c, 0, 47, 0
2, 45600, Note_on_c, 0, 40, 80
2, 46055, Note_on_c, 0, 40, 0
2, 46080, Note_on_c, 0, 40, 80
2, 46080, Note_on_c, 0, 47, 80
2, 46763, Note_on_c, 0, 40, 0
2, 46763, Note_on_c, 0, 47, 0
2, 46800, Note_on_c, 0, 36, 80
2, 46800, Note_on_c, 0, 43, 80
2, 47939, Note_on_c, 0, 36, 0
2, 47939, Note_on_c, 0, 43, 0
2, 48000, Note_on_c, 0, 38, 80
2, 48000, Note_on_c, 0, 45, 80
2, 48683, Note_on_c, 0, 38, 0
2, 48683, Note_on_c, 0, 45, 0
2, 48720, Note_on_c, 0, 40, 80
2, 48720, Note_on_c, 0, 47, 80
2, 49859, Note_on_c, 0, 40, 0
2, 49859, Note_on_c, 0, 47, 0
2, 49920, Note_on_c, 0, 40, 80
2, 49920, Note_on_c, 0, 47, 80
2, 50603, Note_on_c, 0, 40, 0
2, 50603, Note_on_c, 0, 47, 0
2, 50640, Note_on_c, 0, 36, 80
2, 50640, Note_on_c, 0, 43, 80
2, 51779, Note_on_c, 0, 36, 0
2, 51779, Note_on_c, 0, 43, 0
2, 51840, Note_on_c, 0, 38, 80
2, 51840, Note_on_c, 0, 45, 80
2, 52523, Note_on_c, 0, 38, 0
2, 52523, Note_on_c, 0, 45, 0
2, 52560, Note_on_c, 0, 40, 80
2, 52560, Note_on_c, 0, 47, 80
2, 53699, Note_on_c, 0, 40, 0
2, 53699, Note_on_c, 0, 47, 0
2, 53760, Note_on_c, 0, 40, 80
2, 53760, Note_on_c, 0, 47, 80
2, 54443, Note_on_c, 0, 40, 0
2, 54443, Note_on_c, 0, 47, 0
2, 54480, Note_on_c, 0, 36, 80
2, 54480, Note_on_c, 0, 43, 80
2, 55619, Note_on_c, 0, 36, 0
2, 55619, Note_on_c, 0, 43, 0
2, 55680, Note_on_c, 0, 38, 80
2, 55680, Note_on_c, 0, 45, 80
2, 56363, Note_on_c, 0, 38, 0
2, 56363, Note_on_c, 0, 45, 0
2, 56400, Note_on_c, 0, 40, 80
2, 56400, Note_on_c, 0, 47, 80
2, 57539, Note_on_c, 0, 40, 0
2, 57539, Note_on_c, 0, 47, 0
2, 57600, Note_on_c, 0, 40, 80
2, 57600, Note_on_c, 0, 47, 80
2, 58283, Note_on_c, 0, 40, 0
2, 58283, Note_on_c, 0, 47, 0
2, 58320, Note_on_c, 0, 36, 80
2, 58320, Note_on_c, 0, 43, 80
2, 59459, Note_on_c, 0, 36, 0
2, 59459, Note_on_c, 0, 43, 0
2, 59520, Note_on_c, 0, 38, 80
2, 59520, Note_on_c, 0, 45, 80
2, 60203, Note_on_c, 0, 38, 0
2, 60203, Note_on_c, 0, 45, 0
2, 60240, Note_on_c, 0, 36, 80
2, 60240, Note_on_c, 0, 47, 80
2, 61379, Note_on_c, 0, 36, 0
2, 61379, Note_on_c, 0, 47, 0
1, 720, Note_on_c, 0, 67, 80
1, 720, Note_on_c, 0, 79, 80
1, 947, Note_on_c, 0, 67, 0
1, 947, Note_on_c, 0, 79, 0
1, 960, Note_on_c, 0, 74, 80
1, 960, Note_on_c, 0, 86, 80
1, 1187, Note_on_c, 0, 74, 0
1, 1187, Note_on_c, 0, 86, 0
1, 1200, Note_on_c, 0, 72, 80
1, 1200, Note_on_c, 0, 84, 80
1, 1427, Note_on_c, 0, 72, 0
1, 1427, Note_on_c, 0, 84, 0
1, 1440, Note_on_c, 0, 72, 80
1, 1440, Note_on_c, 0, 84, 80
1, 1667, Note_on_c, 0, 72, 0
1, 1667, Note_on_c, 0, 84, 0
1, 1680, Note_on_c, 0, 70, 80
1, 1680, Note_on_c, 0, 82, 80
1, 1907, Note_on_c, 0, 70, 0
1, 1907, Note_on_c, 0, 82, 0
1, 1920, Note_on_c, 0, 70, 80
1, 1920, Note_on_c, 0, 82, 80
1, 2147, Note_on_c, 0, 70, 0
1, 2147, Note_on_c, 0, 82, 0
1, 2640, Note_on_c, 0, 70, 80
1, 2640, Note_on_c, 0, 82, 80
1, 2867, Note_on_c, 0, 70, 0
1, 2867, Note_on_c, 0, 82, 0
1, 2880, Note_on_c, 0, 69, 80
1, 2880, Note_on_c, 0, 81, 80
1, 3107, Note_on_c, 0, 69, 0
1, 3107, Note_on_c, 0, 81, 0
1, 3120, Note_on_c, 0, 70, 80
1, 3120, Note_on_c, 0, 82, 80
1, 3347, Note_on_c, 0, 70, 0
1, 3347, Note_on_c, 0, 82, 0
1, 3600, Note_on_c, 0, 70, 80
1, 3600, Note_on_c, 0, 82, 80
1, 3827, Note_on_c, 0, 70, 0
1, 3827, Note_on_c, 0, 82, 0
1, 3840, Note_on_c, 0, 69, 80
1, 3840, Note_on_c, 0, 81, 80
1, 4067, Note_on_c, 0, 69, 0
1, 4067, Note_on_c, 0, 81, 0
1, 4080, Note_on_c, 0, 70, 80
1, 4080, Note_on_c, 0, 82, 80
1, 4307, Note_on_c, 0, 70, 0
1, 4307, Note_on_c, 0, 82, 0
1, 4560, Note_on_c, 0, 67, 80
1, 4560, Note_on_c, 0, 79, 80
1, 4787, Note_on_c, 0, 67, 0
1, 4787, Note_on_c, 0, 79, 0
1, 4800, Note_on_c, 0, 74, 80
1, 4800, Note_on_c, 0, 86, 80
1, 5027, Note_on_c, 0, 74, 0
1, 5027, Note_on_c, 0, 86, 0
1, 5040, Note_on_c, 0, 72, 80
1, 5040, Note_on_c, 0, 84, 80
1, 5267, Note_on_c, 0, 72, 0
1, 5267, Note_on_c, 0, 84, 0
1, 5280, Note_on_c, 0, 72, 80
1, 5280, Note_on_c, 0, 84, 80
1, 5507, Note_on_c, 0, 72, 0
1, 5507, Note_on_c, 0, 84, 0
1, 5520, Note_on_c, 0, 70, 80
1, 5520, Note_on_c, 0, 82, 80
1, 5747, Note_on_c, 0, 70, 0
1, 5747, Note_on_c, 0, 82, 0
1, 5760, Note_on_c, 0, 70, 80
1, 5760, Note_on_c, 0, 82, 80
1, 5987, Note_on_c, 0, 70, 0
1, 5987, Note_on_c, 0, 82, 0
1, 6480, Note_on_c, 0, 70, 80
1, 6480, Note_on_c, 0, 82, 80
1, 6707, Note_on_c, 0, 70, 0
1, 6707, Note_on_c, 0, 82, 0
1, 6720, Note_on_c, 0, 69, 80
1, 6720, Note_on_c, 0, 81, 80
1, 6947, Note_on_c, 0, 69, 0
1, 6947, Note_on_c, 0, 81, 0
1, 6960, Note_on_c, 0, 70, 80
1, 6960, Note_on_c, 0, 82, 80
1, 7187, Note_on_c, 0, 70, 0
1, 7187, Note_on_c, 0, 82, 0
1, 7440, Note_on_c, 0, 70, 80
1, 7440, Note_on_c, 0, 82, 80
1, 7667, Note_on_c, 0, 70, 0
1, 7667, Note_on_c, 0, 82, 0
1, 7680, Note_on_c, 0, 69, 80
1, 7680, Note_on_c, 0, 81, 80
1, 7907, Note_on_c, 0, 69, 0
1, 7907, Note_on_c, 0, 81, 0
1, 7920, Note_on_c, 0, 70, 80
1, 7920, Note_on_c, 0, 82, 80
1, 8147, Note_on_c, 0, 70, 0
1, 8147, Note_on_c, 0, 82, 0
1, 8400, Note_on_c, 0, 67, 80
1, 8400, Note_on_c, 0, 79, 80
1, 8627, Note_on_c, 0, 67, 0
1, 8627, Note_on_c, 0, 79, 0
1, 8640, Note_on_c, 0, 74, 80
1, 8640, Note_on_c, 0, 86, 80
1, 8867, Note_on_c, 0, 74, 0
1, 8867, Note_on_c, 0, 86, 0
1, 8880, Note_on_c, 0, 72, 80
1, 8880, Note_on_c, 0, 84, 80
1, 9107, Note_on_c, 0, 72, 0
1, 9107, Note_on_c, 0, 84, 0
1, 9120, Note_on_c, 0, 72, 80
1, 9120, Note_on_c, 0, 84, 80
1, 9347, Note_on_c, 0, 72, 0
1, 9347, Note_on_c, 0, 84, 0
1, 9360, Note_on_c, 0, 70, 80
1, 9360, Note_on_c, 0, 82, 80
1, 9587, Note_on_c, 0, 70, 0
1, 9587, Note_on_c, 0, 82, 0
1, 9600, Note_on_c, 0, 70, 80
1, 9600, Note_on_c, 0, 82, 80
1, 9827, Note_on_c, 0, 70, 0
1, 9827, Note_on_c, 0, 82, 0
1, 10320, Note_on_c, 0, 70, 80
1, 10320, Note_on_c, 0, 82, 80
1, 10547, Note_on_c, 0, 70, 0
1, 10547, Note_on_c, 0, 82, 0
1, 10560, Note_on_c, 0, 69, 80
1, 10560, Note_on_c, 0, 81, 80
1, 10787, Note_on_c, 0, 69, 0
1, 10787, Note_on_c, 0, 81, 0
1, 10800, Note_on_c, 0, 70, 80
1, 10800, Note_on_c, 0, 82, 80
1, 11027, Note_on_c, 0, 70, 0
1, 11027, Note_on_c, 0, 82, 0
1, 11280, Note_on_c, 0, 70, 80
1, 11280, Note_on_c, 0, 82, 80
1, 11507, Note_on_c, 0, 70, 0
1, 11507, Note_on_c, 0, 82, 0
1, 11520, Note_on_c, 0, 69, 80
1, 11520, Note_on_c, 0, 81, 80
1, 11747, Note_on_c, 0, 69, 0
1, 11747, Note_on_c, 0, 81, 0
1, 11760, Note_on_c, 0, 70, 80
1, 11760, Note_on_c, 0, 82, 80
1, 11987, Note_on_c, 0, 70, 0
1, 11987, Note_on_c, 0, 82, 0
1, 12240, Note_on_c, 0, 67, 80
1, 12240, Note_on_c, 0, 79, 80
1, 12467, Note_on_c, 0, 67, 0
1, 12467, Note_on_c, 0, 79, 0
1, 12480, Note_on_c, 0, 74, 80
1, 12480, Note_on_c, 0, 86, 80
1, 12707, Note_on_c, 0, 74, 0
1, 12707, Note_on_c, 0, 86, 0
1, 12720, Note_on_c, 0, 72, 80
1, 12720, Note_on_c, 0, 84, 80
1, 12947, Note_on_c, 0, 72, 0
1, 12947, Note_on_c, 0, 84, 0
1, 12960, Note_on_c, 0, 72, 80
1, 12960, Note_on_c, 0, 84, 80
1, 13187, Note_on_c, 0, 72, 0
1, 13187, Note_on_c, 0, 84, 0
1, 13200, Note_on_c, 0, 70, 80
1, 13200, Note_on_c, 0, 82, 80
1, 13427, Note_on_c, 0, 70, 0
1, 13427, Note_on_c, 0, 82, 0
1, 13440, Note_on_c, 0, 70, 80
1, 13440, Note_on_c, 0, 82, 80
1, 13667, Note_on_c, 0, 70, 0
1, 13667, Note_on_c, 0, 82, 0
1, 14160, Note_on_c, 0, 70, 80
1, 14160, Note_on_c, 0, 82, 80
1, 14387, Note_on_c, 0, 70, 0
1, 14387, Note_on_c, 0, 82, 0
1, 14400, Note_on_c, 0, 69, 80
1, 14400, Note_on_c, 0, 81, 80
1, 14627, Note_on_c, 0, 69, 0
1, 14627, Note_on_c, 0, 81, 0
1, 14640, Note_on_c, 0, 70, 80
1, 14640, Note_on_c, 0, 82, 80
1, 14867, Note_on_c, 0, 70, 0
1, 14867, Note_on_c, 0, 82, 0
1, 15120, Note_on_c, 0, 70, 80
1, 15120, Note_on_c, 0, 82, 80
1, 15347, Note_on_c, 0, 70, 0
1, 15347, Note_on_c, 0, 82, 0
1, 15360, Note_on_c, 0, 69, 80
1, 15360, Note_on_c, 0, 81, 80
1, 15587, Note_on_c, 0, 69, 0
1, 15587, Note_on_c, 0, 81, 0
1, 15600, Note_on_c, 0, 70, 80
1, 15600, Note_on_c, 0, 82, 80
1, 15827, Note_on_c, 0, 70, 0
1, 15827, Note_on_c, 0, 82, 0
1, 16080, Note_on_c, 0, 67, 80
1, 16080, Note_on_c, 0, 79, 80
1, 16307, Note_on_c, 0, 67, 0
1, 16307, Note_on_c, 0, 79, 0
1, 16320, Note_on_c, 0, 74, 80
1, 16320, Note_on_c, 0, 86, 80
1, 16547, Note_on_c, 0, 74, 0
1, 16547, Note_on_c, 0, 86, 0
1, 16560, Note_on_c, 0, 72, 80
1, 16560, Note_on_c, 0, 84, 80
1, 16787, Note_on_c, 0, 72, 0
1, 16787, Note_on_c, 0, 84, 0
1, 16800, Note_on_c, 0, 72, 80
1, 16800, Note_on_c, 0, 84, 80
1, 17027, Note_on_c, 0, 72, 0
1, 17027, Note_on_c, 0, 84, 0
1, 17040, Note_on_c, 0, 70, 80
1, 17040, Note_on_c, 0, 82, 80
1, 17267, Note_on_c, 0, 70, 0
1, 17267, Note_on_c, 0, 82, 0
1, 17280, Note_on_c, 0, 67, 80
1, 17280, Note_on_c, 0, 79, 80
1, 17735, Note_on_c, 0, 67, 0
1, 17735, Note_on_c, 0, 79, 0
2, 1920, Note_on_c, 0, 51, 80
2, 1920, Note_on_c, 0, 55, 80
2, 1920, Note_on_c, 0, 58, 80
2, 1920, Note_on_c, 0, 63, 80
2, 2375, Note_on_c, 0, 51, 0
2, 2375, Note_on_c, 0, 55, 0
2, 2375, Note_on_c, 0, 58, 0
2, 2375, Note_on_c, 0, 63, 0
2, 2400, Note_on_c, 0, 50, 80
2, 2400, Note_on_c, 0, 54, 80
2, 2400, Note_on_c, 0, 57, 80
2, 2400, Note_on_c, 0, 62, 80
2, 2741, Note_on_c, 0, 50, 0
2, 2741, Note_on_c, 0, 54, 0
2, 2741, Note_on_c, 0, 57, 0
2, 2741, Note_on_c, 0, 62, 0
2, 2760, Note_on_c, 0, 55, 80
2, 2760, Note_on_c, 0, 58, 80
2, 2760, Note_on_c, 0, 62, 80
2, 2760, Note_on_c, 0, 67, 80
2, 3101, Note_on_c, 0, 55, 0
2, 3101, Note_on_c, 0, 58, 0
2, 3101, Note_on_c, 0, 62, 0
2, 3101, Note_on_c, 0, 67, 0
2, 3120, Note_on_c, 0, 55, 80
2, 3120, Note_on_c, 0, 58, 80
2, 3120, Note_on_c, 0, 62, 80
2, 3120, Note_on_c, 0, 67, 80
2, 3461, Note_on_c, 0, 55, 0
2, 3461, Note_on_c, 0, 58, 0
2, 3461, Note_on_c, 0, 62, 0
2, 3461, Note_on_c, 0, 67, 0
2, 3480, Note_on_c, 0, 55, 80
2, 3480, Note_on_c, 0, 58, 80
2, 3480, Note_on_c, 0, 62, 80
2, 3480, Note_on_c, 0, 67, 80
2, 3821, Note_on_c, 0, 55, 0
2, 3821, Note_on_c, 0, 58, 0
2, 3821, Note_on_c, 0, 62, 0
2, 3821, Note_on_c, 0, 67, 0
2, 3840, Note_on_c, 0, 51, 80
2, 3840, Note_on_c, 0, 55, 80
2, 3840, Note_on_c, 0, 58, 80
2, 3840, Note_on_c, 0, 63, 80
2, 4295, Note_on_c, 0, 51, 0
2, 4295, Note_on_c, 0, 55, 0
2, 4295, Note_on_c, 0, 58, 0
2, 4295, Note_on_c, 0, 63, 0
2, 4320, Note_on_c, 0, 50, 80
2, 4320, Note_on_c, 0, 54, 80
2, 4320, Note_on_c, 0, 57, 80
2, 4320, Note_on_c, 0, 62, 80
2, 4661, Note_on_c, 0, 50, 0
2, 4661, Note_on_c, 0, 54, 0
2, 4661, Note_on_c, 0, 57, 0
2, 4661, Note_on_c, 0, 62, 0
2, 4680, Note_on_c, 0, 50, 80
2, 4680, Note_on_c, 0, 55, 80
2, 4680, Note_on_c, 0, 58, 80
2, 4680, Note_on_c, 0, 62, 80
2, 5021, Note_on_c, 0, 50, 0
2, 5021, Note_on_c, 0, 55, 0
2, 5021, Note_on_c, 0, 58, 0
2, 5021, Note_on_c, 0, 62, 0
2, 5040, Note_on_c, 0, 50, 80
2, 5040, Note_on_c, 0, 55, 80
2, 5040, Note_on_c, 0, 58, 80
2, 5040, Note_on_c, 0, 62, 80
2, 5381, Note_on_c, 0, 50, 0
2, 5381, Note_on_c, 0, 55, 0
2, 5381, Note_on_c, 0, 58, 0
2, 5381, Note_on_c, 0, 62, 0
2, 5400, Note_on_c, 0, 50, 80
2, 5400, Note_on_c, 0, 55, 80
2, 5400, Note_on_c, 0, 58, 80
2, 5400, Note_on_c, 0, 62, 80
2, 5741, Note_on_c, 0, 50, 0
2, 5741, Note_on_c, 0, 55, 0
2, 5741, Note_on_c, 0, 58, 0
2, 5741, Note_on_c, 0, 62, 0
2, 5760, Note_on_c, 0, 51, 80
2, 5760, Note_on_c, 0, 55, 80
2, 5760, Note_on_c, 0, 58, 80
2, 5760, Note_on_c, 0, 63, 80
2, 6215, Note_on_c, 0, 51, 0
2, 6215, Note_on_c, 0, 55, 0
2, 6215, Note_on_c, 0, 58, 0
2, 6215, Note_on_c, 0, 63, 0
2, 6240, Note_on_c, 0, 50, 80
2, 6240, Note_on_c, 0, 54, 80
2, 6240, Note_on_c, 0, 57, 80
2, 6240, Note_on_c, 0, 62, 80
2, 6581, Note_on_c, 0, 50, 0
2, 6581, Note_on_c, 0, 54, 0
2, 6581, Note_on_c, 0, 57, 0
2, 6581, Note_on_c, 0, 62, 0
2, 6600, Note_on_c, 0, 55, 80
2, 6600, Note_on_c, 0, 58, 80
2, 6600, Note_on_c, 0, 62, 80
2, 6600, Note_on_c, 0, 67, 80
2, 6941, Note_on_c, 0, 55, 0
2, 6941, Note_on_c, 0, 58, 0
2, 6941, Note_on_c, 0, 62, 0
2, 6941, Note_on_c, 0, 67, 0
2, 6960, Note_on_c, 0, 55, 80
2, 6960, Note_on_c, 0, 58, 80
2, 6960, Note_on_c, 0, 62, 80
2, 6960, Note_on_c, 0, 67, 80
2, 7301, Note_on_c, 0, 55, 0
2, 7301, Note_on_c, 0, 58, 0
2, 7301, Note_on_c, 0, 62, 0
2, 7301, Note_on_c, 0, 67, 0
2, 7320, Note_on_c, 0, 55, 80
2, 7320, Note_on_c, 0, 58, 80
2, 7320, Note_on_c, 0, 62, 80
2, 7320, Note_on_c, 0, 67, 80
2, 7661, Note_on_c, 0, 55, 0
2, 7661, Note_on_c, 0, 58, 0
2, 7661, Note_on_c, 0, 62, 0
2, 7661, Note_on_c, 0, 67, 0
2, 7680, Note_on_c, 0, 51, 80
2, 7680, Note_on_c, 0, 55, 80
2, 7680, Note_on_c, 0, 58, 80
2, 7680, Note_on_c, 0, 63, 80
2, 8135, Note_on_c, 0, 51, 0
2, 8135, Note_on_c, 0, 55, 0
2, 8135, Note_on_c, 0, 58, 0
2, 8135, Note_on_c, 0, 63, 0
2, 8160, Note_on_c, 0, 50, 80
2, 8160, Note_on_c, 0, 54, 80
2, 8160, Note_on_c, 0, 57, 80
2, 8160, Note_on_c, 0, 62, 80
2, 8501, Note_on_c, 0, 50, 0
2, 8501, Note_on_c, 0, 54, 0
2, 8501, Note_on_c, 0, 57, 0
2, 8501, Note_on_c, 0, 62, 0
2, 8520, Note_on_c, 0, 50, 80
2, 8520, Note_on_c, 0, 55, 80
2, 8520, Note_on_c, 0, 58, 80
2, 8520, Note_on_c, 0, 62, 80
2, 8861, Note_on_c, 0, 50, 0
2, 8861, Note_on_c, 0, 55, 0
2, 8861, Note_on_c, 0, 58, 0
2, 8861, Note_on_c, 0, 62, 0
2, 8880, Note_on_c, 0, 50, 80
2, 8880, Note_on_c, 0, 55, 80
2, 8880, Note_on_c, 0, 58, 80
2, 8880, Note_on_c, 0, 62, 80
2, 9221, Note_on_c, 0, 50, 0
2, 9221, Note_on_c, 0, 55, 0
2, 9221, Note_on_c, 0, 58, 0
2, 9221, Note_on_c, 0, 62, 0
2, 9240, Note_on_c, 0, 50, 80
2, 9240, Note_on_c, 0, 55, 80
2, 9240, Note_on_c, 0, 58, 80
2, 9240, Note_on_c, 0, 62, 80
2, 9581, Note_on_c, 0, 50, 0
2, 9581, Note_on_c, 0, 55, 0
2, 9581, Note_on_c, 0, 58, 0
2, 9581, Note_on_c, 0, 62, 0
2, 9600, Note_on_c, 0, 51, 80
2, 9600, Note_on_c, 0, 55, 80
2, 9600, Note_on_c, 0, 58, 80
2, 9600, Note_on_c, 0, 63, 80
2, 10055, Note_on_c, 0, 51, 0
2, 10055, Note_on_c, 0, 55, 0
2, 10055, Note_on_c, 0, 58, 0
2, 10055, Note_on_c, 0, 63, 0
2, 10080, Note_on_c, 0, 50, 80
2, 10080, Note_on_c, 0, 54, 80
2, 10080, Note_on_c, 0, 57, 80
2, 10080, Note_on_c, 0, 62, 80
2, 10421, Note_on_c, 0, 50, 0
2, 10421, Note_on_c, 0, 54, 0
2, 10421, Note_on_c, 0, 57, 0
2, 10421, Note_on_c, 0, 62, 0
2, 10440, Note_on_c, 0, 55, 80
2, 10440, Note_on_c, 0, 58, 80
2, 10440, Note_on_c, 0, 62, 80
2, 10440, Note_on_c, 0, 67, 80
2, 10781, Note_on_c, 0, 55, 0
2, 10781, Note_on_c, 0, 58, 0
2, 10781, Note_on_c, 0, 62, 0
2, 10781, Note_on_c, 0, 67, 0
2, 10800, Note_on_c, 0, 55, 80
2, 10800, Note_on_c, 0, 58, 80
2, 10800, Note_on_c, 0, 62, 80
2, 10800, Note_on_c, 0, 67, 80
2, 11141, Note_on_c, 0, 55, 0
2, 11141, Note_on_c, 0, 58, 0
2, 11141, Note_on_c, 0, 62, 0
2, 11141, Note_on_c, 0, 67, 0
2, 11160, Note_on_c, 0, 55, 80
2, 11160, Note_on_c, 0, 58, 80
2, 11160, Note_on_c, 0, 62, 80
2, 11160, Note_on_c, 0, 67, 80
2, 11501, Note_on_c, 0, 55, 0
2, 11501, Note_on_c, 0, 58, 0
2, 11501, Note_on_c, 0, 62, 0
2, 11501, Note_on_c, 0, 67, 0
2, 11520, Note_on_c, 0, 51, 80
2, 11520, Note_on_c, 0, 55, 80
2, 11520, Note_on_c, 0, 58, 80
2, 11520, Note_on_c, 0, 63, 80
2, 11975, Note_on_c, 0, 51, 0
2, 11975, Note_on_c, 0, 55, 0
2, 11975, Note_on_c, 0, 58, 0
2, 11975, Note_on_c, 0, 63, 0
2, 12000, Note_on_c, 0, 50, 80
2, 12000, Note_on_c, 0, 54, 80
2, 12000, Note_on_c, 0, 57, 80
2, 12000, Note_on_c, 0, 62, 80
2, 12341, Note_on_c, 0, 50, 0
2, 12341, Note_on_c, 0, 54, 0
2, 12341, Note_on_c, 0, 57, 0
2, 12341, Note_on_c, 0, 62, 0
2, 12360, Note_on_c, 0, 50, 80
2, 12360, Note_on_c, 0, 55, 80
2, 12360, Note_on_c, 0, 58, 80
2, 12360, Note_on_c, 0, 62, 80
2, 12701, Note_on_c, 0, 50, 0
2, 12701, Note_on_c, 0, 55, 0
2, 12701, Note_on_c, 0, 58, 0
2, 12701, Note_on_c, 0, 62, 0
2, 12720, Note_on_c, 0, 50, 80
2, 12720, Note_on_c, 0, 55, 80
2, 12720, Note_on_c, 0, 58, 80
2, 12720, Note_on_c, 0, 62, 80
2, 13061, Note_on_c, 0, 50, 0
2, 13061, Note_on_c, 0, 55, 0
2, 13061, Note_on_c, 0, 58, 0
2, 13061, Note_on_c, 0, 62, 0
2, 13080, Note_on_c, 0, 50, 80
2, 13080, Note_on_c, 0, 55, 80
2, 13080, Note_on_c, 0, 58, 80
2, 13080, Note_on_c, 0, 62, 80
2, 13421, Note_on_c, 0, 50, 0
2, 13421, Note_on_c, 0, 55, 0
2, 13421, Note_on_c, 0, 58, 0
2, 13421, Note_on_c, 0, 62, 0
2, 13440, Note_on_c, 0, 51, 80
2, 13440, Note_on_c, 0, 55, 80
2, 13440, Note_on_c, 0, 58, 80
2, 13440, Note_on_c, 0, 63, 80
2, 13895, Note_on_c, 0, 51, 0
2, 13895, Note_on_c, 0, 55, 0
2, 13895, Note_on_c, 0, 58, 0
2, 13895, Note_on_c, 0, 63, 0
2, 13920, Note_on_c, 0, 50, 80
2, 13920, Note_on_c, 0, 54, 80
2, 13920, Note_on_c, 0, 57, 80
2, 13920, Note_on_c, 0, 62, 80
2, 14261, Note_on_c, 0, 50, 0
2, 14261, Note_on_c, 0, 54, 0
2, 14261, Note_on_c, 0, 57, 0
2, 14261, Note_on_c, 0, 62, 0
2, 14280, Note_on_c, 0, 55, 80
2, 14280, Note_on_c, 0, 58, 80
2, 14280, Note_on_c, 0, 62, 80
2, 14280, Note_on_c, 0, 67, 80
2, 14621, Note_on_c, 0, 55, 0
2, 14621, Note_on_c, 0, 58, 0
2, 14621, Note_on_c, 0, 62, 0
2, 14621, Note_on_c, 0, 67, 0
2, 14640, Note_on_c, 0, 55, 80
2, 14640, Note_on_c, 0, 58, 80
2, 14640, Note_on_c, 0, 62, 80
2, 14640, Note_on_c, 0, 67, 80
2, 14981, Note_on_c, 0, 55, 0
2, 14981, Note_on_c, 0, 58, 0
2, 14981, Note_on_c, 0, 62, 0
2, 14981, Note_on_c, 0, 67, 0
2, 15000, Note_on_c, 0, 55, 80
2, 15000, Note_on_c, 0, 58, 80
2, 15000, Note_on_c, 0, 62, 80
2, 15000, Note_on_c, 0, 67, 80
2, 15341, Note_on_c, 0, 55, 0
2, 15341, Note_on_c, 0, 58, 0
2, 15341, Note_on_c, 0, 62, 0
2, 15341, Note_on_c, 0, 67, 0
2, 15360, Note_on_c, 0, 51, 80
2, 15360, Note_on_c, 0, 55, 80
2, 15360, Note_on_c, 0, 58, 80
2, 15360, Note_on_c, 0, 63, 80
2, 15815, Note_on_c, 0, 51, 0
2, 15815, Note_on_c, 0, 55, 0
2, 15815, Note_on_c, 0, 58, 0
2, 15815, Note_on_c, 0, 63, 0
2, 15840, Note_on_c, 0, 50, 80
2, 15840, Note_on_c, 0, 54, 80
2, 15840, Note_on_c, 0, 57, 80
2, 15840, Note_on_c, 0, 62, 80
2, 16181, Note_on_c, 0, 50, 0
2, 16181, Note_on_c, 0, 54, 0
2, 16181, Note_on_c, 0, 57, 0
2, 16181, Note_on_c, 0, 62, 0
2, 16200, Note_on_c, 0, 50, 80
2, 16200, Note_on_c, 0, 55, 80
2, 16200, Note_on_c, 0, 58, 80
2, 16200, Note_on_c, 0, 62, 80
2, 16541, Note_on_c, 0, 50, 0
2, 16541, Note_on_c, 0, 55, 0
2, 16541, Note_on_c, 0, 58, 0
2, 16541, Note_on_c, 0, 62, 0
2, 16560, Note_on_c, 0, 50, 80
2, 16560, Note_on_c, 0, 55, 80
2, 16560, Note_on_c, 0, 58, 80
2, 16560, Note_on_c, 0, 62, 80
2, 16901, Note_on_c, 0, 50, 0
2, 16901, Note_on_c, 0, 55, 0
2, 16901, Note_on_c, 0, 58, 0
2, 16901, Note_on_c, 0, 62, 0
2, 16920, Note_on_c, 0, 50, 80
2, 16920, Note_on_c, 0, 55, 80
2, 16920, Note_on_c, 0, 58, 80
2, 16920, Note_on_c, 0, 62, 80
2, 17261, Note_on_c, 0, 50, 0
2, 17261, Note_on_c, 0, 55, 0
2, 17261, Note_on_c, 0, 58, 0
2, 17261, Note_on_c, 0, 62, 0
2, 17280, Note_on_c, 0, 43, 80
2, 17280, Note_on_c, 0, 55, 80
2, 17280, Note_on_c, 0, 58, 80
2, 17280, Note_on_c, 0, 62, 80
2, 17735, Note_on_c, 0, 43, 0
2, 17735, Note_on_c, 0, 55, 0
2, 17735, Note_on_c, 0, 58, 0
2, 17735, Note_on_c, 0, 62, 0
1, 720, Note_on_c, 0, 69, 112
1, 839, Note_on_c, 0, 69, 0
1, 840, Note_on_c, 0, 70, 112
1, 959, Note_on_c, 0, 70, 0
1, 960, Note_on_c, 0, 72, 112
1, 1199, Note_on_c, 0, 72, 0
1, 1200, Note_on_c, 0, 70, 112
1, 1439, Note_on_c, 0, 70, 0
1, 1440, Note_on_c, 0, 69, 112
1, 1679, Note_on_c, 0, 69, 0
1, 1680, Note_on_c, 0, 67, 112
1, 3359, Note_on_c, 0, 67, 0
1, 3360, Note_on_c, 0, 69, 112
1, 3839, Note_on_c, 0, 69, 0
1, 3840, Note_on_c, 0, 67, 112
1, 4319, Note_on_c, 0, 67, 0
1, 4320, Note_on_c, 0, 62, 112
1, 5279, Note_on_c, 0, 62, 0
1, 5280, Note_on_c, 0, 69, 112
1, 5759, Note_on_c, 0, 69, 0
1, 5760, Note_on_c, 0, 67, 112
1, 6239, Note_on_c, 0, 67, 0
1, 6240, Note_on_c, 0, 64, 112
1, 6479, Note_on_c, 0, 64, 0
1, 6480, Note_on_c, 0, 60, 112
1, 7199, Note_on_c, 0, 60, 0
1, 7200, Note_on_c, 0, 60, 112
1, 7679, Note_on_c, 0, 60, 0
1, 8400, Note_on_c, 0, 69, 112
1, 8519, Note_on_c, 0, 69, 0
1, 8520, Note_on_c, 0, 70, 112
1, 8639, Note_on_c, 0, 70, 0
1, 8640, Note_on_c, 0, 72, 112
1, 8879, Note_on_c, 0, 72, 0
1, 8880, Note_on_c, 0, 70, 112
1, 9119, Note_on_c, 0, 70, 0
1, 9120, Note_on_c, 0, 69, 112
1, 9359, Note_on_c, 0, 69, 0
1, 9360, Note_on_c, 0, 67, 112
1, 11039, Note_on_c, 0, 67, 0
1, 11040, Note_on_c, 0, 69, 112
1, 11519, Note_on_c, 0, 69, 0
1, 11520, Note_on_c, 0, 67, 112
1, 11999, Note_on_c, 0, 67, 0
1, 12000, Note_on_c, 0, 62, 112
1, 12959, Note_on_c, 0, 62, 0
1, 12960, Note_on_c, 0, 69, 112
1, 13439, Note_on_c, 0, 69, 0
1, 13440, Note_on_c, 0, 67, 112
1, 13919, Note_on_c, 0, 67, 0
1, 13920, Note_on_c, 0, 64, 112
1, 14159, Note_on_c, 0, 64, 0
1, 14160, Note_on_c, 0, 60, 112
1, 14879, Note_on_c, 0, 60, 0
1, 14880, Note_on_c, 0, 60, 112
1, 15359, Note_on_c, 0, 60, 0
1, 15360, Note_on_c, 0, 62, 112
1, 16319, Note_on_c, 0, 62, 0
1, 18240, Note_on_c, 0, 79, 80
1, 19679, Note_on_c, 0, 79, 0
1, 19680, Note_on_c, 0, 77, 80
1, 20159, Note_on_c, 0, 77, 0
1, 20160, Note_on_c, 0, 72, 80
1, 22079, Note_on_c, 0, 72, 0
1, 22080, Note_on_c, 0, 79, 80
1, 22559, Note_on_c, 0, 79, 0
1, 22560, Note_on_c, 0, 80, 80
1, 23039, Note_on_c, 0, 80, 0
1, 23040, Note_on_c, 0, 79, 80
1, 23519, Note_on_c, 0, 79, 0
1, 23520, Note_on_c, 0, 77, 80
1, 23999, Note_on_c, 0, 77, 0
1, 24000, Note_on_c, 0, 84, 80
1, 24959, Note_on_c, 0, 84, 0
1, 24960, Note_on_c, 0, 82, 80
1, 25919, Note_on_c, 0, 82, 0
1, 25920, Note_on_c, 0, 82, 80
1, 26159, Note_on_c, 0, 82, 0
1, 26160, Note_on_c, 0, 82, 80
1, 26399, Note_on_c, 0, 82, 0
1, 26880, Note_on_c, 0, 84, 80
1, 27119, Note_on_c, 0, 84, 0
1, 27120, Note_on_c, 0, 84, 80
1, 27359, Note_on_c, 0, 84, 0
1, 27840, Note_on_c, 0, 75, 80
1, 28079, Note_on_c, 0, 75, 0
1, 28080, Note_on_c, 0, 75, 80
1, 28319, Note_on_c, 0, 75, 0
1, 29760, Note_on_c, 0, 68, 80
1, 31679, Note_on_c, 0, 68, 0
1, 31680, Note_on_c, 0, 77, 96
1, 32159, Note_on_c, 0, 77, 0
1, 32160, Note_on_c, 0, 80, 96
1, 32639, Note_on_c, 0, 80, 0
1, 32640, Note_on_c, 0, 82, 96
1, 33119, Note_on_c, 0, 82, 0
1, 33120, Note_on_c, 0, 84, 96
1, 33599, Note_on_c, 0, 84, 0
1, 33600, Note_on_c, 0, 73, 80
1, 37439, Note_on_c, 0, 73, 0
1, 48000, Note_on_c, 0, 61, 112
1, 48239, Note_on_c, 0, 61, 0
1, 48240, Note_on_c, 0, 63, 112
1, 48479, Note_on_c, 0, 63, 0
1, 48480, Note_on_c, 0, 65, 112
1, 48719, Note_on_c, 0, 65, 0
1, 48720, Note_on_c, 0, 65, 112
1, 49199, Note_on_c, 0, 65, 0
1, 49200, Note_on_c, 0, 63, 96
1, 49439, Note_on_c, 0, 63, 0
1, 49440, Note_on_c, 0, 63, 96
1, 49919, Note_on_c, 0, 63, 0
1, 49920, Note_on_c, 0, 61, 96
1, 50159, Note_on_c, 0, 61, 0
1, 50160, Note_on_c, 0, 63, 96
1, 50399, Note_on_c, 0, 63, 0
1, 50400, Note_on_c, 0, 61, 96
1, 50879, Note_on_c, 0, 61, 0
1, 51840, Note_on_c, 0, 61, 96
1, 52319, Note_on_c, 0, 61, 0
1, 52320, Note_on_c, 0, 63, 96
1, 52559, Note_on_c, 0, 63, 0
1, 52560, Note_on_c, 0, 65, 96
1, 53039, Note_on_c, 0, 65, 0
1, 53040, Note_on_c, 0, 63, 96
1, 53279, Note_on_c, 0, 63, 0
1, 53280, Note_on_c, 0, 63, 96
1, 53519, Note_on_c, 0, 63, 0
1, 53520, Note_on_c, 0, 61, 96
1, 53999, Note_on_c, 0, 61, 0
1, 54000, Note_on_c, 0, 61, 96
1, 54239, Note_on_c, 0, 61, 0
1, 54240, Note_on_c, 0, 68, 96
1, 54479, Note_on_c, 0, 68, 0
1, 54480, Note_on_c, 0, 66, 96
1, 54719, Note_on_c, 0, 66, 0
1, 54720, Note_on_c, 0, 66, 96
1, 54959, Note_on_c, 0, 66, 0
1, 54960, Note_on_c, 0, 65, 96
1, 55199, Note_on_c, 0, 65, 0
1, 55680, Note_on_c, 0, 61, 96
1, 55919, Note_on_c, 0, 61, 0
1, 55920, Note_on_c, 0, 63, 96
1, 56159, Note_on_c, 0, 63, 0
1, 56160, Note_on_c, 0, 65, 96
1, 56399, Note_on_c, 0, 65, 0
1, 56400, Note_on_c, 0, 65, 96
1, 56879, Note_on_c, 0, 65, 0
1, 56880, Note_on_c, 0, 63, 96
1, 57119, Note_on_c, 0, 63, 0
1, 57120, Note_on_c, 0, 63, 96
1, 57599, Note_on_c, 0, 63, 0
1, 57600, Note_on_c, 0, 61, 96
1, 57839, Note_on_c, 0, 61, 0
1, 57840, Note_on_c, 0, 63, 96
1, 58079, Note_on_c, 0, 63, 0
1, 58080, Note_on_c, 0, 61, 96
1, 58559, Note_on_c, 0, 61, 0
1, 59280, Note_on_c, 0, 61, 96
1, 59519, Note_on_c, 0, 61, 0
1, 59520, Note_on_c, 0, 61, 96
1, 59759, Note_on_c, 0, 61, 0
1, 59760, Note_on_c, 0, 63, 96
1, 59999, Note_on_c, 0, 63, 0
1, 60000, Note_on_c, 0, 65, 96
1, 60239, Note_on_c, 0, 65, 0
1, 60240, Note_on_c, 0, 65, 96
1, 60719, Note_on_c, 0, 65, 0
1, 60720, Note_on_c, 0, 61, 96
1, 60959, Note_on_c, 0, 61, 0
1, 60960, Note_on_c, 0, 61, 96
1, 61199, Note_on_c, 0, 61, 0
1, 61200, Note_on_c, 0, 61, 96
1, 61439, Note_on_c, 0, 61, 0
1, 61440, Note_on_c, 0, 61, 96
1, 61679, Note_on_c, 0, 61, 0
1, 61680, Note_on_c, 0, 68, 96
1, 61919, Note_on_c, 0, 68, 0
1, 61920, Note_on_c, 0, 66, 96
1, 62159, Note_on_c, 0, 66, 0
1, 62160, Note_on_c, 0, 65, 96
1, 62639, Note_on_c, 0, 65, 0
1, 62640, Note_on_c, 0, 63, 96
1, 62879, Note_on_c, 0, 63, 0
1, 62880, Note_on_c, 0, 61, 96
1, 63119, Note_on_c, 0, 61, 0
1, 63120, Note_on_c, 0, 61, 96
1, 63359, Note_on_c, 0, 61, 0
1, 63360, Note_on_c, 0, 65, 96
1, 64319, Note_on_c, 0, 65, 0
1, 64320, Note_on_c, 0, 65, 96
1, 65759, Note_on_c, 0, 65, 0
1, 66000, Note_on_c, 0, 67, 96
1, 66239, Note_on_c, 0, 67, 0
1, 66720, Note_on_c, 0, 68, 96
1, 67679, Note_on_c, 0, 68, 0
1, 68160, Note_on_c, 0, 65, 96
1, 69599, Note_on_c, 0, 65, 0
1, 69840, Note_on_c, 0, 67, 96
1, 70079, Note_on_c, 0, 67, 0
1, 70560, Note_on_c, 0, 68, 96
1, 71519, Note_on_c, 0, 68, 0
1, 72000, Note_on_c, 0, 65, 96
1, 73439, Note_on_c, 0, 65, 0
1, 73680, Note_on_c, 0, 67, 96
1, 73919, Note_on_c, 0, 67, 0
1, 74400, Note_on_c, 0, 68, 96
1, 75359, Note_on_c, 0, 68, 0
1, 75840, Note_on_c, 0, 67, 96
1, 76799, Note_on_c, 0, 67, 0
1, 76800, Note_on_c, 0, 65, 96
1, 77759, Note_on_c, 0, 65, 0
1, 79680, Note_on_c, 0, 63, 96
1, 79799, Note_on_c, 0, 63, 0
1, 79800, Note_on_c, 0, 63, 96
1, 79919, Note_on_c, 0, 63, 0
1, 79920, Note_on_c, 0, 63, 96
1, 80039, Note_on_c, 0, 63, 0
1, 80040, Note_on_c, 0, 63, 96
1, 80159, Note_on_c, 0, 63, 0
1, 80160, Note_on_c, 0, 63, 96
1, 80279, Note_on_c, 0, 63, 0
1, 80280, Note_on_c, 0, 63, 96
1, 80399, Note_on_c, 0, 63, 0
1, 80400, Note_on_c, 0, 63, 96
1, 80519, Note_on_c, 0, 63, 0
1, 80520, Note_on_c, 0, 63, 96
1, 80639, Note_on_c, 0, 63, 0
1, 80640, Note_on_c, 0, 63, 96
1, 80759, Note_on_c, 0, 63, 0
1, 80760, Note_on_c, 0, 63, 96
1, 80879, Note_on_c, 0, 63, 0
1, 80880, Note_on_c, 0, 63, 96
1, 80999, Note_on_c, 0, 63, 0
1, 81000, Note_on_c, 0, 63, 96
1, 81119, Note_on_c, 0, 63, 0
1, 81120, Note_on_c, 0, 63, 96
1, 81239, Note_on_c, 0, 63, 0
1, 81240, Note_on_c, 0, 63, 96
1, 81359, Note_on_c, 0, 63, 0
1, 81360, Note_on_c, 0, 63, 96
1, 81479, Note_on_c, 0, 63, 0
1, 81480, Note_on_c, 0, 63, 96
1, 81599, Note_on_c, 0, 63, 0
1, 81600, Note_on_c, 0, 63, 96
1, 81719, Note_on_c, 0, 63, 0
1, 81720, Note_on_c, 0, 63, 96
1, 81839, Note_on_c, 0, 63, 0
1, 81840, Note_on_c, 0, 63, 96
1, 81959, Note_on_c, 0, 63, 0
1, 81960, Note_on_c, 0, 63, 96
1, 82079, Note_on_c, 0, 63, 0
1, 82080, Note_on_c, 0, 63, 96
1, 82199, Note_on_c, 0, 63, 0
1, 82200, Note_on_c, 0, 63, 96
1, 82319, Note_on_c, 0, 63, 0
1, 82320, Note_on_c, 0, 63, 96
1, 82439, Note_on_c, 0, 63, 0
1, 82440, Note_on_c, 0, 63, 96
1, 82559, Note_on_c, 0, 63, 0
1, 82560, Note_on_c, 0, 63, 96
1, 82679, Note_on_c, 0, 63, 0
1, 82680, Note_on_c, 0, 63, 96
1, 82799, Note_on_c, 0, 63, 0
1, 82800, Note_on_c, 0, 63, 96
1, 82919, Note_on_c, 0, 63, 0
1, 82920, Note_on_c, 0, 63, 96
1, 83039, Note_on_c, 0, 63, 0
1, 83040, Note_on_c, 0, 63, 96
1, 83159, Note_on_c, 0, 63, 0
1, 83160, Note_on_c, 0, 63, 96
1, 83279, Note_on_c, 0, 63, 0
1, 83280, Note_on_c, 0, 63, 96
1, 83399, Note_on_c, 0, 63, 0
1, 83400, Note_on_c, 0, 63, 96
1, 83519, Note_on_c, 0, 63, 0
1, 83520, Note_on_c, 0, 65, 96
1, 83639, Note_on_c, 0, 65, 0
1, 83640, Note_on_c, 0, 65, 95
1, 83759, Note_on_c, 0, 65, 0
1, 83760, Note_on_c, 0, 65, 94
1, 83879, Note_on_c, 0, 65, 0
1, 83880, Note_on_c, 0, 65, 93
1, 83999, Note_on_c, 0, 65, 0
1, 84000, Note_on_c, 0, 65, 92
1, 84119, Note_on_c, 0, 65, 0
1, 84120, Note_on_c, 0, 65, 91
1, 84239, Note_on_c, 0, 65, 0
1, 84240, Note_on_c, 0, 65, 90
1, 84359, Note_on_c, 0, 65, 0
1, 84360, Note_on_c, 0, 65, 89
1, 84479, Note_on_c, 0, 65, 0
1, 84480, Note_on_c, 0, 65, 88
1, 84599, Note_on_c, 0, 65, 0
1, 84600, Note_on_c, 0, 65, 87
1, 84719, Note_on_c, 0, 65, 0
1, 84720, Note_on_c, 0, 65, 86
1, 84839, Note_on_c, 0, 65, 0
1, 84840, Note_on_c, 0, 65, 85
1, 84959, Note_on_c, 0, 65, 0
1, 84960, Note_on_c, 0, 65, 84
1, 85079, Note_on_c, 0, 65, 0
1, 85080, Note_on_c, 0, 65, 83
1, 85199, Note_on_c, 0, 65, 0
1, 85200, Note_on_c, 0, 65, 82
1, 85319, Note_on_c, 0, 65, 0
1, 85320, Note_on_c, 0, 65, 81
1, 85439, Note_on_c, 0, 65, 0
1, 85440, Note_on_c, 0, 68, 80
1, 87359, Note_on_c, 0, 68, 0
1, 87360, Note_on_c, 0, 68, 64
1, 88799, Note_on_c, 0, 68, 0
1, 88800, Note_on_c, 0, 68, 64
1, 89279, Note_on_c, 0, 68, 0
1, 89280, Note_on_c, 0, 67, 64
1, 92159, Note_on_c, 0, 67, 0
1, 93120, Note_on_c, 0, 67, 64
1, 96959, Note_on_c, 0, 67, 0
1, 96960, Note_on_c, 0, 67, 64
1, 99839, Note_on_c, 0, 67, 0
1, 99840, Note_on_c, 0, 67, 64
1, 100799, Note_on_c, 0, 67, 0
1, 100800, Note_on_c, 0, 68, 64
1, 103679, Note_on_c, 0, 68, 0
1, 103680, Note_on_c, 0, 68, 64
1, 104639, Note_on_c, 0, 68, 0
1, 104640, Note_on_c, 0, 67, 64
1, 106559, Note_on_c, 0, 67, 0
1, 106560, Note_on_c, 0, 62, 64
1, 108479, Note_on_c, 0, 62, 0
1, 110880, Note_on_c, 0, 65, 64
1, 111839, Note_on_c, 0, 65, 0
1, 111840, Note_on_c, 0, 58, 64
1, 112799, Note_on_c, 0, 58, 0
1, 112800, Note_on_c, 0, 58, 64
1, 113759, Note_on_c, 0, 58, 0
1, 113760, Note_on_c, 0, 60, 64
1, 114719, Note_on_c, 0, 60, 0
1, 114720, Note_on_c, 0, 58, 64
1, 115679, Note_on_c, 0, 58, 0
1, 115680, Note_on_c, 0, 58, 64
1, 116639, Note_on_c, 0, 58, 0
1, 116640, Note_on_c, 0, 61, 64
1, 117599, Note_on_c, 0, 61, 0
1, 117600, Note_on_c, 0, 61, 64
1, 118559, Note_on_c, 0, 61, 0
1, 118560, Note_on_c, 0, 57, 64
1, 120479, Note_on_c, 0, 57, 0
1, 120480, Note_on_c, 0, 60, 64
1, 122399, Note_on_c, 0, 60, 0
1, 122400, Note_on_c, 0, 61, 64
1, 124319, Note_on_c, 0, 61, 0
1, 124320, Note_on_c, 0, 57, 64
1, 125759, Note_on_c, 0, 57, 0
1, 141120, Note_on_c, 0, 64, 112
1, 143999, Note_on_c, 0, 64, 0
1, 144000, Note_on_c, 0, 66, 112
1, 144239, Note_on_c, 0, 66, 0
1, 144240, Note_on_c, 0, 67, 112
1, 144479, Note_on_c, 0, 67, 0
1, 144480, Note_on_c, 0, 66, 112
1, 144719, Note_on_c, 0, 66, 0
1, 144720, Note_on_c, 0, 62, 112
1, 144959, Note_on_c, 0, 62, 0
1, 144960, Note_on_c, 0, 67, 112
1, 147839, Note_on_c, 0, 67, 0
1, 147840, Note_on_c, 0, 66, 112
1, 148079, Note_on_c, 0, 66, 0
1, 148080, Note_on_c, 0, 67, 112
1, 148319, Note_on_c, 0, 67, 0
1, 148320, Note_on_c, 0, 66, 112
1, 148559, Note_on_c, 0, 66, 0
1, 148560, Note_on_c, 0, 62, 112
1, 148799, Note_on_c, 0, 62, 0
1, 148800, Note_on_c, 0, 64, 112
1, 148883, Note_on_c, 0, 64, 0
1, 148884, Note_on_c, 0, 66, 112
1, 149278, Note_on_c, 0, 66, 0
1, 149280, Note_on_c, 0, 64, 112
1, 149363, Note_on_c, 0, 64, 0
1, 149364, Note_on_c, 0, 66, 112
1, 149758, Note_on_c, 0, 66, 0
1, 149760, Note_on_c, 0, 64, 112
1, 150719, Note_on_c, 0, 64, 0
1, 152640, Note_on_c, 0, 76, 112
1, 152879, Note_on_c, 0, 76, 0
1, 152880, Note_on_c, 0, 71, 112
1, 153119, Note_on_c, 0, 71, 0
1, 153120, Note_on_c, 0, 69, 112
1, 153359, Note_on_c, 0, 69, 0
1, 153360, Note_on_c, 0, 67, 112
1, 153599, Note_on_c, 0, 67, 0
1, 153600, Note_on_c, 0, 69, 112
1, 153839, Note_on_c, 0, 69, 0
1, 153840, Note_on_c, 0, 71, 112
1, 154079, Note_on_c, 0, 71, 0
1, 154560, Note_on_c, 0, 76, 112
1, 154799, Note_on_c, 0, 76, 0
1, 154800, Note_on_c, 0, 71, 112
1, 155039, Note_on_c, 0, 71, 0
1, 155040, Note_on_c, 0, 69, 112
1, 155279, Note_on_c, 0, 69, 0
1, 155280, Note_on_c, 0, 67, 112
1, 155519, Note_on_c, 0, 67, 0
1, 155520, Note_on_c, 0, 69, 112
1, 155759, Note_on_c, 0, 69, 0
1, 155760, Note_on_c, 0, 67, 112
1, 155999, Note_on_c, 0, 67, 0
1, 156000, Note_on_c, 0, 64, 112
1, 156239, Note_on_c, 0, 64, 0
1, 156240, Note_on_c, 0, 62, 112
1, 156479, Note_on_c, 0, 62, 0
1, 156480, Note_on_c, 0, 64, 112
1, 158399, Note_on_c, 0, 64, 0
1, 192240, Note_on_c, 0, 68, 80
1, 192479, Note_on_c, 0, 68, 0
1, 192480, Note_on_c, 0, 68, 80
1, 192719, Note_on_c, 0, 68, 0
1, 192720, Note_on_c, 0, 76, 80
1, 193199, Note_on_c, 0, 76, 0
1, 193200, Note_on_c, 0, 71, 80
1, 193679, Note_on_c, 0, 71, 0
1, 193680, Note_on_c, 0, 68, 80
1, 193919, Note_on_c, 0, 68, 0
1, 194160, Note_on_c, 0, 68, 80
1, 194399, Note_on_c, 0, 68, 0
1, 194400, Note_on_c, 0, 68, 80
1, 194639, Note_on_c, 0, 68, 0
1, 194640, Note_on_c, 0, 76, 80
1, 195119, Note_on_c, 0, 76, 0
1, 195120, Note_on_c, 0, 71, 80
1, 195599, Note_on_c, 0, 71, 0
1, 195600, Note_on_c, 0, 68, 80
1, 195839, Note_on_c, 0, 68, 0
1, 196080, Note_on_c, 0, 68, 80
1, 196319, Note_on_c, 0, 68, 0
1, 196560, Note_on_c, 0, 68, 80
1, 196799, Note_on_c, 0, 68, 0
1, 196800, Note_on_c, 0, 75, 80
1, 197039, Note_on_c, 0, 75, 0
1, 197040, Note_on_c, 0, 73, 80
1, 197279, Note_on_c, 0, 73, 0
1, 197280, Note_on_c, 0, 75, 80
1, 197759, Note_on_c, 0, 75, 0
1, 200160, Note_on_c, 0, 80, 98
1, 200399, Note_on_c, 0, 80, 0
1, 200400, Note_on_c, 0, 80, 100
1, 200639, Note_on_c, 0, 80, 0
1, 200640, Note_on_c, 0, 80, 97
1, 200879, Note_on_c, 0, 80, 0
1, 200880, Note_on_c, 0, 78, 100
1, 201119, Note_on_c, 0, 78, 0
1, 201120, Note_on_c, 0, 78, 95
1, 201359, Note_on_c, 0, 78, 0
1, 201360, Note_on_c, 0, 78, 100
1, 201839, Note_on_c, 0, 78, 0
1, 201840, Note_on_c, 0, 76, 89
1, 202319, Note_on_c, 0, 76, 0
1, 202320, Note_on_c, 0, 78, 96
1, 203039, Note_on_c, 0, 78, 0
1, 203040, Note_on_c, 0, 76, 100
1, 203279, Note_on_c, 0, 76, 0
1, 203280, Note_on_c, 0, 78, 80
1, 203999, Note_on_c, 0, 78, 0
1, 204000, Note_on_c, 0, 80, 98
1, 204239, Note_on_c, 0, 80, 0
1, 204240, Note_on_c, 0, 78, 108
1, 204479, Note_on_c, 0, 78, 0
1, 204480, Note_on_c, 0, 76, 97
1, 204719, Note_on_c, 0, 76, 0
1, 204720, Note_on_c, 0, 73, 80
1, 205679, Note_on_c, 0, 73, 0
1, 215520, Note_on_c, 0, 76, 102
1, 215759, Note_on_c, 0, 76, 0
1, 215760, Note_on_c, 0, 76, 106
1, 215999, Note_on_c, 0, 76, 0
1, 216000, Note_on_c, 0, 76, 107
1, 216239, Note_on_c, 0, 76, 0
1, 216240, Note_on_c, 0, 71, 91
1, 216719, Note_on_c, 0, 71, 0
1, 216720, Note_on_c, 0, 71, 105
1, 217439, Note_on_c, 0, 71, 0
1, 217680, Note_on_c, 0, 68, 80
1, 217919, Note_on_c, 0, 68, 0
1, 217920, Note_on_c, 0, 71, 98
1, 218399, Note_on_c, 0, 71, 0
1, 218640, Note_on_c, 0, 68, 80
1, 218879, Note_on_c, 0, 68, 0
1, 218880, Note_on_c, 0, 71, 102
1, 219359, Note_on_c, 0, 71, 0
1, 219600, Note_on_c, 0, 73, 99
1, 219839, Note_on_c, 0, 73, 0
1, 219840, Note_on_c, 0, 71, 80
1, 220079, Note_on_c, 0, 71, 0
1, 220320, Note_on_c, 0, 68, 80
1, 220799, Note_on_c, 0, 68, 0
1, 228480, Note_on_c, 0, 75, 110
1, 228959, Note_on_c, 0, 75, 0
1, 228960, Note_on_c, 0, 80, 104
1, 229199, Note_on_c, 0, 80, 0
1, 229200, Note_on_c, 0, 75, 90
1, 229439, Note_on_c, 0, 75, 0
1, 229440, Note_on_c, 0, 80, 108
1, 229919, Note_on_c, 0, 80, 0
1, 229920, Note_on_c, 0, 80, 96
1, 230159, Note_on_c, 0, 80, 0
1, 230160, Note_on_c, 0, 78, 99
1, 230399, Note_on_c, 0, 78, 0
1, 230400, Note_on_c, 0, 80, 106
1, 230879, Note_on_c, 0, 80, 0
1, 230880, Note_on_c, 0, 78, 98
1, 231359, Note_on_c, 0, 78, 0
1, 231360, Note_on_c, 0, 76, 96
1, 232319, Note_on_c, 0, 76, 0
1, 232560, Note_on_c, 0, 76, 80
1, 232799, Note_on_c, 0, 76, 0
1, 232800, Note_on_c, 0, 76, 105
1, 233039, Note_on_c, 0, 76, 0
1, 233040, Note_on_c, 0, 76, 80
1, 233279, Note_on_c, 0, 76, 0
1, 233280, Note_on_c, 0, 76, 100
1, 233759, Note_on_c, 0, 76, 0
1, 233760, Note_on_c, 0, 76, 96
1, 233999, Note_on_c, 0, 76, 0
1, 234000, Note_on_c, 0, 76, 80
1, 234239, Note_on_c, 0, 76, 0
1, 234240, Note_on_c, 0, 78, 97
1, 234719, Note_on_c, 0, 78, 0
1, 234720, Note_on_c, 0, 78, 104
1, 234959, Note_on_c, 0, 78, 0
1, 234960, Note_on_c, 0, 76, 96
1, 236159, Note_on_c, 0, 76, 0
1, 236400, Note_on_c, 0, 76, 80
1, 236639, Note_on_c, 0, 76, 0
1, 236640, Note_on_c, 0, 76, 105
1, 236879, Note_on_c, 0, 76, 0
1, 236880, Note_on_c, 0, 76, 80
1, 237119, Note_on_c, 0, 76, 0
1, 237120, Note_on_c, 0, 76, 98
1, 237599, Note_on_c, 0, 76, 0
1, 237600, Note_on_c, 0, 76, 98
1, 237839, Note_on_c, 0, 76, 0
1, 237840, Note_on_c, 0, 76, 98
1, 238079, Note_on_c, 0, 76, 0
1, 238080, Note_on_c, 0, 78, 105
1, 238559, Note_on_c, 0, 78, 0
1, 238560, Note_on_c, 0, 78, 103
1, 238799, Note_on_c, 0, 78, 0
1, 238800, Note_on_c, 0, 76, 100
1, 239999, Note_on_c, 0, 76, 0
1, 240240, Note_on_c, 0, 76, 80
1, 240479, Note_on_c, 0, 76, 0
1, 240480, Note_on_c, 0, 76, 80
1, 240719, Note_on_c, 0, 76, 0
1, 240720, Note_on_c, 0, 76, 80
1, 240959, Note_on_c, 0, 76, 0
1, 240960, Note_on_c, 0, 76, 98
1, 241439, Note_on_c, 0, 76, 0
1, 241440, Note_on_c, 0, 76, 98
1, 241679, Note_on_c, 0, 76, 0
1, 241680, Note_on_c, 0, 76, 98
1, 241919, Note_on_c, 0, 76, 0
1, 241920, Note_on_c, 0, 78, 105
1, 242399, Note_on_c, 0, 78, 0
1, 242400, Note_on_c, 0, 78, 103
1, 242639, Note_on_c, 0, 78, 0
1, 242640, Note_on_c, 0, 76, 100
1, 243839, Note_on_c, 0, 76, 0
1, 243840, Note_on_c, 0, 71, 97
1, 244079, Note_on_c, 0, 71, 0
1, 244080, Note_on_c, 0, 71, 102
1, 244319, Note_on_c, 0, 71, 0
1, 244320, Note_on_c, 0, 71, 109
1, 244799, Note_on_c, 0, 71, 0
1, 244800, Note_on_c, 0, 71, 111
1, 245279, Note_on_c, 0, 71, 0
1, 245280, Note_on_c, 0, 68, 93
1, 245759, Note_on_c, 0, 68, 0
1, 245760, Note_on_c, 0, 68, 99
1, 246719, Note_on_c, 0, 68, 0
1, 246720, Note_on_c, 0, 71, 101
1, 246959, Note_on_c, 0, 71, 0
1, 246960, Note_on_c, 0, 71, 87
1, 247199, Note_on_c, 0, 71, 0
1, 247200, Note_on_c, 0, 71, 93
1, 247679, Note_on_c, 0, 71, 0
1, 247680, Note_on_c, 0, 71, 95
1, 248159, Note_on_c, 0, 71, 0
1, 248160, Note_on_c, 0, 68, 83
1, 248639, Note_on_c, 0, 68, 0
1, 248640, Note_on_c, 0, 73, 94
1, 249599, Note_on_c, 0, 73, 0
1, 249600, Note_on_c, 0, 71, 95
1, 250559, Note_on_c, 0, 71, 0
1, 250560, Note_on_c, 0, 71, 80
1, 252479, Note_on_c, 0, 71, 0
2, 0, Note_on_c, 3, 65, 96
2, 1439, Note_on_c, 3, 65, 0
2, 1440, Note_on_c, 3, 65, 96
2, 1919, Note_on_c, 3, 65, 0
2, 1920, Note_on_c, 3, 72, 96
2, 3359, Note_on_c, 3, 72, 0
2, 3360, Note_on_c, 3, 64, 96
2, 3839, Note_on_c, 3, 64, 0
2, 3840, Note_on_c, 3, 70, 96
2, 5279, Note_on_c, 3, 70, 0
2, 5280, Note_on_c, 3, 69, 96
2, 5759, Note_on_c, 3, 69, 0
2, 5760, Note_on_c, 3, 70, 96
2, 6239, Note_on_c, 3, 70, 0
2, 6240, Note_on_c, 3, 72, 96
2, 7679, Note_on_c, 3, 72, 0
2, 7680, Note_on_c, 3, 65, 96
2, 8399, Note_on_c, 3, 65, 0
2, 8400, Note_on_c, 3, 65, 96
2, 8519, Note_on_c, 3, 65, 0
2, 8520, Note_on_c, 3, 65, 96
2, 8639, Note_on_c, 3, 65, 0
2, 8640, Note_on_c, 3, 65, 96
2, 8879, Note_on_c, 3, 65, 0
2, 8880, Note_on_c, 3, 65, 96
2, 9119, Note_on_c, 3, 65, 0
2, 9120, Note_on_c, 3, 65, 96
2, 9359, Note_on_c, 3, 65, 0
2, 9360, Note_on_c, 3, 67, 96
2, 9599, Note_on_c, 3, 67, 0
2, 9600, Note_on_c, 3, 64, 96
2, 11039, Note_on_c, 3, 64, 0
2, 11040, Note_on_c, 3, 62, 96
2, 11519, Note_on_c, 3, 62, 0
2, 11520, Note_on_c, 3, 65, 96
2, 11999, Note_on_c, 3, 65, 0
2, 12000, Note_on_c, 3, 62, 96
2, 12959, Note_on_c, 3, 62, 0
2, 12960, Note_on_c, 3, 62, 96
2, 13439, Note_on_c, 3, 62, 0
2, 13440, Note_on_c, 3, 64, 96
2, 13919, Note_on_c, 3, 64, 0
2, 13920, Note_on_c, 3, 64, 96
2, 14159, Note_on_c, 3, 64, 0
2, 14160, Note_on_c, 3, 65, 96
2, 14879, Note_on_c, 3, 65, 0
2, 14880, Note_on_c, 3, 65, 96
2, 15359, Note_on_c, 3, 65, 0
2, 15360, Note_on_c, 3, 62, 96
2, 16319, Note_on_c, 3, 62, 0
2, 18240, Note_on_c, 3, 79, 80
2, 19679, Note_on_c, 3, 79, 0
2, 19680, Note_on_c, 3, 77, 80
2, 20159, Note_on_c, 3, 77, 0
2, 20160, Note_on_c, 3, 68, 80
2, 22079, Note_on_c, 3, 68, 0
2, 22080, Note_on_c, 3, 79, 80
2, 22559, Note_on_c, 3, 79, 0
2, 22560, Note_on_c, 3, 80, 80
2, 23039, Note_on_c, 3, 80, 0
2, 23040, Note_on_c, 3, 79, 80
2, 23519, Note_on_c, 3, 79, 0
2, 23520, Note_on_c, 3, 77, 80
2, 23999, Note_on_c, 3, 77, 0
2, 24000, Note_on_c, 3, 84, 80
2, 24959, Note_on_c, 3, 84, 0
2, 24960, Note_on_c, 3, 82, 80
2, 25919, Note_on_c, 3, 82, 0
2, 25920, Note_on_c, 3, 61, 80
2, 27839, Note_on_c, 3, 61, 0
2, 27840, Note_on_c, 3, 65, 80
2, 29759, Note_on_c, 3, 65, 0
2, 29760, Note_on_c, 3, 65, 80
2, 31679, Note_on_c, 3, 65, 0
2, 31680, Note_on_c, 3, 77, 96
2, 32159, Note_on_c, 3, 77, 0
2, 32160, Note_on_c, 3, 80, 96
2, 32639, Note_on_c, 3, 80, 0
2, 32640, Note_on_c, 3, 82, 96
2, 33119, Note_on_c, 3, 82, 0
2, 33120, Note_on_c, 3, 84, 96
2, 33599, Note_on_c, 3, 84, 0
2, 33600, Note_on_c, 3, 73, 80
2, 37439, Note_on_c, 3, 73, 0
2, 41280, Note_on_c, 3, 58, 112
2, 41759, Note_on_c, 3, 58, 0
2, 41760, Note_on_c, 3, 58, 112
2, 41879, Note_on_c, 3, 58, 0
2, 42000, Note_on_c, 3, 58, 112
2, 42119, Note_on_c, 3, 58, 0
2, 42240, Note_on_c, 3, 58, 112
2, 42359, Note_on_c, 3, 58, 0
2, 42480, Note_on_c, 3, 58, 112
2, 42599, Note_on_c, 3, 58, 0
2, 42720, Note_on_c, 3, 58, 112
2, 43199, Note_on_c, 3, 58, 0
2, 43200, Note_on_c, 3, 58, 112
2, 43679, Note_on_c, 3, 58, 0
2, 43680, Note_on_c, 3, 61, 112
2, 43799, Note_on_c, 3, 61, 0
2, 43920, Note_on_c, 3, 61, 112
2, 44039, Note_on_c, 3, 61, 0
2, 44160, Note_on_c, 3, 61, 112
2, 44279, Note_on_c, 3, 61, 0
2, 44400, Note_on_c, 3, 61, 112
2, 44519, Note_on_c, 3, 61, 0
2, 44640, Note_on_c, 3, 68, 112
2, 45119, Note_on_c, 3, 68, 0
2, 45120, Note_on_c, 3, 66, 112
2, 45599, Note_on_c, 3, 66, 0
2, 45600, Note_on_c, 3, 66, 112
2, 45719, Note_on_c, 3, 66, 0
2, 45840, Note_on_c, 3, 66, 112
2, 45959, Note_on_c, 3, 66, 0
2, 46080, Note_on_c, 3, 66, 112
2, 46199, Note_on_c, 3, 66, 0
2, 46320, Note_on_c, 3, 66, 112
2, 46439, Note_on_c, 3, 66, 0
2, 46560, Note_on_c, 3, 65, 112
2, 47039, Note_on_c, 3, 65, 0
2, 47040, Note_on_c, 3, 63, 112
2, 47519, Note_on_c, 3, 63, 0
2, 47520, Note_on_c, 3, 63, 112
2, 47639, Note_on_c, 3, 63, 0
2, 47760, Note_on_c, 3, 63, 112
2, 47879, Note_on_c, 3, 63, 0
2, 48000, Note_on_c, 3, 63, 112
2, 48119, Note_on_c, 3, 63, 0
2, 48240, Note_on_c, 3, 63, 112
2, 48359, Note_on_c, 3, 63, 0
2, 48480, Note_on_c, 3, 63, 112
2, 48959, Note_on_c, 3, 63, 0
2, 48960, Note_on_c, 3, 65, 96
2, 49919, Note_on_c, 3, 65, 0
2, 49920, Note_on_c, 3, 73, 96
2, 50159, Note_on_c, 3, 73, 0
2, 50400, Note_on_c, 3, 68, 115
2, 52319, Note_on_c, 3, 68, 0
2, 53040, Note_on_c, 3, 73, 96
2, 53279, Note_on_c, 3, 73, 0
2, 53280, Note_on_c, 3, 68, 96
2, 53519, Note_on_c, 3, 68, 0
2, 53520, Note_on_c, 3, 65, 96
2, 53759, Note_on_c, 3, 65, 0
2, 53760, Note_on_c, 3, 65, 96
2, 53999, Note_on_c, 3, 65, 0
2, 54000, Note_on_c, 3, 63, 96
2, 54239, Note_on_c, 3, 63, 0
2, 54240, Note_on_c, 3, 65, 96
2, 54479, Note_on_c, 3, 65, 0
2, 54480, Note_on_c, 3, 63, 96
2, 54719, Note_on_c, 3, 63, 0
2, 54720, Note_on_c, 3, 65, 96
2, 54879, Note_on_c, 3, 65, 0
2, 54880, Note_on_c, 3, 63, 96
2, 55039, Note_on_c, 3, 63, 0
2, 55040, Note_on_c, 3, 65, 96
2, 56639, Note_on_c, 3, 65, 0
2, 56640, Note_on_c, 3, 65, 96
2, 57599, Note_on_c, 3, 65, 0
2, 57600, Note_on_c, 3, 73, 96
2, 57839, Note_on_c, 3, 73, 0
2, 58080, Note_on_c, 3, 68, 115
2, 59999, Note_on_c, 3, 68, 0
2, 60720, Note_on_c, 3, 73, 96
2, 60959, Note_on_c, 3, 73, 0
2, 60960, Note_on_c, 3, 68, 96
2, 61199, Note_on_c, 3, 68, 0
2, 61200, Note_on_c, 3, 65, 96
2, 61439, Note_on_c, 3, 65, 0
2, 61440, Note_on_c, 3, 65, 96
2, 61679, Note_on_c, 3, 65, 0
2, 61680, Note_on_c, 3, 63, 96
2, 61919, Note_on_c, 3, 63, 0
2, 61920, Note_on_c, 3, 65, 96
2, 62159, Note_on_c, 3, 65, 0
2, 62160, Note_on_c, 3, 63, 96
2, 62399, Note_on_c, 3, 63, 0
2, 62400, Note_on_c, 3, 65, 96
2, 62559, Note_on_c, 3, 65, 0
2, 62560, Note_on_c, 3, 63, 96
2, 62719, Note_on_c, 3, 63, 0
2, 62720, Note_on_c, 3, 65, 96
2, 63359, Note_on_c, 3, 65, 0
2, 63360, Note_on_c, 3, 58, 96
2, 64319, Note_on_c, 3, 58, 0
2, 64320, Note_on_c, 3, 61, 96
2, 65759, Note_on_c, 3, 61, 0
2, 66000, Note_on_c, 3, 63, 96
2, 66239, Note_on_c, 3, 63, 0
2, 66720, Note_on_c, 3, 65, 96
2, 67679, Note_on_c, 3, 65, 0
2, 68160, Note_on_c, 3, 61, 96
2, 69599, Note_on_c, 3, 61, 0
2, 69840, Note_on_c, 3, 63, 96
2, 70079, Note_on_c, 3, 63, 0
2, 70560, Note_on_c, 3, 65, 96
2, 71519, Note_on_c, 3, 65, 0
2, 72000, Note_on_c, 3, 65, 96
2, 72959, Note_on_c, 3, 65, 0
2, 72960, Note_on_c, 3, 61, 96
2, 73439, Note_on_c, 3, 61, 0
2, 73680, Note_on_c, 3, 63, 96
2, 73919, Note_on_c, 3, 63, 0
2, 74400, Note_on_c, 3, 65, 96
2, 75359, Note_on_c, 3, 65, 0
2, 75840, Note_on_c, 3, 60, 96
2, 76799, Note_on_c, 3, 60, 0
2, 76800, Note_on_c, 3, 58, 96
2, 77759, Note_on_c, 3, 58, 0
2, 79680, Note_on_c, 3, 60, 96
2, 79799, Note_on_c, 3, 60, 0
2, 79800, Note_on_c, 3, 60, 96
2, 79919, Note_on_c, 3, 60, 0
2, 79920, Note_on_c, 3, 60, 96
2, 80039, Note_on_c, 3, 60, 0
2, 80040, Note_on_c, 3, 60, 96
2, 80159, Note_on_c, 3, 60, 0
2, 80160, Note_on_c, 3, 60, 96
2, 80279, Note_on_c, 3, 60, 0
2, 80280, Note_on_c, 3, 60, 96
2, 80399, Note_on_c, 3, 60, 0
2, 80400, Note_on_c, 3, 60, 96
2, 80519, Note_on_c, 3, 60, 0
2, 80520, Note_on_c, 3, 60, 96
2, 80639, Note_on_c, 3, 60, 0
2, 80640, Note_on_c, 3, 60, 96
2, 80759, Note_on_c, 3, 60, 0
2, 80760, Note_on_c, 3, 60, 96
2, 80879, Note_on_c, 3, 60, 0
2, 80880, Note_on_c, 3, 60, 96
2, 80999, Note_on_c, 3, 60, 0
2, 81000, Note_on_c, 3, 60, 96
2, 81119, Note_on_c, 3, 60, 0
2, 81120, Note_on_c, 3, 60, 96
2, 81239, Note_on_c, 3, 60, 0
2, 81240, Note_on_c, 3, 60, 96
2, 81359, Note_on_c, 3, 60, 0
2, 81360, Note_on_c, 3, 60, 96
2, 81479, Note_on_c, 3, 60, 0
2, 81480, Note_on_c, 3, 60, 96
2, 81599, Note_on_c, 3, 60, 0
2, 81600, Note_on_c, 3, 58, 96
2, 81719, Note_on_c, 3, 58, 0
2, 81720, Note_on_c, 3, 58, 96
2, 81839, Note_on_c, 3, 58, 0
2, 81840, Note_on_c, 3, 58, 96
2, 81959, Note_on_c, 3, 58, 0
2, 81960, Note_on_c, 3, 58, 96
2, 82079, Note_on_c, 3, 58, 0
2, 82080, Note_on_c, 3, 58, 96
2, 82199, Note_on_c, 3, 58, 0
2, 82200, Note_on_c, 3, 58, 96
2, 82319, Note_on_c, 3, 58, 0
2, 82320, Note_on_c, 3, 58, 96
2, 82439, Note_on_c, 3, 58, 0
2, 82440, Note_on_c, 3, 58, 96
2, 82559, Note_on_c, 3, 58, 0
2, 82560, Note_on_c, 3, 58, 96
2, 82679, Note_on_c, 3, 58, 0
2, 82680, Note_on_c, 3, 58, 96
2, 82799, Note_on_c, 3, 58, 0
2, 82800, Note_on_c, 3, 58, 96
2, 82919, Note_on_c, 3, 58, 0
2, 82920, Note_on_c, 3, 58, 96
2, 83039, Note_on_c, 3, 58, 0
2, 83040, Note_on_c, 3, 58, 96
2, 83159, Note_on_c, 3, 58, 0
2, 83160, Note_on_c, 3, 58, 96
2, 83279, Note_on_c, 3, 58, 0
2, 83280, Note_on_c, 3, 58, 96
2, 83399, Note_on_c, 3, 58, 0
2, 83400, Note_on_c, 3, 58, 96
2, 83519, Note_on_c, 3, 58, 0
2, 83520, Note_on_c, 3, 61, 96
2, 83639, Note_on_c, 3, 61, 0
2, 83640, Note_on_c, 3, 61, 96
2, 83759, Note_on_c, 3, 61, 0
2, 83760, Note_on_c, 3, 61, 96
2, 83879, Note_on_c, 3, 61, 0
2, 83880, Note_on_c, 3, 61, 96
2, 83999, Note_on_c, 3, 61, 0
2, 84000, Note_on_c, 3, 61, 96
2, 84119, Note_on_c, 3, 61, 0
2, 84120, Note_on_c, 3, 61, 96
2, 84239, Note_on_c, 3, 61, 0
2, 84240, Note_on_c, 3, 61, 96
2, 84359, Note_on_c, 3, 61, 0
2, 84360, Note_on_c, 3, 61, 96
2, 84479, Note_on_c, 3, 61, 0
2, 84480, Note_on_c, 3, 61, 96
2, 84599, Note_on_c, 3, 61, 0
2, 84600, Note_on_c, 3, 61, 96
2, 84719, Note_on_c, 3, 61, 0
2, 84720, Note_on_c, 3, 61, 96
2, 84839, Note_on_c, 3, 61, 0
2, 84840, Note_on_c, 3, 61, 96
2, 84959, Note_on_c, 3, 61, 0
2, 84960, Note_on_c, 3, 61, 96
2, 85079, Note_on_c, 3, 61, 0
2, 85080, Note_on_c, 3, 61, 96
2, 85199, Note_on_c, 3, 61, 0
2, 85200, Note_on_c, 3, 61, 96
2, 85319, Note_on_c, 3, 61, 0
2, 85320, Note_on_c, 3, 61, 96
2, 85439, Note_on_c, 3, 61, 0
2, 85440, Note_on_c, 3, 65, 96
2, 87359, Note_on_c, 3, 65, 0
2, 87360, Note_on_c, 3, 68, 96
2, 88799, Note_on_c, 3, 68, 0
2, 88800, Note_on_c, 3, 68, 96
2, 89279, Note_on_c, 3, 68, 0
2, 89280, Note_on_c, 3, 67, 96
2, 90239, Note_on_c, 3, 67, 0
2, 90240, Note_on_c, 3, 74, 96
2, 91199, Note_on_c, 3, 74, 0
2, 91200, Note_on_c, 3, 79, 96
2, 91679, Note_on_c, 3, 79, 0
2, 91920, Note_on_c, 3, 79, 96
2, 92159, Note_on_c, 3, 79, 0
2, 92160, Note_on_c, 3, 77, 96
2, 92399, Note_on_c, 3, 77, 0
2, 92400, Note_on_c, 3, 75, 96
2, 92639, Note_on_c, 3, 75, 0
2, 92640, Note_on_c, 3, 72, 96
2, 92879, Note_on_c, 3, 72, 0
2, 92880, Note_on_c, 3, 70, 96
2, 93119, Note_on_c, 3, 70, 0
2, 93120, Note_on_c, 3, 79, 96
2, 93599, Note_on_c, 3, 79, 0
2, 93600, Note_on_c, 3, 67, 96
2, 93759, Note_on_c, 3, 67, 0
2, 93760, Note_on_c, 3, 67, 96
2, 93919, Note_on_c, 3, 67, 0
2, 93920, Note_on_c, 3, 67, 96
2, 94079, Note_on_c, 3, 67, 0
2, 94080, Note_on_c, 3, 67, 96
2, 94239, Note_on_c, 3, 67, 0
2, 94240, Note_on_c, 3, 63, 96
2, 94399, Note_on_c, 3, 63, 0
2, 94400, Note_on_c, 3, 63, 96
2, 94559, Note_on_c, 3, 63, 0
2, 94560, Note_on_c, 3, 58, 96
2, 95039, Note_on_c, 3, 58, 0
2, 95040, Note_on_c, 3, 67, 96
2, 95199, Note_on_c, 3, 67, 0
2, 95200, Note_on_c, 3, 67, 96
2, 95359, Note_on_c, 3, 67, 0
2, 95360, Note_on_c, 3, 67, 96
2, 95519, Note_on_c, 3, 67, 0
2, 95520, Note_on_c, 3, 67, 96
2, 95679, Note_on_c, 3, 67, 0
2, 95680, Note_on_c, 3, 63, 96
2, 95839, Note_on_c, 3, 63, 0
2, 95840, Note_on_c, 3, 63, 96
2, 95999, Note_on_c, 3, 63, 0
2, 96000, Note_on_c, 3, 63, 96
2, 96479, Note_on_c, 3, 63, 0
2, 96480, Note_on_c, 3, 63, 96
2, 96639, Note_on_c, 3, 63, 0
2, 96640, Note_on_c, 3, 65, 96
2, 96799, Note_on_c, 3, 65, 0
2, 96800, Note_on_c, 3, 67, 96
2, 96959, Note_on_c, 3, 67, 0
2, 96960, Note_on_c, 3, 68, 96
2, 97319, Note_on_c, 3, 68, 0
2, 97320, Note_on_c, 3, 67, 96
2, 97919, Note_on_c, 3, 67, 0
2, 97920, Note_on_c, 3, 63, 96
2, 98079, Note_on_c, 3, 63, 0
2, 98080, Note_on_c, 3, 63, 96
2, 98239, Note_on_c, 3, 63, 0
2, 98240, Note_on_c, 3, 63, 96
2, 98399, Note_on_c, 3, 63, 0
2, 98400, Note_on_c, 3, 70, 96
2, 98759, Note_on_c, 3, 70, 0
2, 98760, Note_on_c, 3, 67, 96
2, 99359, Note_on_c, 3, 67, 0
2, 99600, Note_on_c, 3, 58, 96
2, 99719, Note_on_c, 3, 58, 0
2, 99720, Note_on_c, 3, 58, 96
2, 99839, Note_on_c, 3, 58, 0
2, 99840, Note_on_c, 3, 65, 96
2, 100159, Note_on_c, 3, 65, 0
2, 100160, Note_on_c, 3, 63, 96
2, 100479, Note_on_c, 3, 63, 0
2, 100480, Note_on_c, 3, 60, 96
2, 101039, Note_on_c, 3, 60, 0
2, 101040, Note_on_c, 3, 58, 96
2, 101999, Note_on_c, 3, 58, 0
2, 103680, Note_on_c, 3, 63, 96
2, 103919, Note_on_c, 3, 63, 0
2, 103920, Note_on_c, 3, 63, 96
2, 104159, Note_on_c, 3, 63, 0
2, 104160, Note_on_c, 3, 65, 96
2, 104519, Note_on_c, 3, 65, 0
2, 104520, Note_on_c, 3, 63, 96
2, 104639, Note_on_c, 3, 63, 0
2, 104640, Note_on_c, 3, 62, 96
2, 108479, Note_on_c, 3, 62, 0
2, 110880, Note_on_c, 3, 62, 64
2, 111839, Note_on_c, 3, 62, 0
2, 111840, Note_on_c, 3, 65, 64
2, 112799, Note_on_c, 3, 65, 0
2, 112800, Note_on_c, 3, 67, 64
2, 113759, Note_on_c, 3, 67, 0
2, 113760, Note_on_c, 3, 64, 64
2, 114719, Note_on_c, 3, 64, 0
2, 114720, Note_on_c, 3, 67, 64
2, 115679, Note_on_c, 3, 67, 0
2, 115680, Note_on_c, 3, 65, 64
2, 116639, Note_on_c, 3, 65, 0
2, 116640, Note_on_c, 3, 64, 64
2, 117599, Note_on_c, 3, 64, 0
2, 117600, Note_on_c, 3, 65, 64
2, 118559, Note_on_c, 3, 65, 0
2, 118560, Note_on_c, 3, 65, 64
2, 120479, Note_on_c, 3, 65, 0
2, 120480, Note_on_c, 3, 64, 64
2, 122399, Note_on_c, 3, 64, 0
2, 122400, Note_on_c, 3, 64, 64
2, 124319, Note_on_c, 3, 64, 0
2, 124320, Note_on_c, 3, 65, 64
2, 125759, Note_on_c, 3, 65, 0
2, 126240, Note_on_c, 3, 62, 112
2, 126479, Note_on_c, 3, 62, 0
2, 126480, Note_on_c, 3, 64, 112
2, 126719, Note_on_c, 3, 64, 0
2, 127680, Note_on_c, 3, 71, 112
2, 128639, Note_on_c, 3, 71, 0
2, 128640, Note_on_c, 3, 69, 112
2, 128879, Note_on_c, 3, 69, 0
2, 129600, Note_on_c, 3, 62, 112
2, 129839, Note_on_c, 3, 62, 0
2, 129840, Note_on_c, 3, 64, 112
2, 130079, Note_on_c, 3, 64, 0
2, 131520, Note_on_c, 3, 71, 112
2, 132479, Note_on_c, 3, 71, 0
2, 132480, Note_on_c, 3, 69, 112
2, 132719, Note_on_c, 3, 69, 0
2, 133440, Note_on_c, 3, 62, 112
2, 133679, Note_on_c, 3, 62, 0
2, 133680, Note_on_c, 3, 64, 112
2, 133919, Note_on_c, 3, 64, 0
2, 135360, Note_on_c, 3, 71, 112
2, 136319, Note_on_c, 3, 71, 0
2, 136320, Note_on_c, 3, 69, 112
2, 136559, Note_on_c, 3, 69, 0
2, 137280, Note_on_c, 3, 76, 112
2, 137519, Note_on_c, 3, 76, 0
2, 137520, Note_on_c, 3, 71, 112
2, 137759, Note_on_c, 3, 71, 0
2, 137760, Note_on_c, 3, 69, 112
2, 137999, Note_on_c, 3, 69, 0
2, 138000, Note_on_c, 3, 67, 112
2, 138239, Note_on_c, 3, 67, 0
2, 138240, Note_on_c, 3, 69, 112
2, 138479, Note_on_c, 3, 69, 0
2, 138480, Note_on_c, 3, 71, 112
2, 138719, Note_on_c, 3, 71, 0
2, 139200, Note_on_c, 3, 76, 112
2, 139439, Note_on_c, 3, 76, 0
2, 139440, Note_on_c, 3, 71, 112
2, 139679, Note_on_c, 3, 71, 0
2, 139680, Note_on_c, 3, 69, 112
2, 139919, Note_on_c, 3, 69, 0
2, 139920, Note_on_c, 3, 67, 112
2, 140159, Note_on_c, 3, 67, 0
2, 140160, Note_on_c, 3, 69, 112
2, 140399, Note_on_c, 3, 69, 0
2, 140400, Note_on_c, 3, 67, 112
2, 140639, Note_on_c, 3, 67, 0
2, 140640, Note_on_c, 3, 64, 112
2, 140879, Note_on_c, 3, 64, 0
2, 140880, Note_on_c, 3, 62, 112
2, 141119, Note_on_c, 3, 62, 0
2, 141120, Note_on_c, 3, 62, 112
2, 141359, Note_on_c, 3, 62, 0
2, 141360, Note_on_c, 3, 64, 112
2, 141599, Note_on_c, 3, 64, 0
2, 143040, Note_on_c, 3, 71, 112
2, 143999, Note_on_c, 3, 71, 0
2, 144000, Note_on_c, 3, 69, 112
2, 144239, Note_on_c, 3, 69, 0
2, 144960, Note_on_c, 3, 62, 112
2, 145199, Note_on_c, 3, 62, 0
2, 145200, Note_on_c, 3, 64, 112
2, 145439, Note_on_c, 3, 64, 0
2, 146880, Note_on_c, 3, 71, 112
2, 147839, Note_on_c, 3, 71, 0
2, 147840, Note_on_c, 3, 69, 112
2, 148079, Note_on_c, 3, 69, 0
2, 148800, Note_on_c, 3, 62, 112
2, 149039, Note_on_c, 3, 62, 0
2, 149040, Note_on_c, 3, 64, 112
2, 149279, Note_on_c, 3, 64, 0
2, 150720, Note_on_c, 3, 71, 112
2, 151679, Note_on_c, 3, 71, 0
2, 151680, Note_on_c, 3, 69, 112
2, 151919, Note_on_c, 3, 69, 0
2, 152640, Note_on_c, 3, 76, 112
2, 152879, Note_on_c, 3, 76, 0
2, 152880, Note_on_c, 3, 71, 112
2, 153119, Note_on_c, 3, 71, 0
2, 153120, Note_on_c, 3, 69, 112
2, 153359, Note_on_c, 3, 69, 0
2, 153360, Note_on_c, 3, 67, 112
2, 153599, Note_on_c, 3, 67, 0
2, 153600, Note_on_c, 3, 69, 112
2, 153839, Note_on_c, 3, 69, 0
2, 153840, Note_on_c, 3, 71, 112
2, 154079, Note_on_c, 3, 71, 0
2, 154560, Note_on_c, 3, 76, 112
2, 154799, Note_on_c, 3, 76, 0
2, 154800, Note_on_c, 3, 71, 112
2, 155039, Note_on_c, 3, 71, 0
2, 155040, Note_on_c, 3, 69, 112
2, 155279, Note_on_c, 3, 69, 0
2, 155280, Note_on_c, 3, 67, 112
2, 155519, Note_on_c, 3, 67, 0
2, 155520, Note_on_c, 3, 69, 112
2, 155759, Note_on_c, 3, 69, 0
2, 155760, Note_on_c, 3, 67, 112
2, 155999, Note_on_c, 3, 67, 0
2, 156000, Note_on_c, 3, 64, 112
2, 156239, Note_on_c, 3, 64, 0
2, 156240, Note_on_c, 3, 62, 112
2, 156479, Note_on_c, 3, 62, 0
2, 156480, Note_on_c, 3, 64, 112
2, 158399, Note_on_c, 3, 64, 0
2, 194160, Note_on_c, 3, 68, 80
2, 194399, Note_on_c, 3, 68, 0
2, 194400, Note_on_c, 3, 68, 80
2, 194639, Note_on_c, 3, 68, 0
2, 194640, Note_on_c, 3, 76, 80
2, 195119, Note_on_c, 3, 76, 0
2, 195120, Note_on_c, 3, 71, 80
2, 195599, Note_on_c, 3, 71, 0
2, 195600, Note_on_c, 3, 68, 80
2, 195839, Note_on_c, 3, 68, 0
2, 196080, Note_on_c, 3, 68, 80
2, 196319, Note_on_c, 3, 68, 0
2, 196560, Note_on_c, 3, 68, 80
2, 196799, Note_on_c, 3, 68, 0
2, 196800, Note_on_c, 3, 75, 80
2, 197039, Note_on_c, 3, 75, 0
2, 197040, Note_on_c, 3, 73, 80
2, 197279, Note_on_c, 3, 73, 0
2, 197280, Note_on_c, 3, 75, 80
2, 197759, Note_on_c, 3, 75, 0
2, 207840, Note_on_c, 3, 76, 104
2, 208079, Note_on_c, 3, 76, 0
2, 208080, Note_on_c, 3, 76, 80
2, 208319, Note_on_c, 3, 76, 0
2, 208320, Note_on_c, 3, 76, 80
2, 208639, Note_on_c, 3, 76, 0
2, 208640, Note_on_c, 3, 71, 80
2, 209039, Note_on_c, 3, 71, 0
2, 209040, Note_on_c, 3, 71, 80
2, 209999, Note_on_c, 3, 71, 0
2, 210000, Note_on_c, 3, 68, 80
2, 210239, Note_on_c, 3, 68, 0
2, 210240, Note_on_c, 3, 71, 96
2, 210719, Note_on_c, 3, 71, 0
2, 210720, Note_on_c, 3, 68, 100
2, 211199, Note_on_c, 3, 68, 0
2, 211200, Note_on_c, 3, 71, 108
2, 211679, Note_on_c, 3, 71, 0
2, 211680, Note_on_c, 3, 68, 107
2, 211919, Note_on_c, 3, 68, 0
2, 211920, Note_on_c, 3, 73, 97
2, 212399, Note_on_c, 3, 73, 0
2, 212400, Note_on_c, 3, 76, 89
2, 214079, Note_on_c, 3, 76, 0
2, 221040, Note_on_c, 3, 71, 83
2, 221279, Note_on_c, 3, 71, 0
2, 221280, Note_on_c, 3, 71, 92
2, 221519, Note_on_c, 3, 71, 0
2, 221520, Note_on_c, 3, 71, 102
2, 221759, Note_on_c, 3, 71, 0
2, 221760, Note_on_c, 3, 71, 109
2, 222239, Note_on_c, 3, 71, 0
2, 222240, Note_on_c, 3, 71, 100
2, 222479, Note_on_c, 3, 71, 0
2, 222480, Note_on_c, 3, 71, 101
2, 222719, Note_on_c, 3, 71, 0
2, 222720, Note_on_c, 3, 76, 92
2, 223199, Note_on_c, 3, 76, 0
2, 223200, Note_on_c, 3, 71, 102
2, 223679, Note_on_c, 3, 71, 0
2, 223680, Note_on_c, 3, 68, 97
2, 224639, Note_on_c, 3, 68, 0
2, 224880, Note_on_c, 3, 71, 80
2, 225119, Note_on_c, 3, 71, 0
2, 225120, Note_on_c, 3, 71, 93
2, 225359, Note_on_c, 3, 71, 0
2, 225360, Note_on_c, 3, 71, 101
2, 225599, Note_on_c, 3, 71, 0
2, 225600, Note_on_c, 3, 71, 109
2, 226079, Note_on_c, 3, 71, 0
2, 226080, Note_on_c, 3, 71, 92
2, 226319, Note_on_c, 3, 71, 0
2, 226320, Note_on_c, 3, 71, 109
2, 226559, Note_on_c, 3, 71, 0
2, 226560, Note_on_c, 3, 76, 112
2, 227039, Note_on_c, 3, 76, 0
2, 227040, Note_on_c, 3, 75, 102
2, 227279, Note_on_c, 3, 75, 0
2, 227280, Note_on_c, 3, 73, 78
2, 227519, Note_on_c, 3, 73, 0
2, 227520, Note_on_c, 3, 75, 110
2, 228479, Note_on_c, 3, 75, 0
2, 228480, Note_on_c, 3, 75, 110
2, 228959, Note_on_c, 3, 75, 0
2, 228960, Note_on_c, 3, 76, 90
2, 229199, Note_on_c, 3, 76, 0
2, 229200, Note_on_c, 3, 71, 92
2, 229439, Note_on_c, 3, 71, 0
2, 229440, Note_on_c, 3, 76, 105
2, 229919, Note_on_c, 3, 76, 0
2, 229920, Note_on_c, 3, 76, 96
2, 230159, Note_on_c, 3, 76, 0
2, 230160, Note_on_c, 3, 75, 92
2, 230399, Note_on_c, 3, 75, 0
2, 230400, Note_on_c, 3, 76, 103
2, 230879, Note_on_c, 3, 76, 0
2, 230880, Note_on_c, 3, 75, 94
2, 231359, Note_on_c, 3, 75, 0
2, 231360, Note_on_c, 3, 76, 96
2, 232319, Note_on_c, 3, 76, 0
2, 232560, Note_on_c, 3, 68, 80
2, 232799, Note_on_c, 3, 68, 0
2, 232800, Note_on_c, 3, 68, 91
2, 233039, Note_on_c, 3, 68, 0
2, 233040, Note_on_c, 3, 68, 80
2, 233279, Note_on_c, 3, 68, 0
2, 233280, Note_on_c, 3, 68, 99
2, 233759, Note_on_c, 3, 68, 0
2, 233760, Note_on_c, 3, 68, 99
2, 233999, Note_on_c, 3, 68, 0
2, 234000, Note_on_c, 3, 68, 80
2, 234239, Note_on_c, 3, 68, 0
2, 234240, Note_on_c, 3, 68, 96
2, 234719, Note_on_c, 3, 68, 0
2, 234720, Note_on_c, 3, 68, 92
2, 234959, Note_on_c, 3, 68, 0
2, 234960, Note_on_c, 3, 76, 96
2, 236159, Note_on_c, 3, 76, 0
2, 236400, Note_on_c, 3, 68, 80
2, 236639, Note_on_c, 3, 68, 0
2, 236640, Note_on_c, 3, 68, 91
2, 236879, Note_on_c, 3, 68, 0
2, 236880, Note_on_c, 3, 68, 80
2, 237119, Note_on_c, 3, 68, 0
2, 237120, Note_on_c, 3, 68, 89
2, 237599, Note_on_c, 3, 68, 0
2, 237600, Note_on_c, 3, 68, 92
2, 237839, Note_on_c, 3, 68, 0
2, 237840, Note_on_c, 3, 68, 92
2, 238079, Note_on_c, 3, 68, 0
2, 238080, Note_on_c, 3, 68, 95
2, 238559, Note_on_c, 3, 68, 0
2, 238560, Note_on_c, 3, 68, 91
2, 238799, Note_on_c, 3, 68, 0
2, 238800, Note_on_c, 3, 76, 100
2, 239999, Note_on_c, 3, 76, 0
2, 240240, Note_on_c, 3, 68, 80
2, 240479, Note_on_c, 3, 68, 0
2, 240480, Note_on_c, 3, 68, 91
2, 240719, Note_on_c, 3, 68, 0
2, 240720, Note_on_c, 3, 68, 80
2, 240959, Note_on_c, 3, 68, 0
2, 240960, Note_on_c, 3, 68, 89
2, 241439, Note_on_c, 3, 68, 0
2, 241440, Note_on_c, 3, 68, 92
2, 241679, Note_on_c, 3, 68, 0
2, 241680, Note_on_c, 3, 68, 92
2, 241919, Note_on_c, 3, 68, 0
2, 241920, Note_on_c, 3, 68, 95
2, 242399, Note_on_c, 3, 68, 0
2, 242400, Note_on_c, 3, 68, 91
2, 242639, Note_on_c, 3, 68, 0
2, 242640, Note_on_c, 3, 76, 100
2, 243839, Note_on_c, 3, 76, 0
2, 243840, Note_on_c, 3, 71, 97
2, 244079, Note_on_c, 3, 71, 0
2, 244080, Note_on_c, 3, 71, 102
2, 244319, Note_on_c, 3, 71, 0
2, 244320, Note_on_c, 3, 71, 109
2, 244799, Note_on_c, 3, 71, 0
2, 244800, Note_on_c, 3, 71, 111
2, 245279, Note_on_c, 3, 71, 0
2, 245280, Note_on_c, 3, 68, 93
2, 245759, Note_on_c, 3, 68, 0
2, 245760, Note_on_c, 3, 68, 99
2, 246719, Note_on_c, 3, 68, 0
2, 246720, Note_on_c, 3, 71, 101
2, 246959, Note_on_c, 3, 71, 0
2, 246960, Note_on_c, 3, 71, 87
2, 247199, Note_on_c, 3, 71, 0
2, 247200, Note_on_c, 3, 71, 93
2, 247679, Note_on_c, 3, 71, 0
2, 247680, Note_on_c, 3, 71, 95
2, 248159, Note_on_c, 3, 71, 0
2, 248160, Note_on_c, 3, 68, 83
2, 248639, Note_on_c, 3, 68, 0
2, 248640, Note_on_c, 3, 73, 94
2, 249599, Note_on_c, 3, 73, 0
2, 249600, Note_on_c, 3, 71, 95
2, 250559, Note_on_c, 3, 71, 0
2, 250560, Note_on_c, 3, 68, 80
2, 252479, Note_on_c, 3, 68, 0
1, 0, Note_on_c, 0, 62, 80
1, 1823, Note_on_c, 0, 62, 0
1, 1920, Note_on_c, 0, 67, 80
1, 2375, Note_on_c, 0, 67, 0
1, 2400, Note_on_c, 0, 69, 80
1, 2855, Note_on_c, 0, 69, 0
1, 2880, Note_on_c, 0, 71, 80
1, 3335, Note_on_c, 0, 71, 0
1, 3360, Note_on_c, 0, 74, 80
1, 3815, Note_on_c, 0, 74, 0
1, 3840, Note_on_c, 0, 69, 80
1, 4295, Note_on_c, 0, 69, 0
1, 4320, Note_on_c, 0, 67, 80
1, 4547, Note_on_c, 0, 67, 0
1, 4560, Note_on_c, 0, 71, 80
1, 5471, Note_on_c, 0, 71, 0
1, 5520, Note_on_c, 0, 67, 80
1, 5747, Note_on_c, 0, 67, 0
1, 5760, Note_on_c, 0, 67, 80
1, 6215, Note_on_c, 0, 67, 0
1, 6240, Note_on_c, 0, 69, 80
1, 6695, Note_on_c, 0, 69, 0
1, 6720, Note_on_c, 0, 71, 80
1, 7175, Note_on_c, 0, 71, 0
1, 7200, Note_on_c, 0, 67, 80
1, 7427, Note_on_c, 0, 67, 0
1, 7440, Note_on_c, 0, 67, 80
1, 9035, Note_on_c, 0, 67, 0
1, 9120, Note_on_c, 0, 71, 80
1, 9233, Note_on_c, 0, 71, 0
1, 9240, Note_on_c, 0, 74, 80
1, 9467, Note_on_c, 0, 74, 0
1, 9480, Note_on_c, 0, 74, 80
1, 9821, Note_on_c, 0, 74, 0
1, 9840, Note_on_c, 0, 76, 80
1, 10067, Note_on_c, 0, 76, 0
1, 11040, Note_on_c, 0, 71, 80
1, 11267, Note_on_c, 0, 71, 0
1, 11280, Note_on_c, 0, 71, 80
1, 11393, Note_on_c, 0, 71, 0
1, 11400, Note_on_c, 0, 72, 80
1, 11741, Note_on_c, 0, 72, 0
1, 11760, Note_on_c, 0, 71, 80
1, 11987, Note_on_c, 0, 71, 0
1, 12840, Note_on_c, 0, 59, 80
1, 12953, Note_on_c, 0, 59, 0
1, 12960, Note_on_c, 0, 71, 80
1, 13187, Note_on_c, 0, 71, 0
1, 13200, Note_on_c, 0, 71, 80
1, 13313, Note_on_c, 0, 71, 0
1, 13320, Note_on_c, 0, 72, 80
1, 13661, Note_on_c, 0, 72, 0
1, 13680, Note_on_c, 0, 71, 80
1, 13793, Note_on_c, 0, 71, 0
1, 13800, Note_on_c, 0, 69, 80
1, 14141, Note_on_c, 0, 69, 0
1, 14160, Note_on_c, 0, 67, 80
1, 14273, Note_on_c, 0, 67, 0
1, 14280, Note_on_c, 0, 72, 80
1, 14621, Note_on_c, 0, 72, 0
1, 14640, Note_on_c, 0, 71, 80
1, 14753, Note_on_c, 0, 71, 0
1, 14760, Note_on_c, 0, 69, 80
1, 15101, Note_on_c, 0, 69, 0
1, 15120, Note_on_c, 0, 67, 80
1, 15233, Note_on_c, 0, 67, 0
1, 15240, Note_on_c, 0, 67, 80
1, 15581, Note_on_c, 0, 67, 0
1, 15600, Note_on_c, 0, 64, 80
1, 15827, Note_on_c, 0, 64, 0
1, 16680, Note_on_c, 0, 67, 80
1, 16793, Note_on_c, 0, 67, 0
1, 16800, Note_on_c, 0, 74, 80
1, 17027, Note_on_c, 0, 74, 0
1, 17040, Note_on_c, 0, 74, 80
1, 17153, Note_on_c, 0, 74, 0
1, 17160, Note_on_c, 0, 74, 80
1, 17501, Note_on_c, 0, 74, 0
1, 17520, Note_on_c, 0, 76, 80
1, 17747, Note_on_c, 0, 76, 0
1, 18480, Note_on_c, 0, 67, 80
1, 18593, Note_on_c, 0, 67, 0
1, 18600, Note_on_c, 0, 71, 80
1, 18941, Note_on_c, 0, 71, 0
1, 18960, Note_on_c, 0, 71, 80
1, 19073, Note_on_c, 0, 71, 0
1, 19080, Note_on_c, 0, 72, 80
1, 19421, Note_on_c, 0, 72, 0
1, 19440, Note_on_c, 0, 71, 80
1, 19667, Note_on_c, 0, 71, 0
1, 20520, Note_on_c, 0, 59, 80
1, 20633, Note_on_c, 0, 59, 0
1, 20640, Note_on_c, 0, 71, 80
1, 20867, Note_on_c, 0, 71, 0
1, 20880, Note_on_c, 0, 71, 80
1, 20993, Note_on_c, 0, 71, 0
1, 21000, Note_on_c, 0, 72, 80
1, 21341, Note_on_c, 0, 72, 0
1, 21360, Note_on_c, 0, 71, 80
1, 21587, Note_on_c, 0, 71, 0
1, 21600, Note_on_c, 0, 69, 80
1, 21827, Note_on_c, 0, 69, 0
1, 21840, Note_on_c, 0, 67, 80
1, 22067, Note_on_c, 0, 67, 0
1, 22080, Note_on_c, 0, 72, 80
1, 22231, Note_on_c, 0, 72, 0
1, 22240, Note_on_c, 0, 69, 80
1, 22543, Note_on_c, 0, 69, 0
1, 22560, Note_on_c, 0, 67, 80
1, 23471, Note_on_c, 0, 67, 0
1, 23520, Note_on_c, 0, 64, 80
1, 23975, Note_on_c, 0, 64, 0
1, 24240, Note_on_c, 0, 67, 80
1, 24353, Note_on_c, 0, 67, 0
1, 24360, Note_on_c, 0, 71, 80
1, 24473, Note_on_c, 0, 71, 0
1, 24480, Note_on_c, 0, 74, 80
1, 24707, Note_on_c, 0, 74, 0
1, 24720, Note_on_c, 0, 72, 80
1, 24833, Note_on_c, 0, 72, 0
1, 24840, Note_on_c, 0, 74, 80
1, 25181, Note_on_c, 0, 74, 0
1, 25200, Note_on_c, 0, 71, 80
1, 25427, Note_on_c, 0, 71, 0
1, 25440, Note_on_c, 0, 76, 80
1, 25667, Note_on_c, 0, 76, 0
1, 25680, Note_on_c, 0, 74, 80
1, 25907, Note_on_c, 0, 74, 0
1, 26160, Note_on_c, 0, 67, 80
1, 26387, Note_on_c, 0, 67, 0
1, 26400, Note_on_c, 0, 71, 80
1, 26627, Note_on_c, 0, 71, 0
1, 26640, Note_on_c, 0, 74, 80
1, 27095, Note_on_c, 0, 74, 0
1, 27120, Note_on_c, 0, 71, 80
1, 27347, Note_on_c, 0, 71, 0
1, 27360, Note_on_c, 0, 69, 80
1, 27587, Note_on_c, 0, 69, 0
1, 27600, Note_on_c, 0, 71, 80
1, 27827, Note_on_c, 0, 71, 0
1, 27840, Note_on_c, 0, 69, 80
1, 28181, Note_on_c, 0, 69, 0
1, 28200, Note_on_c, 0, 71, 80
1, 28313, Note_on_c, 0, 71, 0
1, 28320, Note_on_c, 0, 74, 80
1, 28547, Note_on_c, 0, 74, 0
1, 28560, Note_on_c, 0, 74, 80
1, 29015, Note_on_c, 0, 74, 0
1, 29040, Note_on_c, 0, 71, 80
1, 29267, Note_on_c, 0, 71, 0
1, 29280, Note_on_c, 0, 69, 80
1, 29507, Note_on_c, 0, 69, 0
1, 29520, Note_on_c, 0, 71, 80
1, 29747, Note_on_c, 0, 71, 0
1, 29760, Note_on_c, 0, 69, 80
1, 30101, Note_on_c, 0, 69, 0
1, 30120, Note_on_c, 0, 74, 80
1, 30461, Note_on_c, 0, 74, 0
1, 30480, Note_on_c, 0, 74, 80
1, 30935, Note_on_c, 0, 74, 0
1, 30960, Note_on_c, 0, 69, 80
1, 31187, Note_on_c, 0, 69, 0
1, 31200, Note_on_c, 0, 69, 80
1, 31427, Note_on_c, 0, 69, 0
1, 31440, Note_on_c, 0, 71, 80
1, 31667, Note_on_c, 0, 71, 0
1, 31680, Note_on_c, 0, 67, 80
1, 32477, Note_on_c, 0, 67, 0
1, 32520, Note_on_c, 0, 69, 80
1, 32633, Note_on_c, 0, 69, 0
1, 32640, Note_on_c, 0, 67, 80
1, 32867, Note_on_c, 0, 67, 0
1, 32880, Note_on_c, 0, 67, 80
1, 33107, Note_on_c, 0, 67, 0
1, 33120, Note_on_c, 0, 67, 80
1, 33347, Note_on_c, 0, 67, 0
1, 33360, Note_on_c, 0, 69, 80
1, 33587, Note_on_c, 0, 69, 0
1, 33720, Note_on_c, 0, 67, 80
1, 33833, Note_on_c, 0, 67, 0
1, 33840, Note_on_c, 0, 67, 80
1, 33953, Note_on_c, 0, 67, 0
1, 33960, Note_on_c, 0, 67, 80
1, 34073, Note_on_c, 0, 67, 0
1, 34080, Note_on_c, 0, 71, 80
1, 34307, Note_on_c, 0, 71, 0
1, 34320, Note_on_c, 0, 71, 80
1, 34433, Note_on_c, 0, 71, 0
1, 34440, Note_on_c, 0, 72, 80
1, 34667, Note_on_c, 0, 72, 0
1, 34680, Note_on_c, 0, 71, 80
1, 34793, Note_on_c, 0, 71, 0
1, 34800, Note_on_c, 0, 71, 80
1, 35027, Note_on_c, 0, 71, 0
1, 35880, Note_on_c, 0, 67, 80
1, 35993, Note_on_c, 0, 67, 0
1, 36000, Note_on_c, 0, 69, 80
1, 36227, Note_on_c, 0, 69, 0
1, 36240, Note_on_c, 0, 71, 80
1, 36353, Note_on_c, 0, 71, 0
1, 36360, Note_on_c, 0, 72, 80
1, 36701, Note_on_c, 0, 72, 0
1, 36720, Note_on_c, 0, 71, 80
1, 36833, Note_on_c, 0, 71, 0
1, 36840, Note_on_c, 0, 69, 80
1, 37181, Note_on_c, 0, 69, 0
1, 37200, Note_on_c, 0, 67, 80
1, 37313, Note_on_c, 0, 67, 0
1, 37320, Note_on_c, 0, 72, 80
1, 37547, Note_on_c, 0, 72, 0
1, 37560, Note_on_c, 0, 71, 80
1, 37787, Note_on_c, 0, 71, 0
1, 37800, Note_on_c, 0, 69, 80
1, 38027, Note_on_c, 0, 69, 0
1, 38040, Note_on_c, 0, 67, 80
1, 38267, Note_on_c, 0, 67, 0
1, 38280, Note_on_c, 0, 67, 80
1, 38621, Note_on_c, 0, 67, 0
1, 38640, Note_on_c, 0, 64, 80
1, 38753, Note_on_c, 0, 64, 0
1, 38760, Note_on_c, 0, 62, 80
1, 38873, Note_on_c, 0, 62, 0
1, 38880, Note_on_c, 0, 60, 80
1, 39360, Note_on_c, 0, 74, 80
1, 39587, Note_on_c, 0, 74, 0
1, 39600, Note_on_c, 0, 71, 80
1, 39827, Note_on_c, 0, 71, 0
1, 39840, Note_on_c, 0, 69, 80
1, 40067, Note_on_c, 0, 69, 0
1, 40080, Note_on_c, 0, 67, 80
1, 40223, Note_on_c, 0, 60, 0
1, 40307, Note_on_c, 0, 67, 0
1, 40800, Note_on_c, 0, 74, 80
1, 41255, Note_on_c, 0, 74, 0
1, 41280, Note_on_c, 0, 71, 80
1, 41735, Note_on_c, 0, 71, 0
1, 41760, Note_on_c, 0, 67, 80
1, 42215, Note_on_c, 0, 67, 0
1, 42240, Note_on_c, 0, 69, 80
1, 42467, Note_on_c, 0, 69, 0
1, 42480, Note_on_c, 0, 71, 80
1, 42707, Note_on_c, 0, 71, 0
1, 42720, Note_on_c, 0, 69, 80
1, 43175, Note_on_c, 0, 69, 0
1, 43440, Note_on_c, 0, 67, 80
1, 43667, Note_on_c, 0, 67, 0
1, 43680, Note_on_c, 0, 67, 80
1, 43907, Note_on_c, 0, 67, 0
1, 43920, Note_on_c, 0, 67, 80
1, 44147, Note_on_c, 0, 67, 0
1, 44160, Note_on_c, 0, 69, 80
1, 44387, Note_on_c, 0, 69, 0
1, 44400, Note_on_c, 0, 71, 80
1, 44627, Note_on_c, 0, 71, 0
1, 44640, Note_on_c, 0, 69, 80
1, 45095, Note_on_c, 0, 69, 0
1, 45360, Note_on_c, 0, 67, 80
1, 45587, Note_on_c, 0, 67, 0
1, 45600, Note_on_c, 0, 67, 80
1, 45827, Note_on_c, 0, 67, 0
1, 45840, Note_on_c, 0, 67, 80
1, 46067, Note_on_c, 0, 67, 0
1, 46080, Note_on_c, 0, 72, 80
1, 46307, Note_on_c, 0, 72, 0
1, 46320, Note_on_c, 0, 71, 80
1, 46547, Note_on_c, 0, 71, 0
1, 46560, Note_on_c, 0, 69, 80
1, 46787, Note_on_c, 0, 69, 0
1, 46800, Note_on_c, 0, 67, 80
1, 47027, Note_on_c, 0, 67, 0
1, 47040, Note_on_c, 0, 67, 80
1, 47267, Note_on_c, 0, 67, 0
1, 47280, Note_on_c, 0, 69, 80
1, 47507, Note_on_c, 0, 69, 0
1, 47520, Note_on_c, 0, 71, 80
1, 47747, Note_on_c, 0, 71, 0
1, 47760, Note_on_c, 0, 71, 80
1, 47987, Note_on_c, 0, 71, 0
1, 48480, Note_on_c, 0, 74, 80
1, 48935, Note_on_c, 0, 74, 0
1, 48960, Note_on_c, 0, 71, 80
1, 49415, Note_on_c, 0, 71, 0
1, 49440, Note_on_c, 0, 67, 80
1, 49895, Note_on_c, 0, 67, 0
1, 49920, Note_on_c, 0, 69, 80
1, 50147, Note_on_c, 0, 69, 0
1, 50160, Note_on_c, 0, 64, 80
1, 50273, Note_on_c, 0, 64, 0
1, 50280, Note_on_c, 0, 62, 80
1, 50393, Note_on_c, 0, 62, 0
1, 51120, Note_on_c, 0, 74, 80
1, 51803, Note_on_c, 0, 74, 0
1, 51840, Note_on_c, 0, 71, 80
1, 52067, Note_on_c, 0, 71, 0
1, 52080, Note_on_c, 0, 71, 80
1, 52307, Note_on_c, 0, 71, 0
1, 52320, Note_on_c, 0, 69, 80
1, 52547, Note_on_c, 0, 69, 0
1, 52560, Note_on_c, 0, 67, 80
1, 53015, Note_on_c, 0, 67, 0
1, 53040, Note_on_c, 0, 67, 80
1, 53267, Note_on_c, 0, 67, 0
1, 53280, Note_on_c, 0, 67, 80
1, 53507, Note_on_c, 0, 67, 0
1, 53520, Note_on_c, 0, 71, 80
1, 53747, Note_on_c, 0, 71, 0
1, 53760, Note_on_c, 0, 67, 80
1, 53987, Note_on_c, 0, 67, 0
1, 54000, Note_on_c, 0, 67, 80
1, 54569, Note_on_c, 0, 67, 0
1, 54600, Note_on_c, 0, 67, 80
1, 54713, Note_on_c, 0, 67, 0
1, 54720, Note_on_c, 0, 74, 80
1, 54833, Note_on_c, 0, 74, 0
1, 54840, Note_on_c, 0, 74, 80
1, 54953, Note_on_c, 0, 74, 0
1, 54960, Note_on_c, 0, 74, 80
1, 55415, Note_on_c, 0, 74, 0
1, 55440, Note_on_c, 0, 76, 80
1, 55667, Note_on_c, 0, 76, 0
1, 56160, Note_on_c, 0, 74, 80
1, 56615, Note_on_c, 0, 74, 0
1, 56640, Note_on_c, 0, 71, 80
1, 57095, Note_on_c, 0, 71, 0
1, 57120, Note_on_c, 0, 67, 80
1, 57575, Note_on_c, 0, 67, 0
1, 57600, Note_on_c, 0, 69, 80
1, 58511, Note_on_c, 0, 69, 0
1, 58560, Note_on_c, 0, 67, 80
1, 58787, Note_on_c, 0, 67, 0
1, 58800, Note_on_c, 0, 67, 80
1, 59027, Note_on_c, 0, 67, 0
1, 59040, Note_on_c, 0, 67, 80
1, 59267, Note_on_c, 0, 67, 0
1, 59280, Note_on_c, 0, 72, 80
1, 59735, Note_on_c, 0, 72, 0
1, 59760, Note_on_c, 0, 71, 80
1, 59987, Note_on_c, 0, 71, 0
1, 60000, Note_on_c, 0, 69, 80
1, 60227, Note_on_c, 0, 69, 0
1, 60240, Note_on_c, 0, 67, 80
1, 60467, Note_on_c, 0, 67, 0
1, 60480, Note_on_c, 0, 67, 80
1, 60719, Note_on_c, 0, 67, 0
1, 60720, Note_on_c, 0, 69, 80
1, 60959, Note_on_c, 0, 69, 0
1, 60960, Note_on_c, 0, 71, 80
1, 61199, Note_on_c, 0, 71, 0
1, 61200, Note_on_c, 0, 67, 80
1, 61427, Note_on_c, 0, 67, 0
1, 61440, Note_on_c, 0, 67, 80
1, 61667, Note_on_c, 0, 67, 0
1, 61680, Note_on_c, 0, 67, 80
1, 62249, Note_on_c, 0, 67, 0
1, 62280, Note_on_c, 0, 67, 80
1, 62393, Note_on_c, 0, 67, 0
1, 62400, Note_on_c, 0, 74, 80
1, 62513, Note_on_c, 0, 74, 0
1, 62520, Note_on_c, 0, 74, 80
1, 62633, Note_on_c, 0, 74, 0
1, 62640, Note_on_c, 0, 74, 80
1, 63095, Note_on_c, 0, 74, 0
1, 63120, Note_on_c, 0, 76, 80
1, 63347, Note_on_c, 0, 76, 0
1, 63840, Note_on_c, 0, 74, 80
1, 64295, Note_on_c, 0, 74, 0
1, 64320, Note_on_c, 0, 71, 80
1, 64775, Note_on_c, 0, 71, 0
1, 64800, Note_on_c, 0, 67, 80
1, 65255, Note_on_c, 0, 67, 0
1, 65280, Note_on_c, 0, 69, 80
1, 66191, Note_on_c, 0, 69, 0
1, 66240, Note_on_c, 0, 67, 80
1, 66467, Note_on_c, 0, 67, 0
1, 66480, Note_on_c, 0, 67, 80
1, 66707, Note_on_c, 0, 67, 0
1, 66720, Note_on_c, 0, 67, 80
1, 66947, Note_on_c, 0, 67, 0
1, 66960, Note_on_c, 0, 72, 80
1, 67415, Note_on_c, 0, 72, 0
1, 67440, Note_on_c, 0, 71, 80
1, 67667, Note_on_c, 0, 71, 0
1, 67680, Note_on_c, 0, 69, 80
1, 67907, Note_on_c, 0, 69, 0
1, 67920, Note_on_c, 0, 67, 80
1, 68147, Note_on_c, 0, 67, 0
1, 68160, Note_on_c, 0, 67, 80
1, 68387, Note_on_c, 0, 67, 0
1, 68400, Note_on_c, 0, 69, 80
1, 68627, Note_on_c, 0, 69, 0
1, 68640, Note_on_c, 0, 71, 80
1, 68867, Note_on_c, 0, 71, 0
1, 68880, Note_on_c, 0, 67, 80
1, 69107, Note_on_c, 0, 67, 0
1, 69120, Note_on_c, 0, 67, 80
1, 70943, Note_on_c, 0, 67, 0
1, 71880, Note_on_c, 0, 74, 80
1, 71993, Note_on_c, 0, 74, 0
1, 72000, Note_on_c, 0, 74, 80
1, 72227, Note_on_c, 0, 74, 0
1, 72240, Note_on_c, 0, 74, 80
1, 72467, Note_on_c, 0, 74, 0
1, 72480, Note_on_c, 0, 74, 80
1, 72935, Note_on_c, 0, 74, 0
1, 73680, Note_on_c, 0, 76, 80
1, 73907, Note_on_c, 0, 76, 0
1, 73920, Note_on_c, 0, 76, 80
1, 74147, Note_on_c, 0, 76, 0
1, 74160, Note_on_c, 0, 76, 80
1, 74387, Note_on_c, 0, 76, 0
1, 74400, Note_on_c, 0, 76, 80
1, 74627, Note_on_c, 0, 76, 0
1, 74640, Note_on_c, 0, 74, 80
1, 74867, Note_on_c, 0, 74, 0
1, 75120, Note_on_c, 0, 76, 80
1, 75233, Note_on_c, 0, 76, 0
1, 75240, Note_on_c, 0, 76, 80
1, 75353, Note_on_c, 0, 76, 0
1, 75360, Note_on_c, 0, 74, 80
1, 75473, Note_on_c, 0, 74, 0
1, 75480, Note_on_c, 0, 74, 80
1, 75593, Note_on_c, 0, 74, 0
1, 75600, Note_on_c, 0, 72, 80
1, 76055, Note_on_c, 0, 72, 0
1, 76080, Note_on_c, 0, 72, 80
1, 76421, Note_on_c, 0, 72, 0
1, 76440, Note_on_c, 0, 72, 80
1, 76667, Note_on_c, 0, 72, 0
1, 76680, Note_on_c, 0, 71, 80
1, 77249, Note_on_c, 0, 71, 0
1, 77280, Note_on_c, 0, 69, 80
1, 77507, Note_on_c, 0, 69, 0
1, 77520, Note_on_c, 0, 67, 80
1, 77975, Note_on_c, 0, 67, 0
1, 78000, Note_on_c, 0, 71, 80
1, 78227, Note_on_c, 0, 71, 0
1, 78240, Note_on_c, 0, 71, 80
1, 78467, Note_on_c, 0, 71, 0
1, 78480, Note_on_c, 0, 67, 80
1, 78707, Note_on_c, 0, 67, 0
1, 79080, Note_on_c, 0, 74, 80
1, 79193, Note_on_c, 0, 74, 0
1, 79200, Note_on_c, 0, 74, 80
1, 79427, Note_on_c, 0, 74, 0
1, 79440, Note_on_c, 0, 74, 80
1, 79895, Note_on_c, 0, 74, 0
1, 79920, Note_on_c, 0, 76, 80
1, 80147, Note_on_c, 0, 76, 0
1, 80160, Note_on_c, 0, 76, 80
1, 80273, Note_on_c, 0, 76, 0
1, 80280, Note_on_c, 0, 79, 80
1, 80507, Note_on_c, 0, 79, 0
1, 80520, Note_on_c, 0, 74, 80
1, 80975, Note_on_c, 0, 74, 0
1, 81000, Note_on_c, 0, 74, 80
1, 81113, Note_on_c, 0, 74, 0
1, 81120, Note_on_c, 0, 76, 80
1, 81347, Note_on_c, 0, 76, 0
1, 81360, Note_on_c, 0, 76, 80
1, 81473, Note_on_c, 0, 76, 0
1, 81480, Note_on_c, 0, 76, 80
1, 81593, Note_on_c, 0, 76, 0
1, 81600, Note_on_c, 0, 74, 80
1, 82283, Note_on_c, 0, 74, 0
1, 82320, Note_on_c, 0, 76, 80
1, 82547, Note_on_c, 0, 76, 0
1, 82560, Note_on_c, 0, 76, 80
1, 82673, Note_on_c, 0, 76, 0
1, 82680, Note_on_c, 0, 76, 80
1, 82907, Note_on_c, 0, 76, 0
1, 82920, Note_on_c, 0, 74, 80
1, 83147, Note_on_c, 0, 74, 0
1, 83160, Note_on_c, 0, 72, 80
1, 83273, Note_on_c, 0, 72, 0
1, 83280, Note_on_c, 0, 72, 80
1, 83735, Note_on_c, 0, 72, 0
1, 83760, Note_on_c, 0, 71, 80
1, 83987, Note_on_c, 0, 71, 0
1, 84000, Note_on_c, 0, 69, 80
1, 84227, Note_on_c, 0, 69, 0
1, 84240, Note_on_c, 0, 67, 80
1, 84695, Note_on_c, 0, 67, 0
1, 84720, Note_on_c, 0, 69, 80
1, 84947, Note_on_c, 0, 69, 0
1, 84960, Note_on_c, 0, 74, 80
1, 85301, Note_on_c, 0, 74, 0
1, 85320, Note_on_c, 0, 67, 80
1, 85661, Note_on_c, 0, 67, 0
1, 85680, Note_on_c, 0, 69, 80
1, 85907, Note_on_c, 0, 69, 0
1, 85920, Note_on_c, 0, 71, 80
1, 86147, Note_on_c, 0, 71, 0
1, 86160, Note_on_c, 0, 74, 80
1, 86273, Note_on_c, 0, 74, 0
1, 86280, Note_on_c, 0, 71, 80
1, 86336, Note_on_c, 0, 71, 0
1, 86340, Note_on_c, 0, 69, 80
1, 86396, Note_on_c, 0, 69, 0
1, 86400, Note_on_c, 0, 67, 80
1, 86855, Note_on_c, 0, 67, 0
1, 86880, Note_on_c, 0, 74, 80
1, 87335, Note_on_c, 0, 74, 0
1, 87360, Note_on_c, 0, 71, 80
1, 87815, Note_on_c, 0, 71, 0
1, 87840, Note_on_c, 0, 67, 80
1, 88295, Note_on_c, 0, 67, 0
1, 88320, Note_on_c, 0, 69, 80
1, 88547, Note_on_c, 0, 69, 0
1, 88560, Note_on_c, 0, 71, 80
1, 88787, Note_on_c, 0, 71, 0
1, 88800, Note_on_c, 0, 69, 80
1, 89255, Note_on_c, 0, 69, 0
1, 89520, Note_on_c, 0, 71, 80
1, 89747, Note_on_c, 0, 71, 0
1, 89760, Note_on_c, 0, 71, 80
1, 89987, Note_on_c, 0, 71, 0
1, 90000, Note_on_c, 0, 71, 80
1, 90227, Note_on_c, 0, 71, 0
1, 90240, Note_on_c, 0, 72, 80
1, 90467, Note_on_c, 0, 72, 0
1, 90480, Note_on_c, 0, 71, 80
1, 90707, Note_on_c, 0, 71, 0
1, 90720, Note_on_c, 0, 69, 80
1, 90947, Note_on_c, 0, 69, 0
1, 90960, Note_on_c, 0, 67, 80
1, 91187, Note_on_c, 0, 67, 0
1, 91440, Note_on_c, 0, 67, 80
1, 91667, Note_on_c, 0, 67, 0
1, 91680, Note_on_c, 0, 67, 80
1, 91907, Note_on_c, 0, 67, 0
1, 91920, Note_on_c, 0, 67, 80
1, 92147, Note_on_c, 0, 67, 0
1, 92160, Note_on_c, 0, 72, 80
1, 92387, Note_on_c, 0, 72, 0
1, 92400, Note_on_c, 0, 71, 80
1, 92627, Note_on_c, 0, 71, 0
1, 92640, Note_on_c, 0, 69, 80
1, 92867, Note_on_c, 0, 69, 0
1, 92880, Note_on_c, 0, 67, 80
1, 93107, Note_on_c, 0, 67, 0
1, 93120, Note_on_c, 0, 74, 80
1, 93347, Note_on_c, 0, 74, 0
1, 93360, Note_on_c, 0, 71, 80
1, 93587, Note_on_c, 0, 71, 0
1, 93600, Note_on_c, 0, 71, 80
1, 93827, Note_on_c, 0, 71, 0
1, 93840, Note_on_c, 0, 69, 80
1, 94067, Note_on_c, 0, 69, 0
1, 94080, Note_on_c, 0, 67, 80
1, 94421, Note_on_c, 0, 67, 0
1, 94440, Note_on_c, 0, 67, 80
1, 94553, Note_on_c, 0, 67, 0
1, 94560, Note_on_c, 0, 74, 80
1, 95015, Note_on_c, 0, 74, 0
1, 95040, Note_on_c, 0, 71, 80
1, 95495, Note_on_c, 0, 71, 0
1, 95520, Note_on_c, 0, 67, 80
1, 95975, Note_on_c, 0, 67, 0
1, 96000, Note_on_c, 0, 69, 80
1, 96227, Note_on_c, 0, 69, 0
1, 96240, Note_on_c, 0, 71, 80
1, 96467, Note_on_c, 0, 71, 0
1, 96480, Note_on_c, 0, 69, 80
1, 96935, Note_on_c, 0, 69, 0
1, 97200, Note_on_c, 0, 67, 80
1, 97427, Note_on_c, 0, 67, 0
1, 97440, Note_on_c, 0, 67, 80
1, 97667, Note_on_c, 0, 67, 0
1, 97680, Note_on_c, 0, 67, 80
1, 97907, Note_on_c, 0, 67, 0
1, 97920, Note_on_c, 0, 69, 80
1, 98147, Note_on_c, 0, 69, 0
1, 98160, Note_on_c, 0, 71, 80
1, 98387, Note_on_c, 0, 71, 0
1, 98400, Note_on_c, 0, 69, 80
1, 98855, Note_on_c, 0, 69, 0
1, 98880, Note_on_c, 0, 67, 80
1, 99107, Note_on_c, 0, 67, 0
1, 99120, Note_on_c, 0, 69, 80
1, 99347, Note_on_c, 0, 69, 0
1, 99360, Note_on_c, 0, 71, 80
1, 99587, Note_on_c, 0, 71, 0
1, 99600, Note_on_c, 0, 72, 80
1, 99827, Note_on_c, 0, 72, 0
1, 100080, Note_on_c, 0, 71, 80
1, 100535, Note_on_c, 0, 71, 0
1, 100560, Note_on_c, 0, 67, 80
1, 100787, Note_on_c, 0, 67, 0
1, 100920, Note_on_c, 0, 71, 80
1, 101033, Note_on_c, 0, 71, 0
1, 101040, Note_on_c, 0, 74, 80
1, 101495, Note_on_c, 0, 74, 0
1, 101520, Note_on_c, 0, 74, 80
1, 101633, Note_on_c, 0, 74, 0
1, 101640, Note_on_c, 0, 71, 80
1, 101753, Note_on_c, 0, 71, 0
1, 102000, Note_on_c, 0, 74, 80
1, 102455, Note_on_c, 0, 74, 0
1, 102480, Note_on_c, 0, 74, 80
1, 102593, Note_on_c, 0, 74, 0
1, 102600, Note_on_c, 0, 71, 80
1, 102713, Note_on_c, 0, 71, 0
1, 102960, Note_on_c, 0, 74, 80
1, 103415, Note_on_c, 0, 74, 0
1, 103440, Note_on_c, 0, 74, 80
1, 103553, Note_on_c, 0, 74, 0
1, 103560, Note_on_c, 0, 71, 80
1, 103673, Note_on_c, 0, 71, 0
1, 103920, Note_on_c, 0, 74, 80
1, 104375, Note_on_c, 0, 74, 0
1, 104400, Note_on_c, 0, 74, 80
1, 104513, Note_on_c, 0, 74, 0
1, 104520, Note_on_c, 0, 71, 80
1, 104633, Note_on_c, 0, 71, 0
1, 104880, Note_on_c, 0, 74, 80
1, 105335, Note_on_c, 0, 74, 0
1, 105360, Note_on_c, 0, 74, 80
1, 105473, Note_on_c, 0, 74, 0
1, 105480, Note_on_c, 0, 71, 80
1, 105593, Note_on_c, 0, 71, 0
1, 105840, Note_on_c, 0, 74, 80
1, 106067, Note_on_c, 0, 74, 0
1, 106080, Note_on_c, 0, 74, 80
1, 106307, Note_on_c, 0, 74, 0
1, 106320, Note_on_c, 0, 74, 80
1, 106547, Note_on_c, 0, 74, 0
1, 106800, Note_on_c, 0, 74, 80
1, 107027, Note_on_c, 0, 74, 0
1, 107040, Note_on_c, 0, 69, 80
1, 107267, Note_on_c, 0, 69, 0
1, 107280, Note_on_c, 0, 69, 80
1, 107507, Note_on_c, 0, 69, 0
1, 107760, Note_on_c, 0, 71, 80
1, 107987, Note_on_c, 0, 71, 0
1, 108000, Note_on_c, 0, 69, 80
1, 108227, Note_on_c, 0, 69, 0
1, 108240, Note_on_c, 0, 67, 80
1, 108467, Note_on_c, 0, 67, 0
1, 108600, Note_on_c, 0, 67, 80
1, 108713, Note_on_c, 0, 67, 0
1, 108720, Note_on_c, 0, 74, 80
1, 109175, Note_on_c, 0, 74, 0
1, 109200, Note_on_c, 0, 74, 80
1, 109313, Note_on_c, 0, 74, 0
1, 109320, Note_on_c, 0, 71, 80
1, 109433, Note_on_c, 0, 71, 0
1, 109680, Note_on_c, 0, 79, 80
1, 109907, Note_on_c, 0, 79, 0
1, 109920, Note_on_c, 0, 74, 80
1, 110147, Note_on_c, 0, 74, 0
1, 110160, Note_on_c, 0, 74, 80
1, 110387, Note_on_c, 0, 74, 0
1, 110520, Note_on_c, 0, 67, 80
1, 110633, Note_on_c, 0, 67, 0
1, 110640, Note_on_c, 0, 74, 80
1, 111095, Note_on_c, 0, 74, 0
1, 111120, Note_on_c, 0, 74, 80
1, 111233, Note_on_c, 0, 74, 0
1, 111240, Note_on_c, 0, 71, 80
1, 111353, Note_on_c, 0, 71, 0
1, 111600, Note_on_c, 0, 79, 80
1, 111827, Note_on_c, 0, 79, 0
1, 111840, Note_on_c, 0, 74, 80
1, 112067, Note_on_c, 0, 74, 0
1, 112080, Note_on_c, 0, 74, 80
1, 112307, Note_on_c, 0, 74, 0
1, 112560, Note_on_c, 0, 66, 80
1, 112787, Note_on_c, 0, 66, 0
1, 112800, Note_on_c, 0, 67, 80
1, 113027, Note_on_c, 0, 67, 0
1, 113040, Note_on_c, 0, 71, 80
1, 113495, Note_on_c, 0, 71, 0
1, 113520, Note_on_c, 0, 67, 80
1, 113747, Note_on_c, 0, 67, 0
1, 113760, Note_on_c, 0, 67, 80
1, 113987, Note_on_c, 0, 67, 0
1, 114000, Note_on_c, 0, 71, 80
1, 114227, Note_on_c, 0, 71, 0
1, 114480, Note_on_c, 0, 67, 80
1, 114707, Note_on_c, 0, 67, 0
1, 114720, Note_on_c, 0, 67, 80
1, 114947, Note_on_c, 0, 67, 0
1, 114960, Note_on_c, 0, 71, 80
1, 115187, Note_on_c, 0, 71, 0
1, 115440, Note_on_c, 0, 67, 80
1, 115667, Note_on_c, 0, 67, 0
1, 115680, Note_on_c, 0, 67, 80
1, 115907, Note_on_c, 0, 67, 0
1, 115920, Note_on_c, 0, 71, 80
1, 116147, Note_on_c, 0, 71, 0
1, 116400, Note_on_c, 0, 67, 80
1, 116627, Note_on_c, 0, 67, 0
1, 116640, Note_on_c, 0, 67, 80
1, 116867, Note_on_c, 0, 67, 0
1, 116880, Note_on_c, 0, 66, 80
1, 117107, Note_on_c, 0, 66, 0
1, 117120, Note_on_c, 0, 66, 80
1, 117347, Note_on_c, 0, 66, 0
1, 117360, Note_on_c, 0, 69, 80
1, 117587, Note_on_c, 0, 69, 0
1, 117600, Note_on_c, 0, 67, 80
1, 118055, Note_on_c, 0, 67, 0
1, 118080, Note_on_c, 0, 71, 80
1, 118535, Note_on_c, 0, 71, 0
1, 118560, Note_on_c, 0, 67, 80
1, 119015, Note_on_c, 0, 67, 0
1, 119040, Note_on_c, 0, 69, 80
1, 119267, Note_on_c, 0, 69, 0
1, 119280, Note_on_c, 0, 71, 80
1, 119507, Note_on_c, 0, 71, 0
1, 119520, Note_on_c, 0, 69, 80
1, 119975, Note_on_c, 0, 69, 0
1, 120240, Note_on_c, 0, 67, 80
1, 120467, Note_on_c, 0, 67, 0
1, 120480, Note_on_c, 0, 67, 80
1, 120707, Note_on_c, 0, 67, 0
1, 120720, Note_on_c, 0, 67, 80
1, 120947, Note_on_c, 0, 67, 0
1, 120960, Note_on_c, 0, 69, 80
1, 121187, Note_on_c, 0, 69, 0
1, 121200, Note_on_c, 0, 71, 80
1, 121427, Note_on_c, 0, 71, 0
1, 121440, Note_on_c, 0, 69, 80
1, 121895, Note_on_c, 0, 69, 0
1, 122160, Note_on_c, 0, 66, 80
1, 122387, Note_on_c, 0, 66, 0
1, 122400, Note_on_c, 0, 67, 80
1, 122627, Note_on_c, 0, 67, 0
1, 122640, Note_on_c, 0, 67, 80
1, 122867, Note_on_c, 0, 67, 0
1, 122880, Note_on_c, 0, 72, 80
1, 123107, Note_on_c, 0, 72, 0
1, 123120, Note_on_c, 0, 71, 80
1, 123347, Note_on_c, 0, 71, 0
1, 123360, Note_on_c, 0, 69, 80
1, 123587, Note_on_c, 0, 69, 0
1, 123600, Note_on_c, 0, 67, 80
1, 124055, Note_on_c, 0, 67, 0
1, 124080, Note_on_c, 0, 69, 80
1, 124307, Note_on_c, 0, 69, 0
1, 124320, Note_on_c, 0, 71, 80
1, 124547, Note_on_c, 0, 71, 0
1, 124560, Note_on_c, 0, 71, 80
1, 124787, Note_on_c, 0, 71, 0
1, 125160, Note_on_c, 0, 67, 80
1, 125273, Note_on_c, 0, 67, 0
1, 125280, Note_on_c, 0, 74, 80
1, 125735, Note_on_c, 0, 74, 0
1, 125760, Note_on_c, 0, 71, 80
1, 126215, Note_on_c, 0, 71, 0
1, 126240, Note_on_c, 0, 67, 80
1, 126695, Note_on_c, 0, 67, 0
1, 126720, Note_on_c, 0, 69, 80
1, 126947, Note_on_c, 0, 69, 0
1, 126960, Note_on_c, 0, 66, 80
1, 127187, Note_on_c, 0, 66, 0
1, 127200, Note_on_c, 0, 66, 80
1, 127427, Note_on_c, 0, 66, 0
1, 127440, Note_on_c, 0, 64, 80
1, 127667, Note_on_c, 0, 64, 0
1, 127920, Note_on_c, 0, 62, 80
1, 128147, Note_on_c, 0, 62, 0
1, 128160, Note_on_c, 0, 62, 80
1, 128387, Note_on_c, 0, 62, 0
1, 128400, Note_on_c, 0, 62, 80
1, 128627, Note_on_c, 0, 62, 0
1, 128640, Note_on_c, 0, 62, 80
1, 128867, Note_on_c, 0, 62, 0
1, 128880, Note_on_c, 0, 67, 80
1, 129107, Note_on_c, 0, 67, 0
1, 129120, Note_on_c, 0, 67, 80
1, 129233, Note_on_c, 0, 67, 0
1, 129240, Note_on_c, 0, 69, 80
1, 129353, Note_on_c, 0, 69, 0
1, 129360, Note_on_c, 0, 71, 80
1, 129587, Note_on_c, 0, 71, 0
1, 129840, Note_on_c, 0, 71, 80
1, 130067, Note_on_c, 0, 71, 0
1, 130080, Note_on_c, 0, 71, 80
1, 130307, Note_on_c, 0, 71, 0
1, 130320, Note_on_c, 0, 71, 80
1, 130547, Note_on_c, 0, 71, 0
1, 130560, Note_on_c, 0, 72, 80
1, 130787, Note_on_c, 0, 72, 0
1, 130800, Note_on_c, 0, 71, 80
1, 131027, Note_on_c, 0, 71, 0
1, 131040, Note_on_c, 0, 69, 80
1, 131267, Note_on_c, 0, 69, 0
1, 131280, Note_on_c, 0, 67, 80
1, 131507, Note_on_c, 0, 67, 0
1, 131520, Note_on_c, 0, 67, 80
1, 131747, Note_on_c, 0, 67, 0
1, 131760, Note_on_c, 0, 69, 80
1, 131987, Note_on_c, 0, 69, 0
1, 132000, Note_on_c, 0, 71, 80
1, 132227, Note_on_c, 0, 71, 0
1, 132240, Note_on_c, 0, 69, 80
1, 132467, Note_on_c, 0, 69, 0
1, 132480, Note_on_c, 0, 67, 80
1, 134303, Note_on_c, 0, 67, 0
1, 134880, Note_on_c, 0, 71, 80
1, 134993, Note_on_c, 0, 71, 0
1, 135000, Note_on_c, 0, 74, 80
1, 135227, Note_on_c, 0, 74, 0
1, 135240, Note_on_c, 0, 76, 80
1, 135353, Note_on_c, 0, 76, 0
1, 135360, Note_on_c, 0, 76, 80
1, 135587, Note_on_c, 0, 76, 0
1, 135600, Note_on_c, 0, 71, 80
1, 135713, Note_on_c, 0, 71, 0
1, 135720, Note_on_c, 0, 72, 80
1, 135833, Note_on_c, 0, 72, 0
1, 135840, Note_on_c, 0, 72, 80
1, 136067, Note_on_c, 0, 72, 0
1, 136080, Note_on_c, 0, 67, 80
1, 136307, Note_on_c, 0, 67, 0
1, 136800, Note_on_c, 0, 71, 80
1, 136913, Note_on_c, 0, 71, 0
1, 136920, Note_on_c, 0, 74, 80
1, 137147, Note_on_c, 0, 74, 0
1, 137160, Note_on_c, 0, 76, 80
1, 137501, Note_on_c, 0, 76, 0
1, 137520, Note_on_c, 0, 74, 80
1, 137633, Note_on_c, 0, 74, 0
1, 137640, Note_on_c, 0, 69, 80
1, 137753, Note_on_c, 0, 69, 0
1, 137760, Note_on_c, 0, 69, 80
1, 137987, Note_on_c, 0, 69, 0
1, 138000, Note_on_c, 0, 67, 80
1, 138227, Note_on_c, 0, 67, 0
1, 138240, Note_on_c, 0, 67, 80
1, 139607, Note_on_c, 0, 67, 0
1, 139680, Note_on_c, 0, 67, 80
1, 140135, Note_on_c, 0, 67, 0
1, 142560, Note_on_c, 0, 71, 80
1, 142673, Note_on_c, 0, 71, 0
1, 142680, Note_on_c, 0, 74, 80
1, 142907, Note_on_c, 0, 74, 0
1, 142920, Note_on_c, 0, 76, 80
1, 143261, Note_on_c, 0, 76, 0
1, 143280, Note_on_c, 0, 74, 80
1, 143393, Note_on_c, 0, 74, 0
1, 143400, Note_on_c, 0, 69, 80
1, 143513, Note_on_c, 0, 69, 0
1, 143520, Note_on_c, 0, 69, 80
1, 143747, Note_on_c, 0, 69, 0
1, 143760, Note_on_c, 0, 67, 80
1, 143987, Note_on_c, 0, 67, 0
1, 144480, Note_on_c, 0, 71, 80
1, 144593, Note_on_c, 0, 71, 0
1, 144600, Note_on_c, 0, 72, 80
1, 144827, Note_on_c, 0, 72, 0
1, 144840, Note_on_c, 0, 72, 80
1, 145181, Note_on_c, 0, 72, 0
1, 145200, Note_on_c, 0, 71, 80
1, 145313, Note_on_c, 0, 71, 0
1, 145320, Note_on_c, 0, 67, 80
1, 145661, Note_on_c, 0, 67, 0
1, 145680, Note_on_c, 0, 67, 80
1, 145907, Note_on_c, 0, 67, 0
1, 146400, Note_on_c, 0, 67, 80
1, 146513, Note_on_c, 0, 67, 0
1, 146520, Note_on_c, 0, 69, 80
1, 146747, Note_on_c, 0, 69, 0
1, 146760, Note_on_c, 0, 69, 80
1, 147101, Note_on_c, 0, 69, 0
1, 147120, Note_on_c, 0, 71, 80
1, 147233, Note_on_c, 0, 71, 0
1, 147240, Note_on_c, 0, 67, 80
1, 147581, Note_on_c, 0, 67, 0
1, 147600, Note_on_c, 0, 67, 80
1, 147827, Note_on_c, 0, 67, 0
1, 148320, Note_on_c, 0, 74, 80
1, 148433, Note_on_c, 0, 74, 0
1, 148440, Note_on_c, 0, 74, 80
1, 148667, Note_on_c, 0, 74, 0
1, 148680, Note_on_c, 0, 76, 80
1, 149021, Note_on_c, 0, 76, 0
1, 149040, Note_on_c, 0, 74, 80
1, 149153, Note_on_c, 0, 74, 0
1, 149160, Note_on_c, 0, 69, 80
1, 149273, Note_on_c, 0, 69, 0
1, 149280, Note_on_c, 0, 69, 80
1, 149507, Note_on_c, 0, 69, 0
1, 149520, Note_on_c, 0, 67, 80
1, 149747, Note_on_c, 0, 67, 0
1, 150240, Note_on_c, 0, 79, 80
1, 150353, Note_on_c, 0, 79, 0
1, 150360, Note_on_c, 0, 78, 80
1, 150587, Note_on_c, 0, 78, 0
1, 150600, Note_on_c, 0, 76, 80
1, 150941, Note_on_c, 0, 76, 0
1, 150960, Note_on_c, 0, 74, 80
1, 151073, Note_on_c, 0, 74, 0
1, 151080, Note_on_c, 0, 74, 80
1, 151421, Note_on_c, 0, 74, 0
1, 151440, Note_on_c, 0, 76, 80
1, 151667, Note_on_c, 0, 76, 0
1, 152160, Note_on_c, 0, 79, 80
1, 152273, Note_on_c, 0, 79, 0
1, 152280, Note_on_c, 0, 76, 80
1, 152507, Note_on_c, 0, 76, 0
1, 152520, Note_on_c, 0, 74, 80
1, 152861, Note_on_c, 0, 74, 0
1, 152880, Note_on_c, 0, 74, 80
1, 152993, Note_on_c, 0, 74, 0
1, 153000, Note_on_c, 0, 74, 80
1, 153113, Note_on_c, 0, 74, 0
1, 153120, Note_on_c, 0, 71, 80
1, 153347, Note_on_c, 0, 71, 0
1, 153360, Note_on_c, 0, 71, 80
1, 153587, Note_on_c, 0, 71, 0
1, 154080, Note_on_c, 0, 67, 80
1, 154193, Note_on_c, 0, 67, 0
1, 154200, Note_on_c, 0, 69, 80
1, 154427, Note_on_c, 0, 69, 0
1, 154440, Note_on_c, 0, 69, 80
1, 154781, Note_on_c, 0, 69, 0
1, 154800, Note_on_c, 0, 71, 80
1, 154913, Note_on_c, 0, 71, 0
1, 154920, Note_on_c, 0, 67, 80
1, 155261, Note_on_c, 0, 67, 0
1, 155280, Note_on_c, 0, 67, 80
1, 155507, Note_on_c, 0, 67, 0
1, 156000, Note_on_c, 0, 74, 80
1, 156113, Note_on_c, 0, 74, 0
1, 156120, Note_on_c, 0, 74, 80
1, 156347, Note_on_c, 0, 74, 0
1, 156360, Note_on_c, 0, 76, 80
1, 156701, Note_on_c, 0, 76, 0
1, 156720, Note_on_c, 0, 74, 80
1, 156833, Note_on_c, 0, 74, 0
1, 156840, Note_on_c, 0, 69, 80
1, 157181, Note_on_c, 0, 69, 0
1, 157200, Note_on_c, 0, 67, 80
1, 157427, Note_on_c, 0, 67, 0
1, 157920, Note_on_c, 0, 79, 80
1, 158033, Note_on_c, 0, 79, 0
1, 158040, Note_on_c, 0, 78, 80
1, 158267, Note_on_c, 0, 78, 0
1, 158280, Note_on_c, 0, 76, 80
1, 158621, Note_on_c, 0, 76, 0
1, 158640, Note_on_c, 0, 74, 80
1, 158753, Note_on_c, 0, 74, 0
1, 158760, Note_on_c, 0, 74, 80
1, 159101, Note_on_c, 0, 74, 0
1, 159120, Note_on_c, 0, 76, 80
1, 159347, Note_on_c, 0, 76, 0
1, 159840, Note_on_c, 0, 79, 80
1, 159953, Note_on_c, 0, 79, 0
1, 159960, Note_on_c, 0, 76, 80
1, 160187, Note_on_c, 0, 76, 0
1, 160200, Note_on_c, 0, 74, 80
1, 160541, Note_on_c, 0, 74, 0
1, 160560, Note_on_c, 0, 74, 80
1, 160673, Note_on_c, 0, 74, 0
1, 160680, Note_on_c, 0, 74, 80
1, 160793, Note_on_c, 0, 74, 0
1, 160800, Note_on_c, 0, 71, 80
1, 161027, Note_on_c, 0, 71, 0
1, 161040, Note_on_c, 0, 71, 80
1, 161267, Note_on_c, 0, 71, 0
1, 163200, Note_on_c, 0, 67, 80
1, 164111, Note_on_c, 0, 67, 0
1, 164160, Note_on_c, 0, 67, 80
1, 164387, Note_on_c, 0, 67, 0
1, 164400, Note_on_c, 0, 67, 80
1, 165083, Note_on_c, 0, 67, 0
1, 165600, Note_on_c, 0, 67, 80
1, 165827, Note_on_c, 0, 67, 0
1, 165840, Note_on_c, 0, 69, 80
1, 166067, Note_on_c, 0, 69, 0
1, 166080, Note_on_c, 0, 71, 80
1, 166307, Note_on_c, 0, 71, 0
1, 166320, Note_on_c, 0, 71, 80
1, 166547, Note_on_c, 0, 71, 0
1, 166560, Note_on_c, 0, 74, 80
1, 166787, Note_on_c, 0, 74, 0
1, 166800, Note_on_c, 0, 71, 80
1, 167027, Note_on_c, 0, 71, 0
1, 167520, Note_on_c, 0, 71, 80
1, 167747, Note_on_c, 0, 71, 0
1, 167760, Note_on_c, 0, 76, 80
1, 167987, Note_on_c, 0, 76, 0
1, 168000, Note_on_c, 0, 79, 80
1, 168227, Note_on_c, 0, 79, 0
1, 168240, Note_on_c, 0, 79, 80
1, 168695, Note_on_c, 0, 79, 0
1, 168720, Note_on_c, 0, 76, 80
1, 168947, Note_on_c, 0, 76, 0
1, 169440, Note_on_c, 0, 67, 80
1, 169440, Note_on_c, 0, 72, 80
1, 169440, Note_on_c, 0, 76, 80
1, 169895, Note_on_c, 0, 67, 0
1, 169895, Note_on_c, 0, 72, 0
1, 169895, Note_on_c, 0, 76, 0
1, 169920, Note_on_c, 0, 69, 80
1, 169920, Note_on_c, 0, 75, 80
1, 169920, Note_on_c, 0, 79, 80
1, 170147, Note_on_c, 0, 69, 0
1, 170147, Note_on_c, 0, 75, 0
1, 170147, Note_on_c, 0, 79, 0
1, 170160, Note_on_c, 0, 67, 80
1, 170160, Note_on_c, 0, 69, 80
1, 170160, Note_on_c, 0, 75, 80
1, 170615, Note_on_c, 0, 67, 0
1, 170615, Note_on_c, 0, 69, 0
1, 170615, Note_on_c, 0, 75, 0
1, 170640, Note_on_c, 0, 67, 80
1, 170640, Note_on_c, 0, 71, 80
1, 170867, Note_on_c, 0, 67, 0
1, 170867, Note_on_c, 0, 71, 0
1, 171600, Note_on_c, 0, 69, 80
1, 172055, Note_on_c, 0, 69, 0
1, 172080, Note_on_c, 0, 71, 80
1, 172307, Note_on_c, 0, 71, 0
1, 173280, Note_on_c, 0, 69, 80
1, 173280, Note_on_c, 0, 71, 80
1, 173507, Note_on_c, 0, 69, 0
1, 173507, Note_on_c, 0, 71, 0
1, 173520, Note_on_c, 0, 72, 80
1, 173747, Note_on_c, 0, 72, 0
1, 173760, Note_on_c, 0, 74, 80
1, 173987, Note_on_c, 0, 74, 0
1, 174000, Note_on_c, 0, 76, 80
1, 174455, Note_on_c, 0, 76, 0
1, 174480, Note_on_c, 0, 74, 80
1, 174707, Note_on_c, 0, 74, 0
1, 174720, Note_on_c, 0, 76, 80
1, 175175, Note_on_c, 0, 76, 0
1, 175200, Note_on_c, 0, 71, 80
1, 175200, Note_on_c, 0, 79, 80
1, 175427, Note_on_c, 0, 71, 0
1, 175427, Note_on_c, 0, 79, 0
1, 175440, Note_on_c, 0, 71, 80
1, 175440, Note_on_c, 0, 79, 80
1, 175667, Note_on_c, 0, 71, 0
1, 175667, Note_on_c, 0, 79, 0
1, 175680, Note_on_c, 0, 71, 80
1, 175680, Note_on_c, 0, 79, 80
1, 175907, Note_on_c, 0, 71, 0
1, 175907, Note_on_c, 0, 79, 0
1, 175920, Note_on_c, 0, 71, 80
1, 175920, Note_on_c, 0, 79, 80
1, 176375, Note_on_c, 0, 71, 0
1, 176375, Note_on_c, 0, 79, 0
1, 176400, Note_on_c, 0, 76, 80
1, 176627, Note_on_c, 0, 76, 0
1, 176640, Note_on_c, 0, 76, 80
1, 177095, Note_on_c, 0, 76, 0
1, 177120, Note_on_c, 0, 76, 80
1, 177347, Note_on_c, 0, 76, 0
1, 177360, Note_on_c, 0, 72, 80
1, 177587, Note_on_c, 0, 72, 0
1, 177600, Note_on_c, 0, 69, 80
1, 177827, Note_on_c, 0, 69, 0
1, 177840, Note_on_c, 0, 75, 80
1, 178523, Note_on_c, 0, 75, 0
1, 179520, Note_on_c, 0, 62, 80
1, 179747, Note_on_c, 0, 62, 0
1, 179760, Note_on_c, 0, 67, 80
1, 179987, Note_on_c, 0, 67, 0
1, 180000, Note_on_c, 0, 62, 80
1, 180455, Note_on_c, 0, 62, 0
1, 180480, Note_on_c, 0, 71, 80
1, 180707, Note_on_c, 0, 71, 0
1, 180720, Note_on_c, 0, 67, 80
1, 180947, Note_on_c, 0, 67, 0
1, 180960, Note_on_c, 0, 71, 80
1, 181187, Note_on_c, 0, 71, 0
1, 181200, Note_on_c, 0, 67, 80
1, 181427, Note_on_c, 0, 67, 0
1, 181440, Note_on_c, 0, 71, 80
1, 181667, Note_on_c, 0, 71, 0
1, 181680, Note_on_c, 0, 67, 80
1, 181907, Note_on_c, 0, 67, 0
1, 186240, Note_on_c, 0, 71, 80
1, 186467, Note_on_c, 0, 71, 0
1, 186480, Note_on_c, 0, 62, 80
1, 186707, Note_on_c, 0, 62, 0
1, 186720, Note_on_c, 0, 67, 80
1, 186947, Note_on_c, 0, 67, 0
1, 186960, Note_on_c, 0, 62, 80
1, 187187, Note_on_c, 0, 62, 0
1, 187200, Note_on_c, 0, 71, 80
1, 187427, Note_on_c, 0, 71, 0
1, 187440, Note_on_c, 0, 62, 80
1, 187667, Note_on_c, 0, 62, 0
1, 187680, Note_on_c, 0, 67, 80
1, 187907, Note_on_c, 0, 67, 0
1, 187920, Note_on_c, 0, 62, 80
1, 188147, Note_on_c, 0, 62, 0
1, 188160, Note_on_c, 0, 71, 80
1, 188387, Note_on_c, 0, 71, 0
1, 188400, Note_on_c, 0, 62, 80
1, 188627, Note_on_c, 0, 62, 0
1, 188640, Note_on_c, 0, 67, 80
1, 188867, Note_on_c, 0, 67, 0
1, 188880, Note_on_c, 0, 62, 80
1, 189107, Note_on_c, 0, 62, 0
1, 189120, Note_on_c, 0, 71, 80
1, 189347, Note_on_c, 0, 71, 0
1, 189360, Note_on_c, 0, 62, 80
1, 189587, Note_on_c, 0, 62, 0
1, 189600, Note_on_c, 0, 67, 80
1, 189827, Note_on_c, 0, 67, 0
1, 189840, Note_on_c, 0, 62, 80
1, 190067, Note_on_c, 0, 62, 0
1, 191040, Note_on_c, 0, 71, 80
1, 191267, Note_on_c, 0, 71, 0
1, 191280, Note_on_c, 0, 71, 80
1, 191735, Note_on_c, 0, 71, 0
1, 191760, Note_on_c, 0, 67, 80
1, 191987, Note_on_c, 0, 67, 0
1, 192480, Note_on_c, 0, 71, 80
1, 192707, Note_on_c, 0, 71, 0
1, 192720, Note_on_c, 0, 74, 80
1, 192947, Note_on_c, 0, 74, 0
1, 192960, Note_on_c, 0, 69, 80
1, 192960, Note_on_c, 0, 76, 80
1, 193187, Note_on_c, 0, 69, 0
1, 193187, Note_on_c, 0, 76, 0
1, 193200, Note_on_c, 0, 69, 80
1, 193200, Note_on_c, 0, 76, 80
1, 193427, Note_on_c, 0, 69, 0
1, 193427, Note_on_c, 0, 76, 0
1, 193680, Note_on_c, 0, 69, 80
1, 193680, Note_on_c, 0, 76, 80
1, 193907, Note_on_c, 0, 69, 0
1, 193907, Note_on_c, 0, 76, 0
1, 194400, Note_on_c, 0, 76, 80
1, 194627, Note_on_c, 0, 76, 0
1, 194640, Note_on_c, 0, 76, 80
1, 194867, Note_on_c, 0, 76, 0
1, 194880, Note_on_c, 0, 72, 80
1, 194880, Note_on_c, 0, 79, 80
1, 195107, Note_on_c, 0, 72, 0
1, 195107, Note_on_c, 0, 79, 0
1, 195120, Note_on_c, 0, 72, 80
1, 195120, Note_on_c, 0, 79, 80
1, 195347, Note_on_c, 0, 72, 0
1, 195347, Note_on_c, 0, 79, 0
1, 195600, Note_on_c, 0, 72, 80
1, 195600, Note_on_c, 0, 79, 80
1, 195827, Note_on_c, 0, 72, 0
1, 195827, Note_on_c, 0, 79, 0
1, 196320, Note_on_c, 0, 67, 80
1, 196320, Note_on_c, 0, 76, 80
1, 196775, Note_on_c, 0, 67, 0
1, 196775, Note_on_c, 0, 76, 0
1, 196800, Note_on_c, 0, 69, 80
1, 196800, Note_on_c, 0, 75, 80
1, 197255, Note_on_c, 0, 69, 0
1, 197255, Note_on_c, 0, 75, 0
1, 197280, Note_on_c, 0, 69, 80
1, 197280, Note_on_c, 0, 76, 80
1, 197280, Note_on_c, 0, 79, 80
1, 197735, Note_on_c, 0, 69, 0
1, 197735, Note_on_c, 0, 76, 0
1, 197735, Note_on_c, 0, 79, 0
2, 0, Note_on_c, 0, 50, 80
2, 0, Note_on_c, 0, 54, 80
2, 0, Note_on_c, 0, 57, 80
2, 1823, Note_on_c, 0, 50, 0
2, 1823, Note_on_c, 0, 54, 0
2, 1823, Note_on_c, 0, 57, 0
2, 1920, Note_on_c, 0, 55, 80
2, 1920, Note_on_c, 0, 59, 80
2, 3743, Note_on_c, 0, 55, 0
2, 3743, Note_on_c, 0, 59, 0
2, 3840, Note_on_c, 0, 47, 80
2, 3840, Note_on_c, 0, 51, 80
2, 3840, Note_on_c, 0, 54, 80
2, 5663, Note_on_c, 0, 47, 0
2, 5663, Note_on_c, 0, 51, 0
2, 5663, Note_on_c, 0, 54, 0
2, 5760, Note_on_c, 0, 52, 80
2, 5760, Note_on_c, 0, 55, 80
2, 5760, Note_on_c, 0, 59, 80
2, 5760, Note_on_c, 0, 62, 80
2, 7583, Note_on_c, 0, 52, 0
2, 7583, Note_on_c, 0, 55, 0
2, 7583, Note_on_c, 0, 59, 0
2, 7583, Note_on_c, 0, 62, 0
2, 7680, Note_on_c, 0, 43, 80
2, 7680, Note_on_c, 0, 53, 80
2, 9503, Note_on_c, 0, 43, 0
2, 9503, Note_on_c, 0, 53, 0
2, 9600, Note_on_c, 0, 50, 80
2, 9600, Note_on_c, 0, 55, 80
2, 9600, Note_on_c, 0, 59, 80
2, 11423, Note_on_c, 0, 50, 0
2, 11423, Note_on_c, 0, 55, 0
2, 11423, Note_on_c, 0, 59, 0
2, 11520, Note_on_c, 0, 47, 80
2, 11520, Note_on_c, 0, 51, 80
2, 11520, Note_on_c, 0, 54, 80
2, 11520, Note_on_c, 0, 57, 80
2, 12887, Note_on_c, 0, 47, 0
2, 12887, Note_on_c, 0, 51, 0
2, 12887, Note_on_c, 0, 54, 0
2, 12887, Note_on_c, 0, 57, 0
2, 12960, Note_on_c, 0, 47, 80
2, 12960, Note_on_c, 0, 51, 80
2, 12960, Note_on_c, 0, 54, 80
2, 12960, Note_on_c, 0, 57, 80
2, 13415, Note_on_c, 0, 47, 0
2, 13415, Note_on_c, 0, 51, 0
2, 13415, Note_on_c, 0, 54, 0
2, 13415, Note_on_c, 0, 57, 0
2, 13440, Note_on_c, 0, 52, 80
2, 13440, Note_on_c, 0, 55, 80
2, 13440, Note_on_c, 0, 59, 80
2, 14807, Note_on_c, 0, 52, 0
2, 14807, Note_on_c, 0, 55, 0
2, 14807, Note_on_c, 0, 59, 0
2, 14880, Note_on_c, 0, 52, 80
2, 14880, Note_on_c, 0, 55, 80
2, 14880, Note_on_c, 0, 59, 80
2, 15335, Note_on_c, 0, 52, 0
2, 15335, Note_on_c, 0, 55, 0
2, 15335, Note_on_c, 0, 59, 0
2, 15360, Note_on_c, 0, 48, 80
2, 15360, Note_on_c, 0, 52, 80
2, 15360, Note_on_c, 0, 55, 80
2, 17183, Note_on_c, 0, 48, 0
2, 17183, Note_on_c, 0, 52, 0
2, 17183, Note_on_c, 0, 55, 0
2, 17280, Note_on_c, 0, 43, 80
2, 17280, Note_on_c, 0, 47, 80
2, 17280, Note_on_c, 0, 50, 80
2, 19103, Note_on_c, 0, 43, 0
2, 19103, Note_on_c, 0, 47, 0
2, 19103, Note_on_c, 0, 50, 0
2, 19200, Note_on_c, 0, 47, 80
2, 19200, Note_on_c, 0, 51, 80
2, 19200, Note_on_c, 0, 57, 80
2, 21023, Note_on_c, 0, 47, 0
2, 21023, Note_on_c, 0, 51, 0
2, 21023, Note_on_c, 0, 57, 0
2, 21120, Note_on_c, 0, 52, 80
2, 21120, Note_on_c, 0, 55, 80
2, 21120, Note_on_c, 0, 59, 80
2, 22943, Note_on_c, 0, 52, 0
2, 22943, Note_on_c, 0, 55, 0
2, 22943, Note_on_c, 0, 59, 0
2, 23040, Note_on_c, 0, 48, 80
2, 23040, Note_on_c, 0, 52, 80
2, 23040, Note_on_c, 0, 55, 80
2, 24863, Note_on_c, 0, 48, 0
2, 24863, Note_on_c, 0, 52, 0
2, 24863, Note_on_c, 0, 55, 0
2, 24960, Note_on_c, 0, 50, 80
2, 24960, Note_on_c, 0, 55, 80
2, 24960, Note_on_c, 0, 59, 80
2, 26783, Note_on_c, 0, 50, 0
2, 26783, Note_on_c, 0, 55, 0
2, 26783, Note_on_c, 0, 59, 0
2, 26880, Note_on_c, 0, 50, 80
2, 26880, Note_on_c, 0, 54, 80
2, 26880, Note_on_c, 0, 59, 80
2, 28703, Note_on_c, 0, 50, 0
2, 28703, Note_on_c, 0, 54, 0
2, 28703, Note_on_c, 0, 59, 0
2, 28800, Note_on_c, 0, 52, 80
2, 28800, Note_on_c, 0, 55, 80
2, 28800, Note_on_c, 0, 59, 80
2, 30623, Note_on_c, 0, 52, 0
2, 30623, Note_on_c, 0, 55, 0
2, 30623, Note_on_c, 0, 59, 0
2, 30720, Note_on_c, 0, 52, 80
2, 30720, Note_on_c, 0, 55, 80
2, 30720, Note_on_c, 0, 60, 80
2, 32543, Note_on_c, 0, 52, 0
2, 32543, Note_on_c, 0, 55, 0
2, 32543, Note_on_c, 0, 60, 0
2, 32640, Note_on_c, 0, 50, 80
2, 32640, Note_on_c, 0, 55, 80
2, 32640, Note_on_c, 0, 59, 80
2, 34463, Note_on_c, 0, 50, 0
2, 34463, Note_on_c, 0, 55, 0
2, 34463, Note_on_c, 0, 59, 0
2, 34560, Note_on_c, 0, 50, 80
2, 34560, Note_on_c, 0, 54, 80
2, 34560, Note_on_c, 0, 59, 80
2, 36383, Note_on_c, 0, 50, 0
2, 36383, Note_on_c, 0, 54, 0
2, 36383, Note_on_c, 0, 59, 0
2, 36480, Note_on_c, 0, 52, 80
2, 36480, Note_on_c, 0, 55, 80
2, 36480, Note_on_c, 0, 59, 80
2, 38303, Note_on_c, 0, 52, 0
2, 38303, Note_on_c, 0, 55, 0
2, 38303, Note_on_c, 0, 59, 0
2, 38400, Note_on_c, 0, 52, 80
2, 38400, Note_on_c, 0, 55, 80
2, 38400, Note_on_c, 0, 60, 80
2, 38880, Note_on_c, 0, 60, 0
2, 40223, Note_on_c, 0, 52, 0
2, 40223, Note_on_c, 0, 55, 0
2, 40320, Note_on_c, 0, 50, 80
2, 40320, Note_on_c, 0, 55, 80
2, 40320, Note_on_c, 0, 59, 80
2, 42143, Note_on_c, 0, 50, 0
2, 42143, Note_on_c, 0, 55, 0
2, 42143, Note_on_c, 0, 59, 0
2, 42240, Note_on_c, 0, 50, 80
2, 42240, Note_on_c, 0, 54, 80
2, 42240, Note_on_c, 0, 59, 80
2, 44063, Note_on_c, 0, 50, 0
2, 44063, Note_on_c, 0, 54, 0
2, 44063, Note_on_c, 0, 59, 0
2, 44160, Note_on_c, 0, 52, 80
2, 44160, Note_on_c, 0, 55, 80
2, 44160, Note_on_c, 0, 59, 80
2, 45983, Note_on_c, 0, 52, 0
2, 45983, Note_on_c, 0, 55, 0
2, 45983, Note_on_c, 0, 59, 0
2, 46080, Note_on_c, 0, 52, 80
2, 46080, Note_on_c, 0, 55, 80
2, 46080, Note_on_c, 0, 60, 80
2, 47903, Note_on_c, 0, 52, 0
2, 47903, Note_on_c, 0, 55, 0
2, 47903, Note_on_c, 0, 60, 0
2, 48000, Note_on_c, 0, 50, 80
2, 48000, Note_on_c, 0, 55, 80
2, 48000, Note_on_c, 0, 59, 80
2, 49823, Note_on_c, 0, 50, 0
2, 49823, Note_on_c, 0, 55, 0
2, 49823, Note_on_c, 0, 59, 0
2, 49920, Note_on_c, 0, 50, 80
2, 49920, Note_on_c, 0, 54, 80
2, 49920, Note_on_c, 0, 59, 80
2, 51743, Note_on_c, 0, 50, 0
2, 51743, Note_on_c, 0, 54, 0
2, 51743, Note_on_c, 0, 59, 0
2, 51840, Note_on_c, 0, 52, 80
2, 51840, Note_on_c, 0, 55, 80
2, 51840, Note_on_c, 0, 59, 80
2, 53663, Note_on_c, 0, 52, 0
2, 53663, Note_on_c, 0, 55, 0
2, 53663, Note_on_c, 0, 59, 0
2, 53760, Note_on_c, 0, 52, 80
2, 53760, Note_on_c, 0, 55, 80
2, 53760, Note_on_c, 0, 60, 80
2, 55583, Note_on_c, 0, 52, 0
2, 55583, Note_on_c, 0, 55, 0
2, 55583, Note_on_c, 0, 60, 0
2, 55680, Note_on_c, 0, 50, 80
2, 55680, Note_on_c, 0, 55, 80
2, 55680, Note_on_c, 0, 59, 80
2, 57503, Note_on_c, 0, 50, 0
2, 57503, Note_on_c, 0, 55, 0
2, 57503, Note_on_c, 0, 59, 0
2, 57600, Note_on_c, 0, 50, 80
2, 57600, Note_on_c, 0, 54, 80
2, 57600, Note_on_c, 0, 59, 80
2, 59423, Note_on_c, 0, 50, 0
2, 59423, Note_on_c, 0, 54, 0
2, 59423, Note_on_c, 0, 59, 0
2, 59520, Note_on_c, 0, 52, 80
2, 59520, Note_on_c, 0, 55, 80
2, 59520, Note_on_c, 0, 59, 80
2, 61343, Note_on_c, 0, 52, 0
2, 61343, Note_on_c, 0, 55, 0
2, 61343, Note_on_c, 0, 59, 0
2, 61440, Note_on_c, 0, 52, 80
2, 61440, Note_on_c, 0, 55, 80
2, 61440, Note_on_c, 0, 60, 80
2, 63263, Note_on_c, 0, 52, 0
2, 63263, Note_on_c, 0, 55, 0
2, 63263, Note_on_c, 0, 60, 0
2, 63360, Note_on_c, 0, 50, 80
2, 63360, Note_on_c, 0, 55, 80
2, 63360, Note_on_c, 0, 59, 80
2, 65183, Note_on_c, 0, 50, 0
2, 65183, Note_on_c, 0, 55, 0
2, 65183, Note_on_c, 0, 59, 0
2, 65280, Note_on_c, 0, 50, 80
2, 65280, Note_on_c, 0, 54, 80
2, 65280, Note_on_c, 0, 59, 80
2, 67103, Note_on_c, 0, 50, 0
2, 67103, Note_on_c, 0, 54, 0
2, 67103, Note_on_c, 0, 59, 0
2, 67200, Note_on_c, 0, 52, 80
2, 67200, Note_on_c, 0, 55, 80
2, 67200, Note_on_c, 0, 59, 80
2, 69023, Note_on_c, 0, 52, 0
2, 69023, Note_on_c, 0, 55, 0
2, 69023, Note_on_c, 0, 59, 0
2, 69120, Note_on_c, 0, 52, 80
2, 69120, Note_on_c, 0, 55, 80
2, 69120, Note_on_c, 0, 60, 80
2, 70943, Note_on_c, 0, 52, 0
2, 70943, Note_on_c, 0, 55, 0
2, 70943, Note_on_c, 0, 60, 0
2, 71040, Note_on_c, 0, 50, 80
2, 71040, Note_on_c, 0, 55, 80
2, 71040, Note_on_c, 0, 59, 80
2, 72863, Note_on_c, 0, 50, 0
2, 72863, Note_on_c, 0, 55, 0
2, 72863, Note_on_c, 0, 59, 0
2, 72960, Note_on_c, 0, 52, 80
2, 72960, Note_on_c, 0, 57, 80
2, 72960, Note_on_c, 0, 60, 80
2, 74783, Note_on_c, 0, 52, 0
2, 74783, Note_on_c, 0, 57, 0
2, 74783, Note_on_c, 0, 60, 0
2, 74880, Note_on_c, 0, 50, 80
2, 74880, Note_on_c, 0, 57, 80
2, 74880, Note_on_c, 0, 60, 80
2, 76703, Note_on_c, 0, 50, 0
2, 76703, Note_on_c, 0, 57, 0
2, 76703, Note_on_c, 0, 60, 0
2, 76800, Note_on_c, 0, 50, 80
2, 76800, Note_on_c, 0, 55, 80
2, 76800, Note_on_c, 0, 59, 80
2, 78623, Note_on_c, 0, 50, 0
2, 78623, Note_on_c, 0, 55, 0
2, 78623, Note_on_c, 0, 59, 0
2, 78720, Note_on_c, 0, 50, 80
2, 78720, Note_on_c, 0, 55, 80
2, 78720, Note_on_c, 0, 59, 80
2, 80543, Note_on_c, 0, 50, 0
2, 80543, Note_on_c, 0, 55, 0
2, 80543, Note_on_c, 0, 59, 0
2, 80640, Note_on_c, 0, 52, 80
2, 80640, Note_on_c, 0, 57, 80
2, 80640, Note_on_c, 0, 60, 80
2, 82463, Note_on_c, 0, 52, 0
2, 82463, Note_on_c, 0, 57, 0
2, 82463, Note_on_c, 0, 60, 0
2, 82560, Note_on_c, 0, 52, 80
2, 82560, Note_on_c, 0, 55, 80
2, 82560, Note_on_c, 0, 60, 80
2, 84383, Note_on_c, 0, 52, 0
2, 84383, Note_on_c, 0, 55, 0
2, 84383, Note_on_c, 0, 60, 0
2, 84480, Note_on_c, 0, 50, 80
2, 84480, Note_on_c, 0, 55, 80
2, 84480, Note_on_c, 0, 59, 80
2, 86303, Note_on_c, 0, 50, 0
2, 86303, Note_on_c, 0, 55, 0
2, 86303, Note_on_c, 0, 59, 0
2, 86400, Note_on_c, 0, 50, 80
2, 86400, Note_on_c, 0, 55, 80
2, 86400, Note_on_c, 0, 59, 80
2, 88223, Note_on_c, 0, 50, 0
2, 88223, Note_on_c, 0, 55, 0
2, 88223, Note_on_c, 0, 59, 0
2, 88320, Note_on_c, 0, 50, 80
2, 88320, Note_on_c, 0, 54, 80
2, 88320, Note_on_c, 0, 59, 80
2, 90143, Note_on_c, 0, 50, 0
2, 90143, Note_on_c, 0, 54, 0
2, 90143, Note_on_c, 0, 59, 0
2, 90240, Note_on_c, 0, 52, 80
2, 90240, Note_on_c, 0, 55, 80
2, 90240, Note_on_c, 0, 59, 80
2, 92063, Note_on_c, 0, 52, 0
2, 92063, Note_on_c, 0, 55, 0
2, 92063, Note_on_c, 0, 59, 0
2, 92160, Note_on_c, 0, 52, 80
2, 92160, Note_on_c, 0, 55, 80
2, 92160, Note_on_c, 0, 60, 80
2, 93983, Note_on_c, 0, 52, 0
2, 93983, Note_on_c, 0, 55, 0
2, 93983, Note_on_c, 0, 60, 0
2, 94080, Note_on_c, 0, 50, 80
2, 94080, Note_on_c, 0, 55, 80
2, 94080, Note_on_c, 0, 59, 80
2, 95903, Note_on_c, 0, 50, 0
2, 95903, Note_on_c, 0, 55, 0
2, 95903, Note_on_c, 0, 59, 0
2, 96000, Note_on_c, 0, 50, 80
2, 96000, Note_on_c, 0, 54, 80
2, 96000, Note_on_c, 0, 59, 80
2, 97823, Note_on_c, 0, 50, 0
2, 97823, Note_on_c, 0, 54, 0
2, 97823, Note_on_c, 0, 59, 0
2, 97920, Note_on_c, 0, 52, 80
2, 97920, Note_on_c, 0, 55, 80
2, 97920, Note_on_c, 0, 59, 80
2, 99743, Note_on_c, 0, 52, 0
2, 99743, Note_on_c, 0, 55, 0
2, 99743, Note_on_c, 0, 59, 0
2, 99840, Note_on_c, 0, 52, 80
2, 99840, Note_on_c, 0, 55, 80
2, 99840, Note_on_c, 0, 60, 80
2, 100751, Note_on_c, 0, 52, 0
2, 100751, Note_on_c, 0, 55, 0
2, 100751, Note_on_c, 0, 60, 0
2, 100800, Note_on_c, 0, 54, 80
2, 100800, Note_on_c, 0, 57, 80
2, 100800, Note_on_c, 0, 60, 80
2, 101711, Note_on_c, 0, 54, 0
2, 101711, Note_on_c, 0, 57, 0
2, 101711, Note_on_c, 0, 60, 0
2, 101760, Note_on_c, 0, 50, 80
2, 101760, Note_on_c, 0, 55, 80
2, 101760, Note_on_c, 0, 59, 80
2, 103583, Note_on_c, 0, 50, 0
2, 103583, Note_on_c, 0, 55, 0
2, 103583, Note_on_c, 0, 59, 0
2, 103680, Note_on_c, 0, 50, 80
2, 103680, Note_on_c, 0, 54, 80
2, 103680, Note_on_c, 0, 59, 80
2, 105503, Note_on_c, 0, 50, 0
2, 105503, Note_on_c, 0, 54, 0
2, 105503, Note_on_c, 0, 59, 0
2, 105600, Note_on_c, 0, 52, 80
2, 105600, Note_on_c, 0, 55, 80
2, 105600, Note_on_c, 0, 59, 80
2, 107423, Note_on_c, 0, 52, 0
2, 107423, Note_on_c, 0, 55, 0
2, 107423, Note_on_c, 0, 59, 0
2, 107520, Note_on_c, 0, 52, 80
2, 107520, Note_on_c, 0, 55, 80
2, 107520, Note_on_c, 0, 60, 80
2, 108431, Note_on_c, 0, 52, 0
2, 108431, Note_on_c, 0, 55, 0
2, 108431, Note_on_c, 0, 60, 0
2, 108480, Note_on_c, 0, 52, 80
2, 108480, Note_on_c, 0, 55, 80
2, 108480, Note_on_c, 0, 60, 80
2, 109391, Note_on_c, 0, 52, 0
2, 109391, Note_on_c, 0, 55, 0
2, 109391, Note_on_c, 0, 60, 0
2, 109440, Note_on_c, 0, 50, 80
2, 109440, Note_on_c, 0, 55, 80
2, 109440, Note_on_c, 0, 59, 80
2, 111263, Note_on_c, 0, 50, 0
2, 111263, Note_on_c, 0, 55, 0
2, 111263, Note_on_c, 0, 59, 0
2, 111360, Note_on_c, 0, 50, 80
2, 111360, Note_on_c, 0, 54, 80
2, 111360, Note_on_c, 0, 59, 80
2, 113183, Note_on_c, 0, 50, 0
2, 113183, Note_on_c, 0, 54, 0
2, 113183, Note_on_c, 0, 59, 0
2, 113280, Note_on_c, 0, 55, 80
2, 113280, Note_on_c, 0, 59, 80
2, 115103, Note_on_c, 0, 55, 0
2, 115103, Note_on_c, 0, 59, 0
2, 115200, Note_on_c, 0, 52, 80
2, 115200, Note_on_c, 0, 55, 80
2, 115200, Note_on_c, 0, 60, 80
2, 116111, Note_on_c, 0, 52, 0
2, 116111, Note_on_c, 0, 55, 0
2, 116111, Note_on_c, 0, 60, 0
2, 116160, Note_on_c, 0, 54, 80
2, 116160, Note_on_c, 0, 57, 80
2, 116160, Note_on_c, 0, 60, 80
2, 117071, Note_on_c, 0, 54, 0
2, 117071, Note_on_c, 0, 57, 0
2, 117071, Note_on_c, 0, 60, 0
2, 117120, Note_on_c, 0, 50, 80
2, 117120, Note_on_c, 0, 55, 80
2, 117120, Note_on_c, 0, 59, 80
2, 118943, Note_on_c, 0, 50, 0
2, 118943, Note_on_c, 0, 55, 0
2, 118943, Note_on_c, 0, 59, 0
2, 119040, Note_on_c, 0, 50, 80
2, 119040, Note_on_c, 0, 54, 80
2, 119040, Note_on_c, 0, 59, 80
2, 120863, Note_on_c, 0, 50, 0
2, 120863, Note_on_c, 0, 54, 0
2, 120863, Note_on_c, 0, 59, 0
2, 120960, Note_on_c, 0, 52, 80
2, 120960, Note_on_c, 0, 55, 80
2, 120960, Note_on_c, 0, 59, 80
2, 122783, Note_on_c, 0, 52, 0
2, 122783, Note_on_c, 0, 55, 0
2, 122783, Note_on_c, 0, 59, 0
2, 122880, Note_on_c, 0, 52, 80
2, 122880, Note_on_c, 0, 55, 80
2, 122880, Note_on_c, 0, 60, 80
2, 124703, Note_on_c, 0, 52, 0
2, 124703, Note_on_c, 0, 55, 0
2, 124703, Note_on_c, 0, 60, 0
2, 124800, Note_on_c, 0, 50, 80
2, 124800, Note_on_c, 0, 55, 80
2, 124800, Note_on_c, 0, 59, 80
2, 126623, Note_on_c, 0, 50, 0
2, 126623, Note_on_c, 0, 55, 0
2, 126623, Note_on_c, 0, 59, 0
2, 126720, Note_on_c, 0, 50, 80
2, 126720, Note_on_c, 0, 54, 80
2, 126720, Note_on_c, 0, 59, 80
2, 128543, Note_on_c, 0, 50, 0
2, 128543, Note_on_c, 0, 54, 0
2, 128543, Note_on_c, 0, 59, 0
2, 128640, Note_on_c, 0, 52, 80
2, 128640, Note_on_c, 0, 55, 80
2, 128640, Note_on_c, 0, 59, 80
2, 130463, Note_on_c, 0, 52, 0
2, 130463, Note_on_c, 0, 55, 0
2, 130463, Note_on_c, 0, 59, 0
2, 130560, Note_on_c, 0, 52, 80
2, 130560, Note_on_c, 0, 55, 80
2, 130560, Note_on_c, 0, 60, 80
2, 131471, Note_on_c, 0, 52, 0
2, 131471, Note_on_c, 0, 55, 0
2, 131471, Note_on_c, 0, 60, 0
2, 131520, Note_on_c, 0, 54, 80
2, 131520, Note_on_c, 0, 57, 80
2, 131520, Note_on_c, 0, 60, 80
2, 132431, Note_on_c, 0, 54, 0
2, 132431, Note_on_c, 0, 57, 0
2, 132431, Note_on_c, 0, 60, 0
2, 132480, Note_on_c, 0, 50, 80
2, 132480, Note_on_c, 0, 55, 80
2, 132480, Note_on_c, 0, 59, 80
2, 134303, Note_on_c, 0, 50, 0
2, 134303, Note_on_c, 0, 55, 0
2, 134303, Note_on_c, 0, 59, 0
2, 134400, Note_on_c, 0, 50, 80
2, 134400, Note_on_c, 0, 54, 80
2, 134400, Note_on_c, 0, 59, 80
2, 136223, Note_on_c, 0, 50, 0
2, 136223, Note_on_c, 0, 54, 0
2, 136223, Note_on_c, 0, 59, 0
2, 136320, Note_on_c, 0, 52, 80
2, 136320, Note_on_c, 0, 55, 80
2, 136320, Note_on_c, 0, 59, 80
2, 138143, Note_on_c, 0, 52, 0
2, 138143, Note_on_c, 0, 55, 0
2, 138143, Note_on_c, 0, 59, 0
2, 138240, Note_on_c, 0, 52, 80
2, 138240, Note_on_c, 0, 55, 80
2, 138240, Note_on_c, 0, 60, 80
2, 139151, Note_on_c, 0, 52, 0
2, 139151, Note_on_c, 0, 55, 0
2, 139151, Note_on_c, 0, 60, 0
2, 139200, Note_on_c, 0, 54, 80
2, 139200, Note_on_c, 0, 57, 80
2, 139200, Note_on_c, 0, 60, 80
2, 140111, Note_on_c, 0, 54, 0
2, 140111, Note_on_c, 0, 57, 0
2, 140111, Note_on_c, 0, 60, 0
2, 140160, Note_on_c, 0, 50, 80
2, 140160, Note_on_c, 0, 55, 80
2, 140160, Note_on_c, 0, 59, 80
2, 141983, Note_on_c, 0, 50, 0
2, 141983, Note_on_c, 0, 55, 0
2, 141983, Note_on_c, 0, 59, 0
2, 142080, Note_on_c, 0, 50, 80
2, 142080, Note_on_c, 0, 54, 80
2, 142080, Note_on_c, 0, 59, 80
2, 143903, Note_on_c, 0, 50, 0
2, 143903, Note_on_c, 0, 54, 0
2, 143903, Note_on_c, 0, 59, 0
2, 144000, Note_on_c, 0, 52, 80
2, 144000, Note_on_c, 0, 55, 80
2, 144000, Note_on_c, 0, 59, 80
2, 145823, Note_on_c, 0, 52, 0
2, 145823, Note_on_c, 0, 55, 0
2, 145823, Note_on_c, 0, 59, 0
2, 145920, Note_on_c, 0, 52, 80
2, 145920, Note_on_c, 0, 55, 80
2, 145920, Note_on_c, 0, 60, 80
2, 146831, Note_on_c, 0, 52, 0
2, 146831, Note_on_c, 0, 55, 0
2, 146831, Note_on_c, 0, 60, 0
2, 146880, Note_on_c, 0, 54, 80
2, 146880, Note_on_c, 0, 57, 80
2, 146880, Note_on_c, 0, 60, 80
2, 147791, Note_on_c, 0, 54, 0
2, 147791, Note_on_c, 0, 57, 0
2, 147791, Note_on_c, 0, 60, 0
2, 147840, Note_on_c, 0, 50, 80
2, 147840, Note_on_c, 0, 55, 80
2, 147840, Note_on_c, 0, 59, 80
2, 149663, Note_on_c, 0, 50, 0
2, 149663, Note_on_c, 0, 55, 0
2, 149663, Note_on_c, 0, 59, 0
2, 149760, Note_on_c, 0, 50, 80
2, 149760, Note_on_c, 0, 54, 80
2, 149760, Note_on_c, 0, 59, 80
2, 151583, Note_on_c, 0, 50, 0
2, 151583, Note_on_c, 0, 54, 0
2, 151583, Note_on_c, 0, 59, 0
2, 151680, Note_on_c, 0, 52, 80
2, 151680, Note_on_c, 0, 55, 80
2, 151680, Note_on_c, 0, 59, 80
2, 153503, Note_on_c, 0, 52, 0
2, 153503, Note_on_c, 0, 55, 0
2, 153503, Note_on_c, 0, 59, 0
2, 153600, Note_on_c, 0, 52, 80
2, 153600, Note_on_c, 0, 55, 80
2, 153600, Note_on_c, 0, 60, 80
2, 154511, Note_on_c, 0, 52, 0
2, 154511, Note_on_c, 0, 55, 0
2, 154511, Note_on_c, 0, 60, 0
2, 154560, Note_on_c, 0, 54, 80
2, 154560, Note_on_c, 0, 57, 80
2, 154560, Note_on_c, 0, 60, 80
2, 155471, Note_on_c, 0, 54, 0
2, 155471, Note_on_c, 0, 57, 0
2, 155471, Note_on_c, 0, 60, 0
2, 155520, Note_on_c, 0, 50, 80
2, 155520, Note_on_c, 0, 55, 80
2, 155520, Note_on_c, 0, 59, 80
2, 157343, Note_on_c, 0, 50, 0
2, 157343, Note_on_c, 0, 55, 0
2, 157343, Note_on_c, 0, 59, 0
2, 157440, Note_on_c, 0, 50, 80
2, 157440, Note_on_c, 0, 54, 80
2, 157440, Note_on_c, 0, 59, 80
2, 159263, Note_on_c, 0, 50, 0
2, 159263, Note_on_c, 0, 54, 0
2, 159263, Note_on_c, 0, 59, 0
2, 159360, Note_on_c, 0, 52, 80
2, 159360, Note_on_c, 0, 55, 80
2, 159360, Note_on_c, 0, 59, 80
2, 161183, Note_on_c, 0, 52, 0
2, 161183, Note_on_c, 0, 55, 0
2, 161183, Note_on_c, 0, 59, 0
2, 161280, Note_on_c, 0, 52, 80
2, 161280, Note_on_c, 0, 55, 80
2, 161280, Note_on_c, 0, 60, 80
2, 162191, Note_on_c, 0, 52, 0
2, 162191, Note_on_c, 0, 55, 0
2, 162191, Note_on_c, 0, 60, 0
2, 162240, Note_on_c, 0, 54, 80
2, 162240, Note_on_c, 0, 57, 80
2, 162240, Note_on_c, 0, 60, 80
2, 163151, Note_on_c, 0, 54, 0
2, 163151, Note_on_c, 0, 57, 0
2, 163151, Note_on_c, 0, 60, 0
2, 163200, Note_on_c, 0, 50, 80
2, 163200, Note_on_c, 0, 55, 80
2, 163200, Note_on_c, 0, 59, 80
2, 165023, Note_on_c, 0, 50, 0
2, 165023, Note_on_c, 0, 55, 0
2, 165023, Note_on_c, 0, 59, 0
2, 165120, Note_on_c, 0, 50, 80
2, 165120, Note_on_c, 0, 54, 80
2, 165120, Note_on_c, 0, 59, 80
2, 166943, Note_on_c, 0, 50, 0
2, 166943, Note_on_c, 0, 54, 0
2, 166943, Note_on_c, 0, 59, 0
2, 167040, Note_on_c, 0, 52, 80
2, 167040, Note_on_c, 0, 55, 80
2, 167040, Note_on_c, 0, 59, 80
2, 168863, Note_on_c, 0, 52, 0
2, 168863, Note_on_c, 0, 55, 0
2, 168863, Note_on_c, 0, 59, 0
2, 168960, Note_on_c, 0, 52, 80
2, 168960, Note_on_c, 0, 55, 80
2, 168960, Note_on_c, 0, 60, 80
2, 169871, Note_on_c, 0, 52, 0
2, 169871, Note_on_c, 0, 55, 0
2, 169871, Note_on_c, 0, 60, 0
2, 169920, Note_on_c, 0, 54, 80
2, 169920, Note_on_c, 0, 57, 80
2, 169920, Note_on_c, 0, 60, 80
2, 170831, Note_on_c, 0, 54, 0
2, 170831, Note_on_c, 0, 57, 0
2, 170831, Note_on_c, 0, 60, 0
2, 170880, Note_on_c, 0, 50, 80
2, 170880, Note_on_c, 0, 55, 80
2, 170880, Note_on_c, 0, 59, 80
2, 172703, Note_on_c, 0, 50, 0
2, 172703, Note_on_c, 0, 55, 0
2, 172703, Note_on_c, 0, 59, 0
2, 172800, Note_on_c, 0, 50, 80
2, 172800, Note_on_c, 0, 54, 80
2, 172800, Note_on_c, 0, 59, 80
2, 174623, Note_on_c, 0, 50, 0
2, 174623, Note_on_c, 0, 54, 0
2, 174623, Note_on_c, 0, 59, 0
2, 174720, Note_on_c, 0, 52, 80
2, 174720, Note_on_c, 0, 55, 80
2, 174720, Note_on_c, 0, 59, 80
2, 176543, Note_on_c, 0, 52, 0
2, 176543, Note_on_c, 0, 55, 0
2, 176543, Note_on_c, 0, 59, 0
2, 176640, Note_on_c, 0, 52, 80
2, 176640, Note_on_c, 0, 55, 80
2, 176640, Note_on_c, 0, 60, 80
2, 177551, Note_on_c, 0, 52, 0
2, 177551, Note_on_c, 0, 55, 0
2, 177551, Note_on_c, 0, 60, 0
2, 177600, Note_on_c, 0, 54, 80
2, 177600, Note_on_c, 0, 57, 80
2, 177600, Note_on_c, 0, 60, 80
2, 178511, Note_on_c, 0, 54, 0
2, 178511, Note_on_c, 0, 57, 0
2, 178511, Note_on_c, 0, 60, 0
2, 178560, Note_on_c, 0, 50, 80
2, 178560, Note_on_c, 0, 55, 80
2, 178560, Note_on_c, 0, 59, 80
2, 180383, Note_on_c, 0, 50, 0
2, 180383, Note_on_c, 0, 55, 0
2, 180383, Note_on_c, 0, 59, 0
2, 180480, Note_on_c, 0, 50, 80
2, 180480, Note_on_c, 0, 55, 80
2, 180480, Note_on_c, 0, 59, 80
2, 182303, Note_on_c, 0, 50, 0
2, 182303, Note_on_c, 0, 55, 0
2, 182303, Note_on_c, 0, 59, 0
2, 182400, Note_on_c, 0, 50, 80
2, 182400, Note_on_c, 0, 55, 80
2, 182400, Note_on_c, 0, 59, 80
2, 184223, Note_on_c, 0, 50, 0
2, 184223, Note_on_c, 0, 55, 0
2, 184223, Note_on_c, 0, 59, 0
2, 184320, Note_on_c, 0, 50, 80
2, 184320, Note_on_c, 0, 55, 80
2, 184320, Note_on_c, 0, 59, 80
2, 186143, Note_on_c, 0, 50, 0
2, 186143, Note_on_c, 0, 55, 0
2, 186143, Note_on_c, 0, 59, 0
2, 186240, Note_on_c, 0, 52, 80
2, 186240, Note_on_c, 0, 55, 80
2, 186240, Note_on_c, 0, 59, 80
2, 188063, Note_on_c, 0, 52, 0
2, 188063, Note_on_c, 0, 55, 0
2, 188063, Note_on_c, 0, 59, 0
2, 188160, Note_on_c, 0, 50, 80
2, 188160, Note_on_c, 0, 54, 80
2, 188160, Note_on_c, 0, 57, 80
2, 189983, Note_on_c, 0, 50, 0
2, 189983, Note_on_c, 0, 54, 0
2, 189983, Note_on_c, 0, 57, 0
2, 190080, Note_on_c, 0, 50, 80
2, 190080, Note_on_c, 0, 55, 80
2, 190080, Note_on_c, 0, 59, 80
2, 191903, Note_on_c, 0, 50, 0
2, 191903, Note_on_c, 0, 55, 0
2, 191903, Note_on_c, 0, 59, 0
2, 192000, Note_on_c, 0, 50, 80
2, 192000, Note_on_c, 0, 54, 80
2, 192000, Note_on_c, 0, 59, 80
2, 193823, Note_on_c, 0, 50, 0
2, 193823, Note_on_c, 0, 54, 0
2, 193823, Note_on_c, 0, 59, 0
2, 193920, Note_on_c, 0, 52, 80
2, 193920, Note_on_c, 0, 55, 80
2, 193920, Note_on_c, 0, 59, 80
2, 195743, Note_on_c, 0, 52, 0
2, 195743, Note_on_c, 0, 55, 0
2, 195743, Note_on_c, 0, 59, 0
2, 195840, Note_on_c, 0, 52, 80
2, 195840, Note_on_c, 0, 55, 80
2, 195840, Note_on_c, 0, 60, 80
2, 196751, Note_on_c, 0, 52, 0
2, 196751, Note_on_c, 0, 55, 0
2, 196751, Note_on_c, 0, 60, 0
2, 196800, Note_on_c, 0, 54, 80
2, 196800, Note_on_c, 0, 57, 80
2, 196800, Note_on_c, 0, 60, 80
2, 197711, Note_on_c, 0, 54, 0
2, 197711, Note_on_c, 0, 57, 0
2, 197711, Note_on_c, 0, 60, 0
2, 197760, Note_on_c, 0, 50, 80
2, 197760, Note_on_c, 0, 55, 80
2, 197760, Note_on_c, 0, 59, 80
2, 199583, Note_on_c, 0, 50, 0
2, 199583, Note_on_c, 0, 55, 0
2, 199583, Note_on_c, 0, 59, 0
1, 0, Note_on_c, 0, 72, 80
1, 30, Note_on_c, 0, 68, 80
1, 63, Note_on_c, 0, 65, 80
1, 96, Note_on_c, 0, 60, 80
1, 3742, Note_on_c, 0, 65, 0
1, 3742, Note_on_c, 0, 68, 0
1, 3743, Note_on_c, 0, 60, 0
1, 3743, Note_on_c, 0, 72, 0
1, 3840, Note_on_c, 0, 65, 80
1, 4295, Note_on_c, 0, 65, 0
1, 4320, Note_on_c, 0, 65, 80
1, 4775, Note_on_c, 0, 65, 0
1, 4800, Note_on_c, 0, 63, 80
1, 5027, Note_on_c, 0, 63, 0
1, 5040, Note_on_c, 0, 65, 80
1, 5495, Note_on_c, 0, 65, 0
1, 5520, Note_on_c, 0, 68, 80
1, 5975, Note_on_c, 0, 68, 0
1, 6000, Note_on_c, 0, 65, 80
1, 6455, Note_on_c, 0, 65, 0
1, 6480, Note_on_c, 0, 63, 80
1, 6935, Note_on_c, 0, 63, 0
1, 6960, Note_on_c, 0, 60, 80
1, 6960, Note_on_c, 0, 65, 80
1, 7187, Note_on_c, 0, 60, 0
1, 7187, Note_on_c, 0, 65, 0
1, 7200, Note_on_c, 0, 63, 80
1, 7200, Note_on_c, 0, 68, 80
1, 7427, Note_on_c, 0, 63, 0
1, 7427, Note_on_c, 0, 68, 0
1, 7440, Note_on_c, 0, 65, 80
1, 7440, Note_on_c, 0, 70, 80
1, 7667, Note_on_c, 0, 65, 0
1, 7667, Note_on_c, 0, 70, 0
1, 7680, Note_on_c, 0, 65, 80
1, 7680, Note_on_c, 0, 71, 80
1, 8135, Note_on_c, 0, 65, 0
1, 8135, Note_on_c, 0, 71, 0
1, 8160, Note_on_c, 0, 65, 80
1, 8160, Note_on_c, 0, 71, 80
1, 8615, Note_on_c, 0, 65, 0
1, 8615, Note_on_c, 0, 71, 0
1, 8640, Note_on_c, 0, 64, 80
1, 8640, Note_on_c, 0, 70, 80
1, 8867, Note_on_c, 0, 64, 0
1, 8867, Note_on_c, 0, 70, 0
1, 8880, Note_on_c, 0, 63, 80
1, 8880, Note_on_c, 0, 68, 80
1, 9335, Note_on_c, 0, 63, 0
1, 9335, Note_on_c, 0, 68, 0
1, 9360, Note_on_c, 0, 60, 80
1, 9360, Note_on_c, 0, 65, 80
1, 10043, Note_on_c, 0, 60, 0
1, 10043, Note_on_c, 0, 65, 0
1, 10080, Note_on_c, 0, 63, 80
1, 10080, Note_on_c, 0, 67, 80
1, 10080, Note_on_c, 0, 70, 80
1, 10080, Note_on_c, 0, 75, 80
1, 11447, Note_on_c, 0, 63, 0
1, 11447, Note_on_c, 0, 67, 0
1, 11447, Note_on_c, 0, 70, 0
1, 11447, Note_on_c, 0, 75, 0
1, 11520, Note_on_c, 0, 69, 80
1, 11520, Note_on_c, 0, 77, 80
1, 11823, Note_on_c, 0, 69, 0
1, 11823, Note_on_c, 0, 77, 0
1, 11840, Note_on_c, 0, 67, 80
1, 11840, Note_on_c, 0, 76, 80
1, 12143, Note_on_c, 0, 67, 0
1, 12143, Note_on_c, 0, 76, 0
1, 12160, Note_on_c, 0, 65, 80
1, 12160, Note_on_c, 0, 74, 80
1, 12463, Note_on_c, 0, 65, 0
1, 12463, Note_on_c, 0, 74, 0
1, 12480, Note_on_c, 0, 64, 80
1, 12480, Note_on_c, 0, 72, 80
1, 14303, Note_on_c, 0, 64, 0
1, 14303, Note_on_c, 0, 72, 0
1, 14640, Note_on_c, 0, 65, 80
1, 14640, Note_on_c, 0, 70, 80
1, 14867, Note_on_c, 0, 65, 0
1, 14867, Note_on_c, 0, 70, 0
1, 14880, Note_on_c, 0, 65, 80
1, 14880, Note_on_c, 0, 69, 80
1, 15107, Note_on_c, 0, 65, 0
1, 15107, Note_on_c, 0, 69, 0
1, 15120, Note_on_c, 0, 65, 80
1, 15120, Note_on_c, 0, 70, 80
1, 15347, Note_on_c, 0, 65, 0
1, 15347, Note_on_c, 0, 70, 0
1, 15360, Note_on_c, 0, 65, 80
1, 15360, Note_on_c, 0, 77, 80
1, 15663, Note_on_c, 0, 65, 0
1, 15663, Note_on_c, 0, 77, 0
1, 15680, Note_on_c, 0, 64, 80
1, 15680, Note_on_c, 0, 76, 80
1, 15983, Note_on_c, 0, 64, 0
1, 15983, Note_on_c, 0, 76, 0
1, 16000, Note_on_c, 0, 65, 80
1, 16000, Note_on_c, 0, 77, 80
1, 16303, Note_on_c, 0, 65, 0
1, 16303, Note_on_c, 0, 77, 0
1, 16320, Note_on_c, 0, 65, 80
1, 16320, Note_on_c, 0, 77, 80
1, 17687, Note_on_c, 0, 65, 0
1, 17687, Note_on_c, 0, 77, 0
1, 18000, Note_on_c, 0, 72, 80
1, 18000, Note_on_c, 0, 77, 80
1, 18455, Note_on_c, 0, 72, 0
1, 18455, Note_on_c, 0, 77, 0
1, 18480, Note_on_c, 0, 70, 80
1, 18480, Note_on_c, 0, 79, 80
1, 18707, Note_on_c, 0, 70, 0
1, 18707, Note_on_c, 0, 79, 0
1, 18720, Note_on_c, 0, 69, 80
1, 18720, Note_on_c, 0, 81, 80
1, 18947, Note_on_c, 0, 69, 0
1, 18947, Note_on_c, 0, 81, 0
1, 18960, Note_on_c, 0, 67, 80
1, 18960, Note_on_c, 0, 79, 80
1, 19187, Note_on_c, 0, 67, 0
1, 19187, Note_on_c, 0, 79, 0
1, 19200, Note_on_c, 0, 65, 80
1, 19200, Note_on_c, 0, 69, 80
1, 19200, Note_on_c, 0, 77, 80
1, 19503, Note_on_c, 0, 65, 0
1, 19503, Note_on_c, 0, 69, 0
1, 19503, Note_on_c, 0, 77, 0
1, 19520, Note_on_c, 0, 64, 80
1, 19520, Note_on_c, 0, 67, 80
1, 19520, Note_on_c, 0, 76, 80
1, 19823, Note_on_c, 0, 64, 0
1, 19823, Note_on_c, 0, 67, 0
1, 19823, Note_on_c, 0, 76, 0
1, 19840, Note_on_c, 0, 62, 80
1, 19840, Note_on_c, 0, 65, 80
1, 19840, Note_on_c, 0, 74, 80
1, 20143, Note_on_c, 0, 62, 0
1, 20143, Note_on_c, 0, 65, 0
1, 20143, Note_on_c, 0, 74, 0
1, 20160, Note_on_c, 0, 60, 80
1, 20160, Note_on_c, 0, 64, 80
1, 20160, Note_on_c, 0, 72, 80
1, 21983, Note_on_c, 0, 60, 0
1, 21983, Note_on_c, 0, 64, 0
1, 21983, Note_on_c, 0, 72, 0
1, 22080, Note_on_c, 0, 67, 80
1, 22080, Note_on_c, 0, 70, 80
1, 22080, Note_on_c, 0, 79, 80
1, 22991, Note_on_c, 0, 67, 0
1, 22991, Note_on_c, 0, 70, 0
1, 22991, Note_on_c, 0, 79, 0
1, 23040, Note_on_c, 0, 65, 80
1, 23040, Note_on_c, 0, 69, 80
1, 23040, Note_on_c, 0, 72, 80
1, 23040, Note_on_c, 0, 77, 80
1, 24863, Note_on_c, 0, 65, 0
1, 24863, Note_on_c, 0, 69, 0
1, 24863, Note_on_c, 0, 72, 0
1, 24863, Note_on_c, 0, 77, 0
1, 24960, Note_on_c, 0, 62, 80
1, 24960, Note_on_c, 0, 70, 80
1, 25263, Note_on_c, 0, 62, 0
1, 25263, Note_on_c, 0, 70, 0
1, 25280, Note_on_c, 0, 60, 80
1, 25280, Note_on_c, 0, 69, 80
1, 25583, Note_on_c, 0, 60, 0
1, 25583, Note_on_c, 0, 69, 0
1, 25600, Note_on_c, 0, 62, 80
1, 25600, Note_on_c, 0, 70, 80
1, 25903, Note_on_c, 0, 62, 0
1, 25903, Note_on_c, 0, 70, 0
1, 25920, Note_on_c, 0, 64, 80
1, 25920, Note_on_c, 0, 72, 80
1, 26831, Note_on_c, 0, 64, 0
1, 26831, Note_on_c, 0, 72, 0
1, 26880, Note_on_c, 0, 65, 80
1, 27335, Note_on_c, 0, 65, 0
1, 27360, Note_on_c, 0, 64, 80
1, 27815, Note_on_c, 0, 64, 0
1, 27840, Note_on_c, 0, 65, 80
1, 28067, Note_on_c, 0, 65, 0
1, 28080, Note_on_c, 0, 64, 80
1, 28307, Note_on_c, 0, 64, 0
1, 28560, Note_on_c, 0, 60, 80
1, 29243, Note_on_c, 0, 60, 0
1, 29760, Note_on_c, 0, 57, 80
1, 29987, Note_on_c, 0, 57, 0
1, 30000, Note_on_c, 0, 58, 80
1, 30227, Note_on_c, 0, 58, 0
1, 30240, Note_on_c, 0, 60, 80
1, 30695, Note_on_c, 0, 60, 0
1, 30720, Note_on_c, 0, 65, 80
1, 31175, Note_on_c, 0, 65, 0
1, 31200, Note_on_c, 0, 67, 80
1, 31655, Note_on_c, 0, 67, 0
1, 31680, Note_on_c, 0, 69, 80
1, 32135, Note_on_c, 0, 69, 0
1, 32400, Note_on_c, 0, 65, 80
1, 32627, Note_on_c, 0, 65, 0
1, 32640, Note_on_c, 0, 72, 80
1, 32867, Note_on_c, 0, 72, 0
1, 32880, Note_on_c, 0, 70, 80
1, 33335, Note_on_c, 0, 70, 0
1, 33360, Note_on_c, 0, 69, 80
1, 33815, Note_on_c, 0, 69, 0
1, 33840, Note_on_c, 0, 67, 80
1, 34523, Note_on_c, 0, 67, 0
1, 34560, Note_on_c, 0, 65, 80
1, 35280, Note_on_c, 0, 77, 80
1, 35471, Note_on_c, 0, 65, 0
1, 35507, Note_on_c, 0, 77, 0
1, 35520, Note_on_c, 0, 84, 80
1, 35747, Note_on_c, 0, 84, 0
1, 35760, Note_on_c, 0, 82, 80
1, 36215, Note_on_c, 0, 82, 0
1, 36240, Note_on_c, 0, 81, 80
1, 36695, Note_on_c, 0, 81, 0
1, 36720, Note_on_c, 0, 82, 80
1, 36833, Note_on_c, 0, 82, 0
1, 36840, Note_on_c, 0, 81, 80
1, 36953, Note_on_c, 0, 81, 0
1, 36960, Note_on_c, 0, 79, 80
1, 37187, Note_on_c, 0, 79, 0
1, 37200, Note_on_c, 0, 77, 80
1, 37655, Note_on_c, 0, 77, 0
1, 37680, Note_on_c, 0, 62, 80
1, 37907, Note_on_c, 0, 62, 0
1, 37920, Note_on_c, 0, 62, 80
1, 38147, Note_on_c, 0, 62, 0
1, 38160, Note_on_c, 0, 64, 80
1, 38387, Note_on_c, 0, 64, 0
1, 38400, Note_on_c, 0, 58, 80
1, 38400, Note_on_c, 0, 62, 80
1, 38400, Note_on_c, 0, 65, 80
1, 39083, Note_on_c, 0, 58, 0
1, 39083, Note_on_c, 0, 62, 0
1, 39083, Note_on_c, 0, 65, 0
1, 39120, Note_on_c, 0, 58, 80
1, 39120, Note_on_c, 0, 62, 80
1, 39347, Note_on_c, 0, 58, 0
1, 39347, Note_on_c, 0, 62, 0
1, 39360, Note_on_c, 0, 58, 80
1, 39360, Note_on_c, 0, 62, 80
1, 39360, Note_on_c, 0, 65, 80
1, 40043, Note_on_c, 0, 58, 0
1, 40043, Note_on_c, 0, 62, 0
1, 40043, Note_on_c, 0, 65, 0
1, 40080, Note_on_c, 0, 58, 80
1, 40080, Note_on_c, 0, 62, 80
1, 40307, Note_on_c, 0, 58, 0
1, 40307, Note_on_c, 0, 62, 0
1, 40320, Note_on_c, 0, 56, 80
1, 40320, Note_on_c, 0, 61, 80
1, 40320, Note_on_c, 0, 65, 80
1, 40775, Note_on_c, 0, 56, 0
1, 40775, Note_on_c, 0, 61, 0
1, 40775, Note_on_c, 0, 65, 0
1, 40800, Note_on_c, 0, 58, 80
1, 40800, Note_on_c, 0, 63, 80
1, 40800, Note_on_c, 0, 67, 80
1, 41255, Note_on_c, 0, 58, 0
1, 41255, Note_on_c, 0, 63, 0
1, 41255, Note_on_c, 0, 67, 0
1, 41280, Note_on_c, 0, 58, 80
1, 41280, Note_on_c, 0, 63, 80
1, 41280, Note_on_c, 0, 67, 80
1, 42191, Note_on_c, 0, 58, 0
1, 42191, Note_on_c, 0, 63, 0
1, 42191, Note_on_c, 0, 67, 0
1, 42240, Note_on_c, 0, 65, 80
1, 42240, Note_on_c, 0, 69, 80
1, 42240, Note_on_c, 0, 77, 80
1, 42695, Note_on_c, 0, 65, 0
1, 42695, Note_on_c, 0, 69, 0
1, 42695, Note_on_c, 0, 77, 0
1, 42720, Note_on_c, 0, 64, 80
1, 42720, Note_on_c, 0, 67, 80
1, 42720, Note_on_c, 0, 76, 80
1, 43175, Note_on_c, 0, 64, 0
1, 43175, Note_on_c, 0, 67, 0
1, 43175, Note_on_c, 0, 76, 0
1, 43200, Note_on_c, 0, 65, 80
1, 43200, Note_on_c, 0, 69, 80
1, 43200, Note_on_c, 0, 77, 80
1, 43427, Note_on_c, 0, 65, 0
1, 43427, Note_on_c, 0, 69, 0
1, 43427, Note_on_c, 0, 77, 0
1, 43440, Note_on_c, 0, 67, 80
1, 43440, Note_on_c, 0, 70, 80
1, 43440, Note_on_c, 0, 76, 80
1, 43667, Note_on_c, 0, 67, 0
1, 43667, Note_on_c, 0, 70, 0
1, 43667, Note_on_c, 0, 76, 0
1, 43920, Note_on_c, 0, 65, 80
1, 43920, Note_on_c, 0, 69, 80
1, 43920, Note_on_c, 0, 72, 80
1, 44603, Note_on_c, 0, 65, 0
1, 44603, Note_on_c, 0, 69, 0
1, 44603, Note_on_c, 0, 72, 0
1, 45120, Note_on_c, 0, 65, 80
1, 45120, Note_on_c, 0, 69, 80
1, 45347, Note_on_c, 0, 65, 0
1, 45347, Note_on_c, 0, 69, 0
1, 45360, Note_on_c, 0, 70, 80
1, 45587, Note_on_c, 0, 70, 0
1, 45600, Note_on_c, 0, 65, 80
1, 45600, Note_on_c, 0, 72, 80
1, 46055, Note_on_c, 0, 65, 0
1, 46055, Note_on_c, 0, 72, 0
1, 46080, Note_on_c, 0, 65, 80
1, 46080, Note_on_c, 0, 69, 80
1, 46080, Note_on_c, 0, 72, 80
1, 46080, Note_on_c, 0, 77, 80
1, 46535, Note_on_c, 0, 65, 0
1, 46535, Note_on_c, 0, 69, 0
1, 46535, Note_on_c, 0, 72, 0
1, 46535, Note_on_c, 0, 77, 0
1, 46560, Note_on_c, 0, 67, 80
1, 46560, Note_on_c, 0, 69, 80
1, 46560, Note_on_c, 0, 72, 80
1, 46560, Note_on_c, 0, 79, 80
1, 47015, Note_on_c, 0, 67, 0
1, 47015, Note_on_c, 0, 69, 0
1, 47015, Note_on_c, 0, 72, 0
1, 47015, Note_on_c, 0, 79, 0
1, 47040, Note_on_c, 0, 69, 80
1, 47040, Note_on_c, 0, 72, 80
1, 47040, Note_on_c, 0, 77, 80
1, 47040, Note_on_c, 0, 81, 80
1, 47495, Note_on_c, 0, 69, 0
1, 47495, Note_on_c, 0, 72, 0
1, 47495, Note_on_c, 0, 77, 0
1, 47495, Note_on_c, 0, 81, 0
1, 47760, Note_on_c, 0, 69, 80
1, 47760, Note_on_c, 0, 72, 80
1, 47760, Note_on_c, 0, 77, 80
1, 47987, Note_on_c, 0, 69, 0
1, 47987, Note_on_c, 0, 72, 0
1, 47987, Note_on_c, 0, 77, 0
1, 48000, Note_on_c, 0, 76, 80
1, 48000, Note_on_c, 0, 77, 80
1, 48000, Note_on_c, 0, 84, 80
1, 48227, Note_on_c, 0, 76, 0
1, 48227, Note_on_c, 0, 77, 0
1, 48227, Note_on_c, 0, 84, 0
1, 48240, Note_on_c, 0, 74, 80
1, 48240, Note_on_c, 0, 77, 80
1, 48240, Note_on_c, 0, 82, 80
1, 48695, Note_on_c, 0, 74, 0
1, 48695, Note_on_c, 0, 77, 0
1, 48695, Note_on_c, 0, 82, 0
1, 48720, Note_on_c, 0, 72, 80
1, 48720, Note_on_c, 0, 77, 80
1, 48720, Note_on_c, 0, 81, 80
1, 49175, Note_on_c, 0, 72, 0
1, 49175, Note_on_c, 0, 77, 0
1, 49175, Note_on_c, 0, 81, 0
1, 49200, Note_on_c, 0, 70, 80
1, 49200, Note_on_c, 0, 77, 80
1, 49200, Note_on_c, 0, 79, 80
1, 49883, Note_on_c, 0, 70, 0
1, 49883, Note_on_c, 0, 77, 0
1, 49883, Note_on_c, 0, 79, 0
1, 49920, Note_on_c, 0, 77, 80
1, 49920, Note_on_c, 0, 65, 80
1, 49920, Note_on_c, 0, 72, 80
1, 50147, Note_on_c, 0, 65, 0
1, 50147, Note_on_c, 0, 72, 0
1, 50160, Note_on_c, 0, 65, 80
1, 50160, Note_on_c, 0, 70, 80
1, 50615, Note_on_c, 0, 65, 0
1, 50615, Note_on_c, 0, 70, 0
1, 50640, Note_on_c, 0, 65, 80
1, 50640, Note_on_c, 0, 69, 80
1, 50831, Note_on_c, 0, 77, 0
1, 51095, Note_on_c, 0, 65, 0
1, 51095, Note_on_c, 0, 69, 0
1, 51120, Note_on_c, 0, 65, 80
1, 51120, Note_on_c, 0, 67, 80
1, 51575, Note_on_c, 0, 65, 0
1, 51575, Note_on_c, 0, 67, 0
1, 51600, Note_on_c, 0, 62, 80
1, 51600, Note_on_c, 0, 65, 80
1, 52055, Note_on_c, 0, 62, 0
1, 52055, Note_on_c, 0, 65, 0
1, 52080, Note_on_c, 0, 62, 80
1, 52080, Note_on_c, 0, 65, 80
1, 52307, Note_on_c, 0, 62, 0
1, 52307, Note_on_c, 0, 65, 0
1, 52320, Note_on_c, 0, 64, 80
1, 52320, Note_on_c, 0, 67, 80
1, 52547, Note_on_c, 0, 64, 0
1, 52547, Note_on_c, 0, 67, 0
1, 52560, Note_on_c, 0, 65, 80
1, 52560, Note_on_c, 0, 69, 80
1, 52787, Note_on_c, 0, 65, 0
1, 52787, Note_on_c, 0, 69, 0
1, 52800, Note_on_c, 0, 74, 80
1, 53255, Note_on_c, 0, 74, 0
1, 53280, Note_on_c, 0, 69, 80
1, 53280, Note_on_c, 0, 74, 80
1, 53280, Note_on_c, 0, 81, 80
1, 53735, Note_on_c, 0, 69, 0
1, 53735, Note_on_c, 0, 74, 0
1, 53735, Note_on_c, 0, 81, 0
1, 53760, Note_on_c, 0, 67, 80
1, 53760, Note_on_c, 0, 72, 80
1, 53760, Note_on_c, 0, 76, 80
1, 53760, Note_on_c, 0, 79, 80
1, 54671, Note_on_c, 0, 67, 0
1, 54671, Note_on_c, 0, 72, 0
1, 54671, Note_on_c, 0, 76, 0
1, 54671, Note_on_c, 0, 79, 0
1, 54720, Note_on_c, 0, 65, 80
1, 54720, Note_on_c, 0, 72, 80
1, 54720, Note_on_c, 0, 74, 80
1, 54720, Note_on_c, 0, 77, 80
1, 55631, Note_on_c, 0, 65, 0
1, 55631, Note_on_c, 0, 72, 0
1, 55631, Note_on_c, 0, 74, 0
1, 55631, Note_on_c, 0, 77, 0
1, 55680, Note_on_c, 0, 64, 80
1, 55680, Note_on_c, 0, 69, 80
1, 55680, Note_on_c, 0, 73, 80
1, 55680, Note_on_c, 0, 76, 80
1, 56591, Note_on_c, 0, 64, 0
1, 56591, Note_on_c, 0, 69, 0
1, 56591, Note_on_c, 0, 73, 0
1, 56591, Note_on_c, 0, 76, 0
1, 56640, Note_on_c, 0, 64, 80
1, 56640, Note_on_c, 0, 67, 80
1, 56640, Note_on_c, 0, 69, 80
1, 56640, Note_on_c, 0, 73, 80
1, 57551, Note_on_c, 0, 64, 0
1, 57551, Note_on_c, 0, 67, 0
1, 57551, Note_on_c, 0, 69, 0
1, 57551, Note_on_c, 0, 73, 0
1, 58560, Note_on_c, 0, 69, 80
1, 58560, Note_on_c, 0, 74, 80
1, 58560, Note_on_c, 0, 77, 80
1, 58560, Note_on_c, 0, 81, 80
1, 59471, Note_on_c, 0, 69, 0
1, 59471, Note_on_c, 0, 74, 0
1, 59471, Note_on_c, 0, 77, 0
1, 59471, Note_on_c, 0, 81, 0
1, 59520, Note_on_c, 0, 67, 80
1, 59520, Note_on_c, 0, 74, 80
1, 59520, Note_on_c, 0, 76, 80
1, 59520, Note_on_c, 0, 79, 80
1, 60431, Note_on_c, 0, 67, 0
1, 60431, Note_on_c, 0, 74, 0
1, 60431, Note_on_c, 0, 76, 0
1, 60431, Note_on_c, 0, 79, 0
1, 60480, Note_on_c, 0, 65, 80
1, 60480, Note_on_c, 0, 69, 80
1, 60480, Note_on_c, 0, 74, 80
1, 60480, Note_on_c, 0, 77, 80
1, 61391, Note_on_c, 0, 65, 0
1, 61391, Note_on_c, 0, 69, 0
1, 61391, Note_on_c, 0, 74, 0
1, 61391, Note_on_c, 0, 77, 0
1, 61440, Note_on_c, 0, 67, 80
1, 61440, Note_on_c, 0, 72, 80
1, 61440, Note_on_c, 0, 76, 80
1, 61440, Note_on_c, 0, 79, 80
1, 62160, Note_on_c, 0, 60, 80
1, 62615, Note_on_c, 0, 60, 0
1, 62640, Note_on_c, 0, 60, 80
1, 62867, Note_on_c, 0, 60, 0
1, 62880, Note_on_c, 0, 60, 80
1, 63107, Note_on_c, 0, 60, 0
1, 63120, Note_on_c, 0, 60, 80
1, 63263, Note_on_c, 0, 67, 0
1, 63263, Note_on_c, 0, 72, 0
1, 63263, Note_on_c, 0, 76, 0
1, 63263, Note_on_c, 0, 79, 0
1, 63347, Note_on_c, 0, 60, 0
1, 63360, Note_on_c, 0, 60, 80
1, 63587, Note_on_c, 0, 60, 0
1, 63600, Note_on_c, 0, 60, 80
1, 63827, Note_on_c, 0, 60, 0
1, 63840, Note_on_c, 0, 62, 80
1, 64067, Note_on_c, 0, 62, 0
1, 64080, Note_on_c, 0, 64, 80
1, 65219, Note_on_c, 0, 64, 0
1, 66240, Note_on_c, 0, 69, 80
1, 66240, Note_on_c, 0, 74, 80
1, 66240, Note_on_c, 0, 77, 80
1, 66240, Note_on_c, 0, 81, 80
1, 67151, Note_on_c, 0, 69, 0
1, 67151, Note_on_c, 0, 74, 0
1, 67151, Note_on_c, 0, 77, 0
1, 67151, Note_on_c, 0, 81, 0
1, 67200, Note_on_c, 0, 67, 80
1, 67200, Note_on_c, 0, 74, 80
1, 67200, Note_on_c, 0, 76, 80
1, 67200, Note_on_c, 0, 79, 80
1, 68111, Note_on_c, 0, 67, 0
1, 68111, Note_on_c, 0, 74, 0
1, 68111, Note_on_c, 0, 76, 0
1, 68111, Note_on_c, 0, 79, 0
1, 68160, Note_on_c, 0, 65, 80
1, 68160, Note_on_c, 0, 69, 80
1, 68160, Note_on_c, 0, 74, 80
1, 68160, Note_on_c, 0, 77, 80
1, 69071, Note_on_c, 0, 65, 0
1, 69071, Note_on_c, 0, 69, 0
1, 69071, Note_on_c, 0, 74, 0
1, 69071, Note_on_c, 0, 77, 0
1, 69120, Note_on_c, 0, 67, 80
1, 69120, Note_on_c, 0, 72, 80
1, 69120, Note_on_c, 0, 76, 80
1, 69120, Note_on_c, 0, 79, 80
1, 69840, Note_on_c, 0, 64, 80
1, 70295, Note_on_c, 0, 64, 0
1, 70320, Note_on_c, 0, 64, 80
1, 70547, Note_on_c, 0, 64, 0
1, 70560, Note_on_c, 0, 64, 80
1, 70787, Note_on_c, 0, 64, 0
1, 70800, Note_on_c, 0, 64, 80
1, 70943, Note_on_c, 0, 67, 0
1, 70943, Note_on_c, 0, 72, 0
1, 70943, Note_on_c, 0, 76, 0
1, 70943, Note_on_c, 0, 79, 0
1, 71027, Note_on_c, 0, 64, 0
1, 71040, Note_on_c, 0, 64, 80
1, 71267, Note_on_c, 0, 64, 0
1, 71280, Note_on_c, 0, 64, 80
1, 71507, Note_on_c, 0, 64, 0
1, 71520, Note_on_c, 0, 65, 80
1, 71747, Note_on_c, 0, 65, 0
1, 71760, Note_on_c, 0, 67, 80
1, 71987, Note_on_c, 0, 67, 0
1, 72000, Note_on_c, 0, 67, 80
1, 72000, Note_on_c, 0, 79, 80
1, 72227, Note_on_c, 0, 67, 0
1, 72227, Note_on_c, 0, 79, 0
1, 72240, Note_on_c, 0, 69, 80
1, 72240, Note_on_c, 0, 81, 80
1, 72467, Note_on_c, 0, 69, 0
1, 72467, Note_on_c, 0, 81, 0
1, 72480, Note_on_c, 0, 67, 80
1, 72480, Note_on_c, 0, 79, 80
1, 72707, Note_on_c, 0, 67, 0
1, 72707, Note_on_c, 0, 79, 0
1, 72720, Note_on_c, 0, 65, 80
1, 72720, Note_on_c, 0, 77, 80
1, 72947, Note_on_c, 0, 65, 0
1, 72947, Note_on_c, 0, 77, 0
1, 72960, Note_on_c, 0, 62, 80
1, 72960, Note_on_c, 0, 65, 80
1, 72960, Note_on_c, 0, 74, 80
1, 73415, Note_on_c, 0, 62, 0
1, 73415, Note_on_c, 0, 65, 0
1, 73415, Note_on_c, 0, 74, 0
1, 73920, Note_on_c, 0, 67, 80
1, 73920, Note_on_c, 0, 79, 80
1, 74147, Note_on_c, 0, 67, 0
1, 74147, Note_on_c, 0, 79, 0
1, 74160, Note_on_c, 0, 69, 80
1, 74160, Note_on_c, 0, 81, 80
1, 74387, Note_on_c, 0, 69, 0
1, 74387, Note_on_c, 0, 81, 0
1, 74400, Note_on_c, 0, 67, 80
1, 74400, Note_on_c, 0, 79, 80
1, 74627, Note_on_c, 0, 67, 0
1, 74627, Note_on_c, 0, 79, 0
1, 74640, Note_on_c, 0, 65, 80
1, 74640, Note_on_c, 0, 77, 80
1, 74867, Note_on_c, 0, 65, 0
1, 74867, Note_on_c, 0, 77, 0
1, 74880, Note_on_c, 0, 64, 80
1, 74880, Note_on_c, 0, 72, 80
1, 74880, Note_on_c, 0, 76, 80
1, 75335, Note_on_c, 0, 64, 0
1, 75335, Note_on_c, 0, 72, 0
1, 75335, Note_on_c, 0, 76, 0
1, 75360, Note_on_c, 0, 65, 80
1, 75360, Note_on_c, 0, 72, 80
1, 75360, Note_on_c, 0, 77, 80
1, 75815, Note_on_c, 0, 65, 0
1, 75815, Note_on_c, 0, 72, 0
1, 75815, Note_on_c, 0, 77, 0
1, 75840, Note_on_c, 0, 67, 80
1, 75840, Note_on_c, 0, 72, 80
1, 75840, Note_on_c, 0, 79, 80
1, 76295, Note_on_c, 0, 67, 0
1, 76295, Note_on_c, 0, 72, 0
1, 76295, Note_on_c, 0, 79, 0
1, 76320, Note_on_c, 0, 74, 80
1, 76320, Note_on_c, 0, 86, 80
1, 76775, Note_on_c, 0, 74, 0
1, 76775, Note_on_c, 0, 86, 0
1, 76800, Note_on_c, 0, 72, 80
1, 76800, Note_on_c, 0, 77, 80
1, 76800, Note_on_c, 0, 84, 80
1, 78167, Note_on_c, 0, 72, 0
1, 78167, Note_on_c, 0, 77, 0
1, 78167, Note_on_c, 0, 84, 0
1, 78240, Note_on_c, 0, 69, 80
1, 78240, Note_on_c, 0, 72, 80
1, 78240, Note_on_c, 0, 81, 80
1, 78467, Note_on_c, 0, 69, 0
1, 78467, Note_on_c, 0, 72, 0
1, 78467, Note_on_c, 0, 81, 0
1, 78480, Note_on_c, 0, 67, 80
1, 78480, Note_on_c, 0, 72, 80
1, 78480, Note_on_c, 0, 79, 80
1, 78707, Note_on_c, 0, 67, 0
1, 78707, Note_on_c, 0, 72, 0
1, 78707, Note_on_c, 0, 79, 0
1, 78720, Note_on_c, 0, 65, 80
1, 78720, Note_on_c, 0, 72, 80
1, 78720, Note_on_c, 0, 77, 80
1, 79631, Note_on_c, 0, 65, 0
1, 79631, Note_on_c, 0, 72, 0
1, 79631, Note_on_c, 0, 77, 0
1, 79680, Note_on_c, 0, 62, 80
1, 79680, Note_on_c, 0, 74, 80
1, 80135, Note_on_c, 0, 62, 0
1, 80135, Note_on_c, 0, 74, 0
1, 80160, Note_on_c, 0, 64, 80
1, 80160, Note_on_c, 0, 76, 80
1, 80615, Note_on_c, 0, 64, 0
1, 80615, Note_on_c, 0, 76, 0
1, 80640, Note_on_c, 0, 65, 80
1, 80640, Note_on_c, 0, 70, 80
1, 80640, Note_on_c, 0, 74, 80
1, 80640, Note_on_c, 0, 77, 80
1, 80867, Note_on_c, 0, 65, 0
1, 80867, Note_on_c, 0, 70, 0
1, 80867, Note_on_c, 0, 74, 0
1, 80867, Note_on_c, 0, 77, 0
1, 80880, Note_on_c, 0, 65, 80
1, 80880, Note_on_c, 0, 70, 80
1, 80880, Note_on_c, 0, 74, 80
1, 80880, Note_on_c, 0, 77, 80
1, 81107, Note_on_c, 0, 65, 0
1, 81107, Note_on_c, 0, 70, 0
1, 81107, Note_on_c, 0, 74, 0
1, 81107, Note_on_c, 0, 77, 0
1, 81360, Note_on_c, 0, 65, 80
1, 81360, Note_on_c, 0, 70, 80
1, 81360, Note_on_c, 0, 74, 80
1, 81360, Note_on_c, 0, 77, 80
1, 81587, Note_on_c, 0, 65, 0
1, 81587, Note_on_c, 0, 70, 0
1, 81587, Note_on_c, 0, 74, 0
1, 81587, Note_on_c, 0, 77, 0
1, 81840, Note_on_c, 0, 65, 80
1, 81840, Note_on_c, 0, 70, 80
1, 81840, Note_on_c, 0, 74, 80
1, 81840, Note_on_c, 0, 77, 80
1, 82067, Note_on_c, 0, 65, 0
1, 82067, Note_on_c, 0, 70, 0
1, 82067, Note_on_c, 0, 74, 0
1, 82067, Note_on_c, 0, 77, 0
1, 82320, Note_on_c, 0, 65, 80
1, 82320, Note_on_c, 0, 70, 80
1, 82320, Note_on_c, 0, 74, 80
1, 82320, Note_on_c, 0, 77, 80
1, 83003, Note_on_c, 0, 65, 0
1, 83003, Note_on_c, 0, 70, 0
1, 83003, Note_on_c, 0, 74, 0
1, 83003, Note_on_c, 0, 77, 0
1, 83040, Note_on_c, 0, 64, 80
1, 83040, Note_on_c, 0, 76, 80
1, 83495, Note_on_c, 0, 64, 0
1, 83495, Note_on_c, 0, 76, 0
1, 83520, Note_on_c, 0, 65, 80
1, 83520, Note_on_c, 0, 77, 80
1, 83975, Note_on_c, 0, 65, 0
1, 83975, Note_on_c, 0, 77, 0
1, 84000, Note_on_c, 0, 67, 80
1, 84000, Note_on_c, 0, 79, 80
1, 84455, Note_on_c, 0, 67, 0
1, 84455, Note_on_c, 0, 79, 0
1, 84480, Note_on_c, 0, 61, 80
1, 84480, Note_on_c, 0, 64, 80
1, 84480, Note_on_c, 0, 69, 80
1, 84480, Note_on_c, 0, 73, 80
1, 85391, Note_on_c, 0, 61, 0
1, 85391, Note_on_c, 0, 64, 0
1, 85391, Note_on_c, 0, 69, 0
1, 85391, Note_on_c, 0, 73, 0
1, 85440, Note_on_c, 0, 62, 80
1, 85440, Note_on_c, 0, 64, 80
1, 85440, Note_on_c, 0, 69, 80
1, 85440, Note_on_c, 0, 74, 80
1, 86351, Note_on_c, 0, 62, 0
1, 86351, Note_on_c, 0, 64, 0
1, 86351, Note_on_c, 0, 69, 0
1, 86351, Note_on_c, 0, 74, 0
1, 86400, Note_on_c, 0, 64, 80
1, 86400, Note_on_c, 0, 67, 80
1, 86400, Note_on_c, 0, 73, 80
1, 86400, Note_on_c, 0, 76, 80
1, 86640, Note_on_c, 0, 61, 80
1, 86640, Note_on_c, 0, 64, 80
1, 86640, Note_on_c, 0, 67, 80
1, 86867, Note_on_c, 0, 61, 0
1, 86867, Note_on_c, 0, 64, 0
1, 86867, Note_on_c, 0, 67, 0
1, 86880, Note_on_c, 0, 61, 80
1, 86880, Note_on_c, 0, 64, 80
1, 86880, Note_on_c, 0, 67, 80
1, 87107, Note_on_c, 0, 61, 0
1, 87107, Note_on_c, 0, 64, 0
1, 87107, Note_on_c, 0, 67, 0
1, 87360, Note_on_c, 0, 64, 80
1, 87360, Note_on_c, 0, 67, 80
1, 87360, Note_on_c, 0, 73, 80
1, 87587, Note_on_c, 0, 64, 0
1, 87587, Note_on_c, 0, 67, 0
1, 87587, Note_on_c, 0, 73, 0
1, 87600, Note_on_c, 0, 64, 80
1, 87600, Note_on_c, 0, 67, 80
1, 87600, Note_on_c, 0, 73, 80
1, 87827, Note_on_c, 0, 64, 0
1, 87827, Note_on_c, 0, 67, 0
1, 87827, Note_on_c, 0, 73, 0
1, 88080, Note_on_c, 0, 67, 80
1, 88080, Note_on_c, 0, 69, 80
1, 88080, Note_on_c, 0, 73, 80
1, 88080, Note_on_c, 0, 76, 80
1, 88223, Note_on_c, 0, 64, 0
1, 88223, Note_on_c, 0, 67, 0
1, 88223, Note_on_c, 0, 73, 0
1, 88223, Note_on_c, 0, 76, 0
1, 88307, Note_on_c, 0, 67, 0
1, 88307, Note_on_c, 0, 69, 0
1, 88307, Note_on_c, 0, 73, 0
1, 88307, Note_on_c, 0, 76, 0
1, 88320, Note_on_c, 0, 67, 80
1, 88320, Note_on_c, 0, 69, 80
1, 88320, Note_on_c, 0, 73, 80
1, 88320, Note_on_c, 0, 76, 80
1, 88547, Note_on_c, 0, 67, 0
1, 88547, Note_on_c, 0, 69, 0
1, 88547, Note_on_c, 0, 73, 0
1, 88547, Note_on_c, 0, 76, 0
1, 88800, Note_on_c, 0, 76, 80
1, 88800, Note_on_c, 0, 79, 80
1, 88800, Note_on_c, 0, 81, 80
1, 88800, Note_on_c, 0, 85, 80
1, 89027, Note_on_c, 0, 76, 0
1, 89027, Note_on_c, 0, 79, 0
1, 89027, Note_on_c, 0, 81, 0
1, 89027, Note_on_c, 0, 85, 0
1, 89040, Note_on_c, 0, 76, 80
1, 89040, Note_on_c, 0, 79, 80
1, 89040, Note_on_c, 0, 81, 80
1, 89040, Note_on_c, 0, 85, 80
1, 89267, Note_on_c, 0, 76, 0
1, 89267, Note_on_c, 0, 79, 0
1, 89267, Note_on_c, 0, 81, 0
1, 89267, Note_on_c, 0, 85, 0
1, 89520, Note_on_c, 0, 81, 80
1, 89520, Note_on_c, 0, 93, 80
1, 90203, Note_on_c, 0, 81, 0
1, 90203, Note_on_c, 0, 93, 0
1, 90240, Note_on_c, 0, 62, 80
1, 90240, Note_on_c, 0, 74, 80
1, 90695, Note_on_c, 0, 62, 0
1, 90695, Note_on_c, 0, 74, 0
1, 90720, Note_on_c, 0, 74, 80
1, 90720, Note_on_c, 0, 86, 80
1, 91175, Note_on_c, 0, 74, 0
1, 91175, Note_on_c, 0, 86, 0
1, 91200, Note_on_c, 0, 72, 80
1, 91200, Note_on_c, 0, 76, 80
1, 91200, Note_on_c, 0, 84, 80
1, 91427, Note_on_c, 0, 72, 0
1, 91427, Note_on_c, 0, 76, 0
1, 91427, Note_on_c, 0, 84, 0
1, 91440, Note_on_c, 0, 69, 80
1, 91440, Note_on_c, 0, 72, 80
1, 91440, Note_on_c, 0, 81, 80
1, 91667, Note_on_c, 0, 69, 0
1, 91667, Note_on_c, 0, 72, 0
1, 91667, Note_on_c, 0, 81, 0
1, 91680, Note_on_c, 0, 65, 80
1, 91680, Note_on_c, 0, 74, 80
1, 91680, Note_on_c, 0, 77, 80
1, 91907, Note_on_c, 0, 65, 0
1, 91907, Note_on_c, 0, 74, 0
1, 91907, Note_on_c, 0, 77, 0
1, 91920, Note_on_c, 0, 67, 80
1, 91920, Note_on_c, 0, 76, 80
1, 91920, Note_on_c, 0, 79, 80
1, 92603, Note_on_c, 0, 67, 0
1, 92603, Note_on_c, 0, 76, 0
1, 92603, Note_on_c, 0, 79, 0
1, 92640, Note_on_c, 0, 69, 80
1, 92640, Note_on_c, 0, 72, 80
1, 92640, Note_on_c, 0, 77, 80
1, 92640, Note_on_c, 0, 81, 80
1, 92867, Note_on_c, 0, 69, 0
1, 92867, Note_on_c, 0, 72, 0
1, 92867, Note_on_c, 0, 77, 0
1, 92867, Note_on_c, 0, 81, 0
1, 92880, Note_on_c, 0, 67, 80
1, 92880, Note_on_c, 0, 72, 80
1, 92880, Note_on_c, 0, 76, 80
1, 92880, Note_on_c, 0, 79, 80
1, 94019, Note_on_c, 0, 67, 0
1, 94019, Note_on_c, 0, 72, 0
1, 94019, Note_on_c, 0, 76, 0
1, 94019, Note_on_c, 0, 79, 0
1, 94080, Note_on_c, 0, 62, 80
1, 94080, Note_on_c, 0, 74, 80
1, 94535, Note_on_c, 0, 62, 0
1, 94535, Note_on_c, 0, 74, 0
1, 94560, Note_on_c, 0, 74, 80
1, 94560, Note_on_c, 0, 86, 80
1, 95015, Note_on_c, 0, 74, 0
1, 95015, Note_on_c, 0, 86, 0
1, 95040, Note_on_c, 0, 72, 80
1, 95040, Note_on_c, 0, 74, 80
1, 95040, Note_on_c, 0, 84, 80
1, 95267, Note_on_c, 0, 72, 0
1, 95267, Note_on_c, 0, 74, 0
1, 95267, Note_on_c, 0, 84, 0
1, 95280, Note_on_c, 0, 69, 80
1, 95280, Note_on_c, 0, 74, 80
1, 95280, Note_on_c, 0, 81, 80
1, 95507, Note_on_c, 0, 69, 0
1, 95507, Note_on_c, 0, 74, 0
1, 95507, Note_on_c, 0, 81, 0
1, 95520, Note_on_c, 0, 65, 80
1, 95520, Note_on_c, 0, 74, 80
1, 95520, Note_on_c, 0, 77, 80
1, 95747, Note_on_c, 0, 65, 0
1, 95747, Note_on_c, 0, 74, 0
1, 95747, Note_on_c, 0, 77, 0
1, 95760, Note_on_c, 0, 67, 80
1, 95760, Note_on_c, 0, 76, 80
1, 95760, Note_on_c, 0, 79, 80
1, 96215, Note_on_c, 0, 67, 0
1, 96215, Note_on_c, 0, 76, 0
1, 96215, Note_on_c, 0, 79, 0
1, 96240, Note_on_c, 0, 69, 80
1, 96240, Note_on_c, 0, 77, 80
1, 96240, Note_on_c, 0, 81, 80
1, 96467, Note_on_c, 0, 69, 0
1, 96467, Note_on_c, 0, 77, 0
1, 96467, Note_on_c, 0, 81, 0
1, 96480, Note_on_c, 0, 70, 80
1, 96480, Note_on_c, 0, 79, 80
1, 96480, Note_on_c, 0, 82, 80
1, 96707, Note_on_c, 0, 70, 0
1, 96707, Note_on_c, 0, 79, 0
1, 96707, Note_on_c, 0, 82, 0
1, 96720, Note_on_c, 0, 69, 80
1, 96720, Note_on_c, 0, 77, 80
1, 96720, Note_on_c, 0, 81, 80
1, 97859, Note_on_c, 0, 69, 0
1, 97859, Note_on_c, 0, 77, 0
1, 97859, Note_on_c, 0, 81, 0
1, 97920, Note_on_c, 0, 62, 80
1, 97920, Note_on_c, 0, 74, 80
1, 98375, Note_on_c, 0, 62, 0
1, 98375, Note_on_c, 0, 74, 0
1, 98400, Note_on_c, 0, 74, 80
1, 98400, Note_on_c, 0, 86, 80
1, 98855, Note_on_c, 0, 74, 0
1, 98855, Note_on_c, 0, 86, 0
1, 98880, Note_on_c, 0, 72, 80
1, 98880, Note_on_c, 0, 84, 80
1, 99107, Note_on_c, 0, 72, 0
1, 99107, Note_on_c, 0, 84, 0
1, 99120, Note_on_c, 0, 72, 80
1, 99120, Note_on_c, 0, 81, 80
1, 99347, Note_on_c, 0, 72, 0
1, 99347, Note_on_c, 0, 81, 0
1, 99360, Note_on_c, 0, 69, 80
1, 99360, Note_on_c, 0, 77, 80
1, 99587, Note_on_c, 0, 69, 0
1, 99587, Note_on_c, 0, 77, 0
1, 99600, Note_on_c, 0, 70, 80
1, 99600, Note_on_c, 0, 79, 80
1, 100055, Note_on_c, 0, 70, 0
1, 100055, Note_on_c, 0, 79, 0
1, 100080, Note_on_c, 0, 70, 80
1, 100080, Note_on_c, 0, 79, 80
1, 100535, Note_on_c, 0, 70, 0
1, 100535, Note_on_c, 0, 79, 0
1, 100560, Note_on_c, 0, 70, 80
1, 100560, Note_on_c, 0, 79, 80
1, 101015, Note_on_c, 0, 70, 0
1, 101015, Note_on_c, 0, 79, 0
1, 101040, Note_on_c, 0, 69, 80
1, 101040, Note_on_c, 0, 81, 80
1, 101267, Note_on_c, 0, 69, 0
1, 101267, Note_on_c, 0, 81, 0
1, 101280, Note_on_c, 0, 70, 80
1, 101280, Note_on_c, 0, 82, 80
1, 101735, Note_on_c, 0, 70, 0
1, 101735, Note_on_c, 0, 82, 0
1, 101760, Note_on_c, 0, 72, 80
1, 101760, Note_on_c, 0, 81, 80
1, 102215, Note_on_c, 0, 72, 0
1, 102215, Note_on_c, 0, 81, 0
1, 102240, Note_on_c, 0, 70, 80
1, 102240, Note_on_c, 0, 79, 80
1, 102467, Note_on_c, 0, 70, 0
1, 102467, Note_on_c, 0, 79, 0
1, 102480, Note_on_c, 0, 69, 80
1, 102480, Note_on_c, 0, 77, 80
1, 102707, Note_on_c, 0, 69, 0
1, 102707, Note_on_c, 0, 77, 0
1, 102720, Note_on_c, 0, 65, 80
1, 102720, Note_on_c, 0, 74, 80
1, 103175, Note_on_c, 0, 65, 0
1, 103175, Note_on_c, 0, 74, 0
1, 103440, Note_on_c, 0, 69, 80
1, 103440, Note_on_c, 0, 72, 80
1, 103440, Note_on_c, 0, 81, 80
1, 103895, Note_on_c, 0, 69, 0
1, 103895, Note_on_c, 0, 72, 0
1, 103895, Note_on_c, 0, 81, 0
1, 103920, Note_on_c, 0, 69, 80
1, 103920, Note_on_c, 0, 72, 80
1, 103920, Note_on_c, 0, 81, 80
1, 104147, Note_on_c, 0, 69, 0
1, 104147, Note_on_c, 0, 72, 0
1, 104147, Note_on_c, 0, 81, 0
1, 104160, Note_on_c, 0, 67, 80
1, 104160, Note_on_c, 0, 70, 80
1, 104160, Note_on_c, 0, 79, 80
1, 104387, Note_on_c, 0, 67, 0
1, 104387, Note_on_c, 0, 70, 0
1, 104387, Note_on_c, 0, 79, 0
1, 104400, Note_on_c, 0, 65, 80
1, 104400, Note_on_c, 0, 69, 80
1, 104400, Note_on_c, 0, 77, 80
1, 104627, Note_on_c, 0, 65, 0
1, 104627, Note_on_c, 0, 69, 0
1, 104627, Note_on_c, 0, 77, 0
1, 104640, Note_on_c, 0, 62, 80
1, 104640, Note_on_c, 0, 65, 80
1, 104640, Note_on_c, 0, 74, 80
1, 105095, Note_on_c, 0, 62, 0
1, 105095, Note_on_c, 0, 65, 0
1, 105095, Note_on_c, 0, 74, 0
1, 105600, Note_on_c, 0, 62, 80
1, 105600, Note_on_c, 0, 74, 80
1, 106055, Note_on_c, 0, 62, 0
1, 106055, Note_on_c, 0, 74, 0
1, 106080, Note_on_c, 0, 74, 80
1, 106080, Note_on_c, 0, 86, 80
1, 106535, Note_on_c, 0, 74, 0
1, 106535, Note_on_c, 0, 86, 0
1, 106560, Note_on_c, 0, 72, 80
1, 106560, Note_on_c, 0, 76, 80
1, 106560, Note_on_c, 0, 84, 80
1, 106787, Note_on_c, 0, 72, 0
1, 106787, Note_on_c, 0, 76, 0
1, 106787, Note_on_c, 0, 84, 0
1, 106800, Note_on_c, 0, 69, 80
1, 106800, Note_on_c, 0, 72, 80
1, 106800, Note_on_c, 0, 81, 80
1, 107027, Note_on_c, 0, 69, 0
1, 107027, Note_on_c, 0, 72, 0
1, 107027, Note_on_c, 0, 81, 0
1, 107040, Note_on_c, 0, 65, 80
1, 107040, Note_on_c, 0, 74, 80
1, 107040, Note_on_c, 0, 77, 80
1, 107267, Note_on_c, 0, 65, 0
1, 107267, Note_on_c, 0, 74, 0
1, 107267, Note_on_c, 0, 77, 0
1, 107280, Note_on_c, 0, 67, 80
1, 107280, Note_on_c, 0, 76, 80
1, 107280, Note_on_c, 0, 79, 80
1, 107735, Note_on_c, 0, 67, 0
1, 107735, Note_on_c, 0, 76, 0
1, 107735, Note_on_c, 0, 79, 0
1, 107760, Note_on_c, 0, 67, 80
1, 107760, Note_on_c, 0, 76, 80
1, 107760, Note_on_c, 0, 79, 80
1, 107987, Note_on_c, 0, 67, 0
1, 107987, Note_on_c, 0, 76, 0
1, 107987, Note_on_c, 0, 79, 0
1, 108000, Note_on_c, 0, 69, 80
1, 108000, Note_on_c, 0, 77, 80
1, 108000, Note_on_c, 0, 81, 80
1, 108227, Note_on_c, 0, 69, 0
1, 108227, Note_on_c, 0, 77, 0
1, 108227, Note_on_c, 0, 81, 0
1, 108240, Note_on_c, 0, 67, 80
1, 108240, Note_on_c, 0, 72, 80
1, 108240, Note_on_c, 0, 76, 80
1, 108240, Note_on_c, 0, 79, 80
1, 109379, Note_on_c, 0, 67, 0
1, 109379, Note_on_c, 0, 72, 0
1, 109379, Note_on_c, 0, 76, 0
1, 109379, Note_on_c, 0, 79, 0
1, 109440, Note_on_c, 0, 64, 80
1, 109440, Note_on_c, 0, 69, 80
1, 109440, Note_on_c, 0, 73, 80
1, 109440, Note_on_c, 0, 76, 80
1, 109895, Note_on_c, 0, 64, 0
1, 109895, Note_on_c, 0, 69, 0
1, 109895, Note_on_c, 0, 73, 0
1, 109895, Note_on_c, 0, 76, 0
1, 109920, Note_on_c, 0, 65, 80
1, 109920, Note_on_c, 0, 69, 80
1, 109920, Note_on_c, 0, 73, 80
1, 109920, Note_on_c, 0, 77, 80
1, 110375, Note_on_c, 0, 65, 0
1, 110375, Note_on_c, 0, 69, 0
1, 110375, Note_on_c, 0, 73, 0
1, 110375, Note_on_c, 0, 77, 0
1, 110400, Note_on_c, 0, 67, 80
1, 110400, Note_on_c, 0, 73, 80
1, 110400, Note_on_c, 0, 76, 80
1, 110400, Note_on_c, 0, 79, 80
1, 110855, Note_on_c, 0, 67, 0
1, 110855, Note_on_c, 0, 73, 0
1, 110855, Note_on_c, 0, 76, 0
1, 110855, Note_on_c, 0, 79, 0
1, 110880, Note_on_c, 0, 69, 80
1, 110880, Note_on_c, 0, 73, 80
1, 110880, Note_on_c, 0, 76, 80
1, 110880, Note_on_c, 0, 81, 80
1, 111107, Note_on_c, 0, 69, 0
1, 111107, Note_on_c, 0, 73, 0
1, 111107, Note_on_c, 0, 76, 0
1, 111107, Note_on_c, 0, 81, 0
1, 111120, Note_on_c, 0, 74, 80
1, 111120, Note_on_c, 0, 81, 80
1, 111120, Note_on_c, 0, 86, 80
1, 111575, Note_on_c, 0, 74, 0
1, 111575, Note_on_c, 0, 81, 0
1, 111575, Note_on_c, 0, 86, 0
1, 111600, Note_on_c, 0, 69, 80
1, 111600, Note_on_c, 0, 72, 80
1, 111600, Note_on_c, 0, 81, 80
1, 111827, Note_on_c, 0, 69, 0
1, 111827, Note_on_c, 0, 72, 0
1, 111827, Note_on_c, 0, 81, 0
1, 111840, Note_on_c, 0, 67, 80
1, 111840, Note_on_c, 0, 70, 80
1, 111840, Note_on_c, 0, 79, 80
1, 112067, Note_on_c, 0, 67, 0
1, 112067, Note_on_c, 0, 70, 0
1, 112067, Note_on_c, 0, 79, 0
1, 112080, Note_on_c, 0, 65, 80
1, 112080, Note_on_c, 0, 69, 80
1, 112080, Note_on_c, 0, 77, 80
1, 113219, Note_on_c, 0, 65, 0
1, 113219, Note_on_c, 0, 69, 0
1, 113219, Note_on_c, 0, 77, 0
1, 114240, Note_on_c, 0, 69, 80
1, 114240, Note_on_c, 0, 74, 80
1, 114240, Note_on_c, 0, 77, 80
1, 114240, Note_on_c, 0, 81, 80
1, 115151, Note_on_c, 0, 69, 0
1, 115151, Note_on_c, 0, 74, 0
1, 115151, Note_on_c, 0, 77, 0
1, 115151, Note_on_c, 0, 81, 0
1, 115200, Note_on_c, 0, 67, 80
1, 115200, Note_on_c, 0, 74, 80
1, 115200, Note_on_c, 0, 76, 80
1, 115200, Note_on_c, 0, 79, 80
1, 116111, Note_on_c, 0, 67, 0
1, 116111, Note_on_c, 0, 74, 0
1, 116111, Note_on_c, 0, 76, 0
1, 116111, Note_on_c, 0, 79, 0
1, 116160, Note_on_c, 0, 65, 80
1, 116160, Note_on_c, 0, 74, 80
1, 116160, Note_on_c, 0, 77, 80
1, 117071, Note_on_c, 0, 65, 0
1, 117071, Note_on_c, 0, 74, 0
1, 117071, Note_on_c, 0, 77, 0
1, 118080, Note_on_c, 0, 69, 80
1, 118080, Note_on_c, 0, 72, 80
1, 118080, Note_on_c, 0, 76, 80
1, 118080, Note_on_c, 0, 81, 80
1, 118991, Note_on_c, 0, 69, 0
1, 118991, Note_on_c, 0, 72, 0
1, 118991, Note_on_c, 0, 76, 0
1, 118991, Note_on_c, 0, 81, 0
1, 119040, Note_on_c, 0, 67, 80
1, 119040, Note_on_c, 0, 72, 80
1, 119040, Note_on_c, 0, 76, 80
1, 119040, Note_on_c, 0, 79, 80
1, 119951, Note_on_c, 0, 67, 0
1, 119951, Note_on_c, 0, 72, 0
1, 119951, Note_on_c, 0, 76, 0
1, 119951, Note_on_c, 0, 79, 0
1, 120000, Note_on_c, 0, 65, 80
1, 120000, Note_on_c, 0, 74, 80
1, 120000, Note_on_c, 0, 77, 80
1, 120911, Note_on_c, 0, 65, 0
1, 120911, Note_on_c, 0, 74, 0
1, 120911, Note_on_c, 0, 77, 0
1, 120960, Note_on_c, 0, 62, 80
1, 120960, Note_on_c, 0, 65, 80
1, 120960, Note_on_c, 0, 69, 80
1, 120960, Note_on_c, 0, 74, 80
1, 121871, Note_on_c, 0, 62, 0
1, 121871, Note_on_c, 0, 65, 0
1, 121871, Note_on_c, 0, 69, 0
1, 121871, Note_on_c, 0, 74, 0
1, 121920, Note_on_c, 0, 60, 80
1, 121920, Note_on_c, 0, 72, 80
1, 122147, Note_on_c, 0, 60, 0
1, 122147, Note_on_c, 0, 72, 0
1, 122160, Note_on_c, 0, 65, 80
1, 122160, Note_on_c, 0, 77, 80
1, 122387, Note_on_c, 0, 65, 0
1, 122387, Note_on_c, 0, 77, 0
1, 122400, Note_on_c, 0, 67, 80
1, 122400, Note_on_c, 0, 79, 80
1, 122627, Note_on_c, 0, 67, 0
1, 122627, Note_on_c, 0, 79, 0
1, 122640, Note_on_c, 0, 74, 80
1, 122640, Note_on_c, 0, 79, 80
1, 122640, Note_on_c, 0, 80, 80
1, 122867, Note_on_c, 0, 74, 0
1, 122867, Note_on_c, 0, 79, 0
1, 122867, Note_on_c, 0, 80, 0
1, 123120, Note_on_c, 0, 72, 80
1, 123120, Note_on_c, 0, 77, 80
1, 123347, Note_on_c, 0, 72, 0
1, 123347, Note_on_c, 0, 77, 0
1, 123600, Note_on_c, 0, 70, 80
1, 123600, Note_on_c, 0, 79, 80
1, 123827, Note_on_c, 0, 70, 0
1, 123827, Note_on_c, 0, 79, 0
1, 124080, Note_on_c, 0, 69, 80
1, 124080, Note_on_c, 0, 72, 80
1, 124307, Note_on_c, 0, 69, 0
1, 124307, Note_on_c, 0, 72, 0
1, 124320, Note_on_c, 0, 69, 80
1, 124320, Note_on_c, 0, 72, 80
1, 124775, Note_on_c, 0, 69, 0
1, 124775, Note_on_c, 0, 72, 0
1, 124800, Note_on_c, 0, 60, 80
1, 124800, Note_on_c, 0, 64, 80
1, 125711, Note_on_c, 0, 60, 0
1, 125711, Note_on_c, 0, 64, 0
1, 125760, Note_on_c, 0, 60, 80
1, 125760, Note_on_c, 0, 72, 80
1, 125987, Note_on_c, 0, 60, 0
1, 125987, Note_on_c, 0, 72, 0
1, 126000, Note_on_c, 0, 65, 80
1, 126000, Note_on_c, 0, 77, 80
1, 126227, Note_on_c, 0, 65, 0
1, 126227, Note_on_c, 0, 77, 0
1, 126240, Note_on_c, 0, 67, 80
1, 126240, Note_on_c, 0, 79, 80
1, 126467, Note_on_c, 0, 67, 0
1, 126467, Note_on_c, 0, 79, 0
1, 126480, Note_on_c, 0, 74, 80
1, 126480, Note_on_c, 0, 80, 80
1, 126480, Note_on_c, 0, 81, 80
1, 126707, Note_on_c, 0, 74, 0
1, 126707, Note_on_c, 0, 80, 0
1, 126707, Note_on_c, 0, 81, 0
1, 126960, Note_on_c, 0, 76, 80
1, 126960, Note_on_c, 0, 84, 80
1, 127187, Note_on_c, 0, 76, 0
1, 127187, Note_on_c, 0, 84, 0
1, 127440, Note_on_c, 0, 77, 80
1, 127440, Note_on_c, 0, 86, 80
1, 127667, Note_on_c, 0, 77, 0
1, 127667, Note_on_c, 0, 86, 0
1, 127920, Note_on_c, 0, 65, 80
1, 127920, Note_on_c, 0, 77, 80
1, 128147, Note_on_c, 0, 65, 0
1, 128147, Note_on_c, 0, 77, 0
1, 128160, Note_on_c, 0, 67, 80
1, 128160, Note_on_c, 0, 79, 80
1, 128387, Note_on_c, 0, 67, 0
1, 128387, Note_on_c, 0, 79, 0
1, 128400, Note_on_c, 0, 60, 80
1, 128400, Note_on_c, 0, 72, 80
1, 128627, Note_on_c, 0, 60, 0
1, 128627, Note_on_c, 0, 72, 0
1, 128640, Note_on_c, 0, 62, 80
1, 128640, Note_on_c, 0, 69, 80
1, 128640, Note_on_c, 0, 74, 80
1, 129095, Note_on_c, 0, 62, 0
1, 129095, Note_on_c, 0, 69, 0
1, 129095, Note_on_c, 0, 74, 0
1, 129120, Note_on_c, 0, 62, 80
1, 129120, Note_on_c, 0, 69, 80
1, 129120, Note_on_c, 0, 74, 80
1, 129575, Note_on_c, 0, 62, 0
1, 129575, Note_on_c, 0, 69, 0
1, 129575, Note_on_c, 0, 74, 0
1, 129600, Note_on_c, 0, 60, 80
1, 129600, Note_on_c, 0, 67, 80
1, 129600, Note_on_c, 0, 72, 80
1, 129827, Note_on_c, 0, 60, 0
1, 129827, Note_on_c, 0, 67, 0
1, 129827, Note_on_c, 0, 72, 0
1, 129840, Note_on_c, 0, 62, 80
1, 129840, Note_on_c, 0, 69, 80
1, 129840, Note_on_c, 0, 74, 80
1, 130295, Note_on_c, 0, 62, 0
1, 130295, Note_on_c, 0, 69, 0
1, 130295, Note_on_c, 0, 74, 0
1, 130320, Note_on_c, 0, 65, 80
1, 130320, Note_on_c, 0, 69, 80
1, 130320, Note_on_c, 0, 77, 80
1, 130775, Note_on_c, 0, 65, 0
1, 130775, Note_on_c, 0, 69, 0
1, 130775, Note_on_c, 0, 77, 0
1, 130800, Note_on_c, 0, 62, 80
1, 130800, Note_on_c, 0, 69, 80
1, 130800, Note_on_c, 0, 74, 80
1, 131255, Note_on_c, 0, 62, 0
1, 131255, Note_on_c, 0, 69, 0
1, 131255, Note_on_c, 0, 74, 0
1, 131280, Note_on_c, 0, 60, 80
1, 131280, Note_on_c, 0, 67, 80
1, 131280, Note_on_c, 0, 72, 80
1, 131735, Note_on_c, 0, 60, 0
1, 131735, Note_on_c, 0, 67, 0
1, 131735, Note_on_c, 0, 72, 0
1, 131760, Note_on_c, 0, 62, 80
1, 131760, Note_on_c, 0, 69, 80
1, 131760, Note_on_c, 0, 74, 80
1, 131987, Note_on_c, 0, 62, 0
1, 131987, Note_on_c, 0, 69, 0
1, 131987, Note_on_c, 0, 74, 0
1, 132000, Note_on_c, 0, 65, 80
1, 132000, Note_on_c, 0, 72, 80
1, 132000, Note_on_c, 0, 77, 80
1, 132227, Note_on_c, 0, 65, 0
1, 132227, Note_on_c, 0, 72, 0
1, 132227, Note_on_c, 0, 77, 0
1, 132240, Note_on_c, 0, 67, 80
1, 132240, Note_on_c, 0, 74, 80
1, 132240, Note_on_c, 0, 79, 80
1, 132467, Note_on_c, 0, 67, 0
1, 132467, Note_on_c, 0, 74, 0
1, 132467, Note_on_c, 0, 79, 0
1, 132480, Note_on_c, 0, 68, 80
1, 132480, Note_on_c, 0, 75, 80
1, 132480, Note_on_c, 0, 80, 80
1, 132935, Note_on_c, 0, 68, 0
1, 132935, Note_on_c, 0, 75, 0
1, 132935, Note_on_c, 0, 80, 0
1, 132960, Note_on_c, 0, 68, 80
1, 132960, Note_on_c, 0, 75, 80
1, 132960, Note_on_c, 0, 80, 80
1, 133415, Note_on_c, 0, 68, 0
1, 133415, Note_on_c, 0, 75, 0
1, 133415, Note_on_c, 0, 80, 0
1, 133440, Note_on_c, 0, 67, 80
1, 133440, Note_on_c, 0, 74, 80
1, 133440, Note_on_c, 0, 79, 80
1, 133667, Note_on_c, 0, 67, 0
1, 133667, Note_on_c, 0, 74, 0
1, 133667, Note_on_c, 0, 79, 0
1, 133680, Note_on_c, 0, 65, 80
1, 133680, Note_on_c, 0, 72, 80
1, 133680, Note_on_c, 0, 77, 80
1, 134135, Note_on_c, 0, 65, 0
1, 134135, Note_on_c, 0, 72, 0
1, 134135, Note_on_c, 0, 77, 0
1, 134160, Note_on_c, 0, 62, 80
1, 134160, Note_on_c, 0, 65, 80
1, 134160, Note_on_c, 0, 74, 80
1, 134843, Note_on_c, 0, 62, 0
1, 134843, Note_on_c, 0, 65, 0
1, 134843, Note_on_c, 0, 74, 0
1, 134880, Note_on_c, 0, 74, 80
1, 134880, Note_on_c, 0, 77, 80
1, 134880, Note_on_c, 0, 81, 80
1, 134880, Note_on_c, 0, 86, 80
1, 136247, Note_on_c, 0, 74, 0
1, 136247, Note_on_c, 0, 77, 0
1, 136247, Note_on_c, 0, 81, 0
1, 136247, Note_on_c, 0, 86, 0
2, 0, Note_on_c, 0, 53, 80
2, 455, Note_on_c, 0, 53, 0
2, 480, Note_on_c, 0, 53, 80
2, 935, Note_on_c, 0, 53, 0
2, 960, Note_on_c, 0, 51, 80
2, 1187, Note_on_c, 0, 51, 0
2, 1200, Note_on_c, 0, 53, 80
2, 1655, Note_on_c, 0, 53, 0
2, 1680, Note_on_c, 0, 56, 80
2, 2135, Note_on_c, 0, 56, 0
2, 2160, Note_on_c, 0, 53, 80
2, 2615, Note_on_c, 0, 53, 0
2, 2640, Note_on_c, 0, 53, 80
2, 3095, Note_on_c, 0, 53, 0
2, 3120, Note_on_c, 0, 51, 80
2, 3347, Note_on_c, 0, 51, 0
2, 3360, Note_on_c, 0, 53, 80
2, 3587, Note_on_c, 0, 53, 0
2, 3600, Note_on_c, 0, 51, 80
2, 3827, Note_on_c, 0, 51, 0
2, 3840, Note_on_c, 0, 41, 80
2, 3840, Note_on_c, 0, 48, 80
2, 3840, Note_on_c, 0, 53, 80
2, 6803, Note_on_c, 0, 41, 0
2, 6803, Note_on_c, 0, 48, 0
2, 6803, Note_on_c, 0, 53, 0
2, 6960, Note_on_c, 0, 39, 80
2, 6960, Note_on_c, 0, 51, 80
2, 7187, Note_on_c, 0, 39, 0
2, 7187, Note_on_c, 0, 51, 0
2, 7200, Note_on_c, 0, 41, 80
2, 7200, Note_on_c, 0, 53, 80
2, 7427, Note_on_c, 0, 41, 0
2, 7427, Note_on_c, 0, 53, 0
2, 7440, Note_on_c, 0, 39, 80
2, 7440, Note_on_c, 0, 51, 80
2, 7667, Note_on_c, 0, 39, 0
2, 7667, Note_on_c, 0, 51, 0
2, 7680, Note_on_c, 0, 37, 80
2, 7680, Note_on_c, 0, 49, 80
2, 8135, Note_on_c, 0, 37, 0
2, 8135, Note_on_c, 0, 49, 0
2, 8160, Note_on_c, 0, 37, 80
2, 8160, Note_on_c, 0, 49, 80
2, 8615, Note_on_c, 0, 37, 0
2, 8615, Note_on_c, 0, 49, 0
2, 8640, Note_on_c, 0, 36, 80
2, 8640, Note_on_c, 0, 48, 80
2, 8867, Note_on_c, 0, 36, 0
2, 8867, Note_on_c, 0, 48, 0
2, 8880, Note_on_c, 0, 36, 80
2, 8880, Note_on_c, 0, 48, 80
2, 9335, Note_on_c, 0, 36, 0
2, 9335, Note_on_c, 0, 48, 0
2, 9360, Note_on_c, 0, 29, 80
2, 9360, Note_on_c, 0, 41, 80
2, 10043, Note_on_c, 0, 29, 0
2, 10043, Note_on_c, 0, 41, 0
2, 10080, Note_on_c, 0, 48, 80
2, 10080, Note_on_c, 0, 52, 80
2, 10080, Note_on_c, 0, 58, 80
2, 11447, Note_on_c, 0, 48, 0
2, 11447, Note_on_c, 0, 52, 0
2, 11447, Note_on_c, 0, 58, 0
2, 11520, Note_on_c, 0, 34, 80
2, 11520, Note_on_c, 0, 46, 80
2, 11760, Note_on_c, 0, 46, 80
2, 11987, Note_on_c, 0, 46, 0
2, 12000, Note_on_c, 0, 50, 80
2, 12000, Note_on_c, 0, 53, 80
2, 12227, Note_on_c, 0, 50, 0
2, 12227, Note_on_c, 0, 53, 0
2, 12240, Note_on_c, 0, 46, 80
2, 12467, Note_on_c, 0, 46, 0
2, 12480, Note_on_c, 0, 50, 80
2, 12480, Note_on_c, 0, 58, 80
2, 12707, Note_on_c, 0, 50, 0
2, 12707, Note_on_c, 0, 58, 0
2, 12720, Note_on_c, 0, 46, 80
2, 12947, Note_on_c, 0, 46, 0
2, 12960, Note_on_c, 0, 50, 80
2, 12960, Note_on_c, 0, 53, 80
2, 13187, Note_on_c, 0, 50, 0
2, 13187, Note_on_c, 0, 53, 0
2, 13200, Note_on_c, 0, 46, 80
2, 13343, Note_on_c, 0, 34, 0
2, 13343, Note_on_c, 0, 46, 0
2, 13427, Note_on_c, 0, 46, 0
2, 13440, Note_on_c, 0, 36, 80
2, 13440, Note_on_c, 0, 48, 80
2, 13680, Note_on_c, 0, 48, 80
2, 13907, Note_on_c, 0, 48, 0
2, 13920, Note_on_c, 0, 52, 80
2, 13920, Note_on_c, 0, 55, 80
2, 14147, Note_on_c, 0, 52, 0
2, 14147, Note_on_c, 0, 55, 0
2, 14160, Note_on_c, 0, 48, 80
2, 14387, Note_on_c, 0, 48, 0
2, 14400, Note_on_c, 0, 52, 80
2, 14400, Note_on_c, 0, 60, 80
2, 14627, Note_on_c, 0, 52, 0
2, 14627, Note_on_c, 0, 60, 0
2, 14640, Note_on_c, 0, 48, 80
2, 14867, Note_on_c, 0, 48, 0
2, 14880, Note_on_c, 0, 52, 80
2, 14880, Note_on_c, 0, 55, 80
2, 15107, Note_on_c, 0, 52, 0
2, 15107, Note_on_c, 0, 55, 0
2, 15120, Note_on_c, 0, 48, 80
2, 15263, Note_on_c, 0, 36, 0
2, 15263, Note_on_c, 0, 48, 0
2, 15347, Note_on_c, 0, 48, 0
2, 15360, Note_on_c, 0, 38, 80
2, 15360, Note_on_c, 0, 50, 80
2, 15600, Note_on_c, 0, 50, 80
2, 15827, Note_on_c, 0, 50, 0
2, 15840, Note_on_c, 0, 53, 80
2, 15840, Note_on_c, 0, 57, 80
2, 16067, Note_on_c, 0, 53, 0
2, 16067, Note_on_c, 0, 57, 0
2, 16080, Note_on_c, 0, 50, 80
2, 16307, Note_on_c, 0, 50, 0
2, 16320, Note_on_c, 0, 53, 80
2, 16320, Note_on_c, 0, 62, 80
2, 16547, Note_on_c, 0, 53, 0
2, 16547, Note_on_c, 0, 62, 0
2, 16560, Note_on_c, 0, 50, 80
2, 16787, Note_on_c, 0, 50, 0
2, 16800, Note_on_c, 0, 53, 80
2, 16800, Note_on_c, 0, 57, 80
2, 17027, Note_on_c, 0, 53, 0
2, 17027, Note_on_c, 0, 57, 0
2, 17040, Note_on_c, 0, 50, 80
2, 17183, Note_on_c, 0, 38, 0
2, 17183, Note_on_c, 0, 50, 0
2, 17267, Note_on_c, 0, 50, 0
2, 17280, Note_on_c, 0, 33, 80
2, 17280, Note_on_c, 0, 45, 80
2, 17520, Note_on_c, 0, 45, 80
2, 17747, Note_on_c, 0, 45, 0
2, 17760, Note_on_c, 0, 48, 80
2, 17760, Note_on_c, 0, 53, 80
2, 17987, Note_on_c, 0, 48, 0
2, 17987, Note_on_c, 0, 53, 0
2, 18000, Note_on_c, 0, 45, 80
2, 18227, Note_on_c, 0, 45, 0
2, 18240, Note_on_c, 0, 53, 80
2, 18240, Note_on_c, 0, 57, 80
2, 18467, Note_on_c, 0, 53, 0
2, 18467, Note_on_c, 0, 57, 0
2, 18480, Note_on_c, 0, 45, 80
2, 18707, Note_on_c, 0, 45, 0
2, 18720, Note_on_c, 0, 48, 80
2, 18720, Note_on_c, 0, 53, 80
2, 18947, Note_on_c, 0, 48, 0
2, 18947, Note_on_c, 0, 53, 0
2, 18960, Note_on_c, 0, 45, 80
2, 19103, Note_on_c, 0, 33, 0
2, 19103, Note_on_c, 0, 45, 0
2, 19187, Note_on_c, 0, 45, 0
2, 19200, Note_on_c, 0, 34, 80
2, 19200, Note_on_c, 0, 46, 80
2, 19440, Note_on_c, 0, 46, 80
2, 19667, Note_on_c, 0, 46, 0
2, 19680, Note_on_c, 0, 50, 80
2, 19680, Note_on_c, 0, 53, 80
2, 19907, Note_on_c, 0, 50, 0
2, 19907, Note_on_c, 0, 53, 0
2, 19920, Note_on_c, 0, 46, 80
2, 20147, Note_on_c, 0, 46, 0
2, 20160, Note_on_c, 0, 50, 80
2, 20160, Note_on_c, 0, 58, 80
2, 20387, Note_on_c, 0, 50, 0
2, 20387, Note_on_c, 0, 58, 0
2, 20400, Note_on_c, 0, 46, 80
2, 20627, Note_on_c, 0, 46, 0
2, 20640, Note_on_c, 0, 50, 80
2, 20640, Note_on_c, 0, 53, 80
2, 20867, Note_on_c, 0, 50, 0
2, 20867, Note_on_c, 0, 53, 0
2, 20880, Note_on_c, 0, 46, 80
2, 21023, Note_on_c, 0, 34, 0
2, 21023, Note_on_c, 0, 46, 0
2, 21107, Note_on_c, 0, 46, 0
2, 21120, Note_on_c, 0, 36, 80
2, 21120, Note_on_c, 0, 48, 80
2, 21360, Note_on_c, 0, 48, 80
2, 21587, Note_on_c, 0, 48, 0
2, 21600, Note_on_c, 0, 52, 80
2, 21600, Note_on_c, 0, 55, 80
2, 21827, Note_on_c, 0, 52, 0
2, 21827, Note_on_c, 0, 55, 0
2, 21840, Note_on_c, 0, 48, 80
2, 22067, Note_on_c, 0, 48, 0
2, 22080, Note_on_c, 0, 52, 80
2, 22080, Note_on_c, 0, 60, 80
2, 22307, Note_on_c, 0, 52, 0
2, 22307, Note_on_c, 0, 60, 0
2, 22320, Note_on_c, 0, 48, 80
2, 22547, Note_on_c, 0, 48, 0
2, 22560, Note_on_c, 0, 52, 80
2, 22560, Note_on_c, 0, 55, 80
2, 22787, Note_on_c, 0, 52, 0
2, 22787, Note_on_c, 0, 55, 0
2, 22800, Note_on_c, 0, 48, 80
2, 22943, Note_on_c, 0, 36, 0
2, 22943, Note_on_c, 0, 48, 0
2, 23027, Note_on_c, 0, 48, 0
2, 23040, Note_on_c, 0, 53, 80
2, 23040, Note_on_c, 0, 41, 80
2, 23495, Note_on_c, 0, 41, 0
2, 23520, Note_on_c, 0, 41, 80
2, 23975, Note_on_c, 0, 41, 0
2, 24000, Note_on_c, 0, 41, 80
2, 24455, Note_on_c, 0, 41, 0
2, 24480, Note_on_c, 0, 41, 80
2, 24863, Note_on_c, 0, 53, 0
2, 24935, Note_on_c, 0, 41, 0
2, 24960, Note_on_c, 0, 43, 80
2, 24960, Note_on_c, 0, 53, 80
2, 25263, Note_on_c, 0, 43, 0
2, 25263, Note_on_c, 0, 53, 0
2, 25280, Note_on_c, 0, 45, 80
2, 25280, Note_on_c, 0, 53, 80
2, 25583, Note_on_c, 0, 45, 0
2, 25583, Note_on_c, 0, 53, 0
2, 25600, Note_on_c, 0, 46, 80
2, 25600, Note_on_c, 0, 53, 80
2, 25903, Note_on_c, 0, 46, 0
2, 25903, Note_on_c, 0, 53, 0
2, 25920, Note_on_c, 0, 48, 80
2, 25920, Note_on_c, 0, 58, 80
2, 26375, Note_on_c, 0, 48, 0
2, 26400, Note_on_c, 0, 48, 80
2, 26831, Note_on_c, 0, 58, 0
2, 26855, Note_on_c, 0, 48, 0
2, 26880, Note_on_c, 0, 41, 80
2, 26880, Note_on_c, 0, 53, 80
2, 27107, Note_on_c, 0, 41, 0
2, 27107, Note_on_c, 0, 53, 0
2, 27120, Note_on_c, 0, 41, 80
2, 27120, Note_on_c, 0, 53, 80
2, 27347, Note_on_c, 0, 41, 0
2, 27347, Note_on_c, 0, 53, 0
2, 27600, Note_on_c, 0, 53, 80
2, 27827, Note_on_c, 0, 53, 0
2, 28080, Note_on_c, 0, 53, 80
2, 28307, Note_on_c, 0, 53, 0
2, 28560, Note_on_c, 0, 53, 80
2, 28787, Note_on_c, 0, 53, 0
2, 29040, Note_on_c, 0, 53, 80
2, 29267, Note_on_c, 0, 53, 0
2, 29520, Note_on_c, 0, 53, 80
2, 29747, Note_on_c, 0, 53, 0
2, 29760, Note_on_c, 0, 48, 80
2, 29987, Note_on_c, 0, 48, 0
2, 30000, Note_on_c, 0, 53, 80
2, 30227, Note_on_c, 0, 53, 0
2, 30240, Note_on_c, 0, 48, 80
2, 30467, Note_on_c, 0, 48, 0
2, 30480, Note_on_c, 0, 53, 80
2, 30707, Note_on_c, 0, 53, 0
2, 30720, Note_on_c, 0, 41, 80
2, 30720, Note_on_c, 0, 53, 80
2, 30947, Note_on_c, 0, 41, 0
2, 30947, Note_on_c, 0, 53, 0
2, 30960, Note_on_c, 0, 41, 80
2, 30960, Note_on_c, 0, 53, 80
2, 31187, Note_on_c, 0, 41, 0
2, 31187, Note_on_c, 0, 53, 0
2, 31440, Note_on_c, 0, 53, 80
2, 31667, Note_on_c, 0, 53, 0
2, 31920, Note_on_c, 0, 53, 80
2, 32147, Note_on_c, 0, 53, 0
2, 32400, Note_on_c, 0, 53, 80
2, 32627, Note_on_c, 0, 53, 0
2, 32880, Note_on_c, 0, 53, 80
2, 33107, Note_on_c, 0, 53, 0
2, 33360, Note_on_c, 0, 53, 80
2, 33587, Note_on_c, 0, 53, 0
2, 33600, Note_on_c, 0, 48, 80
2, 33827, Note_on_c, 0, 48, 0
2, 33840, Note_on_c, 0, 53, 80
2, 34067, Note_on_c, 0, 53, 0
2, 34080, Note_on_c, 0, 48, 80
2, 34307, Note_on_c, 0, 48, 0
2, 34320, Note_on_c, 0, 53, 80
2, 34547, Note_on_c, 0, 53, 0
2, 34560, Note_on_c, 0, 34, 80
2, 34560, Note_on_c, 0, 46, 80
2, 34787, Note_on_c, 0, 34, 0
2, 34787, Note_on_c, 0, 46, 0
2, 34800, Note_on_c, 0, 34, 80
2, 34800, Note_on_c, 0, 46, 80
2, 35027, Note_on_c, 0, 34, 0
2, 35027, Note_on_c, 0, 46, 0
2, 35280, Note_on_c, 0, 46, 80
2, 35507, Note_on_c, 0, 46, 0
2, 35760, Note_on_c, 0, 46, 80
2, 35987, Note_on_c, 0, 46, 0
2, 36240, Note_on_c, 0, 46, 80
2, 36467, Note_on_c, 0, 46, 0
2, 36720, Note_on_c, 0, 46, 80
2, 36947, Note_on_c, 0, 46, 0
2, 37200, Note_on_c, 0, 46, 80
2, 37427, Note_on_c, 0, 46, 0
2, 37440, Note_on_c, 0, 41, 80
2, 37667, Note_on_c, 0, 41, 0
2, 37680, Note_on_c, 0, 46, 80
2, 37907, Note_on_c, 0, 46, 0
2, 37920, Note_on_c, 0, 41, 80
2, 38147, Note_on_c, 0, 41, 0
2, 38160, Note_on_c, 0, 46, 80
2, 38387, Note_on_c, 0, 46, 0
2, 38400, Note_on_c, 0, 36, 80
2, 38400, Note_on_c, 0, 48, 80
2, 38627, Note_on_c, 0, 36, 0
2, 38627, Note_on_c, 0, 48, 0
2, 38640, Note_on_c, 0, 36, 80
2, 38640, Note_on_c, 0, 48, 80
2, 39095, Note_on_c, 0, 36, 0
2, 39095, Note_on_c, 0, 48, 0
2, 39360, Note_on_c, 0, 36, 80
2, 39360, Note_on_c, 0, 48, 80
2, 39587, Note_on_c, 0, 36, 0
2, 39587, Note_on_c, 0, 48, 0
2, 39600, Note_on_c, 0, 36, 80
2, 39600, Note_on_c, 0, 48, 80
2, 40055, Note_on_c, 0, 36, 0
2, 40055, Note_on_c, 0, 48, 0
2, 40320, Note_on_c, 0, 37, 80
2, 40320, Note_on_c, 0, 49, 80
2, 40775, Note_on_c, 0, 37, 0
2, 40775, Note_on_c, 0, 49, 0
2, 40800, Note_on_c, 0, 39, 80
2, 40800, Note_on_c, 0, 51, 80
2, 41255, Note_on_c, 0, 39, 0
2, 41255, Note_on_c, 0, 51, 0
2, 41280, Note_on_c, 0, 39, 80
2, 41280, Note_on_c, 0, 51, 80
2, 42191, Note_on_c, 0, 39, 0
2, 42191, Note_on_c, 0, 51, 0
2, 42240, Note_on_c, 0, 41, 80
2, 42240, Note_on_c, 0, 53, 80
2, 42240, Note_on_c, 0, 48, 80
2, 42467, Note_on_c, 0, 41, 0
2, 42467, Note_on_c, 0, 53, 0
2, 42480, Note_on_c, 0, 41, 80
2, 42480, Note_on_c, 0, 53, 80
2, 42707, Note_on_c, 0, 41, 0
2, 42707, Note_on_c, 0, 53, 0
2, 42720, Note_on_c, 0, 41, 80
2, 42947, Note_on_c, 0, 41, 0
2, 42960, Note_on_c, 0, 53, 80
2, 43187, Note_on_c, 0, 53, 0
2, 43200, Note_on_c, 0, 41, 80
2, 43427, Note_on_c, 0, 41, 0
2, 43440, Note_on_c, 0, 53, 80
2, 43667, Note_on_c, 0, 53, 0
2, 43680, Note_on_c, 0, 41, 80
2, 43907, Note_on_c, 0, 41, 0
2, 43920, Note_on_c, 0, 53, 80
2, 44063, Note_on_c, 0, 48, 0
2, 44147, Note_on_c, 0, 53, 0
2, 44160, Note_on_c, 0, 41, 80
2, 44387, Note_on_c, 0, 41, 0
2, 44400, Note_on_c, 0, 53, 80
2, 44627, Note_on_c, 0, 53, 0
2, 44640, Note_on_c, 0, 41, 80
2, 44867, Note_on_c, 0, 41, 0
2, 44880, Note_on_c, 0, 53, 80
2, 45107, Note_on_c, 0, 53, 0
2, 45120, Note_on_c, 0, 41, 80
2, 45120, Note_on_c, 0, 48, 80
2, 45347, Note_on_c, 0, 41, 0
2, 45347, Note_on_c, 0, 48, 0
2, 45360, Note_on_c, 0, 53, 80
2, 45587, Note_on_c, 0, 53, 0
2, 45600, Note_on_c, 0, 41, 80
2, 45600, Note_on_c, 0, 48, 80
2, 45827, Note_on_c, 0, 41, 0
2, 45827, Note_on_c, 0, 48, 0
2, 45840, Note_on_c, 0, 53, 80
2, 46067, Note_on_c, 0, 53, 0
2, 46080, Note_on_c, 0, 41, 80
2, 46080, Note_on_c, 0, 53, 80
2, 46080, Note_on_c, 0, 48, 80
2, 46307, Note_on_c, 0, 41, 0
2, 46307, Note_on_c, 0, 53, 0
2, 46320, Note_on_c, 0, 41, 80
2, 46320, Note_on_c, 0, 53, 80
2, 46547, Note_on_c, 0, 41, 0
2, 46547, Note_on_c, 0, 53, 0
2, 46560, Note_on_c, 0, 41, 80
2, 46787, Note_on_c, 0, 41, 0
2, 46800, Note_on_c, 0, 53, 80
2, 47027, Note_on_c, 0, 53, 0
2, 47040, Note_on_c, 0, 41, 80
2, 47267, Note_on_c, 0, 41, 0
2, 47280, Note_on_c, 0, 53, 80
2, 47507, Note_on_c, 0, 53, 0
2, 47520, Note_on_c, 0, 41, 80
2, 47747, Note_on_c, 0, 41, 0
2, 47760, Note_on_c, 0, 53, 80
2, 47903, Note_on_c, 0, 48, 0
2, 47987, Note_on_c, 0, 53, 0
2, 48000, Note_on_c, 0, 41, 80
2, 48227, Note_on_c, 0, 41, 0
2, 48240, Note_on_c, 0, 53, 80
2, 48467, Note_on_c, 0, 53, 0
2, 48480, Note_on_c, 0, 41, 80
2, 48707, Note_on_c, 0, 41, 0
2, 48720, Note_on_c, 0, 53, 80
2, 48947, Note_on_c, 0, 53, 0
2, 48960, Note_on_c, 0, 41, 80
2, 48960, Note_on_c, 0, 48, 80
2, 49187, Note_on_c, 0, 41, 0
2, 49187, Note_on_c, 0, 48, 0
2, 49200, Note_on_c, 0, 53, 80
2, 49427, Note_on_c, 0, 53, 0
2, 49440, Note_on_c, 0, 41, 80
2, 49440, Note_on_c, 0, 48, 80
2, 49667, Note_on_c, 0, 41, 0
2, 49667, Note_on_c, 0, 48, 0
2, 49680, Note_on_c, 0, 53, 80
2, 49907, Note_on_c, 0, 53, 0
2, 49920, Note_on_c, 0, 34, 80
2, 49920, Note_on_c, 0, 46, 80
2, 49920, Note_on_c, 0, 41, 80
2, 50147, Note_on_c, 0, 34, 0
2, 50147, Note_on_c, 0, 46, 0
2, 50160, Note_on_c, 0, 34, 80
2, 50160, Note_on_c, 0, 46, 80
2, 50387, Note_on_c, 0, 34, 0
2, 50387, Note_on_c, 0, 46, 0
2, 50400, Note_on_c, 0, 34, 80
2, 50627, Note_on_c, 0, 34, 0
2, 50640, Note_on_c, 0, 46, 80
2, 50867, Note_on_c, 0, 46, 0
2, 50880, Note_on_c, 0, 34, 80
2, 51107, Note_on_c, 0, 34, 0
2, 51120, Note_on_c, 0, 46, 80
2, 51347, Note_on_c, 0, 46, 0
2, 51360, Note_on_c, 0, 34, 80
2, 51587, Note_on_c, 0, 34, 0
2, 51600, Note_on_c, 0, 46, 80
2, 51743, Note_on_c, 0, 41, 0
2, 51827, Note_on_c, 0, 46, 0
2, 51840, Note_on_c, 0, 34, 80
2, 52067, Note_on_c, 0, 34, 0
2, 52080, Note_on_c, 0, 46, 80
2, 52307, Note_on_c, 0, 46, 0
2, 52320, Note_on_c, 0, 34, 80
2, 52547, Note_on_c, 0, 34, 0
2, 52560, Note_on_c, 0, 46, 80
2, 52787, Note_on_c, 0, 46, 0
2, 52800, Note_on_c, 0, 34, 80
2, 52800, Note_on_c, 0, 41, 80
2, 53027, Note_on_c, 0, 34, 0
2, 53027, Note_on_c, 0, 41, 0
2, 53040, Note_on_c, 0, 46, 80
2, 53267, Note_on_c, 0, 46, 0
2, 53280, Note_on_c, 0, 34, 80
2, 53280, Note_on_c, 0, 41, 80
2, 53507, Note_on_c, 0, 34, 0
2, 53507, Note_on_c, 0, 41, 0
2, 53520, Note_on_c, 0, 46, 80
2, 53747, Note_on_c, 0, 46, 0
2, 53760, Note_on_c, 0, 36, 80
2, 53760, Note_on_c, 0, 48, 80
2, 54000, Note_on_c, 0, 48, 80
2, 54227, Note_on_c, 0, 48, 0
2, 54240, Note_on_c, 0, 52, 80
2, 54240, Note_on_c, 0, 55, 80
2, 54467, Note_on_c, 0, 52, 0
2, 54467, Note_on_c, 0, 55, 0
2, 54480, Note_on_c, 0, 48, 80
2, 54707, Note_on_c, 0, 48, 0
2, 54720, Note_on_c, 0, 52, 80
2, 54720, Note_on_c, 0, 60, 80
2, 54947, Note_on_c, 0, 52, 0
2, 54947, Note_on_c, 0, 60, 0
2, 54960, Note_on_c, 0, 48, 80
2, 55187, Note_on_c, 0, 48, 0
2, 55200, Note_on_c, 0, 52, 80
2, 55200, Note_on_c, 0, 55, 80
2, 55427, Note_on_c, 0, 52, 0
2, 55427, Note_on_c, 0, 55, 0
2, 55440, Note_on_c, 0, 48, 80
2, 55583, Note_on_c, 0, 36, 0
2, 55583, Note_on_c, 0, 48, 0
2, 55667, Note_on_c, 0, 48, 0
2, 55680, Note_on_c, 0, 45, 80
2, 55680, Note_on_c, 0, 57, 80
2, 55907, Note_on_c, 0, 45, 0
2, 55907, Note_on_c, 0, 57, 0
2, 55920, Note_on_c, 0, 46, 80
2, 55920, Note_on_c, 0, 58, 80
2, 56147, Note_on_c, 0, 46, 0
2, 56147, Note_on_c, 0, 58, 0
2, 56400, Note_on_c, 0, 49, 80
2, 56400, Note_on_c, 0, 61, 80
2, 56627, Note_on_c, 0, 49, 0
2, 56627, Note_on_c, 0, 61, 0
2, 56880, Note_on_c, 0, 52, 80
2, 56880, Note_on_c, 0, 64, 80
2, 57563, Note_on_c, 0, 52, 0
2, 57563, Note_on_c, 0, 64, 0
2, 57600, Note_on_c, 0, 34, 80
2, 57827, Note_on_c, 0, 34, 0
2, 57840, Note_on_c, 0, 46, 80
2, 57840, Note_on_c, 0, 50, 80
2, 58067, Note_on_c, 0, 46, 0
2, 58067, Note_on_c, 0, 50, 0
2, 58080, Note_on_c, 0, 41, 80
2, 58307, Note_on_c, 0, 41, 0
2, 58320, Note_on_c, 0, 46, 80
2, 58320, Note_on_c, 0, 50, 80
2, 58547, Note_on_c, 0, 46, 0
2, 58547, Note_on_c, 0, 50, 0
2, 58560, Note_on_c, 0, 34, 80
2, 58787, Note_on_c, 0, 34, 0
2, 58800, Note_on_c, 0, 46, 80
2, 58800, Note_on_c, 0, 50, 80
2, 59027, Note_on_c, 0, 46, 0
2, 59027, Note_on_c, 0, 50, 0
2, 59040, Note_on_c, 0, 41, 80
2, 59267, Note_on_c, 0, 41, 0
2, 59280, Note_on_c, 0, 46, 80
2, 59280, Note_on_c, 0, 50, 80
2, 59507, Note_on_c, 0, 46, 0
2, 59507, Note_on_c, 0, 50, 0
2, 59520, Note_on_c, 0, 34, 80
2, 59747, Note_on_c, 0, 34, 0
2, 59760, Note_on_c, 0, 46, 80
2, 59760, Note_on_c, 0, 50, 80
2, 59987, Note_on_c, 0, 46, 0
2, 59987, Note_on_c, 0, 50, 0
2, 60000, Note_on_c, 0, 41, 80
2, 60227, Note_on_c, 0, 41, 0
2, 60240, Note_on_c, 0, 46, 80
2, 60240, Note_on_c, 0, 50, 80
2, 60467, Note_on_c, 0, 46, 0
2, 60467, Note_on_c, 0, 50, 0
2, 60480, Note_on_c, 0, 34, 80
2, 60707, Note_on_c, 0, 34, 0
2, 60720, Note_on_c, 0, 46, 80
2, 60720, Note_on_c, 0, 50, 80
2, 60947, Note_on_c, 0, 46, 0
2, 60947, Note_on_c, 0, 50, 0
2, 60960, Note_on_c, 0, 41, 80
2, 61187, Note_on_c, 0, 41, 0
2, 61200, Note_on_c, 0, 46, 80
2, 61200, Note_on_c, 0, 50, 80
2, 61427, Note_on_c, 0, 46, 0
2, 61427, Note_on_c, 0, 50, 0
2, 61440, Note_on_c, 0, 36, 80
2, 61667, Note_on_c, 0, 36, 0
2, 61680, Note_on_c, 0, 48, 80
2, 61680, Note_on_c, 0, 52, 80
2, 61907, Note_on_c, 0, 48, 0
2, 61907, Note_on_c, 0, 52, 0
2, 61920, Note_on_c, 0, 43, 80
2, 62147, Note_on_c, 0, 43, 0
2, 62160, Note_on_c, 0, 48, 80
2, 62160, Note_on_c, 0, 52, 80
2, 62387, Note_on_c, 0, 48, 0
2, 62387, Note_on_c, 0, 52, 0
2, 62400, Note_on_c, 0, 36, 80
2, 62627, Note_on_c, 0, 36, 0
2, 62640, Note_on_c, 0, 48, 80
2, 62640, Note_on_c, 0, 52, 80
2, 62867, Note_on_c, 0, 48, 0
2, 62867, Note_on_c, 0, 52, 0
2, 62880, Note_on_c, 0, 43, 80
2, 63107, Note_on_c, 0, 43, 0
2, 63120, Note_on_c, 0, 48, 80
2, 63120, Note_on_c, 0, 52, 80
2, 63347, Note_on_c, 0, 48, 0
2, 63347, Note_on_c, 0, 52, 0
2, 63360, Note_on_c, 0, 36, 80
2, 63587, Note_on_c, 0, 36, 0
2, 63600, Note_on_c, 0, 48, 80
2, 63600, Note_on_c, 0, 52, 80
2, 63827, Note_on_c, 0, 48, 0
2, 63827, Note_on_c, 0, 52, 0
2, 63840, Note_on_c, 0, 43, 80
2, 64067, Note_on_c, 0, 43, 0
2, 64080, Note_on_c, 0, 48, 80
2, 64080, Note_on_c, 0, 52, 80
2, 64307, Note_on_c, 0, 48, 0
2, 64307, Note_on_c, 0, 52, 0
2, 64320, Note_on_c, 0, 36, 80
2, 64547, Note_on_c, 0, 36, 0
2, 64560, Note_on_c, 0, 48, 80
2, 64560, Note_on_c, 0, 52, 80
2, 64787, Note_on_c, 0, 48, 0
2, 64787, Note_on_c, 0, 52, 0
2, 64800, Note_on_c, 0, 43, 80
2, 65027, Note_on_c, 0, 43, 0
2, 65040, Note_on_c, 0, 48, 80
2, 65040, Note_on_c, 0, 52, 80
2, 65267, Note_on_c, 0, 48, 0
2, 65267, Note_on_c, 0, 52, 0
2, 65280, Note_on_c, 0, 34, 80
2, 65507, Note_on_c, 0, 34, 0
2, 65520, Note_on_c, 0, 46, 80
2, 65520, Note_on_c, 0, 50, 80
2, 65747, Note_on_c, 0, 46, 0
2, 65747, Note_on_c, 0, 50, 0
2, 65760, Note_on_c, 0, 41, 80
2, 65987, Note_on_c, 0, 41, 0
2, 66000, Note_on_c, 0, 46, 80
2, 66000, Note_on_c, 0, 50, 80
2, 66227, Note_on_c, 0, 46, 0
2, 66227, Note_on_c, 0, 50, 0
2, 66240, Note_on_c, 0, 34, 80
2, 66467, Note_on_c, 0, 34, 0
2, 66480, Note_on_c, 0, 46, 80
2, 66480, Note_on_c, 0, 50, 80
2, 66707, Note_on_c, 0, 46, 0
2, 66707, Note_on_c, 0, 50, 0
2, 66720, Note_on_c, 0, 41, 80
2, 66947, Note_on_c, 0, 41, 0
2, 66960, Note_on_c, 0, 46, 80
2, 66960, Note_on_c, 0, 50, 80
2, 67187, Note_on_c, 0, 46, 0
2, 67187, Note_on_c, 0, 50, 0
2, 67200, Note_on_c, 0, 34, 80
2, 67427, Note_on_c, 0, 34, 0
2, 67440, Note_on_c, 0, 46, 80
2, 67440, Note_on_c, 0, 50, 80
2, 67667, Note_on_c, 0, 46, 0
2, 67667, Note_on_c, 0, 50, 0
2, 67680, Note_on_c, 0, 41, 80
2, 67907, Note_on_c, 0, 41, 0
2, 67920, Note_on_c, 0, 46, 80
2, 67920, Note_on_c, 0, 50, 80
2, 68147, Note_on_c, 0, 46, 0
2, 68147, Note_on_c, 0, 50, 0
2, 68160, Note_on_c, 0, 34, 80
2, 68387, Note_on_c, 0, 34, 0
2, 68400, Note_on_c, 0, 46, 80
2, 68400, Note_on_c, 0, 50, 80
2, 68627, Note_on_c, 0, 46, 0
2, 68627, Note_on_c, 0, 50, 0
2, 68640, Note_on_c, 0, 41, 80
2, 68867, Note_on_c, 0, 41, 0
2, 68880, Note_on_c, 0, 46, 80
2, 68880, Note_on_c, 0, 50, 80
2, 69107, Note_on_c, 0, 46, 0
2, 69107, Note_on_c, 0, 50, 0
2, 69120, Note_on_c, 0, 36, 80
2, 69347, Note_on_c, 0, 36, 0
2, 69360, Note_on_c, 0, 48, 80
2, 69360, Note_on_c, 0, 52, 80
2, 69587, Note_on_c, 0, 48, 0
2, 69587, Note_on_c, 0, 52, 0
2, 69600, Note_on_c, 0, 43, 80
2, 69827, Note_on_c, 0, 43, 0
2, 69840, Note_on_c, 0, 48, 80
2, 69840, Note_on_c, 0, 52, 80
2, 70067, Note_on_c, 0, 48, 0
2, 70067, Note_on_c, 0, 52, 0
2, 70080, Note_on_c, 0, 36, 80
2, 70307, Note_on_c, 0, 36, 0
2, 70320, Note_on_c, 0, 48, 80
2, 70320, Note_on_c, 0, 52, 80
2, 70547, Note_on_c, 0, 48, 0
2, 70547, Note_on_c, 0, 52, 0
2, 70560, Note_on_c, 0, 43, 80
2, 70787, Note_on_c, 0, 43, 0
2, 70800, Note_on_c, 0, 48, 80
2, 70800, Note_on_c, 0, 52, 80
2, 71027, Note_on_c, 0, 48, 0
2, 71027, Note_on_c, 0, 52, 0
2, 71040, Note_on_c, 0, 36, 80
2, 71267, Note_on_c, 0, 36, 0
2, 71280, Note_on_c, 0, 48, 80
2, 71280, Note_on_c, 0, 52, 80
2, 71507, Note_on_c, 0, 48, 0
2, 71507, Note_on_c, 0, 52, 0
2, 71520, Note_on_c, 0, 43, 80
2, 71747, Note_on_c, 0, 43, 0
2, 71760, Note_on_c, 0, 48, 80
2, 71760, Note_on_c, 0, 52, 80
2, 71987, Note_on_c, 0, 48, 0
2, 71987, Note_on_c, 0, 52, 0
2, 72000, Note_on_c, 0, 36, 80
2, 72227, Note_on_c, 0, 36, 0
2, 72240, Note_on_c, 0, 48, 80
2, 72240, Note_on_c, 0, 52, 80
2, 72467, Note_on_c, 0, 48, 0
2, 72467, Note_on_c, 0, 52, 0
2, 72480, Note_on_c, 0, 43, 80
2, 72707, Note_on_c, 0, 43, 0
2, 72720, Note_on_c, 0, 48, 80
2, 72720, Note_on_c, 0, 52, 80
2, 72947, Note_on_c, 0, 48, 0
2, 72947, Note_on_c, 0, 52, 0
2, 72960, Note_on_c, 0, 34, 80
2, 72960, Note_on_c, 0, 46, 80
2, 73415, Note_on_c, 0, 34, 0
2, 73415, Note_on_c, 0, 46, 0
2, 73440, Note_on_c, 0, 50, 80
2, 73440, Note_on_c, 0, 53, 80
2, 73440, Note_on_c, 0, 58, 80
2, 73895, Note_on_c, 0, 50, 0
2, 73895, Note_on_c, 0, 53, 0
2, 73895, Note_on_c, 0, 58, 0
2, 73920, Note_on_c, 0, 34, 80
2, 73920, Note_on_c, 0, 46, 80
2, 74375, Note_on_c, 0, 34, 0
2, 74375, Note_on_c, 0, 46, 0
2, 74400, Note_on_c, 0, 50, 80
2, 74400, Note_on_c, 0, 53, 80
2, 74400, Note_on_c, 0, 58, 80
2, 74855, Note_on_c, 0, 50, 0
2, 74855, Note_on_c, 0, 53, 0
2, 74855, Note_on_c, 0, 58, 0
2, 74880, Note_on_c, 0, 36, 80
2, 74880, Note_on_c, 0, 48, 80
2, 75335, Note_on_c, 0, 36, 0
2, 75335, Note_on_c, 0, 48, 0
2, 75360, Note_on_c, 0, 52, 80
2, 75360, Note_on_c, 0, 55, 80
2, 75360, Note_on_c, 0, 60, 80
2, 75815, Note_on_c, 0, 52, 0
2, 75815, Note_on_c, 0, 55, 0
2, 75815, Note_on_c, 0, 60, 0
2, 75840, Note_on_c, 0, 36, 80
2, 75840, Note_on_c, 0, 48, 80
2, 76295, Note_on_c, 0, 36, 0
2, 76295, Note_on_c, 0, 48, 0
2, 76320, Note_on_c, 0, 52, 80
2, 76320, Note_on_c, 0, 55, 80
2, 76320, Note_on_c, 0, 60, 80
2, 76775, Note_on_c, 0, 52, 0
2, 76775, Note_on_c, 0, 55, 0
2, 76775, Note_on_c, 0, 60, 0
2, 76800, Note_on_c, 0, 38, 80
2, 76800, Note_on_c, 0, 50, 80
2, 77027, Note_on_c, 0, 38, 0
2, 77040, Note_on_c, 0, 45, 80
2, 77255, Note_on_c, 0, 50, 0
2, 77267, Note_on_c, 0, 45, 0
2, 77280, Note_on_c, 0, 41, 80
2, 77280, Note_on_c, 0, 53, 80
2, 77507, Note_on_c, 0, 41, 0
2, 77520, Note_on_c, 0, 48, 80
2, 77735, Note_on_c, 0, 53, 0
2, 77747, Note_on_c, 0, 48, 0
2, 77760, Note_on_c, 0, 45, 80
2, 77760, Note_on_c, 0, 57, 80
2, 77987, Note_on_c, 0, 45, 0
2, 78000, Note_on_c, 0, 48, 80
2, 78215, Note_on_c, 0, 57, 0
2, 78227, Note_on_c, 0, 48, 0
2, 78240, Note_on_c, 0, 41, 80
2, 78240, Note_on_c, 0, 53, 80
2, 78467, Note_on_c, 0, 41, 0
2, 78480, Note_on_c, 0, 45, 80
2, 78695, Note_on_c, 0, 53, 0
2, 78707, Note_on_c, 0, 45, 0
2, 78720, Note_on_c, 0, 38, 80
2, 78720, Note_on_c, 0, 50, 80
2, 78947, Note_on_c, 0, 38, 0
2, 78960, Note_on_c, 0, 45, 80
2, 79175, Note_on_c, 0, 50, 0
2, 79187, Note_on_c, 0, 45, 0
2, 79200, Note_on_c, 0, 41, 80
2, 79200, Note_on_c, 0, 53, 80
2, 79427, Note_on_c, 0, 41, 0
2, 79440, Note_on_c, 0, 48, 80
2, 79655, Note_on_c, 0, 53, 0
2, 79667, Note_on_c, 0, 48, 0
2, 79680, Note_on_c, 0, 45, 80
2, 79680, Note_on_c, 0, 57, 80
2, 79907, Note_on_c, 0, 45, 0
2, 79920, Note_on_c, 0, 48, 80
2, 80135, Note_on_c, 0, 57, 0
2, 80147, Note_on_c, 0, 48, 0
2, 80160, Note_on_c, 0, 41, 80
2, 80160, Note_on_c, 0, 53, 80
2, 80387, Note_on_c, 0, 41, 0
2, 80400, Note_on_c, 0, 45, 80
2, 80615, Note_on_c, 0, 53, 0
2, 80627, Note_on_c, 0, 45, 0
2, 80640, Note_on_c, 0, 34, 80
2, 80640, Note_on_c, 0, 46, 80
2, 80867, Note_on_c, 0, 34, 0
2, 80867, Note_on_c, 0, 46, 0
2, 80880, Note_on_c, 0, 34, 80
2, 80880, Note_on_c, 0, 46, 80
2, 81107, Note_on_c, 0, 34, 0
2, 81107, Note_on_c, 0, 46, 0
2, 81360, Note_on_c, 0, 34, 80
2, 81360, Note_on_c, 0, 46, 80
2, 81587, Note_on_c, 0, 34, 0
2, 81587, Note_on_c, 0, 46, 0
2, 81840, Note_on_c, 0, 34, 80
2, 81840, Note_on_c, 0, 46, 80
2, 82067, Note_on_c, 0, 34, 0
2, 82067, Note_on_c, 0, 46, 0
2, 82320, Note_on_c, 0, 31, 80
2, 82320, Note_on_c, 0, 43, 80
2, 82775, Note_on_c, 0, 43, 0
2, 82800, Note_on_c, 0, 43, 80
2, 83027, Note_on_c, 0, 43, 0
2, 83040, Note_on_c, 0, 43, 80
2, 83267, Note_on_c, 0, 43, 0
2, 83280, Note_on_c, 0, 43, 80
2, 83507, Note_on_c, 0, 43, 0
2, 83520, Note_on_c, 0, 43, 80
2, 83520, Note_on_c, 0, 55, 80
2, 83747, Note_on_c, 0, 43, 0
2, 83747, Note_on_c, 0, 55, 0
2, 83760, Note_on_c, 0, 43, 80
2, 83760, Note_on_c, 0, 55, 80
2, 83987, Note_on_c, 0, 43, 0
2, 83987, Note_on_c, 0, 55, 0
2, 84000, Note_on_c, 0, 43, 80
2, 84000, Note_on_c, 0, 55, 80
2, 84227, Note_on_c, 0, 43, 0
2, 84227, Note_on_c, 0, 55, 0
2, 84240, Note_on_c, 0, 43, 80
2, 84240, Note_on_c, 0, 55, 80
2, 84371, Note_on_c, 0, 31, 0
2, 84467, Note_on_c, 0, 43, 0
2, 84467, Note_on_c, 0, 55, 0
2, 84480, Note_on_c, 0, 45, 80
2, 84480, Note_on_c, 0, 57, 80
2, 86303, Note_on_c, 0, 45, 0
2, 86303, Note_on_c, 0, 57, 0
2, 86400, Note_on_c, 0, 33, 80
2, 86400, Note_on_c, 0, 45, 80
2, 86640, Note_on_c, 0, 45, 80
2, 86640, Note_on_c, 0, 55, 80
2, 86867, Note_on_c, 0, 45, 0
2, 86867, Note_on_c, 0, 55, 0
2, 86880, Note_on_c, 0, 45, 80
2, 86880, Note_on_c, 0, 55, 80
2, 87107, Note_on_c, 0, 45, 0
2, 87107, Note_on_c, 0, 55, 0
2, 87360, Note_on_c, 0, 45, 80
2, 87360, Note_on_c, 0, 55, 80
2, 87587, Note_on_c, 0, 45, 0
2, 87587, Note_on_c, 0, 55, 0
2, 87600, Note_on_c, 0, 45, 80
2, 87600, Note_on_c, 0, 55, 80
2, 87827, Note_on_c, 0, 45, 0
2, 87827, Note_on_c, 0, 55, 0
2, 88080, Note_on_c, 0, 45, 80
2, 88080, Note_on_c, 0, 55, 80
2, 88223, Note_on_c, 0, 33, 0
2, 88223, Note_on_c, 0, 45, 0
2, 88307, Note_on_c, 0, 45, 0
2, 88307, Note_on_c, 0, 55, 0
2, 88320, Note_on_c, 0, 45, 80
2, 88320, Note_on_c, 0, 55, 80
2, 88547, Note_on_c, 0, 45, 0
2, 88547, Note_on_c, 0, 55, 0
2, 88800, Note_on_c, 0, 45, 80
2, 88800, Note_on_c, 0, 55, 80
2, 89027, Note_on_c, 0, 45, 0
2, 89027, Note_on_c, 0, 55, 0
2, 89040, Note_on_c, 0, 45, 80
2, 89040, Note_on_c, 0, 55, 80
2, 89267, Note_on_c, 0, 45, 0
2, 89267, Note_on_c, 0, 55, 0
2, 89520, Note_on_c, 0, 33, 80
2, 89520, Note_on_c, 0, 45, 80
2, 90203, Note_on_c, 0, 33, 0
2, 90203, Note_on_c, 0, 45, 0
2, 90240, Note_on_c, 0, 34, 80
2, 90240, Note_on_c, 0, 46, 80
2, 90480, Note_on_c, 0, 53, 80
2, 90480, Note_on_c, 0, 58, 80
2, 90707, Note_on_c, 0, 53, 0
2, 90707, Note_on_c, 0, 58, 0
2, 90720, Note_on_c, 0, 46, 80
2, 90947, Note_on_c, 0, 46, 0
2, 90960, Note_on_c, 0, 53, 80
2, 90960, Note_on_c, 0, 58, 80
2, 91187, Note_on_c, 0, 53, 0
2, 91187, Note_on_c, 0, 58, 0
2, 91200, Note_on_c, 0, 46, 80
2, 91427, Note_on_c, 0, 46, 0
2, 91440, Note_on_c, 0, 53, 80
2, 91440, Note_on_c, 0, 58, 80
2, 91667, Note_on_c, 0, 53, 0
2, 91667, Note_on_c, 0, 58, 0
2, 91680, Note_on_c, 0, 46, 80
2, 91907, Note_on_c, 0, 46, 0
2, 91920, Note_on_c, 0, 53, 80
2, 91920, Note_on_c, 0, 58, 80
2, 92063, Note_on_c, 0, 34, 0
2, 92063, Note_on_c, 0, 46, 0
2, 92147, Note_on_c, 0, 53, 0
2, 92147, Note_on_c, 0, 58, 0
2, 92160, Note_on_c, 0, 36, 80
2, 92160, Note_on_c, 0, 48, 80
2, 92400, Note_on_c, 0, 52, 80
2, 92400, Note_on_c, 0, 55, 80
2, 92627, Note_on_c, 0, 52, 0
2, 92627, Note_on_c, 0, 55, 0
2, 92640, Note_on_c, 0, 48, 80
2, 92867, Note_on_c, 0, 48, 0
2, 92880, Note_on_c, 0, 52, 80
2, 92880, Note_on_c, 0, 55, 80
2, 93107, Note_on_c, 0, 52, 0
2, 93107, Note_on_c, 0, 55, 0
2, 93120, Note_on_c, 0, 48, 80
2, 93347, Note_on_c, 0, 48, 0
2, 93360, Note_on_c, 0, 52, 80
2, 93360, Note_on_c, 0, 55, 80
2, 93587, Note_on_c, 0, 52, 0
2, 93587, Note_on_c, 0, 55, 0
2, 93600, Note_on_c, 0, 48, 80
2, 93827, Note_on_c, 0, 48, 0
2, 93840, Note_on_c, 0, 52, 80
2, 93840, Note_on_c, 0, 55, 80
2, 93983, Note_on_c, 0, 36, 0
2, 93983, Note_on_c, 0, 48, 0
2, 94067, Note_on_c, 0, 52, 0
2, 94067, Note_on_c, 0, 55, 0
2, 94080, Note_on_c, 0, 38, 80
2, 94080, Note_on_c, 0, 50, 80
2, 94320, Note_on_c, 0, 53, 80
2, 94320, Note_on_c, 0, 57, 80
2, 94547, Note_on_c, 0, 53, 0
2, 94547, Note_on_c, 0, 57, 0
2, 94560, Note_on_c, 0, 50, 80
2, 94787, Note_on_c, 0, 50, 0
2, 94800, Note_on_c, 0, 53, 80
2, 94800, Note_on_c, 0, 57, 80
2, 95027, Note_on_c, 0, 53, 0
2, 95027, Note_on_c, 0, 57, 0
2, 95040, Note_on_c, 0, 50, 80
2, 95267, Note_on_c, 0, 50, 0
2, 95280, Note_on_c, 0, 53, 80
2, 95280, Note_on_c, 0, 57, 80
2, 95507, Note_on_c, 0, 53, 0
2, 95507, Note_on_c, 0, 57, 0
2, 95520, Note_on_c, 0, 50, 80
2, 95747, Note_on_c, 0, 50, 0
2, 95760, Note_on_c, 0, 53, 80
2, 95760, Note_on_c, 0, 57, 80
2, 95903, Note_on_c, 0, 38, 0
2, 95903, Note_on_c, 0, 50, 0
2, 95987, Note_on_c, 0, 53, 0
2, 95987, Note_on_c, 0, 57, 0
2, 96000, Note_on_c, 0, 36, 80
2, 96000, Note_on_c, 0, 48, 80
2, 96240, Note_on_c, 0, 52, 80
2, 96240, Note_on_c, 0, 55, 80
2, 96467, Note_on_c, 0, 52, 0
2, 96467, Note_on_c, 0, 55, 0
2, 96480, Note_on_c, 0, 48, 80
2, 96707, Note_on_c, 0, 48, 0
2, 96720, Note_on_c, 0, 52, 80
2, 96720, Note_on_c, 0, 55, 80
2, 96947, Note_on_c, 0, 52, 0
2, 96947, Note_on_c, 0, 55, 0
2, 96960, Note_on_c, 0, 43, 80
2, 97187, Note_on_c, 0, 43, 0
2, 97200, Note_on_c, 0, 52, 80
2, 97200, Note_on_c, 0, 55, 80
2, 97427, Note_on_c, 0, 52, 0
2, 97427, Note_on_c, 0, 55, 0
2, 97440, Note_on_c, 0, 45, 80
2, 97667, Note_on_c, 0, 45, 0
2, 97680, Note_on_c, 0, 52, 80
2, 97680, Note_on_c, 0, 55, 80
2, 97823, Note_on_c, 0, 36, 0
2, 97823, Note_on_c, 0, 48, 0
2, 97907, Note_on_c, 0, 52, 0
2, 97907, Note_on_c, 0, 55, 0
2, 97920, Note_on_c, 0, 34, 80
2, 97920, Note_on_c, 0, 46, 80
2, 98160, Note_on_c, 0, 53, 80
2, 98160, Note_on_c, 0, 58, 80
2, 98387, Note_on_c, 0, 53, 0
2, 98387, Note_on_c, 0, 58, 0
2, 98400, Note_on_c, 0, 46, 80
2, 98627, Note_on_c, 0, 46, 0
2, 98640, Note_on_c, 0, 53, 80
2, 98640, Note_on_c, 0, 58, 80
2, 98867, Note_on_c, 0, 53, 0
2, 98867, Note_on_c, 0, 58, 0
2, 98880, Note_on_c, 0, 46, 80
2, 99107, Note_on_c, 0, 46, 0
2, 99120, Note_on_c, 0, 53, 80
2, 99120, Note_on_c, 0, 58, 80
2, 99347, Note_on_c, 0, 53, 0
2, 99347, Note_on_c, 0, 58, 0
2, 99360, Note_on_c, 0, 46, 80
2, 99587, Note_on_c, 0, 46, 0
2, 99600, Note_on_c, 0, 53, 80
2, 99600, Note_on_c, 0, 58, 80
2, 99743, Note_on_c, 0, 34, 0
2, 99743, Note_on_c, 0, 46, 0
2, 99827, Note_on_c, 0, 53, 0
2, 99827, Note_on_c, 0, 58, 0
2, 99840, Note_on_c, 0, 33, 80
2, 99840, Note_on_c, 0, 45, 80
2, 100080, Note_on_c, 0, 49, 80
2, 100080, Note_on_c, 0, 52, 80
2, 100307, Note_on_c, 0, 49, 0
2, 100307, Note_on_c, 0, 52, 0
2, 100320, Note_on_c, 0, 45, 80
2, 100547, Note_on_c, 0, 45, 0
2, 100560, Note_on_c, 0, 49, 80
2, 100560, Note_on_c, 0, 52, 80
2, 100787, Note_on_c, 0, 49, 0
2, 100787, Note_on_c, 0, 52, 0
2, 100800, Note_on_c, 0, 45, 80
2, 101027, Note_on_c, 0, 45, 0
2, 101040, Note_on_c, 0, 49, 80
2, 101040, Note_on_c, 0, 52, 80
2, 101267, Note_on_c, 0, 49, 0
2, 101267, Note_on_c, 0, 52, 0
2, 101280, Note_on_c, 0, 45, 80
2, 101507, Note_on_c, 0, 45, 0
2, 101520, Note_on_c, 0, 49, 80
2, 101520, Note_on_c, 0, 52, 80
2, 101663, Note_on_c, 0, 33, 0
2, 101663, Note_on_c, 0, 45, 0
2, 101747, Note_on_c, 0, 49, 0
2, 101747, Note_on_c, 0, 52, 0
2, 101760, Note_on_c, 0, 38, 80
2, 101760, Note_on_c, 0, 50, 80
2, 102000, Note_on_c, 0, 53, 80
2, 102000, Note_on_c, 0, 57, 80
2, 102227, Note_on_c, 0, 53, 0
2, 102227, Note_on_c, 0, 57, 0
2, 102240, Note_on_c, 0, 50, 80
2, 102467, Note_on_c, 0, 50, 0
2, 102480, Note_on_c, 0, 53, 80
2, 102480, Note_on_c, 0, 57, 80
2, 102707, Note_on_c, 0, 53, 0
2, 102707, Note_on_c, 0, 57, 0
2, 102720, Note_on_c, 0, 50, 80
2, 102947, Note_on_c, 0, 50, 0
2, 102960, Note_on_c, 0, 53, 80
2, 102960, Note_on_c, 0, 57, 80
2, 103187, Note_on_c, 0, 53, 0
2, 103187, Note_on_c, 0, 57, 0
2, 103200, Note_on_c, 0, 50, 80
2, 103427, Note_on_c, 0, 50, 0
2, 103440, Note_on_c, 0, 53, 80
2, 103440, Note_on_c, 0, 57, 80
2, 103583, Note_on_c, 0, 38, 0
2, 103583, Note_on_c, 0, 50, 0
2, 103667, Note_on_c, 0, 53, 0
2, 103667, Note_on_c, 0, 57, 0
2, 103680, Note_on_c, 0, 36, 80
2, 103680, Note_on_c, 0, 48, 80
2, 103920, Note_on_c, 0, 52, 80
2, 103920, Note_on_c, 0, 55, 80
2, 104147, Note_on_c, 0, 52, 0
2, 104147, Note_on_c, 0, 55, 0
2, 104160, Note_on_c, 0, 48, 80
2, 104387, Note_on_c, 0, 48, 0
2, 104400, Note_on_c, 0, 52, 80
2, 104400, Note_on_c, 0, 55, 80
2, 104627, Note_on_c, 0, 52, 0
2, 104627, Note_on_c, 0, 55, 0
2, 104640, Note_on_c, 0, 43, 80
2, 104867, Note_on_c, 0, 43, 0
2, 104880, Note_on_c, 0, 52, 80
2, 104880, Note_on_c, 0, 55, 80
2, 105107, Note_on_c, 0, 52, 0
2, 105107, Note_on_c, 0, 55, 0
2, 105120, Note_on_c, 0, 45, 80
2, 105347, Note_on_c, 0, 45, 0
2, 105360, Note_on_c, 0, 52, 80
2, 105360, Note_on_c, 0, 55, 80
2, 105503, Note_on_c, 0, 36, 0
2, 105503, Note_on_c, 0, 48, 0
2, 105587, Note_on_c, 0, 52, 0
2, 105587, Note_on_c, 0, 55, 0
2, 105600, Note_on_c, 0, 34, 80
2, 105600, Note_on_c, 0, 46, 80
2, 105840, Note_on_c, 0, 53, 80
2, 105840, Note_on_c, 0, 58, 80
2, 106067, Note_on_c, 0, 53, 0
2, 106067, Note_on_c, 0, 58, 0
2, 106080, Note_on_c, 0, 46, 80
2, 106307, Note_on_c, 0, 46, 0
2, 106320, Note_on_c, 0, 53, 80
2, 106320, Note_on_c, 0, 58, 80
2, 106547, Note_on_c, 0, 53, 0
2, 106547, Note_on_c, 0, 58, 0
2, 106560, Note_on_c, 0, 46, 80
2, 106787, Note_on_c, 0, 46, 0
2, 106800, Note_on_c, 0, 53, 80
2, 106800, Note_on_c, 0, 58, 80
2, 107027, Note_on_c, 0, 53, 0
2, 107027, Note_on_c, 0, 58, 0
2, 107040, Note_on_c, 0, 46, 80
2, 107267, Note_on_c, 0, 46, 0
2, 107280, Note_on_c, 0, 53, 80
2, 107280, Note_on_c, 0, 58, 80
2, 107423, Note_on_c, 0, 34, 0
2, 107423, Note_on_c, 0, 46, 0
2, 107507, Note_on_c, 0, 53, 0
2, 107507, Note_on_c, 0, 58, 0
2, 107520, Note_on_c, 0, 36, 80
2, 107520, Note_on_c, 0, 48, 80
2, 107760, Note_on_c, 0, 52, 80
2, 107760, Note_on_c, 0, 55, 80
2, 107987, Note_on_c, 0, 52, 0
2, 107987, Note_on_c, 0, 55, 0
2, 108000, Note_on_c, 0, 48, 80
2, 108227, Note_on_c, 0, 48, 0
2, 108240, Note_on_c, 0, 52, 80
2, 108240, Note_on_c, 0, 55, 80
2, 108467, Note_on_c, 0, 52, 0
2, 108467, Note_on_c, 0, 55, 0
2, 108480, Note_on_c, 0, 48, 80
2, 108707, Note_on_c, 0, 48, 0
2, 108720, Note_on_c, 0, 52, 80
2, 108720, Note_on_c, 0, 55, 80
2, 108947, Note_on_c, 0, 52, 0
2, 108947, Note_on_c, 0, 55, 0
2, 108960, Note_on_c, 0, 48, 80
2, 109187, Note_on_c, 0, 48, 0
2, 109200, Note_on_c, 0, 52, 80
2, 109200, Note_on_c, 0, 55, 80
2, 109343, Note_on_c, 0, 36, 0
2, 109343, Note_on_c, 0, 48, 0
2, 109427, Note_on_c, 0, 52, 0
2, 109427, Note_on_c, 0, 55, 0
2, 109440, Note_on_c, 0, 33, 80
2, 109440, Note_on_c, 0, 45, 80
2, 109680, Note_on_c, 0, 49, 80
2, 109680, Note_on_c, 0, 52, 80
2, 109907, Note_on_c, 0, 49, 0
2, 109907, Note_on_c, 0, 52, 0
2, 109920, Note_on_c, 0, 45, 80
2, 110147, Note_on_c, 0, 45, 0
2, 110160, Note_on_c, 0, 49, 80
2, 110160, Note_on_c, 0, 52, 80
2, 110387, Note_on_c, 0, 49, 0
2, 110387, Note_on_c, 0, 52, 0
2, 110400, Note_on_c, 0, 45, 80
2, 110627, Note_on_c, 0, 45, 0
2, 110640, Note_on_c, 0, 49, 80
2, 110640, Note_on_c, 0, 52, 80
2, 110867, Note_on_c, 0, 49, 0
2, 110867, Note_on_c, 0, 52, 0
2, 110880, Note_on_c, 0, 45, 80
2, 111107, Note_on_c, 0, 45, 0
2, 111120, Note_on_c, 0, 49, 80
2, 111120, Note_on_c, 0, 52, 80
2, 111263, Note_on_c, 0, 33, 0
2, 111263, Note_on_c, 0, 45, 0
2, 111347, Note_on_c, 0, 49, 0
2, 111347, Note_on_c, 0, 52, 0
2, 111360, Note_on_c, 0, 38, 80
2, 111360, Note_on_c, 0, 50, 80
2, 111600, Note_on_c, 0, 53, 80
2, 111600, Note_on_c, 0, 57, 80
2, 111827, Note_on_c, 0, 53, 0
2, 111827, Note_on_c, 0, 57, 0
2, 111840, Note_on_c, 0, 50, 80
2, 112067, Note_on_c, 0, 50, 0
2, 112080, Note_on_c, 0, 53, 80
2, 112080, Note_on_c, 0, 57, 80
2, 112307, Note_on_c, 0, 53, 0
2, 112307, Note_on_c, 0, 57, 0
2, 112320, Note_on_c, 0, 50, 80
2, 112547, Note_on_c, 0, 50, 0
2, 112560, Note_on_c, 0, 53, 80
2, 112560, Note_on_c, 0, 57, 80
2, 112787, Note_on_c, 0, 53, 0
2, 112787, Note_on_c, 0, 57, 0
2, 112800, Note_on_c, 0, 48, 80
2, 113027, Note_on_c, 0, 48, 0
2, 113040, Note_on_c, 0, 53, 80
2, 113040, Note_on_c, 0, 57, 80
2, 113183, Note_on_c, 0, 38, 0
2, 113183, Note_on_c, 0, 50, 0
2, 113267, Note_on_c, 0, 53, 0
2, 113267, Note_on_c, 0, 57, 0
2, 113280, Note_on_c, 0, 53, 80
2, 113280, Note_on_c, 0, 57, 80
2, 113280, Note_on_c, 0, 58, 80
2, 113280, Note_on_c, 0, 34, 80
2, 113280, Note_on_c, 0, 46, 80
2, 113507, Note_on_c, 0, 53, 0
2, 113507, Note_on_c, 0, 57, 0
2, 113507, Note_on_c, 0, 58, 0
2, 113507, Note_on_c, 0, 34, 0
2, 113507, Note_on_c, 0, 46, 0
2, 113520, Note_on_c, 0, 53, 80
2, 113520, Note_on_c, 0, 57, 80
2, 113520, Note_on_c, 0, 58, 80
2, 113520, Note_on_c, 0, 34, 80
2, 113520, Note_on_c, 0, 46, 80
2, 113747, Note_on_c, 0, 53, 0
2, 113747, Note_on_c, 0, 57, 0
2, 113747, Note_on_c, 0, 58, 0
2, 113760, Note_on_c, 0, 46, 80
2, 113987, Note_on_c, 0, 46, 0
2, 114000, Note_on_c, 0, 53, 80
2, 114000, Note_on_c, 0, 58, 80
2, 114227, Note_on_c, 0, 53, 0
2, 114227, Note_on_c, 0, 58, 0
2, 114240, Note_on_c, 0, 46, 80
2, 114467, Note_on_c, 0, 46, 0
2, 114480, Note_on_c, 0, 53, 80
2, 114480, Note_on_c, 0, 58, 80
2, 114707, Note_on_c, 0, 53, 0
2, 114707, Note_on_c, 0, 58, 0
2, 114720, Note_on_c, 0, 46, 80
2, 114947, Note_on_c, 0, 46, 0
2, 114960, Note_on_c, 0, 53, 80
2, 114960, Note_on_c, 0, 58, 80
2, 115115, Note_on_c, 0, 34, 0
2, 115115, Note_on_c, 0, 46, 0
2, 115187, Note_on_c, 0, 53, 0
2, 115187, Note_on_c, 0, 58, 0
2, 115200, Note_on_c, 0, 46, 80
2, 115427, Note_on_c, 0, 46, 0
2, 115440, Note_on_c, 0, 53, 80
2, 115440, Note_on_c, 0, 58, 80
2, 115667, Note_on_c, 0, 53, 0
2, 115667, Note_on_c, 0, 58, 0
2, 115680, Note_on_c, 0, 46, 80
2, 115907, Note_on_c, 0, 46, 0
2, 115920, Note_on_c, 0, 53, 80
2, 115920, Note_on_c, 0, 58, 80
2, 116147, Note_on_c, 0, 53, 0
2, 116147, Note_on_c, 0, 58, 0
2, 116160, Note_on_c, 0, 46, 80
2, 116387, Note_on_c, 0, 46, 0
2, 116400, Note_on_c, 0, 53, 80
2, 116400, Note_on_c, 0, 58, 80
2, 116627, Note_on_c, 0, 53, 0
2, 116627, Note_on_c, 0, 58, 0
2, 116640, Note_on_c, 0, 46, 80
2, 116867, Note_on_c, 0, 46, 0
2, 116880, Note_on_c, 0, 53, 80
2, 116880, Note_on_c, 0, 58, 80
2, 117107, Note_on_c, 0, 53, 0
2, 117107, Note_on_c, 0, 58, 0
2, 117120, Note_on_c, 0, 55, 80
2, 117120, Note_on_c, 0, 58, 80
2, 117120, Note_on_c, 0, 60, 80
2, 117120, Note_on_c, 0, 36, 80
2, 117120, Note_on_c, 0, 48, 80
2, 117347, Note_on_c, 0, 55, 0
2, 117347, Note_on_c, 0, 58, 0
2, 117347, Note_on_c, 0, 60, 0
2, 117347, Note_on_c, 0, 36, 0
2, 117347, Note_on_c, 0, 48, 0
2, 117360, Note_on_c, 0, 55, 80
2, 117360, Note_on_c, 0, 58, 80
2, 117360, Note_on_c, 0, 60, 80
2, 117360, Note_on_c, 0, 36, 80
2, 117360, Note_on_c, 0, 48, 80
2, 117587, Note_on_c, 0, 55, 0
2, 117587, Note_on_c, 0, 58, 0
2, 117587, Note_on_c, 0, 60, 0
2, 117600, Note_on_c, 0, 48, 80
2, 117827, Note_on_c, 0, 48, 0
2, 117840, Note_on_c, 0, 52, 80
2, 117840, Note_on_c, 0, 55, 80
2, 118067, Note_on_c, 0, 52, 0
2, 118067, Note_on_c, 0, 55, 0
2, 118080, Note_on_c, 0, 48, 80
2, 118307, Note_on_c, 0, 48, 0
2, 118320, Note_on_c, 0, 52, 80
2, 118320, Note_on_c, 0, 55, 80
2, 118547, Note_on_c, 0, 52, 0
2, 118547, Note_on_c, 0, 55, 0
2, 118560, Note_on_c, 0, 48, 80
2, 118787, Note_on_c, 0, 48, 0
2, 118800, Note_on_c, 0, 52, 80
2, 118800, Note_on_c, 0, 55, 80
2, 118955, Note_on_c, 0, 36, 0
2, 118955, Note_on_c, 0, 48, 0
2, 119027, Note_on_c, 0, 52, 0
2, 119027, Note_on_c, 0, 55, 0
2, 119040, Note_on_c, 0, 48, 80
2, 119267, Note_on_c, 0, 48, 0
2, 119280, Note_on_c, 0, 52, 80
2, 119280, Note_on_c, 0, 55, 80
2, 119507, Note_on_c, 0, 52, 0
2, 119507, Note_on_c, 0, 55, 0
2, 119520, Note_on_c, 0, 48, 80
2, 119747, Note_on_c, 0, 48, 0
2, 119760, Note_on_c, 0, 52, 80
2, 119760, Note_on_c, 0, 55, 80
2, 119987, Note_on_c, 0, 52, 0
2, 119987, Note_on_c, 0, 55, 0
2, 120000, Note_on_c, 0, 48, 80
2, 120227, Note_on_c, 0, 48, 0
2, 120240, Note_on_c, 0, 52, 80
2, 120240, Note_on_c, 0, 55, 80
2, 120467, Note_on_c, 0, 52, 0
2, 120467, Note_on_c, 0, 55, 0
2, 120480, Note_on_c, 0, 48, 80
2, 120707, Note_on_c, 0, 48, 0
2, 120720, Note_on_c, 0, 52, 80
2, 120720, Note_on_c, 0, 55, 80
2, 120947, Note_on_c, 0, 52, 0
2, 120947, Note_on_c, 0, 55, 0
2, 120960, Note_on_c, 0, 38, 80
2, 121187, Note_on_c, 0, 38, 0
2, 121200, Note_on_c, 0, 45, 80
2, 121200, Note_on_c, 0, 50, 80
2, 121427, Note_on_c, 0, 45, 0
2, 121427, Note_on_c, 0, 50, 0
2, 121440, Note_on_c, 0, 38, 80
2, 121667, Note_on_c, 0, 38, 0
2, 121680, Note_on_c, 0, 45, 80
2, 121680, Note_on_c, 0, 50, 80
2, 121907, Note_on_c, 0, 45, 0
2, 121907, Note_on_c, 0, 50, 0
2, 121920, Note_on_c, 0, 38, 80
2, 122147, Note_on_c, 0, 38, 0
2, 122160, Note_on_c, 0, 45, 80
2, 122160, Note_on_c, 0, 50, 80
2, 122387, Note_on_c, 0, 45, 0
2, 122387, Note_on_c, 0, 50, 0
2, 122400, Note_on_c, 0, 38, 80
2, 122627, Note_on_c, 0, 38, 0
2, 122640, Note_on_c, 0, 45, 80
2, 122640, Note_on_c, 0, 50, 80
2, 122867, Note_on_c, 0, 45, 0
2, 122867, Note_on_c, 0, 50, 0
2, 122880, Note_on_c, 0, 45, 80
2, 122880, Note_on_c, 0, 57, 80
2, 123107, Note_on_c, 0, 45, 0
2, 123107, Note_on_c, 0, 57, 0
2, 123120, Note_on_c, 0, 50, 80
2, 123347, Note_on_c, 0, 50, 0
2, 123360, Note_on_c, 0, 43, 80
2, 123360, Note_on_c, 0, 55, 80
2, 123587, Note_on_c, 0, 43, 0
2, 123587, Note_on_c, 0, 55, 0
2, 123600, Note_on_c, 0, 50, 80
2, 123827, Note_on_c, 0, 50, 0
2, 123840, Note_on_c, 0, 41, 80
2, 123840, Note_on_c, 0, 53, 80
2, 124067, Note_on_c, 0, 41, 0
2, 124067, Note_on_c, 0, 53, 0
2, 124080, Note_on_c, 0, 50, 80
2, 124307, Note_on_c, 0, 50, 0
2, 124320, Note_on_c, 0, 40, 80
2, 124320, Note_on_c, 0, 52, 80
2, 124547, Note_on_c, 0, 40, 0
2, 124547, Note_on_c, 0, 52, 0
2, 124560, Note_on_c, 0, 50, 80
2, 124787, Note_on_c, 0, 50, 0
2, 124800, Note_on_c, 0, 38, 80
2, 125027, Note_on_c, 0, 38, 0
2, 125040, Note_on_c, 0, 45, 80
2, 125040, Note_on_c, 0, 50, 80
2, 125267, Note_on_c, 0, 45, 0
2, 125267, Note_on_c, 0, 50, 0
2, 125280, Note_on_c, 0, 38, 80
2, 125507, Note_on_c, 0, 38, 0
2, 125520, Note_on_c, 0, 45, 80
2, 125520, Note_on_c, 0, 50, 80
2, 125747, Note_on_c, 0, 45, 0
2, 125747, Note_on_c, 0, 50, 0
2, 125760, Note_on_c, 0, 38, 80
2, 125987, Note_on_c, 0, 38, 0
2, 126000, Note_on_c, 0, 45, 80
2, 126000, Note_on_c, 0, 50, 80
2, 126227, Note_on_c, 0, 45, 0
2, 126227, Note_on_c, 0, 50, 0
2, 126240, Note_on_c, 0, 38, 80
2, 126467, Note_on_c, 0, 38, 0
2, 126480, Note_on_c, 0, 45, 80
2, 126480, Note_on_c, 0, 50, 80
2, 126707, Note_on_c, 0, 45, 0
2, 126707, Note_on_c, 0, 50, 0
2, 126720, Note_on_c, 0, 45, 80
2, 126720, Note_on_c, 0, 57, 80
2, 126947, Note_on_c, 0, 45, 0
2, 126947, Note_on_c, 0, 57, 0
2, 126960, Note_on_c, 0, 50, 80
2, 127187, Note_on_c, 0, 50, 0
2, 127200, Note_on_c, 0, 43, 80
2, 127200, Note_on_c, 0, 55, 80
2, 127427, Note_on_c, 0, 43, 0
2, 127427, Note_on_c, 0, 55, 0
2, 127440, Note_on_c, 0, 50, 80
2, 127667, Note_on_c, 0, 50, 0
2, 127680, Note_on_c, 0, 41, 80
2, 127680, Note_on_c, 0, 53, 80
2, 127907, Note_on_c, 0, 41, 0
2, 127907, Note_on_c, 0, 53, 0
2, 127920, Note_on_c, 0, 50, 80
2, 128147, Note_on_c, 0, 50, 0
2, 128160, Note_on_c, 0, 40, 80
2, 128160, Note_on_c, 0, 52, 80
2, 128387, Note_on_c, 0, 40, 0
2, 128387, Note_on_c, 0, 52, 0
2, 128400, Note_on_c, 0, 50, 80
2, 128627, Note_on_c, 0, 50, 0
2, 128640, Note_on_c, 0, 38, 80
2, 128640, Note_on_c, 0, 45, 80
2, 128640, Note_on_c, 0, 50, 80
2, 131603, Note_on_c, 0, 38, 0
2, 131603, Note_on_c, 0, 45, 0
2, 131603, Note_on_c, 0, 50, 0
2, 131760, Note_on_c, 0, 36, 80
2, 131760, Note_on_c, 0, 48, 80
2, 131987, Note_on_c, 0, 36, 0
2, 131987, Note_on_c, 0, 48, 0
2, 132000, Note_on_c, 0, 38, 80
2, 132000, Note_on_c, 0, 50, 80
2, 132227, Note_on_c, 0, 38, 0
2, 132227, Note_on_c, 0, 50, 0
2, 132240, Note_on_c, 0, 36, 80
2, 132240, Note_on_c, 0, 48, 80
2, 132467, Note_on_c, 0, 36, 0
2, 132467, Note_on_c, 0, 48, 0
2, 132480, Note_on_c, 0, 34, 80
2, 132480, Note_on_c, 0, 46, 80
2, 132935, Note_on_c, 0, 34, 0
2, 132935, Note_on_c, 0, 46, 0
2, 132960, Note_on_c, 0, 34, 80
2, 132960, Note_on_c, 0, 46, 80
2, 133415, Note_on_c, 0, 34, 0
2, 133415, Note_on_c, 0, 46, 0
2, 133440, Note_on_c, 0, 33, 80
2, 133440, Note_on_c, 0, 45, 80
2, 133667, Note_on_c, 0, 33, 0
2, 133667, Note_on_c, 0, 45, 0
2, 133680, Note_on_c, 0, 33, 80
2, 133680, Note_on_c, 0, 45, 80
2, 134135, Note_on_c, 0, 33, 0
2, 134135, Note_on_c, 0, 45, 0
2, 134160, Note_on_c, 0, 26, 80
2, 134160, Note_on_c, 0, 38, 80
2, 134843, Note_on_c, 0, 26, 0
2, 134843, Note_on_c, 0, 38, 0
2, 134880, Note_on_c, 0, 26, 80
2, 134880, Note_on_c, 0, 38, 80
2, 136247, Note_on_c, 0, 26, 0
2, 136247, Note_on_c, 0, 38, 0
1, 0, Note_on_c, 0, 81, 100
1, 227, Note_on_c, 0, 81, 0
1, 240, Note_on_c, 0, 77, 100
1, 467, Note_on_c, 0, 77, 0
1, 480, Note_on_c, 0, 74, 100
1, 707, Note_on_c, 0, 74, 0
1, 720, Note_on_c, 0, 81, 100
1, 947, Note_on_c, 0, 81, 0
1, 960, Note_on_c, 0, 79, 100
1, 1187, Note_on_c, 0, 79, 0
1, 1200, Note_on_c, 0, 76, 100
1, 1427, Note_on_c, 0, 76, 0
1, 1440, Note_on_c, 0, 84, 100
1, 1667, Note_on_c, 0, 84, 0
1, 1680, Note_on_c, 0, 79, 100
1, 1907, Note_on_c, 0, 79, 0
1, 1920, Note_on_c, 0, 81, 100
1, 2147, Note_on_c, 0, 81, 0
1, 2160, Note_on_c, 0, 77, 100
1, 2387, Note_on_c, 0, 77, 0
1, 2400, Note_on_c, 0, 74, 100
1, 2640, Note_on_c, 0, 62, 60
1, 2855, Note_on_c, 0, 74, 0
1, 2867, Note_on_c, 0, 62, 0
1, 2880, Note_on_c, 0, 58, 60
1, 3107, Note_on_c, 0, 58, 0
1, 3120, Note_on_c, 0, 62, 60
1, 3347, Note_on_c, 0, 62, 0
1, 3360, Note_on_c, 0, 84, 100
1, 3480, Note_on_c, 0, 82, 100
1, 3539, Note_on_c, 0, 82, 0
1, 3599, Note_on_c, 0, 84, 0
1, 3600, Note_on_c, 0, 81, 100
1, 3659, Note_on_c, 0, 81, 0
1, 3720, Note_on_c, 0, 77, 100
1, 3779, Note_on_c, 0, 77, 0
1, 3840, Note_on_c, 0, 81, 100
1, 4067, Note_on_c, 0, 81, 0
1, 4080, Note_on_c, 0, 77, 100
1, 4307, Note_on_c, 0, 77, 0
1, 4320, Note_on_c, 0, 74, 100
1, 4547, Note_on_c, 0, 74, 0
1, 4560, Note_on_c, 0, 81, 100
1, 4787, Note_on_c, 0, 81, 0
1, 4800, Note_on_c, 0, 79, 100
1, 5027, Note_on_c, 0, 79, 0
1, 5040, Note_on_c, 0, 76, 100
1, 5267, Note_on_c, 0, 76, 0
1, 5280, Note_on_c, 0, 72, 100
1, 5507, Note_on_c, 0, 72, 0
1, 5520, Note_on_c, 0, 79, 100
1, 5747, Note_on_c, 0, 79, 0
1, 5760, Note_on_c, 0, 81, 100
1, 5987, Note_on_c, 0, 81, 0
1, 6000, Note_on_c, 0, 77, 100
1, 6227, Note_on_c, 0, 77, 0
1, 6240, Note_on_c, 0, 74, 100
1, 7607, Note_on_c, 0, 74, 0
1, 7680, Note_on_c, 0, 74, 100
1, 7680, Note_on_c, 0, 67, 100
1, 7919, Note_on_c, 0, 74, 0
1, 7920, Note_on_c, 0, 70, 100
1, 8135, Note_on_c, 0, 67, 0
1, 8147, Note_on_c, 0, 70, 0
1, 8160, Note_on_c, 0, 67, 100
1, 8387, Note_on_c, 0, 67, 0
1, 8400, Note_on_c, 0, 74, 100
1, 8627, Note_on_c, 0, 74, 0
1, 8640, Note_on_c, 0, 72, 100
1, 8867, Note_on_c, 0, 72, 0
1, 8880, Note_on_c, 0, 57, 60
1, 9107, Note_on_c, 0, 57, 0
1, 9120, Note_on_c, 0, 60, 60
1, 9347, Note_on_c, 0, 60, 0
1, 9360, Note_on_c, 0, 70, 100
1, 9419, Note_on_c, 0, 70, 0
1, 9480, Note_on_c, 0, 69, 100
1, 9539, Note_on_c, 0, 69, 0
1, 9600, Note_on_c, 0, 67, 100
1, 10967, Note_on_c, 0, 67, 0
1, 11040, Note_on_c, 0, 69, 100
1, 11267, Note_on_c, 0, 69, 0
1, 11280, Note_on_c, 0, 70, 100
1, 11507, Note_on_c, 0, 70, 0
1, 11520, Note_on_c, 0, 73, 100
1, 11999, Note_on_c, 0, 73, 0
1, 61440, Note_on_c, 0, 81, 73
1, 61440, Note_on_c, 0, 93, 73
1, 61440, Note_on_c, 0, 86, 73
1, 62807, Note_on_c, 0, 86, 0
1, 63263, Note_on_c, 0, 81, 0
1, 63263, Note_on_c, 0, 93, 0
1, 63360, Note_on_c, 0, 82, 73
1, 63839, Note_on_c, 0, 82, 0
1, 64320, Note_on_c, 0, 84, 73
1, 64680, Note_on_c, 0, 89, 73
1, 64739, Note_on_c, 0, 89, 0
1, 64799, Note_on_c, 0, 84, 0
1, 64800, Note_on_c, 0, 96, 73
1, 64859, Note_on_c, 0, 96, 0
1, 64920, Note_on_c, 0, 94, 73
1, 64979, Note_on_c, 0, 94, 0
1, 65040, Note_on_c, 0, 93, 73
1, 65099, Note_on_c, 0, 93, 0
1, 65160, Note_on_c, 0, 91, 73
1, 65219, Note_on_c, 0, 91, 0
1, 65280, Note_on_c, 0, 93, 73
1, 65295, Note_on_c, 0, 86, 73
1, 65295, Note_on_c, 0, 81, 73
1, 65519, Note_on_c, 0, 93, 0
1, 66533, Note_on_c, 0, 86, 0
1, 66840, Note_on_c, 0, 89, 73
1, 66899, Note_on_c, 0, 89, 0
1, 66960, Note_on_c, 0, 91, 73
1, 67019, Note_on_c, 0, 91, 0
1, 67080, Note_on_c, 0, 89, 73
1, 67103, Note_on_c, 0, 81, 0
1, 67139, Note_on_c, 0, 89, 0
1, 67200, Note_on_c, 0, 91, 73
1, 67215, Note_on_c, 0, 82, 73
1, 67439, Note_on_c, 0, 91, 0
1, 67769, Note_on_c, 0, 82, 0
1, 68160, Note_on_c, 0, 84, 73
1, 68639, Note_on_c, 0, 84, 0
1, 68640, Note_on_c, 0, 86, 73
1, 68821, Note_on_c, 0, 86, 0
1, 68832, Note_on_c, 0, 91, 73
1, 69013, Note_on_c, 0, 91, 0
1, 69024, Note_on_c, 0, 94, 73
1, 69114, Note_on_c, 0, 94, 0
1, 69120, Note_on_c, 0, 81, 73
1, 69120, Note_on_c, 0, 93, 73
1, 69120, Note_on_c, 0, 86, 73
1, 70487, Note_on_c, 0, 86, 0
1, 70943, Note_on_c, 0, 81, 0
1, 70943, Note_on_c, 0, 93, 0
1, 71040, Note_on_c, 0, 82, 73
1, 71519, Note_on_c, 0, 82, 0
1, 72000, Note_on_c, 0, 84, 73
1, 72360, Note_on_c, 0, 89, 73
1, 72419, Note_on_c, 0, 89, 0
1, 72479, Note_on_c, 0, 84, 0
1, 72480, Note_on_c, 0, 96, 73
1, 72539, Note_on_c, 0, 96, 0
1, 72600, Note_on_c, 0, 94, 73
1, 72659, Note_on_c, 0, 94, 0
1, 72720, Note_on_c, 0, 93, 73
1, 72779, Note_on_c, 0, 93, 0
1, 72840, Note_on_c, 0, 91, 73
1, 72899, Note_on_c, 0, 91, 0
1, 72960, Note_on_c, 0, 93, 73
1, 72975, Note_on_c, 0, 86, 73
1, 72975, Note_on_c, 0, 81, 73
1, 73199, Note_on_c, 0, 93, 0
1, 74213, Note_on_c, 0, 86, 0
1, 74520, Note_on_c, 0, 89, 73
1, 74579, Note_on_c, 0, 89, 0
1, 74640, Note_on_c, 0, 91, 73
1, 74699, Note_on_c, 0, 91, 0
1, 74760, Note_on_c, 0, 89, 73
1, 74783, Note_on_c, 0, 81, 0
1, 74819, Note_on_c, 0, 89, 0
1, 74880, Note_on_c, 0, 91, 73
1, 74895, Note_on_c, 0, 82, 73
1, 75119, Note_on_c, 0, 91, 0
1, 75449, Note_on_c, 0, 82, 0
1, 75840, Note_on_c, 0, 84, 73
1, 76319, Note_on_c, 0, 84, 0
1, 107040, Note_on_c, 0, 86, 73
1, 107221, Note_on_c, 0, 86, 0
1, 107232, Note_on_c, 0, 91, 73
1, 107413, Note_on_c, 0, 91, 0
1, 107424, Note_on_c, 0, 94, 73
1, 107514, Note_on_c, 0, 94, 0
1, 107520, Note_on_c, 0, 81, 73
1, 107520, Note_on_c, 0, 93, 73
1, 107520, Note_on_c, 0, 86, 73
1, 108887, Note_on_c, 0, 86, 0
1, 109343, Note_on_c, 0, 81, 0
1, 109343, Note_on_c, 0, 93, 0
1, 109440, Note_on_c, 0, 82, 73
1, 109919, Note_on_c, 0, 82, 0
1, 110400, Note_on_c, 0, 84, 73
1, 110760, Note_on_c, 0, 89, 73
1, 110819, Note_on_c, 0, 89, 0
1, 110879, Note_on_c, 0, 84, 0
1, 110880, Note_on_c, 0, 96, 73
1, 110939, Note_on_c, 0, 96, 0
1, 111000, Note_on_c, 0, 94, 73
1, 111059, Note_on_c, 0, 94, 0
1, 111120, Note_on_c, 0, 93, 73
1, 111179, Note_on_c, 0, 93, 0
1, 111240, Note_on_c, 0, 91, 73
1, 111299, Note_on_c, 0, 91, 0
1, 111360, Note_on_c, 0, 93, 73
1, 111375, Note_on_c, 0, 86, 73
1, 111375, Note_on_c, 0, 81, 73
1, 111599, Note_on_c, 0, 93, 0
1, 112613, Note_on_c, 0, 86, 0
1, 112920, Note_on_c, 0, 89, 73
1, 112979, Note_on_c, 0, 89, 0
1, 113040, Note_on_c, 0, 91, 73
1, 113099, Note_on_c, 0, 91, 0
1, 113160, Note_on_c, 0, 89, 73
1, 113183, Note_on_c, 0, 81, 0
1, 113219, Note_on_c, 0, 89, 0
1, 113280, Note_on_c, 0, 91, 73
1, 113295, Note_on_c, 0, 82, 73
1, 113519, Note_on_c, 0, 91, 0
1, 113849, Note_on_c, 0, 82, 0
1, 114240, Note_on_c, 0, 84, 73
1, 114719, Note_on_c, 0, 84, 0
1, 114720, Note_on_c, 0, 86, 73
1, 114901, Note_on_c, 0, 86, 0
1, 114912, Note_on_c, 0, 91, 73
1, 115093, Note_on_c, 0, 91, 0
1, 115104, Note_on_c, 0, 94, 73
1, 115194, Note_on_c, 0, 94, 0
1, 115200, Note_on_c, 0, 81, 73
1, 115200, Note_on_c, 0, 93, 73
1, 115200, Note_on_c, 0, 86, 73
1, 116567, Note_on_c, 0, 86, 0
1, 117023, Note_on_c, 0, 81, 0
1, 117023, Note_on_c, 0, 93, 0
1, 117120, Note_on_c, 0, 82, 73
1, 117599, Note_on_c, 0, 82, 0
1, 118080, Note_on_c, 0, 84, 73
1, 118440, Note_on_c, 0, 89, 73
1, 118499, Note_on_c, 0, 89, 0
1, 118559, Note_on_c, 0, 84, 0
1, 118560, Note_on_c, 0, 96, 73
1, 118619, Note_on_c, 0, 96, 0
1, 118680, Note_on_c, 0, 94, 73
1, 118739, Note_on_c, 0, 94, 0
1, 118800, Note_on_c, 0, 93, 73
1, 118859, Note_on_c, 0, 93, 0
1, 118920, Note_on_c, 0, 91, 73
1, 118979, Note_on_c, 0, 91, 0
1, 119040, Note_on_c, 0, 93, 73
1, 119055, Note_on_c, 0, 86, 73
1, 119055, Note_on_c, 0, 81, 73
1, 119279, Note_on_c, 0, 93, 0
1, 120293, Note_on_c, 0, 86, 0
1, 120600, Note_on_c, 0, 89, 73
1, 120659, Note_on_c, 0, 89, 0
1, 120720, Note_on_c, 0, 91, 73
1, 120779, Note_on_c, 0, 91, 0
1, 120840, Note_on_c, 0, 89, 73
1, 120863, Note_on_c, 0, 81, 0
1, 120899, Note_on_c, 0, 89, 0
1, 120960, Note_on_c, 0, 91, 73
1, 120975, Note_on_c, 0, 82, 73
1, 121199, Note_on_c, 0, 91, 0
1, 121529, Note_on_c, 0, 82, 0
1, 121920, Note_on_c, 0, 84, 73
1, 122399, Note_on_c, 0, 84, 0
2, 0, Note_on_c, 0, 74, 100
2, 0, Note_on_c, 0, 62, 60
2, 227, Note_on_c, 0, 62, 0
2, 240, Note_on_c, 0, 65, 60
2, 455, Note_on_c, 0, 74, 0
2, 467, Note_on_c, 0, 65, 0
2, 480, Note_on_c, 0, 69, 60
2, 707, Note_on_c, 0, 69, 0
2, 720, Note_on_c, 0, 65, 60
2, 947, Note_on_c, 0, 65, 0
2, 960, Note_on_c, 0, 72, 100
2, 960, Note_on_c, 0, 60, 60
2, 1187, Note_on_c, 0, 60, 0
2, 1200, Note_on_c, 0, 64, 60
2, 1415, Note_on_c, 0, 72, 0
2, 1427, Note_on_c, 0, 64, 0
2, 1440, Note_on_c, 0, 67, 60
2, 1440, Note_on_c, 0, 72, 100
2, 1667, Note_on_c, 0, 67, 0
2, 1667, Note_on_c, 0, 72, 0
2, 1680, Note_on_c, 0, 64, 60
2, 1907, Note_on_c, 0, 64, 0
2, 1920, Note_on_c, 0, 70, 100
2, 1920, Note_on_c, 0, 58, 60
2, 2147, Note_on_c, 0, 58, 0
2, 2160, Note_on_c, 0, 62, 60
2, 2375, Note_on_c, 0, 70, 0
2, 2387, Note_on_c, 0, 62, 0
2, 2400, Note_on_c, 0, 65, 60
2, 2400, Note_on_c, 0, 70, 100
2, 2639, Note_on_c, 0, 65, 0
2, 2639, Note_on_c, 0, 70, 0
2, 3360, Note_on_c, 0, 65, 60
2, 3587, Note_on_c, 0, 65, 0
2, 3600, Note_on_c, 0, 62, 60
2, 3827, Note_on_c, 0, 62, 0
2, 3840, Note_on_c, 0, 74, 100
2, 3840, Note_on_c, 0, 62, 60
2, 4067, Note_on_c, 0, 62, 0
2, 4080, Note_on_c, 0, 65, 60
2, 4295, Note_on_c, 0, 74, 0
2, 4307, Note_on_c, 0, 65, 0
2, 4560, Note_on_c, 0, 65, 60
2, 4787, Note_on_c, 0, 65, 0
2, 4800, Note_on_c, 0, 72, 100
2, 4800, Note_on_c, 0, 60, 60
2, 5027, Note_on_c, 0, 60, 0
2, 5040, Note_on_c, 0, 64, 60
2, 5255, Note_on_c, 0, 72, 0
2, 5267, Note_on_c, 0, 64, 0
2, 5280, Note_on_c, 0, 67, 60
2, 5507, Note_on_c, 0, 67, 0
2, 5520, Note_on_c, 0, 64, 60
2, 5747, Note_on_c, 0, 64, 0
2, 5760, Note_on_c, 0, 70, 100
2, 5760, Note_on_c, 0, 58, 60
2, 5987, Note_on_c, 0, 58, 0
2, 6000, Note_on_c, 0, 62, 60
2, 6215, Note_on_c, 0, 70, 0
2, 6227, Note_on_c, 0, 62, 0
2, 6240, Note_on_c, 0, 65, 60
2, 6240, Note_on_c, 0, 70, 100
2, 6467, Note_on_c, 0, 65, 0
2, 6467, Note_on_c, 0, 70, 0
2, 6480, Note_on_c, 0, 62, 60
2, 6707, Note_on_c, 0, 62, 0
2, 6720, Note_on_c, 0, 58, 60
2, 6947, Note_on_c, 0, 58, 0
2, 6960, Note_on_c, 0, 62, 60
2, 7187, Note_on_c, 0, 62, 0
2, 7200, Note_on_c, 0, 65, 60
2, 7427, Note_on_c, 0, 65, 0
2, 7440, Note_on_c, 0, 62, 60
2, 7667, Note_on_c, 0, 62, 0
2, 7680, Note_on_c, 0, 55, 60
2, 7907, Note_on_c, 0, 55, 0
2, 7920, Note_on_c, 0, 58, 60
2, 8147, Note_on_c, 0, 58, 0
2, 8160, Note_on_c, 0, 62, 60
2, 8387, Note_on_c, 0, 62, 0
2, 8400, Note_on_c, 0, 58, 60
2, 8627, Note_on_c, 0, 58, 0
2, 8640, Note_on_c, 0, 53, 60
2, 8640, Note_on_c, 0, 65, 100
2, 8879, Note_on_c, 0, 53, 0
2, 8879, Note_on_c, 0, 65, 0
2, 9360, Note_on_c, 0, 58, 60
2, 9587, Note_on_c, 0, 58, 0
2, 9600, Note_on_c, 0, 51, 60
2, 11423, Note_on_c, 0, 51, 0
2, 11760, Note_on_c, 0, 67, 100
2, 11987, Note_on_c, 0, 67, 0
2, 12000, Note_on_c, 0, 69, 100
2, 12227, Note_on_c, 0, 69, 0
2, 12240, Note_on_c, 0, 70, 100
2, 12467, Note_on_c, 0, 70, 0
2, 12480, Note_on_c, 0, 73, 100
2, 12707, Note_on_c, 0, 73, 0
2, 12720, Note_on_c, 0, 79, 100
2, 12947, Note_on_c, 0, 79, 0
2, 12960, Note_on_c, 0, 81, 100
2, 13187, Note_on_c, 0, 81, 0
2, 13200, Note_on_c, 0, 95, 100
2, 13427, Note_on_c, 0, 95, 0
2, 13440, Note_on_c, 0, 97, 100
2, 15263, Note_on_c, 0, 97, 0
2, 60960, Note_on_c, 0, 86, 73
2, 61141, Note_on_c, 0, 86, 0
2, 61152, Note_on_c, 0, 91, 73
2, 61333, Note_on_c, 0, 91, 0
2, 61344, Note_on_c, 0, 94, 73
2, 61434, Note_on_c, 0, 94, 0
2, 61440, Note_on_c, 0, 62, 73
2, 61440, Note_on_c, 0, 69, 73
2, 61440, Note_on_c, 0, 74, 73
2, 63263, Note_on_c, 0, 62, 0
2, 63263, Note_on_c, 0, 69, 0
2, 63263, Note_on_c, 0, 74, 0
2, 63360, Note_on_c, 0, 62, 73
2, 63360, Note_on_c, 0, 69, 73
2, 63360, Note_on_c, 0, 74, 73
2, 64271, Note_on_c, 0, 62, 0
2, 64271, Note_on_c, 0, 69, 0
2, 64271, Note_on_c, 0, 74, 0
2, 64320, Note_on_c, 0, 62, 73
2, 64320, Note_on_c, 0, 69, 73
2, 64320, Note_on_c, 0, 74, 73
2, 65231, Note_on_c, 0, 62, 0
2, 65231, Note_on_c, 0, 69, 0
2, 65231, Note_on_c, 0, 74, 0
2, 65280, Note_on_c, 0, 62, 73
2, 65280, Note_on_c, 0, 69, 73
2, 65280, Note_on_c, 0, 74, 73
2, 67103, Note_on_c, 0, 62, 0
2, 67103, Note_on_c, 0, 69, 0
2, 67103, Note_on_c, 0, 74, 0
2, 67200, Note_on_c, 0, 62, 73
2, 67200, Note_on_c, 0, 69, 73
2, 67200, Note_on_c, 0, 74, 73
2, 68111, Note_on_c, 0, 62, 0
2, 68111, Note_on_c, 0, 69, 0
2, 68111, Note_on_c, 0, 74, 0
2, 68160, Note_on_c, 0, 62, 73
2, 68160, Note_on_c, 0, 69, 73
2, 68160, Note_on_c, 0, 74, 73
2, 69071, Note_on_c, 0, 62, 0
2, 69071, Note_on_c, 0, 69, 0
2, 69071, Note_on_c, 0, 74, 0
2, 69120, Note_on_c, 0, 62, 73
2, 69120, Note_on_c, 0, 69, 73
2, 69120, Note_on_c, 0, 74, 73
2, 70943, Note_on_c, 0, 62, 0
2, 70943, Note_on_c, 0, 69, 0
2, 70943, Note_on_c, 0, 74, 0
2, 71040, Note_on_c, 0, 62, 73
2, 71040, Note_on_c, 0, 69, 73
2, 71040, Note_on_c, 0, 74, 73
2, 71951, Note_on_c, 0, 62, 0
2, 71951, Note_on_c, 0, 69, 0
2, 71951, Note_on_c, 0, 74, 0
2, 72000, Note_on_c, 0, 62, 73
2, 72000, Note_on_c, 0, 69, 73
2, 72000, Note_on_c, 0, 74, 73
2, 72911, Note_on_c, 0, 62, 0
2, 72911, Note_on_c, 0, 69, 0
2, 72911, Note_on_c, 0, 74, 0
2, 72960, Note_on_c, 0, 62, 73
2, 72960, Note_on_c, 0, 69, 73
2, 72960, Note_on_c, 0, 74, 73
2, 74783, Note_on_c, 0, 62, 0
2, 74783, Note_on_c, 0, 69, 0
2, 74783, Note_on_c, 0, 74, 0
2, 74880, Note_on_c, 0, 62, 73
2, 74880, Note_on_c, 0, 69, 73
2, 74880, Note_on_c, 0, 74, 73
2, 75791, Note_on_c, 0, 62, 0
2, 75791, Note_on_c, 0, 69, 0
2, 75791, Note_on_c, 0, 74, 0
2, 75840, Note_on_c, 0, 62, 73
2, 75840, Note_on_c, 0, 69, 73
2, 75840, Note_on_c, 0, 74, 73
2, 76751, Note_on_c, 0, 62, 0
2, 76751, Note_on_c, 0, 69, 0
2, 76751, Note_on_c, 0, 74, 0
2, 107520, Note_on_c, 0, 62, 73
2, 107520, Note_on_c, 0, 69, 73
2, 107520, Note_on_c, 0, 74, 73
2, 109343, Note_on_c, 0, 62, 0
2, 109343, Note_on_c, 0, 69, 0
2, 109343, Note_on_c, 0, 74, 0
2, 109440, Note_on_c, 0, 62, 73
2, 109440, Note_on_c, 0, 69, 73
2, 109440, Note_on_c, 0, 74, 73
2, 110351, Note_on_c, 0, 62, 0
2, 110351, Note_on_c, 0, 69, 0
2, 110351, Note_on_c, 0, 74, 0
2, 110400, Note_on_c, 0, 62, 73
2, 110400, Note_on_c, 0, 69, 73
2, 110400, Note_on_c, 0, 74, 73
2, 111311, Note_on_c, 0, 62, 0
2, 111311, Note_on_c, 0, 69, 0
2, 111311, Note_on_c, 0, 74, 0
2, 111360, Note_on_c, 0, 62, 73
2, 111360, Note_on_c, 0, 69, 73
2, 111360, Note_on_c, 0, 74, 73
2, 113183, Note_on_c, 0, 62, 0
2, 113183, Note_on_c, 0, 69, 0
2, 113183, Note_on_c, 0, 74, 0
2, 113280, Note_on_c, 0, 62, 73
2, 113280, Note_on_c, 0, 69, 73
2, 113280, Note_on_c, 0, 74, 73
2, 114191, Note_on_c, 0, 62, 0
2, 114191, Note_on_c, 0, 69, 0
2, 114191, Note_on_c, 0, 74, 0
2, 114240, Note_on_c, 0, 62, 73
2, 114240, Note_on_c, 0, 69, 73
2, 114240, Note_on_c, 0, 74, 73
2, 115151, Note_on_c, 0, 62, 0
2, 115151, Note_on_c, 0, 69, 0
2, 115151, Note_on_c, 0, 74, 0
2, 115200, Note_on_c, 0, 62, 73
2, 115200, Note_on_c, 0, 69, 73
2, 115200, Note_on_c, 0, 74, 73
2, 117023, Note_on_c, 0, 62, 0
2, 117023, Note_on_c, 0, 69, 0
2, 117023, Note_on_c, 0, 74, 0
2, 117120, Note_on_c, 0, 62, 73
2, 117120, Note_on_c, 0, 69, 73
2, 117120, Note_on_c, 0, 74, 73
2, 118031, Note_on_c, 0, 62, 0
2, 118031, Note_on_c, 0, 69, 0
2, 118031, Note_on_c, 0, 74, 0
2, 118080, Note_on_c, 0, 62, 73
2, 118080, Note_on_c, 0, 69, 73
2, 118080, Note_on_c, 0, 74, 73
2, 118991, Note_on_c, 0, 62, 0
2, 118991, Note_on_c, 0, 69, 0
2, 118991, Note_on_c, 0, 74, 0
2, 119040, Note_on_c, 0, 62, 73
2, 119040, Note_on_c, 0, 69, 73
2, 119040, Note_on_c, 0, 74, 73
2, 120863, Note_on_c, 0, 62, 0
2, 120863, Note_on_c, 0, 69, 0
2, 120863, Note_on_c, 0, 74, 0
2, 120960, Note_on_c, 0, 62, 73
2, 120960, Note_on_c, 0, 69, 73
2, 120960, Note_on_c, 0, 74, 73
2, 121871, Note_on_c, 0, 62, 0
2, 121871, Note_on_c, 0, 69, 0
2, 121871, Note_on_c, 0, 74, 0
2, 121920, Note_on_c, 0, 62, 73
2, 121920, Note_on_c, 0, 69, 73
2, 121920, Note_on_c, 0, 74, 73
2, 122831, Note_on_c, 0, 62, 0
2, 122831, Note_on_c, 0, 69, 0
2, 122831, Note_on_c, 0, 74, 0
1, 2400, Note_on_c, 0, 57, 80
1, 2627, Note_on_c, 0, 57, 0
1, 2640, Note_on_c, 0, 59, 80
1, 2867, Note_on_c, 0, 59, 0
1, 2880, Note_on_c, 0, 62, 80
1, 3335, Note_on_c, 0, 62, 0
1, 3360, Note_on_c, 0, 64, 80
1, 3815, Note_on_c, 0, 64, 0
1, 3840, Note_on_c, 0, 62, 80
1, 5663, Note_on_c, 0, 62, 0
1, 6240, Note_on_c, 0, 66, 80
1, 6467, Note_on_c, 0, 66, 0
1, 6480, Note_on_c, 0, 64, 80
1, 6707, Note_on_c, 0, 64, 0
1, 6720, Note_on_c, 0, 64, 80
1, 7175, Note_on_c, 0, 64, 0
1, 7200, Note_on_c, 0, 66, 80
1, 7655, Note_on_c, 0, 66, 0
1, 8160, Note_on_c, 0, 67, 80
1, 8387, Note_on_c, 0, 67, 0
1, 8400, Note_on_c, 0, 66, 80
1, 8855, Note_on_c, 0, 66, 0
1, 8880, Note_on_c, 0, 62, 80
1, 9107, Note_on_c, 0, 62, 0
1, 9120, Note_on_c, 0, 59, 80
1, 10031, Note_on_c, 0, 59, 0
1, 10080, Note_on_c, 0, 62, 80
1, 10991, Note_on_c, 0, 62, 0
1, 15360, Note_on_c, 0, 66, 80
1, 15587, Note_on_c, 0, 66, 0
1, 15600, Note_on_c, 0, 66, 80
1, 15827, Note_on_c, 0, 66, 0
1, 15840, Note_on_c, 0, 66, 80
1, 16067, Note_on_c, 0, 66, 0
1, 16080, Note_on_c, 0, 66, 80
1, 16307, Note_on_c, 0, 66, 0
1, 16320, Note_on_c, 0, 64, 80
1, 16547, Note_on_c, 0, 64, 0
1, 16560, Note_on_c, 0, 62, 80
1, 16787, Note_on_c, 0, 62, 0
1, 16800, Note_on_c, 0, 59, 80
1, 17711, Note_on_c, 0, 59, 0
1, 17760, Note_on_c, 0, 62, 80
1, 19127, Note_on_c, 0, 62, 0
1, 23040, Note_on_c, 0, 66, 80
1, 23267, Note_on_c, 0, 66, 0
1, 23280, Note_on_c, 0, 66, 80
1, 23507, Note_on_c, 0, 66, 0
1, 23520, Note_on_c, 0, 66, 80
1, 23747, Note_on_c, 0, 66, 0
1, 23760, Note_on_c, 0, 66, 80
1, 23987, Note_on_c, 0, 66, 0
1, 24000, Note_on_c, 0, 64, 80
1, 24227, Note_on_c, 0, 64, 0
1, 24240, Note_on_c, 0, 62, 80
1, 24467, Note_on_c, 0, 62, 0
1, 24480, Note_on_c, 0, 59, 80
1, 24707, Note_on_c, 0, 59, 0
1, 24720, Note_on_c, 0, 62, 80
1, 24947, Note_on_c, 0, 62, 0
1, 24960, Note_on_c, 0, 66, 80
1, 25187, Note_on_c, 0, 66, 0
1, 25200, Note_on_c, 0, 66, 80
1, 25427, Note_on_c, 0, 66, 0
1, 25440, Note_on_c, 0, 66, 80
1, 25667, Note_on_c, 0, 66, 0
1, 25680, Note_on_c, 0, 66, 80
1, 25907, Note_on_c, 0, 66, 0
1, 25920, Note_on_c, 0, 64, 80
1, 26375, Note_on_c, 0, 64, 0
1, 26400, Note_on_c, 0, 59, 80
1, 26627, Note_on_c, 0, 59, 0
1, 26640, Note_on_c, 0, 62, 80
1, 26867, Note_on_c, 0, 62, 0
1, 26880, Note_on_c, 0, 66, 80
1, 27107, Note_on_c, 0, 66, 0
1, 27120, Note_on_c, 0, 66, 80
1, 27347, Note_on_c, 0, 66, 0
1, 27360, Note_on_c, 0, 66, 80
1, 27587, Note_on_c, 0, 66, 0
1, 27600, Note_on_c, 0, 66, 80
1, 27827, Note_on_c, 0, 66, 0
1, 27840, Note_on_c, 0, 64, 80
1, 28067, Note_on_c, 0, 64, 0
1, 28080, Note_on_c, 0, 62, 80
1, 28307, Note_on_c, 0, 62, 0
1, 28320, Note_on_c, 0, 59, 80
1, 28547, Note_on_c, 0, 59, 0
1, 28560, Note_on_c, 0, 62, 80
1, 28787, Note_on_c, 0, 62, 0
1, 28800, Note_on_c, 0, 66, 80
1, 29027, Note_on_c, 0, 66, 0
1, 29040, Note_on_c, 0, 66, 80
1, 29267, Note_on_c, 0, 66, 0
1, 29280, Note_on_c, 0, 66, 80
1, 29507, Note_on_c, 0, 66, 0
1, 29520, Note_on_c, 0, 66, 80
1, 29747, Note_on_c, 0, 66, 0
1, 29760, Note_on_c, 0, 64, 80
1, 29987, Note_on_c, 0, 64, 0
1, 30000, Note_on_c, 0, 66, 80
1, 30227, Note_on_c, 0, 66, 0
1, 30240, Note_on_c, 0, 64, 80
1, 30467, Note_on_c, 0, 64, 0
1, 30480, Note_on_c, 0, 66, 80
1, 30707, Note_on_c, 0, 66, 0
1, 30720, Note_on_c, 0, 64, 80
1, 30947, Note_on_c, 0, 64, 0
1, 30960, Note_on_c, 0, 62, 80
1, 31187, Note_on_c, 0, 62, 0
1, 31200, Note_on_c, 0, 64, 80
1, 31427, Note_on_c, 0, 64, 0
1, 31440, Note_on_c, 0, 62, 80
1, 31667, Note_on_c, 0, 62, 0
1, 31680, Note_on_c, 0, 64, 80
1, 31907, Note_on_c, 0, 64, 0
1, 31920, Note_on_c, 0, 62, 80
1, 32603, Note_on_c, 0, 62, 0
1, 33840, Note_on_c, 0, 66, 80
1, 34067, Note_on_c, 0, 66, 0
1, 34080, Note_on_c, 0, 64, 80
1, 34307, Note_on_c, 0, 64, 0
1, 34320, Note_on_c, 0, 66, 80
1, 34547, Note_on_c, 0, 66, 0
1, 34560, Note_on_c, 0, 64, 80
1, 34787, Note_on_c, 0, 64, 0
1, 34800, Note_on_c, 0, 62, 80
1, 35027, Note_on_c, 0, 62, 0
1, 35040, Note_on_c, 0, 64, 80
1, 35267, Note_on_c, 0, 64, 0
1, 35280, Note_on_c, 0, 62, 80
1, 35507, Note_on_c, 0, 62, 0
1, 35520, Note_on_c, 0, 64, 80
1, 35747, Note_on_c, 0, 64, 0
1, 35760, Note_on_c, 0, 62, 80
1, 36443, Note_on_c, 0, 62, 0
1, 38400, Note_on_c, 0, 66, 80
1, 38627, Note_on_c, 0, 66, 0
1, 38640, Note_on_c, 0, 66, 80
1, 38867, Note_on_c, 0, 66, 0
1, 38880, Note_on_c, 0, 66, 80
1, 39107, Note_on_c, 0, 66, 0
1, 39120, Note_on_c, 0, 66, 80
1, 39347, Note_on_c, 0, 66, 0
1, 39360, Note_on_c, 0, 64, 80
1, 39587, Note_on_c, 0, 64, 0
1, 39600, Note_on_c, 0, 62, 80
1, 39827, Note_on_c, 0, 62, 0
1, 39840, Note_on_c, 0, 59, 80
1, 40067, Note_on_c, 0, 59, 0
1, 40080, Note_on_c, 0, 62, 80
1, 40307, Note_on_c, 0, 62, 0
1, 40320, Note_on_c, 0, 66, 80
1, 40547, Note_on_c, 0, 66, 0
1, 40560, Note_on_c, 0, 66, 80
1, 40787, Note_on_c, 0, 66, 0
1, 40800, Note_on_c, 0, 66, 80
1, 41027, Note_on_c, 0, 66, 0
1, 41040, Note_on_c, 0, 66, 80
1, 41267, Note_on_c, 0, 66, 0
1, 41280, Note_on_c, 0, 64, 80
1, 41735, Note_on_c, 0, 64, 0
1, 41760, Note_on_c, 0, 59, 80
1, 41987, Note_on_c, 0, 59, 0
1, 42000, Note_on_c, 0, 62, 80
1, 42227, Note_on_c, 0, 62, 0
1, 42240, Note_on_c, 0, 66, 80
1, 42467, Note_on_c, 0, 66, 0
1, 42480, Note_on_c, 0, 66, 80
1, 42707, Note_on_c, 0, 66, 0
1, 42720, Note_on_c, 0, 66, 80
1, 42947, Note_on_c, 0, 66, 0
1, 42960, Note_on_c, 0, 66, 80
1, 43187, Note_on_c, 0, 66, 0
1, 43200, Note_on_c, 0, 64, 80
1, 43427, Note_on_c, 0, 64, 0
1, 43440, Note_on_c, 0, 62, 80
1, 43667, Note_on_c, 0, 62, 0
1, 43680, Note_on_c, 0, 59, 80
1, 43907, Note_on_c, 0, 59, 0
1, 43920, Note_on_c, 0, 62, 80
1, 44147, Note_on_c, 0, 62, 0
1, 44160, Note_on_c, 0, 66, 80
1, 44387, Note_on_c, 0, 66, 0
1, 44400, Note_on_c, 0, 66, 80
1, 44627, Note_on_c, 0, 66, 0
1, 44640, Note_on_c, 0, 66, 80
1, 44867, Note_on_c, 0, 66, 0
1, 44880, Note_on_c, 0, 66, 80
1, 45107, Note_on_c, 0, 66, 0
1, 45120, Note_on_c, 0, 64, 80
1, 45347, Note_on_c, 0, 64, 0
1, 45360, Note_on_c, 0, 66, 80
1, 45587, Note_on_c, 0, 66, 0
1, 45600, Note_on_c, 0, 64, 80
1, 45827, Note_on_c, 0, 64, 0
1, 45840, Note_on_c, 0, 66, 80
1, 46067, Note_on_c, 0, 66, 0
1, 46080, Note_on_c, 0, 64, 80
1, 46307, Note_on_c, 0, 64, 0
1, 46320, Note_on_c, 0, 62, 80
1, 46547, Note_on_c, 0, 62, 0
1, 46560, Note_on_c, 0, 64, 80
1, 46787, Note_on_c, 0, 64, 0
1, 46800, Note_on_c, 0, 62, 80
1, 47027, Note_on_c, 0, 62, 0
1, 47040, Note_on_c, 0, 64, 80
1, 47267, Note_on_c, 0, 64, 0
1, 47280, Note_on_c, 0, 62, 80
1, 47963, Note_on_c, 0, 62, 0
1, 49200, Note_on_c, 0, 66, 80
1, 49427, Note_on_c, 0, 66, 0
1, 49440, Note_on_c, 0, 64, 80
1, 49667, Note_on_c, 0, 64, 0
1, 49680, Note_on_c, 0, 66, 80
1, 49907, Note_on_c, 0, 66, 0
1, 49920, Note_on_c, 0, 64, 80
1, 50147, Note_on_c, 0, 64, 0
1, 50160, Note_on_c, 0, 62, 80
1, 50387, Note_on_c, 0, 62, 0
1, 50400, Note_on_c, 0, 64, 80
1, 50627, Note_on_c, 0, 64, 0
1, 50640, Note_on_c, 0, 62, 80
1, 50867, Note_on_c, 0, 62, 0
1, 50880, Note_on_c, 0, 64, 80
1, 51335, Note_on_c, 0, 64, 0
1, 51360, Note_on_c, 0, 66, 80
1, 52727, Note_on_c, 0, 66, 0
1, 55200, Note_on_c, 0, 57, 80
1, 55313, Note_on_c, 0, 57, 0
1, 55320, Note_on_c, 0, 61, 80
1, 55433, Note_on_c, 0, 61, 0
1, 55440, Note_on_c, 0, 61, 80
1, 55553, Note_on_c, 0, 61, 0
1, 55560, Note_on_c, 0, 61, 80
1, 55673, Note_on_c, 0, 61, 0
1, 55680, Note_on_c, 0, 61, 80
1, 55793, Note_on_c, 0, 61, 0
1, 55800, Note_on_c, 0, 59, 80
1, 55913, Note_on_c, 0, 59, 0
1, 55920, Note_on_c, 0, 57, 80
1, 56033, Note_on_c, 0, 57, 0
1, 56040, Note_on_c, 0, 57, 80
1, 56153, Note_on_c, 0, 57, 0
1, 56160, Note_on_c, 0, 59, 80
1, 56273, Note_on_c, 0, 59, 0
1, 56280, Note_on_c, 0, 59, 80
1, 56621, Note_on_c, 0, 59, 0
1, 57120, Note_on_c, 0, 57, 80
1, 57233, Note_on_c, 0, 57, 0
1, 57240, Note_on_c, 0, 61, 80
1, 57353, Note_on_c, 0, 61, 0
1, 57360, Note_on_c, 0, 61, 80
1, 57473, Note_on_c, 0, 61, 0
1, 57480, Note_on_c, 0, 61, 80
1, 57593, Note_on_c, 0, 61, 0
1, 57600, Note_on_c, 0, 61, 80
1, 57713, Note_on_c, 0, 61, 0
1, 57720, Note_on_c, 0, 59, 80
1, 57833, Note_on_c, 0, 59, 0
1, 57840, Note_on_c, 0, 57, 80
1, 57953, Note_on_c, 0, 57, 0
1, 57960, Note_on_c, 0, 57, 80
1, 58073, Note_on_c, 0, 57, 0
1, 58080, Note_on_c, 0, 59, 80
1, 58193, Note_on_c, 0, 59, 0
1, 58200, Note_on_c, 0, 59, 80
1, 58541, Note_on_c, 0, 59, 0
1, 58920, Note_on_c, 0, 57, 80
1, 59033, Note_on_c, 0, 57, 0
1, 59040, Note_on_c, 0, 61, 80
1, 59153, Note_on_c, 0, 61, 0
1, 59160, Note_on_c, 0, 61, 80
1, 59273, Note_on_c, 0, 61, 0
1, 59280, Note_on_c, 0, 61, 80
1, 59393, Note_on_c, 0, 61, 0
1, 59400, Note_on_c, 0, 61, 80
1, 59513, Note_on_c, 0, 61, 0
1, 59520, Note_on_c, 0, 59, 80
1, 59633, Note_on_c, 0, 59, 0
1, 59640, Note_on_c, 0, 57, 80
1, 59753, Note_on_c, 0, 57, 0
1, 59760, Note_on_c, 0, 57, 80
1, 59873, Note_on_c, 0, 57, 0
1, 59880, Note_on_c, 0, 59, 80
1, 59993, Note_on_c, 0, 59, 0
1, 60000, Note_on_c, 0, 61, 80
1, 60113, Note_on_c, 0, 61, 0
1, 60120, Note_on_c, 0, 62, 80
1, 60233, Note_on_c, 0, 62, 0
1, 60240, Note_on_c, 0, 64, 80
1, 60353, Note_on_c, 0, 64, 0
1, 60360, Note_on_c, 0, 59, 80
1, 60701, Note_on_c, 0, 59, 0
1, 60720, Note_on_c, 0, 57, 80
1, 60833, Note_on_c, 0, 57, 0
1, 60840, Note_on_c, 0, 59, 80
1, 60953, Note_on_c, 0, 59, 0
1, 60960, Note_on_c, 0, 61, 80
1, 61073, Note_on_c, 0, 61, 0
1, 61080, Note_on_c, 0, 62, 80
1, 61193, Note_on_c, 0, 62, 0
1, 61200, Note_on_c, 0, 64, 80
1, 61313, Note_on_c, 0, 64, 0
1, 61320, Note_on_c, 0, 59, 80
1, 61661, Note_on_c, 0, 59, 0
1, 61680, Note_on_c, 0, 61, 80
1, 61793, Note_on_c, 0, 61, 0
1, 61800, Note_on_c, 0, 59, 80
1, 62141, Note_on_c, 0, 59, 0
1, 70320, Note_on_c, 0, 76, 80
1, 70547, Note_on_c, 0, 76, 0
1, 70560, Note_on_c, 0, 74, 80
1, 70787, Note_on_c, 0, 74, 0
1, 70800, Note_on_c, 0, 73, 80
1, 71027, Note_on_c, 0, 73, 0
1, 71040, Note_on_c, 0, 69, 80
1, 71267, Note_on_c, 0, 69, 0
1, 71280, Note_on_c, 0, 69, 80
1, 71735, Note_on_c, 0, 69, 0
1, 71760, Note_on_c, 0, 71, 80
1, 71987, Note_on_c, 0, 71, 0
1, 72240, Note_on_c, 0, 76, 80
1, 72467, Note_on_c, 0, 76, 0
1, 72480, Note_on_c, 0, 74, 80
1, 72707, Note_on_c, 0, 74, 0
1, 72720, Note_on_c, 0, 73, 80
1, 72947, Note_on_c, 0, 73, 0
1, 72960, Note_on_c, 0, 69, 80
1, 73187, Note_on_c, 0, 69, 0
1, 73200, Note_on_c, 0, 69, 80
1, 73655, Note_on_c, 0, 69, 0
1, 73680, Note_on_c, 0, 71, 80
1, 73907, Note_on_c, 0, 71, 0
1, 74160, Note_on_c, 0, 76, 80
1, 74387, Note_on_c, 0, 76, 0
1, 74400, Note_on_c, 0, 74, 80
1, 74627, Note_on_c, 0, 74, 0
1, 74640, Note_on_c, 0, 73, 80
1, 74867, Note_on_c, 0, 73, 0
1, 74880, Note_on_c, 0, 69, 80
1, 75107, Note_on_c, 0, 69, 0
1, 75120, Note_on_c, 0, 71, 80
1, 75803, Note_on_c, 0, 71, 0
1, 76080, Note_on_c, 0, 69, 80
1, 76307, Note_on_c, 0, 69, 0
1, 76320, Note_on_c, 0, 69, 80
1, 76547, Note_on_c, 0, 69, 0
1, 76560, Note_on_c, 0, 71, 80
1, 76787, Note_on_c, 0, 71, 0
1, 76800, Note_on_c, 0, 76, 80
1, 77027, Note_on_c, 0, 76, 0
1, 77040, Note_on_c, 0, 76, 80
1, 77267, Note_on_c, 0, 76, 0
1, 77280, Note_on_c, 0, 73, 80
1, 77507, Note_on_c, 0, 73, 0
1, 78000, Note_on_c, 0, 76, 80
1, 78227, Note_on_c, 0, 76, 0
1, 78240, Note_on_c, 0, 74, 80
1, 78467, Note_on_c, 0, 74, 0
1, 78480, Note_on_c, 0, 73, 80
1, 78707, Note_on_c, 0, 73, 0
1, 78720, Note_on_c, 0, 69, 80
1, 78947, Note_on_c, 0, 69, 0
1, 78960, Note_on_c, 0, 69, 80
1, 79415, Note_on_c, 0, 69, 0
1, 79440, Note_on_c, 0, 71, 80
1, 79667, Note_on_c, 0, 71, 0
1, 79920, Note_on_c, 0, 76, 80
1, 80147, Note_on_c, 0, 76, 0
1, 80160, Note_on_c, 0, 74, 80
1, 80387, Note_on_c, 0, 74, 0
1, 80400, Note_on_c, 0, 73, 80
1, 80627, Note_on_c, 0, 73, 0
1, 80640, Note_on_c, 0, 69, 80
1, 80867, Note_on_c, 0, 69, 0
1, 80880, Note_on_c, 0, 69, 80
1, 81335, Note_on_c, 0, 69, 0
1, 81360, Note_on_c, 0, 71, 80
1, 81587, Note_on_c, 0, 71, 0
1, 81840, Note_on_c, 0, 76, 80
1, 82067, Note_on_c, 0, 76, 0
1, 82080, Note_on_c, 0, 74, 80
1, 82307, Note_on_c, 0, 74, 0
1, 82320, Note_on_c, 0, 73, 80
1, 82547, Note_on_c, 0, 73, 0
1, 82560, Note_on_c, 0, 69, 80
1, 82787, Note_on_c, 0, 69, 0
1, 82800, Note_on_c, 0, 71, 80
1, 83483, Note_on_c, 0, 71, 0
1, 83760, Note_on_c, 0, 69, 80
1, 83987, Note_on_c, 0, 69, 0
1, 84000, Note_on_c, 0, 69, 80
1, 84227, Note_on_c, 0, 69, 0
1, 84240, Note_on_c, 0, 71, 80
1, 84467, Note_on_c, 0, 71, 0
1, 84480, Note_on_c, 0, 76, 80
1, 84707, Note_on_c, 0, 76, 0
1, 84720, Note_on_c, 0, 76, 80
1, 84947, Note_on_c, 0, 76, 0
1, 84960, Note_on_c, 0, 73, 80
1, 85415, Note_on_c, 0, 73, 0
1, 87600, Note_on_c, 0, 69, 80
1, 87827, Note_on_c, 0, 69, 0
1, 87840, Note_on_c, 0, 69, 80
1, 88067, Note_on_c, 0, 69, 0
1, 88080, Note_on_c, 0, 71, 80
1, 88307, Note_on_c, 0, 71, 0
1, 88320, Note_on_c, 0, 76, 80
1, 88547, Note_on_c, 0, 76, 0
1, 88560, Note_on_c, 0, 76, 80
1, 88787, Note_on_c, 0, 76, 0
1, 88800, Note_on_c, 0, 73, 80
1, 89255, Note_on_c, 0, 73, 0
1, 92640, Note_on_c, 0, 73, 80
1, 93551, Note_on_c, 0, 73, 0
1, 93960, Note_on_c, 0, 71, 80
1, 94187, Note_on_c, 0, 71, 0
1, 94200, Note_on_c, 0, 69, 80
1, 94427, Note_on_c, 0, 69, 0
1, 94440, Note_on_c, 0, 69, 80
1, 94781, Note_on_c, 0, 69, 0
1, 94800, Note_on_c, 0, 66, 80
1, 95027, Note_on_c, 0, 66, 0
1, 95880, Note_on_c, 0, 73, 80
1, 96107, Note_on_c, 0, 73, 0
1, 96120, Note_on_c, 0, 76, 80
1, 96347, Note_on_c, 0, 76, 0
1, 96360, Note_on_c, 0, 74, 80
1, 96587, Note_on_c, 0, 74, 0
1, 96600, Note_on_c, 0, 73, 80
1, 96827, Note_on_c, 0, 73, 0
1, 96840, Note_on_c, 0, 71, 80
1, 97067, Note_on_c, 0, 71, 0
1, 97080, Note_on_c, 0, 69, 80
1, 97307, Note_on_c, 0, 69, 0
1, 97320, Note_on_c, 0, 69, 80
1, 97661, Note_on_c, 0, 69, 0
1, 97920, Note_on_c, 0, 73, 80
1, 98033, Note_on_c, 0, 73, 0
1, 98040, Note_on_c, 0, 76, 80
1, 98267, Note_on_c, 0, 76, 0
1, 98280, Note_on_c, 0, 74, 80
1, 98507, Note_on_c, 0, 74, 0
1, 98520, Note_on_c, 0, 73, 80
1, 98747, Note_on_c, 0, 73, 0
1, 98760, Note_on_c, 0, 71, 80
1, 98987, Note_on_c, 0, 71, 0
1, 99000, Note_on_c, 0, 69, 80
1, 99227, Note_on_c, 0, 69, 0
1, 99240, Note_on_c, 0, 71, 80
1, 99581, Note_on_c, 0, 71, 0
1, 99600, Note_on_c, 0, 73, 80
1, 99827, Note_on_c, 0, 73, 0
1, 99840, Note_on_c, 0, 71, 80
1, 99953, Note_on_c, 0, 71, 0
1, 99960, Note_on_c, 0, 69, 80
1, 100073, Note_on_c, 0, 69, 0
1, 100080, Note_on_c, 0, 66, 80
1, 100199, Note_on_c, 0, 66, 0
1, 100320, Note_on_c, 0, 73, 80
1, 101003, Note_on_c, 0, 73, 0
1, 101640, Note_on_c, 0, 76, 80
1, 101867, Note_on_c, 0, 76, 0
1, 101880, Note_on_c, 0, 69, 80
1, 102107, Note_on_c, 0, 69, 0
1, 102120, Note_on_c, 0, 69, 80
1, 102461, Note_on_c, 0, 69, 0
1, 102480, Note_on_c, 0, 71, 80
1, 102935, Note_on_c, 0, 71, 0
1, 103560, Note_on_c, 0, 73, 80
1, 103787, Note_on_c, 0, 73, 0
1, 103800, Note_on_c, 0, 76, 80
1, 104027, Note_on_c, 0, 76, 0
1, 104040, Note_on_c, 0, 74, 80
1, 104267, Note_on_c, 0, 74, 0
1, 104280, Note_on_c, 0, 73, 80
1, 104507, Note_on_c, 0, 73, 0
1, 104520, Note_on_c, 0, 71, 80
1, 104747, Note_on_c, 0, 71, 0
1, 104760, Note_on_c, 0, 69, 80
1, 104987, Note_on_c, 0, 69, 0
1, 105000, Note_on_c, 0, 69, 80
1, 105455, Note_on_c, 0, 69, 0
1, 105600, Note_on_c, 0, 73, 80
1, 105713, Note_on_c, 0, 73, 0
1, 105720, Note_on_c, 0, 76, 80
1, 105947, Note_on_c, 0, 76, 0
1, 105960, Note_on_c, 0, 74, 80
1, 106187, Note_on_c, 0, 74, 0
1, 106200, Note_on_c, 0, 73, 80
1, 106427, Note_on_c, 0, 73, 0
1, 106440, Note_on_c, 0, 71, 80
1, 106667, Note_on_c, 0, 71, 0
1, 106680, Note_on_c, 0, 69, 80
1, 106907, Note_on_c, 0, 69, 0
1, 106920, Note_on_c, 0, 71, 80
1, 107375, Note_on_c, 0, 71, 0
1, 107520, Note_on_c, 0, 71, 80
1, 107747, Note_on_c, 0, 71, 0
1, 107760, Note_on_c, 0, 68, 80
1, 107987, Note_on_c, 0, 68, 0
1, 108960, Note_on_c, 0, 73, 80
1, 109415, Note_on_c, 0, 73, 0
1, 109440, Note_on_c, 0, 74, 80
1, 109667, Note_on_c, 0, 74, 0
1, 109680, Note_on_c, 0, 76, 80
1, 111275, Note_on_c, 0, 76, 0
1, 111360, Note_on_c, 0, 71, 80
1, 111587, Note_on_c, 0, 71, 0
1, 111600, Note_on_c, 0, 68, 80
1, 111827, Note_on_c, 0, 68, 0
1, 111840, Note_on_c, 0, 69, 80
1, 112295, Note_on_c, 0, 69, 0
1, 112320, Note_on_c, 0, 71, 80
1, 112775, Note_on_c, 0, 71, 0
1, 112800, Note_on_c, 0, 73, 80
1, 113255, Note_on_c, 0, 73, 0
1, 113280, Note_on_c, 0, 69, 80
1, 113507, Note_on_c, 0, 69, 0
1, 113520, Note_on_c, 0, 71, 80
1, 114659, Note_on_c, 0, 71, 0
1, 114960, Note_on_c, 0, 69, 80
1, 115187, Note_on_c, 0, 69, 0
1, 115200, Note_on_c, 0, 78, 80
1, 115541, Note_on_c, 0, 78, 0
1, 115560, Note_on_c, 0, 76, 80
1, 115787, Note_on_c, 0, 76, 0
1, 115800, Note_on_c, 0, 74, 80
1, 115913, Note_on_c, 0, 74, 0
1, 115920, Note_on_c, 0, 73, 80
1, 116147, Note_on_c, 0, 73, 0
1, 116160, Note_on_c, 0, 71, 80
1, 116387, Note_on_c, 0, 71, 0
1, 116400, Note_on_c, 0, 76, 80
1, 116627, Note_on_c, 0, 76, 0
1, 116640, Note_on_c, 0, 74, 80
1, 116867, Note_on_c, 0, 74, 0
1, 116880, Note_on_c, 0, 73, 80
1, 117107, Note_on_c, 0, 73, 0
1, 117120, Note_on_c, 0, 69, 80
1, 117347, Note_on_c, 0, 69, 0
1, 117360, Note_on_c, 0, 69, 80
1, 117815, Note_on_c, 0, 69, 0
1, 117840, Note_on_c, 0, 71, 80
1, 118067, Note_on_c, 0, 71, 0
1, 118320, Note_on_c, 0, 76, 80
1, 118547, Note_on_c, 0, 76, 0
1, 118560, Note_on_c, 0, 74, 80
1, 118787, Note_on_c, 0, 74, 0
1, 118800, Note_on_c, 0, 73, 80
1, 119027, Note_on_c, 0, 73, 0
1, 119040, Note_on_c, 0, 69, 80
1, 119267, Note_on_c, 0, 69, 0
1, 119280, Note_on_c, 0, 69, 80
1, 119735, Note_on_c, 0, 69, 0
1, 119760, Note_on_c, 0, 71, 80
1, 119987, Note_on_c, 0, 71, 0
1, 120240, Note_on_c, 0, 76, 80
1, 120467, Note_on_c, 0, 76, 0
1, 120480, Note_on_c, 0, 74, 80
1, 120707, Note_on_c, 0, 74, 0
1, 120720, Note_on_c, 0, 73, 80
1, 120947, Note_on_c, 0, 73, 0
1, 120960, Note_on_c, 0, 69, 80
1, 121187, Note_on_c, 0, 69, 0
1, 121200, Note_on_c, 0, 71, 80
1, 121655, Note_on_c, 0, 71, 0
1, 122160, Note_on_c, 0, 69, 80
1, 122387, Note_on_c, 0, 69, 0
1, 122400, Note_on_c, 0, 69, 80
1, 122627, Note_on_c, 0, 69, 0
1, 122640, Note_on_c, 0, 71, 80
1, 122867, Note_on_c, 0, 71, 0
1, 122880, Note_on_c, 0, 76, 80
1, 123107, Note_on_c, 0, 76, 0
1, 123120, Note_on_c, 0, 76, 80
1, 123347, Note_on_c, 0, 76, 0
1, 123360, Note_on_c, 0, 73, 80
1, 123815, Note_on_c, 0, 73, 0
1, 124200, Note_on_c, 0, 57, 80
1, 124313, Note_on_c, 0, 57, 0
1, 124320, Note_on_c, 0, 61, 80
1, 124433, Note_on_c, 0, 61, 0
1, 124440, Note_on_c, 0, 61, 80
1, 124553, Note_on_c, 0, 61, 0
1, 124560, Note_on_c, 0, 61, 80
1, 124673, Note_on_c, 0, 61, 0
1, 124680, Note_on_c, 0, 61, 80
1, 124793, Note_on_c, 0, 61, 0
1, 124800, Note_on_c, 0, 59, 80
1, 124913, Note_on_c, 0, 59, 0
1, 124920, Note_on_c, 0, 57, 80
1, 125033, Note_on_c, 0, 57, 0
1, 125040, Note_on_c, 0, 57, 80
1, 125153, Note_on_c, 0, 57, 0
1, 125160, Note_on_c, 0, 59, 80
1, 125273, Note_on_c, 0, 59, 0
1, 125280, Note_on_c, 0, 59, 80
1, 125735, Note_on_c, 0, 59, 0
1, 126120, Note_on_c, 0, 57, 80
1, 126233, Note_on_c, 0, 57, 0
1, 126240, Note_on_c, 0, 61, 80
1, 126353, Note_on_c, 0, 61, 0
1, 126360, Note_on_c, 0, 61, 80
1, 126473, Note_on_c, 0, 61, 0
1, 126480, Note_on_c, 0, 61, 80
1, 126593, Note_on_c, 0, 61, 0
1, 126600, Note_on_c, 0, 61, 80
1, 126713, Note_on_c, 0, 61, 0
1, 126720, Note_on_c, 0, 59, 80
1, 126833, Note_on_c, 0, 59, 0
1, 126840, Note_on_c, 0, 57, 80
1, 126953, Note_on_c, 0, 57, 0
1, 126960, Note_on_c, 0, 57, 80
1, 127073, Note_on_c, 0, 57, 0
1, 127080, Note_on_c, 0, 59, 80
1, 127193, Note_on_c, 0, 59, 0
1, 127200, Note_on_c, 0, 59, 80
1, 127655, Note_on_c, 0, 59, 0
1, 128040, Note_on_c, 0, 57, 80
1, 128153, Note_on_c, 0, 57, 0
1, 128160, Note_on_c, 0, 61, 80
1, 128273, Note_on_c, 0, 61, 0
1, 128280, Note_on_c, 0, 61, 80
1, 128393, Note_on_c, 0, 61, 0
1, 128400, Note_on_c, 0, 61, 80
1, 128513, Note_on_c, 0, 61, 0
1, 128520, Note_on_c, 0, 61, 80
1, 128633, Note_on_c, 0, 61, 0
1, 128640, Note_on_c, 0, 59, 80
1, 128753, Note_on_c, 0, 59, 0
1, 128760, Note_on_c, 0, 57, 80
1, 128873, Note_on_c, 0, 57, 0
1, 128880, Note_on_c, 0, 57, 80
1, 128993, Note_on_c, 0, 57, 0
1, 129000, Note_on_c, 0, 59, 80
1, 129113, Note_on_c, 0, 59, 0
1, 129120, Note_on_c, 0, 61, 80
1, 129233, Note_on_c, 0, 61, 0
1, 129240, Note_on_c, 0, 62, 80
1, 129353, Note_on_c, 0, 62, 0
1, 129360, Note_on_c, 0, 64, 80
1, 129473, Note_on_c, 0, 64, 0
1, 129480, Note_on_c, 0, 59, 80
1, 129821, Note_on_c, 0, 59, 0
1, 129840, Note_on_c, 0, 57, 80
1, 129953, Note_on_c, 0, 57, 0
1, 129960, Note_on_c, 0, 59, 80
1, 130073, Note_on_c, 0, 59, 0
1, 130080, Note_on_c, 0, 61, 80
1, 130193, Note_on_c, 0, 61, 0
1, 130200, Note_on_c, 0, 62, 80
1, 130313, Note_on_c, 0, 62, 0
1, 130320, Note_on_c, 0, 64, 80
1, 130433, Note_on_c, 0, 64, 0
1, 130440, Note_on_c, 0, 59, 80
1, 130781, Note_on_c, 0, 59, 0
1, 130800, Note_on_c, 0, 61, 80
1, 130913, Note_on_c, 0, 61, 0
1, 130920, Note_on_c, 0, 59, 80
1, 131375, Note_on_c, 0, 59, 0
2, 0, Note_on_c, 1, 71, 80
2, 1367, Note_on_c, 1, 71, 0
2, 1440, Note_on_c, 1, 71, 80
2, 3719, Note_on_c, 1, 71, 0
2, 3840, Note_on_c, 1, 69, 80
2, 5207, Note_on_c, 1, 69, 0
2, 5280, Note_on_c, 1, 67, 80
2, 7103, Note_on_c, 1, 67, 0
2, 7680, Note_on_c, 1, 71, 80
2, 9047, Note_on_c, 1, 71, 0
2, 9120, Note_on_c, 1, 71, 80
2, 11399, Note_on_c, 1, 71, 0
2, 11520, Note_on_c, 1, 69, 80
2, 12887, Note_on_c, 1, 69, 0
2, 12960, Note_on_c, 1, 67, 80
2, 15239, Note_on_c, 1, 67, 0
2, 15360, Note_on_c, 1, 71, 80
2, 16727, Note_on_c, 1, 71, 0
2, 16800, Note_on_c, 1, 71, 80
2, 19079, Note_on_c, 1, 71, 0
2, 19200, Note_on_c, 1, 69, 80
2, 20567, Note_on_c, 1, 69, 0
2, 20640, Note_on_c, 1, 67, 80
2, 20640, Note_on_c, 1, 70, 80
2, 22691, Note_on_c, 1, 67, 0
2, 22691, Note_on_c, 1, 70, 0
2, 23040, Note_on_c, 1, 71, 80
2, 24407, Note_on_c, 1, 71, 0
2, 24480, Note_on_c, 1, 71, 80
2, 26759, Note_on_c, 1, 71, 0
2, 26880, Note_on_c, 1, 69, 80
2, 28247, Note_on_c, 1, 69, 0
2, 28320, Note_on_c, 1, 67, 80
2, 30143, Note_on_c, 1, 67, 0
2, 30720, Note_on_c, 1, 71, 80
2, 32087, Note_on_c, 1, 71, 0
2, 32160, Note_on_c, 1, 71, 80
2, 34439, Note_on_c, 1, 71, 0
2, 34560, Note_on_c, 1, 69, 80
2, 35927, Note_on_c, 1, 69, 0
2, 36000, Note_on_c, 1, 70, 80
2, 38279, Note_on_c, 1, 70, 0
2, 38400, Note_on_c, 1, 71, 80
2, 39311, Note_on_c, 1, 71, 0
2, 39360, Note_on_c, 1, 69, 80
2, 39815, Note_on_c, 1, 69, 0
2, 39840, Note_on_c, 1, 68, 80
2, 42119, Note_on_c, 1, 68, 0
2, 42240, Note_on_c, 1, 69, 80
2, 43607, Note_on_c, 1, 69, 0
2, 43680, Note_on_c, 1, 70, 80
2, 45959, Note_on_c, 1, 70, 0
2, 46080, Note_on_c, 1, 71, 80
2, 46991, Note_on_c, 1, 71, 0
2, 47040, Note_on_c, 1, 69, 80
2, 47495, Note_on_c, 1, 69, 0
2, 47520, Note_on_c, 1, 68, 80
2, 49799, Note_on_c, 1, 68, 0
2, 49920, Note_on_c, 1, 71, 80
2, 50147, Note_on_c, 1, 71, 0
2, 50160, Note_on_c, 1, 69, 80
2, 50387, Note_on_c, 1, 69, 0
2, 50400, Note_on_c, 1, 71, 80
2, 50627, Note_on_c, 1, 71, 0
2, 50640, Note_on_c, 1, 69, 80
2, 50867, Note_on_c, 1, 69, 0
2, 50880, Note_on_c, 1, 71, 80
2, 51335, Note_on_c, 1, 71, 0
2, 51360, Note_on_c, 1, 69, 80
2, 52727, Note_on_c, 1, 69, 0
2, 52800, Note_on_c, 1, 71, 80
2, 53711, Note_on_c, 1, 71, 0
2, 53760, Note_on_c, 1, 71, 80
2, 53879, Note_on_c, 1, 71, 0
2, 54480, Note_on_c, 1, 71, 80
2, 54599, Note_on_c, 1, 71, 0
2, 60000, Note_on_c, 1, 73, 80
2, 60113, Note_on_c, 1, 73, 0
2, 60120, Note_on_c, 1, 74, 80
2, 60233, Note_on_c, 1, 74, 0
2, 60240, Note_on_c, 1, 76, 80
2, 60353, Note_on_c, 1, 76, 0
2, 60360, Note_on_c, 1, 71, 80
2, 60701, Note_on_c, 1, 71, 0
2, 60720, Note_on_c, 1, 69, 80
2, 60833, Note_on_c, 1, 69, 0
2, 60840, Note_on_c, 1, 71, 80
2, 60953, Note_on_c, 1, 71, 0
2, 60960, Note_on_c, 1, 73, 80
2, 61073, Note_on_c, 1, 73, 0
2, 61080, Note_on_c, 1, 74, 80
2, 61193, Note_on_c, 1, 74, 0
2, 61200, Note_on_c, 1, 76, 80
2, 61313, Note_on_c, 1, 76, 0
2, 61320, Note_on_c, 1, 71, 80
2, 61661, Note_on_c, 1, 71, 0
2, 61920, Note_on_c, 1, 71, 64
2, 62099, Note_on_c, 1, 71, 0
2, 62280, Note_on_c, 1, 71, 64
2, 62459, Note_on_c, 1, 71, 0
2, 62640, Note_on_c, 1, 71, 64
2, 62759, Note_on_c, 1, 71, 0
2, 62880, Note_on_c, 1, 73, 64
2, 63059, Note_on_c, 1, 73, 0
2, 63240, Note_on_c, 1, 73, 64
2, 63419, Note_on_c, 1, 73, 0
2, 63600, Note_on_c, 1, 73, 64
2, 63719, Note_on_c, 1, 73, 0
2, 63840, Note_on_c, 1, 76, 64
2, 64019, Note_on_c, 1, 76, 0
2, 64200, Note_on_c, 1, 76, 64
2, 64379, Note_on_c, 1, 76, 0
2, 64560, Note_on_c, 1, 76, 64
2, 64679, Note_on_c, 1, 76, 0
2, 64800, Note_on_c, 1, 73, 64
2, 64979, Note_on_c, 1, 73, 0
2, 65160, Note_on_c, 1, 73, 64
2, 65339, Note_on_c, 1, 73, 0
2, 65520, Note_on_c, 1, 73, 64
2, 65639, Note_on_c, 1, 73, 0
2, 65760, Note_on_c, 1, 71, 64
2, 65939, Note_on_c, 1, 71, 0
2, 66120, Note_on_c, 1, 71, 64
2, 66407, Note_on_c, 1, 71, 0
2, 66480, Note_on_c, 1, 71, 64
2, 66599, Note_on_c, 1, 71, 0
2, 66720, Note_on_c, 1, 73, 64
2, 66899, Note_on_c, 1, 73, 0
2, 67080, Note_on_c, 1, 73, 64
2, 67259, Note_on_c, 1, 73, 0
2, 67440, Note_on_c, 1, 73, 64
2, 67559, Note_on_c, 1, 73, 0
2, 67680, Note_on_c, 1, 76, 64
2, 67859, Note_on_c, 1, 76, 0
2, 68040, Note_on_c, 1, 76, 64
2, 68219, Note_on_c, 1, 76, 0
2, 68400, Note_on_c, 1, 76, 64
2, 68519, Note_on_c, 1, 76, 0
2, 68640, Note_on_c, 1, 73, 64
2, 68819, Note_on_c, 1, 73, 0
2, 69000, Note_on_c, 1, 73, 64
2, 69287, Note_on_c, 1, 73, 0
2, 69360, Note_on_c, 1, 73, 64
2, 69587, Note_on_c, 1, 73, 0
2, 69600, Note_on_c, 1, 71, 64
2, 69941, Note_on_c, 1, 71, 0
2, 69960, Note_on_c, 1, 71, 64
2, 70193, Note_on_c, 1, 71, 0
2, 70320, Note_on_c, 1, 71, 64
2, 70439, Note_on_c, 1, 71, 0
2, 70560, Note_on_c, 1, 69, 64
2, 70739, Note_on_c, 1, 69, 0
2, 70920, Note_on_c, 1, 69, 64
2, 71153, Note_on_c, 1, 69, 0
2, 71280, Note_on_c, 1, 69, 64
2, 71399, Note_on_c, 1, 69, 0
2, 71520, Note_on_c, 1, 73, 64
2, 71699, Note_on_c, 1, 73, 0
2, 71880, Note_on_c, 1, 73, 64
2, 72059, Note_on_c, 1, 73, 0
2, 72240, Note_on_c, 1, 73, 64
2, 72359, Note_on_c, 1, 73, 0
2, 72480, Note_on_c, 1, 69, 64
2, 72659, Note_on_c, 1, 69, 0
2, 72840, Note_on_c, 1, 69, 64
2, 73019, Note_on_c, 1, 69, 0
2, 73200, Note_on_c, 1, 69, 64
2, 73319, Note_on_c, 1, 69, 0
2, 73440, Note_on_c, 1, 71, 64
2, 73619, Note_on_c, 1, 71, 0
2, 73800, Note_on_c, 1, 71, 64
2, 73979, Note_on_c, 1, 71, 0
2, 74160, Note_on_c, 1, 71, 64
2, 74279, Note_on_c, 1, 71, 0
2, 74400, Note_on_c, 1, 69, 64
2, 74579, Note_on_c, 1, 69, 0
2, 74760, Note_on_c, 1, 69, 64
2, 74939, Note_on_c, 1, 69, 0
2, 75120, Note_on_c, 1, 69, 64
2, 75239, Note_on_c, 1, 69, 0
2, 75360, Note_on_c, 1, 73, 64
2, 75539, Note_on_c, 1, 73, 0
2, 75720, Note_on_c, 1, 73, 64
2, 75899, Note_on_c, 1, 73, 0
2, 76080, Note_on_c, 1, 73, 64
2, 76199, Note_on_c, 1, 73, 0
2, 76320, Note_on_c, 1, 69, 64
2, 76499, Note_on_c, 1, 69, 0
2, 76680, Note_on_c, 1, 69, 64
2, 76859, Note_on_c, 1, 69, 0
2, 77040, Note_on_c, 1, 69, 64
2, 77159, Note_on_c, 1, 69, 0
2, 77280, Note_on_c, 1, 71, 64
2, 77459, Note_on_c, 1, 71, 0
2, 77640, Note_on_c, 1, 71, 64
2, 77819, Note_on_c, 1, 71, 0
2, 78000, Note_on_c, 1, 71, 64
2, 78119, Note_on_c, 1, 71, 0
2, 78240, Note_on_c, 1, 69, 64
2, 78419, Note_on_c, 1, 69, 0
2, 78600, Note_on_c, 1, 69, 64
2, 78779, Note_on_c, 1, 69, 0
2, 78960, Note_on_c, 1, 69, 64
2, 79079, Note_on_c, 1, 69, 0
2, 79200, Note_on_c, 1, 73, 64
2, 79379, Note_on_c, 1, 73, 0
2, 79560, Note_on_c, 1, 73, 64
2, 79739, Note_on_c, 1, 73, 0
2, 79920, Note_on_c, 1, 73, 64
2, 80039, Note_on_c, 1, 73, 0
2, 80160, Note_on_c, 1, 69, 64
2, 80339, Note_on_c, 1, 69, 0
2, 80520, Note_on_c, 1, 69, 64
2, 80699, Note_on_c, 1, 69, 0
2, 80880, Note_on_c, 1, 69, 64
2, 80999, Note_on_c, 1, 69, 0
2, 81120, Note_on_c, 1, 71, 64
2, 81299, Note_on_c, 1, 71, 0
2, 81480, Note_on_c, 1, 71, 64
2, 81659, Note_on_c, 1, 71, 0
2, 81840, Note_on_c, 1, 71, 64
2, 81959, Note_on_c, 1, 71, 0
2, 82080, Note_on_c, 1, 69, 64
2, 82259, Note_on_c, 1, 69, 0
2, 82440, Note_on_c, 1, 69, 64
2, 82619, Note_on_c, 1, 69, 0
2, 82800, Note_on_c, 1, 69, 64
2, 82919, Note_on_c, 1, 69, 0
2, 83040, Note_on_c, 1, 73, 64
2, 83219, Note_on_c, 1, 73, 0
2, 83400, Note_on_c, 1, 73, 64
2, 83579, Note_on_c, 1, 73, 0
2, 83760, Note_on_c, 1, 73, 64
2, 83879, Note_on_c, 1, 73, 0
2, 84000, Note_on_c, 1, 69, 64
2, 84179, Note_on_c, 1, 69, 0
2, 84360, Note_on_c, 1, 69, 64
2, 84539, Note_on_c, 1, 69, 0
2, 84720, Note_on_c, 1, 69, 64
2, 84839, Note_on_c, 1, 69, 0
2, 84960, Note_on_c, 1, 71, 64
2, 85139, Note_on_c, 1, 71, 0
2, 85320, Note_on_c, 1, 71, 64
2, 85499, Note_on_c, 1, 71, 0
2, 85680, Note_on_c, 1, 71, 64
2, 85799, Note_on_c, 1, 71, 0
2, 85920, Note_on_c, 1, 69, 64
2, 86099, Note_on_c, 1, 69, 0
2, 86280, Note_on_c, 1, 69, 64
2, 86459, Note_on_c, 1, 69, 0
2, 86640, Note_on_c, 1, 69, 64
2, 86759, Note_on_c, 1, 69, 0
2, 86880, Note_on_c, 1, 73, 64
2, 87059, Note_on_c, 1, 73, 0
2, 87240, Note_on_c, 1, 73, 64
2, 87419, Note_on_c, 1, 73, 0
2, 87600, Note_on_c, 1, 73, 64
2, 87719, Note_on_c, 1, 73, 0
2, 87840, Note_on_c, 1, 69, 64
2, 88019, Note_on_c, 1, 69, 0
2, 88200, Note_on_c, 1, 69, 64
2, 88379, Note_on_c, 1, 69, 0
2, 88560, Note_on_c, 1, 69, 64
2, 88679, Note_on_c, 1, 69, 0
2, 88800, Note_on_c, 1, 71, 64
2, 88979, Note_on_c, 1, 71, 0
2, 89160, Note_on_c, 1, 71, 64
2, 89339, Note_on_c, 1, 71, 0
2, 89520, Note_on_c, 1, 71, 64
2, 89639, Note_on_c, 1, 71, 0
2, 89760, Note_on_c, 1, 69, 64
2, 89939, Note_on_c, 1, 69, 0
2, 90120, Note_on_c, 1, 69, 64
2, 90299, Note_on_c, 1, 69, 0
2, 90480, Note_on_c, 1, 69, 64
2, 90599, Note_on_c, 1, 69, 0
2, 90720, Note_on_c, 1, 73, 64
2, 90899, Note_on_c, 1, 73, 0
2, 91080, Note_on_c, 1, 73, 64
2, 91259, Note_on_c, 1, 73, 0
2, 91440, Note_on_c, 1, 73, 64
2, 91559, Note_on_c, 1, 73, 0
2, 91680, Note_on_c, 1, 69, 64
2, 91859, Note_on_c, 1, 69, 0
2, 92040, Note_on_c, 1, 69, 64
2, 92219, Note_on_c, 1, 69, 0
2, 92400, Note_on_c, 1, 69, 64
2, 92519, Note_on_c, 1, 69, 0
2, 92640, Note_on_c, 1, 71, 64
2, 92879, Note_on_c, 1, 71, 0
2, 93120, Note_on_c, 1, 73, 64
2, 93347, Note_on_c, 1, 73, 0
2, 93360, Note_on_c, 1, 71, 64
2, 93587, Note_on_c, 1, 71, 0
2, 93600, Note_on_c, 1, 69, 64
2, 94511, Note_on_c, 1, 69, 0
2, 94560, Note_on_c, 1, 73, 64
2, 95471, Note_on_c, 1, 73, 0
2, 95520, Note_on_c, 1, 69, 64
2, 96431, Note_on_c, 1, 69, 0
2, 96480, Note_on_c, 1, 73, 64
2, 97391, Note_on_c, 1, 73, 0
2, 97440, Note_on_c, 1, 69, 64
2, 98351, Note_on_c, 1, 69, 0
2, 98400, Note_on_c, 1, 73, 64
2, 99311, Note_on_c, 1, 73, 0
2, 99360, Note_on_c, 1, 69, 64
2, 100055, Note_on_c, 1, 69, 0
2, 100320, Note_on_c, 1, 71, 80
2, 100499, Note_on_c, 1, 71, 0
2, 100680, Note_on_c, 1, 71, 80
2, 100859, Note_on_c, 1, 71, 0
2, 101040, Note_on_c, 1, 71, 80
2, 101159, Note_on_c, 1, 71, 0
2, 101280, Note_on_c, 1, 69, 80
2, 101459, Note_on_c, 1, 69, 0
2, 101640, Note_on_c, 1, 69, 80
2, 101819, Note_on_c, 1, 69, 0
2, 102000, Note_on_c, 1, 69, 80
2, 102119, Note_on_c, 1, 69, 0
2, 102240, Note_on_c, 1, 73, 80
2, 102419, Note_on_c, 1, 73, 0
2, 102600, Note_on_c, 1, 73, 80
2, 102779, Note_on_c, 1, 73, 0
2, 102960, Note_on_c, 1, 73, 80
2, 103079, Note_on_c, 1, 73, 0
2, 103200, Note_on_c, 1, 69, 80
2, 103379, Note_on_c, 1, 69, 0
2, 103560, Note_on_c, 1, 69, 80
2, 103739, Note_on_c, 1, 69, 0
2, 103920, Note_on_c, 1, 69, 80
2, 104039, Note_on_c, 1, 69, 0
2, 104160, Note_on_c, 1, 71, 80
2, 104339, Note_on_c, 1, 71, 0
2, 104520, Note_on_c, 1, 71, 80
2, 104699, Note_on_c, 1, 71, 0
2, 104880, Note_on_c, 1, 71, 80
2, 104999, Note_on_c, 1, 71, 0
2, 105120, Note_on_c, 1, 69, 80
2, 105299, Note_on_c, 1, 69, 0
2, 105480, Note_on_c, 1, 69, 80
2, 105659, Note_on_c, 1, 69, 0
2, 105840, Note_on_c, 1, 69, 80
2, 105959, Note_on_c, 1, 69, 0
2, 106080, Note_on_c, 1, 73, 80
2, 106259, Note_on_c, 1, 73, 0
2, 106440, Note_on_c, 1, 73, 80
2, 106619, Note_on_c, 1, 73, 0
2, 106800, Note_on_c, 1, 73, 80
2, 106919, Note_on_c, 1, 73, 0
2, 107040, Note_on_c, 1, 69, 80
2, 107219, Note_on_c, 1, 69, 0
2, 107400, Note_on_c, 1, 69, 80
2, 107579, Note_on_c, 1, 69, 0
2, 107760, Note_on_c, 1, 69, 80
2, 107879, Note_on_c, 1, 69, 0
2, 108480, Note_on_c, 1, 71, 80
2, 108480, Note_on_c, 1, 73, 80
2, 109391, Note_on_c, 1, 71, 0
2, 109391, Note_on_c, 1, 73, 0
2, 109440, Note_on_c, 1, 74, 80
2, 109667, Note_on_c, 1, 74, 0
2, 109680, Note_on_c, 1, 76, 80
2, 111275, Note_on_c, 1, 76, 0
2, 111840, Note_on_c, 1, 73, 80
2, 112295, Note_on_c, 1, 73, 0
2, 112320, Note_on_c, 1, 74, 80
2, 112775, Note_on_c, 1, 74, 0
2, 112800, Note_on_c, 1, 76, 80
2, 113255, Note_on_c, 1, 76, 0
2, 113280, Note_on_c, 1, 76, 80
2, 113507, Note_on_c, 1, 76, 0
2, 113520, Note_on_c, 1, 76, 80
2, 115571, Note_on_c, 1, 76, 0
2, 115680, Note_on_c, 1, 71, 64
2, 115859, Note_on_c, 1, 71, 0
2, 116040, Note_on_c, 1, 71, 64
2, 116219, Note_on_c, 1, 71, 0
2, 116400, Note_on_c, 1, 71, 64
2, 116519, Note_on_c, 1, 71, 0
2, 116640, Note_on_c, 1, 69, 64
2, 116819, Note_on_c, 1, 69, 0
2, 117000, Note_on_c, 1, 69, 64
2, 117179, Note_on_c, 1, 69, 0
2, 117360, Note_on_c, 1, 69, 64
2, 117479, Note_on_c, 1, 69, 0
2, 117600, Note_on_c, 1, 73, 64
2, 117779, Note_on_c, 1, 73, 0
2, 117960, Note_on_c, 1, 73, 64
2, 118139, Note_on_c, 1, 73, 0
2, 118320, Note_on_c, 1, 73, 64
2, 118439, Note_on_c, 1, 73, 0
2, 118560, Note_on_c, 1, 69, 64
2, 118739, Note_on_c, 1, 69, 0
2, 118920, Note_on_c, 1, 69, 64
2, 119099, Note_on_c, 1, 69, 0
2, 119280, Note_on_c, 1, 69, 64
2, 119399, Note_on_c, 1, 69, 0
2, 119520, Note_on_c, 1, 71, 64
2, 119699, Note_on_c, 1, 71, 0
2, 119880, Note_on_c, 1, 71, 64
2, 120059, Note_on_c, 1, 71, 0
2, 120240, Note_on_c, 1, 71, 64
2, 120359, Note_on_c, 1, 71, 0
2, 120480, Note_on_c, 1, 69, 64
2, 120659, Note_on_c, 1, 69, 0
2, 120840, Note_on_c, 1, 69, 64
2, 121019, Note_on_c, 1, 69, 0
2, 121200, Note_on_c, 1, 69, 64
2, 121319, Note_on_c, 1, 69, 0
2, 121440, Note_on_c, 1, 73, 64
2, 121619, Note_on_c, 1, 73, 0
2, 121800, Note_on_c, 1, 73, 64
2, 121979, Note_on_c, 1, 73, 0
2, 122160, Note_on_c, 1, 73, 64
2, 122279, Note_on_c, 1, 73, 0
2, 122400, Note_on_c, 1, 69, 64
2, 122579, Note_on_c, 1, 69, 0
2, 122760, Note_on_c, 1, 69, 64
2, 122939, Note_on_c, 1, 69, 0
2, 123120, Note_on_c, 1, 69, 64
2, 123239, Note_on_c, 1, 69, 0
2, 123360, Note_on_c, 1, 71, 64
2, 123539, Note_on_c, 1, 71, 0
2, 123720, Note_on_c, 1, 71, 64
2, 124007, Note_on_c, 1, 71, 0
2, 124080, Note_on_c, 1, 71, 64
2, 124199, Note_on_c, 1, 71, 0
2, 124320, Note_on_c, 1, 69, 64
2, 124499, Note_on_c, 1, 69, 0
2, 124680, Note_on_c, 1, 69, 64
2, 124859, Note_on_c, 1, 69, 0
2, 125040, Note_on_c, 1, 69, 64
2, 125159, Note_on_c, 1, 69, 0
2, 125280, Note_on_c, 1, 73, 64
2, 125459, Note_on_c, 1, 73, 0
2, 125640, Note_on_c, 1, 73, 64
2, 125819, Note_on_c, 1, 73, 0
2, 126000, Note_on_c, 1, 73, 64
2, 126119, Note_on_c, 1, 73, 0
2, 126240, Note_on_c, 1, 69, 64
2, 126419, Note_on_c, 1, 69, 0
2, 126600, Note_on_c, 1, 69, 64
2, 126779, Note_on_c, 1, 69, 0
2, 126960, Note_on_c, 1, 69, 64
2, 127079, Note_on_c, 1, 69, 0
2, 127200, Note_on_c, 1, 71, 64
2, 127379, Note_on_c, 1, 71, 0
2, 127560, Note_on_c, 1, 71, 64
2, 127847, Note_on_c, 1, 71, 0
2, 127920, Note_on_c, 1, 71, 64
2, 128039, Note_on_c, 1, 71, 0
2, 128160, Note_on_c, 1, 69, 64
2, 128339, Note_on_c, 1, 69, 0
2, 128520, Note_on_c, 1, 69, 64
2, 128699, Note_on_c, 1, 69, 0
2, 128880, Note_on_c, 1, 69, 64
2, 128999, Note_on_c, 1, 69, 0
2, 129120, Note_on_c, 1, 73, 64
2, 129233, Note_on_c, 1, 73, 0
2, 129240, Note_on_c, 1, 74, 64
2, 129353, Note_on_c, 1, 74, 0
2, 129360, Note_on_c, 1, 76, 64
2, 129473, Note_on_c, 1, 76, 0
2, 129480, Note_on_c, 1, 71, 64
2, 129821, Note_on_c, 1, 71, 0
2, 129840, Note_on_c, 1, 69, 64
2, 129953, Note_on_c, 1, 69, 0
2, 129960, Note_on_c, 1, 71, 64
2, 130073, Note_on_c, 1, 71, 0
2, 130080, Note_on_c, 1, 73, 64
2, 130193, Note_on_c, 1, 73, 0
2, 130200, Note_on_c, 1, 74, 64
2, 130313, Note_on_c, 1, 74, 0
2, 130320, Note_on_c, 1, 76, 64
2, 130433, Note_on_c, 1, 76, 0
2, 130440, Note_on_c, 1, 71, 64
2, 131009, Note_on_c, 1, 71, 0
1, 7680, Note_on_c, 0, 69, 80
1, 7907, Note_on_c, 0, 69, 0
1, 7920, Note_on_c, 0, 68, 80
1, 8147, Note_on_c, 0, 68, 0
1, 8160, Note_on_c, 0, 69, 80
1, 8387, Note_on_c, 0, 69, 0
1, 8400, Note_on_c, 0, 69, 80
1, 8400, Note_on_c, 0, 76, 80
1, 8400, Note_on_c, 0, 64, 80
1, 8855, Note_on_c, 0, 69, 0
1, 8855, Note_on_c, 0, 76, 0
1, 8880, Note_on_c, 0, 69, 80
1, 9083, Note_on_c, 0, 64, 0
1, 9107, Note_on_c, 0, 69, 0
1, 9120, Note_on_c, 0, 76, 80
1, 9120, Note_on_c, 0, 69, 80
1, 9120, Note_on_c, 0, 74, 80
1, 9803, Note_on_c, 0, 76, 0
1, 9803, Note_on_c, 0, 69, 0
1, 9803, Note_on_c, 0, 74, 0
1, 9840, Note_on_c, 0, 69, 80
1, 10067, Note_on_c, 0, 69, 0
1, 10080, Note_on_c, 0, 68, 80
1, 10307, Note_on_c, 0, 68, 0
1, 10320, Note_on_c, 0, 69, 80
1, 10547, Note_on_c, 0, 69, 0
1, 10560, Note_on_c, 0, 81, 80
1, 10787, Note_on_c, 0, 81, 0
1, 10800, Note_on_c, 0, 69, 80
1, 11027, Note_on_c, 0, 69, 0
1, 11040, Note_on_c, 0, 80, 80
1, 11267, Note_on_c, 0, 80, 0
1, 11280, Note_on_c, 0, 69, 80
1, 11507, Note_on_c, 0, 69, 0
1, 11520, Note_on_c, 0, 69, 80
1, 11747, Note_on_c, 0, 69, 0
1, 11760, Note_on_c, 0, 68, 80
1, 11987, Note_on_c, 0, 68, 0
1, 12000, Note_on_c, 0, 69, 80
1, 12227, Note_on_c, 0, 69, 0
1, 12240, Note_on_c, 0, 69, 80
1, 12240, Note_on_c, 0, 76, 80
1, 12240, Note_on_c, 0, 64, 80
1, 12695, Note_on_c, 0, 69, 0
1, 12695, Note_on_c, 0, 76, 0
1, 12720, Note_on_c, 0, 69, 80
1, 12923, Note_on_c, 0, 64, 0
1, 12947, Note_on_c, 0, 69, 0
1, 12960, Note_on_c, 0, 76, 80
1, 12960, Note_on_c, 0, 69, 80
1, 12960, Note_on_c, 0, 74, 80
1, 13643, Note_on_c, 0, 76, 0
1, 13643, Note_on_c, 0, 69, 0
1, 13643, Note_on_c, 0, 74, 0
1, 13680, Note_on_c, 0, 69, 80
1, 13907, Note_on_c, 0, 69, 0
1, 13920, Note_on_c, 0, 68, 80
1, 14147, Note_on_c, 0, 68, 0
1, 14160, Note_on_c, 0, 69, 80
1, 14387, Note_on_c, 0, 69, 0
1, 14400, Note_on_c, 0, 81, 80
1, 14627, Note_on_c, 0, 81, 0
1, 14640, Note_on_c, 0, 69, 80
1, 14867, Note_on_c, 0, 69, 0
1, 14880, Note_on_c, 0, 83, 80
1, 15107, Note_on_c, 0, 83, 0
1, 15120, Note_on_c, 0, 69, 80
1, 15347, Note_on_c, 0, 69, 0
1, 15360, Note_on_c, 0, 69, 80
1, 15587, Note_on_c, 0, 69, 0
1, 15600, Note_on_c, 0, 68, 80
1, 15827, Note_on_c, 0, 68, 0
1, 15840, Note_on_c, 0, 69, 80
1, 16067, Note_on_c, 0, 69, 0
1, 16080, Note_on_c, 0, 69, 80
1, 16080, Note_on_c, 0, 76, 80
1, 16080, Note_on_c, 0, 64, 80
1, 16535, Note_on_c, 0, 69, 0
1, 16535, Note_on_c, 0, 76, 0
1, 16560, Note_on_c, 0, 69, 80
1, 16763, Note_on_c, 0, 64, 0
1, 16787, Note_on_c, 0, 69, 0
1, 16800, Note_on_c, 0, 76, 80
1, 16800, Note_on_c, 0, 69, 80
1, 16800, Note_on_c, 0, 74, 80
1, 17483, Note_on_c, 0, 76, 0
1, 17483, Note_on_c, 0, 69, 0
1, 17483, Note_on_c, 0, 74, 0
1, 17520, Note_on_c, 0, 69, 80
1, 17747, Note_on_c, 0, 69, 0
1, 17760, Note_on_c, 0, 68, 80
1, 17987, Note_on_c, 0, 68, 0
1, 18000, Note_on_c, 0, 69, 80
1, 18227, Note_on_c, 0, 69, 0
1, 18240, Note_on_c, 0, 81, 80
1, 18467, Note_on_c, 0, 81, 0
1, 18480, Note_on_c, 0, 69, 80
1, 18707, Note_on_c, 0, 69, 0
1, 18720, Note_on_c, 0, 80, 80
1, 18947, Note_on_c, 0, 80, 0
1, 18960, Note_on_c, 0, 69, 80
1, 19187, Note_on_c, 0, 69, 0
1, 19200, Note_on_c, 0, 69, 80
1, 19427, Note_on_c, 0, 69, 0
1, 19440, Note_on_c, 0, 68, 80
1, 19667, Note_on_c, 0, 68, 0
1, 19680, Note_on_c, 0, 69, 80
1, 19907, Note_on_c, 0, 69, 0
1, 19920, Note_on_c, 0, 69, 80
1, 19920, Note_on_c, 0, 76, 80
1, 19920, Note_on_c, 0, 64, 80
1, 20375, Note_on_c, 0, 69, 0
1, 20375, Note_on_c, 0, 76, 0
1, 20400, Note_on_c, 0, 69, 80
1, 20603, Note_on_c, 0, 64, 0
1, 20627, Note_on_c, 0, 69, 0
1, 20640, Note_on_c, 0, 76, 80
1, 20640, Note_on_c, 0, 69, 80
1, 20640, Note_on_c, 0, 74, 80
1, 21551, Note_on_c, 0, 76, 0
1, 21551, Note_on_c, 0, 69, 0
1, 21551, Note_on_c, 0, 74, 0
1, 22080, Note_on_c, 0, 61, 80
1, 22535, Note_on_c, 0, 61, 0
1, 22560, Note_on_c, 0, 62, 80
1, 23015, Note_on_c, 0, 62, 0
1, 23040, Note_on_c, 0, 64, 80
1, 23951, Note_on_c, 0, 64, 0
1, 24000, Note_on_c, 0, 69, 80
1, 24911, Note_on_c, 0, 69, 0
1, 24960, Note_on_c, 0, 71, 80
1, 25415, Note_on_c, 0, 71, 0
1, 25440, Note_on_c, 0, 69, 80
1, 25895, Note_on_c, 0, 69, 0
1, 25920, Note_on_c, 0, 68, 80
1, 26375, Note_on_c, 0, 68, 0
1, 26400, Note_on_c, 0, 71, 80
1, 26855, Note_on_c, 0, 71, 0
1, 26880, Note_on_c, 0, 69, 80
1, 28019, Note_on_c, 0, 69, 0
1, 28080, Note_on_c, 0, 61, 80
1, 28307, Note_on_c, 0, 61, 0
1, 28320, Note_on_c, 0, 59, 80
1, 28547, Note_on_c, 0, 59, 0
1, 28560, Note_on_c, 0, 61, 80
1, 29699, Note_on_c, 0, 61, 0
1, 29760, Note_on_c, 0, 57, 80
1, 30215, Note_on_c, 0, 57, 0
1, 30240, Note_on_c, 0, 66, 80
1, 30695, Note_on_c, 0, 66, 0
1, 30720, Note_on_c, 0, 64, 80
1, 31631, Note_on_c, 0, 64, 0
1, 31680, Note_on_c, 0, 57, 80
1, 31907, Note_on_c, 0, 57, 0
1, 31920, Note_on_c, 0, 57, 80
1, 32147, Note_on_c, 0, 57, 0
1, 32160, Note_on_c, 0, 66, 80
1, 32615, Note_on_c, 0, 66, 0
1, 32640, Note_on_c, 0, 64, 80
1, 33551, Note_on_c, 0, 64, 0
1, 33600, Note_on_c, 0, 57, 80
1, 34055, Note_on_c, 0, 57, 0
1, 34080, Note_on_c, 0, 61, 80
1, 34535, Note_on_c, 0, 61, 0
1, 34560, Note_on_c, 0, 62, 80
1, 35015, Note_on_c, 0, 62, 0
1, 35040, Note_on_c, 0, 61, 80
1, 35267, Note_on_c, 0, 61, 0
1, 35280, Note_on_c, 0, 62, 80
1, 35735, Note_on_c, 0, 62, 0
1, 35760, Note_on_c, 0, 64, 80
1, 36215, Note_on_c, 0, 64, 0
1, 36240, Note_on_c, 0, 59, 80
1, 37379, Note_on_c, 0, 59, 0
1, 37440, Note_on_c, 0, 61, 80
1, 37895, Note_on_c, 0, 61, 0
1, 37920, Note_on_c, 0, 62, 80
1, 38375, Note_on_c, 0, 62, 0
1, 38400, Note_on_c, 0, 64, 80
1, 38400, Note_on_c, 0, 57, 80
1, 39311, Note_on_c, 0, 64, 0
1, 39311, Note_on_c, 0, 57, 0
1, 39360, Note_on_c, 0, 69, 80
1, 39360, Note_on_c, 0, 64, 80
1, 40271, Note_on_c, 0, 69, 0
1, 40271, Note_on_c, 0, 64, 0
1, 40320, Note_on_c, 0, 71, 80
1, 40320, Note_on_c, 0, 64, 80
1, 40775, Note_on_c, 0, 71, 0
1, 40800, Note_on_c, 0, 69, 80
1, 41255, Note_on_c, 0, 69, 0
1, 41280, Note_on_c, 0, 68, 80
1, 41687, Note_on_c, 0, 64, 0
1, 41735, Note_on_c, 0, 68, 0
1, 41760, Note_on_c, 0, 71, 80
1, 41760, Note_on_c, 0, 62, 80
1, 42215, Note_on_c, 0, 71, 0
1, 42215, Note_on_c, 0, 62, 0
1, 42240, Note_on_c, 0, 69, 80
1, 42240, Note_on_c, 0, 61, 80
1, 43379, Note_on_c, 0, 69, 0
1, 43379, Note_on_c, 0, 61, 0
1, 43440, Note_on_c, 0, 61, 80
1, 43440, Note_on_c, 0, 57, 80
1, 43667, Note_on_c, 0, 61, 0
1, 43667, Note_on_c, 0, 57, 0
1, 43680, Note_on_c, 0, 59, 80
1, 43907, Note_on_c, 0, 59, 0
1, 43920, Note_on_c, 0, 61, 80
1, 43920, Note_on_c, 0, 57, 80
1, 45059, Note_on_c, 0, 61, 0
1, 45059, Note_on_c, 0, 57, 0
1, 45120, Note_on_c, 0, 57, 80
1, 45347, Note_on_c, 0, 57, 0
1, 45360, Note_on_c, 0, 57, 80
1, 45587, Note_on_c, 0, 57, 0
1, 45600, Note_on_c, 0, 66, 80
1, 45600, Note_on_c, 0, 57, 80
1, 46055, Note_on_c, 0, 66, 0
1, 46055, Note_on_c, 0, 57, 0
1, 46080, Note_on_c, 0, 64, 80
1, 46080, Note_on_c, 0, 62, 80
1, 46991, Note_on_c, 0, 64, 0
1, 46991, Note_on_c, 0, 62, 0
1, 47040, Note_on_c, 0, 57, 80
1, 47267, Note_on_c, 0, 57, 0
1, 47280, Note_on_c, 0, 57, 80
1, 47507, Note_on_c, 0, 57, 0
1, 47520, Note_on_c, 0, 66, 80
1, 47520, Note_on_c, 0, 62, 80
1, 47975, Note_on_c, 0, 66, 0
1, 47975, Note_on_c, 0, 62, 0
1, 48000, Note_on_c, 0, 64, 80
1, 48000, Note_on_c, 0, 61, 80
1, 48911, Note_on_c, 0, 64, 0
1, 48911, Note_on_c, 0, 61, 0
1, 48960, Note_on_c, 0, 64, 80
1, 48960, Note_on_c, 0, 61, 80
1, 49415, Note_on_c, 0, 64, 0
1, 49415, Note_on_c, 0, 61, 0
1, 49440, Note_on_c, 0, 69, 80
1, 49440, Note_on_c, 0, 57, 80
1, 49895, Note_on_c, 0, 69, 0
1, 49895, Note_on_c, 0, 57, 0
1, 49920, Note_on_c, 0, 69, 80
1, 49920, Note_on_c, 0, 62, 80
1, 50375, Note_on_c, 0, 69, 0
1, 50400, Note_on_c, 0, 68, 80
1, 50603, Note_on_c, 0, 62, 0
1, 50627, Note_on_c, 0, 68, 0
1, 50640, Note_on_c, 0, 66, 80
1, 50640, Note_on_c, 0, 62, 80
1, 51095, Note_on_c, 0, 66, 0
1, 51095, Note_on_c, 0, 62, 0
1, 51120, Note_on_c, 0, 68, 80
1, 51120, Note_on_c, 0, 62, 80
1, 51575, Note_on_c, 0, 68, 0
1, 51575, Note_on_c, 0, 62, 0
1, 51600, Note_on_c, 0, 64, 80
1, 51600, Note_on_c, 0, 57, 80
1, 52739, Note_on_c, 0, 64, 0
1, 52739, Note_on_c, 0, 57, 0
1, 52800, Note_on_c, 0, 56, 80
1, 53711, Note_on_c, 0, 56, 0
1, 53760, Note_on_c, 0, 62, 80
1, 53987, Note_on_c, 0, 62, 0
1, 54000, Note_on_c, 0, 64, 80
1, 54227, Note_on_c, 0, 64, 0
1, 54240, Note_on_c, 0, 66, 80
1, 54467, Note_on_c, 0, 66, 0
1, 54480, Note_on_c, 0, 68, 80
1, 54935, Note_on_c, 0, 68, 0
1, 54960, Note_on_c, 0, 66, 80
1, 55187, Note_on_c, 0, 66, 0
1, 55200, Note_on_c, 0, 68, 80
1, 55427, Note_on_c, 0, 68, 0
1, 55440, Note_on_c, 0, 69, 80
1, 55895, Note_on_c, 0, 69, 0
1, 55920, Note_on_c, 0, 71, 80
1, 56147, Note_on_c, 0, 71, 0
1, 56160, Note_on_c, 0, 73, 80
1, 56160, Note_on_c, 0, 61, 80
1, 56615, Note_on_c, 0, 73, 0
1, 56615, Note_on_c, 0, 61, 0
1, 56640, Note_on_c, 0, 69, 80
1, 56640, Note_on_c, 0, 66, 80
1, 57095, Note_on_c, 0, 69, 0
1, 57095, Note_on_c, 0, 66, 0
1, 57120, Note_on_c, 0, 69, 80
1, 57347, Note_on_c, 0, 69, 0
1, 57360, Note_on_c, 0, 68, 80
1, 57587, Note_on_c, 0, 68, 0
1, 57600, Note_on_c, 0, 66, 80
1, 58055, Note_on_c, 0, 66, 0
1, 58080, Note_on_c, 0, 69, 80
1, 58535, Note_on_c, 0, 69, 0
1, 58560, Note_on_c, 0, 68, 80
1, 58560, Note_on_c, 0, 64, 80
1, 58787, Note_on_c, 0, 68, 0
1, 58787, Note_on_c, 0, 64, 0
1, 58800, Note_on_c, 0, 69, 80
1, 58800, Note_on_c, 0, 66, 80
1, 59027, Note_on_c, 0, 69, 0
1, 59027, Note_on_c, 0, 66, 0
1, 59040, Note_on_c, 0, 71, 80
1, 59040, Note_on_c, 0, 68, 80
1, 59267, Note_on_c, 0, 71, 0
1, 59267, Note_on_c, 0, 68, 0
1, 59280, Note_on_c, 0, 73, 80
1, 59280, Note_on_c, 0, 64, 80
1, 59280, Note_on_c, 0, 69, 80
1, 60419, Note_on_c, 0, 73, 0
1, 60419, Note_on_c, 0, 64, 0
1, 60419, Note_on_c, 0, 69, 0
1, 61440, Note_on_c, 0, 62, 80
1, 61667, Note_on_c, 0, 62, 0
1, 61680, Note_on_c, 0, 64, 80
1, 61907, Note_on_c, 0, 64, 0
1, 61920, Note_on_c, 0, 66, 80
1, 62147, Note_on_c, 0, 66, 0
1, 62160, Note_on_c, 0, 68, 80
1, 62615, Note_on_c, 0, 68, 0
1, 62640, Note_on_c, 0, 66, 80
1, 62867, Note_on_c, 0, 66, 0
1, 62880, Note_on_c, 0, 68, 80
1, 63107, Note_on_c, 0, 68, 0
1, 63120, Note_on_c, 0, 68, 80
1, 63575, Note_on_c, 0, 68, 0
1, 63600, Note_on_c, 0, 69, 80
1, 63827, Note_on_c, 0, 69, 0
1, 63840, Note_on_c, 0, 71, 80
1, 63840, Note_on_c, 0, 62, 80
1, 63840, Note_on_c, 0, 65, 80
1, 64295, Note_on_c, 0, 71, 0
1, 64295, Note_on_c, 0, 62, 0
1, 64295, Note_on_c, 0, 65, 0
1, 64320, Note_on_c, 0, 69, 80
1, 64320, Note_on_c, 0, 61, 80
1, 64320, Note_on_c, 0, 66, 80
1, 64775, Note_on_c, 0, 69, 0
1, 64775, Note_on_c, 0, 61, 0
1, 64775, Note_on_c, 0, 66, 0
1, 64800, Note_on_c, 0, 69, 80
1, 65027, Note_on_c, 0, 69, 0
1, 65040, Note_on_c, 0, 68, 80
1, 65267, Note_on_c, 0, 68, 0
1, 65280, Note_on_c, 0, 66, 80
1, 65280, Note_on_c, 0, 62, 80
1, 65963, Note_on_c, 0, 66, 0
1, 65963, Note_on_c, 0, 62, 0
1, 66000, Note_on_c, 0, 69, 80
1, 66000, Note_on_c, 0, 62, 80
1, 67139, Note_on_c, 0, 69, 0
1, 67139, Note_on_c, 0, 62, 0
1, 67200, Note_on_c, 0, 66, 80
1, 67200, Note_on_c, 0, 63, 80
1, 67883, Note_on_c, 0, 66, 0
1, 67883, Note_on_c, 0, 63, 0
1, 67920, Note_on_c, 0, 68, 80
1, 67920, Note_on_c, 0, 64, 80
1, 68603, Note_on_c, 0, 68, 0
1, 68603, Note_on_c, 0, 64, 0
1, 68640, Note_on_c, 0, 69, 80
1, 68640, Note_on_c, 0, 66, 80
1, 69095, Note_on_c, 0, 69, 0
1, 69095, Note_on_c, 0, 66, 0
1, 69120, Note_on_c, 0, 69, 80
1, 69120, Note_on_c, 0, 66, 80
1, 70259, Note_on_c, 0, 69, 0
1, 70259, Note_on_c, 0, 66, 0
1, 70320, Note_on_c, 0, 68, 80
1, 70320, Note_on_c, 0, 64, 80
1, 70547, Note_on_c, 0, 68, 0
1, 70547, Note_on_c, 0, 64, 0
1, 70560, Note_on_c, 0, 69, 80
1, 70560, Note_on_c, 0, 66, 80
1, 70787, Note_on_c, 0, 69, 0
1, 70787, Note_on_c, 0, 66, 0
1, 70800, Note_on_c, 0, 71, 80
1, 70800, Note_on_c, 0, 59, 80
1, 70800, Note_on_c, 0, 64, 80
1, 70800, Note_on_c, 0, 68, 80
1, 72851, Note_on_c, 0, 71, 0
1, 72851, Note_on_c, 0, 59, 0
1, 72851, Note_on_c, 0, 64, 0
1, 72851, Note_on_c, 0, 68, 0
1, 72960, Note_on_c, 0, 73, 80
1, 72960, Note_on_c, 0, 76, 80
1, 72960, Note_on_c, 0, 81, 80
1, 72960, Note_on_c, 0, 85, 80
1, 73415, Note_on_c, 0, 73, 0
1, 73415, Note_on_c, 0, 76, 0
1, 73415, Note_on_c, 0, 81, 0
1, 73415, Note_on_c, 0, 85, 0
1, 73440, Note_on_c, 0, 73, 80
1, 73440, Note_on_c, 0, 76, 80
1, 73440, Note_on_c, 0, 81, 80
1, 73440, Note_on_c, 0, 85, 80
1, 73895, Note_on_c, 0, 73, 0
1, 73895, Note_on_c, 0, 76, 0
1, 73895, Note_on_c, 0, 81, 0
1, 73895, Note_on_c, 0, 85, 0
1, 73920, Note_on_c, 0, 73, 80
1, 73920, Note_on_c, 0, 76, 80
1, 73920, Note_on_c, 0, 81, 80
1, 73920, Note_on_c, 0, 85, 80
1, 74375, Note_on_c, 0, 73, 0
1, 74375, Note_on_c, 0, 76, 0
1, 74375, Note_on_c, 0, 81, 0
1, 74375, Note_on_c, 0, 85, 0
1, 74400, Note_on_c, 0, 73, 80
1, 74400, Note_on_c, 0, 76, 80
1, 74400, Note_on_c, 0, 81, 80
1, 74400, Note_on_c, 0, 85, 80
1, 74855, Note_on_c, 0, 73, 0
1, 74855, Note_on_c, 0, 76, 0
1, 74855, Note_on_c, 0, 81, 0
1, 74855, Note_on_c, 0, 85, 0
1, 74880, Note_on_c, 0, 73, 80
1, 74880, Note_on_c, 0, 76, 80
1, 74880, Note_on_c, 0, 81, 80
1, 74880, Note_on_c, 0, 85, 80
1, 75335, Note_on_c, 0, 73, 0
1, 75335, Note_on_c, 0, 76, 0
1, 75335, Note_on_c, 0, 81, 0
1, 75335, Note_on_c, 0, 85, 0
1, 75360, Note_on_c, 0, 74, 80
1, 75360, Note_on_c, 0, 81, 80
1, 75360, Note_on_c, 0, 86, 80
1, 75587, Note_on_c, 0, 74, 0
1, 75587, Note_on_c, 0, 81, 0
1, 75587, Note_on_c, 0, 86, 0
1, 75600, Note_on_c, 0, 71, 80
1, 75600, Note_on_c, 0, 76, 80
1, 75600, Note_on_c, 0, 80, 80
1, 75600, Note_on_c, 0, 83, 80
1, 76511, Note_on_c, 0, 71, 0
1, 76511, Note_on_c, 0, 76, 0
1, 76511, Note_on_c, 0, 80, 0
1, 76511, Note_on_c, 0, 83, 0
1, 76800, Note_on_c, 0, 73, 80
1, 76800, Note_on_c, 0, 76, 80
1, 77255, Note_on_c, 0, 73, 0
1, 77255, Note_on_c, 0, 76, 0
1, 77280, Note_on_c, 0, 73, 80
1, 77280, Note_on_c, 0, 76, 80
1, 77280, Note_on_c, 0, 81, 80
1, 77735, Note_on_c, 0, 73, 0
1, 77735, Note_on_c, 0, 76, 0
1, 77735, Note_on_c, 0, 81, 0
1, 77760, Note_on_c, 0, 73, 80
1, 77760, Note_on_c, 0, 76, 80
1, 77760, Note_on_c, 0, 80, 80
1, 78215, Note_on_c, 0, 73, 0
1, 78215, Note_on_c, 0, 76, 0
1, 78215, Note_on_c, 0, 80, 0
1, 78240, Note_on_c, 0, 73, 80
1, 78240, Note_on_c, 0, 76, 80
1, 78240, Note_on_c, 0, 81, 80
1, 78467, Note_on_c, 0, 73, 0
1, 78467, Note_on_c, 0, 76, 0
1, 78467, Note_on_c, 0, 81, 0
1, 78480, Note_on_c, 0, 73, 80
1, 78480, Note_on_c, 0, 76, 80
1, 78480, Note_on_c, 0, 83, 80
1, 78935, Note_on_c, 0, 73, 0
1, 78935, Note_on_c, 0, 76, 0
1, 78935, Note_on_c, 0, 83, 0
1, 78960, Note_on_c, 0, 73, 80
1, 78960, Note_on_c, 0, 76, 80
1, 78960, Note_on_c, 0, 85, 80
1, 79415, Note_on_c, 0, 73, 0
1, 79415, Note_on_c, 0, 76, 0
1, 79415, Note_on_c, 0, 85, 0
1, 79440, Note_on_c, 0, 73, 80
1, 79440, Note_on_c, 0, 76, 80
1, 79440, Note_on_c, 0, 83, 80
1, 79895, Note_on_c, 0, 73, 0
1, 79895, Note_on_c, 0, 76, 0
1, 79895, Note_on_c, 0, 83, 0
1, 79920, Note_on_c, 0, 73, 80
1, 79920, Note_on_c, 0, 76, 80
1, 79920, Note_on_c, 0, 85, 80
1, 80147, Note_on_c, 0, 73, 0
1, 80147, Note_on_c, 0, 76, 0
1, 80147, Note_on_c, 0, 85, 0
1, 80160, Note_on_c, 0, 71, 80
1, 80160, Note_on_c, 0, 83, 80
1, 80387, Note_on_c, 0, 71, 0
1, 80387, Note_on_c, 0, 83, 0
1, 80400, Note_on_c, 0, 69, 80
1, 80400, Note_on_c, 0, 81, 80
1, 80627, Note_on_c, 0, 69, 0
1, 80627, Note_on_c, 0, 81, 0
1, 80640, Note_on_c, 0, 69, 80
1, 80640, Note_on_c, 0, 73, 80
1, 80640, Note_on_c, 0, 80, 80
1, 81095, Note_on_c, 0, 69, 0
1, 81095, Note_on_c, 0, 73, 0
1, 81095, Note_on_c, 0, 80, 0
1, 81120, Note_on_c, 0, 69, 80
1, 81120, Note_on_c, 0, 73, 80
1, 81120, Note_on_c, 0, 78, 80
1, 81575, Note_on_c, 0, 69, 0
1, 81575, Note_on_c, 0, 73, 0
1, 81575, Note_on_c, 0, 78, 0
1, 81600, Note_on_c, 0, 69, 80
1, 81600, Note_on_c, 0, 73, 80
1, 81600, Note_on_c, 0, 80, 80
1, 82055, Note_on_c, 0, 69, 0
1, 82055, Note_on_c, 0, 73, 0
1, 82055, Note_on_c, 0, 80, 0
1, 82080, Note_on_c, 0, 69, 80
1, 82080, Note_on_c, 0, 73, 80
1, 82080, Note_on_c, 0, 81, 80
1, 82307, Note_on_c, 0, 69, 0
1, 82307, Note_on_c, 0, 73, 0
1, 82307, Note_on_c, 0, 81, 0
1, 82320, Note_on_c, 0, 71, 80
1, 82320, Note_on_c, 0, 83, 80
1, 82775, Note_on_c, 0, 71, 0
1, 82775, Note_on_c, 0, 83, 0
1, 82800, Note_on_c, 0, 73, 80
1, 82800, Note_on_c, 0, 76, 80
1, 82800, Note_on_c, 0, 85, 80
1, 83255, Note_on_c, 0, 73, 0
1, 83255, Note_on_c, 0, 76, 0
1, 83255, Note_on_c, 0, 85, 0
1, 83520, Note_on_c, 0, 66, 80
1, 83520, Note_on_c, 0, 73, 80
1, 83520, Note_on_c, 0, 76, 80
1, 83520, Note_on_c, 0, 78, 80
1, 83975, Note_on_c, 0, 66, 0
1, 83975, Note_on_c, 0, 73, 0
1, 83975, Note_on_c, 0, 76, 0
1, 83975, Note_on_c, 0, 78, 0
1, 84000, Note_on_c, 0, 69, 80
1, 84000, Note_on_c, 0, 73, 80
1, 84000, Note_on_c, 0, 76, 80
1, 84000, Note_on_c, 0, 81, 80
1, 84455, Note_on_c, 0, 69, 0
1, 84455, Note_on_c, 0, 73, 0
1, 84455, Note_on_c, 0, 76, 0
1, 84455, Note_on_c, 0, 81, 0
1, 84480, Note_on_c, 0, 68, 80
1, 84480, Note_on_c, 0, 73, 80
1, 84480, Note_on_c, 0, 76, 80
1, 84480, Note_on_c, 0, 80, 80
1, 84960, Note_on_c, 0, 73, 80
1, 85415, Note_on_c, 0, 73, 0
1, 85920, Note_on_c, 0, 73, 80
1, 86303, Note_on_c, 0, 68, 0
1, 86303, Note_on_c, 0, 73, 0
1, 86303, Note_on_c, 0, 76, 0
1, 86303, Note_on_c, 0, 80, 0
1, 86375, Note_on_c, 0, 73, 0
1, 86400, Note_on_c, 0, 73, 80
1, 86400, Note_on_c, 0, 76, 80
1, 86627, Note_on_c, 0, 73, 0
1, 86627, Note_on_c, 0, 76, 0
1, 86640, Note_on_c, 0, 73, 80
1, 86640, Note_on_c, 0, 76, 80
1, 86880, Note_on_c, 0, 73, 80
1, 87095, Note_on_c, 0, 73, 0
1, 87095, Note_on_c, 0, 76, 0
1, 87120, Note_on_c, 0, 74, 80
1, 87120, Note_on_c, 0, 78, 80
1, 87335, Note_on_c, 0, 73, 0
1, 87575, Note_on_c, 0, 74, 0
1, 87575, Note_on_c, 0, 78, 0
1, 87600, Note_on_c, 0, 76, 80
1, 87600, Note_on_c, 0, 80, 80
1, 87840, Note_on_c, 0, 73, 80
1, 88055, Note_on_c, 0, 76, 0
1, 88055, Note_on_c, 0, 80, 0
1, 88080, Note_on_c, 0, 74, 80
1, 88080, Note_on_c, 0, 78, 80
1, 88080, Note_on_c, 0, 81, 80
1, 88295, Note_on_c, 0, 73, 0
1, 89675, Note_on_c, 0, 74, 0
1, 89675, Note_on_c, 0, 78, 0
1, 89675, Note_on_c, 0, 81, 0
1, 89760, Note_on_c, 0, 74, 80
1, 89760, Note_on_c, 0, 78, 80
1, 90215, Note_on_c, 0, 74, 0
1, 90215, Note_on_c, 0, 78, 0
1, 90240, Note_on_c, 0, 73, 80
1, 90240, Note_on_c, 0, 76, 80
1, 90240, Note_on_c, 0, 85, 80
1, 90467, Note_on_c, 0, 73, 0
1, 90467, Note_on_c, 0, 76, 0
1, 90467, Note_on_c, 0, 85, 0
1, 90480, Note_on_c, 0, 71, 80
1, 90480, Note_on_c, 0, 76, 80
1, 90480, Note_on_c, 0, 83, 80
1, 90935, Note_on_c, 0, 71, 0
1, 90935, Note_on_c, 0, 76, 0
1, 90935, Note_on_c, 0, 83, 0
1, 90960, Note_on_c, 0, 71, 80
1, 90960, Note_on_c, 0, 76, 80
1, 90960, Note_on_c, 0, 83, 80
1, 91871, Note_on_c, 0, 71, 0
1, 91871, Note_on_c, 0, 76, 0
1, 91871, Note_on_c, 0, 83, 0
1, 92160, Note_on_c, 0, 61, 80
1, 92160, Note_on_c, 0, 64, 80
1, 92615, Note_on_c, 0, 61, 0
1, 92615, Note_on_c, 0, 64, 0
1, 92640, Note_on_c, 0, 61, 80
1, 92640, Note_on_c, 0, 64, 80
1, 92640, Note_on_c, 0, 69, 80
1, 93095, Note_on_c, 0, 61, 0
1, 93095, Note_on_c, 0, 64, 0
1, 93095, Note_on_c, 0, 69, 0
1, 93120, Note_on_c, 0, 61, 80
1, 93120, Note_on_c, 0, 64, 80
1, 93120, Note_on_c, 0, 68, 80
1, 93575, Note_on_c, 0, 61, 0
1, 93575, Note_on_c, 0, 64, 0
1, 93575, Note_on_c, 0, 68, 0
1, 93600, Note_on_c, 0, 61, 80
1, 93600, Note_on_c, 0, 64, 80
1, 93600, Note_on_c, 0, 69, 80
1, 93827, Note_on_c, 0, 61, 0
1, 93827, Note_on_c, 0, 64, 0
1, 93827, Note_on_c, 0, 69, 0
1, 93840, Note_on_c, 0, 61, 80
1, 93840, Note_on_c, 0, 64, 80
1, 93840, Note_on_c, 0, 71, 80
1, 94295, Note_on_c, 0, 61, 0
1, 94295, Note_on_c, 0, 64, 0
1, 94295, Note_on_c, 0, 71, 0
1, 94320, Note_on_c, 0, 61, 80
1, 94320, Note_on_c, 0, 64, 80
1, 94320, Note_on_c, 0, 73, 80
1, 94775, Note_on_c, 0, 61, 0
1, 94775, Note_on_c, 0, 64, 0
1, 94775, Note_on_c, 0, 73, 0
1, 94800, Note_on_c, 0, 61, 80
1, 94800, Note_on_c, 0, 64, 80
1, 94800, Note_on_c, 0, 71, 80
1, 95255, Note_on_c, 0, 61, 0
1, 95255, Note_on_c, 0, 64, 0
1, 95255, Note_on_c, 0, 71, 0
1, 95280, Note_on_c, 0, 61, 80
1, 95280, Note_on_c, 0, 64, 80
1, 95280, Note_on_c, 0, 73, 80
1, 95507, Note_on_c, 0, 61, 0
1, 95507, Note_on_c, 0, 64, 0
1, 95507, Note_on_c, 0, 73, 0
1, 95520, Note_on_c, 0, 59, 80
1, 95520, Note_on_c, 0, 71, 80
1, 95747, Note_on_c, 0, 59, 0
1, 95747, Note_on_c, 0, 71, 0
1, 95760, Note_on_c, 0, 57, 80
1, 95760, Note_on_c, 0, 69, 80
1, 95987, Note_on_c, 0, 57, 0
1, 95987, Note_on_c, 0, 69, 0
1, 96000, Note_on_c, 0, 57, 80
1, 96000, Note_on_c, 0, 61, 80
1, 96000, Note_on_c, 0, 68, 80
1, 96455, Note_on_c, 0, 57, 0
1, 96455, Note_on_c, 0, 61, 0
1, 96455, Note_on_c, 0, 68, 0
1, 96480, Note_on_c, 0, 57, 80
1, 96480, Note_on_c, 0, 61, 80
1, 96480, Note_on_c, 0, 66, 80
1, 96935, Note_on_c, 0, 57, 0
1, 96935, Note_on_c, 0, 61, 0
1, 96935, Note_on_c, 0, 66, 0
1, 96960, Note_on_c, 0, 57, 80
1, 96960, Note_on_c, 0, 61, 80
1, 96960, Note_on_c, 0, 68, 80
1, 97415, Note_on_c, 0, 57, 0
1, 97415, Note_on_c, 0, 61, 0
1, 97415, Note_on_c, 0, 68, 0
1, 97440, Note_on_c, 0, 57, 80
1, 97440, Note_on_c, 0, 61, 80
1, 97440, Note_on_c, 0, 69, 80
1, 97667, Note_on_c, 0, 57, 0
1, 97667, Note_on_c, 0, 61, 0
1, 97667, Note_on_c, 0, 69, 0
1, 97680, Note_on_c, 0, 59, 80
1, 97680, Note_on_c, 0, 71, 80
1, 98135, Note_on_c, 0, 59, 0
1, 98135, Note_on_c, 0, 71, 0
1, 98160, Note_on_c, 0, 61, 80
1, 98160, Note_on_c, 0, 64, 80
1, 98160, Note_on_c, 0, 73, 80
1, 98615, Note_on_c, 0, 61, 0
1, 98615, Note_on_c, 0, 64, 0
1, 98615, Note_on_c, 0, 73, 0
1, 98880, Note_on_c, 0, 54, 80
1, 98880, Note_on_c, 0, 61, 80
1, 98880, Note_on_c, 0, 64, 80
1, 98880, Note_on_c, 0, 66, 80
1, 99335, Note_on_c, 0, 54, 0
1, 99335, Note_on_c, 0, 61, 0
1, 99335, Note_on_c, 0, 64, 0
1, 99335, Note_on_c, 0, 66, 0
1, 99360, Note_on_c, 0, 57, 80
1, 99360, Note_on_c, 0, 61, 80
1, 99360, Note_on_c, 0, 64, 80
1, 99360, Note_on_c, 0, 69, 80
1, 99815, Note_on_c, 0, 57, 0
1, 99815, Note_on_c, 0, 61, 0
1, 99815, Note_on_c, 0, 64, 0
1, 99815, Note_on_c, 0, 69, 0
1, 99840, Note_on_c, 0, 56, 80
1, 99840, Note_on_c, 0, 61, 80
1, 99840, Note_on_c, 0, 64, 80
1, 99840, Note_on_c, 0, 68, 80
1, 101663, Note_on_c, 0, 56, 0
1, 101663, Note_on_c, 0, 61, 0
1, 101663, Note_on_c, 0, 64, 0
1, 101663, Note_on_c, 0, 68, 0
1, 101760, Note_on_c, 0, 61, 80
1, 101760, Note_on_c, 0, 64, 80
1, 101987, Note_on_c, 0, 61, 0
1, 101987, Note_on_c, 0, 64, 0
1, 102000, Note_on_c, 0, 61, 80
1, 102000, Note_on_c, 0, 64, 80
1, 102455, Note_on_c, 0, 61, 0
1, 102455, Note_on_c, 0, 64, 0
1, 102480, Note_on_c, 0, 62, 80
1, 102480, Note_on_c, 0, 66, 80
1, 102935, Note_on_c, 0, 62, 0
1, 102935, Note_on_c, 0, 66, 0
1, 102960, Note_on_c, 0, 64, 80
1, 102960, Note_on_c, 0, 68, 80
1, 103415, Note_on_c, 0, 64, 0
1, 103415, Note_on_c, 0, 68, 0
1, 103440, Note_on_c, 0, 62, 80
1, 103440, Note_on_c, 0, 66, 80
1, 103440, Note_on_c, 0, 69, 80
1, 105035, Note_on_c, 0, 62, 0
1, 105035, Note_on_c, 0, 66, 0
1, 105035, Note_on_c, 0, 69, 0
1, 105120, Note_on_c, 0, 62, 80
1, 105120, Note_on_c, 0, 66, 80
1, 105575, Note_on_c, 0, 62, 0
1, 105575, Note_on_c, 0, 66, 0
1, 105600, Note_on_c, 0, 61, 80
1, 105600, Note_on_c, 0, 64, 80
1, 105600, Note_on_c, 0, 73, 80
1, 105827, Note_on_c, 0, 61, 0
1, 105827, Note_on_c, 0, 64, 0
1, 105827, Note_on_c, 0, 73, 0
1, 105840, Note_on_c, 0, 59, 80
1, 105840, Note_on_c, 0, 64, 80
1, 105840, Note_on_c, 0, 71, 80
1, 106067, Note_on_c, 0, 59, 0
1, 106067, Note_on_c, 0, 64, 0
1, 106067, Note_on_c, 0, 71, 0
1, 106080, Note_on_c, 0, 59, 80
1, 106080, Note_on_c, 0, 64, 80
1, 106080, Note_on_c, 0, 71, 80
1, 106307, Note_on_c, 0, 59, 0
1, 106307, Note_on_c, 0, 64, 0
1, 106307, Note_on_c, 0, 71, 0
1, 106320, Note_on_c, 0, 59, 80
1, 106320, Note_on_c, 0, 64, 80
1, 106320, Note_on_c, 0, 71, 80
1, 107231, Note_on_c, 0, 59, 0
1, 107231, Note_on_c, 0, 64, 0
1, 107231, Note_on_c, 0, 71, 0
1, 107520, Note_on_c, 0, 66, 80
1, 107747, Note_on_c, 0, 66, 0
1, 107760, Note_on_c, 0, 68, 80
1, 107987, Note_on_c, 0, 68, 0
1, 108000, Note_on_c, 0, 69, 80
1, 108455, Note_on_c, 0, 69, 0
1, 108480, Note_on_c, 0, 68, 80
1, 108707, Note_on_c, 0, 68, 0
1, 108720, Note_on_c, 0, 69, 80
1, 108947, Note_on_c, 0, 69, 0
1, 108960, Note_on_c, 0, 71, 80
1, 109187, Note_on_c, 0, 71, 0
1, 109200, Note_on_c, 0, 73, 80
1, 109655, Note_on_c, 0, 73, 0
1, 109680, Note_on_c, 0, 74, 80
1, 109907, Note_on_c, 0, 74, 0
1, 109920, Note_on_c, 0, 73, 80
1, 110375, Note_on_c, 0, 73, 0
1, 110400, Note_on_c, 0, 69, 80
1, 110855, Note_on_c, 0, 69, 0
1, 110880, Note_on_c, 0, 69, 80
1, 111107, Note_on_c, 0, 69, 0
1, 111120, Note_on_c, 0, 68, 80
1, 111347, Note_on_c, 0, 68, 0
1, 111360, Note_on_c, 0, 66, 80
1, 111815, Note_on_c, 0, 66, 0
1, 111840, Note_on_c, 0, 69, 80
1, 112295, Note_on_c, 0, 69, 0
1, 112320, Note_on_c, 0, 68, 80
1, 112547, Note_on_c, 0, 68, 0
1, 112560, Note_on_c, 0, 69, 80
1, 112787, Note_on_c, 0, 69, 0
1, 112800, Note_on_c, 0, 71, 80
1, 113027, Note_on_c, 0, 71, 0
1, 113040, Note_on_c, 0, 73, 80
1, 114179, Note_on_c, 0, 73, 0
1, 115200, Note_on_c, 0, 66, 80
1, 115200, Note_on_c, 0, 69, 80
1, 115200, Note_on_c, 0, 74, 80
1, 115200, Note_on_c, 0, 78, 80
1, 115427, Note_on_c, 0, 66, 0
1, 115427, Note_on_c, 0, 69, 0
1, 115427, Note_on_c, 0, 74, 0
1, 115427, Note_on_c, 0, 78, 0
1, 115440, Note_on_c, 0, 68, 80
1, 115440, Note_on_c, 0, 80, 80
1, 115667, Note_on_c, 0, 68, 0
1, 115667, Note_on_c, 0, 80, 0
1, 115680, Note_on_c, 0, 69, 80
1, 115680, Note_on_c, 0, 81, 80
1, 116135, Note_on_c, 0, 69, 0
1, 116135, Note_on_c, 0, 81, 0
1, 116160, Note_on_c, 0, 68, 80
1, 116160, Note_on_c, 0, 71, 80
1, 116160, Note_on_c, 0, 76, 80
1, 116160, Note_on_c, 0, 80, 80
1, 116387, Note_on_c, 0, 68, 0
1, 116387, Note_on_c, 0, 71, 0
1, 116387, Note_on_c, 0, 76, 0
1, 116387, Note_on_c, 0, 80, 0
1, 116400, Note_on_c, 0, 69, 80
1, 116400, Note_on_c, 0, 81, 80
1, 116627, Note_on_c, 0, 69, 0
1, 116627, Note_on_c, 0, 81, 0
1, 116640, Note_on_c, 0, 71, 80
1, 116640, Note_on_c, 0, 83, 80
1, 116867, Note_on_c, 0, 71, 0
1, 116867, Note_on_c, 0, 83, 0
1, 116880, Note_on_c, 0, 73, 80
1, 116880, Note_on_c, 0, 76, 80
1, 116880, Note_on_c, 0, 81, 80
1, 116880, Note_on_c, 0, 85, 80
1, 117335, Note_on_c, 0, 73, 0
1, 117335, Note_on_c, 0, 76, 0
1, 117335, Note_on_c, 0, 81, 0
1, 117335, Note_on_c, 0, 85, 0
1, 117360, Note_on_c, 0, 74, 80
1, 117360, Note_on_c, 0, 86, 80
1, 117587, Note_on_c, 0, 74, 0
1, 117587, Note_on_c, 0, 86, 0
1, 117600, Note_on_c, 0, 73, 80
1, 117600, Note_on_c, 0, 85, 80
1, 118055, Note_on_c, 0, 73, 0
1, 118055, Note_on_c, 0, 85, 0
1, 118080, Note_on_c, 0, 69, 80
1, 118080, Note_on_c, 0, 73, 80
1, 118080, Note_on_c, 0, 76, 80
1, 118080, Note_on_c, 0, 81, 80
1, 118535, Note_on_c, 0, 69, 0
1, 118535, Note_on_c, 0, 73, 0
1, 118535, Note_on_c, 0, 76, 0
1, 118535, Note_on_c, 0, 81, 0
1, 118560, Note_on_c, 0, 69, 80
1, 118560, Note_on_c, 0, 81, 80
1, 118787, Note_on_c, 0, 69, 0
1, 118787, Note_on_c, 0, 81, 0
1, 118800, Note_on_c, 0, 68, 80
1, 118800, Note_on_c, 0, 80, 80
1, 119027, Note_on_c, 0, 68, 0
1, 119027, Note_on_c, 0, 80, 0
1, 119040, Note_on_c, 0, 66, 80
1, 119040, Note_on_c, 0, 69, 80
1, 119040, Note_on_c, 0, 74, 80
1, 119040, Note_on_c, 0, 78, 80
1, 119495, Note_on_c, 0, 66, 0
1, 119495, Note_on_c, 0, 69, 0
1, 119495, Note_on_c, 0, 74, 0
1, 119495, Note_on_c, 0, 78, 0
1, 119520, Note_on_c, 0, 74, 80
1, 119520, Note_on_c, 0, 78, 80
1, 119520, Note_on_c, 0, 81, 80
1, 119520, Note_on_c, 0, 86, 80
1, 119975, Note_on_c, 0, 74, 0
1, 119975, Note_on_c, 0, 78, 0
1, 119975, Note_on_c, 0, 81, 0
1, 119975, Note_on_c, 0, 86, 0
1, 120000, Note_on_c, 0, 73, 80
1, 120000, Note_on_c, 0, 85, 80
1, 120227, Note_on_c, 0, 73, 0
1, 120227, Note_on_c, 0, 85, 0
1, 120240, Note_on_c, 0, 71, 80
1, 120240, Note_on_c, 0, 83, 80
1, 120695, Note_on_c, 0, 71, 0
1, 120695, Note_on_c, 0, 83, 0
1, 120720, Note_on_c, 0, 69, 80
1, 120720, Note_on_c, 0, 81, 80
1, 120720, Note_on_c, 0, 76, 80
1, 121175, Note_on_c, 0, 76, 0
1, 121200, Note_on_c, 0, 74, 80
1, 121427, Note_on_c, 0, 74, 0
1, 121440, Note_on_c, 0, 73, 80
1, 121667, Note_on_c, 0, 73, 0
1, 121680, Note_on_c, 0, 71, 80
1, 121859, Note_on_c, 0, 69, 0
1, 121859, Note_on_c, 0, 81, 0
1, 121907, Note_on_c, 0, 71, 0
1, 121920, Note_on_c, 0, 69, 80
1, 122831, Note_on_c, 0, 69, 0
1, 122880, Note_on_c, 0, 69, 80
1, 123107, Note_on_c, 0, 69, 0
1, 123120, Note_on_c, 0, 68, 80
1, 123347, Note_on_c, 0, 68, 0
1, 123360, Note_on_c, 0, 69, 80
1, 123587, Note_on_c, 0, 69, 0
1, 123600, Note_on_c, 0, 69, 80
1, 123600, Note_on_c, 0, 76, 80
1, 123600, Note_on_c, 0, 64, 80
1, 124055, Note_on_c, 0, 69, 0
1, 124055, Note_on_c, 0, 76, 0
1, 124080, Note_on_c, 0, 69, 80
1, 124283, Note_on_c, 0, 64, 0
1, 124307, Note_on_c, 0, 69, 0
1, 124320, Note_on_c, 0, 76, 80
1, 124320, Note_on_c, 0, 69, 80
1, 124320, Note_on_c, 0, 74, 80
1, 125003, Note_on_c, 0, 76, 0
1, 125003, Note_on_c, 0, 69, 0
1, 125003, Note_on_c, 0, 74, 0
1, 125040, Note_on_c, 0, 69, 80
1, 125267, Note_on_c, 0, 69, 0
1, 125280, Note_on_c, 0, 68, 80
1, 125507, Note_on_c, 0, 68, 0
1, 125520, Note_on_c, 0, 69, 80
1, 125747, Note_on_c, 0, 69, 0
1, 125760, Note_on_c, 0, 81, 80
1, 125987, Note_on_c, 0, 81, 0
1, 126000, Note_on_c, 0, 69, 80
1, 126227, Note_on_c, 0, 69, 0
1, 126240, Note_on_c, 0, 80, 80
1, 126467, Note_on_c, 0, 80, 0
1, 126480, Note_on_c, 0, 69, 80
1, 126707, Note_on_c, 0, 69, 0
1, 126720, Note_on_c, 0, 69, 80
1, 126947, Note_on_c, 0, 69, 0
1, 126960, Note_on_c, 0, 68, 80
1, 127187, Note_on_c, 0, 68, 0
1, 127200, Note_on_c, 0, 69, 80
1, 127427, Note_on_c, 0, 69, 0
1, 127440, Note_on_c, 0, 69, 80
1, 127440, Note_on_c, 0, 76, 80
1, 127440, Note_on_c, 0, 64, 80
1, 127895, Note_on_c, 0, 69, 0
1, 127895, Note_on_c, 0, 76, 0
1, 127920, Note_on_c, 0, 69, 80
1, 128123, Note_on_c, 0, 64, 0
1, 128147, Note_on_c, 0, 69, 0
1, 128160, Note_on_c, 0, 76, 80
1, 128160, Note_on_c, 0, 69, 80
1, 128160, Note_on_c, 0, 74, 80
1, 128843, Note_on_c, 0, 76, 0
1, 128843, Note_on_c, 0, 69, 0
1, 128843, Note_on_c, 0, 74, 0
1, 128880, Note_on_c, 0, 69, 80
1, 129107, Note_on_c, 0, 69, 0
1, 129120, Note_on_c, 0, 68, 80
1, 129347, Note_on_c, 0, 68, 0
1, 129360, Note_on_c, 0, 69, 80
1, 129587, Note_on_c, 0, 69, 0
1, 129600, Note_on_c, 0, 81, 80
1, 129827, Note_on_c, 0, 81, 0
1, 129840, Note_on_c, 0, 69, 80
1, 130067, Note_on_c, 0, 69, 0
1, 130080, Note_on_c, 0, 83, 80
1, 130307, Note_on_c, 0, 83, 0
1, 130320, Note_on_c, 0, 69, 80
1, 130547, Note_on_c, 0, 69, 0
1, 130560, Note_on_c, 0, 69, 80
1, 130787, Note_on_c, 0, 69, 0
1, 130800, Note_on_c, 0, 68, 80
1, 131027, Note_on_c, 0, 68, 0
1, 131040, Note_on_c, 0, 69, 80
1, 131267, Note_on_c, 0, 69, 0
1, 131280, Note_on_c, 0, 69, 80
1, 131280, Note_on_c, 0, 76, 80
1, 131280, Note_on_c, 0, 64, 80
1, 131735, Note_on_c, 0, 69, 0
1, 131735, Note_on_c, 0, 76, 0
1, 131760, Note_on_c, 0, 69, 80
1, 131963, Note_on_c, 0, 64, 0
1, 131987, Note_on_c, 0, 69, 0
1, 132000, Note_on_c, 0, 76, 80
1, 132000, Note_on_c, 0, 69, 80
1, 132000, Note_on_c, 0, 74, 80
1, 132683, Note_on_c, 0, 76, 0
1, 132683, Note_on_c, 0, 69, 0
1, 132683, Note_on_c, 0, 74, 0
1, 132720, Note_on_c, 0, 69, 80
1, 132947, Note_on_c, 0, 69, 0
1, 132960, Note_on_c, 0, 68, 80
1, 133187, Note_on_c, 0, 68, 0
1, 133200, Note_on_c, 0, 69, 80
1, 133427, Note_on_c, 0, 69, 0
1, 133440, Note_on_c, 0, 81, 80
1, 133667, Note_on_c, 0, 81, 0
1, 133680, Note_on_c, 0, 69, 80
1, 133907, Note_on_c, 0, 69, 0
1, 133920, Note_on_c, 0, 80, 80
1, 134147, Note_on_c, 0, 80, 0
1, 134160, Note_on_c, 0, 69, 80
1, 134387, Note_on_c, 0, 69, 0
1, 134400, Note_on_c, 0, 69, 80
1, 134627, Note_on_c, 0, 69, 0
1, 134640, Note_on_c, 0, 68, 80
1, 134867, Note_on_c, 0, 68, 0
1, 134880, Note_on_c, 0, 69, 80
1, 135107, Note_on_c, 0, 69, 0
1, 135120, Note_on_c, 0, 69, 80
1, 135120, Note_on_c, 0, 76, 80
1, 135120, Note_on_c, 0, 64, 80
1, 135575, Note_on_c, 0, 69, 0
1, 135575, Note_on_c, 0, 76, 0
1, 135600, Note_on_c, 0, 69, 80
1, 135803, Note_on_c, 0, 64, 0
1, 135827, Note_on_c, 0, 69, 0
1, 135840, Note_on_c, 0, 76, 80
1, 135840, Note_on_c, 0, 69, 80
1, 135840, Note_on_c, 0, 74, 80
1, 136751, Note_on_c, 0, 76, 0
1, 136751, Note_on_c, 0, 69, 0
1, 136751, Note_on_c, 0, 74, 0
1, 137280, Note_on_c, 0, 61, 80
1, 137735, Note_on_c, 0, 61, 0
1, 137760, Note_on_c, 0, 62, 80
1, 138215, Note_on_c, 0, 62, 0
1, 138240, Note_on_c, 0, 64, 80
1, 139151, Note_on_c, 0, 64, 0
1, 139200, Note_on_c, 0, 69, 80
1, 140111, Note_on_c, 0, 69, 0
1, 140160, Note_on_c, 0, 71, 80
1, 140615, Note_on_c, 0, 71, 0
1, 140640, Note_on_c, 0, 69, 80
1, 141095, Note_on_c, 0, 69, 0
1, 141120, Note_on_c, 0, 68, 80
1, 141575, Note_on_c, 0, 68, 0
1, 141600, Note_on_c, 0, 71, 80
1, 142055, Note_on_c, 0, 71, 0
1, 142080, Note_on_c, 0, 69, 80
1, 143219, Note_on_c, 0, 69, 0
1, 143280, Note_on_c, 0, 61, 80
1, 143507, Note_on_c, 0, 61, 0
1, 143520, Note_on_c, 0, 59, 80
1, 143747, Note_on_c, 0, 59, 0
1, 143760, Note_on_c, 0, 61, 80
1, 144899, Note_on_c, 0, 61, 0
1, 144960, Note_on_c, 0, 57, 80
1, 145415, Note_on_c, 0, 57, 0
1, 145440, Note_on_c, 0, 66, 80
1, 145895, Note_on_c, 0, 66, 0
1, 145920, Note_on_c, 0, 64, 80
1, 146831, Note_on_c, 0, 64, 0
1, 146880, Note_on_c, 0, 57, 80
1, 147107, Note_on_c, 0, 57, 0
1, 147120, Note_on_c, 0, 57, 80
1, 147347, Note_on_c, 0, 57, 0
1, 147360, Note_on_c, 0, 66, 80
1, 147815, Note_on_c, 0, 66, 0
1, 147840, Note_on_c, 0, 64, 80
1, 148751, Note_on_c, 0, 64, 0
1, 148800, Note_on_c, 0, 57, 80
1, 149255, Note_on_c, 0, 57, 0
1, 149280, Note_on_c, 0, 61, 80
1, 149735, Note_on_c, 0, 61, 0
1, 149760, Note_on_c, 0, 62, 80
1, 150215, Note_on_c, 0, 62, 0
1, 150240, Note_on_c, 0, 61, 80
1, 150467, Note_on_c, 0, 61, 0
1, 150480, Note_on_c, 0, 62, 80
1, 150935, Note_on_c, 0, 62, 0
1, 150960, Note_on_c, 0, 64, 80
1, 151415, Note_on_c, 0, 64, 0
1, 151440, Note_on_c, 0, 59, 80
1, 152579, Note_on_c, 0, 59, 0
1, 152640, Note_on_c, 0, 61, 80
1, 153095, Note_on_c, 0, 61, 0
1, 153120, Note_on_c, 0, 62, 80
1, 153575, Note_on_c, 0, 62, 0
1, 153600, Note_on_c, 0, 64, 80
1, 153600, Note_on_c, 0, 57, 80
1, 154511, Note_on_c, 0, 64, 0
1, 154511, Note_on_c, 0, 57, 0
1, 154560, Note_on_c, 0, 69, 80
1, 154560, Note_on_c, 0, 64, 80
1, 155471, Note_on_c, 0, 69, 0
1, 155471, Note_on_c, 0, 64, 0
1, 155520, Note_on_c, 0, 71, 80
1, 155520, Note_on_c, 0, 64, 80
1, 155975, Note_on_c, 0, 71, 0
1, 156000, Note_on_c, 0, 69, 80
1, 156455, Note_on_c, 0, 69, 0
1, 156480, Note_on_c, 0, 68, 80
1, 156887, Note_on_c, 0, 64, 0
1, 156935, Note_on_c, 0, 68, 0
1, 156960, Note_on_c, 0, 71, 80
1, 156960, Note_on_c, 0, 62, 80
1, 157415, Note_on_c, 0, 71, 0
1, 157415, Note_on_c, 0, 62, 0
1, 157440, Note_on_c, 0, 69, 80
1, 157440, Note_on_c, 0, 61, 80
1, 158579, Note_on_c, 0, 69, 0
1, 158579, Note_on_c, 0, 61, 0
1, 158640, Note_on_c, 0, 61, 80
1, 158640, Note_on_c, 0, 57, 80
1, 158867, Note_on_c, 0, 61, 0
1, 158867, Note_on_c, 0, 57, 0
1, 158880, Note_on_c, 0, 59, 80
1, 159107, Note_on_c, 0, 59, 0
1, 159120, Note_on_c, 0, 61, 80
1, 159120, Note_on_c, 0, 57, 80
1, 160259, Note_on_c, 0, 61, 0
1, 160259, Note_on_c, 0, 57, 0
1, 160320, Note_on_c, 0, 57, 80
1, 160547, Note_on_c, 0, 57, 0
1, 160560, Note_on_c, 0, 57, 80
1, 160787, Note_on_c, 0, 57, 0
1, 160800, Note_on_c, 0, 66, 80
1, 160800, Note_on_c, 0, 57, 80
1, 161255, Note_on_c, 0, 66, 0
1, 161255, Note_on_c, 0, 57, 0
1, 161280, Note_on_c, 0, 64, 80
1, 161280, Note_on_c, 0, 62, 80
1, 162191, Note_on_c, 0, 64, 0
1, 162191, Note_on_c, 0, 62, 0
1, 162240, Note_on_c, 0, 57, 80
1, 162467, Note_on_c, 0, 57, 0
1, 162480, Note_on_c, 0, 57, 80
1, 162707, Note_on_c, 0, 57, 0
1, 162720, Note_on_c, 0, 66, 80
1, 162720, Note_on_c, 0, 62, 80
1, 163175, Note_on_c, 0, 66, 0
1, 163175, Note_on_c, 0, 62, 0
1, 163200, Note_on_c, 0, 64, 80
1, 163200, Note_on_c, 0, 61, 80
1, 164111, Note_on_c, 0, 64, 0
1, 164111, Note_on_c, 0, 61, 0
1, 164160, Note_on_c, 0, 64, 80
1, 164160, Note_on_c, 0, 61, 80
1, 164615, Note_on_c, 0, 64, 0
1, 164615, Note_on_c, 0, 61, 0
1, 164640, Note_on_c, 0, 69, 80
1, 164640, Note_on_c, 0, 57, 80
1, 165095, Note_on_c, 0, 69, 0
1, 165095, Note_on_c, 0, 57, 0
1, 165120, Note_on_c, 0, 69, 80
1, 165120, Note_on_c, 0, 62, 80
1, 165575, Note_on_c, 0, 69, 0
1, 165600, Note_on_c, 0, 68, 80
1, 165803, Note_on_c, 0, 62, 0
1, 165827, Note_on_c, 0, 68, 0
1, 165840, Note_on_c, 0, 66, 80
1, 165840, Note_on_c, 0, 62, 80
1, 166295, Note_on_c, 0, 66, 0
1, 166295, Note_on_c, 0, 62, 0
1, 166320, Note_on_c, 0, 68, 80
1, 166320, Note_on_c, 0, 62, 80
1, 166775, Note_on_c, 0, 68, 0
1, 166775, Note_on_c, 0, 62, 0
1, 166800, Note_on_c, 0, 64, 80
1, 166800, Note_on_c, 0, 57, 80
1, 167939, Note_on_c, 0, 64, 0
1, 167939, Note_on_c, 0, 57, 0
1, 168000, Note_on_c, 0, 56, 80
1, 168911, Note_on_c, 0, 56, 0
1, 168960, Note_on_c, 0, 62, 80
1, 169187, Note_on_c, 0, 62, 0
1, 169200, Note_on_c, 0, 64, 80
1, 169427, Note_on_c, 0, 64, 0
1, 169440, Note_on_c, 0, 66, 80
1, 169667, Note_on_c, 0, 66, 0
1, 169680, Note_on_c, 0, 68, 80
1, 170135, Note_on_c, 0, 68, 0
1, 170160, Note_on_c, 0, 66, 80
1, 170387, Note_on_c, 0, 66, 0
1, 170400, Note_on_c, 0, 68, 80
1, 170627, Note_on_c, 0, 68, 0
1, 170640, Note_on_c, 0, 69, 80
1, 171095, Note_on_c, 0, 69, 0
1, 171120, Note_on_c, 0, 71, 80
1, 171347, Note_on_c, 0, 71, 0
1, 171360, Note_on_c, 0, 73, 80
1, 171360, Note_on_c, 0, 61, 80
1, 171815, Note_on_c, 0, 73, 0
1, 171815, Note_on_c, 0, 61, 0
1, 171840, Note_on_c, 0, 69, 80
1, 171840, Note_on_c, 0, 66, 80
1, 172295, Note_on_c, 0, 69, 0
1, 172295, Note_on_c, 0, 66, 0
1, 172320, Note_on_c, 0, 69, 80
1, 172547, Note_on_c, 0, 69, 0
1, 172560, Note_on_c, 0, 68, 80
1, 172787, Note_on_c, 0, 68, 0
1, 172800, Note_on_c, 0, 66, 80
1, 173255, Note_on_c, 0, 66, 0
1, 173280, Note_on_c, 0, 69, 80
1, 173735, Note_on_c, 0, 69, 0
1, 173760, Note_on_c, 0, 68, 80
1, 173760, Note_on_c, 0, 64, 80
1, 173987, Note_on_c, 0, 68, 0
1, 173987, Note_on_c, 0, 64, 0
1, 174000, Note_on_c, 0, 69, 80
1, 174000, Note_on_c, 0, 66, 80
1, 174227, Note_on_c, 0, 69, 0
1, 174227, Note_on_c, 0, 66, 0
1, 174240, Note_on_c, 0, 71, 80
1, 174240, Note_on_c, 0, 68, 80
1, 174467, Note_on_c, 0, 71, 0
1, 174467, Note_on_c, 0, 68, 0
1, 174480, Note_on_c, 0, 73, 80
1, 174480, Note_on_c, 0, 64, 80
1, 174480, Note_on_c, 0, 69, 80
1, 175619, Note_on_c, 0, 73, 0
1, 175619, Note_on_c, 0, 64, 0
1, 175619, Note_on_c, 0, 69, 0
1, 176640, Note_on_c, 0, 62, 80
1, 176867, Note_on_c, 0, 62, 0
1, 176880, Note_on_c, 0, 64, 80
1, 177107, Note_on_c, 0, 64, 0
1, 177120, Note_on_c, 0, 66, 80
1, 177347, Note_on_c, 0, 66, 0
1, 177360, Note_on_c, 0, 68, 80
1, 177815, Note_on_c, 0, 68, 0
1, 177840, Note_on_c, 0, 66, 80
1, 178067, Note_on_c, 0, 66, 0
1, 178080, Note_on_c, 0, 68, 80
1, 178307, Note_on_c, 0, 68, 0
1, 178320, Note_on_c, 0, 68, 80
1, 178775, Note_on_c, 0, 68, 0
1, 178800, Note_on_c, 0, 69, 80
1, 179027, Note_on_c, 0, 69, 0
1, 179040, Note_on_c, 0, 71, 80
1, 179040, Note_on_c, 0, 62, 80
1, 179040, Note_on_c, 0, 65, 80
1, 179495, Note_on_c, 0, 71, 0
1, 179495, Note_on_c, 0, 62, 0
1, 179495, Note_on_c, 0, 65, 0
1, 179520, Note_on_c, 0, 69, 80
1, 179520, Note_on_c, 0, 61, 80
1, 179520, Note_on_c, 0, 66, 80
1, 179975, Note_on_c, 0, 69, 0
1, 179975, Note_on_c, 0, 61, 0
1, 179975, Note_on_c, 0, 66, 0
1, 180000, Note_on_c, 0, 69, 80
1, 180227, Note_on_c, 0, 69, 0
1, 180240, Note_on_c, 0, 68, 80
1, 180467, Note_on_c, 0, 68, 0
1, 180480, Note_on_c, 0, 66, 80
1, 180480, Note_on_c, 0, 62, 80
1, 181163, Note_on_c, 0, 66, 0
1, 181163, Note_on_c, 0, 62, 0
1, 181200, Note_on_c, 0, 69, 80
1, 181200, Note_on_c, 0, 62, 80
1, 182339, Note_on_c, 0, 69, 0
1, 182339, Note_on_c, 0, 62, 0
1, 182400, Note_on_c, 0, 66, 80
1, 182400, Note_on_c, 0, 63, 80
1, 183083, Note_on_c, 0, 66, 0
1, 183083, Note_on_c, 0, 63, 0
1, 183120, Note_on_c, 0, 68, 80
1, 183120, Note_on_c, 0, 64, 80
1, 183803, Note_on_c, 0, 68, 0
1, 183803, Note_on_c, 0, 64, 0
1, 183840, Note_on_c, 0, 69, 80
1, 183840, Note_on_c, 0, 66, 80
1, 184295, Note_on_c, 0, 69, 0
1, 184295, Note_on_c, 0, 66, 0
1, 184320, Note_on_c, 0, 69, 80
1, 184320, Note_on_c, 0, 66, 80
1, 185459, Note_on_c, 0, 69, 0
1, 185459, Note_on_c, 0, 66, 0
1, 185520, Note_on_c, 0, 68, 80
1, 185520, Note_on_c, 0, 64, 80
1, 185747, Note_on_c, 0, 68, 0
1, 185747, Note_on_c, 0, 64, 0
1, 185760, Note_on_c, 0, 69, 80
1, 185760, Note_on_c, 0, 66, 80
1, 185987, Note_on_c, 0, 69, 0
1, 185987, Note_on_c, 0, 66, 0
1, 186000, Note_on_c, 0, 71, 80
1, 186000, Note_on_c, 0, 59, 80
1, 186000, Note_on_c, 0, 64, 80
1, 186000, Note_on_c, 0, 68, 80
1, 188051, Note_on_c, 0, 71, 0
1, 188051, Note_on_c, 0, 59, 0
1, 188051, Note_on_c, 0, 64, 0
1, 188051, Note_on_c, 0, 68, 0
1, 188160, Note_on_c, 0, 73, 80
1, 188160, Note_on_c, 0, 76, 80
1, 188160, Note_on_c, 0, 81, 80
1, 188160, Note_on_c, 0, 85, 80
1, 188615, Note_on_c, 0, 73, 0
1, 188615, Note_on_c, 0, 76, 0
1, 188615, Note_on_c, 0, 81, 0
1, 188615, Note_on_c, 0, 85, 0
1, 188640, Note_on_c, 0, 73, 80
1, 188640, Note_on_c, 0, 76, 80
1, 188640, Note_on_c, 0, 81, 80
1, 188640, Note_on_c, 0, 85, 80
1, 189095, Note_on_c, 0, 73, 0
1, 189095, Note_on_c, 0, 76, 0
1, 189095, Note_on_c, 0, 81, 0
1, 189095, Note_on_c, 0, 85, 0
1, 189120, Note_on_c, 0, 73, 80
1, 189120, Note_on_c, 0, 76, 80
1, 189120, Note_on_c, 0, 81, 80
1, 189120, Note_on_c, 0, 85, 80
1, 189575, Note_on_c, 0, 73, 0
1, 189575, Note_on_c, 0, 76, 0
1, 189575, Note_on_c, 0, 81, 0
1, 189575, Note_on_c, 0, 85, 0
1, 189600, Note_on_c, 0, 73, 80
1, 189600, Note_on_c, 0, 76, 80
1, 189600, Note_on_c, 0, 81, 80
1, 189600, Note_on_c, 0, 85, 80
1, 190055, Note_on_c, 0, 73, 0
1, 190055, Note_on_c, 0, 76, 0
1, 190055, Note_on_c, 0, 81, 0
1, 190055, Note_on_c, 0, 85, 0
1, 190080, Note_on_c, 0, 73, 80
1, 190080, Note_on_c, 0, 76, 80
1, 190080, Note_on_c, 0, 81, 80
1, 190080, Note_on_c, 0, 85, 80
1, 190535, Note_on_c, 0, 73, 0
1, 190535, Note_on_c, 0, 76, 0
1, 190535, Note_on_c, 0, 81, 0
1, 190535, Note_on_c, 0, 85, 0
1, 190560, Note_on_c, 0, 74, 80
1, 190560, Note_on_c, 0, 81, 80
1, 190560, Note_on_c, 0, 86, 80
1, 190787, Note_on_c, 0, 74, 0
1, 190787, Note_on_c, 0, 81, 0
1, 190787, Note_on_c, 0, 86, 0
1, 190800, Note_on_c, 0, 71, 80
1, 190800, Note_on_c, 0, 76, 80
1, 190800, Note_on_c, 0, 80, 80
1, 190800, Note_on_c, 0, 83, 80
1, 191711, Note_on_c, 0, 71, 0
1, 191711, Note_on_c, 0, 76, 0
1, 191711, Note_on_c, 0, 80, 0
1, 191711, Note_on_c, 0, 83, 0
1, 192000, Note_on_c, 0, 73, 80
1, 192000, Note_on_c, 0, 76, 80
1, 192455, Note_on_c, 0, 73, 0
1, 192455, Note_on_c, 0, 76, 0
1, 192480, Note_on_c, 0, 73, 80
1, 192480, Note_on_c, 0, 76, 80
1, 192480, Note_on_c, 0, 81, 80
1, 192935, Note_on_c, 0, 73, 0
1, 192935, Note_on_c, 0, 76, 0
1, 192935, Note_on_c, 0, 81, 0
1, 192960, Note_on_c, 0, 73, 80
1, 192960, Note_on_c, 0, 76, 80
1, 192960, Note_on_c, 0, 80, 80
1, 193415, Note_on_c, 0, 73, 0
1, 193415, Note_on_c, 0, 76, 0
1, 193415, Note_on_c, 0, 80, 0
1, 193440, Note_on_c, 0, 73, 80
1, 193440, Note_on_c, 0, 76, 80
1, 193440, Note_on_c, 0, 81, 80
1, 193667, Note_on_c, 0, 73, 0
1, 193667, Note_on_c, 0, 76, 0
1, 193667, Note_on_c, 0, 81, 0
1, 193680, Note_on_c, 0, 73, 80
1, 193680, Note_on_c, 0, 76, 80
1, 193680, Note_on_c, 0, 83, 80
1, 194135, Note_on_c, 0, 73, 0
1, 194135, Note_on_c, 0, 76, 0
1, 194135, Note_on_c, 0, 83, 0
1, 194160, Note_on_c, 0, 73, 80
1, 194160, Note_on_c, 0, 76, 80
1, 194160, Note_on_c, 0, 85, 80
1, 194615, Note_on_c, 0, 73, 0
1, 194615, Note_on_c, 0, 76, 0
1, 194615, Note_on_c, 0, 85, 0
1, 194640, Note_on_c, 0, 73, 80
1, 194640, Note_on_c, 0, 76, 80
1, 194640, Note_on_c, 0, 83, 80
1, 195095, Note_on_c, 0, 73, 0
1, 195095, Note_on_c, 0, 76, 0
1, 195095, Note_on_c, 0, 83, 0
1, 195120, Note_on_c, 0, 73, 80
1, 195120, Note_on_c, 0, 76, 80
1, 195120, Note_on_c, 0, 85, 80
1, 195347, Note_on_c, 0, 73, 0
1, 195347, Note_on_c, 0, 76, 0
1, 195347, Note_on_c, 0, 85, 0
1, 195360, Note_on_c, 0, 71, 80
1, 195360, Note_on_c, 0, 83, 80
1, 195587, Note_on_c, 0, 71, 0
1, 195587, Note_on_c, 0, 83, 0
1, 195600, Note_on_c, 0, 69, 80
1, 195600, Note_on_c, 0, 81, 80
1, 195827, Note_on_c, 0, 69, 0
1, 195827, Note_on_c, 0, 81, 0
1, 195840, Note_on_c, 0, 69, 80
1, 195840, Note_on_c, 0, 73, 80
1, 195840, Note_on_c, 0, 80, 80
1, 196295, Note_on_c, 0, 69, 0
1, 196295, Note_on_c, 0, 73, 0
1, 196295, Note_on_c, 0, 80, 0
1, 196320, Note_on_c, 0, 69, 80
1, 196320, Note_on_c, 0, 73, 80
1, 196320, Note_on_c, 0, 78, 80
1, 196775, Note_on_c, 0, 69, 0
1, 196775, Note_on_c, 0, 73, 0
1, 196775, Note_on_c, 0, 78, 0
1, 196800, Note_on_c, 0, 69, 80
1, 196800, Note_on_c, 0, 73, 80
1, 196800, Note_on_c, 0, 80, 80
1, 197255, Note_on_c, 0, 69, 0
1, 197255, Note_on_c, 0, 73, 0
1, 197255, Note_on_c, 0, 80, 0
1, 197280, Note_on_c, 0, 69, 80
1, 197280, Note_on_c, 0, 73, 80
1, 197280, Note_on_c, 0, 81, 80
1, 197507, Note_on_c, 0, 69, 0
1, 197507, Note_on_c, 0, 73, 0
1, 197507, Note_on_c, 0, 81, 0
1, 197520, Note_on_c, 0, 71, 80
1, 197520, Note_on_c, 0, 83, 80
1, 197975, Note_on_c, 0, 71, 0
1, 197975, Note_on_c, 0, 83, 0
1, 198000, Note_on_c, 0, 73, 80
1, 198000, Note_on_c, 0, 76, 80
1, 198000, Note_on_c, 0, 85, 80
1, 198455, Note_on_c, 0, 73, 0
1, 198455, Note_on_c, 0, 76, 0
1, 198455, Note_on_c, 0, 85, 0
1, 198720, Note_on_c, 0, 66, 80
1, 198720, Note_on_c, 0, 73, 80
1, 198720, Note_on_c, 0, 76, 80
1, 198720, Note_on_c, 0, 78, 80
1, 199175, Note_on_c, 0, 66, 0
1, 199175, Note_on_c, 0, 73, 0
1, 199175, Note_on_c, 0, 76, 0
1, 199175, Note_on_c, 0, 78, 0
1, 199200, Note_on_c, 0, 69, 80
1, 199200, Note_on_c, 0, 73, 80
1, 199200, Note_on_c, 0, 76, 80
1, 199200, Note_on_c, 0, 81, 80
1, 199655, Note_on_c, 0, 69, 0
1, 199655, Note_on_c, 0, 73, 0
1, 199655, Note_on_c, 0, 76, 0
1, 199655, Note_on_c, 0, 81, 0
1, 199680, Note_on_c, 0, 68, 80
1, 199680, Note_on_c, 0, 73, 80
1, 199680, Note_on_c, 0, 76, 80
1, 199680, Note_on_c, 0, 80, 80
1, 200160, Note_on_c, 0, 73, 80
1, 200615, Note_on_c, 0, 73, 0
1, 201120, Note_on_c, 0, 73, 80
1, 201503, Note_on_c, 0, 68, 0
1, 201503, Note_on_c, 0, 73, 0
1, 201503, Note_on_c, 0, 76, 0
1, 201503, Note_on_c, 0, 80, 0
1, 201575, Note_on_c, 0, 73, 0
1, 201600, Note_on_c, 0, 73, 80
1, 201600, Note_on_c, 0, 76, 80
1, 201827, Note_on_c, 0, 73, 0
1, 201827, Note_on_c, 0, 76, 0
1, 201840, Note_on_c, 0, 73, 80
1, 201840, Note_on_c, 0, 76, 80
1, 202080, Note_on_c, 0, 73, 80
1, 202295, Note_on_c, 0, 73, 0
1, 202295, Note_on_c, 0, 76, 0
1, 202320, Note_on_c, 0, 74, 80
1, 202320, Note_on_c, 0, 78, 80
1, 202535, Note_on_c, 0, 73, 0
1, 202775, Note_on_c, 0, 74, 0
1, 202775, Note_on_c, 0, 78, 0
1, 202800, Note_on_c, 0, 76, 80
1, 202800, Note_on_c, 0, 80, 80
1, 203040, Note_on_c, 0, 73, 80
1, 203255, Note_on_c, 0, 76, 0
1, 203255, Note_on_c, 0, 80, 0
1, 203280, Note_on_c, 0, 74, 80
1, 203280, Note_on_c, 0, 78, 80
1, 203280, Note_on_c, 0, 81, 80
1, 203495, Note_on_c, 0, 73, 0
1, 204875, Note_on_c, 0, 74, 0
1, 204875, Note_on_c, 0, 78, 0
1, 204875, Note_on_c, 0, 81, 0
1, 204960, Note_on_c, 0, 74, 80
1, 204960, Note_on_c, 0, 78, 80
1, 205415, Note_on_c, 0, 74, 0
1, 205415, Note_on_c, 0, 78, 0
1, 205440, Note_on_c, 0, 73, 80
1, 205440, Note_on_c, 0, 76, 80
1, 205440, Note_on_c, 0, 85, 80
1, 205667, Note_on_c, 0, 73, 0
1, 205667, Note_on_c, 0, 76, 0
1, 205667, Note_on_c, 0, 85, 0
1, 205680, Note_on_c, 0, 71, 80
1, 205680, Note_on_c, 0, 76, 80
1, 205680, Note_on_c, 0, 83, 80
1, 206135, Note_on_c, 0, 71, 0
1, 206135, Note_on_c, 0, 76, 0
1, 206135, Note_on_c, 0, 83, 0
1, 206160, Note_on_c, 0, 71, 80
1, 206160, Note_on_c, 0, 76, 80
1, 206160, Note_on_c, 0, 83, 80
1, 207071, Note_on_c, 0, 71, 0
1, 207071, Note_on_c, 0, 76, 0
1, 207071, Note_on_c, 0, 83, 0
1, 207360, Note_on_c, 0, 61, 80
1, 207360, Note_on_c, 0, 64, 80
1, 207815, Note_on_c, 0, 61, 0
1, 207815, Note_on_c, 0, 64, 0
1, 207840, Note_on_c, 0, 61, 80
1, 207840, Note_on_c, 0, 64, 80
1, 207840, Note_on_c, 0, 69, 80
1, 208295, Note_on_c, 0, 61, 0
1, 208295, Note_on_c, 0, 64, 0
1, 208295, Note_on_c, 0, 69, 0
1, 208320, Note_on_c, 0, 61, 80
1, 208320, Note_on_c, 0, 64, 80
1, 208320, Note_on_c, 0, 68, 80
1, 208775, Note_on_c, 0, 61, 0
1, 208775, Note_on_c, 0, 64, 0
1, 208775, Note_on_c, 0, 68, 0
1, 208800, Note_on_c, 0, 61, 80
1, 208800, Note_on_c, 0, 64, 80
1, 208800, Note_on_c, 0, 69, 80
1, 209027, Note_on_c, 0, 61, 0
1, 209027, Note_on_c, 0, 64, 0
1, 209027, Note_on_c, 0, 69, 0
1, 209040, Note_on_c, 0, 61, 80
1, 209040, Note_on_c, 0, 64, 80
1, 209040, Note_on_c, 0, 71, 80
1, 209495, Note_on_c, 0, 61, 0
1, 209495, Note_on_c, 0, 64, 0
1, 209495, Note_on_c, 0, 71, 0
1, 209520, Note_on_c, 0, 61, 80
1, 209520, Note_on_c, 0, 64, 80
1, 209520, Note_on_c, 0, 73, 80
1, 209975, Note_on_c, 0, 61, 0
1, 209975, Note_on_c, 0, 64, 0
1, 209975, Note_on_c, 0, 73, 0
1, 210000, Note_on_c, 0, 61, 80
1, 210000, Note_on_c, 0, 64, 80
1, 210000, Note_on_c, 0, 71, 80
1, 210455, Note_on_c, 0, 61, 0
1, 210455, Note_on_c, 0, 64, 0
1, 210455, Note_on_c, 0, 71, 0
1, 210480, Note_on_c, 0, 61, 80
1, 210480, Note_on_c, 0, 64, 80
1, 210480, Note_on_c, 0, 73, 80
1, 210707, Note_on_c, 0, 61, 0
1, 210707, Note_on_c, 0, 64, 0
1, 210707, Note_on_c, 0, 73, 0
1, 210720, Note_on_c, 0, 59, 80
1, 210720, Note_on_c, 0, 71, 80
1, 210947, Note_on_c, 0, 59, 0
1, 210947, Note_on_c, 0, 71, 0
1, 210960, Note_on_c, 0, 57, 80
1, 210960, Note_on_c, 0, 69, 80
1, 211187, Note_on_c, 0, 57, 0
1, 211187, Note_on_c, 0, 69, 0
1, 211200, Note_on_c, 0, 57, 80
1, 211200, Note_on_c, 0, 61, 80
1, 211200, Note_on_c, 0, 68, 80
1, 211655, Note_on_c, 0, 57, 0
1, 211655, Note_on_c, 0, 61, 0
1, 211655, Note_on_c, 0, 68, 0
1, 211680, Note_on_c, 0, 57, 80
1, 211680, Note_on_c, 0, 61, 80
1, 211680, Note_on_c, 0, 66, 80
1, 212135, Note_on_c, 0, 57, 0
1, 212135, Note_on_c, 0, 61, 0
1, 212135, Note_on_c, 0, 66, 0
1, 212160, Note_on_c, 0, 57, 80
1, 212160, Note_on_c, 0, 61, 80
1, 212160, Note_on_c, 0, 68, 80
1, 212615, Note_on_c, 0, 57, 0
1, 212615, Note_on_c, 0, 61, 0
1, 212615, Note_on_c, 0, 68, 0
1, 212640, Note_on_c, 0, 57, 80
1, 212640, Note_on_c, 0, 61, 80
1, 212640, Note_on_c, 0, 69, 80
1, 212867, Note_on_c, 0, 57, 0
1, 212867, Note_on_c, 0, 61, 0
1, 212867, Note_on_c, 0, 69, 0
1, 212880, Note_on_c, 0, 59, 80
1, 212880, Note_on_c, 0, 71, 80
1, 213335, Note_on_c, 0, 59, 0
1, 213335, Note_on_c, 0, 71, 0
1, 213360, Note_on_c, 0, 61, 80
1, 213360, Note_on_c, 0, 64, 80
1, 213360, Note_on_c, 0, 73, 80
1, 213815, Note_on_c, 0, 61, 0
1, 213815, Note_on_c, 0, 64, 0
1, 213815, Note_on_c, 0, 73, 0
1, 214080, Note_on_c, 0, 54, 80
1, 214080, Note_on_c, 0, 61, 80
1, 214080, Note_on_c, 0, 64, 80
1, 214080, Note_on_c, 0, 66, 80
1, 214535, Note_on_c, 0, 54, 0
1, 214535, Note_on_c, 0, 61, 0
1, 214535, Note_on_c, 0, 64, 0
1, 214535, Note_on_c, 0, 66, 0
1, 214560, Note_on_c, 0, 57, 80
1, 214560, Note_on_c, 0, 61, 80
1, 214560, Note_on_c, 0, 64, 80
1, 214560, Note_on_c, 0, 69, 80
1, 215015, Note_on_c, 0, 57, 0
1, 215015, Note_on_c, 0, 61, 0
1, 215015, Note_on_c, 0, 64, 0
1, 215015, Note_on_c, 0, 69, 0
1, 215040, Note_on_c, 0, 56, 80
1, 215040, Note_on_c, 0, 61, 80
1, 215040, Note_on_c, 0, 64, 80
1, 215040, Note_on_c, 0, 68, 80
1, 216863, Note_on_c, 0, 56, 0
1, 216863, Note_on_c, 0, 61, 0
1, 216863, Note_on_c, 0, 64, 0
1, 216863, Note_on_c, 0, 68, 0
1, 216960, Note_on_c, 0, 61, 80
1, 216960, Note_on_c, 0, 64, 80
1, 217187, Note_on_c, 0, 61, 0
1, 217187, Note_on_c, 0, 64, 0
1, 217200, Note_on_c, 0, 61, 80
1, 217200, Note_on_c, 0, 64, 80
1, 217655, Note_on_c, 0, 61, 0
1, 217655, Note_on_c, 0, 64, 0
1, 217680, Note_on_c, 0, 62, 80
1, 217680, Note_on_c, 0, 66, 80
1, 218135, Note_on_c, 0, 62, 0
1, 218135, Note_on_c, 0, 66, 0
1, 218160, Note_on_c, 0, 64, 80
1, 218160, Note_on_c, 0, 68, 80
1, 218615, Note_on_c, 0, 64, 0
1, 218615, Note_on_c, 0, 68, 0
1, 218640, Note_on_c, 0, 62, 80
1, 218640, Note_on_c, 0, 66, 80
1, 218640, Note_on_c, 0, 69, 80
1, 220235, Note_on_c, 0, 62, 0
1, 220235, Note_on_c, 0, 66, 0
1, 220235, Note_on_c, 0, 69, 0
1, 220320, Note_on_c, 0, 62, 80
1, 220320, Note_on_c, 0, 66, 80
1, 220775, Note_on_c, 0, 62, 0
1, 220775, Note_on_c, 0, 66, 0
1, 220800, Note_on_c, 0, 61, 80
1, 220800, Note_on_c, 0, 64, 80
1, 220800, Note_on_c, 0, 73, 80
1, 221027, Note_on_c, 0, 61, 0
1, 221027, Note_on_c, 0, 64, 0
1, 221027, Note_on_c, 0, 73, 0
1, 221040, Note_on_c, 0, 59, 80
1, 221040, Note_on_c, 0, 64, 80
1, 221040, Note_on_c, 0, 71, 80
1, 221267, Note_on_c, 0, 59, 0
1, 221267, Note_on_c, 0, 64, 0
1, 221267, Note_on_c, 0, 71, 0
1, 221280, Note_on_c, 0, 59, 80
1, 221280, Note_on_c, 0, 64, 80
1, 221280, Note_on_c, 0, 71, 80
1, 221507, Note_on_c, 0, 59, 0
1, 221507, Note_on_c, 0, 64, 0
1, 221507, Note_on_c, 0, 71, 0
1, 221520, Note_on_c, 0, 59, 80
1, 221520, Note_on_c, 0, 64, 80
1, 221520, Note_on_c, 0, 71, 80
1, 222431, Note_on_c, 0, 59, 0
1, 222431, Note_on_c, 0, 64, 0
1, 222431, Note_on_c, 0, 71, 0
1, 222720, Note_on_c, 0, 66, 80
1, 222947, Note_on_c, 0, 66, 0
1, 222960, Note_on_c, 0, 68, 80
1, 223187, Note_on_c, 0, 68, 0
1, 223200, Note_on_c, 0, 69, 80
1, 223655, Note_on_c, 0, 69, 0
1, 223680, Note_on_c, 0, 68, 80
1, 223907, Note_on_c, 0, 68, 0
1, 223920, Note_on_c, 0, 69, 80
1, 224147, Note_on_c, 0, 69, 0
1, 224160, Note_on_c, 0, 71, 80
1, 224387, Note_on_c, 0, 71, 0
1, 224400, Note_on_c, 0, 73, 80
1, 224855, Note_on_c, 0, 73, 0
1, 224880, Note_on_c, 0, 74, 80
1, 225107, Note_on_c, 0, 74, 0
1, 225120, Note_on_c, 0, 73, 80
1, 225575, Note_on_c, 0, 73, 0
1, 225600, Note_on_c, 0, 69, 80
1, 226055, Note_on_c, 0, 69, 0
1, 226080, Note_on_c, 0, 69, 80
1, 226307, Note_on_c, 0, 69, 0
1, 226320, Note_on_c, 0, 68, 80
1, 226547, Note_on_c, 0, 68, 0
1, 226560, Note_on_c, 0, 66, 80
1, 227015, Note_on_c, 0, 66, 0
1, 227040, Note_on_c, 0, 69, 80
1, 227495, Note_on_c, 0, 69, 0
1, 227520, Note_on_c, 0, 68, 80
1, 227747, Note_on_c, 0, 68, 0
1, 227760, Note_on_c, 0, 69, 80
1, 227987, Note_on_c, 0, 69, 0
1, 228000, Note_on_c, 0, 71, 80
1, 228227, Note_on_c, 0, 71, 0
1, 228240, Note_on_c, 0, 73, 80
1, 229379, Note_on_c, 0, 73, 0
1, 230400, Note_on_c, 0, 66, 80
1, 230627, Note_on_c, 0, 66, 0
1, 230640, Note_on_c, 0, 68, 80
1, 230867, Note_on_c, 0, 68, 0
1, 230880, Note_on_c, 0, 69, 80
1, 231335, Note_on_c, 0, 69, 0
1, 231360, Note_on_c, 0, 68, 80
1, 231587, Note_on_c, 0, 68, 0
1, 231600, Note_on_c, 0, 69, 80
1, 231827, Note_on_c, 0, 69, 0
1, 231840, Note_on_c, 0, 71, 80
1, 232067, Note_on_c, 0, 71, 0
1, 232080, Note_on_c, 0, 73, 80
1, 232535, Note_on_c, 0, 73, 0
1, 232560, Note_on_c, 0, 74, 80
1, 232787, Note_on_c, 0, 74, 0
1, 232800, Note_on_c, 0, 73, 80
1, 233255, Note_on_c, 0, 73, 0
1, 233280, Note_on_c, 0, 69, 80
1, 233735, Note_on_c, 0, 69, 0
1, 233760, Note_on_c, 0, 69, 80
1, 233987, Note_on_c, 0, 69, 0
1, 234000, Note_on_c, 0, 68, 80
1, 234227, Note_on_c, 0, 68, 0
1, 234240, Note_on_c, 0, 66, 80
1, 234695, Note_on_c, 0, 66, 0
1, 234720, Note_on_c, 0, 69, 80
1, 235175, Note_on_c, 0, 69, 0
1, 235200, Note_on_c, 0, 68, 80
1, 235427, Note_on_c, 0, 68, 0
1, 235440, Note_on_c, 0, 69, 80
1, 235667, Note_on_c, 0, 69, 0
1, 235680, Note_on_c, 0, 71, 80
1, 235907, Note_on_c, 0, 71, 0
1, 235920, Note_on_c, 0, 69, 80
1, 236640, Note_on_c, 0, 73, 80
1, 236640, Note_on_c, 0, 85, 80
1, 237059, Note_on_c, 0, 69, 0
1, 237095, Note_on_c, 0, 73, 0
1, 237095, Note_on_c, 0, 85, 0
1, 237120, Note_on_c, 0, 73, 80
1, 237120, Note_on_c, 0, 85, 80
1, 237575, Note_on_c, 0, 73, 0
1, 237575, Note_on_c, 0, 85, 0
1, 237600, Note_on_c, 0, 71, 80
1, 237600, Note_on_c, 0, 83, 80
1, 238055, Note_on_c, 0, 71, 0
1, 238055, Note_on_c, 0, 83, 0
1, 238080, Note_on_c, 0, 66, 80
1, 238080, Note_on_c, 0, 69, 80
1, 238080, Note_on_c, 0, 74, 80
1, 238080, Note_on_c, 0, 78, 80
1, 238307, Note_on_c, 0, 66, 0
1, 238307, Note_on_c, 0, 69, 0
1, 238307, Note_on_c, 0, 74, 0
1, 238307, Note_on_c, 0, 78, 0
1, 238320, Note_on_c, 0, 68, 80
1, 238320, Note_on_c, 0, 80, 80
1, 238547, Note_on_c, 0, 68, 0
1, 238547, Note_on_c, 0, 80, 0
1, 238560, Note_on_c, 0, 69, 80
1, 238560, Note_on_c, 0, 81, 80
1, 239015, Note_on_c, 0, 69, 0
1, 239015, Note_on_c, 0, 81, 0
1, 239040, Note_on_c, 0, 68, 80
1, 239040, Note_on_c, 0, 71, 80
1, 239040, Note_on_c, 0, 76, 80
1, 239040, Note_on_c, 0, 80, 80
1, 239267, Note_on_c, 0, 68, 0
1, 239267, Note_on_c, 0, 71, 0
1, 239267, Note_on_c, 0, 76, 0
1, 239267, Note_on_c, 0, 80, 0
1, 239280, Note_on_c, 0, 69, 80
1, 239280, Note_on_c, 0, 81, 80
1, 239507, Note_on_c, 0, 69, 0
1, 239507, Note_on_c, 0, 81, 0
1, 239520, Note_on_c, 0, 71, 80
1, 239520, Note_on_c, 0, 83, 80
1, 239747, Note_on_c, 0, 71, 0
1, 239747, Note_on_c, 0, 83, 0
1, 239760, Note_on_c, 0, 73, 80
1, 239760, Note_on_c, 0, 76, 80
1, 239760, Note_on_c, 0, 81, 80
1, 239760, Note_on_c, 0, 85, 80
1, 240215, Note_on_c, 0, 73, 0
1, 240215, Note_on_c, 0, 76, 0
1, 240215, Note_on_c, 0, 81, 0
1, 240215, Note_on_c, 0, 85, 0
1, 240240, Note_on_c, 0, 74, 80
1, 240240, Note_on_c, 0, 86, 80
1, 240467, Note_on_c, 0, 74, 0
1, 240467, Note_on_c, 0, 86, 0
1, 240480, Note_on_c, 0, 73, 80
1, 240480, Note_on_c, 0, 85, 80
1, 240935, Note_on_c, 0, 73, 0
1, 240935, Note_on_c, 0, 85, 0
1, 240960, Note_on_c, 0, 69, 80
1, 240960, Note_on_c, 0, 73, 80
1, 240960, Note_on_c, 0, 76, 80
1, 240960, Note_on_c, 0, 81, 80
1, 241415, Note_on_c, 0, 69, 0
1, 241415, Note_on_c, 0, 73, 0
1, 241415, Note_on_c, 0, 76, 0
1, 241415, Note_on_c, 0, 81, 0
1, 241440, Note_on_c, 0, 69, 80
1, 241440, Note_on_c, 0, 81, 80
1, 241667, Note_on_c, 0, 69, 0
1, 241667, Note_on_c, 0, 81, 0
1, 241680, Note_on_c, 0, 68, 80
1, 241680, Note_on_c, 0, 80, 80
1, 241907, Note_on_c, 0, 68, 0
1, 241907, Note_on_c, 0, 80, 0
1, 241920, Note_on_c, 0, 66, 80
1, 241920, Note_on_c, 0, 69, 80
1, 241920, Note_on_c, 0, 74, 80
1, 241920, Note_on_c, 0, 78, 80
1, 242375, Note_on_c, 0, 66, 0
1, 242375, Note_on_c, 0, 69, 0
1, 242375, Note_on_c, 0, 74, 0
1, 242375, Note_on_c, 0, 78, 0
1, 242400, Note_on_c, 0, 69, 80
1, 242400, Note_on_c, 0, 81, 80
1, 242855, Note_on_c, 0, 69, 0
1, 242855, Note_on_c, 0, 81, 0
1, 242880, Note_on_c, 0, 68, 80
1, 242880, Note_on_c, 0, 71, 80
1, 242880, Note_on_c, 0, 76, 80
1, 242880, Note_on_c, 0, 80, 80
1, 243107, Note_on_c, 0, 68, 0
1, 243107, Note_on_c, 0, 71, 0
1, 243107, Note_on_c, 0, 76, 0
1, 243107, Note_on_c, 0, 80, 0
1, 243120, Note_on_c, 0, 69, 80
1, 243120, Note_on_c, 0, 81, 80
1, 243347, Note_on_c, 0, 69, 0
1, 243347, Note_on_c, 0, 81, 0
1, 243360, Note_on_c, 0, 71, 80
1, 243360, Note_on_c, 0, 83, 80
1, 243587, Note_on_c, 0, 71, 0
1, 243587, Note_on_c, 0, 83, 0
1, 243600, Note_on_c, 0, 73, 80
1, 243600, Note_on_c, 0, 76, 80
1, 243600, Note_on_c, 0, 81, 80
1, 243600, Note_on_c, 0, 85, 80
1, 244320, Note_on_c, 0, 73, 80
1, 244320, Note_on_c, 0, 85, 80
1, 244739, Note_on_c, 0, 73, 0
1, 244739, Note_on_c, 0, 76, 0
1, 244739, Note_on_c, 0, 81, 0
1, 244739, Note_on_c, 0, 85, 0
1, 244775, Note_on_c, 0, 73, 0
1, 244775, Note_on_c, 0, 85, 0
1, 244800, Note_on_c, 0, 73, 80
1, 244800, Note_on_c, 0, 85, 80
1, 245255, Note_on_c, 0, 73, 0
1, 245255, Note_on_c, 0, 85, 0
1, 245280, Note_on_c, 0, 71, 80
1, 245280, Note_on_c, 0, 83, 80
1, 245735, Note_on_c, 0, 71, 0
1, 245735, Note_on_c, 0, 83, 0
1, 245760, Note_on_c, 0, 66, 80
1, 245760, Note_on_c, 0, 69, 80
1, 245760, Note_on_c, 0, 74, 80
1, 245760, Note_on_c, 0, 78, 80
1, 245987, Note_on_c, 0, 66, 0
1, 245987, Note_on_c, 0, 69, 0
1, 245987, Note_on_c, 0, 74, 0
1, 245987, Note_on_c, 0, 78, 0
1, 246000, Note_on_c, 0, 68, 80
1, 246000, Note_on_c, 0, 80, 80
1, 246227, Note_on_c, 0, 68, 0
1, 246227, Note_on_c, 0, 80, 0
1, 246240, Note_on_c, 0, 69, 80
1, 246240, Note_on_c, 0, 81, 80
1, 246695, Note_on_c, 0, 69, 0
1, 246695, Note_on_c, 0, 81, 0
1, 246720, Note_on_c, 0, 68, 80
1, 246720, Note_on_c, 0, 71, 80
1, 246720, Note_on_c, 0, 76, 80
1, 246720, Note_on_c, 0, 80, 80
1, 246947, Note_on_c, 0, 68, 0
1, 246947, Note_on_c, 0, 71, 0
1, 246947, Note_on_c, 0, 76, 0
1, 246947, Note_on_c, 0, 80, 0
1, 246960, Note_on_c, 0, 69, 80
1, 246960, Note_on_c, 0, 81, 80
1, 247187, Note_on_c, 0, 69, 0
1, 247187, Note_on_c, 0, 81, 0
1, 247200, Note_on_c, 0, 71, 80
1, 247200, Note_on_c, 0, 83, 80
1, 247427, Note_on_c, 0, 71, 0
1, 247427, Note_on_c, 0, 83, 0
1, 247440, Note_on_c, 0, 73, 80
1, 247440, Note_on_c, 0, 76, 80
1, 247440, Note_on_c, 0, 81, 80
1, 247440, Note_on_c, 0, 85, 80
1, 247895, Note_on_c, 0, 73, 0
1, 247895, Note_on_c, 0, 76, 0
1, 247895, Note_on_c, 0, 81, 0
1, 247895, Note_on_c, 0, 85, 0
1, 247920, Note_on_c, 0, 74, 80
1, 247920, Note_on_c, 0, 86, 80
1, 248147, Note_on_c, 0, 74, 0
1, 248147, Note_on_c, 0, 86, 0
1, 248160, Note_on_c, 0, 73, 80
1, 248160, Note_on_c, 0, 85, 80
1, 248615, Note_on_c, 0, 73, 0
1, 248615, Note_on_c, 0, 85, 0
1, 248640, Note_on_c, 0, 69, 80
1, 248640, Note_on_c, 0, 73, 80
1, 248640, Note_on_c, 0, 76, 80
1, 248640, Note_on_c, 0, 81, 80
1, 249095, Note_on_c, 0, 69, 0
1, 249095, Note_on_c, 0, 73, 0
1, 249095, Note_on_c, 0, 76, 0
1, 249095, Note_on_c, 0, 81, 0
1, 249120, Note_on_c, 0, 69, 80
1, 249120, Note_on_c, 0, 81, 80
1, 249347, Note_on_c, 0, 69, 0
1, 249347, Note_on_c, 0, 81, 0
1, 249360, Note_on_c, 0, 68, 80
1, 249360, Note_on_c, 0, 80, 80
1, 249587, Note_on_c, 0, 68, 0
1, 249587, Note_on_c, 0, 80, 0
1, 249600, Note_on_c, 0, 66, 80
1, 249600, Note_on_c, 0, 69, 80
1, 249600, Note_on_c, 0, 74, 80
1, 249600, Note_on_c, 0, 78, 80
1, 250055, Note_on_c, 0, 66, 0
1, 250055, Note_on_c, 0, 69, 0
1, 250055, Note_on_c, 0, 74, 0
1, 250055, Note_on_c, 0, 78, 0
1, 250080, Note_on_c, 0, 74, 80
1, 250080, Note_on_c, 0, 78, 80
1, 250080, Note_on_c, 0, 81, 80
1, 250080, Note_on_c, 0, 86, 80
1, 250535, Note_on_c, 0, 74, 0
1, 250535, Note_on_c, 0, 78, 0
1, 250535, Note_on_c, 0, 81, 0
1, 250535, Note_on_c, 0, 86, 0
1, 250560, Note_on_c, 0, 73, 80
1, 250560, Note_on_c, 0, 85, 80
1, 250787, Note_on_c, 0, 73, 0
1, 250787, Note_on_c, 0, 85, 0
1, 250800, Note_on_c, 0, 71, 80
1, 250800, Note_on_c, 0, 83, 80
1, 251255, Note_on_c, 0, 71, 0
1, 251255, Note_on_c, 0, 83, 0
1, 251280, Note_on_c, 0, 69, 80
1, 251280, Note_on_c, 0, 81, 80
1, 251280, Note_on_c, 0, 76, 80
1, 251735, Note_on_c, 0, 76, 0
1, 251760, Note_on_c, 0, 74, 80
1, 251987, Note_on_c, 0, 74, 0
1, 252000, Note_on_c, 0, 73, 80
1, 252227, Note_on_c, 0, 73, 0
1, 252240, Note_on_c, 0, 71, 80
1, 252419, Note_on_c, 0, 69, 0
1, 252419, Note_on_c, 0, 81, 0
1, 252467, Note_on_c, 0, 71, 0
1, 252480, Note_on_c, 0, 69, 80
1, 253391, Note_on_c, 0, 69, 0
1, 261120, Note_on_c, 0, 60, 80
1, 261120, Note_on_c, 0, 63, 80
1, 261120, Note_on_c, 0, 68, 80
1, 261575, Note_on_c, 0, 60, 0
1, 261575, Note_on_c, 0, 63, 0
1, 261575, Note_on_c, 0, 68, 0
1, 261600, Note_on_c, 0, 63, 80
1, 261600, Note_on_c, 0, 70, 80
1, 262055, Note_on_c, 0, 63, 0
1, 262055, Note_on_c, 0, 70, 0
1, 262080, Note_on_c, 0, 60, 80
1, 262080, Note_on_c, 0, 63, 80
1, 262080, Note_on_c, 0, 72, 80
1, 262535, Note_on_c, 0, 60, 0
1, 262535, Note_on_c, 0, 63, 0
1, 262535, Note_on_c, 0, 72, 0
1, 262560, Note_on_c, 0, 63, 80
1, 262560, Note_on_c, 0, 68, 80
1, 263015, Note_on_c, 0, 63, 0
1, 263015, Note_on_c, 0, 68, 0
1, 263040, Note_on_c, 0, 58, 80
1, 263040, Note_on_c, 0, 63, 80
1, 263040, Note_on_c, 0, 67, 80
1, 263495, Note_on_c, 0, 58, 0
1, 263495, Note_on_c, 0, 63, 0
1, 263495, Note_on_c, 0, 67, 0
1, 263520, Note_on_c, 0, 63, 80
1, 263520, Note_on_c, 0, 70, 80
1, 263975, Note_on_c, 0, 63, 0
1, 263975, Note_on_c, 0, 70, 0
1, 264000, Note_on_c, 0, 58, 80
1, 264000, Note_on_c, 0, 63, 80
1, 264000, Note_on_c, 0, 67, 80
1, 264455, Note_on_c, 0, 58, 0
1, 264455, Note_on_c, 0, 63, 0
1, 264455, Note_on_c, 0, 67, 0
1, 264480, Note_on_c, 0, 63, 80
1, 264935, Note_on_c, 0, 63, 0
1, 264960, Note_on_c, 0, 62, 80
1, 264960, Note_on_c, 0, 67, 80
1, 265643, Note_on_c, 0, 62, 0
1, 265643, Note_on_c, 0, 67, 0
1, 265680, Note_on_c, 0, 62, 80
1, 265680, Note_on_c, 0, 72, 80
1, 266363, Note_on_c, 0, 62, 0
1, 266363, Note_on_c, 0, 72, 0
1, 266400, Note_on_c, 0, 62, 80
1, 266400, Note_on_c, 0, 74, 80
1, 267083, Note_on_c, 0, 62, 0
1, 267083, Note_on_c, 0, 74, 0
1, 267120, Note_on_c, 0, 62, 80
1, 267120, Note_on_c, 0, 72, 80
1, 267803, Note_on_c, 0, 62, 0
1, 267803, Note_on_c, 0, 72, 0
1, 267840, Note_on_c, 0, 62, 80
1, 267840, Note_on_c, 0, 72, 80
1, 268295, Note_on_c, 0, 62, 0
1, 268295, Note_on_c, 0, 72, 0
1, 268320, Note_on_c, 0, 62, 80
1, 268320, Note_on_c, 0, 74, 80
1, 268775, Note_on_c, 0, 62, 0
1, 268775, Note_on_c, 0, 74, 0
1, 268800, Note_on_c, 0, 68, 80
1, 268800, Note_on_c, 0, 80, 80
1, 269255, Note_on_c, 0, 68, 0
1, 269255, Note_on_c, 0, 80, 0
1, 269280, Note_on_c, 0, 68, 80
1, 269280, Note_on_c, 0, 78, 80
1, 269507, Note_on_c, 0, 68, 0
1, 269507, Note_on_c, 0, 78, 0
1, 269520, Note_on_c, 0, 68, 80
1, 269520, Note_on_c, 0, 78, 80
1, 269975, Note_on_c, 0, 68, 0
1, 269975, Note_on_c, 0, 78, 0
1, 270000, Note_on_c, 0, 68, 80
1, 270000, Note_on_c, 0, 76, 80
1, 270683, Note_on_c, 0, 68, 0
1, 270683, Note_on_c, 0, 76, 0
1, 270720, Note_on_c, 0, 66, 80
1, 270720, Note_on_c, 0, 75, 80
1, 271175, Note_on_c, 0, 66, 0
1, 271175, Note_on_c, 0, 75, 0
1, 271200, Note_on_c, 0, 64, 80
1, 271200, Note_on_c, 0, 76, 80
1, 271655, Note_on_c, 0, 64, 0
1, 271655, Note_on_c, 0, 76, 0
1, 271680, Note_on_c, 0, 66, 80
1, 271680, Note_on_c, 0, 78, 80
1, 272135, Note_on_c, 0, 66, 0
1, 272135, Note_on_c, 0, 78, 0
1, 272160, Note_on_c, 0, 63, 80
1, 272160, Note_on_c, 0, 75, 80
1, 272615, Note_on_c, 0, 63, 0
1, 272615, Note_on_c, 0, 75, 0
1, 272640, Note_on_c, 0, 62, 80
1, 272640, Note_on_c, 0, 74, 80
1, 273095, Note_on_c, 0, 62, 0
1, 273095, Note_on_c, 0, 74, 0
1, 273120, Note_on_c, 0, 66, 80
1, 273120, Note_on_c, 0, 78, 80
1, 273575, Note_on_c, 0, 66, 0
1, 273575, Note_on_c, 0, 78, 0
1, 273600, Note_on_c, 0, 64, 80
1, 273600, Note_on_c, 0, 76, 80
1, 274055, Note_on_c, 0, 64, 0
1, 274055, Note_on_c, 0, 76, 0
1, 274080, Note_on_c, 0, 62, 80
1, 274080, Note_on_c, 0, 74, 80
1, 274535, Note_on_c, 0, 62, 0
1, 274535, Note_on_c, 0, 74, 0
1, 274560, Note_on_c, 0, 64, 80
1, 274560, Note_on_c, 0, 73, 80
1, 275015, Note_on_c, 0, 64, 0
1, 275015, Note_on_c, 0, 73, 0
1, 275040, Note_on_c, 0, 62, 80
1, 275040, Note_on_c, 0, 74, 80
1, 275495, Note_on_c, 0, 62, 0
1, 275495, Note_on_c, 0, 74, 0
1, 275520, Note_on_c, 0, 64, 80
1, 275520, Note_on_c, 0, 76, 80
1, 275975, Note_on_c, 0, 64, 0
1, 275975, Note_on_c, 0, 76, 0
1, 276000, Note_on_c, 0, 61, 80
1, 276000, Note_on_c, 0, 73, 80
1, 276455, Note_on_c, 0, 61, 0
1, 276455, Note_on_c, 0, 73, 0
1, 276720, Note_on_c, 0, 76, 80
1, 276947, Note_on_c, 0, 76, 0
1, 276960, Note_on_c, 0, 79, 80
1, 277187, Note_on_c, 0, 79, 0
1, 277200, Note_on_c, 0, 76, 80
1, 277427, Note_on_c, 0, 76, 0
1, 277440, Note_on_c, 0, 72, 80
1, 277667, Note_on_c, 0, 72, 0
1, 277680, Note_on_c, 0, 79, 80
1, 277907, Note_on_c, 0, 79, 0
1, 277920, Note_on_c, 0, 76, 80
1, 278147, Note_on_c, 0, 76, 0
1, 278160, Note_on_c, 0, 72, 80
1, 278387, Note_on_c, 0, 72, 0
1, 278400, Note_on_c, 0, 74, 80
1, 278627, Note_on_c, 0, 74, 0
1, 278640, Note_on_c, 0, 79, 80
1, 278867, Note_on_c, 0, 79, 0
1, 278880, Note_on_c, 0, 81, 80
1, 278993, Note_on_c, 0, 81, 0
1, 279000, Note_on_c, 0, 79, 80
1, 279113, Note_on_c, 0, 79, 0
1, 279120, Note_on_c, 0, 74, 80
1, 279347, Note_on_c, 0, 74, 0
1, 279360, Note_on_c, 0, 67, 80
1, 279587, Note_on_c, 0, 67, 0
1, 279600, Note_on_c, 0, 74, 80
1, 279827, Note_on_c, 0, 74, 0
1, 279840, Note_on_c, 0, 67, 80
1, 280067, Note_on_c, 0, 67, 0
1, 280080, Note_on_c, 0, 74, 80
1, 280307, Note_on_c, 0, 74, 0
1, 280320, Note_on_c, 0, 69, 80
1, 280775, Note_on_c, 0, 69, 0
1, 280800, Note_on_c, 0, 67, 80
1, 281027, Note_on_c, 0, 67, 0
1, 281040, Note_on_c, 0, 68, 80
1, 281267, Note_on_c, 0, 68, 0
1, 281280, Note_on_c, 0, 69, 80
1, 281735, Note_on_c, 0, 69, 0
1, 281760, Note_on_c, 0, 69, 80
1, 282443, Note_on_c, 0, 69, 0
1, 282480, Note_on_c, 0, 69, 80
1, 283163, Note_on_c, 0, 69, 0
1, 283200, Note_on_c, 0, 69, 80
1, 283655, Note_on_c, 0, 69, 0
1, 283680, Note_on_c, 0, 69, 80
1, 284135, Note_on_c, 0, 69, 0
1, 284160, Note_on_c, 0, 64, 80
1, 284160, Note_on_c, 0, 66, 80
1, 284160, Note_on_c, 0, 71, 80
1, 284843, Note_on_c, 0, 64, 0
1, 284843, Note_on_c, 0, 66, 0
1, 284843, Note_on_c, 0, 71, 0
1, 284880, Note_on_c, 0, 64, 80
1, 284880, Note_on_c, 0, 66, 80
1, 284880, Note_on_c, 0, 71, 80
1, 285563, Note_on_c, 0, 64, 0
1, 285563, Note_on_c, 0, 66, 0
1, 285563, Note_on_c, 0, 71, 0
1, 285600, Note_on_c, 0, 64, 80
1, 285600, Note_on_c, 0, 66, 80
1, 285600, Note_on_c, 0, 71, 80
1, 286283, Note_on_c, 0, 64, 0
1, 286283, Note_on_c, 0, 66, 0
1, 286283, Note_on_c, 0, 71, 0
1, 286320, Note_on_c, 0, 64, 80
1, 286320, Note_on_c, 0, 66, 80
1, 286320, Note_on_c, 0, 71, 80
1, 287003, Note_on_c, 0, 64, 0
1, 287003, Note_on_c, 0, 66, 0
1, 287003, Note_on_c, 0, 71, 0
1, 287040, Note_on_c, 0, 64, 80
1, 287040, Note_on_c, 0, 66, 80
1, 287040, Note_on_c, 0, 71, 80
1, 287495, Note_on_c, 0, 64, 0
1, 287495, Note_on_c, 0, 66, 0
1, 287495, Note_on_c, 0, 71, 0
1, 287520, Note_on_c, 0, 64, 80
1, 287520, Note_on_c, 0, 66, 80
1, 287520, Note_on_c, 0, 71, 80
1, 287975, Note_on_c, 0, 64, 0
1, 287975, Note_on_c, 0, 66, 0
1, 287975, Note_on_c, 0, 71, 0
1, 288000, Note_on_c, 0, 76, 80
1, 288683, Note_on_c, 0, 76, 0
1, 288720, Note_on_c, 0, 74, 80
1, 289403, Note_on_c, 0, 74, 0
1, 289440, Note_on_c, 0, 73, 80
1, 290123, Note_on_c, 0, 73, 0
1, 290160, Note_on_c, 0, 71, 80
1, 290843, Note_on_c, 0, 71, 0
1, 290880, Note_on_c, 0, 69, 80
1, 291335, Note_on_c, 0, 69, 0
1, 291360, Note_on_c, 0, 64, 80
1, 291815, Note_on_c, 0, 64, 0
1, 291840, Note_on_c, 0, 64, 80
1, 292295, Note_on_c, 0, 64, 0
1, 292320, Note_on_c, 0, 69, 80
1, 292775, Note_on_c, 0, 69, 0
1, 292800, Note_on_c, 0, 68, 80
1, 293255, Note_on_c, 0, 68, 0
1, 293280, Note_on_c, 0, 69, 80
1, 293507, Note_on_c, 0, 69, 0
1, 293520, Note_on_c, 0, 71, 80
1, 293975, Note_on_c, 0, 71, 0
1, 294000, Note_on_c, 0, 73, 80
1, 294455, Note_on_c, 0, 73, 0
1, 294480, Note_on_c, 0, 71, 80
1, 294935, Note_on_c, 0, 71, 0
1, 294960, Note_on_c, 0, 73, 80
1, 295187, Note_on_c, 0, 73, 0
1, 295200, Note_on_c, 0, 71, 80
1, 295427, Note_on_c, 0, 71, 0
1, 295440, Note_on_c, 0, 69, 80
1, 295667, Note_on_c, 0, 69, 0
1, 295680, Note_on_c, 0, 68, 80
1, 296135, Note_on_c, 0, 68, 0
1, 296160, Note_on_c, 0, 66, 80
1, 296615, Note_on_c, 0, 66, 0
1, 296640, Note_on_c, 0, 68, 80
1, 297095, Note_on_c, 0, 68, 0
1, 297120, Note_on_c, 0, 69, 80
1, 297347, Note_on_c, 0, 69, 0
1, 297360, Note_on_c, 0, 71, 80
1, 297815, Note_on_c, 0, 71, 0
1, 297840, Note_on_c, 0, 73, 80
1, 298295, Note_on_c, 0, 73, 0
1, 298560, Note_on_c, 0, 66, 80
1, 299015, Note_on_c, 0, 66, 0
1, 299040, Note_on_c, 0, 69, 80
1, 299495, Note_on_c, 0, 69, 0
1, 299520, Note_on_c, 0, 68, 80
1, 301343, Note_on_c, 0, 68, 0
1, 301440, Note_on_c, 0, 64, 80
1, 301667, Note_on_c, 0, 64, 0
1, 301680, Note_on_c, 0, 64, 80
1, 302135, Note_on_c, 0, 64, 0
1, 302160, Note_on_c, 0, 66, 80
1, 302615, Note_on_c, 0, 66, 0
1, 302640, Note_on_c, 0, 68, 80
1, 303095, Note_on_c, 0, 68, 0
1, 303120, Note_on_c, 0, 69, 80
1, 304715, Note_on_c, 0, 69, 0
1, 304800, Note_on_c, 0, 66, 80
1, 305255, Note_on_c, 0, 66, 0
1, 305280, Note_on_c, 0, 73, 80
1, 305507, Note_on_c, 0, 73, 0
1, 305520, Note_on_c, 0, 71, 80
1, 305975, Note_on_c, 0, 71, 0
1, 306000, Note_on_c, 0, 71, 80
1, 306683, Note_on_c, 0, 71, 0
1, 307200, Note_on_c, 0, 64, 80
1, 307655, Note_on_c, 0, 64, 0
1, 307680, Note_on_c, 0, 69, 80
1, 308135, Note_on_c, 0, 69, 0
1, 308160, Note_on_c, 0, 68, 80
1, 308615, Note_on_c, 0, 68, 0
1, 308640, Note_on_c, 0, 69, 80
1, 308867, Note_on_c, 0, 69, 0
1, 308880, Note_on_c, 0, 71, 80
1, 309335, Note_on_c, 0, 71, 0
1, 309360, Note_on_c, 0, 73, 80
1, 309815, Note_on_c, 0, 73, 0
1, 309840, Note_on_c, 0, 71, 80
1, 310295, Note_on_c, 0, 71, 0
1, 310320, Note_on_c, 0, 73, 80
1, 310547, Note_on_c, 0, 73, 0
1, 310560, Note_on_c, 0, 71, 80
1, 310787, Note_on_c, 0, 71, 0
1, 310800, Note_on_c, 0, 69, 80
1, 311027, Note_on_c, 0, 69, 0
1, 311040, Note_on_c, 0, 68, 80
1, 311495, Note_on_c, 0, 68, 0
1, 311520, Note_on_c, 0, 66, 80
1, 311975, Note_on_c, 0, 66, 0
1, 312000, Note_on_c, 0, 68, 80
1, 312455, Note_on_c, 0, 68, 0
1, 312480, Note_on_c, 0, 69, 80
1, 312707, Note_on_c, 0, 69, 0
1, 312720, Note_on_c, 0, 71, 80
1, 313175, Note_on_c, 0, 71, 0
1, 313200, Note_on_c, 0, 73, 80
1, 313655, Note_on_c, 0, 73, 0
1, 313920, Note_on_c, 0, 66, 80
1, 314375, Note_on_c, 0, 66, 0
1, 314400, Note_on_c, 0, 69, 80
1, 314855, Note_on_c, 0, 69, 0
1, 314880, Note_on_c, 0, 68, 80
1, 316703, Note_on_c, 0, 68, 0
1, 316800, Note_on_c, 0, 64, 80
1, 317027, Note_on_c, 0, 64, 0
1, 317040, Note_on_c, 0, 64, 80
1, 317495, Note_on_c, 0, 64, 0
1, 317520, Note_on_c, 0, 66, 80
1, 317975, Note_on_c, 0, 66, 0
1, 318000, Note_on_c, 0, 68, 80
1, 318455, Note_on_c, 0, 68, 0
1, 318480, Note_on_c, 0, 69, 80
1, 320075, Note_on_c, 0, 69, 0
1, 320160, Note_on_c, 0, 66, 80
1, 320615, Note_on_c, 0, 66, 0
1, 320640, Note_on_c, 0, 73, 80
1, 320867, Note_on_c, 0, 73, 0
1, 320880, Note_on_c, 0, 71, 80
1, 321107, Note_on_c, 0, 71, 0
1, 321120, Note_on_c, 0, 71, 80
1, 321347, Note_on_c, 0, 71, 0
1, 321360, Note_on_c, 0, 71, 80
1, 322043, Note_on_c, 0, 71, 0
1, 322560, Note_on_c, 0, 73, 80
1, 322560, Note_on_c, 0, 76, 80
1, 323015, Note_on_c, 0, 73, 0
1, 323015, Note_on_c, 0, 76, 0
1, 323040, Note_on_c, 0, 73, 80
1, 323040, Note_on_c, 0, 76, 80
1, 323040, Note_on_c, 0, 81, 80
1, 323495, Note_on_c, 0, 73, 0
1, 323495, Note_on_c, 0, 76, 0
1, 323495, Note_on_c, 0, 81, 0
1, 323520, Note_on_c, 0, 73, 80
1, 323520, Note_on_c, 0, 76, 80
1, 323520, Note_on_c, 0, 80, 80
1, 323975, Note_on_c, 0, 73, 0
1, 323975, Note_on_c, 0, 76, 0
1, 323975, Note_on_c, 0, 80, 0
1, 324000, Note_on_c, 0, 73, 80
1, 324000, Note_on_c, 0, 76, 80
1, 324000, Note_on_c, 0, 81, 80
1, 324227, Note_on_c, 0, 73, 0
1, 324227, Note_on_c, 0, 76, 0
1, 324227, Note_on_c, 0, 81, 0
1, 324240, Note_on_c, 0, 73, 80
1, 324240, Note_on_c, 0, 76, 80
1, 324240, Note_on_c, 0, 83, 80
1, 324695, Note_on_c, 0, 73, 0
1, 324695, Note_on_c, 0, 76, 0
1, 324695, Note_on_c, 0, 83, 0
1, 324720, Note_on_c, 0, 73, 80
1, 324720, Note_on_c, 0, 76, 80
1, 324720, Note_on_c, 0, 85, 80
1, 325175, Note_on_c, 0, 73, 0
1, 325175, Note_on_c, 0, 76, 0
1, 325175, Note_on_c, 0, 85, 0
1, 325200, Note_on_c, 0, 73, 80
1, 325200, Note_on_c, 0, 76, 80
1, 325200, Note_on_c, 0, 83, 80
1, 325655, Note_on_c, 0, 73, 0
1, 325655, Note_on_c, 0, 76, 0
1, 325655, Note_on_c, 0, 83, 0
1, 325680, Note_on_c, 0, 73, 80
1, 325680, Note_on_c, 0, 76, 80
1, 325680, Note_on_c, 0, 85, 80
1, 325907, Note_on_c, 0, 73, 0
1, 325907, Note_on_c, 0, 76, 0
1, 325907, Note_on_c, 0, 85, 0
1, 325920, Note_on_c, 0, 71, 80
1, 325920, Note_on_c, 0, 83, 80
1, 326147, Note_on_c, 0, 71, 0
1, 326147, Note_on_c, 0, 83, 0
1, 326160, Note_on_c, 0, 69, 80
1, 326160, Note_on_c, 0, 81, 80
1, 326387, Note_on_c, 0, 69, 0
1, 326387, Note_on_c, 0, 81, 0
1, 326400, Note_on_c, 0, 69, 80
1, 326400, Note_on_c, 0, 73, 80
1, 326400, Note_on_c, 0, 80, 80
1, 326855, Note_on_c, 0, 69, 0
1, 326855, Note_on_c, 0, 73, 0
1, 326855, Note_on_c, 0, 80, 0
1, 326880, Note_on_c, 0, 69, 80
1, 326880, Note_on_c, 0, 73, 80
1, 326880, Note_on_c, 0, 78, 80
1, 327335, Note_on_c, 0, 69, 0
1, 327335, Note_on_c, 0, 73, 0
1, 327335, Note_on_c, 0, 78, 0
1, 327360, Note_on_c, 0, 69, 80
1, 327360, Note_on_c, 0, 73, 80
1, 327360, Note_on_c, 0, 80, 80
1, 327815, Note_on_c, 0, 69, 0
1, 327815, Note_on_c, 0, 73, 0
1, 327815, Note_on_c, 0, 80, 0
1, 327840, Note_on_c, 0, 69, 80
1, 327840, Note_on_c, 0, 73, 80
1, 327840, Note_on_c, 0, 81, 80
1, 328067, Note_on_c, 0, 69, 0
1, 328067, Note_on_c, 0, 73, 0
1, 328067, Note_on_c, 0, 81, 0
1, 328080, Note_on_c, 0, 71, 80
1, 328080, Note_on_c, 0, 83, 80
1, 328535, Note_on_c, 0, 71, 0
1, 328535, Note_on_c, 0, 83, 0
1, 328560, Note_on_c, 0, 73, 80
1, 328560, Note_on_c, 0, 76, 80
1, 328560, Note_on_c, 0, 85, 80
1, 329015, Note_on_c, 0, 73, 0
1, 329015, Note_on_c, 0, 76, 0
1, 329015, Note_on_c, 0, 85, 0
1, 329280, Note_on_c, 0, 66, 80
1, 329280, Note_on_c, 0, 73, 80
1, 329280, Note_on_c, 0, 76, 80
1, 329280, Note_on_c, 0, 78, 80
1, 329735, Note_on_c, 0, 66, 0
1, 329735, Note_on_c, 0, 73, 0
1, 329735, Note_on_c, 0, 76, 0
1, 329735, Note_on_c, 0, 78, 0
1, 329760, Note_on_c, 0, 69, 80
1, 329760, Note_on_c, 0, 73, 80
1, 329760, Note_on_c, 0, 76, 80
1, 329760, Note_on_c, 0, 81, 80
1, 330215, Note_on_c, 0, 69, 0
1, 330215, Note_on_c, 0, 73, 0
1, 330215, Note_on_c, 0, 76, 0
1, 330215, Note_on_c, 0, 81, 0
1, 330240, Note_on_c, 0, 68, 80
1, 330240, Note_on_c, 0, 73, 80
1, 330240, Note_on_c, 0, 76, 80
1, 330240, Note_on_c, 0, 80, 80
1, 330720, Note_on_c, 0, 73, 80
1, 331175, Note_on_c, 0, 73, 0
1, 331680, Note_on_c, 0, 73, 80
1, 332063, Note_on_c, 0, 68, 0
1, 332063, Note_on_c, 0, 73, 0
1, 332063, Note_on_c, 0, 76, 0
1, 332063, Note_on_c, 0, 80, 0
1, 332135, Note_on_c, 0, 73, 0
1, 332160, Note_on_c, 0, 73, 80
1, 332160, Note_on_c, 0, 76, 80
1, 332387, Note_on_c, 0, 73, 0
1, 332387, Note_on_c, 0, 76, 0
1, 332400, Note_on_c, 0, 73, 80
1, 332400, Note_on_c, 0, 76, 80
1, 332640, Note_on_c, 0, 73, 80
1, 332855, Note_on_c, 0, 73, 0
1, 332855, Note_on_c, 0, 76, 0
1, 332880, Note_on_c, 0, 74, 80
1, 332880, Note_on_c, 0, 78, 80
1, 333095, Note_on_c, 0, 73, 0
1, 333335, Note_on_c, 0, 74, 0
1, 333335, Note_on_c, 0, 78, 0
1, 333360, Note_on_c, 0, 76, 80
1, 333360, Note_on_c, 0, 80, 80
1, 333600, Note_on_c, 0, 73, 80
1, 333815, Note_on_c, 0, 76, 0
1, 333815, Note_on_c, 0, 80, 0
1, 333840, Note_on_c, 0, 74, 80
1, 333840, Note_on_c, 0, 78, 80
1, 333840, Note_on_c, 0, 81, 80
1, 334055, Note_on_c, 0, 73, 0
1, 335435, Note_on_c, 0, 74, 0
1, 335435, Note_on_c, 0, 78, 0
1, 335435, Note_on_c, 0, 81, 0
1, 335520, Note_on_c, 0, 74, 80
1, 335520, Note_on_c, 0, 78, 80
1, 335975, Note_on_c, 0, 74, 0
1, 335975, Note_on_c, 0, 78, 0
1, 336000, Note_on_c, 0, 73, 80
1, 336000, Note_on_c, 0, 76, 80
1, 336000, Note_on_c, 0, 85, 80
1, 336227, Note_on_c, 0, 73, 0
1, 336227, Note_on_c, 0, 76, 0
1, 336227, Note_on_c, 0, 85, 0
1, 336240, Note_on_c, 0, 71, 80
1, 336240, Note_on_c, 0, 76, 80
1, 336240, Note_on_c, 0, 83, 80
1, 336695, Note_on_c, 0, 71, 0
1, 336695, Note_on_c, 0, 76, 0
1, 336695, Note_on_c, 0, 83, 0
1, 336720, Note_on_c, 0, 71, 80
1, 336720, Note_on_c, 0, 76, 80
1, 336720, Note_on_c, 0, 83, 80
1, 337631, Note_on_c, 0, 71, 0
1, 337631, Note_on_c, 0, 76, 0
1, 337631, Note_on_c, 0, 83, 0
1, 337920, Note_on_c, 0, 61, 80
1, 337920, Note_on_c, 0, 64, 80
1, 338375, Note_on_c, 0, 61, 0
1, 338375, Note_on_c, 0, 64, 0
1, 338400, Note_on_c, 0, 61, 80
1, 338400, Note_on_c, 0, 64, 80
1, 338400, Note_on_c, 0, 69, 80
1, 338855, Note_on_c, 0, 61, 0
1, 338855, Note_on_c, 0, 64, 0
1, 338855, Note_on_c, 0, 69, 0
1, 338880, Note_on_c, 0, 61, 80
1, 338880, Note_on_c, 0, 64, 80
1, 338880, Note_on_c, 0, 68, 80
1, 339335, Note_on_c, 0, 61, 0
1, 339335, Note_on_c, 0, 64, 0
1, 339335, Note_on_c, 0, 68, 0
1, 339360, Note_on_c, 0, 61, 80
1, 339360, Note_on_c, 0, 64, 80
1, 339360, Note_on_c, 0, 69, 80
1, 339587, Note_on_c, 0, 61, 0
1, 339587, Note_on_c, 0, 64, 0
1, 339587, Note_on_c, 0, 69, 0
1, 339600, Note_on_c, 0, 61, 80
1, 339600, Note_on_c, 0, 64, 80
1, 339600, Note_on_c, 0, 71, 80
1, 340055, Note_on_c, 0, 61, 0
1, 340055, Note_on_c, 0, 64, 0
1, 340055, Note_on_c, 0, 71, 0
1, 340080, Note_on_c, 0, 61, 80
1, 340080, Note_on_c, 0, 64, 80
1, 340080, Note_on_c, 0, 73, 80
1, 340535, Note_on_c, 0, 61, 0
1, 340535, Note_on_c, 0, 64, 0
1, 340535, Note_on_c, 0, 73, 0
1, 340560, Note_on_c, 0, 61, 80
1, 340560, Note_on_c, 0, 64, 80
1, 340560, Note_on_c, 0, 71, 80
1, 341015, Note_on_c, 0, 61, 0
1, 341015, Note_on_c, 0, 64, 0
1, 341015, Note_on_c, 0, 71, 0
1, 341040, Note_on_c, 0, 61, 80
1, 341040, Note_on_c, 0, 64, 80
1, 341040, Note_on_c, 0, 73, 80
1, 341267, Note_on_c, 0, 61, 0
1, 341267, Note_on_c, 0, 64, 0
1, 341267, Note_on_c, 0, 73, 0
1, 341280, Note_on_c, 0, 59, 80
1, 341280, Note_on_c, 0, 71, 80
1, 341507, Note_on_c, 0, 59, 0
1, 341507, Note_on_c, 0, 71, 0
1, 341520, Note_on_c, 0, 57, 80
1, 341520, Note_on_c, 0, 69, 80
1, 341747, Note_on_c, 0, 57, 0
1, 341747, Note_on_c, 0, 69, 0
1, 341760, Note_on_c, 0, 57, 80
1, 341760, Note_on_c, 0, 61, 80
1, 341760, Note_on_c, 0, 68, 80
1, 342215, Note_on_c, 0, 57, 0
1, 342215, Note_on_c, 0, 61, 0
1, 342215, Note_on_c, 0, 68, 0
1, 342240, Note_on_c, 0, 57, 80
1, 342240, Note_on_c, 0, 61, 80
1, 342240, Note_on_c, 0, 66, 80
1, 342695, Note_on_c, 0, 57, 0
1, 342695, Note_on_c, 0, 61, 0
1, 342695, Note_on_c, 0, 66, 0
1, 342720, Note_on_c, 0, 57, 80
1, 342720, Note_on_c, 0, 61, 80
1, 342720, Note_on_c, 0, 68, 80
1, 343175, Note_on_c, 0, 57, 0
1, 343175, Note_on_c, 0, 61, 0
1, 343175, Note_on_c, 0, 68, 0
1, 343200, Note_on_c, 0, 57, 80
1, 343200, Note_on_c, 0, 61, 80
1, 343200, Note_on_c, 0, 69, 80
1, 343427, Note_on_c, 0, 57, 0
1, 343427, Note_on_c, 0, 61, 0
1, 343427, Note_on_c, 0, 69, 0
1, 343440, Note_on_c, 0, 59, 80
1, 343440, Note_on_c, 0, 71, 80
1, 343895, Note_on_c, 0, 59, 0
1, 343895, Note_on_c, 0, 71, 0
1, 343920, Note_on_c, 0, 61, 80
1, 343920, Note_on_c, 0, 64, 80
1, 343920, Note_on_c, 0, 73, 80
1, 344375, Note_on_c, 0, 61, 0
1, 344375, Note_on_c, 0, 64, 0
1, 344375, Note_on_c, 0, 73, 0
1, 344640, Note_on_c, 0, 54, 80
1, 344640, Note_on_c, 0, 61, 80
1, 344640, Note_on_c, 0, 64, 80
1, 344640, Note_on_c, 0, 66, 80
1, 345095, Note_on_c, 0, 54, 0
1, 345095, Note_on_c, 0, 61, 0
1, 345095, Note_on_c, 0, 64, 0
1, 345095, Note_on_c, 0, 66, 0
1, 345120, Note_on_c, 0, 57, 80
1, 345120, Note_on_c, 0, 61, 80
1, 345120, Note_on_c, 0, 64, 80
1, 345120, Note_on_c, 0, 69, 80
1, 345575, Note_on_c, 0, 57, 0
1, 345575, Note_on_c, 0, 61, 0
1, 345575, Note_on_c, 0, 64, 0
1, 345575, Note_on_c, 0, 69, 0
1, 345600, Note_on_c, 0, 56, 80
1, 345600, Note_on_c, 0, 61, 80
1, 345600, Note_on_c, 0, 64, 80
1, 345600, Note_on_c, 0, 68, 80
1, 347423, Note_on_c, 0, 56, 0
1, 347423, Note_on_c, 0, 61, 0
1, 347423, Note_on_c, 0, 64, 0
1, 347423, Note_on_c, 0, 68, 0
1, 347520, Note_on_c, 0, 61, 80
1, 347520, Note_on_c, 0, 64, 80
1, 347747, Note_on_c, 0, 61, 0
1, 347747, Note_on_c, 0, 64, 0
1, 347760, Note_on_c, 0, 61, 80
1, 347760, Note_on_c, 0, 64, 80
1, 348215, Note_on_c, 0, 61, 0
1, 348215, Note_on_c, 0, 64, 0
1, 348240, Note_on_c, 0, 62, 80
1, 348240, Note_on_c, 0, 66, 80
1, 348695, Note_on_c, 0, 62, 0
1, 348695, Note_on_c, 0, 66, 0
1, 348720, Note_on_c, 0, 64, 80
1, 348720, Note_on_c, 0, 68, 80
1, 349175, Note_on_c, 0, 64, 0
1, 349175, Note_on_c, 0, 68, 0
1, 349200, Note_on_c, 0, 62, 80
1, 349200, Note_on_c, 0, 66, 80
1, 349200, Note_on_c, 0, 69, 80
1, 350795, Note_on_c, 0, 62, 0
1, 350795, Note_on_c, 0, 66, 0
1, 350795, Note_on_c, 0, 69, 0
1, 350880, Note_on_c, 0, 62, 80
1, 350880, Note_on_c, 0, 66, 80
1, 351335, Note_on_c, 0, 62, 0
1, 351335, Note_on_c, 0, 66, 0
1, 351360, Note_on_c, 0, 61, 80
1, 351360, Note_on_c, 0, 64, 80
1, 351360, Note_on_c, 0, 73, 80
1, 351587, Note_on_c, 0, 61, 0
1, 351587, Note_on_c, 0, 64, 0
1, 351587, Note_on_c, 0, 73, 0
1, 351600, Note_on_c, 0, 59, 80
1, 351600, Note_on_c, 0, 64, 80
1, 351600, Note_on_c, 0, 71, 80
1, 351827, Note_on_c, 0, 59, 0
1, 351827, Note_on_c, 0, 64, 0
1, 351827, Note_on_c, 0, 71, 0
1, 351840, Note_on_c, 0, 59, 80
1, 351840, Note_on_c, 0, 64, 80
1, 351840, Note_on_c, 0, 71, 80
1, 352067, Note_on_c, 0, 59, 0
1, 352067, Note_on_c, 0, 64, 0
1, 352067, Note_on_c, 0, 71, 0
1, 352080, Note_on_c, 0, 59, 80
1, 352080, Note_on_c, 0, 64, 80
1, 352080, Note_on_c, 0, 71, 80
1, 352991, Note_on_c, 0, 59, 0
1, 352991, Note_on_c, 0, 64, 0
1, 352991, Note_on_c, 0, 71, 0
1, 353280, Note_on_c, 0, 66, 80
1, 353507, Note_on_c, 0, 66, 0
1, 353520, Note_on_c, 0, 68, 80
1, 353747, Note_on_c, 0, 68, 0
1, 353760, Note_on_c, 0, 69, 80
1, 354215, Note_on_c, 0, 69, 0
1, 354240, Note_on_c, 0, 68, 80
1, 354467, Note_on_c, 0, 68, 0
1, 354480, Note_on_c, 0, 69, 80
1, 354707, Note_on_c, 0, 69, 0
1, 354720, Note_on_c, 0, 71, 80
1, 354947, Note_on_c, 0, 71, 0
1, 354960, Note_on_c, 0, 73, 80
1, 355415, Note_on_c, 0, 73, 0
1, 355440, Note_on_c, 0, 74, 80
1, 355667, Note_on_c, 0, 74, 0
1, 355680, Note_on_c, 0, 73, 80
1, 356135, Note_on_c, 0, 73, 0
1, 356160, Note_on_c, 0, 69, 80
1, 356615, Note_on_c, 0, 69, 0
1, 356640, Note_on_c, 0, 69, 80
1, 356867, Note_on_c, 0, 69, 0
1, 356880, Note_on_c, 0, 68, 80
1, 357107, Note_on_c, 0, 68, 0
1, 357120, Note_on_c, 0, 66, 80
1, 357575, Note_on_c, 0, 66, 0
1, 357600, Note_on_c, 0, 69, 80
1, 358055, Note_on_c, 0, 69, 0
1, 358080, Note_on_c, 0, 68, 80
1, 358307, Note_on_c, 0, 68, 0
1, 358320, Note_on_c, 0, 69, 80
1, 358547, Note_on_c, 0, 69, 0
1, 358560, Note_on_c, 0, 71, 80
1, 358787, Note_on_c, 0, 71, 0
1, 358800, Note_on_c, 0, 73, 80
1, 359939, Note_on_c, 0, 73, 0
1, 360960, Note_on_c, 0, 66, 80
1, 361187, Note_on_c, 0, 66, 0
1, 361200, Note_on_c, 0, 68, 80
1, 361427, Note_on_c, 0, 68, 0
1, 361440, Note_on_c, 0, 69, 80
1, 361895, Note_on_c, 0, 69, 0
1, 361920, Note_on_c, 0, 68, 80
1, 362147, Note_on_c, 0, 68, 0
1, 362160, Note_on_c, 0, 69, 80
1, 362387, Note_on_c, 0, 69, 0
1, 362400, Note_on_c, 0, 71, 80
1, 362627, Note_on_c, 0, 71, 0
1, 362640, Note_on_c, 0, 73, 80
1, 363095, Note_on_c, 0, 73, 0
1, 363120, Note_on_c, 0, 74, 80
1, 363347, Note_on_c, 0, 74, 0
1, 363360, Note_on_c, 0, 73, 80
1, 363815, Note_on_c, 0, 73, 0
1, 363840, Note_on_c, 0, 69, 80
1, 364295, Note_on_c, 0, 69, 0
1, 364320, Note_on_c, 0, 69, 80
1, 364547, Note_on_c, 0, 69, 0
1, 364560, Note_on_c, 0, 68, 80
1, 364787, Note_on_c, 0, 68, 0
1, 364800, Note_on_c, 0, 66, 80
1, 365255, Note_on_c, 0, 66, 0
1, 365280, Note_on_c, 0, 69, 80
1, 365735, Note_on_c, 0, 69, 0
1, 365760, Note_on_c, 0, 68, 80
1, 365987, Note_on_c, 0, 68, 0
1, 366000, Note_on_c, 0, 69, 80
1, 366227, Note_on_c, 0, 69, 0
1, 366240, Note_on_c, 0, 71, 80
1, 366467, Note_on_c, 0, 71, 0
1, 366480, Note_on_c, 0, 69, 80
1, 367200, Note_on_c, 0, 73, 80
1, 367200, Note_on_c, 0, 85, 80
1, 367619, Note_on_c, 0, 69, 0
1, 367655, Note_on_c, 0, 73, 0
1, 367655, Note_on_c, 0, 85, 0
1, 367680, Note_on_c, 0, 73, 80
1, 367680, Note_on_c, 0, 85, 80
1, 368135, Note_on_c, 0, 73, 0
1, 368135, Note_on_c, 0, 85, 0
1, 368160, Note_on_c, 0, 71, 80
1, 368160, Note_on_c, 0, 83, 80
1, 368615, Note_on_c, 0, 71, 0
1, 368615, Note_on_c, 0, 83, 0
1, 368640, Note_on_c, 0, 66, 80
1, 368640, Note_on_c, 0, 69, 80
1, 368640, Note_on_c, 0, 74, 80
1, 368640, Note_on_c, 0, 78, 80
1, 368867, Note_on_c, 0, 66, 0
1, 368867, Note_on_c, 0, 69, 0
1, 368867, Note_on_c, 0, 74, 0
1, 368867, Note_on_c, 0, 78, 0
1, 368880, Note_on_c, 0, 68, 80
1, 368880, Note_on_c, 0, 80, 80
1, 369107, Note_on_c, 0, 68, 0
1, 369107, Note_on_c, 0, 80, 0
1, 369120, Note_on_c, 0, 69, 80
1, 369120, Note_on_c, 0, 81, 80
1, 369575, Note_on_c, 0, 69, 0
1, 369575, Note_on_c, 0, 81, 0
1, 369600, Note_on_c, 0, 68, 80
1, 369600, Note_on_c, 0, 71, 80
1, 369600, Note_on_c, 0, 76, 80
1, 369600, Note_on_c, 0, 80, 80
1, 369827, Note_on_c, 0, 68, 0
1, 369827, Note_on_c, 0, 71, 0
1, 369827, Note_on_c, 0, 76, 0
1, 369827, Note_on_c, 0, 80, 0
1, 369840, Note_on_c, 0, 69, 80
1, 369840, Note_on_c, 0, 81, 80
1, 370067, Note_on_c, 0, 69, 0
1, 370067, Note_on_c, 0, 81, 0
1, 370080, Note_on_c, 0, 71, 80
1, 370080, Note_on_c, 0, 83, 80
1, 370307, Note_on_c, 0, 71, 0
1, 370307, Note_on_c, 0, 83, 0
1, 370320, Note_on_c, 0, 73, 80
1, 370320, Note_on_c, 0, 76, 80
1, 370320, Note_on_c, 0, 81, 80
1, 370320, Note_on_c, 0, 85, 80
1, 370775, Note_on_c, 0, 73, 0
1, 370775, Note_on_c, 0, 76, 0
1, 370775, Note_on_c, 0, 81, 0
1, 370775, Note_on_c, 0, 85, 0
1, 370800, Note_on_c, 0, 74, 80
1, 370800, Note_on_c, 0, 86, 80
1, 371027, Note_on_c, 0, 74, 0
1, 371027, Note_on_c, 0, 86, 0
1, 371040, Note_on_c, 0, 73, 80
1, 371040, Note_on_c, 0, 85, 80
1, 371495, Note_on_c, 0, 73, 0
1, 371495, Note_on_c, 0, 85, 0
1, 371520, Note_on_c, 0, 69, 80
1, 371520, Note_on_c, 0, 73, 80
1, 371520, Note_on_c, 0, 76, 80
1, 371520, Note_on_c, 0, 81, 80
1, 371975, Note_on_c, 0, 69, 0
1, 371975, Note_on_c, 0, 73, 0
1, 371975, Note_on_c, 0, 76, 0
1, 371975, Note_on_c, 0, 81, 0
1, 372000, Note_on_c, 0, 69, 80
1, 372000, Note_on_c, 0, 81, 80
1, 372227, Note_on_c, 0, 69, 0
1, 372227, Note_on_c, 0, 81, 0
1, 372240, Note_on_c, 0, 68, 80
1, 372240, Note_on_c, 0, 80, 80
1, 372467, Note_on_c, 0, 68, 0
1, 372467, Note_on_c, 0, 80, 0
1, 372480, Note_on_c, 0, 66, 80
1, 372480, Note_on_c, 0, 69, 80
1, 372480, Note_on_c, 0, 74, 80
1, 372480, Note_on_c, 0, 78, 80
1, 372935, Note_on_c, 0, 66, 0
1, 372935, Note_on_c, 0, 69, 0
1, 372935, Note_on_c, 0, 74, 0
1, 372935, Note_on_c, 0, 78, 0
1, 372960, Note_on_c, 0, 69, 80
1, 372960, Note_on_c, 0, 81, 80
1, 373415, Note_on_c, 0, 69, 0
1, 373415, Note_on_c, 0, 81, 0
1, 373440, Note_on_c, 0, 68, 80
1, 373440, Note_on_c, 0, 71, 80
1, 373440, Note_on_c, 0, 76, 80
1, 373440, Note_on_c, 0, 80, 80
1, 373667, Note_on_c, 0, 68, 0
1, 373667, Note_on_c, 0, 71, 0
1, 373667, Note_on_c, 0, 76, 0
1, 373667, Note_on_c, 0, 80, 0
1, 373680, Note_on_c, 0, 69, 80
1, 373680, Note_on_c, 0, 81, 80
1, 373907, Note_on_c, 0, 69, 0
1, 373907, Note_on_c, 0, 81, 0
1, 373920, Note_on_c, 0, 71, 80
1, 373920, Note_on_c, 0, 83, 80
1, 374147, Note_on_c, 0, 71, 0
1, 374147, Note_on_c, 0, 83, 0
1, 374160, Note_on_c, 0, 73, 80
1, 374160, Note_on_c, 0, 76, 80
1, 374160, Note_on_c, 0, 81, 80
1, 374160, Note_on_c, 0, 85, 80
1, 374880, Note_on_c, 0, 73, 80
1, 374880, Note_on_c, 0, 85, 80
1, 375299, Note_on_c, 0, 73, 0
1, 375299, Note_on_c, 0, 76, 0
1, 375299, Note_on_c, 0, 81, 0
1, 375299, Note_on_c, 0, 85, 0
1, 375335, Note_on_c, 0, 73, 0
1, 375335, Note_on_c, 0, 85, 0
1, 375360, Note_on_c, 0, 73, 80
1, 375360, Note_on_c, 0, 85, 80
1, 375815, Note_on_c, 0, 73, 0
1, 375815, Note_on_c, 0, 85, 0
1, 375840, Note_on_c, 0, 71, 80
1, 375840, Note_on_c, 0, 83, 80
1, 376295, Note_on_c, 0, 71, 0
1, 376295, Note_on_c, 0, 83, 0
1, 376320, Note_on_c, 0, 66, 80
1, 376320, Note_on_c, 0, 69, 80
1, 376320, Note_on_c, 0, 74, 80
1, 376320, Note_on_c, 0, 78, 80
1, 376547, Note_on_c, 0, 66, 0
1, 376547, Note_on_c, 0, 69, 0
1, 376547, Note_on_c, 0, 74, 0
1, 376547, Note_on_c, 0, 78, 0
1, 376560, Note_on_c, 0, 68, 80
1, 376560, Note_on_c, 0, 80, 80
1, 376787, Note_on_c, 0, 68, 0
1, 376787, Note_on_c, 0, 80, 0
1, 376800, Note_on_c, 0, 69, 80
1, 376800, Note_on_c, 0, 81, 80
1, 377255, Note_on_c, 0, 69, 0
1, 377255, Note_on_c, 0, 81, 0
1, 377280, Note_on_c, 0, 68, 80
1, 377280, Note_on_c, 0, 71, 80
1, 377280, Note_on_c, 0, 76, 80
1, 377280, Note_on_c, 0, 80, 80
1, 377507, Note_on_c, 0, 68, 0
1, 377507, Note_on_c, 0, 71, 0
1, 377507, Note_on_c, 0, 76, 0
1, 377507, Note_on_c, 0, 80, 0
1, 377520, Note_on_c, 0, 69, 80
1, 377520, Note_on_c, 0, 81, 80
1, 377747, Note_on_c, 0, 69, 0
1, 377747, Note_on_c, 0, 81, 0
1, 377760, Note_on_c, 0, 71, 80
1, 377760, Note_on_c, 0, 83, 80
1, 377987, Note_on_c, 0, 71, 0
1, 377987, Note_on_c, 0, 83, 0
1, 378000, Note_on_c, 0, 73, 80
1, 378000, Note_on_c, 0, 76, 80
1, 378000, Note_on_c, 0, 81, 80
1, 378000, Note_on_c, 0, 85, 80
1, 378455, Note_on_c, 0, 73, 0
1, 378455, Note_on_c, 0, 76, 0
1, 378455, Note_on_c, 0, 81, 0
1, 378455, Note_on_c, 0, 85, 0
1, 378480, Note_on_c, 0, 74, 80
1, 378480, Note_on_c, 0, 86, 80
1, 378707, Note_on_c, 0, 74, 0
1, 378707, Note_on_c, 0, 86, 0
1, 378720, Note_on_c, 0, 73, 80
1, 378720, Note_on_c, 0, 85, 80
1, 379175, Note_on_c, 0, 73, 0
1, 379175, Note_on_c, 0, 85, 0
1, 379200, Note_on_c, 0, 69, 80
1, 379200, Note_on_c, 0, 73, 80
1, 379200, Note_on_c, 0, 76, 80
1, 379200, Note_on_c, 0, 81, 80
1, 379655, Note_on_c, 0, 69, 0
1, 379655, Note_on_c, 0, 73, 0
1, 379655, Note_on_c, 0, 76, 0
1, 379655, Note_on_c, 0, 81, 0
1, 379680, Note_on_c, 0, 69, 80
1, 379680, Note_on_c, 0, 81, 80
1, 379907, Note_on_c, 0, 69, 0
1, 379907, Note_on_c, 0, 81, 0
1, 379920, Note_on_c, 0, 68, 80
1, 379920, Note_on_c, 0, 80, 80
1, 380147, Note_on_c, 0, 68, 0
1, 380147, Note_on_c, 0, 80, 0
1, 380160, Note_on_c, 0, 66, 80
1, 380160, Note_on_c, 0, 69, 80
1, 380160, Note_on_c, 0, 74, 80
1, 380160, Note_on_c, 0, 78, 80
1, 380615, Note_on_c, 0, 66, 0
1, 380615, Note_on_c, 0, 69, 0
1, 380615, Note_on_c, 0, 74, 0
1, 380615, Note_on_c, 0, 78, 0
1, 380640, Note_on_c, 0, 74, 80
1, 380640, Note_on_c, 0, 78, 80
1, 380640, Note_on_c, 0, 81, 80
1, 380640, Note_on_c, 0, 86, 80
1, 381095, Note_on_c, 0, 74, 0
1, 381095, Note_on_c, 0, 78, 0
1, 381095, Note_on_c, 0, 81, 0
1, 381095, Note_on_c, 0, 86, 0
1, 381120, Note_on_c, 0, 73, 80
1, 381120, Note_on_c, 0, 85, 80
1, 381347, Note_on_c, 0, 73, 0
1, 381347, Note_on_c, 0, 85, 0
1, 381360, Note_on_c, 0, 71, 80
1, 381360, Note_on_c, 0, 83, 80
1, 381815, Note_on_c, 0, 71, 0
1, 381815, Note_on_c, 0, 83, 0
1, 381840, Note_on_c, 0, 69, 80
1, 381840, Note_on_c, 0, 81, 80
1, 381840, Note_on_c, 0, 76, 80
1, 382295, Note_on_c, 0, 76, 0
1, 382320, Note_on_c, 0, 74, 80
1, 382547, Note_on_c, 0, 74, 0
1, 382560, Note_on_c, 0, 73, 80
1, 382787, Note_on_c, 0, 73, 0
1, 382800, Note_on_c, 0, 71, 80
1, 382979, Note_on_c, 0, 69, 0
1, 382979, Note_on_c, 0, 81, 0
1, 383027, Note_on_c, 0, 71, 0
1, 383040, Note_on_c, 0, 69, 80
1, 383951, Note_on_c, 0, 69, 0
1, 384000, Note_on_c, 0, 69, 80
1, 384227, Note_on_c, 0, 69, 0
1, 384240, Note_on_c, 0, 68, 80
1, 384467, Note_on_c, 0, 68, 0
1, 384480, Note_on_c, 0, 69, 80
1, 384707, Note_on_c, 0, 69, 0
1, 384720, Note_on_c, 0, 69, 80
1, 384720, Note_on_c, 0, 76, 80
1, 384720, Note_on_c, 0, 64, 80
1, 385175, Note_on_c, 0, 69, 0
1, 385175, Note_on_c, 0, 76, 0
1, 385200, Note_on_c, 0, 69, 80
1, 385403, Note_on_c, 0, 64, 0
1, 385427, Note_on_c, 0, 69, 0
1, 385440, Note_on_c, 0, 76, 80
1, 385440, Note_on_c, 0, 69, 80
1, 385440, Note_on_c, 0, 74, 80
1, 386123, Note_on_c, 0, 76, 0
1, 386123, Note_on_c, 0, 69, 0
1, 386123, Note_on_c, 0, 74, 0
1, 386160, Note_on_c, 0, 69, 80
1, 386387, Note_on_c, 0, 69, 0
1, 386400, Note_on_c, 0, 68, 80
1, 386627, Note_on_c, 0, 68, 0
1, 386640, Note_on_c, 0, 69, 80
1, 386867, Note_on_c, 0, 69, 0
1, 386880, Note_on_c, 0, 81, 80
1, 387107, Note_on_c, 0, 81, 0
1, 387120, Note_on_c, 0, 69, 80
1, 387347, Note_on_c, 0, 69, 0
1, 387360, Note_on_c, 0, 80, 80
1, 387587, Note_on_c, 0, 80, 0
1, 387600, Note_on_c, 0, 69, 80
1, 387827, Note_on_c, 0, 69, 0
1, 387840, Note_on_c, 0, 69, 80
1, 388067, Note_on_c, 0, 69, 0
1, 388080, Note_on_c, 0, 68, 80
1, 388307, Note_on_c, 0, 68, 0
1, 388320, Note_on_c, 0, 69, 80
1, 388547, Note_on_c, 0, 69, 0
1, 388560, Note_on_c, 0, 69, 80
1, 388560, Note_on_c, 0, 76, 80
1, 388560, Note_on_c, 0, 64, 80
1, 389015, Note_on_c, 0, 69, 0
1, 389015, Note_on_c, 0, 76, 0
1, 389040, Note_on_c, 0, 69, 80
1, 389243, Note_on_c, 0, 64, 0
1, 389267, Note_on_c, 0, 69, 0
1, 389280, Note_on_c, 0, 76, 80
1, 389280, Note_on_c, 0, 69, 80
1, 389280, Note_on_c, 0, 74, 80
1, 389963, Note_on_c, 0, 76, 0
1, 389963, Note_on_c, 0, 69, 0
1, 389963, Note_on_c, 0, 74, 0
1, 390000, Note_on_c, 0, 69, 80
1, 390227, Note_on_c, 0, 69, 0
1, 390240, Note_on_c, 0, 68, 80
1, 390467, Note_on_c, 0, 68, 0
1, 390480, Note_on_c, 0, 69, 80
1, 390707, Note_on_c, 0, 69, 0
1, 390720, Note_on_c, 0, 81, 80
1, 390947, Note_on_c, 0, 81, 0
1, 390960, Note_on_c, 0, 69, 80
1, 391187, Note_on_c, 0, 69, 0
1, 391200, Note_on_c, 0, 83, 80
1, 391427, Note_on_c, 0, 83, 0
1, 391440, Note_on_c, 0, 69, 80
1, 391667, Note_on_c, 0, 69, 0
1, 391680, Note_on_c, 0, 69, 80
1, 391907, Note_on_c, 0, 69, 0
1, 391920, Note_on_c, 0, 68, 80
1, 392147, Note_on_c, 0, 68, 0
1, 392160, Note_on_c, 0, 69, 80
1, 392387, Note_on_c, 0, 69, 0
1, 392400, Note_on_c, 0, 69, 80
1, 392400, Note_on_c, 0, 76, 80
1, 392400, Note_on_c, 0, 64, 80
1, 392855, Note_on_c, 0, 69, 0
1, 392855, Note_on_c, 0, 76, 0
1, 392880, Note_on_c, 0, 69, 80
1, 393083, Note_on_c, 0, 64, 0
1, 393107, Note_on_c, 0, 69, 0
1, 393120, Note_on_c, 0, 76, 80
1, 393120, Note_on_c, 0, 69, 80
1, 393120, Note_on_c, 0, 74, 80
1, 393803, Note_on_c, 0, 76, 0
1, 393803, Note_on_c, 0, 69, 0
1, 393803, Note_on_c, 0, 74, 0
1, 393840, Note_on_c, 0, 69, 80
1, 394067, Note_on_c, 0, 69, 0
1, 394080, Note_on_c, 0, 68, 80
1, 394307, Note_on_c, 0, 68, 0
1, 394320, Note_on_c, 0, 69, 80
1, 394547, Note_on_c, 0, 69, 0
1, 394560, Note_on_c, 0, 81, 80
1, 394787, Note_on_c, 0, 81, 0
1, 394800, Note_on_c, 0, 69, 80
1, 395027, Note_on_c, 0, 69, 0
1, 395040, Note_on_c, 0, 80, 80
1, 395267, Note_on_c, 0, 80, 0
1, 395280, Note_on_c, 0, 69, 80
1, 395507, Note_on_c, 0, 69, 0
1, 395520, Note_on_c, 0, 69, 80
1, 395747, Note_on_c, 0, 69, 0
1, 395760, Note_on_c, 0, 68, 80
1, 395987, Note_on_c, 0, 68, 0
1, 396000, Note_on_c, 0, 69, 80
1, 396227, Note_on_c, 0, 69, 0
1, 396240, Note_on_c, 0, 69, 80
1, 396240, Note_on_c, 0, 76, 80
1, 396240, Note_on_c, 0, 64, 80
1, 396695, Note_on_c, 0, 69, 0
1, 396695, Note_on_c, 0, 76, 0
1, 396720, Note_on_c, 0, 69, 80
1, 396923, Note_on_c, 0, 64, 0
1, 396947, Note_on_c, 0, 69, 0
1, 396960, Note_on_c, 0, 76, 80
1, 396960, Note_on_c, 0, 69, 80
1, 396960, Note_on_c, 0, 74, 80
1, 399239, Note_on_c, 0, 76, 0
1, 399239, Note_on_c, 0, 69, 0
1, 399239, Note_on_c, 0, 74, 0
2, 0, Note_on_c, 0, 51, 80
2, 0, Note_on_c, 0, 56, 80
2, 0, Note_on_c, 0, 44, 80
2, 227, Note_on_c, 0, 51, 0
2, 227, Note_on_c, 0, 56, 0
2, 227, Note_on_c, 0, 44, 0
2, 240, Note_on_c, 0, 52, 80
2, 240, Note_on_c, 0, 57, 80
2, 240, Note_on_c, 0, 45, 80
2, 467, Note_on_c, 0, 52, 0
2, 467, Note_on_c, 0, 57, 0
2, 467, Note_on_c, 0, 45, 0
2, 480, Note_on_c, 0, 52, 80
2, 480, Note_on_c, 0, 57, 80
2, 480, Note_on_c, 0, 45, 80
2, 707, Note_on_c, 0, 52, 0
2, 707, Note_on_c, 0, 57, 0
2, 707, Note_on_c, 0, 45, 0
2, 720, Note_on_c, 0, 52, 80
2, 720, Note_on_c, 0, 57, 80
2, 720, Note_on_c, 0, 45, 80
2, 947, Note_on_c, 0, 52, 0
2, 947, Note_on_c, 0, 57, 0
2, 947, Note_on_c, 0, 45, 0
2, 960, Note_on_c, 0, 52, 80
2, 960, Note_on_c, 0, 57, 80
2, 960, Note_on_c, 0, 45, 80
2, 1187, Note_on_c, 0, 52, 0
2, 1187, Note_on_c, 0, 57, 0
2, 1187, Note_on_c, 0, 45, 0
2, 1440, Note_on_c, 0, 51, 80
2, 1440, Note_on_c, 0, 56, 80
2, 1440, Note_on_c, 0, 44, 80
2, 1667, Note_on_c, 0, 51, 0
2, 1667, Note_on_c, 0, 56, 0
2, 1667, Note_on_c, 0, 44, 0
2, 1680, Note_on_c, 0, 52, 80
2, 1680, Note_on_c, 0, 57, 80
2, 1680, Note_on_c, 0, 45, 80
2, 1907, Note_on_c, 0, 52, 0
2, 1907, Note_on_c, 0, 57, 0
2, 1907, Note_on_c, 0, 45, 0
2, 1920, Note_on_c, 0, 52, 80
2, 1920, Note_on_c, 0, 57, 80
2, 1920, Note_on_c, 0, 45, 80
2, 2147, Note_on_c, 0, 52, 0
2, 2147, Note_on_c, 0, 57, 0
2, 2147, Note_on_c, 0, 45, 0
2, 2160, Note_on_c, 0, 52, 80
2, 2160, Note_on_c, 0, 57, 80
2, 2160, Note_on_c, 0, 45, 80
2, 2387, Note_on_c, 0, 52, 0
2, 2387, Note_on_c, 0, 57, 0
2, 2387, Note_on_c, 0, 45, 0
2, 2400, Note_on_c, 0, 52, 80
2, 2400, Note_on_c, 0, 57, 80
2, 2400, Note_on_c, 0, 45, 80
2, 2627, Note_on_c, 0, 52, 0
2, 2627, Note_on_c, 0, 57, 0
2, 2627, Note_on_c, 0, 45, 0
2, 2880, Note_on_c, 0, 44, 80
2, 2880, Note_on_c, 0, 39, 80
2, 3107, Note_on_c, 0, 44, 0
2, 3107, Note_on_c, 0, 39, 0
2, 3120, Note_on_c, 0, 45, 80
2, 3120, Note_on_c, 0, 40, 80
2, 3347, Note_on_c, 0, 45, 0
2, 3347, Note_on_c, 0, 40, 0
2, 3360, Note_on_c, 0, 45, 80
2, 3360, Note_on_c, 0, 40, 80
2, 3587, Note_on_c, 0, 45, 0
2, 3587, Note_on_c, 0, 40, 0
2, 3840, Note_on_c, 0, 51, 80
2, 3840, Note_on_c, 0, 56, 80
2, 3840, Note_on_c, 0, 44, 80
2, 4067, Note_on_c, 0, 51, 0
2, 4067, Note_on_c, 0, 56, 0
2, 4067, Note_on_c, 0, 44, 0
2, 4080, Note_on_c, 0, 52, 80
2, 4080, Note_on_c, 0, 57, 80
2, 4080, Note_on_c, 0, 45, 80
2, 4307, Note_on_c, 0, 52, 0
2, 4307, Note_on_c, 0, 57, 0
2, 4307, Note_on_c, 0, 45, 0
2, 4320, Note_on_c, 0, 52, 80
2, 4320, Note_on_c, 0, 57, 80
2, 4320, Note_on_c, 0, 45, 80
2, 4547, Note_on_c, 0, 52, 0
2, 4547, Note_on_c, 0, 57, 0
2, 4547, Note_on_c, 0, 45, 0
2, 4560, Note_on_c, 0, 52, 80
2, 4560, Note_on_c, 0, 57, 80
2, 4560, Note_on_c, 0, 45, 80
2, 4787, Note_on_c, 0, 52, 0
2, 4787, Note_on_c, 0, 57, 0
2, 4787, Note_on_c, 0, 45, 0
2, 4800, Note_on_c, 0, 52, 80
2, 4800, Note_on_c, 0, 57, 80
2, 4800, Note_on_c, 0, 45, 80
2, 5027, Note_on_c, 0, 52, 0
2, 5027, Note_on_c, 0, 57, 0
2, 5027, Note_on_c, 0, 45, 0
2, 5280, Note_on_c, 0, 51, 80
2, 5280, Note_on_c, 0, 56, 80
2, 5280, Note_on_c, 0, 44, 80
2, 5507, Note_on_c, 0, 51, 0
2, 5507, Note_on_c, 0, 56, 0
2, 5507, Note_on_c, 0, 44, 0
2, 5520, Note_on_c, 0, 52, 80
2, 5520, Note_on_c, 0, 57, 80
2, 5520, Note_on_c, 0, 45, 80
2, 5747, Note_on_c, 0, 52, 0
2, 5747, Note_on_c, 0, 57, 0
2, 5747, Note_on_c, 0, 45, 0
2, 5760, Note_on_c, 0, 52, 80
2, 5760, Note_on_c, 0, 57, 80
2, 5760, Note_on_c, 0, 45, 80
2, 5987, Note_on_c, 0, 52, 0
2, 5987, Note_on_c, 0, 57, 0
2, 5987, Note_on_c, 0, 45, 0
2, 6000, Note_on_c, 0, 52, 80
2, 6000, Note_on_c, 0, 57, 80
2, 6000, Note_on_c, 0, 45, 80
2, 6227, Note_on_c, 0, 52, 0
2, 6227, Note_on_c, 0, 57, 0
2, 6227, Note_on_c, 0, 45, 0
2, 6240, Note_on_c, 0, 52, 80
2, 6240, Note_on_c, 0, 57, 80
2, 6240, Note_on_c, 0, 45, 80
2, 6467, Note_on_c, 0, 52, 0
2, 6467, Note_on_c, 0, 57, 0
2, 6467, Note_on_c, 0, 45, 0
2, 6720, Note_on_c, 0, 45, 80
2, 6947, Note_on_c, 0, 45, 0
2, 6960, Note_on_c, 0, 45, 80
2, 7187, Note_on_c, 0, 45, 0
2, 7200, Note_on_c, 0, 64, 80
2, 7655, Note_on_c, 0, 64, 0
2, 7680, Note_on_c, 0, 33, 80
2, 7680, Note_on_c, 0, 45, 80
2, 7907, Note_on_c, 0, 33, 0
2, 7907, Note_on_c, 0, 45, 0
2, 7920, Note_on_c, 0, 40, 80
2, 8147, Note_on_c, 0, 40, 0
2, 8160, Note_on_c, 0, 45, 80
2, 8387, Note_on_c, 0, 45, 0
2, 8400, Note_on_c, 0, 40, 80
2, 8400, Note_on_c, 0, 52, 80
2, 8627, Note_on_c, 0, 40, 0
2, 8627, Note_on_c, 0, 52, 0
2, 8640, Note_on_c, 0, 47, 80
2, 8867, Note_on_c, 0, 47, 0
2, 8880, Note_on_c, 0, 52, 80
2, 9107, Note_on_c, 0, 52, 0
2, 9120, Note_on_c, 0, 38, 80
2, 9120, Note_on_c, 0, 50, 80
2, 9803, Note_on_c, 0, 38, 0
2, 9803, Note_on_c, 0, 50, 0
2, 9840, Note_on_c, 0, 50, 80
2, 10067, Note_on_c, 0, 50, 0
2, 10080, Note_on_c, 0, 38, 80
2, 10307, Note_on_c, 0, 38, 0
2, 10320, Note_on_c, 0, 50, 80
2, 10547, Note_on_c, 0, 50, 0
2, 10560, Note_on_c, 0, 40, 80
2, 10787, Note_on_c, 0, 40, 0
2, 10800, Note_on_c, 0, 52, 80
2, 11027, Note_on_c, 0, 52, 0
2, 11040, Note_on_c, 0, 40, 80
2, 11267, Note_on_c, 0, 40, 0
2, 11280, Note_on_c, 0, 52, 80
2, 11507, Note_on_c, 0, 52, 0
2, 11520, Note_on_c, 0, 33, 80
2, 11520, Note_on_c, 0, 45, 80
2, 11747, Note_on_c, 0, 33, 0
2, 11747, Note_on_c, 0, 45, 0
2, 11760, Note_on_c, 0, 40, 80
2, 11987, Note_on_c, 0, 40, 0
2, 12000, Note_on_c, 0, 45, 80
2, 12227, Note_on_c, 0, 45, 0
2, 12240, Note_on_c, 0, 40, 80
2, 12240, Note_on_c, 0, 52, 80
2, 12467, Note_on_c, 0, 40, 0
2, 12467, Note_on_c, 0, 52, 0
2, 12480, Note_on_c, 0, 47, 80
2, 12707, Note_on_c, 0, 47, 0
2, 12720, Note_on_c, 0, 52, 80
2, 12947, Note_on_c, 0, 52, 0
2, 12960, Note_on_c, 0, 38, 80
2, 12960, Note_on_c, 0, 50, 80
2, 13643, Note_on_c, 0, 38, 0
2, 13643, Note_on_c, 0, 50, 0
2, 13680, Note_on_c, 0, 50, 80
2, 13907, Note_on_c, 0, 50, 0
2, 13920, Note_on_c, 0, 38, 80
2, 14147, Note_on_c, 0, 38, 0
2, 14160, Note_on_c, 0, 50, 80
2, 14387, Note_on_c, 0, 50, 0
2, 14400, Note_on_c, 0, 40, 80
2, 14627, Note_on_c, 0, 40, 0
2, 14640, Note_on_c, 0, 52, 80
2, 14867, Note_on_c, 0, 52, 0
2, 14880, Note_on_c, 0, 40, 80
2, 15107, Note_on_c, 0, 40, 0
2, 15120, Note_on_c, 0, 52, 80
2, 15347, Note_on_c, 0, 52, 0
2, 15360, Note_on_c, 0, 33, 80
2, 15360, Note_on_c, 0, 45, 80
2, 15587, Note_on_c, 0, 33, 0
2, 15587, Note_on_c, 0, 45, 0
2, 15600, Note_on_c, 0, 40, 80
2, 15827, Note_on_c, 0, 40, 0
2, 15840, Note_on_c, 0, 45, 80
2, 16067, Note_on_c, 0, 45, 0
2, 16080, Note_on_c, 0, 40, 80
2, 16080, Note_on_c, 0, 52, 80
2, 16307, Note_on_c, 0, 40, 0
2, 16307, Note_on_c, 0, 52, 0
2, 16320, Note_on_c, 0, 47, 80
2, 16547, Note_on_c, 0, 47, 0
2, 16560, Note_on_c, 0, 52, 80
2, 16787, Note_on_c, 0, 52, 0
2, 16800, Note_on_c, 0, 38, 80
2, 16800, Note_on_c, 0, 50, 80
2, 17483, Note_on_c, 0, 38, 0
2, 17483, Note_on_c, 0, 50, 0
2, 17520, Note_on_c, 0, 50, 80
2, 17747, Note_on_c, 0, 50, 0
2, 17760, Note_on_c, 0, 38, 80
2, 17987, Note_on_c, 0, 38, 0
2, 18000, Note_on_c, 0, 50, 80
2, 18227, Note_on_c, 0, 50, 0
2, 18240, Note_on_c, 0, 40, 80
2, 18467, Note_on_c, 0, 40, 0
2, 18480, Note_on_c, 0, 52, 80
2, 18707, Note_on_c, 0, 52, 0
2, 18720, Note_on_c, 0, 40, 80
2, 18947, Note_on_c, 0, 40, 0
2, 18960, Note_on_c, 0, 52, 80
2, 19187, Note_on_c, 0, 52, 0
2, 19200, Note_on_c, 0, 33, 80
2, 19200, Note_on_c, 0, 45, 80
2, 19427, Note_on_c, 0, 33, 0
2, 19427, Note_on_c, 0, 45, 0
2, 19440, Note_on_c, 0, 40, 80
2, 19667, Note_on_c, 0, 40, 0
2, 19680, Note_on_c, 0, 45, 80
2, 19907, Note_on_c, 0, 45, 0
2, 19920, Note_on_c, 0, 40, 80
2, 19920, Note_on_c, 0, 52, 80
2, 20147, Note_on_c, 0, 40, 0
2, 20147, Note_on_c, 0, 52, 0
2, 20160, Note_on_c, 0, 47, 80
2, 20387, Note_on_c, 0, 47, 0
2, 20400, Note_on_c, 0, 52, 80
2, 20627, Note_on_c, 0, 52, 0
2, 20640, Note_on_c, 0, 38, 80
2, 20640, Note_on_c, 0, 50, 80
2, 21323, Note_on_c, 0, 38, 0
2, 21323, Note_on_c, 0, 50, 0
2, 21360, Note_on_c, 0, 50, 80
2, 21587, Note_on_c, 0, 50, 0
2, 21600, Note_on_c, 0, 38, 80
2, 21827, Note_on_c, 0, 38, 0
2, 21840, Note_on_c, 0, 50, 80
2, 22067, Note_on_c, 0, 50, 0
2, 22080, Note_on_c, 0, 40, 80
2, 22307, Note_on_c, 0, 40, 0
2, 22320, Note_on_c, 0, 52, 80
2, 22547, Note_on_c, 0, 52, 0
2, 22560, Note_on_c, 0, 40, 80
2, 22787, Note_on_c, 0, 40, 0
2, 22800, Note_on_c, 0, 52, 80
2, 23027, Note_on_c, 0, 52, 0
2, 23040, Note_on_c, 0, 45, 80
2, 23267, Note_on_c, 0, 45, 0
2, 23280, Note_on_c, 0, 52, 80
2, 23507, Note_on_c, 0, 52, 0
2, 23520, Note_on_c, 0, 57, 80
2, 23747, Note_on_c, 0, 57, 0
2, 23760, Note_on_c, 0, 52, 80
2, 23987, Note_on_c, 0, 52, 0
2, 24000, Note_on_c, 0, 45, 80
2, 24227, Note_on_c, 0, 45, 0
2, 24240, Note_on_c, 0, 52, 80
2, 24467, Note_on_c, 0, 52, 0
2, 24480, Note_on_c, 0, 57, 80
2, 24707, Note_on_c, 0, 57, 0
2, 24720, Note_on_c, 0, 52, 80
2, 24947, Note_on_c, 0, 52, 0
2, 24960, Note_on_c, 0, 44, 80
2, 25187, Note_on_c, 0, 44, 0
2, 25200, Note_on_c, 0, 52, 80
2, 25427, Note_on_c, 0, 52, 0
2, 25440, Note_on_c, 0, 56, 80
2, 25667, Note_on_c, 0, 56, 0
2, 25680, Note_on_c, 0, 52, 80
2, 25907, Note_on_c, 0, 52, 0
2, 25920, Note_on_c, 0, 44, 80
2, 26147, Note_on_c, 0, 44, 0
2, 26160, Note_on_c, 0, 52, 80
2, 26387, Note_on_c, 0, 52, 0
2, 26400, Note_on_c, 0, 56, 80
2, 26627, Note_on_c, 0, 56, 0
2, 26640, Note_on_c, 0, 52, 80
2, 26867, Note_on_c, 0, 52, 0
2, 26880, Note_on_c, 0, 42, 80
2, 27107, Note_on_c, 0, 42, 0
2, 27120, Note_on_c, 0, 49, 80
2, 27347, Note_on_c, 0, 49, 0
2, 27360, Note_on_c, 0, 54, 80
2, 27587, Note_on_c, 0, 54, 0
2, 27600, Note_on_c, 0, 49, 80
2, 27827, Note_on_c, 0, 49, 0
2, 27840, Note_on_c, 0, 42, 80
2, 28067, Note_on_c, 0, 42, 0
2, 28080, Note_on_c, 0, 49, 80
2, 28307, Note_on_c, 0, 49, 0
2, 28320, Note_on_c, 0, 54, 80
2, 28547, Note_on_c, 0, 54, 0
2, 28560, Note_on_c, 0, 49, 80
2, 28787, Note_on_c, 0, 49, 0
2, 28800, Note_on_c, 0, 40, 80
2, 29027, Note_on_c, 0, 40, 0
2, 29040, Note_on_c, 0, 49, 80
2, 29267, Note_on_c, 0, 49, 0
2, 29280, Note_on_c, 0, 52, 80
2, 29507, Note_on_c, 0, 52, 0
2, 29520, Note_on_c, 0, 49, 80
2, 29747, Note_on_c, 0, 49, 0
2, 29760, Note_on_c, 0, 40, 80
2, 29987, Note_on_c, 0, 40, 0
2, 30000, Note_on_c, 0, 49, 80
2, 30227, Note_on_c, 0, 49, 0
2, 30240, Note_on_c, 0, 52, 80
2, 30467, Note_on_c, 0, 52, 0
2, 30480, Note_on_c, 0, 49, 80
2, 30707, Note_on_c, 0, 49, 0
2, 30720, Note_on_c, 0, 38, 80
2, 30720, Note_on_c, 0, 50, 80
2, 30959, Note_on_c, 0, 38, 0
2, 30959, Note_on_c, 0, 50, 0
2, 31200, Note_on_c, 0, 38, 80
2, 31200, Note_on_c, 0, 50, 80
2, 31439, Note_on_c, 0, 38, 0
2, 31439, Note_on_c, 0, 50, 0
2, 31680, Note_on_c, 0, 38, 80
2, 31680, Note_on_c, 0, 50, 80
2, 31919, Note_on_c, 0, 38, 0
2, 31919, Note_on_c, 0, 50, 0
2, 32160, Note_on_c, 0, 38, 80
2, 32160, Note_on_c, 0, 50, 80
2, 32399, Note_on_c, 0, 38, 0
2, 32399, Note_on_c, 0, 50, 0
2, 32640, Note_on_c, 0, 37, 80
2, 32640, Note_on_c, 0, 49, 80
2, 32879, Note_on_c, 0, 37, 0
2, 32879, Note_on_c, 0, 49, 0
2, 33120, Note_on_c, 0, 37, 80
2, 33120, Note_on_c, 0, 49, 80
2, 33359, Note_on_c, 0, 37, 0
2, 33359, Note_on_c, 0, 49, 0
2, 33600, Note_on_c, 0, 37, 80
2, 33600, Note_on_c, 0, 49, 80
2, 33839, Note_on_c, 0, 37, 0
2, 33839, Note_on_c, 0, 49, 0
2, 34080, Note_on_c, 0, 37, 80
2, 34080, Note_on_c, 0, 49, 80
2, 34319, Note_on_c, 0, 37, 0
2, 34319, Note_on_c, 0, 49, 0
2, 34560, Note_on_c, 0, 35, 80
2, 34787, Note_on_c, 0, 35, 0
2, 34800, Note_on_c, 0, 47, 80
2, 35027, Note_on_c, 0, 47, 0
2, 35040, Note_on_c, 0, 35, 80
2, 35267, Note_on_c, 0, 35, 0
2, 35280, Note_on_c, 0, 47, 80
2, 35507, Note_on_c, 0, 47, 0
2, 35520, Note_on_c, 0, 35, 80
2, 35747, Note_on_c, 0, 35, 0
2, 35760, Note_on_c, 0, 47, 80
2, 35987, Note_on_c, 0, 47, 0
2, 36000, Note_on_c, 0, 35, 80
2, 36227, Note_on_c, 0, 35, 0
2, 36240, Note_on_c, 0, 47, 80
2, 36467, Note_on_c, 0, 47, 0
2, 36480, Note_on_c, 0, 40, 80
2, 36480, Note_on_c, 0, 52, 80
2, 36707, Note_on_c, 0, 40, 0
2, 36707, Note_on_c, 0, 52, 0
2, 36720, Note_on_c, 0, 40, 80
2, 36720, Note_on_c, 0, 52, 80
2, 36947, Note_on_c, 0, 40, 0
2, 36947, Note_on_c, 0, 52, 0
2, 36960, Note_on_c, 0, 40, 80
2, 36960, Note_on_c, 0, 52, 80
2, 37199, Note_on_c, 0, 40, 0
2, 37199, Note_on_c, 0, 52, 0
2, 37920, Note_on_c, 0, 40, 80
2, 37920, Note_on_c, 0, 52, 80
2, 38375, Note_on_c, 0, 40, 0
2, 38375, Note_on_c, 0, 52, 0
2, 38400, Note_on_c, 0, 45, 80
2, 38627, Note_on_c, 0, 45, 0
2, 38640, Note_on_c, 0, 52, 80
2, 38867, Note_on_c, 0, 52, 0
2, 38880, Note_on_c, 0, 57, 80
2, 39107, Note_on_c, 0, 57, 0
2, 39120, Note_on_c, 0, 52, 80
2, 39347, Note_on_c, 0, 52, 0
2, 39360, Note_on_c, 0, 45, 80
2, 39587, Note_on_c, 0, 45, 0
2, 39600, Note_on_c, 0, 52, 80
2, 39827, Note_on_c, 0, 52, 0
2, 39840, Note_on_c, 0, 57, 80
2, 40067, Note_on_c, 0, 57, 0
2, 40080, Note_on_c, 0, 52, 80
2, 40307, Note_on_c, 0, 52, 0
2, 40320, Note_on_c, 0, 44, 80
2, 40547, Note_on_c, 0, 44, 0
2, 40560, Note_on_c, 0, 52, 80
2, 40787, Note_on_c, 0, 52, 0
2, 40800, Note_on_c, 0, 56, 80
2, 41027, Note_on_c, 0, 56, 0
2, 41040, Note_on_c, 0, 52, 80
2, 41267, Note_on_c, 0, 52, 0
2, 41280, Note_on_c, 0, 44, 80
2, 41507, Note_on_c, 0, 44, 0
2, 41520, Note_on_c, 0, 52, 80
2, 41747, Note_on_c, 0, 52, 0
2, 41760, Note_on_c, 0, 56, 80
2, 41987, Note_on_c, 0, 56, 0
2, 42000, Note_on_c, 0, 52, 80
2, 42227, Note_on_c, 0, 52, 0
2, 42240, Note_on_c, 0, 42, 80
2, 42467, Note_on_c, 0, 42, 0
2, 42480, Note_on_c, 0, 49, 80
2, 42707, Note_on_c, 0, 49, 0
2, 42720, Note_on_c, 0, 54, 80
2, 42947, Note_on_c, 0, 54, 0
2, 42960, Note_on_c, 0, 49, 80
2, 43187, Note_on_c, 0, 49, 0
2, 43200, Note_on_c, 0, 42, 80
2, 43427, Note_on_c, 0, 42, 0
2, 43440, Note_on_c, 0, 49, 80
2, 43667, Note_on_c, 0, 49, 0
2, 43680, Note_on_c, 0, 54, 80
2, 43907, Note_on_c, 0, 54, 0
2, 43920, Note_on_c, 0, 49, 80
2, 44147, Note_on_c, 0, 49, 0
2, 44160, Note_on_c, 0, 40, 80
2, 44387, Note_on_c, 0, 40, 0
2, 44400, Note_on_c, 0, 49, 80
2, 44627, Note_on_c, 0, 49, 0
2, 44640, Note_on_c, 0, 52, 80
2, 44867, Note_on_c, 0, 52, 0
2, 44880, Note_on_c, 0, 49, 80
2, 45107, Note_on_c, 0, 49, 0
2, 45120, Note_on_c, 0, 40, 80
2, 45347, Note_on_c, 0, 40, 0
2, 45360, Note_on_c, 0, 49, 80
2, 45587, Note_on_c, 0, 49, 0
2, 45600, Note_on_c, 0, 52, 80
2, 45827, Note_on_c, 0, 52, 0
2, 45840, Note_on_c, 0, 49, 80
2, 46067, Note_on_c, 0, 49, 0
2, 46080, Note_on_c, 0, 38, 80
2, 46080, Note_on_c, 0, 50, 80
2, 46319, Note_on_c, 0, 38, 0
2, 46319, Note_on_c, 0, 50, 0
2, 46560, Note_on_c, 0, 38, 80
2, 46560, Note_on_c, 0, 50, 80
2, 46799, Note_on_c, 0, 38, 0
2, 46799, Note_on_c, 0, 50, 0
2, 47040, Note_on_c, 0, 38, 80
2, 47040, Note_on_c, 0, 50, 80
2, 47279, Note_on_c, 0, 38, 0
2, 47279, Note_on_c, 0, 50, 0
2, 47520, Note_on_c, 0, 38, 80
2, 47520, Note_on_c, 0, 50, 80
2, 47759, Note_on_c, 0, 38, 0
2, 47759, Note_on_c, 0, 50, 0
2, 48000, Note_on_c, 0, 37, 80
2, 48000, Note_on_c, 0, 49, 80
2, 48239, Note_on_c, 0, 37, 0
2, 48239, Note_on_c, 0, 49, 0
2, 48480, Note_on_c, 0, 37, 80
2, 48480, Note_on_c, 0, 49, 80
2, 48719, Note_on_c, 0, 37, 0
2, 48719, Note_on_c, 0, 49, 0
2, 48960, Note_on_c, 0, 37, 80
2, 48960, Note_on_c, 0, 49, 80
2, 49199, Note_on_c, 0, 37, 0
2, 49199, Note_on_c, 0, 49, 0
2, 49440, Note_on_c, 0, 37, 80
2, 49440, Note_on_c, 0, 49, 80
2, 49679, Note_on_c, 0, 37, 0
2, 49679, Note_on_c, 0, 49, 0
2, 49920, Note_on_c, 0, 35, 80
2, 50147, Note_on_c, 0, 35, 0
2, 50160, Note_on_c, 0, 47, 80
2, 50387, Note_on_c, 0, 47, 0
2, 50400, Note_on_c, 0, 35, 80
2, 50627, Note_on_c, 0, 35, 0
2, 50640, Note_on_c, 0, 47, 80
2, 50867, Note_on_c, 0, 47, 0
2, 50880, Note_on_c, 0, 35, 80
2, 51107, Note_on_c, 0, 35, 0
2, 51120, Note_on_c, 0, 47, 80
2, 51347, Note_on_c, 0, 47, 0
2, 51360, Note_on_c, 0, 35, 80
2, 51587, Note_on_c, 0, 35, 0
2, 51600, Note_on_c, 0, 47, 80
2, 51827, Note_on_c, 0, 47, 0
2, 51840, Note_on_c, 0, 40, 80
2, 52067, Note_on_c, 0, 40, 0
2, 52080, Note_on_c, 0, 52, 80
2, 52307, Note_on_c, 0, 52, 0
2, 52320, Note_on_c, 0, 40, 80
2, 52547, Note_on_c, 0, 40, 0
2, 52560, Note_on_c, 0, 52, 80
2, 52787, Note_on_c, 0, 52, 0
2, 52800, Note_on_c, 0, 40, 80
2, 53027, Note_on_c, 0, 40, 0
2, 53040, Note_on_c, 0, 52, 80
2, 53267, Note_on_c, 0, 52, 0
2, 53280, Note_on_c, 0, 40, 80
2, 53507, Note_on_c, 0, 40, 0
2, 53520, Note_on_c, 0, 52, 80
2, 53747, Note_on_c, 0, 52, 0
2, 53760, Note_on_c, 0, 38, 80
2, 53760, Note_on_c, 0, 50, 80
2, 53999, Note_on_c, 0, 38, 0
2, 53999, Note_on_c, 0, 50, 0
2, 54240, Note_on_c, 0, 38, 80
2, 54240, Note_on_c, 0, 50, 80
2, 54479, Note_on_c, 0, 38, 0
2, 54479, Note_on_c, 0, 50, 0
2, 54720, Note_on_c, 0, 40, 80
2, 54720, Note_on_c, 0, 52, 80
2, 54959, Note_on_c, 0, 40, 0
2, 54959, Note_on_c, 0, 52, 0
2, 55200, Note_on_c, 0, 40, 80
2, 55200, Note_on_c, 0, 52, 80
2, 55439, Note_on_c, 0, 40, 0
2, 55439, Note_on_c, 0, 52, 0
2, 55680, Note_on_c, 0, 37, 80
2, 55680, Note_on_c, 0, 49, 80
2, 55919, Note_on_c, 0, 37, 0
2, 55919, Note_on_c, 0, 49, 0
2, 56160, Note_on_c, 0, 37, 80
2, 56160, Note_on_c, 0, 49, 80
2, 56399, Note_on_c, 0, 37, 0
2, 56399, Note_on_c, 0, 49, 0
2, 56640, Note_on_c, 0, 42, 80
2, 56640, Note_on_c, 0, 54, 80
2, 56879, Note_on_c, 0, 42, 0
2, 56879, Note_on_c, 0, 54, 0
2, 57120, Note_on_c, 0, 42, 80
2, 57120, Note_on_c, 0, 54, 80
2, 57359, Note_on_c, 0, 42, 0
2, 57359, Note_on_c, 0, 54, 0
2, 57600, Note_on_c, 0, 35, 80
2, 57600, Note_on_c, 0, 47, 80
2, 57839, Note_on_c, 0, 35, 0
2, 57839, Note_on_c, 0, 47, 0
2, 58080, Note_on_c, 0, 35, 80
2, 58080, Note_on_c, 0, 47, 80
2, 58319, Note_on_c, 0, 35, 0
2, 58319, Note_on_c, 0, 47, 0
2, 58560, Note_on_c, 0, 40, 80
2, 58560, Note_on_c, 0, 52, 80
2, 58799, Note_on_c, 0, 40, 0
2, 58799, Note_on_c, 0, 52, 0
2, 59040, Note_on_c, 0, 40, 80
2, 59040, Note_on_c, 0, 52, 80
2, 59279, Note_on_c, 0, 40, 0
2, 59279, Note_on_c, 0, 52, 0
2, 59520, Note_on_c, 0, 45, 80
2, 59747, Note_on_c, 0, 45, 0
2, 59760, Note_on_c, 0, 57, 80
2, 59987, Note_on_c, 0, 57, 0
2, 60000, Note_on_c, 0, 47, 80
2, 60227, Note_on_c, 0, 47, 0
2, 60240, Note_on_c, 0, 59, 80
2, 60467, Note_on_c, 0, 59, 0
2, 60480, Note_on_c, 0, 49, 80
2, 60707, Note_on_c, 0, 49, 0
2, 60720, Note_on_c, 0, 61, 80
2, 60947, Note_on_c, 0, 61, 0
2, 60960, Note_on_c, 0, 45, 80
2, 61187, Note_on_c, 0, 45, 0
2, 61200, Note_on_c, 0, 57, 80
2, 61427, Note_on_c, 0, 57, 0
2, 61440, Note_on_c, 0, 38, 80
2, 61440, Note_on_c, 0, 50, 80
2, 61679, Note_on_c, 0, 38, 0
2, 61679, Note_on_c, 0, 50, 0
2, 61920, Note_on_c, 0, 38, 80
2, 61920, Note_on_c, 0, 50, 80
2, 62159, Note_on_c, 0, 38, 0
2, 62159, Note_on_c, 0, 50, 0
2, 62400, Note_on_c, 0, 40, 80
2, 62400, Note_on_c, 0, 52, 80
2, 62639, Note_on_c, 0, 40, 0
2, 62639, Note_on_c, 0, 52, 0
2, 62880, Note_on_c, 0, 40, 80
2, 62880, Note_on_c, 0, 52, 80
2, 63119, Note_on_c, 0, 40, 0
2, 63119, Note_on_c, 0, 52, 0
2, 63360, Note_on_c, 0, 41, 80
2, 63360, Note_on_c, 0, 53, 80
2, 63599, Note_on_c, 0, 41, 0
2, 63599, Note_on_c, 0, 53, 0
2, 63840, Note_on_c, 0, 41, 80
2, 63840, Note_on_c, 0, 53, 80
2, 64079, Note_on_c, 0, 41, 0
2, 64079, Note_on_c, 0, 53, 0
2, 64320, Note_on_c, 0, 42, 80
2, 64320, Note_on_c, 0, 54, 80
2, 64559, Note_on_c, 0, 42, 0
2, 64559, Note_on_c, 0, 54, 0
2, 64800, Note_on_c, 0, 42, 80
2, 64800, Note_on_c, 0, 54, 80
2, 65039, Note_on_c, 0, 42, 0
2, 65039, Note_on_c, 0, 54, 0
2, 65280, Note_on_c, 0, 38, 80
2, 65507, Note_on_c, 0, 38, 0
2, 65520, Note_on_c, 0, 45, 80
2, 65747, Note_on_c, 0, 45, 0
2, 65760, Note_on_c, 0, 50, 80
2, 65987, Note_on_c, 0, 50, 0
2, 66000, Note_on_c, 0, 45, 80
2, 66227, Note_on_c, 0, 45, 0
2, 66240, Note_on_c, 0, 38, 80
2, 66467, Note_on_c, 0, 38, 0
2, 66480, Note_on_c, 0, 45, 80
2, 66707, Note_on_c, 0, 45, 0
2, 66720, Note_on_c, 0, 50, 80
2, 66947, Note_on_c, 0, 50, 0
2, 66960, Note_on_c, 0, 45, 80
2, 67187, Note_on_c, 0, 45, 0
2, 67200, Note_on_c, 0, 35, 80
2, 67427, Note_on_c, 0, 35, 0
2, 67440, Note_on_c, 0, 42, 80
2, 67667, Note_on_c, 0, 42, 0
2, 67680, Note_on_c, 0, 47, 80
2, 67907, Note_on_c, 0, 47, 0
2, 67920, Note_on_c, 0, 42, 80
2, 68147, Note_on_c, 0, 42, 0
2, 68160, Note_on_c, 0, 35, 80
2, 68387, Note_on_c, 0, 35, 0
2, 68400, Note_on_c, 0, 42, 80
2, 68627, Note_on_c, 0, 42, 0
2, 68640, Note_on_c, 0, 47, 80
2, 68867, Note_on_c, 0, 47, 0
2, 68880, Note_on_c, 0, 42, 80
2, 69107, Note_on_c, 0, 42, 0
2, 69120, Note_on_c, 0, 40, 80
2, 69120, Note_on_c, 0, 52, 80
2, 69575, Note_on_c, 0, 40, 0
2, 69575, Note_on_c, 0, 52, 0
2, 69600, Note_on_c, 0, 40, 80
2, 69600, Note_on_c, 0, 52, 80
2, 70055, Note_on_c, 0, 40, 0
2, 70055, Note_on_c, 0, 52, 0
2, 70080, Note_on_c, 0, 40, 80
2, 70080, Note_on_c, 0, 52, 80
2, 70307, Note_on_c, 0, 40, 0
2, 70307, Note_on_c, 0, 52, 0
2, 70320, Note_on_c, 0, 37, 80
2, 70320, Note_on_c, 0, 49, 80
2, 70547, Note_on_c, 0, 37, 0
2, 70547, Note_on_c, 0, 49, 0
2, 70560, Note_on_c, 0, 38, 80
2, 70560, Note_on_c, 0, 50, 80
2, 70787, Note_on_c, 0, 38, 0
2, 70787, Note_on_c, 0, 50, 0
2, 70800, Note_on_c, 0, 40, 80
2, 70800, Note_on_c, 0, 52, 80
2, 71027, Note_on_c, 0, 40, 0
2, 71027, Note_on_c, 0, 52, 0
2, 71040, Note_on_c, 0, 40, 80
2, 71040, Note_on_c, 0, 52, 80
2, 71267, Note_on_c, 0, 40, 0
2, 71267, Note_on_c, 0, 52, 0
2, 71280, Note_on_c, 0, 47, 80
2, 71507, Note_on_c, 0, 47, 0
2, 71520, Note_on_c, 0, 40, 80
2, 71520, Note_on_c, 0, 52, 80
2, 71747, Note_on_c, 0, 40, 0
2, 71747, Note_on_c, 0, 52, 0
2, 71760, Note_on_c, 0, 47, 80
2, 71987, Note_on_c, 0, 47, 0
2, 72000, Note_on_c, 0, 40, 80
2, 72000, Note_on_c, 0, 52, 80
2, 72227, Note_on_c, 0, 40, 0
2, 72227, Note_on_c, 0, 52, 0
2, 72240, Note_on_c, 0, 47, 80
2, 72467, Note_on_c, 0, 47, 0
2, 72480, Note_on_c, 0, 40, 80
2, 72480, Note_on_c, 0, 52, 80
2, 72707, Note_on_c, 0, 40, 0
2, 72707, Note_on_c, 0, 52, 0
2, 72720, Note_on_c, 0, 47, 80
2, 72947, Note_on_c, 0, 47, 0
2, 72960, Note_on_c, 0, 40, 80
2, 72960, Note_on_c, 0, 52, 80
2, 73415, Note_on_c, 0, 40, 0
2, 73415, Note_on_c, 0, 52, 0
2, 73440, Note_on_c, 0, 40, 80
2, 73440, Note_on_c, 0, 52, 80
2, 73895, Note_on_c, 0, 40, 0
2, 73895, Note_on_c, 0, 52, 0
2, 73920, Note_on_c, 0, 40, 80
2, 73920, Note_on_c, 0, 52, 80
2, 74375, Note_on_c, 0, 40, 0
2, 74375, Note_on_c, 0, 52, 0
2, 74400, Note_on_c, 0, 40, 80
2, 74400, Note_on_c, 0, 52, 80
2, 74855, Note_on_c, 0, 40, 0
2, 74855, Note_on_c, 0, 52, 0
2, 74880, Note_on_c, 0, 52, 80
2, 75107, Note_on_c, 0, 52, 0
2, 75120, Note_on_c, 0, 50, 80
2, 75347, Note_on_c, 0, 50, 0
2, 75360, Note_on_c, 0, 49, 80
2, 75587, Note_on_c, 0, 49, 0
2, 75600, Note_on_c, 0, 47, 80
2, 75827, Note_on_c, 0, 47, 0
2, 75840, Note_on_c, 0, 50, 80
2, 76067, Note_on_c, 0, 50, 0
2, 76080, Note_on_c, 0, 49, 80
2, 76307, Note_on_c, 0, 49, 0
2, 76320, Note_on_c, 0, 47, 80
2, 76547, Note_on_c, 0, 47, 0
2, 76560, Note_on_c, 0, 45, 80
2, 76787, Note_on_c, 0, 45, 0
2, 76800, Note_on_c, 0, 33, 80
2, 76800, Note_on_c, 0, 45, 80
2, 77280, Note_on_c, 0, 57, 80
2, 77507, Note_on_c, 0, 57, 0
2, 77520, Note_on_c, 0, 52, 80
2, 77747, Note_on_c, 0, 52, 0
2, 77760, Note_on_c, 0, 45, 80
2, 77987, Note_on_c, 0, 45, 0
2, 78000, Note_on_c, 0, 52, 80
2, 78227, Note_on_c, 0, 52, 0
2, 78240, Note_on_c, 0, 57, 80
2, 78467, Note_on_c, 0, 57, 0
2, 78480, Note_on_c, 0, 52, 80
2, 78707, Note_on_c, 0, 52, 0
2, 78720, Note_on_c, 0, 45, 80
2, 78947, Note_on_c, 0, 45, 0
2, 78960, Note_on_c, 0, 52, 80
2, 79187, Note_on_c, 0, 52, 0
2, 79200, Note_on_c, 0, 57, 80
2, 79427, Note_on_c, 0, 57, 0
2, 79440, Note_on_c, 0, 52, 80
2, 79667, Note_on_c, 0, 52, 0
2, 79680, Note_on_c, 0, 45, 80
2, 79907, Note_on_c, 0, 45, 0
2, 79920, Note_on_c, 0, 52, 80
2, 80147, Note_on_c, 0, 52, 0
2, 80160, Note_on_c, 0, 57, 80
2, 80387, Note_on_c, 0, 57, 0
2, 80400, Note_on_c, 0, 52, 80
2, 80447, Note_on_c, 0, 33, 0
2, 80447, Note_on_c, 0, 45, 0
2, 80627, Note_on_c, 0, 52, 0
2, 80640, Note_on_c, 0, 30, 80
2, 80640, Note_on_c, 0, 42, 80
2, 81120, Note_on_c, 0, 54, 80
2, 81347, Note_on_c, 0, 54, 0
2, 81360, Note_on_c, 0, 49, 80
2, 81587, Note_on_c, 0, 49, 0
2, 81600, Note_on_c, 0, 42, 80
2, 81827, Note_on_c, 0, 42, 0
2, 81840, Note_on_c, 0, 49, 80
2, 82067, Note_on_c, 0, 49, 0
2, 82080, Note_on_c, 0, 54, 80
2, 82307, Note_on_c, 0, 54, 0
2, 82320, Note_on_c, 0, 49, 80
2, 82547, Note_on_c, 0, 49, 0
2, 82560, Note_on_c, 0, 42, 80
2, 82787, Note_on_c, 0, 42, 0
2, 82800, Note_on_c, 0, 49, 80
2, 83027, Note_on_c, 0, 49, 0
2, 83040, Note_on_c, 0, 54, 80
2, 83267, Note_on_c, 0, 54, 0
2, 83280, Note_on_c, 0, 49, 80
2, 83507, Note_on_c, 0, 49, 0
2, 83520, Note_on_c, 0, 42, 80
2, 83747, Note_on_c, 0, 42, 0
2, 83760, Note_on_c, 0, 49, 80
2, 83987, Note_on_c, 0, 49, 0
2, 84000, Note_on_c, 0, 54, 80
2, 84227, Note_on_c, 0, 54, 0
2, 84240, Note_on_c, 0, 49, 80
2, 84287, Note_on_c, 0, 30, 0
2, 84287, Note_on_c, 0, 42, 0
2, 84467, Note_on_c, 0, 49, 0
2, 84480, Note_on_c, 0, 37, 80
2, 84480, Note_on_c, 0, 49, 80
2, 84935, Note_on_c, 0, 37, 0
2, 84935, Note_on_c, 0, 49, 0
2, 84960, Note_on_c, 0, 56, 80
2, 84960, Note_on_c, 0, 61, 80
2, 85415, Note_on_c, 0, 56, 0
2, 85415, Note_on_c, 0, 61, 0
2, 85440, Note_on_c, 0, 37, 80
2, 85440, Note_on_c, 0, 49, 80
2, 85895, Note_on_c, 0, 37, 0
2, 85895, Note_on_c, 0, 49, 0
2, 85920, Note_on_c, 0, 56, 80
2, 85920, Note_on_c, 0, 61, 80
2, 86375, Note_on_c, 0, 56, 0
2, 86375, Note_on_c, 0, 61, 0
2, 86400, Note_on_c, 0, 37, 80
2, 86400, Note_on_c, 0, 49, 80
2, 86855, Note_on_c, 0, 37, 0
2, 86855, Note_on_c, 0, 49, 0
2, 86880, Note_on_c, 0, 56, 80
2, 86880, Note_on_c, 0, 61, 80
2, 87335, Note_on_c, 0, 56, 0
2, 87335, Note_on_c, 0, 61, 0
2, 87360, Note_on_c, 0, 37, 80
2, 87360, Note_on_c, 0, 49, 80
2, 87815, Note_on_c, 0, 37, 0
2, 87815, Note_on_c, 0, 49, 0
2, 87840, Note_on_c, 0, 56, 80
2, 87840, Note_on_c, 0, 61, 80
2, 88295, Note_on_c, 0, 56, 0
2, 88295, Note_on_c, 0, 61, 0
2, 88320, Note_on_c, 0, 38, 80
2, 88320, Note_on_c, 0, 50, 80
2, 88775, Note_on_c, 0, 38, 0
2, 88775, Note_on_c, 0, 50, 0
2, 88800, Note_on_c, 0, 38, 80
2, 88800, Note_on_c, 0, 50, 80
2, 89255, Note_on_c, 0, 38, 0
2, 89255, Note_on_c, 0, 50, 0
2, 89280, Note_on_c, 0, 38, 80
2, 89280, Note_on_c, 0, 50, 80
2, 89507, Note_on_c, 0, 38, 0
2, 89507, Note_on_c, 0, 50, 0
2, 89520, Note_on_c, 0, 35, 80
2, 89520, Note_on_c, 0, 47, 80
2, 89747, Note_on_c, 0, 35, 0
2, 89747, Note_on_c, 0, 47, 0
2, 89760, Note_on_c, 0, 37, 80
2, 89760, Note_on_c, 0, 49, 80
2, 89987, Note_on_c, 0, 37, 0
2, 89987, Note_on_c, 0, 49, 0
2, 90000, Note_on_c, 0, 38, 80
2, 90000, Note_on_c, 0, 50, 80
2, 90227, Note_on_c, 0, 38, 0
2, 90227, Note_on_c, 0, 50, 0
2, 90240, Note_on_c, 0, 40, 80
2, 90240, Note_on_c, 0, 52, 80
2, 90467, Note_on_c, 0, 40, 0
2, 90467, Note_on_c, 0, 52, 0
2, 90480, Note_on_c, 0, 47, 80
2, 90707, Note_on_c, 0, 47, 0
2, 90720, Note_on_c, 0, 40, 80
2, 90720, Note_on_c, 0, 52, 80
2, 90947, Note_on_c, 0, 40, 0
2, 90947, Note_on_c, 0, 52, 0
2, 90960, Note_on_c, 0, 47, 80
2, 91187, Note_on_c, 0, 47, 0
2, 91200, Note_on_c, 0, 40, 80
2, 91200, Note_on_c, 0, 52, 80
2, 91427, Note_on_c, 0, 40, 0
2, 91427, Note_on_c, 0, 52, 0
2, 91440, Note_on_c, 0, 47, 80
2, 91667, Note_on_c, 0, 47, 0
2, 91680, Note_on_c, 0, 40, 80
2, 91680, Note_on_c, 0, 52, 80
2, 91907, Note_on_c, 0, 40, 0
2, 91907, Note_on_c, 0, 52, 0
2, 91920, Note_on_c, 0, 47, 80
2, 92147, Note_on_c, 0, 47, 0
2, 92160, Note_on_c, 0, 33, 80
2, 92160, Note_on_c, 0, 45, 80
2, 92640, Note_on_c, 0, 57, 80
2, 92867, Note_on_c, 0, 57, 0
2, 92880, Note_on_c, 0, 52, 80
2, 93107, Note_on_c, 0, 52, 0
2, 93120, Note_on_c, 0, 45, 80
2, 93347, Note_on_c, 0, 45, 0
2, 93360, Note_on_c, 0, 52, 80
2, 93587, Note_on_c, 0, 52, 0
2, 93600, Note_on_c, 0, 57, 80
2, 93827, Note_on_c, 0, 57, 0
2, 93840, Note_on_c, 0, 52, 80
2, 94067, Note_on_c, 0, 52, 0
2, 94080, Note_on_c, 0, 45, 80
2, 94307, Note_on_c, 0, 45, 0
2, 94320, Note_on_c, 0, 52, 80
2, 94547, Note_on_c, 0, 52, 0
2, 94560, Note_on_c, 0, 57, 80
2, 94787, Note_on_c, 0, 57, 0
2, 94800, Note_on_c, 0, 52, 80
2, 95027, Note_on_c, 0, 52, 0
2, 95040, Note_on_c, 0, 45, 80
2, 95267, Note_on_c, 0, 45, 0
2, 95280, Note_on_c, 0, 52, 80
2, 95507, Note_on_c, 0, 52, 0
2, 95520, Note_on_c, 0, 57, 80
2, 95747, Note_on_c, 0, 57, 0
2, 95760, Note_on_c, 0, 52, 80
2, 95807, Note_on_c, 0, 33, 0
2, 95807, Note_on_c, 0, 45, 0
2, 95987, Note_on_c, 0, 52, 0
2, 96000, Note_on_c, 0, 30, 80
2, 96000, Note_on_c, 0, 42, 80
2, 96480, Note_on_c, 0, 54, 80
2, 96707, Note_on_c, 0, 54, 0
2, 96720, Note_on_c, 0, 49, 80
2, 96947, Note_on_c, 0, 49, 0
2, 96960, Note_on_c, 0, 42, 80
2, 97187, Note_on_c, 0, 42, 0
2, 97200, Note_on_c, 0, 49, 80
2, 97427, Note_on_c, 0, 49, 0
2, 97440, Note_on_c, 0, 54, 80
2, 97667, Note_on_c, 0, 54, 0
2, 97680, Note_on_c, 0, 49, 80
2, 97907, Note_on_c, 0, 49, 0
2, 97920, Note_on_c, 0, 42, 80
2, 98147, Note_on_c, 0, 42, 0
2, 98160, Note_on_c, 0, 49, 80
2, 98387, Note_on_c, 0, 49, 0
2, 98400, Note_on_c, 0, 54, 80
2, 98627, Note_on_c, 0, 54, 0
2, 98640, Note_on_c, 0, 49, 80
2, 98867, Note_on_c, 0, 49, 0
2, 98880, Note_on_c, 0, 42, 80
2, 99107, Note_on_c, 0, 42, 0
2, 99120, Note_on_c, 0, 49, 80
2, 99347, Note_on_c, 0, 49, 0
2, 99360, Note_on_c, 0, 54, 80
2, 99587, Note_on_c, 0, 54, 0
2, 99600, Note_on_c, 0, 49, 80
2, 99647, Note_on_c, 0, 30, 0
2, 99647, Note_on_c, 0, 42, 0
2, 99827, Note_on_c, 0, 49, 0
2, 99840, Note_on_c, 0, 37, 80
2, 99840, Note_on_c, 0, 49, 80
2, 100295, Note_on_c, 0, 37, 0
2, 100295, Note_on_c, 0, 49, 0
2, 100320, Note_on_c, 0, 56, 80
2, 100320, Note_on_c, 0, 61, 80
2, 100775, Note_on_c, 0, 56, 0
2, 100775, Note_on_c, 0, 61, 0
2, 100800, Note_on_c, 0, 37, 80
2, 100800, Note_on_c, 0, 49, 80
2, 101255, Note_on_c, 0, 37, 0
2, 101255, Note_on_c, 0, 49, 0
2, 101280, Note_on_c, 0, 56, 80
2, 101280, Note_on_c, 0, 61, 80
2, 101735, Note_on_c, 0, 56, 0
2, 101735, Note_on_c, 0, 61, 0
2, 101760, Note_on_c, 0, 37, 80
2, 101760, Note_on_c, 0, 49, 80
2, 102215, Note_on_c, 0, 37, 0
2, 102215, Note_on_c, 0, 49, 0
2, 102240, Note_on_c, 0, 56, 80
2, 102240, Note_on_c, 0, 61, 80
2, 102695, Note_on_c, 0, 56, 0
2, 102695, Note_on_c, 0, 61, 0
2, 102720, Note_on_c, 0, 37, 80
2, 102720, Note_on_c, 0, 49, 80
2, 103175, Note_on_c, 0, 37, 0
2, 103175, Note_on_c, 0, 49, 0
2, 103200, Note_on_c, 0, 56, 80
2, 103200, Note_on_c, 0, 61, 80
2, 103655, Note_on_c, 0, 56, 0
2, 103655, Note_on_c, 0, 61, 0
2, 103680, Note_on_c, 0, 38, 80
2, 103680, Note_on_c, 0, 50, 80
2, 104135, Note_on_c, 0, 38, 0
2, 104135, Note_on_c, 0, 50, 0
2, 104160, Note_on_c, 0, 38, 80
2, 104160, Note_on_c, 0, 50, 80
2, 104615, Note_on_c, 0, 38, 0
2, 104615, Note_on_c, 0, 50, 0
2, 104640, Note_on_c, 0, 38, 80
2, 104640, Note_on_c, 0, 50, 80
2, 104867, Note_on_c, 0, 38, 0
2, 104867, Note_on_c, 0, 50, 0
2, 104880, Note_on_c, 0, 35, 80
2, 104880, Note_on_c, 0, 47, 80
2, 105107, Note_on_c, 0, 35, 0
2, 105107, Note_on_c, 0, 47, 0
2, 105120, Note_on_c, 0, 37, 80
2, 105120, Note_on_c, 0, 49, 80
2, 105347, Note_on_c, 0, 37, 0
2, 105347, Note_on_c, 0, 49, 0
2, 105360, Note_on_c, 0, 38, 80
2, 105360, Note_on_c, 0, 50, 80
2, 105587, Note_on_c, 0, 38, 0
2, 105587, Note_on_c, 0, 50, 0
2, 105600, Note_on_c, 0, 40, 80
2, 105600, Note_on_c, 0, 52, 80
2, 105827, Note_on_c, 0, 40, 0
2, 105827, Note_on_c, 0, 52, 0
2, 105840, Note_on_c, 0, 40, 80
2, 105840, Note_on_c, 0, 52, 80
2, 106067, Note_on_c, 0, 40, 0
2, 106067, Note_on_c, 0, 52, 0
2, 106320, Note_on_c, 0, 40, 80
2, 106320, Note_on_c, 0, 52, 80
2, 106775, Note_on_c, 0, 40, 0
2, 106775, Note_on_c, 0, 52, 0
2, 106800, Note_on_c, 0, 40, 80
2, 107027, Note_on_c, 0, 40, 0
2, 107040, Note_on_c, 0, 52, 80
2, 107495, Note_on_c, 0, 52, 0
2, 107520, Note_on_c, 0, 38, 80
2, 107520, Note_on_c, 0, 50, 80
2, 107759, Note_on_c, 0, 38, 0
2, 107759, Note_on_c, 0, 50, 0
2, 108000, Note_on_c, 0, 38, 80
2, 108000, Note_on_c, 0, 50, 80
2, 108239, Note_on_c, 0, 38, 0
2, 108239, Note_on_c, 0, 50, 0
2, 108480, Note_on_c, 0, 40, 80
2, 108480, Note_on_c, 0, 52, 80
2, 108719, Note_on_c, 0, 40, 0
2, 108719, Note_on_c, 0, 52, 0
2, 108960, Note_on_c, 0, 40, 80
2, 108960, Note_on_c, 0, 52, 80
2, 109199, Note_on_c, 0, 40, 0
2, 109199, Note_on_c, 0, 52, 0
2, 109440, Note_on_c, 0, 37, 80
2, 109440, Note_on_c, 0, 49, 80
2, 109679, Note_on_c, 0, 37, 0
2, 109679, Note_on_c, 0, 49, 0
2, 109920, Note_on_c, 0, 37, 80
2, 109920, Note_on_c, 0, 49, 80
2, 110159, Note_on_c, 0, 37, 0
2, 110159, Note_on_c, 0, 49, 0
2, 110400, Note_on_c, 0, 42, 80
2, 110400, Note_on_c, 0, 54, 80
2, 110639, Note_on_c, 0, 42, 0
2, 110639, Note_on_c, 0, 54, 0
2, 110880, Note_on_c, 0, 42, 80
2, 110880, Note_on_c, 0, 54, 80
2, 111119, Note_on_c, 0, 42, 0
2, 111119, Note_on_c, 0, 54, 0
2, 111360, Note_on_c, 0, 38, 80
2, 111360, Note_on_c, 0, 50, 80
2, 111599, Note_on_c, 0, 38, 0
2, 111599, Note_on_c, 0, 50, 0
2, 111840, Note_on_c, 0, 38, 80
2, 111840, Note_on_c, 0, 50, 80
2, 112079, Note_on_c, 0, 38, 0
2, 112079, Note_on_c, 0, 50, 0
2, 112320, Note_on_c, 0, 40, 80
2, 112320, Note_on_c, 0, 52, 80
2, 112559, Note_on_c, 0, 40, 0
2, 112559, Note_on_c, 0, 52, 0
2, 112800, Note_on_c, 0, 40, 80
2, 112800, Note_on_c, 0, 52, 80
2, 113039, Note_on_c, 0, 40, 0
2, 113039, Note_on_c, 0, 52, 0
2, 113280, Note_on_c, 0, 45, 80
2, 113507, Note_on_c, 0, 45, 0
2, 113520, Note_on_c, 0, 57, 80
2, 113747, Note_on_c, 0, 57, 0
2, 113760, Note_on_c, 0, 47, 80
2, 113987, Note_on_c, 0, 47, 0
2, 114000, Note_on_c, 0, 59, 80
2, 114227, Note_on_c, 0, 59, 0
2, 114240, Note_on_c, 0, 49, 80
2, 114467, Note_on_c, 0, 49, 0
2, 114480, Note_on_c, 0, 61, 80
2, 114707, Note_on_c, 0, 61, 0
2, 114720, Note_on_c, 0, 45, 80
2, 114947, Note_on_c, 0, 45, 0
2, 114960, Note_on_c, 0, 57, 80
2, 115187, Note_on_c, 0, 57, 0
2, 115200, Note_on_c, 0, 38, 80
2, 115200, Note_on_c, 0, 50, 80
2, 115439, Note_on_c, 0, 38, 0
2, 115439, Note_on_c, 0, 50, 0
2, 115680, Note_on_c, 0, 38, 80
2, 115680, Note_on_c, 0, 50, 80
2, 115919, Note_on_c, 0, 38, 0
2, 115919, Note_on_c, 0, 50, 0
2, 116160, Note_on_c, 0, 40, 80
2, 116160, Note_on_c, 0, 52, 80
2, 116399, Note_on_c, 0, 40, 0
2, 116399, Note_on_c, 0, 52, 0
2, 116640, Note_on_c, 0, 40, 80
2, 116640, Note_on_c, 0, 52, 80
2, 116879, Note_on_c, 0, 40, 0
2, 116879, Note_on_c, 0, 52, 0
2, 117120, Note_on_c, 0, 37, 80
2, 117120, Note_on_c, 0, 49, 80
2, 117359, Note_on_c, 0, 37, 0
2, 117359, Note_on_c, 0, 49, 0
2, 117600, Note_on_c, 0, 37, 80
2, 117600, Note_on_c, 0, 49, 80
2, 117839, Note_on_c, 0, 37, 0
2, 117839, Note_on_c, 0, 49, 0
2, 118080, Note_on_c, 0, 42, 80
2, 118080, Note_on_c, 0, 54, 80
2, 118319, Note_on_c, 0, 42, 0
2, 118319, Note_on_c, 0, 54, 0
2, 118560, Note_on_c, 0, 42, 80
2, 118560, Note_on_c, 0, 54, 80
2, 118799, Note_on_c, 0, 42, 0
2, 118799, Note_on_c, 0, 54, 0
2, 119040, Note_on_c, 0, 35, 80
2, 119040, Note_on_c, 0, 47, 80
2, 119159, Note_on_c, 0, 35, 0
2, 119159, Note_on_c, 0, 47, 0
2, 119280, Note_on_c, 0, 35, 80
2, 119280, Note_on_c, 0, 47, 80
2, 119519, Note_on_c, 0, 35, 0
2, 119519, Note_on_c, 0, 47, 0
2, 120000, Note_on_c, 0, 40, 80
2, 120000, Note_on_c, 0, 52, 80
2, 120359, Note_on_c, 0, 40, 0
2, 120359, Note_on_c, 0, 52, 0
2, 120720, Note_on_c, 0, 40, 80
2, 120720, Note_on_c, 0, 52, 80
2, 121175, Note_on_c, 0, 40, 0
2, 121175, Note_on_c, 0, 52, 0
2, 121200, Note_on_c, 0, 50, 80
2, 121427, Note_on_c, 0, 50, 0
2, 121440, Note_on_c, 0, 49, 80
2, 121667, Note_on_c, 0, 49, 0
2, 121680, Note_on_c, 0, 47, 80
2, 121907, Note_on_c, 0, 47, 0
2, 121920, Note_on_c, 0, 45, 80
2, 122400, Note_on_c, 0, 33, 80
2, 122831, Note_on_c, 0, 45, 0
2, 122855, Note_on_c, 0, 33, 0
2, 122880, Note_on_c, 0, 33, 80
2, 122880, Note_on_c, 0, 45, 80
2, 123107, Note_on_c, 0, 33, 0
2, 123107, Note_on_c, 0, 45, 0
2, 123120, Note_on_c, 0, 40, 80
2, 123347, Note_on_c, 0, 40, 0
2, 123360, Note_on_c, 0, 45, 80
2, 123587, Note_on_c, 0, 45, 0
2, 123600, Note_on_c, 0, 40, 80
2, 123600, Note_on_c, 0, 52, 80
2, 123827, Note_on_c, 0, 40, 0
2, 123827, Note_on_c, 0, 52, 0
2, 123840, Note_on_c, 0, 47, 80
2, 124067, Note_on_c, 0, 47, 0
2, 124080, Note_on_c, 0, 52, 80
2, 124307, Note_on_c, 0, 52, 0
2, 124320, Note_on_c, 0, 38, 80
2, 124320, Note_on_c, 0, 50, 80
2, 125003, Note_on_c, 0, 38, 0
2, 125003, Note_on_c, 0, 50, 0
2, 125040, Note_on_c, 0, 50, 80
2, 125267, Note_on_c, 0, 50, 0
2, 125280, Note_on_c, 0, 38, 80
2, 125507, Note_on_c, 0, 38, 0
2, 125520, Note_on_c, 0, 50, 80
2, 125747, Note_on_c, 0, 50, 0
2, 125760, Note_on_c, 0, 40, 80
2, 125987, Note_on_c, 0, 40, 0
2, 126000, Note_on_c, 0, 52, 80
2, 126227, Note_on_c, 0, 52, 0
2, 126240, Note_on_c, 0, 40, 80
2, 126467, Note_on_c, 0, 40, 0
2, 126480, Note_on_c, 0, 52, 80
2, 126707, Note_on_c, 0, 52, 0
2, 126720, Note_on_c, 0, 33, 80
2, 126720, Note_on_c, 0, 45, 80
2, 126947, Note_on_c, 0, 33, 0
2, 126947, Note_on_c, 0, 45, 0
2, 126960, Note_on_c, 0, 40, 80
2, 127187, Note_on_c, 0, 40, 0
2, 127200, Note_on_c, 0, 45, 80
2, 127427, Note_on_c, 0, 45, 0
2, 127440, Note_on_c, 0, 40, 80
2, 127440, Note_on_c, 0, 52, 80
2, 127667, Note_on_c, 0, 40, 0
2, 127667, Note_on_c, 0, 52, 0
2, 127680, Note_on_c, 0, 47, 80
2, 127907, Note_on_c, 0, 47, 0
2, 127920, Note_on_c, 0, 52, 80
2, 128147, Note_on_c, 0, 52, 0
2, 128160, Note_on_c, 0, 38, 80
2, 128160, Note_on_c, 0, 50, 80
2, 128843, Note_on_c, 0, 38, 0
2, 128843, Note_on_c, 0, 50, 0
2, 128880, Note_on_c, 0, 50, 80
2, 129107, Note_on_c, 0, 50, 0
2, 129120, Note_on_c, 0, 38, 80
2, 129347, Note_on_c, 0, 38, 0
2, 129360, Note_on_c, 0, 50, 80
2, 129587, Note_on_c, 0, 50, 0
2, 129600, Note_on_c, 0, 40, 80
2, 129827, Note_on_c, 0, 40, 0
2, 129840, Note_on_c, 0, 52, 80
2, 130067, Note_on_c, 0, 52, 0
2, 130080, Note_on_c, 0, 40, 80
2, 130307, Note_on_c, 0, 40, 0
2, 130320, Note_on_c, 0, 52, 80
2, 130547, Note_on_c, 0, 52, 0
2, 130560, Note_on_c, 0, 33, 80
2, 130560, Note_on_c, 0, 45, 80
2, 130787, Note_on_c, 0, 33, 0
2, 130787, Note_on_c, 0, 45, 0
2, 130800, Note_on_c, 0, 40, 80
2, 131027, Note_on_c, 0, 40, 0
2, 131040, Note_on_c, 0, 45, 80
2, 131267, Note_on_c, 0, 45, 0
2, 131280, Note_on_c, 0, 40, 80
2, 131280, Note_on_c, 0, 52, 80
2, 131507, Note_on_c, 0, 40, 0
2, 131507, Note_on_c, 0, 52, 0
2, 131520, Note_on_c, 0, 47, 80
2, 131747, Note_on_c, 0, 47, 0
2, 131760, Note_on_c, 0, 52, 80
2, 131987, Note_on_c, 0, 52, 0
2, 132000, Note_on_c, 0, 38, 80
2, 132000, Note_on_c, 0, 50, 80
2, 132683, Note_on_c, 0, 38, 0
2, 132683, Note_on_c, 0, 50, 0
2, 132720, Note_on_c, 0, 50, 80
2, 132947, Note_on_c, 0, 50, 0
2, 132960, Note_on_c, 0, 38, 80
2, 133187, Note_on_c, 0, 38, 0
2, 133200, Note_on_c, 0, 50, 80
2, 133427, Note_on_c, 0, 50, 0
2, 133440, Note_on_c, 0, 40, 80
2, 133667, Note_on_c, 0, 40, 0
2, 133680, Note_on_c, 0, 52, 80
2, 133907, Note_on_c, 0, 52, 0
2, 133920, Note_on_c, 0, 40, 80
2, 134147, Note_on_c, 0, 40, 0
2, 134160, Note_on_c, 0, 52, 80
2, 134387, Note_on_c, 0, 52, 0
2, 134400, Note_on_c, 0, 33, 80
2, 134400, Note_on_c, 0, 45, 80
2, 134627, Note_on_c, 0, 33, 0
2, 134627, Note_on_c, 0, 45, 0
2, 134640, Note_on_c, 0, 40, 80
2, 134867, Note_on_c, 0, 40, 0
2, 134880, Note_on_c, 0, 45, 80
2, 135107, Note_on_c, 0, 45, 0
2, 135120, Note_on_c, 0, 40, 80
2, 135120, Note_on_c, 0, 52, 80
2, 135347, Note_on_c, 0, 40, 0
2, 135347, Note_on_c, 0, 52, 0
2, 135360, Note_on_c, 0, 47, 80
2, 135587, Note_on_c, 0, 47, 0
2, 135600, Note_on_c, 0, 52, 80
2, 135827, Note_on_c, 0, 52, 0
2, 135840, Note_on_c, 0, 38, 80
2, 135840, Note_on_c, 0, 50, 80
2, 138119, Note_on_c, 0, 38, 0
2, 138119, Note_on_c, 0, 50, 0
2, 138240, Note_on_c, 0, 45, 80
2, 138695, Note_on_c, 0, 45, 0
2, 138720, Note_on_c, 0, 52, 80
2, 139631, Note_on_c, 0, 52, 0
2, 139680, Note_on_c, 0, 57, 80
2, 140135, Note_on_c, 0, 57, 0
2, 140160, Note_on_c, 0, 44, 80
2, 140615, Note_on_c, 0, 44, 0
2, 140640, Note_on_c, 0, 52, 80
2, 141095, Note_on_c, 0, 52, 0
2, 141120, Note_on_c, 0, 56, 80
2, 141575, Note_on_c, 0, 56, 0
2, 141600, Note_on_c, 0, 52, 80
2, 142055, Note_on_c, 0, 52, 0
2, 142080, Note_on_c, 0, 42, 80
2, 142535, Note_on_c, 0, 42, 0
2, 142560, Note_on_c, 0, 49, 80
2, 143471, Note_on_c, 0, 49, 0
2, 143520, Note_on_c, 0, 54, 80
2, 143975, Note_on_c, 0, 54, 0
2, 144000, Note_on_c, 0, 40, 80
2, 144455, Note_on_c, 0, 40, 0
2, 144480, Note_on_c, 0, 49, 80
2, 144935, Note_on_c, 0, 49, 0
2, 144960, Note_on_c, 0, 52, 80
2, 145415, Note_on_c, 0, 52, 0
2, 145440, Note_on_c, 0, 49, 80
2, 145895, Note_on_c, 0, 49, 0
2, 145920, Note_on_c, 0, 38, 80
2, 145920, Note_on_c, 0, 50, 80
2, 146159, Note_on_c, 0, 38, 0
2, 146159, Note_on_c, 0, 50, 0
2, 146400, Note_on_c, 0, 38, 80
2, 146400, Note_on_c, 0, 50, 80
2, 146639, Note_on_c, 0, 38, 0
2, 146639, Note_on_c, 0, 50, 0
2, 146880, Note_on_c, 0, 38, 80
2, 146880, Note_on_c, 0, 50, 80
2, 147119, Note_on_c, 0, 38, 0
2, 147119, Note_on_c, 0, 50, 0
2, 147360, Note_on_c, 0, 38, 80
2, 147360, Note_on_c, 0, 50, 80
2, 147599, Note_on_c, 0, 38, 0
2, 147599, Note_on_c, 0, 50, 0
2, 147840, Note_on_c, 0, 37, 80
2, 147840, Note_on_c, 0, 49, 80
2, 148079, Note_on_c, 0, 37, 0
2, 148079, Note_on_c, 0, 49, 0
2, 148320, Note_on_c, 0, 37, 80
2, 148320, Note_on_c, 0, 49, 80
2, 148559, Note_on_c, 0, 37, 0
2, 148559, Note_on_c, 0, 49, 0
2, 148800, Note_on_c, 0, 37, 80
2, 148800, Note_on_c, 0, 49, 80
2, 149039, Note_on_c, 0, 37, 0
2, 149039, Note_on_c, 0, 49, 0
2, 149280, Note_on_c, 0, 37, 80
2, 149280, Note_on_c, 0, 49, 80
2, 149519, Note_on_c, 0, 37, 0
2, 149519, Note_on_c, 0, 49, 0
2, 149760, Note_on_c, 0, 35, 80
2, 149760, Note_on_c, 0, 47, 80
2, 149999, Note_on_c, 0, 35, 0
2, 149999, Note_on_c, 0, 47, 0
2, 150240, Note_on_c, 0, 35, 80
2, 150240, Note_on_c, 0, 47, 80
2, 150479, Note_on_c, 0, 35, 0
2, 150479, Note_on_c, 0, 47, 0
2, 150720, Note_on_c, 0, 35, 80
2, 150720, Note_on_c, 0, 47, 80
2, 150959, Note_on_c, 0, 35, 0
2, 150959, Note_on_c, 0, 47, 0
2, 151200, Note_on_c, 0, 35, 80
2, 151200, Note_on_c, 0, 47, 80
2, 151439, Note_on_c, 0, 35, 0
2, 151439, Note_on_c, 0, 47, 0
2, 151680, Note_on_c, 0, 40, 80
2, 151680, Note_on_c, 0, 52, 80
2, 151907, Note_on_c, 0, 40, 0
2, 151907, Note_on_c, 0, 52, 0
2, 151920, Note_on_c, 0, 40, 80
2, 151920, Note_on_c, 0, 52, 80
2, 152147, Note_on_c, 0, 40, 0
2, 152147, Note_on_c, 0, 52, 0
2, 152160, Note_on_c, 0, 40, 80
2, 152160, Note_on_c, 0, 52, 80
2, 152399, Note_on_c, 0, 40, 0
2, 152399, Note_on_c, 0, 52, 0
2, 153120, Note_on_c, 0, 40, 80
2, 153120, Note_on_c, 0, 52, 80
2, 153575, Note_on_c, 0, 40, 0
2, 153575, Note_on_c, 0, 52, 0
2, 153600, Note_on_c, 0, 45, 80
2, 153827, Note_on_c, 0, 45, 0
2, 153840, Note_on_c, 0, 52, 80
2, 154067, Note_on_c, 0, 52, 0
2, 154080, Note_on_c, 0, 57, 80
2, 154307, Note_on_c, 0, 57, 0
2, 154320, Note_on_c, 0, 52, 80
2, 154547, Note_on_c, 0, 52, 0
2, 154560, Note_on_c, 0, 45, 80
2, 154787, Note_on_c, 0, 45, 0
2, 154800, Note_on_c, 0, 52, 80
2, 155027, Note_on_c, 0, 52, 0
2, 155040, Note_on_c, 0, 57, 80
2, 155267, Note_on_c, 0, 57, 0
2, 155280, Note_on_c, 0, 52, 80
2, 155507, Note_on_c, 0, 52, 0
2, 155520, Note_on_c, 0, 44, 80
2, 155747, Note_on_c, 0, 44, 0
2, 155760, Note_on_c, 0, 52, 80
2, 155987, Note_on_c, 0, 52, 0
2, 156000, Note_on_c, 0, 56, 80
2, 156227, Note_on_c, 0, 56, 0
2, 156240, Note_on_c, 0, 52, 80
2, 156467, Note_on_c, 0, 52, 0
2, 156480, Note_on_c, 0, 44, 80
2, 156707, Note_on_c, 0, 44, 0
2, 156720, Note_on_c, 0, 52, 80
2, 156947, Note_on_c, 0, 52, 0
2, 156960, Note_on_c, 0, 56, 80
2, 157187, Note_on_c, 0, 56, 0
2, 157200, Note_on_c, 0, 52, 80
2, 157427, Note_on_c, 0, 52, 0
2, 157440, Note_on_c, 0, 42, 80
2, 157667, Note_on_c, 0, 42, 0
2, 157680, Note_on_c, 0, 49, 80
2, 157907, Note_on_c, 0, 49, 0
2, 157920, Note_on_c, 0, 54, 80
2, 158147, Note_on_c, 0, 54, 0
2, 158160, Note_on_c, 0, 49, 80
2, 158387, Note_on_c, 0, 49, 0
2, 158400, Note_on_c, 0, 42, 80
2, 158627, Note_on_c, 0, 42, 0
2, 158640, Note_on_c, 0, 49, 80
2, 158867, Note_on_c, 0, 49, 0
2, 158880, Note_on_c, 0, 54, 80
2, 159107, Note_on_c, 0, 54, 0
2, 159120, Note_on_c, 0, 49, 80
2, 159347, Note_on_c, 0, 49, 0
2, 159360, Note_on_c, 0, 40, 80
2, 159587, Note_on_c, 0, 40, 0
2, 159600, Note_on_c, 0, 49, 80
2, 159827, Note_on_c, 0, 49, 0
2, 159840, Note_on_c, 0, 52, 80
2, 160067, Note_on_c, 0, 52, 0
2, 160080, Note_on_c, 0, 49, 80
2, 160307, Note_on_c, 0, 49, 0
2, 160320, Note_on_c, 0, 40, 80
2, 160547, Note_on_c, 0, 40, 0
2, 160560, Note_on_c, 0, 49, 80
2, 160787, Note_on_c, 0, 49, 0
2, 160800, Note_on_c, 0, 52, 80
2, 161027, Note_on_c, 0, 52, 0
2, 161040, Note_on_c, 0, 49, 80
2, 161267, Note_on_c, 0, 49, 0
2, 161280, Note_on_c, 0, 38, 80
2, 161280, Note_on_c, 0, 50, 80
2, 161519, Note_on_c, 0, 38, 0
2, 161519, Note_on_c, 0, 50, 0
2, 161760, Note_on_c, 0, 38, 80
2, 161760, Note_on_c, 0, 50, 80
2, 161999, Note_on_c, 0, 38, 0
2, 161999, Note_on_c, 0, 50, 0
2, 162240, Note_on_c, 0, 38, 80
2, 162240, Note_on_c, 0, 50, 80
2, 162479, Note_on_c, 0, 38, 0
2, 162479, Note_on_c, 0, 50, 0
2, 162720, Note_on_c, 0, 38, 80
2, 162720, Note_on_c, 0, 50, 80
2, 162959, Note_on_c, 0, 38, 0
2, 162959, Note_on_c, 0, 50, 0
2, 163200, Note_on_c, 0, 37, 80
2, 163200, Note_on_c, 0, 49, 80
2, 163439, Note_on_c, 0, 37, 0
2, 163439, Note_on_c, 0, 49, 0
2, 163680, Note_on_c, 0, 37, 80
2, 163680, Note_on_c, 0, 49, 80
2, 163919, Note_on_c, 0, 37, 0
2, 163919, Note_on_c, 0, 49, 0
2, 164160, Note_on_c, 0, 37, 80
2, 164160, Note_on_c, 0, 49, 80
2, 164399, Note_on_c, 0, 37, 0
2, 164399, Note_on_c, 0, 49, 0
2, 164640, Note_on_c, 0, 37, 80
2, 164640, Note_on_c, 0, 49, 80
2, 164879, Note_on_c, 0, 37, 0
2, 164879, Note_on_c, 0, 49, 0
2, 165120, Note_on_c, 0, 35, 80
2, 165347, Note_on_c, 0, 35, 0
2, 165360, Note_on_c, 0, 47, 80
2, 165587, Note_on_c, 0, 47, 0
2, 165600, Note_on_c, 0, 35, 80
2, 165827, Note_on_c, 0, 35, 0
2, 165840, Note_on_c, 0, 47, 80
2, 166067, Note_on_c, 0, 47, 0
2, 166080, Note_on_c, 0, 35, 80
2, 166307, Note_on_c, 0, 35, 0
2, 166320, Note_on_c, 0, 47, 80
2, 166547, Note_on_c, 0, 47, 0
2, 166560, Note_on_c, 0, 35, 80
2, 166787, Note_on_c, 0, 35, 0
2, 166800, Note_on_c, 0, 47, 80
2, 167027, Note_on_c, 0, 47, 0
2, 167040, Note_on_c, 0, 40, 80
2, 167267, Note_on_c, 0, 40, 0
2, 167280, Note_on_c, 0, 52, 80
2, 167507, Note_on_c, 0, 52, 0
2, 167520, Note_on_c, 0, 40, 80
2, 167747, Note_on_c, 0, 40, 0
2, 167760, Note_on_c, 0, 52, 80
2, 167987, Note_on_c, 0, 52, 0
2, 168000, Note_on_c, 0, 40, 80
2, 168227, Note_on_c, 0, 40, 0
2, 168240, Note_on_c, 0, 52, 80
2, 168467, Note_on_c, 0, 52, 0
2, 168480, Note_on_c, 0, 40, 80
2, 168707, Note_on_c, 0, 40, 0
2, 168720, Note_on_c, 0, 52, 80
2, 168947, Note_on_c, 0, 52, 0
2, 168960, Note_on_c, 0, 38, 80
2, 168960, Note_on_c, 0, 50, 80
2, 169199, Note_on_c, 0, 38, 0
2, 169199, Note_on_c, 0, 50, 0
2, 169440, Note_on_c, 0, 38, 80
2, 169440, Note_on_c, 0, 50, 80
2, 169679, Note_on_c, 0, 38, 0
2, 169679, Note_on_c, 0, 50, 0
2, 169920, Note_on_c, 0, 40, 80
2, 169920, Note_on_c, 0, 52, 80
2, 170159, Note_on_c, 0, 40, 0
2, 170159, Note_on_c, 0, 52, 0
2, 170400, Note_on_c, 0, 40, 80
2, 170400, Note_on_c, 0, 52, 80
2, 170639, Note_on_c, 0, 40, 0
2, 170639, Note_on_c, 0, 52, 0
2, 170880, Note_on_c, 0, 37, 80
2, 170880, Note_on_c, 0, 49, 80
2, 171119, Note_on_c, 0, 37, 0
2, 171119, Note_on_c, 0, 49, 0
2, 171360, Note_on_c, 0, 37, 80
2, 171360, Note_on_c, 0, 49, 80
2, 171599, Note_on_c, 0, 37, 0
2, 171599, Note_on_c, 0, 49, 0
2, 171840, Note_on_c, 0, 42, 80
2, 171840, Note_on_c, 0, 54, 80
2, 172079, Note_on_c, 0, 42, 0
2, 172079, Note_on_c, 0, 54, 0
2, 172320, Note_on_c, 0, 42, 80
2, 172320, Note_on_c, 0, 54, 80
2, 172559, Note_on_c, 0, 42, 0
2, 172559, Note_on_c, 0, 54, 0
2, 172800, Note_on_c, 0, 35, 80
2, 172800, Note_on_c, 0, 47, 80
2, 173039, Note_on_c, 0, 35, 0
2, 173039, Note_on_c, 0, 47, 0
2, 173280, Note_on_c, 0, 35, 80
2, 173280, Note_on_c, 0, 47, 80
2, 173519, Note_on_c, 0, 35, 0
2, 173519, Note_on_c, 0, 47, 0
2, 173760, Note_on_c, 0, 40, 80
2, 173760, Note_on_c, 0, 52, 80
2, 173999, Note_on_c, 0, 40, 0
2, 173999, Note_on_c, 0, 52, 0
2, 174240, Note_on_c, 0, 40, 80
2, 174240, Note_on_c, 0, 52, 80
2, 174479, Note_on_c, 0, 40, 0
2, 174479, Note_on_c, 0, 52, 0
2, 174720, Note_on_c, 0, 45, 80
2, 174947, Note_on_c, 0, 45, 0
2, 174960, Note_on_c, 0, 57, 80
2, 175187, Note_on_c, 0, 57, 0
2, 175200, Note_on_c, 0, 47, 80
2, 175427, Note_on_c, 0, 47, 0
2, 175440, Note_on_c, 0, 59, 80
2, 175667, Note_on_c, 0, 59, 0
2, 175680, Note_on_c, 0, 49, 80
2, 175907, Note_on_c, 0, 49, 0
2, 175920, Note_on_c, 0, 61, 80
2, 176147, Note_on_c, 0, 61, 0
2, 176160, Note_on_c, 0, 45, 80
2, 176387, Note_on_c, 0, 45, 0
2, 176400, Note_on_c, 0, 57, 80
2, 176627, Note_on_c, 0, 57, 0
2, 176640, Note_on_c, 0, 38, 80
2, 176640, Note_on_c, 0, 50, 80
2, 176879, Note_on_c, 0, 38, 0
2, 176879, Note_on_c, 0, 50, 0
2, 177120, Note_on_c, 0, 38, 80
2, 177120, Note_on_c, 0, 50, 80
2, 177359, Note_on_c, 0, 38, 0
2, 177359, Note_on_c, 0, 50, 0
2, 177600, Note_on_c, 0, 40, 80
2, 177600, Note_on_c, 0, 52, 80
2, 177839, Note_on_c, 0, 40, 0
2, 177839, Note_on_c, 0, 52, 0
2, 178080, Note_on_c, 0, 40, 80
2, 178080, Note_on_c, 0, 52, 80
2, 178319, Note_on_c, 0, 40, 0
2, 178319, Note_on_c, 0, 52, 0
2, 178560, Note_on_c, 0, 41, 80
2, 178560, Note_on_c, 0, 53, 80
2, 178799, Note_on_c, 0, 41, 0
2, 178799, Note_on_c, 0, 53, 0
2, 179040, Note_on_c, 0, 41, 80
2, 179040, Note_on_c, 0, 53, 80
2, 179279, Note_on_c, 0, 41, 0
2, 179279, Note_on_c, 0, 53, 0
2, 179520, Note_on_c, 0, 42, 80
2, 179520, Note_on_c, 0, 54, 80
2, 179759, Note_on_c, 0, 42, 0
2, 179759, Note_on_c, 0, 54, 0
2, 180000, Note_on_c, 0, 42, 80
2, 180000, Note_on_c, 0, 54, 80
2, 180239, Note_on_c, 0, 42, 0
2, 180239, Note_on_c, 0, 54, 0
2, 180480, Note_on_c, 0, 38, 80
2, 180707, Note_on_c, 0, 38, 0
2, 180720, Note_on_c, 0, 45, 80
2, 180947, Note_on_c, 0, 45, 0
2, 180960, Note_on_c, 0, 50, 80
2, 181187, Note_on_c, 0, 50, 0
2, 181200, Note_on_c, 0, 45, 80
2, 181427, Note_on_c, 0, 45, 0
2, 181440, Note_on_c, 0, 38, 80
2, 181667, Note_on_c, 0, 38, 0
2, 181680, Note_on_c, 0, 45, 80
2, 181907, Note_on_c, 0, 45, 0
2, 181920, Note_on_c, 0, 50, 80
2, 182147, Note_on_c, 0, 50, 0
2, 182160, Note_on_c, 0, 45, 80
2, 182387, Note_on_c, 0, 45, 0
2, 182400, Note_on_c, 0, 35, 80
2, 182627, Note_on_c, 0, 35, 0
2, 182640, Note_on_c, 0, 42, 80
2, 182867, Note_on_c, 0, 42, 0
2, 182880, Note_on_c, 0, 47, 80
2, 183107, Note_on_c, 0, 47, 0
2, 183120, Note_on_c, 0, 42, 80
2, 183347, Note_on_c, 0, 42, 0
2, 183360, Note_on_c, 0, 35, 80
2, 183587, Note_on_c, 0, 35, 0
2, 183600, Note_on_c, 0, 42, 80
2, 183827, Note_on_c, 0, 42, 0
2, 183840, Note_on_c, 0, 47, 80
2, 184067, Note_on_c, 0, 47, 0
2, 184080, Note_on_c, 0, 42, 80
2, 184307, Note_on_c, 0, 42, 0
2, 184320, Note_on_c, 0, 40, 80
2, 184320, Note_on_c, 0, 52, 80
2, 184775, Note_on_c, 0, 40, 0
2, 184775, Note_on_c, 0, 52, 0
2, 184800, Note_on_c, 0, 40, 80
2, 184800, Note_on_c, 0, 52, 80
2, 185255, Note_on_c, 0, 40, 0
2, 185255, Note_on_c, 0, 52, 0
2, 185280, Note_on_c, 0, 40, 80
2, 185280, Note_on_c, 0, 52, 80
2, 185507, Note_on_c, 0, 40, 0
2, 185507, Note_on_c, 0, 52, 0
2, 185520, Note_on_c, 0, 37, 80
2, 185520, Note_on_c, 0, 49, 80
2, 185747, Note_on_c, 0, 37, 0
2, 185747, Note_on_c, 0, 49, 0
2, 185760, Note_on_c, 0, 38, 80
2, 185760, Note_on_c, 0, 50, 80
2, 185987, Note_on_c, 0, 38, 0
2, 185987, Note_on_c, 0, 50, 0
2, 186000, Note_on_c, 0, 40, 80
2, 186000, Note_on_c, 0, 52, 80
2, 186227, Note_on_c, 0, 40, 0
2, 186227, Note_on_c, 0, 52, 0
2, 186240, Note_on_c, 0, 40, 80
2, 186240, Note_on_c, 0, 52, 80
2, 186467, Note_on_c, 0, 40, 0
2, 186467, Note_on_c, 0, 52, 0
2, 186480, Note_on_c, 0, 47, 80
2, 186707, Note_on_c, 0, 47, 0
2, 186720, Note_on_c, 0, 40, 80
2, 186720, Note_on_c, 0, 52, 80
2, 186947, Note_on_c, 0, 40, 0
2, 186947, Note_on_c, 0, 52, 0
2, 186960, Note_on_c, 0, 47, 80
2, 187187, Note_on_c, 0, 47, 0
2, 187200, Note_on_c, 0, 40, 80
2, 187200, Note_on_c, 0, 52, 80
2, 187427, Note_on_c, 0, 40, 0
2, 187427, Note_on_c, 0, 52, 0
2, 187440, Note_on_c, 0, 47, 80
2, 187667, Note_on_c, 0, 47, 0
2, 187680, Note_on_c, 0, 40, 80
2, 187680, Note_on_c, 0, 52, 80
2, 187907, Note_on_c, 0, 40, 0
2, 187907, Note_on_c, 0, 52, 0
2, 187920, Note_on_c, 0, 47, 80
2, 188147, Note_on_c, 0, 47, 0
2, 188160, Note_on_c, 0, 40, 80
2, 188160, Note_on_c, 0, 52, 80
2, 188615, Note_on_c, 0, 40, 0
2, 188615, Note_on_c, 0, 52, 0
2, 188640, Note_on_c, 0, 40, 80
2, 188640, Note_on_c, 0, 52, 80
2, 189095, Note_on_c, 0, 40, 0
2, 189095, Note_on_c, 0, 52, 0
2, 189120, Note_on_c, 0, 40, 80
2, 189120, Note_on_c, 0, 52, 80
2, 189575, Note_on_c, 0, 40, 0
2, 189575, Note_on_c, 0, 52, 0
2, 189600, Note_on_c, 0, 40, 80
2, 189600, Note_on_c, 0, 52, 80
2, 190055, Note_on_c, 0, 40, 0
2, 190055, Note_on_c, 0, 52, 0
2, 190080, Note_on_c, 0, 52, 80
2, 190307, Note_on_c, 0, 52, 0
2, 190320, Note_on_c, 0, 50, 80
2, 190547, Note_on_c, 0, 50, 0
2, 190560, Note_on_c, 0, 49, 80
2, 190787, Note_on_c, 0, 49, 0
2, 190800, Note_on_c, 0, 47, 80
2, 191027, Note_on_c, 0, 47, 0
2, 191040, Note_on_c, 0, 50, 80
2, 191267, Note_on_c, 0, 50, 0
2, 191280, Note_on_c, 0, 49, 80
2, 191507, Note_on_c, 0, 49, 0
2, 191520, Note_on_c, 0, 47, 80
2, 191747, Note_on_c, 0, 47, 0
2, 191760, Note_on_c, 0, 45, 80
2, 191987, Note_on_c, 0, 45, 0
2, 192000, Note_on_c, 0, 33, 80
2, 192000, Note_on_c, 0, 45, 80
2, 192480, Note_on_c, 0, 57, 80
2, 192707, Note_on_c, 0, 57, 0
2, 192720, Note_on_c, 0, 52, 80
2, 192947, Note_on_c, 0, 52, 0
2, 192960, Note_on_c, 0, 45, 80
2, 193187, Note_on_c, 0, 45, 0
2, 193200, Note_on_c, 0, 52, 80
2, 193427, Note_on_c, 0, 52, 0
2, 193440, Note_on_c, 0, 57, 80
2, 193667, Note_on_c, 0, 57, 0
2, 193680, Note_on_c, 0, 52, 80
2, 193907, Note_on_c, 0, 52, 0
2, 193920, Note_on_c, 0, 45, 80
2, 194147, Note_on_c, 0, 45, 0
2, 194160, Note_on_c, 0, 52, 80
2, 194387, Note_on_c, 0, 52, 0
2, 194400, Note_on_c, 0, 57, 80
2, 194627, Note_on_c, 0, 57, 0
2, 194640, Note_on_c, 0, 52, 80
2, 194867, Note_on_c, 0, 52, 0
2, 194880, Note_on_c, 0, 45, 80
2, 195107, Note_on_c, 0, 45, 0
2, 195120, Note_on_c, 0, 52, 80
2, 195347, Note_on_c, 0, 52, 0
2, 195360, Note_on_c, 0, 57, 80
2, 195587, Note_on_c, 0, 57, 0
2, 195600, Note_on_c, 0, 52, 80
2, 195647, Note_on_c, 0, 33, 0
2, 195647, Note_on_c, 0, 45, 0
2, 195827, Note_on_c, 0, 52, 0
2, 195840, Note_on_c, 0, 30, 80
2, 195840, Note_on_c, 0, 42, 80
2, 196320, Note_on_c, 0, 54, 80
2, 196547, Note_on_c, 0, 54, 0
2, 196560, Note_on_c, 0, 49, 80
2, 196787, Note_on_c, 0, 49, 0
2, 196800, Note_on_c, 0, 42, 80
2, 197027, Note_on_c, 0, 42, 0
2, 197040, Note_on_c, 0, 49, 80
2, 197267, Note_on_c, 0, 49, 0
2, 197280, Note_on_c, 0, 54, 80
2, 197507, Note_on_c, 0, 54, 0
2, 197520, Note_on_c, 0, 49, 80
2, 197747, Note_on_c, 0, 49, 0
2, 197760, Note_on_c, 0, 42, 80
2, 197987, Note_on_c, 0, 42, 0
2, 198000, Note_on_c, 0, 49, 80
2, 198227, Note_on_c, 0, 49, 0
2, 198240, Note_on_c, 0, 54, 80
2, 198467, Note_on_c, 0, 54, 0
2, 198480, Note_on_c, 0, 49, 80
2, 198707, Note_on_c, 0, 49, 0
2, 198720, Note_on_c, 0, 42, 80
2, 198947, Note_on_c, 0, 42, 0
2, 198960, Note_on_c, 0, 49, 80
2, 199187, Note_on_c, 0, 49, 0
2, 199200, Note_on_c, 0, 54, 80
2, 199427, Note_on_c, 0, 54, 0
2, 199440, Note_on_c, 0, 49, 80
2, 199487, Note_on_c, 0, 30, 0
2, 199487, Note_on_c, 0, 42, 0
2, 199667, Note_on_c, 0, 49, 0
2, 199680, Note_on_c, 0, 37, 80
2, 199680, Note_on_c, 0, 49, 80
2, 200135, Note_on_c, 0, 37, 0
2, 200135, Note_on_c, 0, 49, 0
2, 200160, Note_on_c, 0, 56, 80
2, 200160, Note_on_c, 0, 61, 80
2, 200615, Note_on_c, 0, 56, 0
2, 200615, Note_on_c, 0, 61, 0
2, 200640, Note_on_c, 0, 37, 80
2, 200640, Note_on_c, 0, 49, 80
2, 201095, Note_on_c, 0, 37, 0
2, 201095, Note_on_c, 0, 49, 0
2, 201120, Note_on_c, 0, 56, 80
2, 201120, Note_on_c, 0, 61, 80
2, 201575, Note_on_c, 0, 56, 0
2, 201575, Note_on_c, 0, 61, 0
2, 201600, Note_on_c, 0, 37, 80
2, 201600, Note_on_c, 0, 49, 80
2, 202055, Note_on_c, 0, 37, 0
2, 202055, Note_on_c, 0, 49, 0
2, 202080, Note_on_c, 0, 56, 80
2, 202080, Note_on_c, 0, 61, 80
2, 202535, Note_on_c, 0, 56, 0
2, 202535, Note_on_c, 0, 61, 0
2, 202560, Note_on_c, 0, 37, 80
2, 202560, Note_on_c, 0, 49, 80
2, 203015, Note_on_c, 0, 37, 0
2, 203015, Note_on_c, 0, 49, 0
2, 203040, Note_on_c, 0, 56, 80
2, 203040, Note_on_c, 0, 61, 80
2, 203495, Note_on_c, 0, 56, 0
2, 203495, Note_on_c, 0, 61, 0
2, 203520, Note_on_c, 0, 38, 80
2, 203520, Note_on_c, 0, 50, 80
2, 203975, Note_on_c, 0, 38, 0
2, 203975, Note_on_c, 0, 50, 0
2, 204000, Note_on_c, 0, 38, 80
2, 204000, Note_on_c, 0, 50, 80
2, 204455, Note_on_c, 0, 38, 0
2, 204455, Note_on_c, 0, 50, 0
2, 204480, Note_on_c, 0, 38, 80
2, 204480, Note_on_c, 0, 50, 80
2, 204707, Note_on_c, 0, 38, 0
2, 204707, Note_on_c, 0, 50, 0
2, 204720, Note_on_c, 0, 35, 80
2, 204720, Note_on_c, 0, 47, 80
2, 204947, Note_on_c, 0, 35, 0
2, 204947, Note_on_c, 0, 47, 0
2, 204960, Note_on_c, 0, 37, 80
2, 204960, Note_on_c, 0, 49, 80
2, 205187, Note_on_c, 0, 37, 0
2, 205187, Note_on_c, 0, 49, 0
2, 205200, Note_on_c, 0, 38, 80
2, 205200, Note_on_c, 0, 50, 80
2, 205427, Note_on_c, 0, 38, 0
2, 205427, Note_on_c, 0, 50, 0
2, 205440, Note_on_c, 0, 40, 80
2, 205440, Note_on_c, 0, 52, 80
2, 205667, Note_on_c, 0, 40, 0
2, 205667, Note_on_c, 0, 52, 0
2, 205680, Note_on_c, 0, 47, 80
2, 205907, Note_on_c, 0, 47, 0
2, 205920, Note_on_c, 0, 40, 80
2, 205920, Note_on_c, 0, 52, 80
2, 206147, Note_on_c, 0, 40, 0
2, 206147, Note_on_c, 0, 52, 0
2, 206160, Note_on_c, 0, 47, 80
2, 206387, Note_on_c, 0, 47, 0
2, 206400, Note_on_c, 0, 40, 80
2, 206400, Note_on_c, 0, 52, 80
2, 206627, Note_on_c, 0, 40, 0
2, 206627, Note_on_c, 0, 52, 0
2, 206640, Note_on_c, 0, 47, 80
2, 206867, Note_on_c, 0, 47, 0
2, 206880, Note_on_c, 0, 40, 80
2, 206880, Note_on_c, 0, 52, 80
2, 207107, Note_on_c, 0, 40, 0
2, 207107, Note_on_c, 0, 52, 0
2, 207120, Note_on_c, 0, 47, 80
2, 207347, Note_on_c, 0, 47, 0
2, 207360, Note_on_c, 0, 33, 80
2, 207360, Note_on_c, 0, 45, 80
2, 207840, Note_on_c, 0, 57, 80
2, 208067, Note_on_c, 0, 57, 0
2, 208080, Note_on_c, 0, 52, 80
2, 208307, Note_on_c, 0, 52, 0
2, 208320, Note_on_c, 0, 45, 80
2, 208547, Note_on_c, 0, 45, 0
2, 208560, Note_on_c, 0, 52, 80
2, 208787, Note_on_c, 0, 52, 0
2, 208800, Note_on_c, 0, 57, 80
2, 209027, Note_on_c, 0, 57, 0
2, 209040, Note_on_c, 0, 52, 80
2, 209267, Note_on_c, 0, 52, 0
2, 209280, Note_on_c, 0, 45, 80
2, 209507, Note_on_c, 0, 45, 0
2, 209520, Note_on_c, 0, 52, 80
2, 209747, Note_on_c, 0, 52, 0
2, 209760, Note_on_c, 0, 57, 80
2, 209987, Note_on_c, 0, 57, 0
2, 210000, Note_on_c, 0, 52, 80
2, 210227, Note_on_c, 0, 52, 0
2, 210240, Note_on_c, 0, 45, 80
2, 210467, Note_on_c, 0, 45, 0
2, 210480, Note_on_c, 0, 52, 80
2, 210707, Note_on_c, 0, 52, 0
2, 210720, Note_on_c, 0, 57, 80
2, 210947, Note_on_c, 0, 57, 0
2, 210960, Note_on_c, 0, 52, 80
2, 211007, Note_on_c, 0, 33, 0
2, 211007, Note_on_c, 0, 45, 0
2, 211187, Note_on_c, 0, 52, 0
2, 211200, Note_on_c, 0, 30, 80
2, 211200, Note_on_c, 0, 42, 80
2, 211680, Note_on_c, 0, 54, 80
2, 211907, Note_on_c, 0, 54, 0
2, 211920, Note_on_c, 0, 49, 80
2, 212147, Note_on_c, 0, 49, 0
2, 212160, Note_on_c, 0, 42, 80
2, 212387, Note_on_c, 0, 42, 0
2, 212400, Note_on_c, 0, 49, 80
2, 212627, Note_on_c, 0, 49, 0
2, 212640, Note_on_c, 0, 54, 80
2, 212867, Note_on_c, 0, 54, 0
2, 212880, Note_on_c, 0, 49, 80
2, 213107, Note_on_c, 0, 49, 0
2, 213120, Note_on_c, 0, 42, 80
2, 213347, Note_on_c, 0, 42, 0
2, 213360, Note_on_c, 0, 49, 80
2, 213587, Note_on_c, 0, 49, 0
2, 213600, Note_on_c, 0, 54, 80
2, 213827, Note_on_c, 0, 54, 0
2, 213840, Note_on_c, 0, 49, 80
2, 214067, Note_on_c, 0, 49, 0
2, 214080, Note_on_c, 0, 42, 80
2, 214307, Note_on_c, 0, 42, 0
2, 214320, Note_on_c, 0, 49, 80
2, 214547, Note_on_c, 0, 49, 0
2, 214560, Note_on_c, 0, 54, 80
2, 214787, Note_on_c, 0, 54, 0
2, 214800, Note_on_c, 0, 49, 80
2, 214847, Note_on_c, 0, 30, 0
2, 214847, Note_on_c, 0, 42, 0
2, 215027, Note_on_c, 0, 49, 0
2, 215040, Note_on_c, 0, 37, 80
2, 215040, Note_on_c, 0, 49, 80
2, 215495, Note_on_c, 0, 37, 0
2, 215495, Note_on_c, 0, 49, 0
2, 215520, Note_on_c, 0, 56, 80
2, 215520, Note_on_c, 0, 61, 80
2, 215975, Note_on_c, 0, 56, 0
2, 215975, Note_on_c, 0, 61, 0
2, 216000, Note_on_c, 0, 37, 80
2, 216000, Note_on_c, 0, 49, 80
2, 216455, Note_on_c, 0, 37, 0
2, 216455, Note_on_c, 0, 49, 0
2, 216480, Note_on_c, 0, 56, 80
2, 216480, Note_on_c, 0, 61, 80
2, 216935, Note_on_c, 0, 56, 0
2, 216935, Note_on_c, 0, 61, 0
2, 216960, Note_on_c, 0, 37, 80
2, 216960, Note_on_c, 0, 49, 80
2, 217415, Note_on_c, 0, 37, 0
2, 217415, Note_on_c, 0, 49, 0
2, 217440, Note_on_c, 0, 56, 80
2, 217440, Note_on_c, 0, 61, 80
2, 217895, Note_on_c, 0, 56, 0
2, 217895, Note_on_c, 0, 61, 0
2, 217920, Note_on_c, 0, 37, 80
2, 217920, Note_on_c, 0, 49, 80
2, 218375, Note_on_c, 0, 37, 0
2, 218375, Note_on_c, 0, 49, 0
2, 218400, Note_on_c, 0, 56, 80
2, 218400, Note_on_c, 0, 61, 80
2, 218855, Note_on_c, 0, 56, 0
2, 218855, Note_on_c, 0, 61, 0
2, 218880, Note_on_c, 0, 38, 80
2, 218880, Note_on_c, 0, 50, 80
2, 219335, Note_on_c, 0, 38, 0
2, 219335, Note_on_c, 0, 50, 0
2, 219360, Note_on_c, 0, 38, 80
2, 219360, Note_on_c, 0, 50, 80
2, 219815, Note_on_c, 0, 38, 0
2, 219815, Note_on_c, 0, 50, 0
2, 219840, Note_on_c, 0, 38, 80
2, 219840, Note_on_c, 0, 50, 80
2, 220067, Note_on_c, 0, 38, 0
2, 220067, Note_on_c, 0, 50, 0
2, 220080, Note_on_c, 0, 35, 80
2, 220080, Note_on_c, 0, 47, 80
2, 220307, Note_on_c, 0, 35, 0
2, 220307, Note_on_c, 0, 47, 0
2, 220320, Note_on_c, 0, 37, 80
2, 220320, Note_on_c, 0, 49, 80
2, 220547, Note_on_c, 0, 37, 0
2, 220547, Note_on_c, 0, 49, 0
2, 220560, Note_on_c, 0, 38, 80
2, 220560, Note_on_c, 0, 50, 80
2, 220787, Note_on_c, 0, 38, 0
2, 220787, Note_on_c, 0, 50, 0
2, 220800, Note_on_c, 0, 40, 80
2, 220800, Note_on_c, 0, 52, 80
2, 221027, Note_on_c, 0, 40, 0
2, 221027, Note_on_c, 0, 52, 0
2, 221040, Note_on_c, 0, 40, 80
2, 221040, Note_on_c, 0, 52, 80
2, 221267, Note_on_c, 0, 40, 0
2, 221267, Note_on_c, 0, 52, 0
2, 221520, Note_on_c, 0, 40, 80
2, 221520, Note_on_c, 0, 52, 80
2, 221975, Note_on_c, 0, 40, 0
2, 221975, Note_on_c, 0, 52, 0
2, 222000, Note_on_c, 0, 40, 80
2, 222227, Note_on_c, 0, 40, 0
2, 222240, Note_on_c, 0, 52, 80
2, 222695, Note_on_c, 0, 52, 0
2, 222720, Note_on_c, 0, 38, 80
2, 222720, Note_on_c, 0, 50, 80
2, 222959, Note_on_c, 0, 38, 0
2, 222959, Note_on_c, 0, 50, 0
2, 223200, Note_on_c, 0, 38, 80
2, 223200, Note_on_c, 0, 50, 80
2, 223439, Note_on_c, 0, 38, 0
2, 223439, Note_on_c, 0, 50, 0
2, 223680, Note_on_c, 0, 40, 80
2, 223680, Note_on_c, 0, 52, 80
2, 223919, Note_on_c, 0, 40, 0
2, 223919, Note_on_c, 0, 52, 0
2, 224160, Note_on_c, 0, 40, 80
2, 224160, Note_on_c, 0, 52, 80
2, 224399, Note_on_c, 0, 40, 0
2, 224399, Note_on_c, 0, 52, 0
2, 224640, Note_on_c, 0, 37, 80
2, 224640, Note_on_c, 0, 49, 80
2, 224879, Note_on_c, 0, 37, 0
2, 224879, Note_on_c, 0, 49, 0
2, 225120, Note_on_c, 0, 37, 80
2, 225120, Note_on_c, 0, 49, 80
2, 225359, Note_on_c, 0, 37, 0
2, 225359, Note_on_c, 0, 49, 0
2, 225600, Note_on_c, 0, 42, 80
2, 225600, Note_on_c, 0, 54, 80
2, 225839, Note_on_c, 0, 42, 0
2, 225839, Note_on_c, 0, 54, 0
2, 226080, Note_on_c, 0, 42, 80
2, 226080, Note_on_c, 0, 54, 80
2, 226319, Note_on_c, 0, 42, 0
2, 226319, Note_on_c, 0, 54, 0
2, 226560, Note_on_c, 0, 38, 80
2, 226560, Note_on_c, 0, 50, 80
2, 226799, Note_on_c, 0, 38, 0
2, 226799, Note_on_c, 0, 50, 0
2, 227040, Note_on_c, 0, 38, 80
2, 227040, Note_on_c, 0, 50, 80
2, 227279, Note_on_c, 0, 38, 0
2, 227279, Note_on_c, 0, 50, 0
2, 227520, Note_on_c, 0, 40, 80
2, 227520, Note_on_c, 0, 52, 80
2, 227759, Note_on_c, 0, 40, 0
2, 227759, Note_on_c, 0, 52, 0
2, 228000, Note_on_c, 0, 40, 80
2, 228000, Note_on_c, 0, 52, 80
2, 228239, Note_on_c, 0, 40, 0
2, 228239, Note_on_c, 0, 52, 0
2, 228480, Note_on_c, 0, 45, 80
2, 228707, Note_on_c, 0, 45, 0
2, 228720, Note_on_c, 0, 57, 80
2, 228947, Note_on_c, 0, 57, 0
2, 228960, Note_on_c, 0, 47, 80
2, 229187, Note_on_c, 0, 47, 0
2, 229200, Note_on_c, 0, 59, 80
2, 229427, Note_on_c, 0, 59, 0
2, 229440, Note_on_c, 0, 49, 80
2, 229667, Note_on_c, 0, 49, 0
2, 229680, Note_on_c, 0, 61, 80
2, 229907, Note_on_c, 0, 61, 0
2, 229920, Note_on_c, 0, 45, 80
2, 230147, Note_on_c, 0, 45, 0
2, 230160, Note_on_c, 0, 57, 80
2, 230387, Note_on_c, 0, 57, 0
2, 230400, Note_on_c, 0, 38, 80
2, 230400, Note_on_c, 0, 50, 80
2, 230639, Note_on_c, 0, 38, 0
2, 230639, Note_on_c, 0, 50, 0
2, 230880, Note_on_c, 0, 38, 80
2, 230880, Note_on_c, 0, 50, 80
2, 231119, Note_on_c, 0, 38, 0
2, 231119, Note_on_c, 0, 50, 0
2, 231360, Note_on_c, 0, 40, 80
2, 231360, Note_on_c, 0, 52, 80
2, 231599, Note_on_c, 0, 40, 0
2, 231599, Note_on_c, 0, 52, 0
2, 231840, Note_on_c, 0, 40, 80
2, 231840, Note_on_c, 0, 52, 80
2, 232079, Note_on_c, 0, 40, 0
2, 232079, Note_on_c, 0, 52, 0
2, 232320, Note_on_c, 0, 37, 80
2, 232320, Note_on_c, 0, 49, 80
2, 232559, Note_on_c, 0, 37, 0
2, 232559, Note_on_c, 0, 49, 0
2, 232800, Note_on_c, 0, 37, 80
2, 232800, Note_on_c, 0, 49, 80
2, 233039, Note_on_c, 0, 37, 0
2, 233039, Note_on_c, 0, 49, 0
2, 233280, Note_on_c, 0, 42, 80
2, 233280, Note_on_c, 0, 54, 80
2, 233519, Note_on_c, 0, 42, 0
2, 233519, Note_on_c, 0, 54, 0
2, 233760, Note_on_c, 0, 42, 80
2, 233760, Note_on_c, 0, 54, 80
2, 233999, Note_on_c, 0, 42, 0
2, 233999, Note_on_c, 0, 54, 0
2, 234240, Note_on_c, 0, 35, 80
2, 234240, Note_on_c, 0, 47, 80
2, 234479, Note_on_c, 0, 35, 0
2, 234479, Note_on_c, 0, 47, 0
2, 234720, Note_on_c, 0, 35, 80
2, 234720, Note_on_c, 0, 47, 80
2, 234959, Note_on_c, 0, 35, 0
2, 234959, Note_on_c, 0, 47, 0
2, 235200, Note_on_c, 0, 40, 80
2, 235200, Note_on_c, 0, 52, 80
2, 235439, Note_on_c, 0, 40, 0
2, 235439, Note_on_c, 0, 52, 0
2, 235680, Note_on_c, 0, 40, 80
2, 235680, Note_on_c, 0, 52, 80
2, 235919, Note_on_c, 0, 40, 0
2, 235919, Note_on_c, 0, 52, 0
2, 236160, Note_on_c, 0, 45, 80
2, 236387, Note_on_c, 0, 45, 0
2, 236400, Note_on_c, 0, 57, 80
2, 236627, Note_on_c, 0, 57, 0
2, 236640, Note_on_c, 0, 47, 80
2, 236867, Note_on_c, 0, 47, 0
2, 236880, Note_on_c, 0, 59, 80
2, 237107, Note_on_c, 0, 59, 0
2, 237120, Note_on_c, 0, 49, 80
2, 237347, Note_on_c, 0, 49, 0
2, 237360, Note_on_c, 0, 61, 80
2, 237587, Note_on_c, 0, 61, 0
2, 237600, Note_on_c, 0, 45, 80
2, 237827, Note_on_c, 0, 45, 0
2, 237840, Note_on_c, 0, 57, 80
2, 238067, Note_on_c, 0, 57, 0
2, 238080, Note_on_c, 0, 38, 80
2, 238307, Note_on_c, 0, 38, 0
2, 238320, Note_on_c, 0, 50, 80
2, 238547, Note_on_c, 0, 50, 0
2, 238560, Note_on_c, 0, 38, 80
2, 238787, Note_on_c, 0, 38, 0
2, 238800, Note_on_c, 0, 50, 80
2, 239027, Note_on_c, 0, 50, 0
2, 239040, Note_on_c, 0, 40, 80
2, 239267, Note_on_c, 0, 40, 0
2, 239280, Note_on_c, 0, 52, 80
2, 239507, Note_on_c, 0, 52, 0
2, 239520, Note_on_c, 0, 40, 80
2, 239747, Note_on_c, 0, 40, 0
2, 239760, Note_on_c, 0, 52, 80
2, 239987, Note_on_c, 0, 52, 0
2, 240000, Note_on_c, 0, 37, 80
2, 240227, Note_on_c, 0, 37, 0
2, 240240, Note_on_c, 0, 49, 80
2, 240467, Note_on_c, 0, 49, 0
2, 240480, Note_on_c, 0, 37, 80
2, 240707, Note_on_c, 0, 37, 0
2, 240720, Note_on_c, 0, 49, 80
2, 240947, Note_on_c, 0, 49, 0
2, 240960, Note_on_c, 0, 42, 80
2, 241187, Note_on_c, 0, 42, 0
2, 241200, Note_on_c, 0, 54, 80
2, 241427, Note_on_c, 0, 54, 0
2, 241440, Note_on_c, 0, 42, 80
2, 241667, Note_on_c, 0, 42, 0
2, 241680, Note_on_c, 0, 54, 80
2, 241907, Note_on_c, 0, 54, 0
2, 241920, Note_on_c, 0, 38, 80
2, 242147, Note_on_c, 0, 38, 0
2, 242160, Note_on_c, 0, 50, 80
2, 242387, Note_on_c, 0, 50, 0
2, 242400, Note_on_c, 0, 38, 80
2, 242627, Note_on_c, 0, 38, 0
2, 242640, Note_on_c, 0, 50, 80
2, 242867, Note_on_c, 0, 50, 0
2, 242880, Note_on_c, 0, 40, 80
2, 243107, Note_on_c, 0, 40, 0
2, 243120, Note_on_c, 0, 52, 80
2, 243347, Note_on_c, 0, 52, 0
2, 243360, Note_on_c, 0, 40, 80
2, 243587, Note_on_c, 0, 40, 0
2, 243600, Note_on_c, 0, 52, 80
2, 243827, Note_on_c, 0, 52, 0
2, 243840, Note_on_c, 0, 45, 80
2, 244067, Note_on_c, 0, 45, 0
2, 244080, Note_on_c, 0, 57, 80
2, 244307, Note_on_c, 0, 57, 0
2, 244320, Note_on_c, 0, 47, 80
2, 244547, Note_on_c, 0, 47, 0
2, 244560, Note_on_c, 0, 59, 80
2, 244787, Note_on_c, 0, 59, 0
2, 244800, Note_on_c, 0, 49, 80
2, 245027, Note_on_c, 0, 49, 0
2, 245040, Note_on_c, 0, 61, 80
2, 245267, Note_on_c, 0, 61, 0
2, 245280, Note_on_c, 0, 45, 80
2, 245507, Note_on_c, 0, 45, 0
2, 245520, Note_on_c, 0, 57, 80
2, 245747, Note_on_c, 0, 57, 0
2, 245760, Note_on_c, 0, 38, 80
2, 245987, Note_on_c, 0, 38, 0
2, 246000, Note_on_c, 0, 50, 80
2, 246227, Note_on_c, 0, 50, 0
2, 246240, Note_on_c, 0, 38, 80
2, 246467, Note_on_c, 0, 38, 0
2, 246480, Note_on_c, 0, 50, 80
2, 246707, Note_on_c, 0, 50, 0
2, 246720, Note_on_c, 0, 40, 80
2, 246947, Note_on_c, 0, 40, 0
2, 246960, Note_on_c, 0, 52, 80
2, 247187, Note_on_c, 0, 52, 0
2, 247200, Note_on_c, 0, 40, 80
2, 247427, Note_on_c, 0, 40, 0
2, 247440, Note_on_c, 0, 52, 80
2, 247667, Note_on_c, 0, 52, 0
2, 247680, Note_on_c, 0, 37, 80
2, 247907, Note_on_c, 0, 37, 0
2, 247920, Note_on_c, 0, 49, 80
2, 248147, Note_on_c, 0, 49, 0
2, 248160, Note_on_c, 0, 37, 80
2, 248387, Note_on_c, 0, 37, 0
2, 248400, Note_on_c, 0, 49, 80
2, 248627, Note_on_c, 0, 49, 0
2, 248640, Note_on_c, 0, 42, 80
2, 248867, Note_on_c, 0, 42, 0
2, 248880, Note_on_c, 0, 54, 80
2, 249107, Note_on_c, 0, 54, 0
2, 249120, Note_on_c, 0, 42, 80
2, 249347, Note_on_c, 0, 42, 0
2, 249360, Note_on_c, 0, 54, 80
2, 249587, Note_on_c, 0, 54, 0
2, 249600, Note_on_c, 0, 35, 80
2, 249600, Note_on_c, 0, 47, 80
2, 249719, Note_on_c, 0, 35, 0
2, 249719, Note_on_c, 0, 47, 0
2, 249840, Note_on_c, 0, 35, 80
2, 249840, Note_on_c, 0, 47, 80
2, 250079, Note_on_c, 0, 35, 0
2, 250079, Note_on_c, 0, 47, 0
2, 250560, Note_on_c, 0, 40, 80
2, 250560, Note_on_c, 0, 52, 80
2, 250919, Note_on_c, 0, 40, 0
2, 250919, Note_on_c, 0, 52, 0
2, 251280, Note_on_c, 0, 40, 80
2, 251280, Note_on_c, 0, 52, 80
2, 251735, Note_on_c, 0, 40, 0
2, 251735, Note_on_c, 0, 52, 0
2, 251760, Note_on_c, 0, 50, 80
2, 251987, Note_on_c, 0, 50, 0
2, 252000, Note_on_c, 0, 49, 80
2, 252227, Note_on_c, 0, 49, 0
2, 252240, Note_on_c, 0, 47, 80
2, 252467, Note_on_c, 0, 47, 0
2, 252480, Note_on_c, 0, 45, 80
2, 252960, Note_on_c, 0, 33, 80
2, 253391, Note_on_c, 0, 45, 0
2, 253415, Note_on_c, 0, 33, 0
2, 253440, Note_on_c, 0, 59, 80
2, 253440, Note_on_c, 0, 35, 80
2, 253440, Note_on_c, 0, 47, 80
2, 253667, Note_on_c, 0, 59, 0
2, 253667, Note_on_c, 0, 35, 0
2, 253667, Note_on_c, 0, 47, 0
2, 253680, Note_on_c, 0, 60, 80
2, 253680, Note_on_c, 0, 36, 80
2, 253680, Note_on_c, 0, 48, 80
2, 253907, Note_on_c, 0, 60, 0
2, 253907, Note_on_c, 0, 36, 0
2, 253907, Note_on_c, 0, 48, 0
2, 253920, Note_on_c, 0, 60, 80
2, 253920, Note_on_c, 0, 36, 80
2, 253920, Note_on_c, 0, 48, 80
2, 254147, Note_on_c, 0, 60, 0
2, 254147, Note_on_c, 0, 36, 0
2, 254147, Note_on_c, 0, 48, 0
2, 254160, Note_on_c, 0, 60, 80
2, 254160, Note_on_c, 0, 36, 80
2, 254160, Note_on_c, 0, 48, 80
2, 254387, Note_on_c, 0, 60, 0
2, 254387, Note_on_c, 0, 36, 0
2, 254387, Note_on_c, 0, 48, 0
2, 254400, Note_on_c, 0, 60, 80
2, 254400, Note_on_c, 0, 36, 80
2, 254400, Note_on_c, 0, 48, 80
2, 254627, Note_on_c, 0, 60, 0
2, 254627, Note_on_c, 0, 36, 0
2, 254627, Note_on_c, 0, 48, 0
2, 254880, Note_on_c, 0, 36, 80
2, 255107, Note_on_c, 0, 36, 0
2, 255360, Note_on_c, 0, 54, 80
2, 255360, Note_on_c, 0, 30, 80
2, 255360, Note_on_c, 0, 42, 80
2, 255587, Note_on_c, 0, 54, 0
2, 255587, Note_on_c, 0, 30, 0
2, 255587, Note_on_c, 0, 42, 0
2, 255600, Note_on_c, 0, 55, 80
2, 255600, Note_on_c, 0, 31, 80
2, 255600, Note_on_c, 0, 43, 80
2, 255827, Note_on_c, 0, 55, 0
2, 255827, Note_on_c, 0, 31, 0
2, 255827, Note_on_c, 0, 43, 0
2, 255840, Note_on_c, 0, 55, 80
2, 255840, Note_on_c, 0, 31, 80
2, 255840, Note_on_c, 0, 43, 80
2, 256067, Note_on_c, 0, 55, 0
2, 256067, Note_on_c, 0, 31, 0
2, 256067, Note_on_c, 0, 43, 0
2, 256080, Note_on_c, 0, 55, 80
2, 256080, Note_on_c, 0, 31, 80
2, 256080, Note_on_c, 0, 43, 80
2, 256307, Note_on_c, 0, 55, 0
2, 256307, Note_on_c, 0, 31, 0
2, 256307, Note_on_c, 0, 43, 0
2, 256320, Note_on_c, 0, 55, 80
2, 256320, Note_on_c, 0, 31, 80
2, 256320, Note_on_c, 0, 43, 80
2, 256547, Note_on_c, 0, 55, 0
2, 256547, Note_on_c, 0, 31, 0
2, 256547, Note_on_c, 0, 43, 0
2, 256800, Note_on_c, 0, 31, 80
2, 257027, Note_on_c, 0, 31, 0
2, 257280, Note_on_c, 0, 57, 80
2, 257280, Note_on_c, 0, 33, 80
2, 257280, Note_on_c, 0, 45, 80
2, 257507, Note_on_c, 0, 57, 0
2, 257507, Note_on_c, 0, 33, 0
2, 257507, Note_on_c, 0, 45, 0
2, 257520, Note_on_c, 0, 58, 80
2, 257520, Note_on_c, 0, 34, 80
2, 257520, Note_on_c, 0, 46, 80
2, 257747, Note_on_c, 0, 58, 0
2, 257747, Note_on_c, 0, 34, 0
2, 257747, Note_on_c, 0, 46, 0
2, 257760, Note_on_c, 0, 58, 80
2, 257760, Note_on_c, 0, 34, 80
2, 257760, Note_on_c, 0, 46, 80
2, 257987, Note_on_c, 0, 58, 0
2, 257987, Note_on_c, 0, 34, 0
2, 257987, Note_on_c, 0, 46, 0
2, 258000, Note_on_c, 0, 58, 80
2, 258000, Note_on_c, 0, 34, 80
2, 258000, Note_on_c, 0, 46, 80
2, 258227, Note_on_c, 0, 58, 0
2, 258227, Note_on_c, 0, 34, 0
2, 258227, Note_on_c, 0, 46, 0
2, 258240, Note_on_c, 0, 58, 80
2, 258240, Note_on_c, 0, 34, 80
2, 258240, Note_on_c, 0, 46, 80
2, 258467, Note_on_c, 0, 58, 0
2, 258467, Note_on_c, 0, 34, 0
2, 258467, Note_on_c, 0, 46, 0
2, 258720, Note_on_c, 0, 34, 80
2, 258947, Note_on_c, 0, 34, 0
2, 259200, Note_on_c, 0, 52, 80
2, 259200, Note_on_c, 0, 28, 80
2, 259200, Note_on_c, 0, 40, 80
2, 259427, Note_on_c, 0, 52, 0
2, 259427, Note_on_c, 0, 28, 0
2, 259427, Note_on_c, 0, 40, 0
2, 259440, Note_on_c, 0, 53, 80
2, 259440, Note_on_c, 0, 29, 80
2, 259440, Note_on_c, 0, 41, 80
2, 259667, Note_on_c, 0, 53, 0
2, 259667, Note_on_c, 0, 29, 0
2, 259667, Note_on_c, 0, 41, 0
2, 259680, Note_on_c, 0, 53, 80
2, 259680, Note_on_c, 0, 29, 80
2, 259680, Note_on_c, 0, 41, 80
2, 259907, Note_on_c, 0, 53, 0
2, 259907, Note_on_c, 0, 29, 0
2, 259907, Note_on_c, 0, 41, 0
2, 259920, Note_on_c, 0, 53, 80
2, 259920, Note_on_c, 0, 29, 80
2, 259920, Note_on_c, 0, 41, 80
2, 260147, Note_on_c, 0, 53, 0
2, 260147, Note_on_c, 0, 29, 0
2, 260147, Note_on_c, 0, 41, 0
2, 260160, Note_on_c, 0, 53, 80
2, 260160, Note_on_c, 0, 29, 80
2, 260160, Note_on_c, 0, 41, 80
2, 260387, Note_on_c, 0, 53, 0
2, 260387, Note_on_c, 0, 29, 0
2, 260387, Note_on_c, 0, 41, 0
2, 260640, Note_on_c, 0, 29, 80
2, 260867, Note_on_c, 0, 29, 0
2, 260880, Note_on_c, 0, 41, 80
2, 261107, Note_on_c, 0, 41, 0
2, 261120, Note_on_c, 0, 32, 80
2, 261347, Note_on_c, 0, 32, 0
2, 261360, Note_on_c, 0, 44, 80
2, 261587, Note_on_c, 0, 44, 0
2, 261600, Note_on_c, 0, 32, 80
2, 261827, Note_on_c, 0, 32, 0
2, 261840, Note_on_c, 0, 44, 80
2, 262067, Note_on_c, 0, 44, 0
2, 262080, Note_on_c, 0, 32, 80
2, 262307, Note_on_c, 0, 32, 0
2, 262320, Note_on_c, 0, 44, 80
2, 262547, Note_on_c, 0, 44, 0
2, 262560, Note_on_c, 0, 32, 80
2, 262787, Note_on_c, 0, 32, 0
2, 262800, Note_on_c, 0, 44, 80
2, 263027, Note_on_c, 0, 44, 0
2, 263040, Note_on_c, 0, 39, 80
2, 263267, Note_on_c, 0, 39, 0
2, 263280, Note_on_c, 0, 51, 80
2, 263507, Note_on_c, 0, 51, 0
2, 263520, Note_on_c, 0, 39, 80
2, 263747, Note_on_c, 0, 39, 0
2, 263760, Note_on_c, 0, 51, 80
2, 263987, Note_on_c, 0, 51, 0
2, 264000, Note_on_c, 0, 39, 80
2, 264227, Note_on_c, 0, 39, 0
2, 264240, Note_on_c, 0, 51, 80
2, 264467, Note_on_c, 0, 51, 0
2, 264480, Note_on_c, 0, 39, 80
2, 264707, Note_on_c, 0, 39, 0
2, 264720, Note_on_c, 0, 51, 80
2, 264947, Note_on_c, 0, 51, 0
2, 264960, Note_on_c, 0, 43, 80
2, 264960, Note_on_c, 0, 55, 80
2, 265187, Note_on_c, 0, 43, 0
2, 265187, Note_on_c, 0, 55, 0
2, 265200, Note_on_c, 0, 50, 80
2, 265427, Note_on_c, 0, 50, 0
2, 265440, Note_on_c, 0, 43, 80
2, 265667, Note_on_c, 0, 43, 0
2, 265680, Note_on_c, 0, 43, 80
2, 265680, Note_on_c, 0, 55, 80
2, 265907, Note_on_c, 0, 43, 0
2, 265907, Note_on_c, 0, 55, 0
2, 265920, Note_on_c, 0, 50, 80
2, 266147, Note_on_c, 0, 50, 0
2, 266160, Note_on_c, 0, 43, 80
2, 266387, Note_on_c, 0, 43, 0
2, 266400, Note_on_c, 0, 43, 80
2, 266400, Note_on_c, 0, 55, 80
2, 266627, Note_on_c, 0, 43, 0
2, 266627, Note_on_c, 0, 55, 0
2, 266640, Note_on_c, 0, 50, 80
2, 266867, Note_on_c, 0, 50, 0
2, 266880, Note_on_c, 0, 43, 80
2, 267107, Note_on_c, 0, 43, 0
2, 267120, Note_on_c, 0, 43, 80
2, 267120, Note_on_c, 0, 55, 80
2, 267347, Note_on_c, 0, 43, 0
2, 267347, Note_on_c, 0, 55, 0
2, 267360, Note_on_c, 0, 50, 80
2, 267587, Note_on_c, 0, 50, 0
2, 267600, Note_on_c, 0, 43, 80
2, 267827, Note_on_c, 0, 43, 0
2, 267840, Note_on_c, 0, 43, 80
2, 267840, Note_on_c, 0, 55, 80
2, 268067, Note_on_c, 0, 43, 0
2, 268067, Note_on_c, 0, 55, 0
2, 268080, Note_on_c, 0, 50, 80
2, 268307, Note_on_c, 0, 50, 0
2, 268320, Note_on_c, 0, 43, 80
2, 268320, Note_on_c, 0, 55, 80
2, 268547, Note_on_c, 0, 43, 0
2, 268547, Note_on_c, 0, 55, 0
2, 268560, Note_on_c, 0, 50, 80
2, 268787, Note_on_c, 0, 50, 0
2, 268800, Note_on_c, 0, 40, 80
2, 269027, Note_on_c, 0, 40, 0
2, 269040, Note_on_c, 0, 52, 80
2, 269267, Note_on_c, 0, 52, 0
2, 269280, Note_on_c, 0, 40, 80
2, 269507, Note_on_c, 0, 40, 0
2, 269520, Note_on_c, 0, 52, 80
2, 269747, Note_on_c, 0, 52, 0
2, 269760, Note_on_c, 0, 40, 80
2, 269987, Note_on_c, 0, 40, 0
2, 270000, Note_on_c, 0, 52, 80
2, 270227, Note_on_c, 0, 52, 0
2, 270240, Note_on_c, 0, 40, 80
2, 270467, Note_on_c, 0, 40, 0
2, 270480, Note_on_c, 0, 52, 80
2, 270707, Note_on_c, 0, 52, 0
2, 270720, Note_on_c, 0, 35, 80
2, 270947, Note_on_c, 0, 35, 0
2, 270960, Note_on_c, 0, 47, 80
2, 271187, Note_on_c, 0, 47, 0
2, 271200, Note_on_c, 0, 35, 80
2, 271427, Note_on_c, 0, 35, 0
2, 271440, Note_on_c, 0, 47, 80
2, 271667, Note_on_c, 0, 47, 0
2, 271680, Note_on_c, 0, 35, 80
2, 271907, Note_on_c, 0, 35, 0
2, 271920, Note_on_c, 0, 47, 80
2, 272147, Note_on_c, 0, 47, 0
2, 272160, Note_on_c, 0, 35, 80
2, 272387, Note_on_c, 0, 35, 0
2, 272400, Note_on_c, 0, 47, 80
2, 272627, Note_on_c, 0, 47, 0
2, 272640, Note_on_c, 0, 38, 80
2, 272867, Note_on_c, 0, 38, 0
2, 272880, Note_on_c, 0, 50, 80
2, 273107, Note_on_c, 0, 50, 0
2, 273120, Note_on_c, 0, 38, 80
2, 273347, Note_on_c, 0, 38, 0
2, 273360, Note_on_c, 0, 50, 80
2, 273587, Note_on_c, 0, 50, 0
2, 273600, Note_on_c, 0, 38, 80
2, 273827, Note_on_c, 0, 38, 0
2, 273840, Note_on_c, 0, 50, 80
2, 274067, Note_on_c, 0, 50, 0
2, 274080, Note_on_c, 0, 38, 80
2, 274307, Note_on_c, 0, 38, 0
2, 274320, Note_on_c, 0, 50, 80
2, 274547, Note_on_c, 0, 50, 0
2, 274560, Note_on_c, 0, 33, 80
2, 274787, Note_on_c, 0, 33, 0
2, 274800, Note_on_c, 0, 45, 80
2, 275027, Note_on_c, 0, 45, 0
2, 275040, Note_on_c, 0, 33, 80
2, 275267, Note_on_c, 0, 33, 0
2, 275280, Note_on_c, 0, 45, 80
2, 275507, Note_on_c, 0, 45, 0
2, 275520, Note_on_c, 0, 33, 80
2, 275747, Note_on_c, 0, 33, 0
2, 275760, Note_on_c, 0, 45, 80
2, 275987, Note_on_c, 0, 45, 0
2, 276000, Note_on_c, 0, 33, 80
2, 276227, Note_on_c, 0, 33, 0
2, 276240, Note_on_c, 0, 45, 80
2, 276467, Note_on_c, 0, 45, 0
2, 276480, Note_on_c, 0, 36, 80
2, 276707, Note_on_c, 0, 36, 0
2, 276720, Note_on_c, 0, 48, 80
2, 276947, Note_on_c, 0, 48, 0
2, 276960, Note_on_c, 0, 36, 80
2, 277187, Note_on_c, 0, 36, 0
2, 277200, Note_on_c, 0, 48, 80
2, 277427, Note_on_c, 0, 48, 0
2, 277440, Note_on_c, 0, 36, 80
2, 277667, Note_on_c, 0, 36, 0
2, 277680, Note_on_c, 0, 48, 80
2, 277907, Note_on_c, 0, 48, 0
2, 277920, Note_on_c, 0, 36, 80
2, 278147, Note_on_c, 0, 36, 0
2, 278160, Note_on_c, 0, 48, 80
2, 278387, Note_on_c, 0, 48, 0
2, 278400, Note_on_c, 0, 31, 80
2, 278627, Note_on_c, 0, 31, 0
2, 278640, Note_on_c, 0, 43, 80
2, 278867, Note_on_c, 0, 43, 0
2, 278880, Note_on_c, 0, 31, 80
2, 279107, Note_on_c, 0, 31, 0
2, 279120, Note_on_c, 0, 43, 80
2, 279347, Note_on_c, 0, 43, 0
2, 279360, Note_on_c, 0, 31, 80
2, 279587, Note_on_c, 0, 31, 0
2, 279600, Note_on_c, 0, 43, 80
2, 279827, Note_on_c, 0, 43, 0
2, 279840, Note_on_c, 0, 31, 80
2, 280067, Note_on_c, 0, 31, 0
2, 280080, Note_on_c, 0, 43, 80
2, 280307, Note_on_c, 0, 43, 0
2, 280320, Note_on_c, 0, 38, 80
2, 280547, Note_on_c, 0, 38, 0
2, 280560, Note_on_c, 0, 50, 80
2, 280787, Note_on_c, 0, 50, 0
2, 280800, Note_on_c, 0, 38, 80
2, 281027, Note_on_c, 0, 38, 0
2, 281040, Note_on_c, 0, 50, 80
2, 281267, Note_on_c, 0, 50, 0
2, 281280, Note_on_c, 0, 38, 80
2, 281507, Note_on_c, 0, 38, 0
2, 281520, Note_on_c, 0, 50, 80
2, 281747, Note_on_c, 0, 50, 0
2, 281760, Note_on_c, 0, 38, 80
2, 281987, Note_on_c, 0, 38, 0
2, 282000, Note_on_c, 0, 50, 80
2, 282227, Note_on_c, 0, 50, 0
2, 282240, Note_on_c, 0, 38, 80
2, 282467, Note_on_c, 0, 38, 0
2, 282480, Note_on_c, 0, 50, 80
2, 282707, Note_on_c, 0, 50, 0
2, 282720, Note_on_c, 0, 38, 80
2, 282947, Note_on_c, 0, 38, 0
2, 282960, Note_on_c, 0, 50, 80
2, 283187, Note_on_c, 0, 50, 0
2, 283200, Note_on_c, 0, 38, 80
2, 283427, Note_on_c, 0, 38, 0
2, 283440, Note_on_c, 0, 50, 80
2, 283667, Note_on_c, 0, 50, 0
2, 283680, Note_on_c, 0, 38, 80
2, 283907, Note_on_c, 0, 38, 0
2, 283920, Note_on_c, 0, 50, 80
2, 284147, Note_on_c, 0, 50, 0
2, 284160, Note_on_c, 0, 40, 80
2, 284160, Note_on_c, 0, 52, 80
2, 284387, Note_on_c, 0, 40, 0
2, 284387, Note_on_c, 0, 52, 0
2, 284400, Note_on_c, 0, 47, 80
2, 284627, Note_on_c, 0, 47, 0
2, 284640, Note_on_c, 0, 40, 80
2, 284867, Note_on_c, 0, 40, 0
2, 284880, Note_on_c, 0, 40, 80
2, 284880, Note_on_c, 0, 52, 80
2, 285107, Note_on_c, 0, 40, 0
2, 285107, Note_on_c, 0, 52, 0
2, 285120, Note_on_c, 0, 47, 80
2, 285347, Note_on_c, 0, 47, 0
2, 285360, Note_on_c, 0, 40, 80
2, 285587, Note_on_c, 0, 40, 0
2, 285600, Note_on_c, 0, 40, 80
2, 285600, Note_on_c, 0, 52, 80
2, 285827, Note_on_c, 0, 40, 0
2, 285827, Note_on_c, 0, 52, 0
2, 285840, Note_on_c, 0, 47, 80
2, 286067, Note_on_c, 0, 47, 0
2, 286080, Note_on_c, 0, 40, 80
2, 286307, Note_on_c, 0, 40, 0
2, 286320, Note_on_c, 0, 40, 80
2, 286320, Note_on_c, 0, 52, 80
2, 286547, Note_on_c, 0, 40, 0
2, 286547, Note_on_c, 0, 52, 0
2, 286560, Note_on_c, 0, 47, 80
2, 286787, Note_on_c, 0, 47, 0
2, 286800, Note_on_c, 0, 40, 80
2, 287027, Note_on_c, 0, 40, 0
2, 287040, Note_on_c, 0, 40, 80
2, 287040, Note_on_c, 0, 52, 80
2, 287267, Note_on_c, 0, 40, 0
2, 287267, Note_on_c, 0, 52, 0
2, 287280, Note_on_c, 0, 47, 80
2, 287507, Note_on_c, 0, 47, 0
2, 287520, Note_on_c, 0, 40, 80
2, 287520, Note_on_c, 0, 52, 80
2, 287747, Note_on_c, 0, 40, 0
2, 287747, Note_on_c, 0, 52, 0
2, 287760, Note_on_c, 0, 47, 80
2, 287987, Note_on_c, 0, 47, 0
2, 288000, Note_on_c, 0, 52, 80
2, 288683, Note_on_c, 0, 52, 0
2, 288720, Note_on_c, 0, 50, 80
2, 289403, Note_on_c, 0, 50, 0
2, 289440, Note_on_c, 0, 49, 80
2, 290123, Note_on_c, 0, 49, 0
2, 290160, Note_on_c, 0, 47, 80
2, 290843, Note_on_c, 0, 47, 0
2, 290880, Note_on_c, 0, 45, 80
2, 291335, Note_on_c, 0, 45, 0
2, 291360, Note_on_c, 0, 40, 80
2, 291815, Note_on_c, 0, 40, 0
2, 291840, Note_on_c, 0, 45, 80
2, 291840, Note_on_c, 0, 57, 80
2, 295487, Note_on_c, 0, 45, 0
2, 295487, Note_on_c, 0, 57, 0
2, 295680, Note_on_c, 0, 42, 80
2, 295680, Note_on_c, 0, 54, 80
2, 299327, Note_on_c, 0, 42, 0
2, 299327, Note_on_c, 0, 54, 0
2, 300000, Note_on_c, 0, 49, 80
2, 300000, Note_on_c, 0, 56, 80
2, 300000, Note_on_c, 0, 61, 80
2, 300455, Note_on_c, 0, 49, 0
2, 300455, Note_on_c, 0, 56, 0
2, 300455, Note_on_c, 0, 61, 0
2, 300960, Note_on_c, 0, 49, 80
2, 300960, Note_on_c, 0, 56, 80
2, 300960, Note_on_c, 0, 61, 80
2, 301415, Note_on_c, 0, 49, 0
2, 301415, Note_on_c, 0, 56, 0
2, 301415, Note_on_c, 0, 61, 0
2, 301920, Note_on_c, 0, 49, 80
2, 301920, Note_on_c, 0, 56, 80
2, 301920, Note_on_c, 0, 61, 80
2, 302375, Note_on_c, 0, 49, 0
2, 302375, Note_on_c, 0, 56, 0
2, 302375, Note_on_c, 0, 61, 0
2, 302880, Note_on_c, 0, 49, 80
2, 302880, Note_on_c, 0, 56, 80
2, 302880, Note_on_c, 0, 61, 80
2, 303335, Note_on_c, 0, 49, 0
2, 303335, Note_on_c, 0, 56, 0
2, 303335, Note_on_c, 0, 61, 0
2, 303360, Note_on_c, 0, 50, 80
2, 303360, Note_on_c, 0, 62, 80
2, 305183, Note_on_c, 0, 50, 0
2, 305183, Note_on_c, 0, 62, 0
2, 305280, Note_on_c, 0, 40, 80
2, 305280, Note_on_c, 0, 52, 80
2, 307103, Note_on_c, 0, 40, 0
2, 307103, Note_on_c, 0, 52, 0
2, 307200, Note_on_c, 0, 33, 80
2, 307200, Note_on_c, 0, 45, 80
2, 310847, Note_on_c, 0, 33, 0
2, 310847, Note_on_c, 0, 45, 0
2, 311040, Note_on_c, 0, 30, 80
2, 311040, Note_on_c, 0, 42, 80
2, 314687, Note_on_c, 0, 30, 0
2, 314687, Note_on_c, 0, 42, 0
2, 314880, Note_on_c, 0, 37, 80
2, 314880, Note_on_c, 0, 49, 80
2, 318527, Note_on_c, 0, 37, 0
2, 318527, Note_on_c, 0, 49, 0
2, 318720, Note_on_c, 0, 38, 80
2, 318720, Note_on_c, 0, 50, 80
2, 320543, Note_on_c, 0, 38, 0
2, 320543, Note_on_c, 0, 50, 0
2, 320640, Note_on_c, 0, 40, 80
2, 320640, Note_on_c, 0, 52, 80
2, 322007, Note_on_c, 0, 40, 0
2, 322007, Note_on_c, 0, 52, 0
2, 322080, Note_on_c, 0, 40, 80
2, 322535, Note_on_c, 0, 40, 0
2, 322560, Note_on_c, 0, 33, 80
2, 322560, Note_on_c, 0, 45, 80
2, 323040, Note_on_c, 0, 57, 80
2, 323267, Note_on_c, 0, 57, 0
2, 323280, Note_on_c, 0, 52, 80
2, 323507, Note_on_c, 0, 52, 0
2, 323520, Note_on_c, 0, 45, 80
2, 323747, Note_on_c, 0, 45, 0
2, 323760, Note_on_c, 0, 52, 80
2, 323987, Note_on_c, 0, 52, 0
2, 324000, Note_on_c, 0, 57, 80
2, 324227, Note_on_c, 0, 57, 0
2, 324240, Note_on_c, 0, 52, 80
2, 324467, Note_on_c, 0, 52, 0
2, 324480, Note_on_c, 0, 45, 80
2, 324707, Note_on_c, 0, 45, 0
2, 324720, Note_on_c, 0, 52, 80
2, 324947, Note_on_c, 0, 52, 0
2, 324960, Note_on_c, 0, 57, 80
2, 325187, Note_on_c, 0, 57, 0
2, 325200, Note_on_c, 0, 52, 80
2, 325427, Note_on_c, 0, 52, 0
2, 325440, Note_on_c, 0, 45, 80
2, 325667, Note_on_c, 0, 45, 0
2, 325680, Note_on_c, 0, 52, 80
2, 325907, Note_on_c, 0, 52, 0
2, 325920, Note_on_c, 0, 57, 80
2, 326147, Note_on_c, 0, 57, 0
2, 326160, Note_on_c, 0, 52, 80
2, 326207, Note_on_c, 0, 33, 0
2, 326207, Note_on_c, 0, 45, 0
2, 326387, Note_on_c, 0, 52, 0
2, 326400, Note_on_c, 0, 30, 80
2, 326400, Note_on_c, 0, 42, 80
2, 326880, Note_on_c, 0, 54, 80
2, 327107, Note_on_c, 0, 54, 0
2, 327120, Note_on_c, 0, 49, 80
2, 327347, Note_on_c, 0, 49, 0
2, 327360, Note_on_c, 0, 42, 80
2, 327587, Note_on_c, 0, 42, 0
2, 327600, Note_on_c, 0, 49, 80
2, 327827, Note_on_c, 0, 49, 0
2, 327840, Note_on_c, 0, 54, 80
2, 328067, Note_on_c, 0, 54, 0
2, 328080, Note_on_c, 0, 49, 80
2, 328307, Note_on_c, 0, 49, 0
2, 328320, Note_on_c, 0, 42, 80
2, 328547, Note_on_c, 0, 42, 0
2, 328560, Note_on_c, 0, 49, 80
2, 328787, Note_on_c, 0, 49, 0
2, 328800, Note_on_c, 0, 54, 80
2, 329027, Note_on_c, 0, 54, 0
2, 329040, Note_on_c, 0, 49, 80
2, 329267, Note_on_c, 0, 49, 0
2, 329280, Note_on_c, 0, 42, 80
2, 329507, Note_on_c, 0, 42, 0
2, 329520, Note_on_c, 0, 49, 80
2, 329747, Note_on_c, 0, 49, 0
2, 329760, Note_on_c, 0, 54, 80
2, 329987, Note_on_c, 0, 54, 0
2, 330000, Note_on_c, 0, 49, 80
2, 330047, Note_on_c, 0, 30, 0
2, 330047, Note_on_c, 0, 42, 0
2, 330227, Note_on_c, 0, 49, 0
2, 330240, Note_on_c, 0, 37, 80
2, 330240, Note_on_c, 0, 49, 80
2, 330695, Note_on_c, 0, 37, 0
2, 330695, Note_on_c, 0, 49, 0
2, 330720, Note_on_c, 0, 56, 80
2, 330720, Note_on_c, 0, 61, 80
2, 331175, Note_on_c, 0, 56, 0
2, 331175, Note_on_c, 0, 61, 0
2, 331200, Note_on_c, 0, 37, 80
2, 331200, Note_on_c, 0, 49, 80
2, 331655, Note_on_c, 0, 37, 0
2, 331655, Note_on_c, 0, 49, 0
2, 331680, Note_on_c, 0, 56, 80
2, 331680, Note_on_c, 0, 61, 80
2, 332135, Note_on_c, 0, 56, 0
2, 332135, Note_on_c, 0, 61, 0
2, 332160, Note_on_c, 0, 37, 80
2, 332160, Note_on_c, 0, 49, 80
2, 332615, Note_on_c, 0, 37, 0
2, 332615, Note_on_c, 0, 49, 0
2, 332640, Note_on_c, 0, 56, 80
2, 332640, Note_on_c, 0, 61, 80
2, 333095, Note_on_c, 0, 56, 0
2, 333095, Note_on_c, 0, 61, 0
2, 333120, Note_on_c, 0, 37, 80
2, 333120, Note_on_c, 0, 49, 80
2, 333575, Note_on_c, 0, 37, 0
2, 333575, Note_on_c, 0, 49, 0
2, 333600, Note_on_c, 0, 56, 80
2, 333600, Note_on_c, 0, 61, 80
2, 334055, Note_on_c, 0, 56, 0
2, 334055, Note_on_c, 0, 61, 0
2, 334080, Note_on_c, 0, 38, 80
2, 334080, Note_on_c, 0, 50, 80
2, 334535, Note_on_c, 0, 38, 0
2, 334535, Note_on_c, 0, 50, 0
2, 334560, Note_on_c, 0, 38, 80
2, 334560, Note_on_c, 0, 50, 80
2, 335015, Note_on_c, 0, 38, 0
2, 335015, Note_on_c, 0, 50, 0
2, 335040, Note_on_c, 0, 38, 80
2, 335040, Note_on_c, 0, 50, 80
2, 335267, Note_on_c, 0, 38, 0
2, 335267, Note_on_c, 0, 50, 0
2, 335280, Note_on_c, 0, 35, 80
2, 335280, Note_on_c, 0, 47, 80
2, 335507, Note_on_c, 0, 35, 0
2, 335507, Note_on_c, 0, 47, 0
2, 335520, Note_on_c, 0, 37, 80
2, 335520, Note_on_c, 0, 49, 80
2, 335747, Note_on_c, 0, 37, 0
2, 335747, Note_on_c, 0, 49, 0
2, 335760, Note_on_c, 0, 38, 80
2, 335760, Note_on_c, 0, 50, 80
2, 335987, Note_on_c, 0, 38, 0
2, 335987, Note_on_c, 0, 50, 0
2, 336000, Note_on_c, 0, 40, 80
2, 336000, Note_on_c, 0, 52, 80
2, 336227, Note_on_c, 0, 40, 0
2, 336227, Note_on_c, 0, 52, 0
2, 336240, Note_on_c, 0, 47, 80
2, 336467, Note_on_c, 0, 47, 0
2, 336480, Note_on_c, 0, 40, 80
2, 336480, Note_on_c, 0, 52, 80
2, 336707, Note_on_c, 0, 40, 0
2, 336707, Note_on_c, 0, 52, 0
2, 336720, Note_on_c, 0, 47, 80
2, 336947, Note_on_c, 0, 47, 0
2, 336960, Note_on_c, 0, 40, 80
2, 336960, Note_on_c, 0, 52, 80
2, 337187, Note_on_c, 0, 40, 0
2, 337187, Note_on_c, 0, 52, 0
2, 337200, Note_on_c, 0, 47, 80
2, 337427, Note_on_c, 0, 47, 0
2, 337440, Note_on_c, 0, 40, 80
2, 337440, Note_on_c, 0, 52, 80
2, 337667, Note_on_c, 0, 40, 0
2, 337667, Note_on_c, 0, 52, 0
2, 337680, Note_on_c, 0, 47, 80
2, 337907, Note_on_c, 0, 47, 0
2, 337920, Note_on_c, 0, 33, 80
2, 337920, Note_on_c, 0, 45, 80
2, 338400, Note_on_c, 0, 57, 80
2, 338627, Note_on_c, 0, 57, 0
2, 338640, Note_on_c, 0, 52, 80
2, 338867, Note_on_c, 0, 52, 0
2, 338880, Note_on_c, 0, 45, 80
2, 339107, Note_on_c, 0, 45, 0
2, 339120, Note_on_c, 0, 52, 80
2, 339347, Note_on_c, 0, 52, 0
2, 339360, Note_on_c, 0, 57, 80
2, 339587, Note_on_c, 0, 57, 0
2, 339600, Note_on_c, 0, 52, 80
2, 339827, Note_on_c, 0, 52, 0
2, 339840, Note_on_c, 0, 45, 80
2, 340067, Note_on_c, 0, 45, 0
2, 340080, Note_on_c, 0, 52, 80
2, 340307, Note_on_c, 0, 52, 0
2, 340320, Note_on_c, 0, 57, 80
2, 340547, Note_on_c, 0, 57, 0
2, 340560, Note_on_c, 0, 52, 80
2, 340787, Note_on_c, 0, 52, 0
2, 340800, Note_on_c, 0, 45, 80
2, 341027, Note_on_c, 0, 45, 0
2, 341040, Note_on_c, 0, 52, 80
2, 341267, Note_on_c, 0, 52, 0
2, 341280, Note_on_c, 0, 57, 80
2, 341507, Note_on_c, 0, 57, 0
2, 341520, Note_on_c, 0, 52, 80
2, 341567, Note_on_c, 0, 33, 0
2, 341567, Note_on_c, 0, 45, 0
2, 341747, Note_on_c, 0, 52, 0
2, 341760, Note_on_c, 0, 30, 80
2, 341760, Note_on_c, 0, 42, 80
2, 342240, Note_on_c, 0, 54, 80
2, 342467, Note_on_c, 0, 54, 0
2, 342480, Note_on_c, 0, 49, 80
2, 342707, Note_on_c, 0, 49, 0
2, 342720, Note_on_c, 0, 42, 80
2, 342947, Note_on_c, 0, 42, 0
2, 342960, Note_on_c, 0, 49, 80
2, 343187, Note_on_c, 0, 49, 0
2, 343200, Note_on_c, 0, 54, 80
2, 343427, Note_on_c, 0, 54, 0
2, 343440, Note_on_c, 0, 49, 80
2, 343667, Note_on_c, 0, 49, 0
2, 343680, Note_on_c, 0, 42, 80
2, 343907, Note_on_c, 0, 42, 0
2, 343920, Note_on_c, 0, 49, 80
2, 344147, Note_on_c, 0, 49, 0
2, 344160, Note_on_c, 0, 54, 80
2, 344387, Note_on_c, 0, 54, 0
2, 344400, Note_on_c, 0, 49, 80
2, 344627, Note_on_c, 0, 49, 0
2, 344640, Note_on_c, 0, 42, 80
2, 344867, Note_on_c, 0, 42, 0
2, 344880, Note_on_c, 0, 49, 80
2, 345107, Note_on_c, 0, 49, 0
2, 345120, Note_on_c, 0, 54, 80
2, 345347, Note_on_c, 0, 54, 0
2, 345360, Note_on_c, 0, 49, 80
2, 345407, Note_on_c, 0, 30, 0
2, 345407, Note_on_c, 0, 42, 0
2, 345587, Note_on_c, 0, 49, 0
2, 345600, Note_on_c, 0, 37, 80
2, 345600, Note_on_c, 0, 49, 80
2, 346055, Note_on_c, 0, 37, 0
2, 346055, Note_on_c, 0, 49, 0
2, 346080, Note_on_c, 0, 56, 80
2, 346080, Note_on_c, 0, 61, 80
2, 346535, Note_on_c, 0, 56, 0
2, 346535, Note_on_c, 0, 61, 0
2, 346560, Note_on_c, 0, 37, 80
2, 346560, Note_on_c, 0, 49, 80
2, 347015, Note_on_c, 0, 37, 0
2, 347015, Note_on_c, 0, 49, 0
2, 347040, Note_on_c, 0, 56, 80
2, 347040, Note_on_c, 0, 61, 80
2, 347495, Note_on_c, 0, 56, 0
2, 347495, Note_on_c, 0, 61, 0
2, 347520, Note_on_c, 0, 37, 80
2, 347520, Note_on_c, 0, 49, 80
2, 347975, Note_on_c, 0, 37, 0
2, 347975, Note_on_c, 0, 49, 0
2, 348000, Note_on_c, 0, 56, 80
2, 348000, Note_on_c, 0, 61, 80
2, 348455, Note_on_c, 0, 56, 0
2, 348455, Note_on_c, 0, 61, 0
2, 348480, Note_on_c, 0, 37, 80
2, 348480, Note_on_c, 0, 49, 80
2, 348935, Note_on_c, 0, 37, 0
2, 348935, Note_on_c, 0, 49, 0
2, 348960, Note_on_c, 0, 56, 80
2, 348960, Note_on_c, 0, 61, 80
2, 349415, Note_on_c, 0, 56, 0
2, 349415, Note_on_c, 0, 61, 0
2, 349440, Note_on_c, 0, 38, 80
2, 349440, Note_on_c, 0, 50, 80
2, 349895, Note_on_c, 0, 38, 0
2, 349895, Note_on_c, 0, 50, 0
2, 349920, Note_on_c, 0, 38, 80
2, 349920, Note_on_c, 0, 50, 80
2, 350375, Note_on_c, 0, 38, 0
2, 350375, Note_on_c, 0, 50, 0
2, 350400, Note_on_c, 0, 38, 80
2, 350400, Note_on_c, 0, 50, 80
2, 350627, Note_on_c, 0, 38, 0
2, 350627, Note_on_c, 0, 50, 0
2, 350640, Note_on_c, 0, 35, 80
2, 350640, Note_on_c, 0, 47, 80
2, 350867, Note_on_c, 0, 35, 0
2, 350867, Note_on_c, 0, 47, 0
2, 350880, Note_on_c, 0, 37, 80
2, 350880, Note_on_c, 0, 49, 80
2, 351107, Note_on_c, 0, 37, 0
2, 351107, Note_on_c, 0, 49, 0
2, 351120, Note_on_c, 0, 38, 80
2, 351120, Note_on_c, 0, 50, 80
2, 351347, Note_on_c, 0, 38, 0
2, 351347, Note_on_c, 0, 50, 0
2, 351360, Note_on_c, 0, 40, 80
2, 351360, Note_on_c, 0, 52, 80
2, 351587, Note_on_c, 0, 40, 0
2, 351587, Note_on_c, 0, 52, 0
2, 351600, Note_on_c, 0, 40, 80
2, 351600, Note_on_c, 0, 52, 80
2, 351827, Note_on_c, 0, 40, 0
2, 351827, Note_on_c, 0, 52, 0
2, 352080, Note_on_c, 0, 40, 80
2, 352080, Note_on_c, 0, 52, 80
2, 352535, Note_on_c, 0, 40, 0
2, 352535, Note_on_c, 0, 52, 0
2, 352560, Note_on_c, 0, 40, 80
2, 352787, Note_on_c, 0, 40, 0
2, 352800, Note_on_c, 0, 52, 80
2, 353255, Note_on_c, 0, 52, 0
2, 353280, Note_on_c, 0, 38, 80
2, 353280, Note_on_c, 0, 50, 80
2, 353519, Note_on_c, 0, 38, 0
2, 353519, Note_on_c, 0, 50, 0
2, 353760, Note_on_c, 0, 38, 80
2, 353760, Note_on_c, 0, 50, 80
2, 353999, Note_on_c, 0, 38, 0
2, 353999, Note_on_c, 0, 50, 0
2, 354240, Note_on_c, 0, 40, 80
2, 354240, Note_on_c, 0, 52, 80
2, 354479, Note_on_c, 0, 40, 0
2, 354479, Note_on_c, 0, 52, 0
2, 354720, Note_on_c, 0, 40, 80
2, 354720, Note_on_c, 0, 52, 80
2, 354959, Note_on_c, 0, 40, 0
2, 354959, Note_on_c, 0, 52, 0
2, 355200, Note_on_c, 0, 37, 80
2, 355200, Note_on_c, 0, 49, 80
2, 355439, Note_on_c, 0, 37, 0
2, 355439, Note_on_c, 0, 49, 0
2, 355680, Note_on_c, 0, 37, 80
2, 355680, Note_on_c, 0, 49, 80
2, 355919, Note_on_c, 0, 37, 0
2, 355919, Note_on_c, 0, 49, 0
2, 356160, Note_on_c, 0, 42, 80
2, 356160, Note_on_c, 0, 54, 80
2, 356399, Note_on_c, 0, 42, 0
2, 356399, Note_on_c, 0, 54, 0
2, 356640, Note_on_c, 0, 42, 80
2, 356640, Note_on_c, 0, 54, 80
2, 356879, Note_on_c, 0, 42, 0
2, 356879, Note_on_c, 0, 54, 0
2, 357120, Note_on_c, 0, 38, 80
2, 357120, Note_on_c, 0, 50, 80
2, 357359, Note_on_c, 0, 38, 0
2, 357359, Note_on_c, 0, 50, 0
2, 357600, Note_on_c, 0, 38, 80
2, 357600, Note_on_c, 0, 50, 80
2, 357839, Note_on_c, 0, 38, 0
2, 357839, Note_on_c, 0, 50, 0
2, 358080, Note_on_c, 0, 40, 80
2, 358080, Note_on_c, 0, 52, 80
2, 358319, Note_on_c, 0, 40, 0
2, 358319, Note_on_c, 0, 52, 0
2, 358560, Note_on_c, 0, 40, 80
2, 358560, Note_on_c, 0, 52, 80
2, 358799, Note_on_c, 0, 40, 0
2, 358799, Note_on_c, 0, 52, 0
2, 359040, Note_on_c, 0, 45, 80
2, 359267, Note_on_c, 0, 45, 0
2, 359280, Note_on_c, 0, 57, 80
2, 359507, Note_on_c, 0, 57, 0
2, 359520, Note_on_c, 0, 47, 80
2, 359747, Note_on_c, 0, 47, 0
2, 359760, Note_on_c, 0, 59, 80
2, 359987, Note_on_c, 0, 59, 0
2, 360000, Note_on_c, 0, 49, 80
2, 360227, Note_on_c, 0, 49, 0
2, 360240, Note_on_c, 0, 61, 80
2, 360467, Note_on_c, 0, 61, 0
2, 360480, Note_on_c, 0, 45, 80
2, 360707, Note_on_c, 0, 45, 0
2, 360720, Note_on_c, 0, 57, 80
2, 360947, Note_on_c, 0, 57, 0
2, 360960, Note_on_c, 0, 38, 80
2, 360960, Note_on_c, 0, 50, 80
2, 361199, Note_on_c, 0, 38, 0
2, 361199, Note_on_c, 0, 50, 0
2, 361440, Note_on_c, 0, 38, 80
2, 361440, Note_on_c, 0, 50, 80
2, 361679, Note_on_c, 0, 38, 0
2, 361679, Note_on_c, 0, 50, 0
2, 361920, Note_on_c, 0, 40, 80
2, 361920, Note_on_c, 0, 52, 80
2, 362159, Note_on_c, 0, 40, 0
2, 362159, Note_on_c, 0, 52, 0
2, 362400, Note_on_c, 0, 40, 80
2, 362400, Note_on_c, 0, 52, 80
2, 362639, Note_on_c, 0, 40, 0
2, 362639, Note_on_c, 0, 52, 0
2, 362880, Note_on_c, 0, 37, 80
2, 362880, Note_on_c, 0, 49, 80
2, 363119, Note_on_c, 0, 37, 0
2, 363119, Note_on_c, 0, 49, 0
2, 363360, Note_on_c, 0, 37, 80
2, 363360, Note_on_c, 0, 49, 80
2, 363599, Note_on_c, 0, 37, 0
2, 363599, Note_on_c, 0, 49, 0
2, 363840, Note_on_c, 0, 42, 80
2, 363840, Note_on_c, 0, 54, 80
2, 364079, Note_on_c, 0, 42, 0
2, 364079, Note_on_c, 0, 54, 0
2, 364320, Note_on_c, 0, 42, 80
2, 364320, Note_on_c, 0, 54, 80
2, 364559, Note_on_c, 0, 42, 0
2, 364559, Note_on_c, 0, 54, 0
2, 364800, Note_on_c, 0, 35, 80
2, 364800, Note_on_c, 0, 47, 80
2, 365039, Note_on_c, 0, 35, 0
2, 365039, Note_on_c, 0, 47, 0
2, 365280, Note_on_c, 0, 35, 80
2, 365280, Note_on_c, 0, 47, 80
2, 365519, Note_on_c, 0, 35, 0
2, 365519, Note_on_c, 0, 47, 0
2, 365760, Note_on_c, 0, 40, 80
2, 365760, Note_on_c, 0, 52, 80
2, 365999, Note_on_c, 0, 40, 0
2, 365999, Note_on_c, 0, 52, 0
2, 366240, Note_on_c, 0, 40, 80
2, 366240, Note_on_c, 0, 52, 80
2, 366479, Note_on_c, 0, 40, 0
2, 366479, Note_on_c, 0, 52, 0
2, 366720, Note_on_c, 0, 45, 80
2, 366947, Note_on_c, 0, 45, 0
2, 366960, Note_on_c, 0, 57, 80
2, 367187, Note_on_c, 0, 57, 0
2, 367200, Note_on_c, 0, 47, 80
2, 367427, Note_on_c, 0, 47, 0
2, 367440, Note_on_c, 0, 59, 80
2, 367667, Note_on_c, 0, 59, 0
2, 367680, Note_on_c, 0, 49, 80
2, 367907, Note_on_c, 0, 49, 0
2, 367920, Note_on_c, 0, 61, 80
2, 368147, Note_on_c, 0, 61, 0
2, 368160, Note_on_c, 0, 45, 80
2, 368387, Note_on_c, 0, 45, 0
2, 368400, Note_on_c, 0, 57, 80
2, 368627, Note_on_c, 0, 57, 0
2, 368640, Note_on_c, 0, 38, 80
2, 368867, Note_on_c, 0, 38, 0
2, 368880, Note_on_c, 0, 50, 80
2, 369107, Note_on_c, 0, 50, 0
2, 369120, Note_on_c, 0, 38, 80
2, 369347, Note_on_c, 0, 38, 0
2, 369360, Note_on_c, 0, 50, 80
2, 369587, Note_on_c, 0, 50, 0
2, 369600, Note_on_c, 0, 40, 80
2, 369827, Note_on_c, 0, 40, 0
2, 369840, Note_on_c, 0, 52, 80
2, 370067, Note_on_c, 0, 52, 0
2, 370080, Note_on_c, 0, 40, 80
2, 370307, Note_on_c, 0, 40, 0
2, 370320, Note_on_c, 0, 52, 80
2, 370547, Note_on_c, 0, 52, 0
2, 370560, Note_on_c, 0, 37, 80
2, 370787, Note_on_c, 0, 37, 0
2, 370800, Note_on_c, 0, 49, 80
2, 371027, Note_on_c, 0, 49, 0
2, 371040, Note_on_c, 0, 37, 80
2, 371267, Note_on_c, 0, 37, 0
2, 371280, Note_on_c, 0, 49, 80
2, 371507, Note_on_c, 0, 49, 0
2, 371520, Note_on_c, 0, 42, 80
2, 371747, Note_on_c, 0, 42, 0
2, 371760, Note_on_c, 0, 54, 80
2, 371987, Note_on_c, 0, 54, 0
2, 372000, Note_on_c, 0, 42, 80
2, 372227, Note_on_c, 0, 42, 0
2, 372240, Note_on_c, 0, 54, 80
2, 372467, Note_on_c, 0, 54, 0
2, 372480, Note_on_c, 0, 38, 80
2, 372707, Note_on_c, 0, 38, 0
2, 372720, Note_on_c, 0, 50, 80
2, 372947, Note_on_c, 0, 50, 0
2, 372960, Note_on_c, 0, 38, 80
2, 373187, Note_on_c, 0, 38, 0
2, 373200, Note_on_c, 0, 50, 80
2, 373427, Note_on_c, 0, 50, 0
2, 373440, Note_on_c, 0, 40, 80
2, 373667, Note_on_c, 0, 40, 0
2, 373680, Note_on_c, 0, 52, 80
2, 373907, Note_on_c, 0, 52, 0
2, 373920, Note_on_c, 0, 40, 80
2, 374147, Note_on_c, 0, 40, 0
2, 374160, Note_on_c, 0, 52, 80
2, 374387, Note_on_c, 0, 52, 0
2, 374400, Note_on_c, 0, 45, 80
2, 374627, Note_on_c, 0, 45, 0
2, 374640, Note_on_c, 0, 57, 80
2, 374867, Note_on_c, 0, 57, 0
2, 374880, Note_on_c, 0, 47, 80
2, 375107, Note_on_c, 0, 47, 0
2, 375120, Note_on_c, 0, 59, 80
2, 375347, Note_on_c, 0, 59, 0
2, 375360, Note_on_c, 0, 49, 80
2, 375587, Note_on_c, 0, 49, 0
2, 375600, Note_on_c, 0, 61, 80
2, 375827, Note_on_c, 0, 61, 0
2, 375840, Note_on_c, 0, 45, 80
2, 376067, Note_on_c, 0, 45, 0
2, 376080, Note_on_c, 0, 57, 80
2, 376307, Note_on_c, 0, 57, 0
2, 376320, Note_on_c, 0, 38, 80
2, 376547, Note_on_c, 0, 38, 0
2, 376560, Note_on_c, 0, 50, 80
2, 376787, Note_on_c, 0, 50, 0
2, 376800, Note_on_c, 0, 38, 80
2, 377027, Note_on_c, 0, 38, 0
2, 377040, Note_on_c, 0, 50, 80
2, 377267, Note_on_c, 0, 50, 0
2, 377280, Note_on_c, 0, 40, 80
2, 377507, Note_on_c, 0, 40, 0
2, 377520, Note_on_c, 0, 52, 80
2, 377747, Note_on_c, 0, 52, 0
2, 377760, Note_on_c, 0, 40, 80
2, 377987, Note_on_c, 0, 40, 0
2, 378000, Note_on_c, 0, 52, 80
2, 378227, Note_on_c, 0, 52, 0
2, 378240, Note_on_c, 0, 37, 80
2, 378467, Note_on_c, 0, 37, 0
2, 378480, Note_on_c, 0, 49, 80
2, 378707, Note_on_c, 0, 49, 0
2, 378720, Note_on_c, 0, 37, 80
2, 378947, Note_on_c, 0, 37, 0
2, 378960, Note_on_c, 0, 49, 80
2, 379187, Note_on_c, 0, 49, 0
2, 379200, Note_on_c, 0, 42, 80
2, 379427, Note_on_c, 0, 42, 0
2, 379440, Note_on_c, 0, 54, 80
2, 379667, Note_on_c, 0, 54, 0
2, 379680, Note_on_c, 0, 42, 80
2, 379907, Note_on_c, 0, 42, 0
2, 379920, Note_on_c, 0, 54, 80
2, 380147, Note_on_c, 0, 54, 0
2, 380160, Note_on_c, 0, 35, 80
2, 380160, Note_on_c, 0, 47, 80
2, 380279, Note_on_c, 0, 35, 0
2, 380279, Note_on_c, 0, 47, 0
2, 380400, Note_on_c, 0, 35, 80
2, 380400, Note_on_c, 0, 47, 80
2, 380639, Note_on_c, 0, 35, 0
2, 380639, Note_on_c, 0, 47, 0
2, 381120, Note_on_c, 0, 40, 80
2, 381120, Note_on_c, 0, 52, 80
2, 381479, Note_on_c, 0, 40, 0
2, 381479, Note_on_c, 0, 52, 0
2, 381840, Note_on_c, 0, 40, 80
2, 381840, Note_on_c, 0, 52, 80
2, 382295, Note_on_c, 0, 40, 0
2, 382295, Note_on_c, 0, 52, 0
2, 382320, Note_on_c, 0, 50, 80
2, 382547, Note_on_c, 0, 50, 0
2, 382560, Note_on_c, 0, 49, 80
2, 382787, Note_on_c, 0, 49, 0
2, 382800, Note_on_c, 0, 47, 80
2, 383027, Note_on_c, 0, 47, 0
2, 383040, Note_on_c, 0, 45, 80
2, 383520, Note_on_c, 0, 33, 80
2, 383951, Note_on_c, 0, 45, 0
2, 383975, Note_on_c, 0, 33, 0
2, 384000, Note_on_c, 0, 33, 80
2, 384000, Note_on_c, 0, 45, 80
2, 384227, Note_on_c, 0, 33, 0
2, 384227, Note_on_c, 0, 45, 0
2, 384240, Note_on_c, 0, 40, 80
2, 384467, Note_on_c, 0, 40, 0
2, 384480, Note_on_c, 0, 45, 80
2, 384707, Note_on_c, 0, 45, 0
2, 384720, Note_on_c, 0, 40, 80
2, 384720, Note_on_c, 0, 52, 80
2, 384947, Note_on_c, 0, 40, 0
2, 384947, Note_on_c, 0, 52, 0
2, 384960, Note_on_c, 0, 47, 80
2, 385187, Note_on_c, 0, 47, 0
2, 385200, Note_on_c, 0, 52, 80
2, 385427, Note_on_c, 0, 52, 0
2, 385440, Note_on_c, 0, 38, 80
2, 385440, Note_on_c, 0, 50, 80
2, 386123, Note_on_c, 0, 38, 0
2, 386123, Note_on_c, 0, 50, 0
2, 386160, Note_on_c, 0, 50, 80
2, 386387, Note_on_c, 0, 50, 0
2, 386400, Note_on_c, 0, 38, 80
2, 386627, Note_on_c, 0, 38, 0
2, 386640, Note_on_c, 0, 50, 80
2, 386867, Note_on_c, 0, 50, 0
2, 386880, Note_on_c, 0, 40, 80
2, 387107, Note_on_c, 0, 40, 0
2, 387120, Note_on_c, 0, 52, 80
2, 387347, Note_on_c, 0, 52, 0
2, 387360, Note_on_c, 0, 40, 80
2, 387587, Note_on_c, 0, 40, 0
2, 387600, Note_on_c, 0, 52, 80
2, 387827, Note_on_c, 0, 52, 0
2, 387840, Note_on_c, 0, 33, 80
2, 387840, Note_on_c, 0, 45, 80
2, 388067, Note_on_c, 0, 33, 0
2, 388067, Note_on_c, 0, 45, 0
2, 388080, Note_on_c, 0, 40, 80
2, 388307, Note_on_c, 0, 40, 0
2, 388320, Note_on_c, 0, 45, 80
2, 388547, Note_on_c, 0, 45, 0
2, 388560, Note_on_c, 0, 40, 80
2, 388560, Note_on_c, 0, 52, 80
2, 388787, Note_on_c, 0, 40, 0
2, 388787, Note_on_c, 0, 52, 0
2, 388800, Note_on_c, 0, 47, 80
2, 389027, Note_on_c, 0, 47, 0
2, 389040, Note_on_c, 0, 52, 80
2, 389267, Note_on_c, 0, 52, 0
2, 389280, Note_on_c, 0, 38, 80
2, 389280, Note_on_c, 0, 50, 80
2, 389963, Note_on_c, 0, 38, 0
2, 389963, Note_on_c, 0, 50, 0
2, 390000, Note_on_c, 0, 50, 80
2, 390227, Note_on_c, 0, 50, 0
2, 390240, Note_on_c, 0, 38, 80
2, 390467, Note_on_c, 0, 38, 0
2, 390480, Note_on_c, 0, 50, 80
2, 390707, Note_on_c, 0, 50, 0
2, 390720, Note_on_c, 0, 40, 80
2, 390947, Note_on_c, 0, 40, 0
2, 390960, Note_on_c, 0, 52, 80
2, 391187, Note_on_c, 0, 52, 0
2, 391200, Note_on_c, 0, 40, 80
2, 391427, Note_on_c, 0, 40, 0
2, 391440, Note_on_c, 0, 52, 80
2, 391667, Note_on_c, 0, 52, 0
2, 391680, Note_on_c, 0, 33, 80
2, 391680, Note_on_c, 0, 45, 80
2, 391907, Note_on_c, 0, 33, 0
2, 391907, Note_on_c, 0, 45, 0
2, 391920, Note_on_c, 0, 40, 80
2, 392147, Note_on_c, 0, 40, 0
2, 392160, Note_on_c, 0, 45, 80
2, 392387, Note_on_c, 0, 45, 0
2, 392400, Note_on_c, 0, 40, 80
2, 392400, Note_on_c, 0, 52, 80
2, 392627, Note_on_c, 0, 40, 0
2, 392627, Note_on_c, 0, 52, 0
2, 392640, Note_on_c, 0, 47, 80
2, 392867, Note_on_c, 0, 47, 0
2, 392880, Note_on_c, 0, 52, 80
2, 393107, Note_on_c, 0, 52, 0
2, 393120, Note_on_c, 0, 38, 80
2, 393120, Note_on_c, 0, 50, 80
2, 393803, Note_on_c, 0, 38, 0
2, 393803, Note_on_c, 0, 50, 0
2, 393840, Note_on_c, 0, 50, 80
2, 394067, Note_on_c, 0, 50, 0
2, 394080, Note_on_c, 0, 38, 80
2, 394307, Note_on_c, 0, 38, 0
2, 394320, Note_on_c, 0, 50, 80
2, 394547, Note_on_c, 0, 50, 0
2, 394560, Note_on_c, 0, 40, 80
2, 394787, Note_on_c, 0, 40, 0
2, 394800, Note_on_c, 0, 52, 80
2, 395027, Note_on_c, 0, 52, 0
2, 395040, Note_on_c, 0, 40, 80
2, 395267, Note_on_c, 0, 40, 0
2, 395280, Note_on_c, 0, 52, 80
2, 395507, Note_on_c, 0, 52, 0
2, 395520, Note_on_c, 0, 33, 80
2, 395520, Note_on_c, 0, 45, 80
2, 395747, Note_on_c, 0, 33, 0
2, 395747, Note_on_c, 0, 45, 0
2, 395760, Note_on_c, 0, 40, 80
2, 395987, Note_on_c, 0, 40, 0
2, 396000, Note_on_c, 0, 45, 80
2, 396227, Note_on_c, 0, 45, 0
2, 396240, Note_on_c, 0, 40, 80
2, 396240, Note_on_c, 0, 52, 80
2, 396467, Note_on_c, 0, 40, 0
2, 396467, Note_on_c, 0, 52, 0
2, 396480, Note_on_c, 0, 47, 80
2, 396707, Note_on_c, 0, 47, 0
2, 396720, Note_on_c, 0, 52, 80
2, 396947, Note_on_c, 0, 52, 0
2, 396960, Note_on_c, 0, 38, 80
2, 396960, Note_on_c, 0, 50, 80
2, 399239, Note_on_c, 0, 38, 0
2, 399239, Note_on_c, 0, 50, 0
1, 0, Note_on_c, 0, 44, 100
1, 683, Note_on_c, 0, 44, 0
1, 720, Note_on_c, 0, 48, 100
1, 1859, Note_on_c, 0, 48, 0
1, 1920, Note_on_c, 0, 44, 100
1, 2603, Note_on_c, 0, 44, 0
1, 2640, Note_on_c, 0, 48, 100
1, 3779, Note_on_c, 0, 48, 0
1, 3840, Note_on_c, 0, 53, 100
1, 4295, Note_on_c, 0, 53, 0
1, 4320, Note_on_c, 0, 58, 100
1, 4547, Note_on_c, 0, 58, 0
1, 4560, Note_on_c, 0, 51, 100
1, 5699, Note_on_c, 0, 51, 0
1, 5760, Note_on_c, 0, 53, 100
1, 6215, Note_on_c, 0, 53, 0
1, 6240, Note_on_c, 0, 58, 100
1, 6467, Note_on_c, 0, 58, 0
1, 6480, Note_on_c, 0, 51, 100
1, 7619, Note_on_c, 0, 51, 0
1, 7680, Note_on_c, 0, 44, 100
1, 8363, Note_on_c, 0, 44, 0
1, 8400, Note_on_c, 0, 48, 100
1, 9539, Note_on_c, 0, 48, 0
1, 9600, Note_on_c, 0, 44, 100
1, 10283, Note_on_c, 0, 44, 0
1, 10320, Note_on_c, 0, 48, 100
1, 11459, Note_on_c, 0, 48, 0
1, 11520, Note_on_c, 0, 53, 100
1, 11975, Note_on_c, 0, 53, 0
1, 12000, Note_on_c, 0, 58, 100
1, 12227, Note_on_c, 0, 58, 0
1, 12240, Note_on_c, 0, 51, 100
1, 13379, Note_on_c, 0, 51, 0
1, 13440, Note_on_c, 0, 53, 100
1, 13895, Note_on_c, 0, 53, 0
1, 13920, Note_on_c, 0, 58, 100
1, 14147, Note_on_c, 0, 58, 0
1, 14160, Note_on_c, 0, 51, 100
1, 15299, Note_on_c, 0, 51, 0
1, 15360, Note_on_c, 0, 44, 100
1, 16043, Note_on_c, 0, 44, 0
1, 16080, Note_on_c, 0, 48, 100
1, 17219, Note_on_c, 0, 48, 0
1, 17280, Note_on_c, 0, 44, 100
1, 17963, Note_on_c, 0, 44, 0
1, 18000, Note_on_c, 0, 48, 100
1, 19139, Note_on_c, 0, 48, 0
1, 19200, Note_on_c, 0, 53, 100
1, 19655, Note_on_c, 0, 53, 0
1, 19680, Note_on_c, 0, 58, 100
1, 19907, Note_on_c, 0, 58, 0
1, 19920, Note_on_c, 0, 51, 100
1, 21059, Note_on_c, 0, 51, 0
1, 21120, Note_on_c, 0, 53, 100
1, 21575, Note_on_c, 0, 53, 0
1, 21600, Note_on_c, 0, 58, 100
1, 21827, Note_on_c, 0, 58, 0
1, 21840, Note_on_c, 0, 51, 100
1, 22979, Note_on_c, 0, 51, 0
1, 23040, Note_on_c, 0, 44, 100
1, 23723, Note_on_c, 0, 44, 0
1, 23760, Note_on_c, 0, 48, 100
1, 24899, Note_on_c, 0, 48, 0
1, 24960, Note_on_c, 0, 44, 100
1, 25643, Note_on_c, 0, 44, 0
1, 25680, Note_on_c, 0, 48, 100
1, 26819, Note_on_c, 0, 48, 0
1, 26880, Note_on_c, 0, 53, 100
1, 27335, Note_on_c, 0, 53, 0
1, 27360, Note_on_c, 0, 58, 100
1, 27587, Note_on_c, 0, 58, 0
1, 27600, Note_on_c, 0, 51, 100
1, 28739, Note_on_c, 0, 51, 0
1, 28800, Note_on_c, 0, 53, 100
1, 29255, Note_on_c, 0, 53, 0
1, 29280, Note_on_c, 0, 58, 100
1, 29507, Note_on_c, 0, 58, 0
1, 29520, Note_on_c, 0, 51, 100
1, 30659, Note_on_c, 0, 51, 0
2, 0, Note_on_c, 1, 68, 100
2, 0, Note_on_c, 1, 72, 100
2, 0, Note_on_c, 1, 75, 100
2, 683, Note_on_c, 1, 68, 0
2, 683, Note_on_c, 1, 72, 0
2, 683, Note_on_c, 1, 75, 0
2, 720, Note_on_c, 1, 67, 100
2, 720, Note_on_c, 1, 72, 100
2, 720, Note_on_c, 1, 75, 100
2, 1175, Note_on_c, 1, 67, 0
2, 1175, Note_on_c, 1, 72, 0
2, 1175, Note_on_c, 1, 75, 0
2, 1200, Note_on_c, 1, 84, 116
2, 1427, Note_on_c, 1, 84, 0
2, 1440, Note_on_c, 1, 82, 105
2, 1553, Note_on_c, 1, 82, 0
2, 1560, Note_on_c, 1, 79, 86
2, 1673, Note_on_c, 1, 79, 0
2, 1680, Note_on_c, 1, 77, 76
2, 1907, Note_on_c, 1, 77, 0
2, 1920, Note_on_c, 1, 68, 100
2, 1920, Note_on_c, 1, 72, 100
2, 1920, Note_on_c, 1, 75, 100
2, 2603, Note_on_c, 1, 68, 0
2, 2603, Note_on_c, 1, 72, 0
2, 2603, Note_on_c, 1, 75, 0
2, 2640, Note_on_c, 1, 67, 100
2, 2640, Note_on_c, 1, 72, 100
2, 2640, Note_on_c, 1, 75, 100
2, 3095, Note_on_c, 1, 67, 0
2, 3095, Note_on_c, 1, 72, 0
2, 3095, Note_on_c, 1, 75, 0
2, 3120, Note_on_c, 1, 84, 118
2, 3347, Note_on_c, 1, 84, 0
2, 3360, Note_on_c, 1, 82, 107
2, 3473, Note_on_c, 1, 82, 0
2, 3480, Note_on_c, 1, 79, 94
2, 3593, Note_on_c, 1, 79, 0
2, 3600, Note_on_c, 1, 77, 83
2, 3827, Note_on_c, 1, 77, 0
2, 3840, Note_on_c, 1, 80, 110
2, 4067, Note_on_c, 1, 80, 0
2, 4080, Note_on_c, 1, 79, 100
2, 4307, Note_on_c, 1, 79, 0
2, 4320, Note_on_c, 1, 75, 85
2, 4439, Note_on_c, 1, 75, 0
2, 4560, Note_on_c, 1, 75, 86
2, 5471, Note_on_c, 1, 75, 0
2, 6240, Note_on_c, 1, 80, 109
2, 6353, Note_on_c, 1, 80, 0
2, 6360, Note_on_c, 1, 79, 96
2, 6473, Note_on_c, 1, 79, 0
2, 6480, Note_on_c, 1, 75, 83
2, 7391, Note_on_c, 1, 75, 0
2, 7680, Note_on_c, 1, 68, 100
2, 7680, Note_on_c, 1, 72, 100
2, 7680, Note_on_c, 1, 75, 100
2, 8363, Note_on_c, 1, 68, 0
2, 8363, Note_on_c, 1, 72, 0
2, 8363, Note_on_c, 1, 75, 0
2, 8400, Note_on_c, 1, 67, 100
2, 8400, Note_on_c, 1, 72, 100
2, 8400, Note_on_c, 1, 75, 100
2, 8855, Note_on_c, 1, 67, 0
2, 8855, Note_on_c, 1, 72, 0
2, 8855, Note_on_c, 1, 75, 0
2, 8880, Note_on_c, 1, 84, 116
2, 9107, Note_on_c, 1, 84, 0
2, 9120, Note_on_c, 1, 82, 105
2, 9233, Note_on_c, 1, 82, 0
2, 9240, Note_on_c, 1, 79, 86
2, 9353, Note_on_c, 1, 79, 0
2, 9360, Note_on_c, 1, 77, 76
2, 9587, Note_on_c, 1, 77, 0
2, 9600, Note_on_c, 1, 68, 100
2, 9600, Note_on_c, 1, 72, 100
2, 9600, Note_on_c, 1, 75, 100
2, 10283, Note_on_c, 1, 68, 0
2, 10283, Note_on_c, 1, 72, 0
2, 10283, Note_on_c, 1, 75, 0
2, 10320, Note_on_c, 1, 67, 100
2, 10320, Note_on_c, 1, 72, 100
2, 10320, Note_on_c, 1, 75, 100
2, 10775, Note_on_c, 1, 67, 0
2, 10775, Note_on_c, 1, 72, 0
2, 10775, Note_on_c, 1, 75, 0
2, 10800, Note_on_c, 1, 84, 118
2, 11027, Note_on_c, 1, 84, 0
2, 11040, Note_on_c, 1, 82, 107
2, 11153, Note_on_c, 1, 82, 0
2, 11160, Note_on_c, 1, 79, 94
2, 11273, Note_on_c, 1, 79, 0
2, 11280, Note_on_c, 1, 77, 83
2, 11507, Note_on_c, 1, 77, 0
2, 11520, Note_on_c, 1, 80, 110
2, 11747, Note_on_c, 1, 80, 0
2, 11760, Note_on_c, 1, 79, 100
2, 11987, Note_on_c, 1, 79, 0
2, 12000, Note_on_c, 1, 75, 85
2, 12119, Note_on_c, 1, 75, 0
2, 12240, Note_on_c, 1, 75, 86
2, 13151, Note_on_c, 1, 75, 0
2, 13920, Note_on_c, 1, 80, 109
2, 14033, Note_on_c, 1, 80, 0
2, 14040, Note_on_c, 1, 79, 96
2, 14153, Note_on_c, 1, 79, 0
2, 14160, Note_on_c, 1, 75, 83
2, 15071, Note_on_c, 1, 75, 0
2, 15360, Note_on_c, 1, 68, 100
2, 15360, Note_on_c, 1, 72, 100
2, 15360, Note_on_c, 1, 75, 100
2, 16043, Note_on_c, 1, 68, 0
2, 16043, Note_on_c, 1, 72, 0
2, 16043, Note_on_c, 1, 75, 0
2, 16080, Note_on_c, 1, 67, 100
2, 16080, Note_on_c, 1, 72, 100
2, 16080, Note_on_c, 1, 75, 100
2, 16535, Note_on_c, 1, 67, 0
2, 16535, Note_on_c, 1, 72, 0
2, 16535, Note_on_c, 1, 75, 0
2, 16560, Note_on_c, 1, 84, 116
2, 16787, Note_on_c, 1, 84, 0
2, 16800, Note_on_c, 1, 82, 105
2, 16913, Note_on_c, 1, 82, 0
2, 16920, Note_on_c, 1, 79, 86
2, 17033, Note_on_c, 1, 79, 0
2, 17040, Note_on_c, 1, 77, 76
2, 17267, Note_on_c, 1, 77, 0
2, 17280, Note_on_c, 1, 68, 100
2, 17280, Note_on_c, 1, 72, 100
2, 17280, Note_on_c, 1, 75, 100
2, 17963, Note_on_c, 1, 68, 0
2, 17963, Note_on_c, 1, 72, 0
2, 17963, Note_on_c, 1, 75, 0
2, 18000, Note_on_c, 1, 67, 100
2, 18000, Note_on_c, 1, 72, 100
2, 18000, Note_on_c, 1, 75, 100
2, 18455, Note_on_c, 1, 67, 0
2, 18455, Note_on_c, 1, 72, 0
2, 18455, Note_on_c, 1, 75, 0
2, 18480, Note_on_c, 1, 84, 118
2, 18707, Note_on_c, 1, 84, 0
2, 18720, Note_on_c, 1, 82, 107
2, 18833, Note_on_c, 1, 82, 0
2, 18840, Note_on_c, 1, 79, 94
2, 18953, Note_on_c, 1, 79, 0
2, 18960, Note_on_c, 1, 77, 83
2, 19187, Note_on_c, 1, 77, 0
2, 19200, Note_on_c, 1, 80, 110
2, 19427, Note_on_c, 1, 80, 0
2, 19440, Note_on_c, 1, 79, 100
2, 19667, Note_on_c, 1, 79, 0
2, 19680, Note_on_c, 1, 75, 85
2, 19799, Note_on_c, 1, 75, 0
2, 19920, Note_on_c, 1, 75, 86
2, 20831, Note_on_c, 1, 75, 0
2, 21600, Note_on_c, 1, 80, 109
2, 21713, Note_on_c, 1, 80, 0
2, 21720, Note_on_c, 1, 79, 96
2, 21833, Note_on_c, 1, 79, 0
2, 21840, Note_on_c, 1, 75, 83
2, 22751, Note_on_c, 1, 75, 0
2, 23040, Note_on_c, 1, 68, 100
2, 23040, Note_on_c, 1, 72, 100
2, 23040, Note_on_c, 1, 75, 100
2, 23723, Note_on_c, 1, 68, 0
2, 23723, Note_on_c, 1, 72, 0
2, 23723, Note_on_c, 1, 75, 0
2, 23760, Note_on_c, 1, 67, 100
2, 23760, Note_on_c, 1, 72, 100
2, 23760, Note_on_c, 1, 75, 100
2, 24215, Note_on_c, 1, 67, 0
2, 24215, Note_on_c, 1, 72, 0
2, 24215, Note_on_c, 1, 75, 0
2, 24240, Note_on_c, 1, 84, 116
2, 24467, Note_on_c, 1, 84, 0
2, 24480, Note_on_c, 1, 82, 105
2, 24593, Note_on_c, 1, 82, 0
2, 24600, Note_on_c, 1, 79, 86
2, 24713, Note_on_c, 1, 79, 0
2, 24720, Note_on_c, 1, 77, 76
2, 24947, Note_on_c, 1, 77, 0
2, 24960, Note_on_c, 1, 68, 100
2, 24960, Note_on_c, 1, 72, 100
2, 24960, Note_on_c, 1, 75, 100
2, 25643, Note_on_c, 1, 68, 0
2, 25643, Note_on_c, 1, 72, 0
2, 25643, Note_on_c, 1, 75, 0
2, 25680, Note_on_c, 1, 67, 100
2, 25680, Note_on_c, 1, 72, 100
2, 25680, Note_on_c, 1, 75, 100
2, 26135, Note_on_c, 1, 67, 0
2, 26135, Note_on_c, 1, 72, 0
2, 26135, Note_on_c, 1, 75, 0
2, 26160, Note_on_c, 1, 84, 118
2, 26387, Note_on_c, 1, 84, 0
2, 26400, Note_on_c, 1, 82, 107
2, 26513, Note_on_c, 1, 82, 0
2, 26520, Note_on_c, 1, 79, 94
2, 26633, Note_on_c, 1, 79, 0
2, 26640, Note_on_c, 1, 77, 83
2, 26867, Note_on_c, 1, 77, 0
2, 26880, Note_on_c, 1, 80, 110
2, 27107, Note_on_c, 1, 80, 0
2, 27120, Note_on_c, 1, 79, 100
2, 27347, Note_on_c, 1, 79, 0
2, 27360, Note_on_c, 1, 75, 85
2, 27479, Note_on_c, 1, 75, 0
2, 27600, Note_on_c, 1, 75, 86
2, 28511, Note_on_c, 1, 75, 0
2, 29280, Note_on_c, 1, 80, 109
2, 29393, Note_on_c, 1, 80, 0
2, 29400, Note_on_c, 1, 79, 96
2, 29513, Note_on_c, 1, 79, 0
2, 29520, Note_on_c, 1, 75, 83
2, 30431, Note_on_c, 1, 75, 0
1, 0, Note_on_c, 0, 70, 81
1, 911, Note_on_c, 0, 70, 0
1, 960, Note_on_c, 0, 65, 80
1, 1415, Note_on_c, 0, 65, 0
1, 1440, Note_on_c, 0, 66, 80
1, 2351, Note_on_c, 0, 66, 0
1, 2400, Note_on_c, 0, 70, 80
1, 3311, Note_on_c, 0, 70, 0
1, 3360, Note_on_c, 0, 80, 80
1, 3815, Note_on_c, 0, 80, 0
1, 3840, Note_on_c, 0, 70, 80
1, 3903, Note_on_c, 0, 73, 80
1, 3966, Note_on_c, 0, 78, 80
1, 5278, Note_on_c, 0, 73, 0
1, 5278, Note_on_c, 0, 78, 0
1, 5279, Note_on_c, 0, 70, 0
1, 5280, Note_on_c, 0, 77, 80
1, 5735, Note_on_c, 0, 77, 0
1, 5760, Note_on_c, 0, 75, 80
1, 7583, Note_on_c, 0, 75, 0
1, 7680, Note_on_c, 0, 70, 80
1, 8591, Note_on_c, 0, 70, 0
1, 8640, Note_on_c, 0, 65, 80
1, 9095, Note_on_c, 0, 65, 0
1, 9120, Note_on_c, 0, 66, 80
1, 10031, Note_on_c, 0, 66, 0
1, 10080, Note_on_c, 0, 70, 80
1, 10991, Note_on_c, 0, 70, 0
1, 11040, Note_on_c, 0, 80, 80
1, 11495, Note_on_c, 0, 80, 0
1, 11520, Note_on_c, 0, 70, 80
1, 11583, Note_on_c, 0, 73, 80
1, 11646, Note_on_c, 0, 78, 80
1, 12958, Note_on_c, 0, 73, 0
1, 12958, Note_on_c, 0, 78, 0
1, 12959, Note_on_c, 0, 70, 0
1, 12960, Note_on_c, 0, 77, 80
1, 13415, Note_on_c, 0, 77, 0
1, 13440, Note_on_c, 0, 75, 80
1, 15263, Note_on_c, 0, 75, 0
1, 16320, Note_on_c, 0, 85, 80
1, 16547, Note_on_c, 0, 85, 0
1, 16560, Note_on_c, 0, 77, 80
1, 16787, Note_on_c, 0, 77, 0
1, 16800, Note_on_c, 0, 80, 80
1, 19079, Note_on_c, 0, 80, 0
1, 19920, Note_on_c, 0, 85, 80
1, 20147, Note_on_c, 0, 85, 0
1, 20160, Note_on_c, 0, 80, 80
1, 20387, Note_on_c, 0, 80, 0
1, 20400, Note_on_c, 0, 77, 80
1, 20627, Note_on_c, 0, 77, 0
1, 20640, Note_on_c, 0, 77, 80
1, 20867, Note_on_c, 0, 77, 0
1, 20880, Note_on_c, 0, 75, 80
1, 21107, Note_on_c, 0, 75, 0
1, 21120, Note_on_c, 0, 75, 80
1, 21347, Note_on_c, 0, 75, 0
1, 21360, Note_on_c, 0, 77, 80
1, 21587, Note_on_c, 0, 77, 0
1, 21600, Note_on_c, 0, 75, 80
1, 21827, Note_on_c, 0, 75, 0
1, 21840, Note_on_c, 0, 75, 80
1, 22295, Note_on_c, 0, 75, 0
1, 22320, Note_on_c, 0, 73, 80
1, 22547, Note_on_c, 0, 73, 0
1, 22560, Note_on_c, 0, 68, 80
1, 23015, Note_on_c, 0, 68, 0
1, 23040, Note_on_c, 0, 70, 80
1, 23951, Note_on_c, 0, 70, 0
1, 24000, Note_on_c, 0, 85, 80
1, 24227, Note_on_c, 0, 85, 0
1, 24240, Note_on_c, 0, 77, 80
1, 24467, Note_on_c, 0, 77, 0
1, 24480, Note_on_c, 0, 80, 80
1, 26759, Note_on_c, 0, 80, 0
1, 27600, Note_on_c, 0, 85, 80
1, 27827, Note_on_c, 0, 85, 0
1, 27840, Note_on_c, 0, 80, 80
1, 28067, Note_on_c, 0, 80, 0
1, 28080, Note_on_c, 0, 77, 80
1, 28307, Note_on_c, 0, 77, 0
1, 28320, Note_on_c, 0, 77, 80
1, 28547, Note_on_c, 0, 77, 0
1, 28560, Note_on_c, 0, 75, 80
1, 28787, Note_on_c, 0, 75, 0
1, 28800, Note_on_c, 0, 75, 80
1, 29027, Note_on_c, 0, 75, 0
1, 29040, Note_on_c, 0, 77, 80
1, 29267, Note_on_c, 0, 77, 0
1, 29280, Note_on_c, 0, 75, 80
1, 29507, Note_on_c, 0, 75, 0
1, 29520, Note_on_c, 0, 75, 80
1, 29975, Note_on_c, 0, 75, 0
1, 30000, Note_on_c, 0, 73, 80
1, 30227, Note_on_c, 0, 73, 0
1, 30240, Note_on_c, 0, 68, 80
1, 30695, Note_on_c, 0, 68, 0
1, 30720, Note_on_c, 0, 61, 80
1, 30783, Note_on_c, 0, 65, 80
1, 30847, Note_on_c, 0, 70, 80
1, 31678, Note_on_c, 0, 65, 0
1, 31678, Note_on_c, 0, 70, 0
1, 31679, Note_on_c, 0, 61, 0
1, 31680, Note_on_c, 0, 65, 80
1, 32135, Note_on_c, 0, 65, 0
1, 32160, Note_on_c, 0, 66, 80
1, 33071, Note_on_c, 0, 66, 0
1, 33120, Note_on_c, 0, 70, 80
1, 34031, Note_on_c, 0, 70, 0
1, 34080, Note_on_c, 0, 80, 80
1, 34535, Note_on_c, 0, 80, 0
1, 34560, Note_on_c, 0, 70, 80
1, 34623, Note_on_c, 0, 73, 80
1, 34686, Note_on_c, 0, 78, 80
1, 35998, Note_on_c, 0, 73, 0
1, 35998, Note_on_c, 0, 78, 0
1, 35999, Note_on_c, 0, 70, 0
1, 36000, Note_on_c, 0, 77, 80
1, 36455, Note_on_c, 0, 77, 0
1, 36480, Note_on_c, 0, 75, 80
1, 38303, Note_on_c, 0, 75, 0
1, 38400, Note_on_c, 0, 61, 80
1, 38463, Note_on_c, 0, 65, 80
1, 38527, Note_on_c, 0, 70, 80
1, 39358, Note_on_c, 0, 65, 0
1, 39358, Note_on_c, 0, 70, 0
1, 39359, Note_on_c, 0, 61, 0
1, 39360, Note_on_c, 0, 65, 80
1, 39815, Note_on_c, 0, 65, 0
1, 39840, Note_on_c, 0, 66, 80
1, 40751, Note_on_c, 0, 66, 0
1, 40800, Note_on_c, 0, 70, 80
1, 41711, Note_on_c, 0, 70, 0
1, 41760, Note_on_c, 0, 80, 80
1, 42215, Note_on_c, 0, 80, 0
1, 42240, Note_on_c, 0, 70, 80
1, 42303, Note_on_c, 0, 73, 80
1, 42366, Note_on_c, 0, 78, 80
1, 43678, Note_on_c, 0, 73, 0
1, 43678, Note_on_c, 0, 78, 0
1, 43679, Note_on_c, 0, 70, 0
1, 43680, Note_on_c, 0, 77, 80
1, 44135, Note_on_c, 0, 77, 0
1, 44160, Note_on_c, 0, 75, 80
1, 45983, Note_on_c, 0, 75, 0
1, 47040, Note_on_c, 0, 85, 80
1, 47267, Note_on_c, 0, 85, 0
1, 47280, Note_on_c, 0, 77, 80
1, 47507, Note_on_c, 0, 77, 0
1, 47520, Note_on_c, 0, 80, 80
1, 49799, Note_on_c, 0, 80, 0
1, 50640, Note_on_c, 0, 85, 80
1, 50867, Note_on_c, 0, 85, 0
1, 50880, Note_on_c, 0, 80, 80
1, 51107, Note_on_c, 0, 80, 0
1, 51120, Note_on_c, 0, 77, 80
1, 51347, Note_on_c, 0, 77, 0
1, 51360, Note_on_c, 0, 77, 80
1, 51587, Note_on_c, 0, 77, 0
1, 51600, Note_on_c, 0, 75, 80
1, 51827, Note_on_c, 0, 75, 0
1, 51840, Note_on_c, 0, 75, 80
1, 52067, Note_on_c, 0, 75, 0
1, 52080, Note_on_c, 0, 77, 80
1, 52307, Note_on_c, 0, 77, 0
1, 52320, Note_on_c, 0, 75, 80
1, 52547, Note_on_c, 0, 75, 0
1, 52560, Note_on_c, 0, 75, 80
1, 53015, Note_on_c, 0, 75, 0
1, 53040, Note_on_c, 0, 73, 80
1, 53267, Note_on_c, 0, 73, 0
1, 53280, Note_on_c, 0, 68, 80
1, 53735, Note_on_c, 0, 68, 0
1, 53760, Note_on_c, 0, 70, 80
1, 54671, Note_on_c, 0, 70, 0
1, 54720, Note_on_c, 0, 85, 80
1, 54947, Note_on_c, 0, 85, 0
1, 54960, Note_on_c, 0, 77, 80
1, 55187, Note_on_c, 0, 77, 0
1, 55200, Note_on_c, 0, 80, 80
1, 57479, Note_on_c, 0, 80, 0
1, 58320, Note_on_c, 0, 85, 80
1, 58547, Note_on_c, 0, 85, 0
1, 58560, Note_on_c, 0, 80, 80
1, 58787, Note_on_c, 0, 80, 0
1, 58800, Note_on_c, 0, 77, 80
1, 59027, Note_on_c, 0, 77, 0
1, 59040, Note_on_c, 0, 77, 80
1, 59267, Note_on_c, 0, 77, 0
1, 59280, Note_on_c, 0, 75, 80
1, 59507, Note_on_c, 0, 75, 0
1, 59520, Note_on_c, 0, 75, 80
1, 59747, Note_on_c, 0, 75, 0
1, 59760, Note_on_c, 0, 77, 80
1, 59987, Note_on_c, 0, 77, 0
1, 60000, Note_on_c, 0, 75, 80
1, 60227, Note_on_c, 0, 75, 0
1, 60240, Note_on_c, 0, 75, 80
1, 60695, Note_on_c, 0, 75, 0
1, 60720, Note_on_c, 0, 73, 80
1, 60947, Note_on_c, 0, 73, 0
1, 60960, Note_on_c, 0, 68, 80
1, 61415, Note_on_c, 0, 68, 0
1, 61440, Note_on_c, 0, 70, 80
1, 61895, Note_on_c, 0, 70, 0
1, 61920, Note_on_c, 0, 70, 80
1, 62147, Note_on_c, 0, 70, 0
1, 62160, Note_on_c, 0, 70, 80
1, 62387, Note_on_c, 0, 70, 0
1, 62400, Note_on_c, 0, 70, 80
1, 62855, Note_on_c, 0, 70, 0
1, 62880, Note_on_c, 0, 70, 80
1, 63335, Note_on_c, 0, 70, 0
1, 63360, Note_on_c, 0, 70, 80
1, 63815, Note_on_c, 0, 70, 0
1, 63840, Note_on_c, 0, 73, 80
1, 64067, Note_on_c, 0, 73, 0
1, 64080, Note_on_c, 0, 73, 80
1, 64307, Note_on_c, 0, 73, 0
1, 64320, Note_on_c, 0, 73, 80
1, 64547, Note_on_c, 0, 73, 0
1, 64560, Note_on_c, 0, 73, 80
1, 64787, Note_on_c, 0, 73, 0
1, 64800, Note_on_c, 0, 80, 80
1, 65255, Note_on_c, 0, 80, 0
1, 65280, Note_on_c, 0, 78, 80
1, 65735, Note_on_c, 0, 78, 0
1, 65760, Note_on_c, 0, 78, 80
1, 65987, Note_on_c, 0, 78, 0
1, 66000, Note_on_c, 0, 78, 80
1, 66227, Note_on_c, 0, 78, 0
1, 66240, Note_on_c, 0, 78, 80
1, 66467, Note_on_c, 0, 78, 0
1, 66480, Note_on_c, 0, 78, 80
1, 66707, Note_on_c, 0, 78, 0
1, 66720, Note_on_c, 0, 77, 80
1, 67175, Note_on_c, 0, 77, 0
1, 67200, Note_on_c, 0, 75, 80
1, 67655, Note_on_c, 0, 75, 0
1, 67680, Note_on_c, 0, 75, 80
1, 67907, Note_on_c, 0, 75, 0
1, 67920, Note_on_c, 0, 75, 80
1, 68147, Note_on_c, 0, 75, 0
1, 68160, Note_on_c, 0, 75, 80
1, 68387, Note_on_c, 0, 75, 0
1, 68400, Note_on_c, 0, 75, 80
1, 68627, Note_on_c, 0, 75, 0
1, 68640, Note_on_c, 0, 75, 80
1, 68867, Note_on_c, 0, 75, 0
1, 68880, Note_on_c, 0, 75, 80
1, 69107, Note_on_c, 0, 75, 0
1, 69120, Note_on_c, 0, 70, 80
1, 69575, Note_on_c, 0, 70, 0
1, 69600, Note_on_c, 0, 70, 80
1, 69827, Note_on_c, 0, 70, 0
1, 69840, Note_on_c, 0, 70, 80
1, 70067, Note_on_c, 0, 70, 0
1, 70080, Note_on_c, 0, 70, 80
1, 70535, Note_on_c, 0, 70, 0
1, 70560, Note_on_c, 0, 70, 80
1, 71015, Note_on_c, 0, 70, 0
1, 71040, Note_on_c, 0, 70, 80
1, 71495, Note_on_c, 0, 70, 0
1, 71520, Note_on_c, 0, 73, 80
1, 71747, Note_on_c, 0, 73, 0
1, 71760, Note_on_c, 0, 73, 80
1, 71987, Note_on_c, 0, 73, 0
1, 72000, Note_on_c, 0, 73, 80
1, 72227, Note_on_c, 0, 73, 0
1, 72240, Note_on_c, 0, 73, 80
1, 72467, Note_on_c, 0, 73, 0
1, 72480, Note_on_c, 0, 80, 80
1, 72935, Note_on_c, 0, 80, 0
1, 72960, Note_on_c, 0, 78, 80
1, 73415, Note_on_c, 0, 78, 0
1, 73440, Note_on_c, 0, 78, 80
1, 73667, Note_on_c, 0, 78, 0
1, 73680, Note_on_c, 0, 78, 80
1, 73907, Note_on_c, 0, 78, 0
1, 73920, Note_on_c, 0, 78, 80
1, 74147, Note_on_c, 0, 78, 0
1, 74160, Note_on_c, 0, 78, 80
1, 74387, Note_on_c, 0, 78, 0
1, 74400, Note_on_c, 0, 77, 80
1, 74855, Note_on_c, 0, 77, 0
1, 74880, Note_on_c, 0, 75, 80
1, 75335, Note_on_c, 0, 75, 0
1, 75360, Note_on_c, 0, 75, 80
1, 75815, Note_on_c, 0, 75, 0
1, 75840, Note_on_c, 0, 73, 80
1, 76067, Note_on_c, 0, 73, 0
1, 76080, Note_on_c, 0, 75, 80
1, 76307, Note_on_c, 0, 75, 0
1, 76320, Note_on_c, 0, 77, 80
1, 76547, Note_on_c, 0, 77, 0
1, 76560, Note_on_c, 0, 77, 80
1, 77015, Note_on_c, 0, 77, 0
1, 77040, Note_on_c, 0, 75, 80
1, 77267, Note_on_c, 0, 75, 0
1, 77280, Note_on_c, 0, 73, 80
1, 77735, Note_on_c, 0, 73, 0
1, 77760, Note_on_c, 0, 73, 80
1, 78215, Note_on_c, 0, 73, 0
1, 78240, Note_on_c, 0, 75, 80
1, 78695, Note_on_c, 0, 75, 0
1, 79680, Note_on_c, 0, 73, 80
1, 80135, Note_on_c, 0, 73, 0
1, 80160, Note_on_c, 0, 73, 80
1, 80387, Note_on_c, 0, 73, 0
1, 80400, Note_on_c, 0, 77, 80
1, 80855, Note_on_c, 0, 77, 0
1, 80880, Note_on_c, 0, 75, 80
1, 81107, Note_on_c, 0, 75, 0
1, 81120, Note_on_c, 0, 73, 80
1, 81575, Note_on_c, 0, 73, 0
1, 81600, Note_on_c, 0, 73, 80
1, 82055, Note_on_c, 0, 73, 0
1, 82080, Note_on_c, 0, 80, 80
1, 82535, Note_on_c, 0, 80, 0
1, 82560, Note_on_c, 0, 75, 80
1, 83471, Note_on_c, 0, 75, 0
1, 83520, Note_on_c, 0, 73, 80
1, 83747, Note_on_c, 0, 73, 0
1, 83760, Note_on_c, 0, 75, 80
1, 83987, Note_on_c, 0, 75, 0
1, 84000, Note_on_c, 0, 77, 80
1, 84227, Note_on_c, 0, 77, 0
1, 84240, Note_on_c, 0, 77, 80
1, 84695, Note_on_c, 0, 77, 0
1, 84720, Note_on_c, 0, 75, 80
1, 84947, Note_on_c, 0, 75, 0
1, 84960, Note_on_c, 0, 73, 80
1, 85415, Note_on_c, 0, 73, 0
1, 85440, Note_on_c, 0, 73, 80
1, 85895, Note_on_c, 0, 73, 0
1, 85920, Note_on_c, 0, 75, 80
1, 86375, Note_on_c, 0, 75, 0
1, 87360, Note_on_c, 0, 73, 80
1, 87587, Note_on_c, 0, 73, 0
1, 87600, Note_on_c, 0, 75, 80
1, 87827, Note_on_c, 0, 75, 0
1, 87840, Note_on_c, 0, 77, 80
1, 88067, Note_on_c, 0, 77, 0
1, 88080, Note_on_c, 0, 77, 80
1, 88535, Note_on_c, 0, 77, 0
1, 88560, Note_on_c, 0, 73, 80
1, 88787, Note_on_c, 0, 73, 0
1, 88800, Note_on_c, 0, 73, 80
1, 89027, Note_on_c, 0, 73, 0
1, 89040, Note_on_c, 0, 73, 80
1, 89267, Note_on_c, 0, 73, 0
1, 89280, Note_on_c, 0, 73, 80
1, 89507, Note_on_c, 0, 73, 0
1, 89520, Note_on_c, 0, 78, 80
1, 89747, Note_on_c, 0, 78, 0
1, 89760, Note_on_c, 0, 77, 80
1, 89987, Note_on_c, 0, 77, 0
1, 90000, Note_on_c, 0, 75, 80
1, 90455, Note_on_c, 0, 75, 0
1, 90480, Note_on_c, 0, 73, 80
1, 90707, Note_on_c, 0, 73, 0
1, 90720, Note_on_c, 0, 73, 80
1, 90947, Note_on_c, 0, 73, 0
1, 90960, Note_on_c, 0, 73, 80
1, 91187, Note_on_c, 0, 73, 0
1, 91200, Note_on_c, 0, 73, 80
1, 91427, Note_on_c, 0, 73, 0
1, 91440, Note_on_c, 0, 73, 80
1, 91667, Note_on_c, 0, 73, 0
1, 91680, Note_on_c, 0, 73, 80
1, 91907, Note_on_c, 0, 73, 0
1, 91920, Note_on_c, 0, 73, 80
1, 92147, Note_on_c, 0, 73, 0
1, 92160, Note_on_c, 0, 61, 80
1, 92160, Note_on_c, 0, 65, 80
1, 92160, Note_on_c, 0, 70, 80
1, 93983, Note_on_c, 0, 61, 0
1, 93983, Note_on_c, 0, 65, 0
1, 93983, Note_on_c, 0, 70, 0
1, 95520, Note_on_c, 0, 77, 80
1, 95975, Note_on_c, 0, 77, 0
1, 96000, Note_on_c, 0, 66, 80
1, 96000, Note_on_c, 0, 70, 80
1, 96000, Note_on_c, 0, 77, 80
1, 96911, Note_on_c, 0, 66, 0
1, 96911, Note_on_c, 0, 70, 0
1, 96911, Note_on_c, 0, 77, 0
1, 96960, Note_on_c, 0, 75, 80
1, 97187, Note_on_c, 0, 75, 0
1, 97200, Note_on_c, 0, 77, 80
1, 97427, Note_on_c, 0, 77, 0
1, 97440, Note_on_c, 0, 75, 80
1, 97895, Note_on_c, 0, 75, 0
1, 97920, Note_on_c, 0, 68, 80
1, 97920, Note_on_c, 0, 75, 80
1, 98147, Note_on_c, 0, 68, 0
1, 98147, Note_on_c, 0, 75, 0
1, 98160, Note_on_c, 0, 77, 80
1, 98387, Note_on_c, 0, 77, 0
1, 98400, Note_on_c, 0, 75, 80
1, 98627, Note_on_c, 0, 75, 0
1, 98640, Note_on_c, 0, 75, 80
1, 99095, Note_on_c, 0, 75, 0
1, 99120, Note_on_c, 0, 73, 80
1, 99347, Note_on_c, 0, 73, 0
1, 99360, Note_on_c, 0, 68, 80
1, 99815, Note_on_c, 0, 68, 0
1, 99840, Note_on_c, 0, 61, 80
1, 99840, Note_on_c, 0, 65, 80
1, 99840, Note_on_c, 0, 70, 80
1, 101663, Note_on_c, 0, 61, 0
1, 101663, Note_on_c, 0, 65, 0
1, 101663, Note_on_c, 0, 70, 0
1, 102960, Note_on_c, 0, 73, 80
1, 103187, Note_on_c, 0, 73, 0
1, 103200, Note_on_c, 0, 73, 80
1, 103427, Note_on_c, 0, 73, 0
1, 103440, Note_on_c, 0, 75, 80
1, 103667, Note_on_c, 0, 75, 0
1, 103680, Note_on_c, 0, 77, 80
1, 103907, Note_on_c, 0, 77, 0
1, 103920, Note_on_c, 0, 75, 80
1, 104147, Note_on_c, 0, 75, 0
1, 104160, Note_on_c, 0, 73, 80
1, 104615, Note_on_c, 0, 73, 0
1, 104640, Note_on_c, 0, 75, 80
1, 104867, Note_on_c, 0, 75, 0
1, 104880, Note_on_c, 0, 77, 80
1, 105107, Note_on_c, 0, 77, 0
1, 105120, Note_on_c, 0, 75, 80
1, 105575, Note_on_c, 0, 75, 0
1, 105600, Note_on_c, 0, 75, 80
1, 105827, Note_on_c, 0, 75, 0
1, 105840, Note_on_c, 0, 77, 80
1, 106067, Note_on_c, 0, 77, 0
1, 106080, Note_on_c, 0, 75, 80
1, 106307, Note_on_c, 0, 75, 0
1, 106320, Note_on_c, 0, 75, 80
1, 106547, Note_on_c, 0, 75, 0
1, 106560, Note_on_c, 0, 75, 80
1, 107471, Note_on_c, 0, 75, 0
1, 111840, Note_on_c, 0, 80, 80
1, 112067, Note_on_c, 0, 80, 0
1, 112080, Note_on_c, 0, 80, 80
1, 112307, Note_on_c, 0, 80, 0
1, 112320, Note_on_c, 0, 80, 80
1, 112547, Note_on_c, 0, 80, 0
1, 112560, Note_on_c, 0, 78, 80
1, 112787, Note_on_c, 0, 78, 0
1, 112800, Note_on_c, 0, 78, 80
1, 113027, Note_on_c, 0, 78, 0
1, 113040, Note_on_c, 0, 77, 80
1, 113267, Note_on_c, 0, 77, 0
1, 113280, Note_on_c, 0, 77, 80
1, 113507, Note_on_c, 0, 77, 0
1, 113520, Note_on_c, 0, 75, 80
1, 113747, Note_on_c, 0, 75, 0
1, 113760, Note_on_c, 0, 75, 80
1, 113987, Note_on_c, 0, 75, 0
1, 114000, Note_on_c, 0, 73, 80
1, 114227, Note_on_c, 0, 73, 0
1, 114240, Note_on_c, 0, 73, 80
1, 114467, Note_on_c, 0, 73, 0
1, 114480, Note_on_c, 0, 73, 80
1, 114707, Note_on_c, 0, 73, 0
1, 114720, Note_on_c, 0, 68, 80
1, 114947, Note_on_c, 0, 68, 0
1, 114960, Note_on_c, 0, 70, 80
1, 115187, Note_on_c, 0, 70, 0
1, 119520, Note_on_c, 0, 80, 80
1, 119747, Note_on_c, 0, 80, 0
1, 119760, Note_on_c, 0, 80, 80
1, 119987, Note_on_c, 0, 80, 0
1, 120000, Note_on_c, 0, 80, 80
1, 120227, Note_on_c, 0, 80, 0
1, 120240, Note_on_c, 0, 78, 80
1, 120467, Note_on_c, 0, 78, 0
1, 120480, Note_on_c, 0, 78, 80
1, 120707, Note_on_c, 0, 78, 0
1, 120720, Note_on_c, 0, 77, 80
1, 120947, Note_on_c, 0, 77, 0
1, 120960, Note_on_c, 0, 75, 80
1, 121187, Note_on_c, 0, 75, 0
1, 121200, Note_on_c, 0, 77, 80
1, 121427, Note_on_c, 0, 77, 0
1, 121440, Note_on_c, 0, 75, 80
1, 121667, Note_on_c, 0, 75, 0
1, 121680, Note_on_c, 0, 75, 80
1, 122135, Note_on_c, 0, 75, 0
1, 122160, Note_on_c, 0, 73, 80
1, 122387, Note_on_c, 0, 73, 0
1, 122400, Note_on_c, 0, 68, 80
1, 122855, Note_on_c, 0, 68, 0
1, 122880, Note_on_c, 0, 61, 80
1, 122880, Note_on_c, 0, 65, 80
1, 122880, Note_on_c, 0, 70, 80
1, 124703, Note_on_c, 0, 61, 0
1, 124703, Note_on_c, 0, 65, 0
1, 124703, Note_on_c, 0, 70, 0
2, 0, Note_on_c, 0, 58, 80
2, 0, Note_on_c, 0, 61, 80
2, 0, Note_on_c, 0, 65, 80
2, 911, Note_on_c, 0, 58, 0
2, 911, Note_on_c, 0, 61, 0
2, 911, Note_on_c, 0, 65, 0
2, 1440, Note_on_c, 0, 54, 80
2, 1440, Note_on_c, 0, 58, 80
2, 1440, Note_on_c, 0, 61, 80
2, 3719, Note_on_c, 0, 54, 0
2, 3719, Note_on_c, 0, 58, 0
2, 3719, Note_on_c, 0, 61, 0
2, 3840, Note_on_c, 0, 54, 80
2, 3840, Note_on_c, 0, 58, 80
2, 3840, Note_on_c, 0, 61, 80
2, 3840, Note_on_c, 0, 66, 80
2, 5663, Note_on_c, 0, 54, 0
2, 5663, Note_on_c, 0, 58, 0
2, 5663, Note_on_c, 0, 61, 0
2, 5663, Note_on_c, 0, 66, 0
2, 5760, Note_on_c, 0, 56, 80
2, 5760, Note_on_c, 0, 60, 80
2, 5760, Note_on_c, 0, 63, 80
2, 7583, Note_on_c, 0, 56, 0
2, 7583, Note_on_c, 0, 60, 0
2, 7583, Note_on_c, 0, 63, 0
2, 7680, Note_on_c, 0, 58, 80
2, 7680, Note_on_c, 0, 61, 80
2, 7680, Note_on_c, 0, 65, 80
2, 8591, Note_on_c, 0, 58, 0
2, 8591, Note_on_c, 0, 61, 0
2, 8591, Note_on_c, 0, 65, 0
2, 9120, Note_on_c, 0, 54, 80
2, 9120, Note_on_c, 0, 58, 80
2, 9120, Note_on_c, 0, 61, 80
2, 11399, Note_on_c, 0, 54, 0
2, 11399, Note_on_c, 0, 58, 0
2, 11399, Note_on_c, 0, 61, 0
2, 11520, Note_on_c, 0, 54, 80
2, 11520, Note_on_c, 0, 58, 80
2, 11520, Note_on_c, 0, 61, 80
2, 11520, Note_on_c, 0, 66, 80
2, 13343, Note_on_c, 0, 54, 0
2, 13343, Note_on_c, 0, 58, 0
2, 13343, Note_on_c, 0, 61, 0
2, 13343, Note_on_c, 0, 66, 0
2, 13440, Note_on_c, 0, 56, 80
2, 13440, Note_on_c, 0, 60, 80
2, 13440, Note_on_c, 0, 63, 80
2, 15263, Note_on_c, 0, 56, 0
2, 15263, Note_on_c, 0, 60, 0
2, 15263, Note_on_c, 0, 63, 0
2, 15360, Note_on_c, 0, 53, 80
2, 15360, Note_on_c, 0, 58, 80
2, 15360, Note_on_c, 0, 61, 80
2, 15360, Note_on_c, 0, 65, 80
2, 17183, Note_on_c, 0, 53, 0
2, 17183, Note_on_c, 0, 58, 0
2, 17183, Note_on_c, 0, 61, 0
2, 17183, Note_on_c, 0, 65, 0
2, 17280, Note_on_c, 0, 54, 80
2, 17280, Note_on_c, 0, 58, 80
2, 17280, Note_on_c, 0, 61, 80
2, 17280, Note_on_c, 0, 66, 80
2, 19103, Note_on_c, 0, 54, 0
2, 19103, Note_on_c, 0, 58, 0
2, 19103, Note_on_c, 0, 61, 0
2, 19103, Note_on_c, 0, 66, 0
2, 19200, Note_on_c, 0, 53, 80
2, 19200, Note_on_c, 0, 58, 80
2, 19200, Note_on_c, 0, 61, 80
2, 19200, Note_on_c, 0, 65, 80
2, 21023, Note_on_c, 0, 53, 0
2, 21023, Note_on_c, 0, 58, 0
2, 21023, Note_on_c, 0, 61, 0
2, 21023, Note_on_c, 0, 65, 0
2, 21120, Note_on_c, 0, 51, 80
2, 21120, Note_on_c, 0, 54, 80
2, 21120, Note_on_c, 0, 58, 80
2, 21120, Note_on_c, 0, 63, 80
2, 22943, Note_on_c, 0, 51, 0
2, 22943, Note_on_c, 0, 54, 0
2, 22943, Note_on_c, 0, 58, 0
2, 22943, Note_on_c, 0, 63, 0
2, 23040, Note_on_c, 0, 53, 80
2, 23040, Note_on_c, 0, 58, 80
2, 23040, Note_on_c, 0, 61, 80
2, 23040, Note_on_c, 0, 65, 80
2, 24863, Note_on_c, 0, 53, 0
2, 24863, Note_on_c, 0, 58, 0
2, 24863, Note_on_c, 0, 61, 0
2, 24863, Note_on_c, 0, 65, 0
2, 24960, Note_on_c, 0, 54, 80
2, 24960, Note_on_c, 0, 58, 80
2, 24960, Note_on_c, 0, 61, 80
2, 24960, Note_on_c, 0, 66, 80
2, 26783, Note_on_c, 0, 54, 0
2, 26783, Note_on_c, 0, 58, 0
2, 26783, Note_on_c, 0, 61, 0
2, 26783, Note_on_c, 0, 66, 0
2, 26880, Note_on_c, 0, 53, 80
2, 26880, Note_on_c, 0, 58, 80
2, 26880, Note_on_c, 0, 61, 80
2, 26880, Note_on_c, 0, 65, 80
2, 28703, Note_on_c, 0, 53, 0
2, 28703, Note_on_c, 0, 58, 0
2, 28703, Note_on_c, 0, 61, 0
2, 28703, Note_on_c, 0, 65, 0
2, 28800, Note_on_c, 0, 51, 80
2, 28800, Note_on_c, 0, 54, 80
2, 28800, Note_on_c, 0, 58, 80
2, 28800, Note_on_c, 0, 63, 80
2, 30623, Note_on_c, 0, 51, 0
2, 30623, Note_on_c, 0, 54, 0
2, 30623, Note_on_c, 0, 58, 0
2, 30623, Note_on_c, 0, 63, 0
2, 30720, Note_on_c, 0, 46, 80
2, 31631, Note_on_c, 0, 46, 0
2, 31680, Note_on_c, 0, 41, 80
2, 31680, Note_on_c, 0, 53, 80
2, 32135, Note_on_c, 0, 41, 0
2, 32135, Note_on_c, 0, 53, 0
2, 32160, Note_on_c, 0, 42, 80
2, 32160, Note_on_c, 0, 49, 80
2, 32160, Note_on_c, 0, 54, 80
2, 34439, Note_on_c, 0, 42, 0
2, 34439, Note_on_c, 0, 49, 0
2, 34439, Note_on_c, 0, 54, 0
2, 34560, Note_on_c, 0, 42, 80
2, 34560, Note_on_c, 0, 46, 80
2, 34560, Note_on_c, 0, 49, 80
2, 34560, Note_on_c, 0, 53, 80
2, 36383, Note_on_c, 0, 42, 0
2, 36383, Note_on_c, 0, 46, 0
2, 36383, Note_on_c, 0, 49, 0
2, 36383, Note_on_c, 0, 53, 0
2, 36480, Note_on_c, 0, 44, 80
2, 36480, Note_on_c, 0, 48, 80
2, 36480, Note_on_c, 0, 51, 80
2, 38303, Note_on_c, 0, 44, 0
2, 38303, Note_on_c, 0, 48, 0
2, 38303, Note_on_c, 0, 51, 0
2, 38400, Note_on_c, 0, 46, 80
2, 39311, Note_on_c, 0, 46, 0
2, 39360, Note_on_c, 0, 41, 80
2, 39360, Note_on_c, 0, 53, 80
2, 39815, Note_on_c, 0, 41, 0
2, 39815, Note_on_c, 0, 53, 0
2, 39840, Note_on_c, 0, 42, 80
2, 39840, Note_on_c, 0, 49, 80
2, 39840, Note_on_c, 0, 54, 80
2, 42119, Note_on_c, 0, 42, 0
2, 42119, Note_on_c, 0, 49, 0
2, 42119, Note_on_c, 0, 54, 0
2, 42240, Note_on_c, 0, 42, 80
2, 42240, Note_on_c, 0, 46, 80
2, 42240, Note_on_c, 0, 49, 80
2, 42240, Note_on_c, 0, 53, 80
2, 44063, Note_on_c, 0, 42, 0
2, 44063, Note_on_c, 0, 46, 0
2, 44063, Note_on_c, 0, 49, 0
2, 44063, Note_on_c, 0, 53, 0
2, 44160, Note_on_c, 0, 44, 80
2, 44160, Note_on_c, 0, 48, 80
2, 44160, Note_on_c, 0, 51, 80
2, 45983, Note_on_c, 0, 44, 0
2, 45983, Note_on_c, 0, 48, 0
2, 45983, Note_on_c, 0, 51, 0
2, 46080, Note_on_c, 0, 41, 80
2, 46080, Note_on_c, 0, 46, 80
2, 46080, Note_on_c, 0, 49, 80
2, 46080, Note_on_c, 0, 53, 80
2, 47903, Note_on_c, 0, 41, 0
2, 47903, Note_on_c, 0, 46, 0
2, 47903, Note_on_c, 0, 49, 0
2, 47903, Note_on_c, 0, 53, 0
2, 48000, Note_on_c, 0, 42, 80
2, 48000, Note_on_c, 0, 46, 80
2, 48000, Note_on_c, 0, 49, 80
2, 48000, Note_on_c, 0, 61, 80
2, 49823, Note_on_c, 0, 42, 0
2, 49823, Note_on_c, 0, 46, 0
2, 49823, Note_on_c, 0, 49, 0
2, 49823, Note_on_c, 0, 61, 0
2, 49920, Note_on_c, 0, 41, 80
2, 49920, Note_on_c, 0, 46, 80
2, 49920, Note_on_c, 0, 49, 80
2, 49920, Note_on_c, 0, 53, 80
2, 51743, Note_on_c, 0, 41, 0
2, 51743, Note_on_c, 0, 46, 0
2, 51743, Note_on_c, 0, 49, 0
2, 51743, Note_on_c, 0, 53, 0
2, 51840, Note_on_c, 0, 39, 80
2, 51840, Note_on_c, 0, 42, 80
2, 51840, Note_on_c, 0, 46, 80
2, 51840, Note_on_c, 0, 51, 80
2, 53663, Note_on_c, 0, 39, 0
2, 53663, Note_on_c, 0, 42, 0
2, 53663, Note_on_c, 0, 46, 0
2, 53663, Note_on_c, 0, 51, 0
2, 53760, Note_on_c, 0, 41, 80
2, 53760, Note_on_c, 0, 46, 80
2, 53760, Note_on_c, 0, 49, 80
2, 53760, Note_on_c, 0, 53, 80
2, 55583, Note_on_c, 0, 41, 0
2, 55583, Note_on_c, 0, 46, 0
2, 55583, Note_on_c, 0, 49, 0
2, 55583, Note_on_c, 0, 53, 0
2, 55680, Note_on_c, 0, 41, 80
2, 55680, Note_on_c, 0, 46, 80
2, 55680, Note_on_c, 0, 49, 80
2, 55680, Note_on_c, 0, 54, 80
2, 57503, Note_on_c, 0, 41, 0
2, 57503, Note_on_c, 0, 46, 0
2, 57503, Note_on_c, 0, 49, 0
2, 57503, Note_on_c, 0, 54, 0
2, 57600, Note_on_c, 0, 41, 80
2, 57600, Note_on_c, 0, 46, 80
2, 57600, Note_on_c, 0, 49, 80
2, 57600, Note_on_c, 0, 53, 80
2, 59423, Note_on_c, 0, 41, 0
2, 59423, Note_on_c, 0, 46, 0
2, 59423, Note_on_c, 0, 49, 0
2, 59423, Note_on_c, 0, 53, 0
2, 59520, Note_on_c, 0, 39, 80
2, 59520, Note_on_c, 0, 42, 80
2, 59520, Note_on_c, 0, 46, 80
2, 59520, Note_on_c, 0, 51, 80
2, 61343, Note_on_c, 0, 39, 0
2, 61343, Note_on_c, 0, 42, 0
2, 61343, Note_on_c, 0, 46, 0
2, 61343, Note_on_c, 0, 51, 0
2, 61440, Note_on_c, 0, 46, 80
2, 61440, Note_on_c, 0, 49, 80
2, 61440, Note_on_c, 0, 53, 80
2, 62351, Note_on_c, 0, 46, 0
2, 62351, Note_on_c, 0, 49, 0
2, 62351, Note_on_c, 0, 53, 0
2, 62400, Note_on_c, 0, 41, 80
2, 62855, Note_on_c, 0, 41, 0
2, 62880, Note_on_c, 0, 54, 80
2, 62880, Note_on_c, 0, 58, 80
2, 62880, Note_on_c, 0, 61, 80
2, 65159, Note_on_c, 0, 54, 0
2, 65159, Note_on_c, 0, 58, 0
2, 65159, Note_on_c, 0, 61, 0
2, 65280, Note_on_c, 0, 54, 80
2, 65280, Note_on_c, 0, 58, 80
2, 65280, Note_on_c, 0, 61, 80
2, 65280, Note_on_c, 0, 65, 80
2, 67103, Note_on_c, 0, 54, 0
2, 67103, Note_on_c, 0, 58, 0
2, 67103, Note_on_c, 0, 61, 0
2, 67103, Note_on_c, 0, 65, 0
2, 67200, Note_on_c, 0, 56, 80
2, 67200, Note_on_c, 0, 60, 80
2, 67200, Note_on_c, 0, 63, 80
2, 68111, Note_on_c, 0, 56, 0
2, 68111, Note_on_c, 0, 60, 0
2, 68111, Note_on_c, 0, 63, 0
2, 68160, Note_on_c, 0, 60, 80
2, 69071, Note_on_c, 0, 60, 0
2, 69120, Note_on_c, 0, 58, 80
2, 69120, Note_on_c, 0, 61, 80
2, 69120, Note_on_c, 0, 65, 80
2, 70031, Note_on_c, 0, 58, 0
2, 70031, Note_on_c, 0, 61, 0
2, 70031, Note_on_c, 0, 65, 0
2, 70080, Note_on_c, 0, 53, 80
2, 70535, Note_on_c, 0, 53, 0
2, 70560, Note_on_c, 0, 54, 80
2, 70560, Note_on_c, 0, 58, 80
2, 70560, Note_on_c, 0, 61, 80
2, 71015, Note_on_c, 0, 54, 0
2, 71015, Note_on_c, 0, 58, 0
2, 71040, Note_on_c, 0, 54, 80
2, 71040, Note_on_c, 0, 58, 80
2, 71471, Note_on_c, 0, 61, 0
2, 71495, Note_on_c, 0, 54, 0
2, 71495, Note_on_c, 0, 58, 0
2, 71520, Note_on_c, 0, 58, 80
2, 71975, Note_on_c, 0, 58, 0
2, 72000, Note_on_c, 0, 61, 80
2, 72455, Note_on_c, 0, 61, 0
2, 72960, Note_on_c, 0, 54, 80
2, 72960, Note_on_c, 0, 58, 80
2, 72960, Note_on_c, 0, 61, 80
2, 72960, Note_on_c, 0, 65, 80
2, 74327, Note_on_c, 0, 54, 0
2, 74327, Note_on_c, 0, 58, 0
2, 74327, Note_on_c, 0, 61, 0
2, 74327, Note_on_c, 0, 65, 0
2, 74400, Note_on_c, 0, 58, 80
2, 74855, Note_on_c, 0, 58, 0
2, 74880, Note_on_c, 0, 58, 80
2, 74880, Note_on_c, 0, 61, 80
2, 74880, Note_on_c, 0, 65, 80
2, 75563, Note_on_c, 0, 58, 0
2, 75563, Note_on_c, 0, 61, 0
2, 75563, Note_on_c, 0, 65, 0
2, 75600, Note_on_c, 0, 60, 80
2, 75827, Note_on_c, 0, 60, 0
2, 75840, Note_on_c, 0, 63, 80
2, 76751, Note_on_c, 0, 63, 0
2, 76800, Note_on_c, 0, 53, 80
2, 76800, Note_on_c, 0, 58, 80
2, 76800, Note_on_c, 0, 61, 80
2, 76800, Note_on_c, 0, 65, 80
2, 77483, Note_on_c, 0, 53, 0
2, 77483, Note_on_c, 0, 58, 0
2, 77483, Note_on_c, 0, 61, 0
2, 77483, Note_on_c, 0, 65, 0
2, 77520, Note_on_c, 0, 49, 80
2, 77747, Note_on_c, 0, 49, 0
2, 77760, Note_on_c, 0, 65, 80
2, 78215, Note_on_c, 0, 65, 0
2, 78720, Note_on_c, 0, 54, 80
2, 78720, Note_on_c, 0, 58, 80
2, 78720, Note_on_c, 0, 61, 80
2, 78720, Note_on_c, 0, 66, 80
2, 79631, Note_on_c, 0, 54, 0
2, 79631, Note_on_c, 0, 58, 0
2, 79631, Note_on_c, 0, 61, 0
2, 79631, Note_on_c, 0, 66, 0
2, 79680, Note_on_c, 0, 61, 80
2, 80591, Note_on_c, 0, 61, 0
2, 80640, Note_on_c, 0, 53, 80
2, 80640, Note_on_c, 0, 58, 80
2, 80640, Note_on_c, 0, 61, 80
2, 80640, Note_on_c, 0, 65, 80
2, 81323, Note_on_c, 0, 53, 0
2, 81323, Note_on_c, 0, 58, 0
2, 81323, Note_on_c, 0, 61, 0
2, 81323, Note_on_c, 0, 65, 0
2, 81360, Note_on_c, 0, 49, 80
2, 81587, Note_on_c, 0, 49, 0
2, 81600, Note_on_c, 0, 65, 80
2, 82055, Note_on_c, 0, 65, 0
2, 82080, Note_on_c, 0, 53, 80
2, 82535, Note_on_c, 0, 53, 0
2, 82560, Note_on_c, 0, 51, 80
2, 82560, Note_on_c, 0, 54, 80
2, 82560, Note_on_c, 0, 58, 80
2, 82560, Note_on_c, 0, 63, 80
2, 83243, Note_on_c, 0, 51, 0
2, 83243, Note_on_c, 0, 54, 0
2, 83243, Note_on_c, 0, 58, 0
2, 83243, Note_on_c, 0, 63, 0
2, 83280, Note_on_c, 0, 58, 80
2, 83507, Note_on_c, 0, 58, 0
2, 83520, Note_on_c, 0, 63, 80
2, 83975, Note_on_c, 0, 63, 0
2, 84000, Note_on_c, 0, 51, 80
2, 84455, Note_on_c, 0, 51, 0
2, 84480, Note_on_c, 0, 53, 80
2, 84480, Note_on_c, 0, 58, 80
2, 84480, Note_on_c, 0, 61, 80
2, 84480, Note_on_c, 0, 65, 80
2, 85163, Note_on_c, 0, 53, 0
2, 85163, Note_on_c, 0, 58, 0
2, 85163, Note_on_c, 0, 61, 0
2, 85163, Note_on_c, 0, 65, 0
2, 85200, Note_on_c, 0, 61, 80
2, 85427, Note_on_c, 0, 61, 0
2, 85440, Note_on_c, 0, 65, 80
2, 85895, Note_on_c, 0, 65, 0
2, 86400, Note_on_c, 0, 54, 80
2, 86400, Note_on_c, 0, 58, 80
2, 86400, Note_on_c, 0, 61, 80
2, 86400, Note_on_c, 0, 66, 80
2, 87083, Note_on_c, 0, 54, 0
2, 87083, Note_on_c, 0, 58, 0
2, 87083, Note_on_c, 0, 61, 0
2, 87083, Note_on_c, 0, 66, 0
2, 87120, Note_on_c, 0, 61, 80
2, 87347, Note_on_c, 0, 61, 0
2, 87360, Note_on_c, 0, 66, 80
2, 87815, Note_on_c, 0, 66, 0
2, 87840, Note_on_c, 0, 54, 80
2, 88295, Note_on_c, 0, 54, 0
2, 88320, Note_on_c, 0, 53, 80
2, 88320, Note_on_c, 0, 58, 80
2, 88320, Note_on_c, 0, 61, 80
2, 88320, Note_on_c, 0, 65, 80
2, 89003, Note_on_c, 0, 53, 0
2, 89003, Note_on_c, 0, 58, 0
2, 89003, Note_on_c, 0, 61, 0
2, 89003, Note_on_c, 0, 65, 0
2, 89040, Note_on_c, 0, 61, 80
2, 89267, Note_on_c, 0, 61, 0
2, 89280, Note_on_c, 0, 65, 80
2, 89735, Note_on_c, 0, 65, 0
2, 89760, Note_on_c, 0, 53, 80
2, 90215, Note_on_c, 0, 53, 0
2, 90240, Note_on_c, 0, 51, 80
2, 90240, Note_on_c, 0, 54, 80
2, 90240, Note_on_c, 0, 58, 80
2, 90240, Note_on_c, 0, 63, 80
2, 90923, Note_on_c, 0, 51, 0
2, 90923, Note_on_c, 0, 54, 0
2, 90923, Note_on_c, 0, 58, 0
2, 90923, Note_on_c, 0, 63, 0
2, 90960, Note_on_c, 0, 58, 80
2, 91187, Note_on_c, 0, 58, 0
2, 91200, Note_on_c, 0, 63, 80
2, 91655, Note_on_c, 0, 63, 0
2, 91680, Note_on_c, 0, 51, 80
2, 92135, Note_on_c, 0, 51, 0
2, 92160, Note_on_c, 0, 46, 80
2, 92160, Note_on_c, 0, 58, 80
2, 93071, Note_on_c, 0, 46, 0
2, 93071, Note_on_c, 0, 58, 0
2, 93120, Note_on_c, 0, 41, 80
2, 93120, Note_on_c, 0, 53, 80
2, 93347, Note_on_c, 0, 41, 0
2, 93347, Note_on_c, 0, 53, 0
2, 93600, Note_on_c, 0, 42, 80
2, 93600, Note_on_c, 0, 49, 80
2, 93600, Note_on_c, 0, 54, 80
2, 94283, Note_on_c, 0, 42, 0
2, 94283, Note_on_c, 0, 49, 0
2, 94283, Note_on_c, 0, 54, 0
2, 94320, Note_on_c, 0, 49, 80
2, 94775, Note_on_c, 0, 49, 0
2, 94800, Note_on_c, 0, 54, 80
2, 95711, Note_on_c, 0, 54, 0
2, 95760, Note_on_c, 0, 41, 80
2, 95987, Note_on_c, 0, 41, 0
2, 96000, Note_on_c, 0, 42, 80
2, 96911, Note_on_c, 0, 42, 0
2, 96960, Note_on_c, 0, 49, 80
2, 97871, Note_on_c, 0, 49, 0
2, 97920, Note_on_c, 0, 44, 80
2, 97920, Note_on_c, 0, 48, 80
2, 97920, Note_on_c, 0, 51, 80
2, 98603, Note_on_c, 0, 44, 0
2, 98603, Note_on_c, 0, 48, 0
2, 98603, Note_on_c, 0, 51, 0
2, 98640, Note_on_c, 0, 48, 80
2, 98867, Note_on_c, 0, 48, 0
2, 98880, Note_on_c, 0, 51, 80
2, 99335, Note_on_c, 0, 51, 0
2, 99360, Note_on_c, 0, 44, 80
2, 99815, Note_on_c, 0, 44, 0
2, 99840, Note_on_c, 0, 46, 80
2, 99840, Note_on_c, 0, 58, 80
2, 100751, Note_on_c, 0, 46, 0
2, 100751, Note_on_c, 0, 58, 0
2, 100800, Note_on_c, 0, 41, 80
2, 100800, Note_on_c, 0, 53, 80
2, 101027, Note_on_c, 0, 41, 0
2, 101027, Note_on_c, 0, 53, 0
2, 101280, Note_on_c, 0, 42, 80
2, 101280, Note_on_c, 0, 49, 80
2, 101280, Note_on_c, 0, 54, 80
2, 102191, Note_on_c, 0, 42, 0
2, 102191, Note_on_c, 0, 49, 0
2, 102191, Note_on_c, 0, 54, 0
2, 102240, Note_on_c, 0, 49, 80
2, 102695, Note_on_c, 0, 49, 0
2, 102720, Note_on_c, 0, 54, 80
2, 103631, Note_on_c, 0, 54, 0
2, 103680, Note_on_c, 0, 42, 80
2, 103680, Note_on_c, 0, 49, 80
2, 103680, Note_on_c, 0, 53, 80
2, 104363, Note_on_c, 0, 42, 0
2, 104363, Note_on_c, 0, 49, 0
2, 104363, Note_on_c, 0, 53, 0
2, 104400, Note_on_c, 0, 49, 80
2, 104627, Note_on_c, 0, 49, 0
2, 104640, Note_on_c, 0, 53, 80
2, 105095, Note_on_c, 0, 53, 0
2, 105120, Note_on_c, 0, 42, 80
2, 105575, Note_on_c, 0, 42, 0
2, 105600, Note_on_c, 0, 44, 80
2, 105600, Note_on_c, 0, 48, 80
2, 105600, Note_on_c, 0, 51, 80
2, 106283, Note_on_c, 0, 44, 0
2, 106283, Note_on_c, 0, 48, 0
2, 106283, Note_on_c, 0, 51, 0
2, 106320, Note_on_c, 0, 48, 80
2, 106547, Note_on_c, 0, 48, 0
2, 106560, Note_on_c, 0, 51, 80
2, 107015, Note_on_c, 0, 51, 0
2, 107040, Note_on_c, 0, 44, 80
2, 107495, Note_on_c, 0, 44, 0
2, 107520, Note_on_c, 0, 41, 80
2, 107520, Note_on_c, 0, 46, 80
2, 107520, Note_on_c, 0, 49, 80
2, 107520, Note_on_c, 0, 53, 80
2, 108431, Note_on_c, 0, 41, 0
2, 108431, Note_on_c, 0, 46, 0
2, 108431, Note_on_c, 0, 49, 0
2, 108431, Note_on_c, 0, 53, 0
2, 108480, Note_on_c, 0, 49, 80
2, 108935, Note_on_c, 0, 49, 0
2, 108960, Note_on_c, 0, 42, 80
2, 108960, Note_on_c, 0, 49, 80
2, 108960, Note_on_c, 0, 54, 80
2, 109871, Note_on_c, 0, 42, 0
2, 109871, Note_on_c, 0, 49, 0
2, 109871, Note_on_c, 0, 54, 0
2, 109920, Note_on_c, 0, 54, 80
2, 110375, Note_on_c, 0, 54, 0
2, 110400, Note_on_c, 0, 49, 80
2, 110855, Note_on_c, 0, 49, 0
2, 110880, Note_on_c, 0, 42, 80
2, 111335, Note_on_c, 0, 42, 0
2, 111360, Note_on_c, 0, 41, 80
2, 111360, Note_on_c, 0, 46, 80
2, 111360, Note_on_c, 0, 49, 80
2, 111360, Note_on_c, 0, 53, 80
2, 112271, Note_on_c, 0, 41, 0
2, 112271, Note_on_c, 0, 46, 0
2, 112271, Note_on_c, 0, 49, 0
2, 112271, Note_on_c, 0, 53, 0
2, 112320, Note_on_c, 0, 49, 80
2, 113231, Note_on_c, 0, 49, 0
2, 113280, Note_on_c, 0, 39, 80
2, 113280, Note_on_c, 0, 42, 80
2, 113280, Note_on_c, 0, 46, 80
2, 113280, Note_on_c, 0, 51, 80
2, 113963, Note_on_c, 0, 39, 0
2, 113963, Note_on_c, 0, 42, 0
2, 113963, Note_on_c, 0, 46, 0
2, 113963, Note_on_c, 0, 51, 0
2, 114000, Note_on_c, 0, 46, 80
2, 114227, Note_on_c, 0, 46, 0
2, 114240, Note_on_c, 0, 51, 80
2, 114695, Note_on_c, 0, 51, 0
2, 114720, Note_on_c, 0, 39, 80
2, 115175, Note_on_c, 0, 39, 0
2, 115200, Note_on_c, 0, 41, 80
2, 115200, Note_on_c, 0, 46, 80
2, 115200, Note_on_c, 0, 49, 80
2, 115200, Note_on_c, 0, 53, 80
2, 116111, Note_on_c, 0, 41, 0
2, 116111, Note_on_c, 0, 46, 0
2, 116111, Note_on_c, 0, 49, 0
2, 116111, Note_on_c, 0, 53, 0
2, 116160, Note_on_c, 0, 41, 80
2, 116160, Note_on_c, 0, 46, 80
2, 116160, Note_on_c, 0, 49, 80
2, 116160, Note_on_c, 0, 53, 80
2, 116615, Note_on_c, 0, 41, 0
2, 116615, Note_on_c, 0, 46, 0
2, 116615, Note_on_c, 0, 49, 0
2, 116615, Note_on_c, 0, 53, 0
2, 116640, Note_on_c, 0, 42, 80
2, 116640, Note_on_c, 0, 49, 80
2, 116640, Note_on_c, 0, 54, 80
2, 117551, Note_on_c, 0, 42, 0
2, 117551, Note_on_c, 0, 49, 0
2, 117551, Note_on_c, 0, 54, 0
2, 117600, Note_on_c, 0, 49, 80
2, 118055, Note_on_c, 0, 49, 0
2, 118080, Note_on_c, 0, 54, 80
2, 118535, Note_on_c, 0, 54, 0
2, 118560, Note_on_c, 0, 42, 80
2, 119015, Note_on_c, 0, 42, 0
2, 119040, Note_on_c, 0, 41, 80
2, 119040, Note_on_c, 0, 46, 80
2, 119040, Note_on_c, 0, 49, 80
2, 119040, Note_on_c, 0, 53, 80
2, 119951, Note_on_c, 0, 41, 0
2, 119951, Note_on_c, 0, 46, 0
2, 119951, Note_on_c, 0, 49, 0
2, 119951, Note_on_c, 0, 53, 0
2, 120000, Note_on_c, 0, 49, 80
2, 120911, Note_on_c, 0, 49, 0
2, 120960, Note_on_c, 0, 39, 80
2, 120960, Note_on_c, 0, 42, 80
2, 120960, Note_on_c, 0, 46, 80
2, 120960, Note_on_c, 0, 51, 80
2, 121643, Note_on_c, 0, 39, 0
2, 121643, Note_on_c, 0, 42, 0
2, 121643, Note_on_c, 0, 46, 0
2, 121643, Note_on_c, 0, 51, 0
2, 121680, Note_on_c, 0, 46, 80
2, 121907, Note_on_c, 0, 46, 0
2, 121920, Note_on_c, 0, 51, 80
2, 122375, Note_on_c, 0, 51, 0
2, 122400, Note_on_c, 0, 39, 80
2, 122855, Note_on_c, 0, 39, 0
2, 122880, Note_on_c, 0, 34, 80
2, 122880, Note_on_c, 0, 46, 80
2, 124703, Note_on_c, 0, 34, 0
2, 124703, Note_on_c, 0, 46, 0
1, 0, Note_on_c, 0, 67, 80
1, 479, Note_on_c, 0, 67, 0
1, 480, Note_on_c, 0, 71, 80
1, 959, Note_on_c, 0, 71, 0
1, 960, Note_on_c, 0, 62, 80
1, 960, Note_on_c, 0, 67, 80
1, 960, Note_on_c, 0, 78, 80
1, 1679, Note_on_c, 0, 62, 0
1, 1679, Note_on_c, 0, 67, 0
1, 1679, Note_on_c, 0, 78, 0
1, 1680, Note_on_c, 0, 78, 80
1, 1919, Note_on_c, 0, 78, 0
1, 1920, Note_on_c, 0, 67, 80
1, 2399, Note_on_c, 0, 67, 0
1, 2400, Note_on_c, 0, 71, 80
1, 2400, Note_on_c, 0, 76, 80
1, 3839, Note_on_c, 0, 71, 0
1, 3839, Note_on_c, 0, 76, 0
1, 4320, Note_on_c, 0, 66, 80
1, 4799, Note_on_c, 0, 66, 0
1, 4800, Note_on_c, 0, 71, 80
1, 5279, Note_on_c, 0, 71, 0
1, 5280, Note_on_c, 0, 66, 80
1, 5280, Note_on_c, 0, 78, 80
1, 5759, Note_on_c, 0, 66, 0
1, 5759, Note_on_c, 0, 78, 0
1, 6000, Note_on_c, 0, 78, 80
1, 6239, Note_on_c, 0, 78, 0
1, 6240, Note_on_c, 0, 69, 80
1, 6719, Note_on_c, 0, 69, 0
1, 6720, Note_on_c, 0, 73, 80
1, 7199, Note_on_c, 0, 73, 0
1, 7200, Note_on_c, 0, 69, 80
1, 7200, Note_on_c, 0, 73, 80
1, 7200, Note_on_c, 0, 81, 80
1, 7679, Note_on_c, 0, 69, 0
1, 7679, Note_on_c, 0, 73, 0
1, 7679, Note_on_c, 0, 81, 0
1, 7680, Note_on_c, 0, 69, 80
1, 8159, Note_on_c, 0, 69, 0
1, 8160, Note_on_c, 0, 67, 80
1, 8639, Note_on_c, 0, 67, 0
1, 8640, Note_on_c, 0, 71, 80
1, 9119, Note_on_c, 0, 71, 0
1, 9120, Note_on_c, 0, 62, 80
1, 9120, Note_on_c, 0, 67, 80
1, 9120, Note_on_c, 0, 78, 80
1, 9599, Note_on_c, 0, 62, 0
1, 9599, Note_on_c, 0, 67, 0
1, 9599, Note_on_c, 0, 78, 0
1, 9840, Note_on_c, 0, 78, 80
1, 10079, Note_on_c, 0, 78, 0
1, 10080, Note_on_c, 0, 67, 80
1, 10559, Note_on_c, 0, 67, 0
1, 10560, Note_on_c, 0, 71, 80
1, 10560, Note_on_c, 0, 76, 80
1, 11519, Note_on_c, 0, 71, 0
1, 11519, Note_on_c, 0, 76, 0
1, 12480, Note_on_c, 0, 66, 80
1, 12959, Note_on_c, 0, 66, 0
1, 12960, Note_on_c, 0, 71, 80
1, 13439, Note_on_c, 0, 71, 0
1, 13440, Note_on_c, 0, 66, 80
1, 13440, Note_on_c, 0, 78, 80
1, 14159, Note_on_c, 0, 66, 0
1, 14159, Note_on_c, 0, 78, 0
1, 14160, Note_on_c, 0, 78, 80
1, 14399, Note_on_c, 0, 78, 0
1, 14400, Note_on_c, 0, 69, 80
1, 14879, Note_on_c, 0, 69, 0
1, 14880, Note_on_c, 0, 73, 80
1, 15359, Note_on_c, 0, 73, 0
1, 15360, Note_on_c, 0, 73, 80
1, 15360, Note_on_c, 0, 81, 80
1, 15839, Note_on_c, 0, 73, 0
1, 15839, Note_on_c, 0, 81, 0
1, 15840, Note_on_c, 0, 69, 80
1, 16319, Note_on_c, 0, 69, 0
1, 16320, Note_on_c, 0, 67, 80
1, 16799, Note_on_c, 0, 67, 0
1, 16800, Note_on_c, 0, 71, 80
1, 17279, Note_on_c, 0, 71, 0
1, 17280, Note_on_c, 0, 67, 80
1, 17280, Note_on_c, 0, 71, 80
1, 17280, Note_on_c, 0, 78, 80
1, 17999, Note_on_c, 0, 67, 0
1, 17999, Note_on_c, 0, 71, 0
1, 17999, Note_on_c, 0, 78, 0
1, 18000, Note_on_c, 0, 78, 80
1, 18239, Note_on_c, 0, 78, 0
1, 18240, Note_on_c, 0, 67, 80
1, 18719, Note_on_c, 0, 67, 0
1, 18720, Note_on_c, 0, 71, 80
1, 18720, Note_on_c, 0, 76, 80
1, 19199, Note_on_c, 0, 71, 0
1, 19199, Note_on_c, 0, 76, 0
1, 20160, Note_on_c, 0, 66, 80
1, 20639, Note_on_c, 0, 66, 0
1, 20640, Note_on_c, 0, 71, 80
1, 21119, Note_on_c, 0, 71, 0
1, 21120, Note_on_c, 0, 66, 80
1, 21120, Note_on_c, 0, 78, 80
1, 22079, Note_on_c, 0, 66, 0
1, 22079, Note_on_c, 0, 78, 0
1, 22080, Note_on_c, 0, 69, 80
1, 22559, Note_on_c, 0, 69, 0
1, 22560, Note_on_c, 0, 73, 80
1, 23039, Note_on_c, 0, 73, 0
1, 23040, Note_on_c, 0, 69, 80
1, 23040, Note_on_c, 0, 81, 80
1, 23519, Note_on_c, 0, 69, 0
1, 23519, Note_on_c, 0, 81, 0
1, 23520, Note_on_c, 0, 69, 80
1, 23520, Note_on_c, 0, 73, 80
1, 23999, Note_on_c, 0, 69, 0
1, 23999, Note_on_c, 0, 73, 0
1, 24000, Note_on_c, 0, 67, 80
1, 24000, Note_on_c, 0, 71, 80
1, 24479, Note_on_c, 0, 67, 0
1, 24479, Note_on_c, 0, 71, 0
1, 24480, Note_on_c, 0, 71, 80
1, 24959, Note_on_c, 0, 71, 0
1, 24960, Note_on_c, 0, 78, 80
1, 25679, Note_on_c, 0, 78, 0
1, 25680, Note_on_c, 0, 78, 80
1, 25919, Note_on_c, 0, 78, 0
1, 25920, Note_on_c, 0, 67, 80
1, 26399, Note_on_c, 0, 67, 0
1, 26400, Note_on_c, 0, 71, 80
1, 26400, Note_on_c, 0, 76, 80
1, 26879, Note_on_c, 0, 71, 0
1, 26879, Note_on_c, 0, 76, 0
1, 28320, Note_on_c, 0, 71, 80
1, 28799, Note_on_c, 0, 71, 0
1, 28800, Note_on_c, 0, 66, 80
1, 28800, Note_on_c, 0, 78, 80
1, 29519, Note_on_c, 0, 66, 0
1, 29519, Note_on_c, 0, 78, 0
1, 29520, Note_on_c, 0, 78, 80
1, 29759, Note_on_c, 0, 78, 0
1, 29760, Note_on_c, 0, 69, 80
1, 30239, Note_on_c, 0, 69, 0
1, 30240, Note_on_c, 0, 73, 80
1, 30719, Note_on_c, 0, 73, 0
1, 30720, Note_on_c, 0, 69, 80
1, 30720, Note_on_c, 0, 81, 80
1, 31199, Note_on_c, 0, 69, 0
1, 31199, Note_on_c, 0, 81, 0
1, 31200, Note_on_c, 0, 69, 80
1, 31200, Note_on_c, 0, 73, 80
1, 32639, Note_on_c, 0, 69, 0
1, 32639, Note_on_c, 0, 73, 0
1, 33600, Note_on_c, 0, 71, 80
1, 33600, Note_on_c, 0, 81, 80
1, 33839, Note_on_c, 0, 71, 0
1, 33839, Note_on_c, 0, 81, 0
1, 33840, Note_on_c, 0, 78, 80
1, 34079, Note_on_c, 0, 78, 0
1, 34080, Note_on_c, 0, 76, 80
1, 34319, Note_on_c, 0, 76, 0
1, 34320, Note_on_c, 0, 74, 80
1, 34559, Note_on_c, 0, 74, 0
1, 34560, Note_on_c, 0, 74, 80
1, 35039, Note_on_c, 0, 74, 0
1, 35040, Note_on_c, 0, 76, 80
1, 35279, Note_on_c, 0, 76, 0
1, 35280, Note_on_c, 0, 78, 80
1, 35519, Note_on_c, 0, 78, 0
1, 35520, Note_on_c, 0, 71, 80
1, 35520, Note_on_c, 0, 79, 80
1, 35999, Note_on_c, 0, 71, 0
1, 35999, Note_on_c, 0, 79, 0
1, 36000, Note_on_c, 0, 71, 80
1, 36000, Note_on_c, 0, 78, 80
1, 36479, Note_on_c, 0, 71, 0
1, 36479, Note_on_c, 0, 78, 0
1, 37440, Note_on_c, 0, 71, 80
1, 37440, Note_on_c, 0, 81, 80
1, 37679, Note_on_c, 0, 71, 0
1, 37679, Note_on_c, 0, 81, 0
1, 37680, Note_on_c, 0, 78, 80
1, 37919, Note_on_c, 0, 78, 0
1, 37920, Note_on_c, 0, 76, 80
1, 38159, Note_on_c, 0, 76, 0
1, 38160, Note_on_c, 0, 74, 80
1, 38399, Note_on_c, 0, 74, 0
1, 38400, Note_on_c, 0, 74, 80
1, 38879, Note_on_c, 0, 74, 0
1, 38880, Note_on_c, 0, 71, 80
1, 38880, Note_on_c, 0, 76, 80
1, 39119, Note_on_c, 0, 71, 0
1, 39119, Note_on_c, 0, 76, 0
1, 39120, Note_on_c, 0, 78, 80
1, 39359, Note_on_c, 0, 78, 0
1, 39360, Note_on_c, 0, 71, 80
1, 39360, Note_on_c, 0, 79, 80
1, 39839, Note_on_c, 0, 71, 0
1, 39839, Note_on_c, 0, 79, 0
1, 39840, Note_on_c, 0, 71, 80
1, 39840, Note_on_c, 0, 78, 80
1, 40319, Note_on_c, 0, 71, 0
1, 40319, Note_on_c, 0, 78, 0
1, 40800, Note_on_c, 0, 74, 80
1, 41039, Note_on_c, 0, 74, 0
1, 41040, Note_on_c, 0, 74, 80
1, 41279, Note_on_c, 0, 74, 0
1, 41280, Note_on_c, 0, 71, 80
1, 41280, Note_on_c, 0, 81, 80
1, 41519, Note_on_c, 0, 71, 0
1, 41519, Note_on_c, 0, 81, 0
1, 41520, Note_on_c, 0, 78, 80
1, 41759, Note_on_c, 0, 78, 0
1, 41760, Note_on_c, 0, 76, 80
1, 41999, Note_on_c, 0, 76, 0
1, 42000, Note_on_c, 0, 62, 80
1, 42000, Note_on_c, 0, 74, 80
1, 42239, Note_on_c, 0, 62, 0
1, 42239, Note_on_c, 0, 74, 0
1, 42720, Note_on_c, 0, 64, 80
1, 42720, Note_on_c, 0, 76, 80
1, 42959, Note_on_c, 0, 64, 0
1, 42959, Note_on_c, 0, 76, 0
1, 42960, Note_on_c, 0, 78, 80
1, 43199, Note_on_c, 0, 78, 0
1, 43200, Note_on_c, 0, 71, 80
1, 43200, Note_on_c, 0, 79, 80
1, 43679, Note_on_c, 0, 71, 0
1, 43679, Note_on_c, 0, 79, 0
1, 43680, Note_on_c, 0, 71, 80
1, 43680, Note_on_c, 0, 78, 80
1, 44159, Note_on_c, 0, 71, 0
1, 44159, Note_on_c, 0, 78, 0
1, 44640, Note_on_c, 0, 74, 80
1, 44879, Note_on_c, 0, 74, 0
1, 44880, Note_on_c, 0, 74, 80
1, 45119, Note_on_c, 0, 74, 0
1, 45120, Note_on_c, 0, 71, 80
1, 45120, Note_on_c, 0, 81, 80
1, 45359, Note_on_c, 0, 71, 0
1, 45359, Note_on_c, 0, 81, 0
1, 45360, Note_on_c, 0, 78, 80
1, 45599, Note_on_c, 0, 78, 0
1, 45600, Note_on_c, 0, 76, 80
1, 45839, Note_on_c, 0, 76, 0
1, 45840, Note_on_c, 0, 74, 80
1, 46079, Note_on_c, 0, 74, 0
1, 46080, Note_on_c, 0, 74, 80
1, 46559, Note_on_c, 0, 74, 0
1, 46560, Note_on_c, 0, 71, 80
1, 46560, Note_on_c, 0, 76, 80
1, 46799, Note_on_c, 0, 71, 0
1, 46799, Note_on_c, 0, 76, 0
1, 46800, Note_on_c, 0, 78, 80
1, 47519, Note_on_c, 0, 78, 0
1, 47520, Note_on_c, 0, 67, 80
1, 47520, Note_on_c, 0, 71, 80
1, 47520, Note_on_c, 0, 78, 80
1, 47999, Note_on_c, 0, 67, 0
1, 47999, Note_on_c, 0, 71, 0
1, 47999, Note_on_c, 0, 78, 0
1, 48960, Note_on_c, 0, 71, 80
1, 48960, Note_on_c, 0, 78, 80
1, 49199, Note_on_c, 0, 71, 0
1, 49199, Note_on_c, 0, 78, 0
1, 49200, Note_on_c, 0, 78, 80
1, 49439, Note_on_c, 0, 78, 0
1, 49440, Note_on_c, 0, 78, 80
1, 49679, Note_on_c, 0, 78, 0
1, 49680, Note_on_c, 0, 79, 80
1, 49919, Note_on_c, 0, 79, 0
1, 49920, Note_on_c, 0, 71, 80
1, 49920, Note_on_c, 0, 78, 80
1, 50879, Note_on_c, 0, 71, 0
1, 50879, Note_on_c, 0, 78, 0
1, 50880, Note_on_c, 0, 67, 80
1, 50880, Note_on_c, 0, 71, 80
1, 50880, Note_on_c, 0, 78, 80
1, 51119, Note_on_c, 0, 67, 0
1, 51119, Note_on_c, 0, 71, 0
1, 51119, Note_on_c, 0, 78, 0
1, 51120, Note_on_c, 0, 78, 80
1, 51359, Note_on_c, 0, 78, 0
1, 51360, Note_on_c, 0, 78, 80
1, 51599, Note_on_c, 0, 78, 0
1, 51600, Note_on_c, 0, 79, 80
1, 51839, Note_on_c, 0, 79, 0
1, 51840, Note_on_c, 0, 64, 80
1, 51840, Note_on_c, 0, 67, 80
1, 51840, Note_on_c, 0, 71, 80
1, 51840, Note_on_c, 0, 78, 80
1, 52799, Note_on_c, 0, 64, 0
1, 52799, Note_on_c, 0, 67, 0
1, 52799, Note_on_c, 0, 71, 0
1, 52799, Note_on_c, 0, 78, 0
1, 52800, Note_on_c, 0, 67, 80
1, 52800, Note_on_c, 0, 71, 80
1, 52800, Note_on_c, 0, 78, 80
1, 53039, Note_on_c, 0, 67, 0
1, 53039, Note_on_c, 0, 71, 0
1, 53039, Note_on_c, 0, 78, 0
1, 53040, Note_on_c, 0, 78, 80
1, 53279, Note_on_c, 0, 78, 0
1, 53280, Note_on_c, 0, 78, 80
1, 53519, Note_on_c, 0, 78, 0
1, 53520, Note_on_c, 0, 79, 80
1, 53759, Note_on_c, 0, 79, 0
1, 53760, Note_on_c, 0, 64, 80
1, 53760, Note_on_c, 0, 67, 80
1, 53760, Note_on_c, 0, 71, 80
1, 53760, Note_on_c, 0, 78, 80
1, 54719, Note_on_c, 0, 64, 0
1, 54719, Note_on_c, 0, 67, 0
1, 54719, Note_on_c, 0, 71, 0
1, 54719, Note_on_c, 0, 78, 0
1, 54720, Note_on_c, 0, 71, 80
1, 54720, Note_on_c, 0, 78, 80
1, 54959, Note_on_c, 0, 71, 0
1, 54959, Note_on_c, 0, 78, 0
1, 54960, Note_on_c, 0, 78, 80
1, 55199, Note_on_c, 0, 78, 0
1, 55200, Note_on_c, 0, 78, 80
1, 55439, Note_on_c, 0, 78, 0
1, 55440, Note_on_c, 0, 79, 80
1, 55679, Note_on_c, 0, 79, 0
1, 55680, Note_on_c, 0, 71, 80
1, 55680, Note_on_c, 0, 78, 80
1, 56639, Note_on_c, 0, 71, 0
1, 56639, Note_on_c, 0, 78, 0
1, 56640, Note_on_c, 0, 67, 80
1, 56640, Note_on_c, 0, 71, 80
1, 56640, Note_on_c, 0, 78, 80
1, 56879, Note_on_c, 0, 67, 0
1, 56879, Note_on_c, 0, 71, 0
1, 56879, Note_on_c, 0, 78, 0
1, 56880, Note_on_c, 0, 78, 80
1, 57119, Note_on_c, 0, 78, 0
1, 57120, Note_on_c, 0, 78, 80
1, 57359, Note_on_c, 0, 78, 0
1, 57360, Note_on_c, 0, 79, 80
1, 57599, Note_on_c, 0, 79, 0
1, 57600, Note_on_c, 0, 67, 80
1, 57600, Note_on_c, 0, 71, 80
1, 57600, Note_on_c, 0, 78, 80
1, 58559, Note_on_c, 0, 67, 0
1, 58559, Note_on_c, 0, 71, 0
1, 58559, Note_on_c, 0, 78, 0
1, 58560, Note_on_c, 0, 66, 80
1, 58560, Note_on_c, 0, 78, 80
1, 58799, Note_on_c, 0, 66, 0
1, 58799, Note_on_c, 0, 78, 0
1, 58800, Note_on_c, 0, 78, 80
1, 59039, Note_on_c, 0, 78, 0
1, 59040, Note_on_c, 0, 78, 80
1, 59279, Note_on_c, 0, 78, 0
1, 59280, Note_on_c, 0, 79, 80
1, 59519, Note_on_c, 0, 79, 0
1, 59520, Note_on_c, 0, 66, 80
1, 59520, Note_on_c, 0, 78, 80
1, 60479, Note_on_c, 0, 66, 0
1, 60479, Note_on_c, 0, 78, 0
1, 60480, Note_on_c, 0, 69, 80
1, 60480, Note_on_c, 0, 73, 80
1, 60480, Note_on_c, 0, 78, 80
1, 60719, Note_on_c, 0, 69, 0
1, 60719, Note_on_c, 0, 73, 0
1, 60719, Note_on_c, 0, 78, 0
1, 60720, Note_on_c, 0, 78, 80
1, 60959, Note_on_c, 0, 78, 0
1, 60960, Note_on_c, 0, 78, 80
1, 61199, Note_on_c, 0, 78, 0
1, 61200, Note_on_c, 0, 81, 80
1, 61439, Note_on_c, 0, 81, 0
1, 61440, Note_on_c, 0, 69, 80
1, 61440, Note_on_c, 0, 73, 80
1, 61440, Note_on_c, 0, 78, 80
1, 62399, Note_on_c, 0, 69, 0
1, 62399, Note_on_c, 0, 73, 0
1, 62399, Note_on_c, 0, 78, 0
1, 62400, Note_on_c, 0, 71, 80
1, 62400, Note_on_c, 0, 78, 80
1, 62639, Note_on_c, 0, 71, 0
1, 62639, Note_on_c, 0, 78, 0
1, 62640, Note_on_c, 0, 78, 80
1, 62879, Note_on_c, 0, 78, 0
1, 62880, Note_on_c, 0, 78, 80
1, 63119, Note_on_c, 0, 78, 0
1, 63120, Note_on_c, 0, 79, 80
1, 63359, Note_on_c, 0, 79, 0
1, 63360, Note_on_c, 0, 71, 80
1, 63360, Note_on_c, 0, 78, 80
1, 63839, Note_on_c, 0, 71, 0
1, 63839, Note_on_c, 0, 78, 0
1, 63840, Note_on_c, 0, 62, 80
1, 64439, Note_on_c, 0, 62, 0
1, 64440, Note_on_c, 0, 71, 80
1, 64440, Note_on_c, 0, 78, 80
1, 64559, Note_on_c, 0, 71, 0
1, 64559, Note_on_c, 0, 78, 0
1, 64560, Note_on_c, 0, 78, 80
1, 64799, Note_on_c, 0, 78, 0
1, 64800, Note_on_c, 0, 78, 80
1, 65279, Note_on_c, 0, 78, 0
1, 65280, Note_on_c, 0, 78, 80
1, 65759, Note_on_c, 0, 78, 0
1, 65760, Note_on_c, 0, 74, 80
1, 66239, Note_on_c, 0, 74, 0
1, 66240, Note_on_c, 0, 78, 80
1, 66479, Note_on_c, 0, 78, 0
1, 66480, Note_on_c, 0, 78, 80
1, 66959, Note_on_c, 0, 78, 0
1, 66960, Note_on_c, 0, 79, 80
1, 67199, Note_on_c, 0, 79, 0
1, 67200, Note_on_c, 0, 78, 80
1, 67679, Note_on_c, 0, 78, 0
1, 67680, Note_on_c, 0, 74, 80
1, 68159, Note_on_c, 0, 74, 0
1, 68160, Note_on_c, 0, 78, 80
1, 68399, Note_on_c, 0, 78, 0
1, 68400, Note_on_c, 0, 78, 80
1, 68639, Note_on_c, 0, 78, 0
1, 68640, Note_on_c, 0, 78, 80
1, 68879, Note_on_c, 0, 78, 0
1, 68880, Note_on_c, 0, 81, 80
1, 69119, Note_on_c, 0, 81, 0
1, 69120, Note_on_c, 0, 78, 80
1, 69599, Note_on_c, 0, 78, 0
1, 69600, Note_on_c, 0, 76, 80
1, 70079, Note_on_c, 0, 76, 0
1, 70080, Note_on_c, 0, 71, 80
1, 70080, Note_on_c, 0, 78, 80
1, 70319, Note_on_c, 0, 71, 0
1, 70319, Note_on_c, 0, 78, 0
1, 70320, Note_on_c, 0, 78, 80
1, 70559, Note_on_c, 0, 78, 0
1, 70560, Note_on_c, 0, 78, 80
1, 70799, Note_on_c, 0, 78, 0
1, 70800, Note_on_c, 0, 79, 80
1, 71039, Note_on_c, 0, 79, 0
1, 71040, Note_on_c, 0, 62, 80
1, 71040, Note_on_c, 0, 71, 80
1, 71040, Note_on_c, 0, 78, 80
1, 71999, Note_on_c, 0, 62, 0
1, 71999, Note_on_c, 0, 71, 0
1, 71999, Note_on_c, 0, 78, 0
1, 72000, Note_on_c, 0, 71, 80
1, 72000, Note_on_c, 0, 78, 80
1, 72239, Note_on_c, 0, 71, 0
1, 72239, Note_on_c, 0, 78, 0
1, 72240, Note_on_c, 0, 78, 80
1, 72479, Note_on_c, 0, 78, 0
1, 72480, Note_on_c, 0, 78, 80
1, 72719, Note_on_c, 0, 78, 0
1, 72720, Note_on_c, 0, 78, 80
1, 72959, Note_on_c, 0, 78, 0
1, 72960, Note_on_c, 0, 71, 80
1, 72960, Note_on_c, 0, 78, 80
1, 73919, Note_on_c, 0, 71, 0
1, 73919, Note_on_c, 0, 78, 0
1, 73920, Note_on_c, 0, 78, 80
1, 74159, Note_on_c, 0, 78, 0
1, 74160, Note_on_c, 0, 78, 80
1, 74639, Note_on_c, 0, 78, 0
1, 74640, Note_on_c, 0, 62, 80
1, 74640, Note_on_c, 0, 79, 80
1, 74879, Note_on_c, 0, 62, 0
1, 74879, Note_on_c, 0, 79, 0
1, 74880, Note_on_c, 0, 66, 80
1, 74880, Note_on_c, 0, 71, 80
1, 74880, Note_on_c, 0, 78, 80
1, 75359, Note_on_c, 0, 66, 0
1, 75359, Note_on_c, 0, 71, 0
1, 75359, Note_on_c, 0, 78, 0
1, 75360, Note_on_c, 0, 74, 80
1, 75839, Note_on_c, 0, 74, 0
1, 75840, Note_on_c, 0, 71, 80
1, 75840, Note_on_c, 0, 78, 80
1, 76079, Note_on_c, 0, 71, 0
1, 76079, Note_on_c, 0, 78, 0
1, 76080, Note_on_c, 0, 78, 80
1, 76319, Note_on_c, 0, 78, 0
1, 76320, Note_on_c, 0, 78, 80
1, 76559, Note_on_c, 0, 78, 0
1, 76560, Note_on_c, 0, 61, 80
1, 76560, Note_on_c, 0, 79, 80
1, 76799, Note_on_c, 0, 61, 0
1, 76799, Note_on_c, 0, 79, 0
1, 76800, Note_on_c, 0, 64, 80
1, 76800, Note_on_c, 0, 71, 80
1, 76800, Note_on_c, 0, 78, 80
1, 77279, Note_on_c, 0, 64, 0
1, 77279, Note_on_c, 0, 71, 0
1, 77279, Note_on_c, 0, 78, 0
1, 77280, Note_on_c, 0, 74, 80
1, 77280, Note_on_c, 0, 86, 80
1, 77759, Note_on_c, 0, 74, 0
1, 77759, Note_on_c, 0, 86, 0
1, 77760, Note_on_c, 0, 67, 80
1, 77760, Note_on_c, 0, 71, 80
1, 77760, Note_on_c, 0, 78, 80
1, 78239, Note_on_c, 0, 67, 0
1, 78239, Note_on_c, 0, 71, 0
1, 78239, Note_on_c, 0, 78, 0
1, 78240, Note_on_c, 0, 78, 80
1, 78719, Note_on_c, 0, 78, 0
1, 78720, Note_on_c, 0, 62, 80
1, 78720, Note_on_c, 0, 78, 80
1, 79199, Note_on_c, 0, 62, 0
1, 79199, Note_on_c, 0, 78, 0
1, 79200, Note_on_c, 0, 78, 80
1, 79679, Note_on_c, 0, 78, 0
1, 79680, Note_on_c, 0, 67, 80
1, 79680, Note_on_c, 0, 71, 80
1, 79680, Note_on_c, 0, 78, 80
1, 80159, Note_on_c, 0, 67, 0
1, 80159, Note_on_c, 0, 71, 0
1, 80159, Note_on_c, 0, 78, 0
1, 80160, Note_on_c, 0, 71, 80
1, 80160, Note_on_c, 0, 78, 80
1, 80639, Note_on_c, 0, 71, 0
1, 80639, Note_on_c, 0, 78, 0
1, 80640, Note_on_c, 0, 62, 80
1, 80640, Note_on_c, 0, 76, 80
1, 80999, Note_on_c, 0, 62, 0
1, 80999, Note_on_c, 0, 76, 0
1, 81000, Note_on_c, 0, 74, 80
1, 81599, Note_on_c, 0, 74, 0
1, 81600, Note_on_c, 0, 78, 80
1, 81839, Note_on_c, 0, 78, 0
1, 81840, Note_on_c, 0, 78, 80
1, 82079, Note_on_c, 0, 78, 0
1, 82080, Note_on_c, 0, 78, 80
1, 82319, Note_on_c, 0, 78, 0
1, 82320, Note_on_c, 0, 78, 80
1, 82559, Note_on_c, 0, 78, 0
1, 82560, Note_on_c, 0, 78, 80
1, 82799, Note_on_c, 0, 78, 0
1, 82800, Note_on_c, 0, 81, 80
1, 83039, Note_on_c, 0, 81, 0
1, 83040, Note_on_c, 0, 71, 80
1, 83040, Note_on_c, 0, 78, 80
1, 83639, Note_on_c, 0, 71, 0
1, 83639, Note_on_c, 0, 78, 0
1, 83640, Note_on_c, 0, 67, 80
1, 83640, Note_on_c, 0, 78, 80
1, 83999, Note_on_c, 0, 67, 0
1, 83999, Note_on_c, 0, 78, 0
1, 84000, Note_on_c, 0, 78, 80
1, 84239, Note_on_c, 0, 78, 0
1, 84240, Note_on_c, 0, 81, 80
1, 84479, Note_on_c, 0, 81, 0
1, 84480, Note_on_c, 0, 67, 80
1, 84480, Note_on_c, 0, 76, 80
1, 84839, Note_on_c, 0, 67, 0
1, 84839, Note_on_c, 0, 76, 0
1, 84840, Note_on_c, 0, 74, 80
1, 84959, Note_on_c, 0, 74, 0
1, 84960, Note_on_c, 0, 74, 80
1, 85439, Note_on_c, 0, 74, 0
1, 85440, Note_on_c, 0, 67, 80
1, 85440, Note_on_c, 0, 71, 80
1, 85440, Note_on_c, 0, 78, 80
1, 85679, Note_on_c, 0, 67, 0
1, 85679, Note_on_c, 0, 71, 0
1, 85679, Note_on_c, 0, 78, 0
1, 85680, Note_on_c, 0, 78, 80
1, 85919, Note_on_c, 0, 78, 0
1, 85920, Note_on_c, 0, 78, 80
1, 86399, Note_on_c, 0, 78, 0
1, 86400, Note_on_c, 0, 78, 80
1, 86639, Note_on_c, 0, 78, 0
1, 86640, Note_on_c, 0, 78, 80
1, 86879, Note_on_c, 0, 78, 0
1, 86880, Note_on_c, 0, 78, 80
1, 86999, Note_on_c, 0, 78, 0
1, 87000, Note_on_c, 0, 78, 80
1, 87359, Note_on_c, 0, 78, 0
1, 87360, Note_on_c, 0, 67, 80
1, 87360, Note_on_c, 0, 71, 80
1, 87360, Note_on_c, 0, 78, 80
1, 87839, Note_on_c, 0, 67, 0
1, 87839, Note_on_c, 0, 71, 0
1, 87839, Note_on_c, 0, 78, 0
1, 87840, Note_on_c, 0, 78, 80
1, 88199, Note_on_c, 0, 78, 0
1, 88200, Note_on_c, 0, 78, 80
1, 88319, Note_on_c, 0, 78, 0
1, 88320, Note_on_c, 0, 62, 80
1, 88320, Note_on_c, 0, 67, 80
1, 88320, Note_on_c, 0, 71, 80
1, 88320, Note_on_c, 0, 76, 80
1, 88679, Note_on_c, 0, 62, 0
1, 88679, Note_on_c, 0, 67, 0
1, 88679, Note_on_c, 0, 71, 0
1, 88679, Note_on_c, 0, 76, 0
1, 88680, Note_on_c, 0, 74, 80
1, 88799, Note_on_c, 0, 74, 0
1, 88800, Note_on_c, 0, 74, 80
1, 89279, Note_on_c, 0, 74, 0
1, 89280, Note_on_c, 0, 74, 80
1, 89280, Note_on_c, 0, 78, 80
1, 89280, Note_on_c, 0, 86, 80
1, 89519, Note_on_c, 0, 74, 0
1, 89519, Note_on_c, 0, 78, 0
1, 89519, Note_on_c, 0, 86, 0
1, 89520, Note_on_c, 0, 74, 80
1, 89520, Note_on_c, 0, 78, 80
1, 89520, Note_on_c, 0, 86, 80
1, 89759, Note_on_c, 0, 74, 0
1, 89759, Note_on_c, 0, 78, 0
1, 89759, Note_on_c, 0, 86, 0
1, 89760, Note_on_c, 0, 74, 80
1, 89760, Note_on_c, 0, 78, 80
1, 89760, Note_on_c, 0, 86, 80
1, 89999, Note_on_c, 0, 74, 0
1, 89999, Note_on_c, 0, 78, 0
1, 89999, Note_on_c, 0, 86, 0
1, 90000, Note_on_c, 0, 62, 80
1, 90000, Note_on_c, 0, 76, 80
1, 90000, Note_on_c, 0, 88, 80
1, 90239, Note_on_c, 0, 62, 0
1, 90239, Note_on_c, 0, 76, 0
1, 90239, Note_on_c, 0, 88, 0
1, 90240, Note_on_c, 0, 66, 80
1, 90240, Note_on_c, 0, 78, 80
1, 90240, Note_on_c, 0, 90, 80
1, 90719, Note_on_c, 0, 66, 0
1, 90719, Note_on_c, 0, 78, 0
1, 90719, Note_on_c, 0, 90, 0
1, 90720, Note_on_c, 0, 76, 80
1, 90720, Note_on_c, 0, 88, 80
1, 91199, Note_on_c, 0, 76, 0
1, 91199, Note_on_c, 0, 88, 0
1, 91200, Note_on_c, 0, 74, 80
1, 91200, Note_on_c, 0, 78, 80
1, 91200, Note_on_c, 0, 86, 80
1, 91439, Note_on_c, 0, 74, 0
1, 91439, Note_on_c, 0, 78, 0
1, 91439, Note_on_c, 0, 86, 0
1, 91440, Note_on_c, 0, 74, 80
1, 91440, Note_on_c, 0, 78, 80
1, 91440, Note_on_c, 0, 86, 80
1, 91679, Note_on_c, 0, 74, 0
1, 91679, Note_on_c, 0, 78, 0
1, 91679, Note_on_c, 0, 86, 0
1, 91680, Note_on_c, 0, 74, 80
1, 91680, Note_on_c, 0, 78, 80
1, 91680, Note_on_c, 0, 86, 80
1, 91919, Note_on_c, 0, 74, 0
1, 91919, Note_on_c, 0, 78, 0
1, 91919, Note_on_c, 0, 86, 0
1, 91920, Note_on_c, 0, 61, 80
1, 91920, Note_on_c, 0, 76, 80
1, 91920, Note_on_c, 0, 88, 80
1, 92159, Note_on_c, 0, 61, 0
1, 92159, Note_on_c, 0, 76, 0
1, 92159, Note_on_c, 0, 88, 0
1, 92160, Note_on_c, 0, 64, 80
1, 92160, Note_on_c, 0, 78, 80
1, 92160, Note_on_c, 0, 90, 80
1, 92639, Note_on_c, 0, 64, 0
1, 92639, Note_on_c, 0, 78, 0
1, 92639, Note_on_c, 0, 90, 0
1, 92640, Note_on_c, 0, 76, 80
1, 93599, Note_on_c, 0, 76, 0
1, 93600, Note_on_c, 0, 78, 80
1, 94079, Note_on_c, 0, 78, 0
1, 94080, Note_on_c, 0, 62, 80
1, 95039, Note_on_c, 0, 62, 0
1, 95040, Note_on_c, 0, 74, 80
1, 95040, Note_on_c, 0, 78, 80
1, 95040, Note_on_c, 0, 86, 80
1, 95279, Note_on_c, 0, 74, 0
1, 95279, Note_on_c, 0, 78, 0
1, 95279, Note_on_c, 0, 86, 0
1, 95280, Note_on_c, 0, 74, 80
1, 95280, Note_on_c, 0, 78, 80
1, 95280, Note_on_c, 0, 86, 80
1, 95519, Note_on_c, 0, 74, 0
1, 95519, Note_on_c, 0, 78, 0
1, 95519, Note_on_c, 0, 86, 0
1, 95520, Note_on_c, 0, 74, 80
1, 95520, Note_on_c, 0, 78, 80
1, 95520, Note_on_c, 0, 86, 80
1, 95759, Note_on_c, 0, 74, 0
1, 95759, Note_on_c, 0, 78, 0
1, 95759, Note_on_c, 0, 86, 0
1, 95760, Note_on_c, 0, 76, 80
1, 95760, Note_on_c, 0, 88, 80
1, 95999, Note_on_c, 0, 76, 0
1, 95999, Note_on_c, 0, 88, 0
1, 96000, Note_on_c, 0, 78, 80
1, 96479, Note_on_c, 0, 78, 0
1, 96480, Note_on_c, 0, 76, 80
1, 97439, Note_on_c, 0, 76, 0
1, 97440, Note_on_c, 0, 64, 80
1, 97440, Note_on_c, 0, 74, 80
1, 97440, Note_on_c, 0, 78, 80
1, 97919, Note_on_c, 0, 64, 0
1, 97919, Note_on_c, 0, 74, 0
1, 97919, Note_on_c, 0, 78, 0
1, 98880, Note_on_c, 0, 74, 80
1, 98880, Note_on_c, 0, 78, 80
1, 98880, Note_on_c, 0, 86, 80
1, 99119, Note_on_c, 0, 74, 0
1, 99119, Note_on_c, 0, 78, 0
1, 99119, Note_on_c, 0, 86, 0
1, 99120, Note_on_c, 0, 86, 80
1, 99359, Note_on_c, 0, 86, 0
1, 99360, Note_on_c, 0, 74, 80
1, 99360, Note_on_c, 0, 78, 80
1, 99360, Note_on_c, 0, 86, 80
1, 99599, Note_on_c, 0, 74, 0
1, 99599, Note_on_c, 0, 78, 0
1, 99599, Note_on_c, 0, 86, 0
1, 99600, Note_on_c, 0, 76, 80
1, 99600, Note_on_c, 0, 88, 80
1, 99839, Note_on_c, 0, 76, 0
1, 99839, Note_on_c, 0, 88, 0
1, 99840, Note_on_c, 0, 78, 80
1, 100079, Note_on_c, 0, 78, 0
1, 100080, Note_on_c, 0, 76, 80
1, 100080, Note_on_c, 0, 88, 80
1, 100319, Note_on_c, 0, 76, 0
1, 100319, Note_on_c, 0, 88, 0
1, 100320, Note_on_c, 0, 76, 80
1, 100320, Note_on_c, 0, 88, 80
1, 100799, Note_on_c, 0, 76, 0
1, 100799, Note_on_c, 0, 88, 0
1, 100800, Note_on_c, 0, 78, 80
1, 101039, Note_on_c, 0, 78, 0
1, 101040, Note_on_c, 0, 78, 80
1, 101279, Note_on_c, 0, 78, 0
1, 101280, Note_on_c, 0, 78, 80
1, 101519, Note_on_c, 0, 78, 0
1, 101520, Note_on_c, 0, 76, 80
1, 101520, Note_on_c, 0, 88, 80
1, 101759, Note_on_c, 0, 76, 0
1, 101759, Note_on_c, 0, 88, 0
1, 101760, Note_on_c, 0, 62, 80
1, 101760, Note_on_c, 0, 76, 80
1, 101760, Note_on_c, 0, 88, 80
1, 101999, Note_on_c, 0, 62, 0
1, 101999, Note_on_c, 0, 76, 0
1, 101999, Note_on_c, 0, 88, 0
1, 102000, Note_on_c, 0, 74, 80
1, 102000, Note_on_c, 0, 86, 80
1, 102239, Note_on_c, 0, 74, 0
1, 102239, Note_on_c, 0, 86, 0
1, 102240, Note_on_c, 0, 74, 80
1, 102240, Note_on_c, 0, 86, 80
1, 102479, Note_on_c, 0, 74, 0
1, 102479, Note_on_c, 0, 86, 0
1, 102480, Note_on_c, 0, 74, 80
1, 102480, Note_on_c, 0, 78, 80
1, 102480, Note_on_c, 0, 86, 80
1, 102719, Note_on_c, 0, 74, 0
1, 102719, Note_on_c, 0, 78, 0
1, 102719, Note_on_c, 0, 86, 0
1, 102720, Note_on_c, 0, 78, 80
1, 102959, Note_on_c, 0, 78, 0
1, 102960, Note_on_c, 0, 78, 80
1, 103199, Note_on_c, 0, 78, 0
1, 103200, Note_on_c, 0, 78, 80
1, 103200, Note_on_c, 0, 90, 80
1, 103439, Note_on_c, 0, 78, 0
1, 103439, Note_on_c, 0, 90, 0
1, 103440, Note_on_c, 0, 76, 80
1, 103440, Note_on_c, 0, 88, 80
1, 103679, Note_on_c, 0, 76, 0
1, 103679, Note_on_c, 0, 88, 0
1, 103680, Note_on_c, 0, 76, 80
1, 103919, Note_on_c, 0, 76, 0
1, 103920, Note_on_c, 0, 74, 80
1, 103920, Note_on_c, 0, 78, 80
1, 103920, Note_on_c, 0, 86, 80
1, 104159, Note_on_c, 0, 74, 0
1, 104159, Note_on_c, 0, 78, 0
1, 104159, Note_on_c, 0, 86, 0
1, 104160, Note_on_c, 0, 74, 80
1, 104160, Note_on_c, 0, 78, 80
1, 104160, Note_on_c, 0, 86, 80
1, 104759, Note_on_c, 0, 74, 0
1, 104759, Note_on_c, 0, 78, 0
1, 104759, Note_on_c, 0, 86, 0
1, 104760, Note_on_c, 0, 78, 80
1, 104760, Note_on_c, 0, 90, 80
1, 104879, Note_on_c, 0, 78, 0
1, 104879, Note_on_c, 0, 90, 0
1, 104880, Note_on_c, 0, 78, 80
1, 104880, Note_on_c, 0, 90, 80
1, 105119, Note_on_c, 0, 78, 0
1, 105119, Note_on_c, 0, 90, 0
1, 105120, Note_on_c, 0, 78, 80
1, 105120, Note_on_c, 0, 90, 80
1, 105359, Note_on_c, 0, 78, 0
1, 105359, Note_on_c, 0, 90, 0
1, 105360, Note_on_c, 0, 62, 80
1, 105360, Note_on_c, 0, 76, 80
1, 105360, Note_on_c, 0, 88, 80
1, 105599, Note_on_c, 0, 62, 0
1, 105599, Note_on_c, 0, 76, 0
1, 105599, Note_on_c, 0, 88, 0
1, 105600, Note_on_c, 0, 66, 80
1, 105600, Note_on_c, 0, 76, 80
1, 105600, Note_on_c, 0, 88, 80
1, 105839, Note_on_c, 0, 66, 0
1, 105839, Note_on_c, 0, 76, 0
1, 105839, Note_on_c, 0, 88, 0
1, 105840, Note_on_c, 0, 74, 80
1, 105840, Note_on_c, 0, 86, 80
1, 106079, Note_on_c, 0, 74, 0
1, 106079, Note_on_c, 0, 86, 0
1, 106080, Note_on_c, 0, 74, 80
1, 106319, Note_on_c, 0, 74, 0
1, 106320, Note_on_c, 0, 86, 80
1, 106559, Note_on_c, 0, 86, 0
1, 106560, Note_on_c, 0, 78, 80
1, 106799, Note_on_c, 0, 78, 0
1, 106800, Note_on_c, 0, 78, 80
1, 107039, Note_on_c, 0, 78, 0
1, 107040, Note_on_c, 0, 78, 80
1, 107040, Note_on_c, 0, 90, 80
1, 107279, Note_on_c, 0, 78, 0
1, 107279, Note_on_c, 0, 90, 0
1, 107280, Note_on_c, 0, 61, 80
1, 107280, Note_on_c, 0, 76, 80
1, 107280, Note_on_c, 0, 88, 80
1, 107519, Note_on_c, 0, 61, 0
1, 107519, Note_on_c, 0, 76, 0
1, 107519, Note_on_c, 0, 88, 0
1, 107520, Note_on_c, 0, 64, 80
1, 107520, Note_on_c, 0, 76, 80
1, 107520, Note_on_c, 0, 88, 80
1, 107759, Note_on_c, 0, 64, 0
1, 107759, Note_on_c, 0, 76, 0
1, 107759, Note_on_c, 0, 88, 0
1, 107760, Note_on_c, 0, 74, 80
1, 107760, Note_on_c, 0, 86, 80
1, 107999, Note_on_c, 0, 74, 0
1, 107999, Note_on_c, 0, 86, 0
1, 108000, Note_on_c, 0, 74, 80
1, 109439, Note_on_c, 0, 74, 0
1, 110400, Note_on_c, 0, 78, 80
1, 110400, Note_on_c, 0, 90, 80
1, 110639, Note_on_c, 0, 78, 0
1, 110639, Note_on_c, 0, 90, 0
1, 110640, Note_on_c, 0, 76, 80
1, 110640, Note_on_c, 0, 88, 80
1, 110879, Note_on_c, 0, 76, 0
1, 110879, Note_on_c, 0, 88, 0
1, 110880, Note_on_c, 0, 76, 80
1, 111119, Note_on_c, 0, 76, 0
1, 111120, Note_on_c, 0, 74, 80
1, 111120, Note_on_c, 0, 86, 80
1, 111359, Note_on_c, 0, 74, 0
1, 111359, Note_on_c, 0, 86, 0
1, 111360, Note_on_c, 0, 74, 80
1, 111839, Note_on_c, 0, 74, 0
1, 111840, Note_on_c, 0, 76, 80
1, 112079, Note_on_c, 0, 76, 0
1, 112080, Note_on_c, 0, 78, 80
1, 112319, Note_on_c, 0, 78, 0
1, 112320, Note_on_c, 0, 74, 80
1, 112320, Note_on_c, 0, 79, 80
1, 112320, Note_on_c, 0, 83, 80
1, 112799, Note_on_c, 0, 74, 0
1, 112799, Note_on_c, 0, 79, 0
1, 112799, Note_on_c, 0, 83, 0
1, 112800, Note_on_c, 0, 78, 80
1, 112800, Note_on_c, 0, 83, 80
1, 113279, Note_on_c, 0, 78, 0
1, 113279, Note_on_c, 0, 83, 0
1, 114240, Note_on_c, 0, 78, 80
1, 114240, Note_on_c, 0, 90, 80
1, 114479, Note_on_c, 0, 78, 0
1, 114479, Note_on_c, 0, 90, 0
1, 114480, Note_on_c, 0, 76, 80
1, 114480, Note_on_c, 0, 88, 80
1, 114719, Note_on_c, 0, 76, 0
1, 114719, Note_on_c, 0, 88, 0
1, 114720, Note_on_c, 0, 76, 80
1, 114720, Note_on_c, 0, 88, 80
1, 114959, Note_on_c, 0, 76, 0
1, 114959, Note_on_c, 0, 88, 0
1, 114960, Note_on_c, 0, 76, 80
1, 114960, Note_on_c, 0, 88, 80
1, 115199, Note_on_c, 0, 76, 0
1, 115199, Note_on_c, 0, 88, 0
1, 115200, Note_on_c, 0, 76, 80
1, 115200, Note_on_c, 0, 88, 80
1, 115679, Note_on_c, 0, 76, 0
1, 115679, Note_on_c, 0, 88, 0
1, 115680, Note_on_c, 0, 76, 80
1, 115919, Note_on_c, 0, 76, 0
1, 115920, Note_on_c, 0, 78, 80
1, 116159, Note_on_c, 0, 78, 0
1, 116160, Note_on_c, 0, 67, 80
1, 116160, Note_on_c, 0, 79, 80
1, 116160, Note_on_c, 0, 83, 80
1, 116639, Note_on_c, 0, 67, 0
1, 116639, Note_on_c, 0, 79, 0
1, 116639, Note_on_c, 0, 83, 0
1, 116640, Note_on_c, 0, 78, 80
1, 116640, Note_on_c, 0, 90, 80
1, 117119, Note_on_c, 0, 78, 0
1, 117119, Note_on_c, 0, 90, 0
1, 118080, Note_on_c, 0, 79, 80
1, 118319, Note_on_c, 0, 79, 0
1, 118320, Note_on_c, 0, 78, 80
1, 118559, Note_on_c, 0, 78, 0
1, 118560, Note_on_c, 0, 76, 80
1, 118560, Note_on_c, 0, 88, 80
1, 118799, Note_on_c, 0, 76, 0
1, 118799, Note_on_c, 0, 88, 0
1, 118800, Note_on_c, 0, 74, 80
1, 118800, Note_on_c, 0, 86, 80
1, 119039, Note_on_c, 0, 74, 0
1, 119039, Note_on_c, 0, 86, 0
1, 119040, Note_on_c, 0, 74, 80
1, 119519, Note_on_c, 0, 74, 0
1, 119520, Note_on_c, 0, 76, 80
1, 119759, Note_on_c, 0, 76, 0
1, 119760, Note_on_c, 0, 78, 80
1, 119999, Note_on_c, 0, 78, 0
1, 120000, Note_on_c, 0, 78, 80
1, 120000, Note_on_c, 0, 83, 80
1, 120000, Note_on_c, 0, 90, 80
1, 120959, Note_on_c, 0, 78, 0
1, 120959, Note_on_c, 0, 83, 0
1, 120959, Note_on_c, 0, 90, 0
1, 121440, Note_on_c, 0, 74, 80
1, 121919, Note_on_c, 0, 74, 0
1, 121920, Note_on_c, 0, 79, 80
1, 122159, Note_on_c, 0, 79, 0
1, 122160, Note_on_c, 0, 78, 80
1, 122399, Note_on_c, 0, 78, 0
1, 122400, Note_on_c, 0, 76, 80
1, 122639, Note_on_c, 0, 76, 0
1, 122640, Note_on_c, 0, 74, 80
1, 122640, Note_on_c, 0, 86, 80
1, 122879, Note_on_c, 0, 74, 0
1, 122879, Note_on_c, 0, 86, 0
1, 122880, Note_on_c, 0, 74, 80
1, 122880, Note_on_c, 0, 86, 80
1, 123359, Note_on_c, 0, 74, 0
1, 123359, Note_on_c, 0, 86, 0
1, 123360, Note_on_c, 0, 76, 80
1, 123599, Note_on_c, 0, 76, 0
1, 123600, Note_on_c, 0, 78, 80
1, 124319, Note_on_c, 0, 78, 0
1, 124320, Note_on_c, 0, 78, 80
1, 124320, Note_on_c, 0, 83, 80
1, 124799, Note_on_c, 0, 78, 0
1, 124799, Note_on_c, 0, 83, 0
1, 125760, Note_on_c, 0, 78, 80
1, 125760, Note_on_c, 0, 83, 80
1, 125999, Note_on_c, 0, 78, 0
1, 125999, Note_on_c, 0, 83, 0
1, 126000, Note_on_c, 0, 78, 80
1, 126000, Note_on_c, 0, 83, 80
1, 126000, Note_on_c, 0, 90, 80
1, 126239, Note_on_c, 0, 78, 0
1, 126239, Note_on_c, 0, 83, 0
1, 126239, Note_on_c, 0, 90, 0
1, 126240, Note_on_c, 0, 78, 80
1, 126240, Note_on_c, 0, 83, 80
1, 126479, Note_on_c, 0, 78, 0
1, 126479, Note_on_c, 0, 83, 0
1, 126480, Note_on_c, 0, 79, 80
1, 126719, Note_on_c, 0, 79, 0
1, 126720, Note_on_c, 0, 78, 80
1, 126720, Note_on_c, 0, 83, 80
1, 127679, Note_on_c, 0, 78, 0
1, 127679, Note_on_c, 0, 83, 0
1, 127680, Note_on_c, 0, 78, 80
1, 127919, Note_on_c, 0, 78, 0
1, 127920, Note_on_c, 0, 78, 80
1, 127920, Note_on_c, 0, 83, 80
1, 128159, Note_on_c, 0, 78, 0
1, 128159, Note_on_c, 0, 83, 0
1, 128160, Note_on_c, 0, 78, 80
1, 128160, Note_on_c, 0, 83, 80
1, 128399, Note_on_c, 0, 78, 0
1, 128399, Note_on_c, 0, 83, 0
1, 128400, Note_on_c, 0, 79, 80
1, 128400, Note_on_c, 0, 83, 80
1, 128639, Note_on_c, 0, 79, 0
1, 128639, Note_on_c, 0, 83, 0
1, 128640, Note_on_c, 0, 78, 80
1, 128640, Note_on_c, 0, 83, 80
1, 129599, Note_on_c, 0, 78, 0
1, 129599, Note_on_c, 0, 83, 0
1, 129600, Note_on_c, 0, 78, 80
1, 129600, Note_on_c, 0, 83, 80
1, 129839, Note_on_c, 0, 78, 0
1, 129839, Note_on_c, 0, 83, 0
1, 129840, Note_on_c, 0, 78, 80
1, 129840, Note_on_c, 0, 83, 80
1, 129840, Note_on_c, 0, 90, 80
1, 130079, Note_on_c, 0, 78, 0
1, 130079, Note_on_c, 0, 83, 0
1, 130079, Note_on_c, 0, 90, 0
1, 130080, Note_on_c, 0, 78, 80
1, 130080, Note_on_c, 0, 83, 80
1, 130319, Note_on_c, 0, 78, 0
1, 130319, Note_on_c, 0, 83, 0
1, 130320, Note_on_c, 0, 79, 80
1, 130320, Note_on_c, 0, 83, 80
1, 130559, Note_on_c, 0, 79, 0
1, 130559, Note_on_c, 0, 83, 0
1, 130560, Note_on_c, 0, 78, 80
1, 130560, Note_on_c, 0, 83, 80
1, 132479, Note_on_c, 0, 78, 0
1, 132479, Note_on_c, 0, 83, 0
1, 133440, Note_on_c, 0, 78, 80
1, 133440, Note_on_c, 0, 83, 80
1, 133440, Note_on_c, 0, 90, 80
1, 133679, Note_on_c, 0, 78, 0
1, 133679, Note_on_c, 0, 83, 0
1, 133679, Note_on_c, 0, 90, 0
1, 133680, Note_on_c, 0, 78, 80
1, 133680, Note_on_c, 0, 83, 80
1, 133680, Note_on_c, 0, 90, 80
1, 133919, Note_on_c, 0, 78, 0
1, 133919, Note_on_c, 0, 83, 0
1, 133919, Note_on_c, 0, 90, 0
1, 133920, Note_on_c, 0, 78, 80
1, 133920, Note_on_c, 0, 83, 80
1, 134159, Note_on_c, 0, 78, 0
1, 134159, Note_on_c, 0, 83, 0
1, 134160, Note_on_c, 0, 79, 80
1, 134160, Note_on_c, 0, 83, 80
1, 134399, Note_on_c, 0, 79, 0
1, 134399, Note_on_c, 0, 83, 0
1, 134400, Note_on_c, 0, 78, 80
1, 134400, Note_on_c, 0, 83, 80
1, 135359, Note_on_c, 0, 78, 0
1, 135359, Note_on_c, 0, 83, 0
1, 135360, Note_on_c, 0, 78, 80
1, 135360, Note_on_c, 0, 83, 80
1, 135360, Note_on_c, 0, 90, 80
1, 135599, Note_on_c, 0, 78, 0
1, 135599, Note_on_c, 0, 83, 0
1, 135599, Note_on_c, 0, 90, 0
1, 135600, Note_on_c, 0, 78, 80
1, 135600, Note_on_c, 0, 83, 80
1, 135839, Note_on_c, 0, 78, 0
1, 135839, Note_on_c, 0, 83, 0
1, 135840, Note_on_c, 0, 78, 80
1, 135840, Note_on_c, 0, 83, 80
1, 135840, Note_on_c, 0, 90, 80
1, 136079, Note_on_c, 0, 78, 0
1, 136079, Note_on_c, 0, 83, 0
1, 136079, Note_on_c, 0, 90, 0
1, 136080, Note_on_c, 0, 79, 80
1, 136319, Note_on_c, 0, 79, 0
1, 136320, Note_on_c, 0, 78, 80
1, 136320, Note_on_c, 0, 83, 80
1, 136799, Note_on_c, 0, 78, 0
1, 136799, Note_on_c, 0, 83, 0
1, 136800, Note_on_c, 0, 74, 80
1, 137279, Note_on_c, 0, 74, 0
1, 137280, Note_on_c, 0, 78, 80
1, 137280, Note_on_c, 0, 83, 80
1, 137519, Note_on_c, 0, 78, 0
1, 137519, Note_on_c, 0, 83, 0
1, 137520, Note_on_c, 0, 78, 80
1, 137520, Note_on_c, 0, 83, 80
1, 137520, Note_on_c, 0, 90, 80
1, 137759, Note_on_c, 0, 78, 0
1, 137759, Note_on_c, 0, 83, 0
1, 137759, Note_on_c, 0, 90, 0
1, 137760, Note_on_c, 0, 78, 80
1, 137760, Note_on_c, 0, 83, 80
1, 137999, Note_on_c, 0, 78, 0
1, 137999, Note_on_c, 0, 83, 0
1, 138000, Note_on_c, 0, 79, 80
1, 138000, Note_on_c, 0, 83, 80
1, 138239, Note_on_c, 0, 79, 0
1, 138239, Note_on_c, 0, 83, 0
1, 138240, Note_on_c, 0, 66, 80
1, 138240, Note_on_c, 0, 78, 80
1, 138240, Note_on_c, 0, 83, 80
1, 138719, Note_on_c, 0, 66, 0
1, 138719, Note_on_c, 0, 78, 0
1, 138719, Note_on_c, 0, 83, 0
1, 138720, Note_on_c, 0, 76, 80
1, 140159, Note_on_c, 0, 76, 0
1, 140160, Note_on_c, 0, 62, 80
1, 140160, Note_on_c, 0, 78, 80
1, 140160, Note_on_c, 0, 83, 80
1, 140160, Note_on_c, 0, 90, 80
1, 140399, Note_on_c, 0, 62, 0
1, 140399, Note_on_c, 0, 78, 0
1, 140399, Note_on_c, 0, 83, 0
1, 140399, Note_on_c, 0, 90, 0
1, 140400, Note_on_c, 0, 78, 80
1, 140400, Note_on_c, 0, 83, 80
1, 140639, Note_on_c, 0, 78, 0
1, 140639, Note_on_c, 0, 83, 0
1, 140640, Note_on_c, 0, 78, 80
1, 140640, Note_on_c, 0, 83, 80
1, 140879, Note_on_c, 0, 78, 0
1, 140879, Note_on_c, 0, 83, 0
1, 140880, Note_on_c, 0, 78, 80
1, 140880, Note_on_c, 0, 83, 80
1, 141119, Note_on_c, 0, 78, 0
1, 141119, Note_on_c, 0, 83, 0
1, 141120, Note_on_c, 0, 78, 80
1, 141120, Note_on_c, 0, 83, 80
1, 141599, Note_on_c, 0, 78, 0
1, 141599, Note_on_c, 0, 83, 0
1, 141600, Note_on_c, 0, 78, 80
1, 141600, Note_on_c, 0, 83, 80
1, 141839, Note_on_c, 0, 78, 0
1, 141839, Note_on_c, 0, 83, 0
1, 141840, Note_on_c, 0, 78, 80
1, 141840, Note_on_c, 0, 83, 80
1, 142079, Note_on_c, 0, 78, 0
1, 142079, Note_on_c, 0, 83, 0
1, 142080, Note_on_c, 0, 83, 80
1, 142559, Note_on_c, 0, 83, 0
1, 142560, Note_on_c, 0, 74, 80
1, 142560, Note_on_c, 0, 86, 80
1, 143759, Note_on_c, 0, 74, 0
1, 143759, Note_on_c, 0, 86, 0
1, 143760, Note_on_c, 0, 62, 80
1, 143999, Note_on_c, 0, 62, 0
1, 144000, Note_on_c, 0, 66, 80
1, 144000, Note_on_c, 0, 71, 80
1, 144000, Note_on_c, 0, 78, 80
1, 144239, Note_on_c, 0, 66, 0
1, 144239, Note_on_c, 0, 71, 0
1, 144239, Note_on_c, 0, 78, 0
1, 144240, Note_on_c, 0, 78, 80
1, 144719, Note_on_c, 0, 78, 0
1, 144720, Note_on_c, 0, 78, 80
1, 144959, Note_on_c, 0, 78, 0
1, 144960, Note_on_c, 0, 78, 80
1, 145199, Note_on_c, 0, 78, 0
1, 145200, Note_on_c, 0, 78, 80
1, 145439, Note_on_c, 0, 78, 0
1, 145440, Note_on_c, 0, 78, 80
1, 145679, Note_on_c, 0, 78, 0
1, 145680, Note_on_c, 0, 78, 80
1, 145919, Note_on_c, 0, 78, 0
1, 145920, Note_on_c, 0, 71, 80
1, 145920, Note_on_c, 0, 78, 80
1, 146399, Note_on_c, 0, 71, 0
1, 146399, Note_on_c, 0, 78, 0
1, 146400, Note_on_c, 0, 76, 80
1, 147839, Note_on_c, 0, 76, 0
1, 147840, Note_on_c, 0, 62, 80
1, 147840, Note_on_c, 0, 66, 80
1, 147840, Note_on_c, 0, 71, 80
1, 147840, Note_on_c, 0, 78, 80
1, 148319, Note_on_c, 0, 62, 0
1, 148319, Note_on_c, 0, 66, 0
1, 148319, Note_on_c, 0, 71, 0
1, 148319, Note_on_c, 0, 78, 0
1, 148320, Note_on_c, 0, 71, 80
1, 148799, Note_on_c, 0, 71, 0
1, 148800, Note_on_c, 0, 66, 80
1, 148800, Note_on_c, 0, 78, 80
1, 149039, Note_on_c, 0, 66, 0
1, 149039, Note_on_c, 0, 78, 0
1, 149040, Note_on_c, 0, 78, 80
1, 149279, Note_on_c, 0, 78, 0
1, 149280, Note_on_c, 0, 71, 80
1, 149759, Note_on_c, 0, 71, 0
1, 149760, Note_on_c, 0, 66, 80
1, 149760, Note_on_c, 0, 78, 80
1, 150239, Note_on_c, 0, 66, 0
1, 150239, Note_on_c, 0, 78, 0
1, 150240, Note_on_c, 0, 74, 80
1, 151679, Note_on_c, 0, 74, 0
1, 151680, Note_on_c, 0, 66, 80
1, 151680, Note_on_c, 0, 78, 80
1, 152159, Note_on_c, 0, 66, 0
1, 152159, Note_on_c, 0, 78, 0
1, 152160, Note_on_c, 0, 71, 80
1, 152639, Note_on_c, 0, 71, 0
1, 152640, Note_on_c, 0, 66, 80
1, 152640, Note_on_c, 0, 78, 80
1, 152879, Note_on_c, 0, 66, 0
1, 152879, Note_on_c, 0, 78, 0
1, 152880, Note_on_c, 0, 78, 80
1, 153119, Note_on_c, 0, 78, 0
1, 153120, Note_on_c, 0, 71, 80
1, 153599, Note_on_c, 0, 71, 0
1, 153600, Note_on_c, 0, 66, 80
1, 153600, Note_on_c, 0, 78, 80
1, 154079, Note_on_c, 0, 66, 0
1, 154079, Note_on_c, 0, 78, 0
1, 154080, Note_on_c, 0, 74, 80
1, 155519, Note_on_c, 0, 74, 0
1, 155520, Note_on_c, 0, 62, 80
1, 155520, Note_on_c, 0, 67, 80
1, 155520, Note_on_c, 0, 71, 80
1, 155520, Note_on_c, 0, 76, 80
1, 155999, Note_on_c, 0, 62, 0
1, 155999, Note_on_c, 0, 67, 0
1, 155999, Note_on_c, 0, 71, 0
1, 155999, Note_on_c, 0, 76, 0
1, 156000, Note_on_c, 0, 67, 80
1, 156000, Note_on_c, 0, 71, 80
1, 156000, Note_on_c, 0, 76, 80
1, 156479, Note_on_c, 0, 67, 0
1, 156479, Note_on_c, 0, 71, 0
1, 156479, Note_on_c, 0, 76, 0
1, 156480, Note_on_c, 0, 67, 80
1, 156480, Note_on_c, 0, 71, 80
1, 156480, Note_on_c, 0, 76, 80
1, 156959, Note_on_c, 0, 67, 0
1, 156959, Note_on_c, 0, 71, 0
1, 156959, Note_on_c, 0, 76, 0
1, 156960, Note_on_c, 0, 67, 80
1, 156960, Note_on_c, 0, 71, 80
1, 156960, Note_on_c, 0, 76, 80
1, 157439, Note_on_c, 0, 67, 0
1, 157439, Note_on_c, 0, 71, 0
1, 157439, Note_on_c, 0, 76, 0
1, 157440, Note_on_c, 0, 67, 80
1, 157440, Note_on_c, 0, 71, 80
1, 157440, Note_on_c, 0, 78, 80
1, 157919, Note_on_c, 0, 67, 0
1, 157919, Note_on_c, 0, 71, 0
1, 157919, Note_on_c, 0, 78, 0
1, 157920, Note_on_c, 0, 74, 80
1, 158879, Note_on_c, 0, 74, 0
1, 158880, Note_on_c, 0, 71, 80
1, 158880, Note_on_c, 0, 78, 80
1, 159119, Note_on_c, 0, 71, 0
1, 159119, Note_on_c, 0, 78, 0
1, 159120, Note_on_c, 0, 62, 80
1, 159359, Note_on_c, 0, 62, 0
1, 159360, Note_on_c, 0, 71, 80
1, 159360, Note_on_c, 0, 78, 80
1, 159599, Note_on_c, 0, 71, 0
1, 159599, Note_on_c, 0, 78, 0
1, 159600, Note_on_c, 0, 78, 80
1, 159839, Note_on_c, 0, 78, 0
1, 159840, Note_on_c, 0, 71, 80
1, 159840, Note_on_c, 0, 78, 80
1, 160319, Note_on_c, 0, 71, 0
1, 160319, Note_on_c, 0, 78, 0
1, 160320, Note_on_c, 0, 71, 80
1, 160320, Note_on_c, 0, 78, 80
1, 160559, Note_on_c, 0, 71, 0
1, 160559, Note_on_c, 0, 78, 0
1, 160560, Note_on_c, 0, 71, 80
1, 160560, Note_on_c, 0, 78, 80
1, 160799, Note_on_c, 0, 71, 0
1, 160799, Note_on_c, 0, 78, 0
1, 160800, Note_on_c, 0, 71, 80
1, 160800, Note_on_c, 0, 78, 80
1, 161039, Note_on_c, 0, 71, 0
1, 161039, Note_on_c, 0, 78, 0
1, 161040, Note_on_c, 0, 61, 80
1, 161040, Note_on_c, 0, 79, 80
1, 161279, Note_on_c, 0, 61, 0
1, 161279, Note_on_c, 0, 79, 0
1, 161280, Note_on_c, 0, 78, 80
1, 161759, Note_on_c, 0, 78, 0
1, 161760, Note_on_c, 0, 64, 80
1, 161760, Note_on_c, 0, 71, 80
1, 161760, Note_on_c, 0, 76, 80
1, 163199, Note_on_c, 0, 64, 0
1, 163199, Note_on_c, 0, 71, 0
1, 163199, Note_on_c, 0, 76, 0
1, 163200, Note_on_c, 0, 62, 80
1, 164159, Note_on_c, 0, 62, 0
1, 164160, Note_on_c, 0, 71, 80
1, 164160, Note_on_c, 0, 74, 80
1, 164399, Note_on_c, 0, 71, 0
1, 164399, Note_on_c, 0, 74, 0
1, 164400, Note_on_c, 0, 71, 80
1, 164400, Note_on_c, 0, 74, 80
1, 164639, Note_on_c, 0, 71, 0
1, 164639, Note_on_c, 0, 74, 0
1, 164640, Note_on_c, 0, 78, 80
1, 164879, Note_on_c, 0, 78, 0
1, 164880, Note_on_c, 0, 76, 80
1, 165119, Note_on_c, 0, 76, 0
1, 165120, Note_on_c, 0, 62, 80
1, 165120, Note_on_c, 0, 71, 80
1, 165120, Note_on_c, 0, 74, 80
1, 165599, Note_on_c, 0, 62, 0
1, 165599, Note_on_c, 0, 71, 0
1, 165599, Note_on_c, 0, 74, 0
1, 165600, Note_on_c, 0, 74, 80
1, 165600, Note_on_c, 0, 78, 80
1, 166079, Note_on_c, 0, 74, 0
1, 166079, Note_on_c, 0, 78, 0
1, 166080, Note_on_c, 0, 71, 80
1, 166080, Note_on_c, 0, 74, 80
1, 166319, Note_on_c, 0, 71, 0
1, 166319, Note_on_c, 0, 74, 0
1, 166320, Note_on_c, 0, 71, 80
1, 166320, Note_on_c, 0, 74, 80
1, 166559, Note_on_c, 0, 71, 0
1, 166559, Note_on_c, 0, 74, 0
1, 166560, Note_on_c, 0, 78, 80
1, 166799, Note_on_c, 0, 78, 0
1, 166800, Note_on_c, 0, 76, 80
1, 167039, Note_on_c, 0, 76, 0
1, 167040, Note_on_c, 0, 71, 80
1, 167040, Note_on_c, 0, 74, 80
1, 167519, Note_on_c, 0, 71, 0
1, 167519, Note_on_c, 0, 74, 0
1, 167520, Note_on_c, 0, 71, 80
1, 167520, Note_on_c, 0, 76, 80
1, 167999, Note_on_c, 0, 71, 0
1, 167999, Note_on_c, 0, 76, 0
1, 168000, Note_on_c, 0, 64, 80
1, 168000, Note_on_c, 0, 71, 80
1, 168000, Note_on_c, 0, 74, 80
1, 168239, Note_on_c, 0, 64, 0
1, 168239, Note_on_c, 0, 71, 0
1, 168239, Note_on_c, 0, 74, 0
1, 168240, Note_on_c, 0, 74, 80
1, 168479, Note_on_c, 0, 74, 0
1, 168480, Note_on_c, 0, 78, 80
1, 168719, Note_on_c, 0, 78, 0
1, 168720, Note_on_c, 0, 76, 80
1, 168959, Note_on_c, 0, 76, 0
1, 168960, Note_on_c, 0, 71, 80
1, 168960, Note_on_c, 0, 74, 80
1, 169439, Note_on_c, 0, 71, 0
1, 169439, Note_on_c, 0, 74, 0
1, 169440, Note_on_c, 0, 71, 80
1, 169440, Note_on_c, 0, 76, 80
1, 169919, Note_on_c, 0, 71, 0
1, 169919, Note_on_c, 0, 76, 0
1, 169920, Note_on_c, 0, 71, 80
1, 169920, Note_on_c, 0, 78, 80
1, 170399, Note_on_c, 0, 71, 0
1, 170399, Note_on_c, 0, 78, 0
1, 170400, Note_on_c, 0, 71, 80
1, 170400, Note_on_c, 0, 78, 80
1, 170639, Note_on_c, 0, 71, 0
1, 170639, Note_on_c, 0, 78, 0
1, 170640, Note_on_c, 0, 79, 80
1, 170879, Note_on_c, 0, 79, 0
1, 170880, Note_on_c, 0, 62, 80
1, 170880, Note_on_c, 0, 71, 80
1, 170880, Note_on_c, 0, 76, 80
1, 171359, Note_on_c, 0, 62, 0
1, 171359, Note_on_c, 0, 71, 0
1, 171359, Note_on_c, 0, 76, 0
1, 171360, Note_on_c, 0, 76, 80
1, 171599, Note_on_c, 0, 76, 0
1, 171600, Note_on_c, 0, 76, 80
1, 171839, Note_on_c, 0, 76, 0
1, 171840, Note_on_c, 0, 71, 80
1, 171840, Note_on_c, 0, 74, 80
1, 172079, Note_on_c, 0, 71, 0
1, 172079, Note_on_c, 0, 74, 0
1, 172080, Note_on_c, 0, 71, 80
1, 172319, Note_on_c, 0, 71, 0
1, 172320, Note_on_c, 0, 78, 80
1, 172559, Note_on_c, 0, 78, 0
1, 172560, Note_on_c, 0, 78, 80
1, 172799, Note_on_c, 0, 78, 0
1, 172800, Note_on_c, 0, 71, 80
1, 172800, Note_on_c, 0, 78, 80
1, 173279, Note_on_c, 0, 71, 0
1, 173279, Note_on_c, 0, 78, 0
1, 173280, Note_on_c, 0, 74, 80
1, 173759, Note_on_c, 0, 74, 0
1, 173760, Note_on_c, 0, 71, 80
1, 173760, Note_on_c, 0, 78, 80
1, 173999, Note_on_c, 0, 71, 0
1, 173999, Note_on_c, 0, 78, 0
1, 174000, Note_on_c, 0, 78, 80
1, 174239, Note_on_c, 0, 78, 0
1, 174240, Note_on_c, 0, 78, 80
1, 174479, Note_on_c, 0, 78, 0
1, 174480, Note_on_c, 0, 62, 80
1, 174480, Note_on_c, 0, 78, 80
1, 174719, Note_on_c, 0, 62, 0
1, 174719, Note_on_c, 0, 78, 0
1, 174720, Note_on_c, 0, 71, 80
1, 174720, Note_on_c, 0, 76, 80
1, 174959, Note_on_c, 0, 71, 0
1, 174959, Note_on_c, 0, 76, 0
1, 174960, Note_on_c, 0, 76, 80
1, 175199, Note_on_c, 0, 76, 0
1, 175200, Note_on_c, 0, 76, 80
1, 175439, Note_on_c, 0, 76, 0
1, 175440, Note_on_c, 0, 76, 80
1, 175679, Note_on_c, 0, 76, 0
1, 175680, Note_on_c, 0, 71, 80
1, 175680, Note_on_c, 0, 74, 80
1, 175919, Note_on_c, 0, 71, 0
1, 175919, Note_on_c, 0, 74, 0
1, 175920, Note_on_c, 0, 74, 80
1, 176159, Note_on_c, 0, 74, 0
1, 176160, Note_on_c, 0, 71, 80
1, 176160, Note_on_c, 0, 78, 80
1, 176399, Note_on_c, 0, 71, 0
1, 176399, Note_on_c, 0, 78, 0
1, 176400, Note_on_c, 0, 61, 80
1, 176400, Note_on_c, 0, 76, 80
1, 176639, Note_on_c, 0, 61, 0
1, 176639, Note_on_c, 0, 76, 0
1, 176640, Note_on_c, 0, 71, 80
1, 176640, Note_on_c, 0, 76, 80
1, 177119, Note_on_c, 0, 71, 0
1, 177119, Note_on_c, 0, 76, 0
1, 177120, Note_on_c, 0, 76, 80
1, 178079, Note_on_c, 0, 76, 0
1, 178080, Note_on_c, 0, 78, 80
1, 178319, Note_on_c, 0, 78, 0
1, 178320, Note_on_c, 0, 78, 80
1, 178559, Note_on_c, 0, 78, 0
1, 179040, Note_on_c, 0, 78, 80
1, 179279, Note_on_c, 0, 78, 0
1, 179280, Note_on_c, 0, 76, 80
1, 179519, Note_on_c, 0, 76, 0
1, 179520, Note_on_c, 0, 67, 80
1, 179520, Note_on_c, 0, 71, 80
1, 179520, Note_on_c, 0, 78, 80
1, 180479, Note_on_c, 0, 67, 0
1, 180479, Note_on_c, 0, 71, 0
1, 180479, Note_on_c, 0, 78, 0
1, 180480, Note_on_c, 0, 78, 80
1, 180719, Note_on_c, 0, 78, 0
1, 180720, Note_on_c, 0, 76, 80
1, 180959, Note_on_c, 0, 76, 0
1, 180960, Note_on_c, 0, 67, 80
1, 180960, Note_on_c, 0, 71, 80
1, 180960, Note_on_c, 0, 78, 80
1, 182399, Note_on_c, 0, 67, 0
1, 182399, Note_on_c, 0, 71, 0
1, 182399, Note_on_c, 0, 78, 0
1, 183600, Note_on_c, 0, 78, 80
1, 183839, Note_on_c, 0, 78, 0
1, 183840, Note_on_c, 0, 78, 80
1, 184079, Note_on_c, 0, 78, 0
1, 184080, Note_on_c, 0, 78, 80
1, 184319, Note_on_c, 0, 78, 0
1, 184320, Note_on_c, 0, 78, 80
1, 184559, Note_on_c, 0, 78, 0
1, 184560, Note_on_c, 0, 78, 80
1, 184799, Note_on_c, 0, 78, 0
1, 184800, Note_on_c, 0, 81, 80
1, 185039, Note_on_c, 0, 81, 0
1, 185040, Note_on_c, 0, 78, 80
1, 185279, Note_on_c, 0, 78, 0
1, 185280, Note_on_c, 0, 76, 80
1, 185519, Note_on_c, 0, 76, 0
1, 185520, Note_on_c, 0, 76, 80
1, 185759, Note_on_c, 0, 76, 0
1, 185760, Note_on_c, 0, 74, 80
1, 185999, Note_on_c, 0, 74, 0
1, 186000, Note_on_c, 0, 76, 80
1, 186239, Note_on_c, 0, 76, 0
1, 188160, Note_on_c, 0, 71, 80
1, 188160, Note_on_c, 0, 81, 80
1, 188399, Note_on_c, 0, 71, 0
1, 188399, Note_on_c, 0, 81, 0
1, 188400, Note_on_c, 0, 78, 80
1, 188639, Note_on_c, 0, 78, 0
1, 188640, Note_on_c, 0, 76, 80
1, 188879, Note_on_c, 0, 76, 0
1, 188880, Note_on_c, 0, 74, 80
1, 189119, Note_on_c, 0, 74, 0
1, 189120, Note_on_c, 0, 74, 80
1, 189599, Note_on_c, 0, 74, 0
1, 189600, Note_on_c, 0, 76, 80
1, 189839, Note_on_c, 0, 76, 0
1, 189840, Note_on_c, 0, 78, 80
1, 190079, Note_on_c, 0, 78, 0
1, 190080, Note_on_c, 0, 71, 80
1, 190080, Note_on_c, 0, 79, 80
1, 190559, Note_on_c, 0, 71, 0
1, 190559, Note_on_c, 0, 79, 0
1, 190560, Note_on_c, 0, 71, 80
1, 190560, Note_on_c, 0, 78, 80
1, 191999, Note_on_c, 0, 71, 0
1, 191999, Note_on_c, 0, 78, 0
1, 192000, Note_on_c, 0, 71, 80
1, 192000, Note_on_c, 0, 81, 80
1, 192239, Note_on_c, 0, 71, 0
1, 192239, Note_on_c, 0, 81, 0
1, 192240, Note_on_c, 0, 78, 80
1, 192479, Note_on_c, 0, 78, 0
1, 192480, Note_on_c, 0, 76, 80
1, 192719, Note_on_c, 0, 76, 0
1, 192720, Note_on_c, 0, 74, 80
1, 192959, Note_on_c, 0, 74, 0
1, 192960, Note_on_c, 0, 74, 80
1, 193439, Note_on_c, 0, 74, 0
1, 193440, Note_on_c, 0, 71, 80
1, 193440, Note_on_c, 0, 76, 80
1, 193679, Note_on_c, 0, 71, 0
1, 193679, Note_on_c, 0, 76, 0
1, 193680, Note_on_c, 0, 78, 80
1, 193919, Note_on_c, 0, 78, 0
1, 193920, Note_on_c, 0, 71, 80
1, 193920, Note_on_c, 0, 79, 80
1, 194399, Note_on_c, 0, 71, 0
1, 194399, Note_on_c, 0, 79, 0
1, 194400, Note_on_c, 0, 71, 80
1, 194400, Note_on_c, 0, 78, 80
1, 195359, Note_on_c, 0, 71, 0
1, 195359, Note_on_c, 0, 78, 0
1, 195360, Note_on_c, 0, 74, 80
1, 195599, Note_on_c, 0, 74, 0
1, 195600, Note_on_c, 0, 74, 80
1, 195839, Note_on_c, 0, 74, 0
1, 195840, Note_on_c, 0, 71, 80
1, 195840, Note_on_c, 0, 81, 80
1, 196079, Note_on_c, 0, 71, 0
1, 196079, Note_on_c, 0, 81, 0
1, 196080, Note_on_c, 0, 78, 80
1, 196319, Note_on_c, 0, 78, 0
1, 196320, Note_on_c, 0, 76, 80
1, 196559, Note_on_c, 0, 76, 0
1, 196560, Note_on_c, 0, 74, 80
1, 197279, Note_on_c, 0, 74, 0
1, 197280, Note_on_c, 0, 64, 80
1, 197280, Note_on_c, 0, 76, 80
1, 197519, Note_on_c, 0, 64, 0
1, 197519, Note_on_c, 0, 76, 0
1, 197520, Note_on_c, 0, 78, 80
1, 197759, Note_on_c, 0, 78, 0
1, 197760, Note_on_c, 0, 71, 80
1, 197760, Note_on_c, 0, 79, 80
1, 198239, Note_on_c, 0, 71, 0
1, 198239, Note_on_c, 0, 79, 0
1, 198240, Note_on_c, 0, 71, 80
1, 198240, Note_on_c, 0, 78, 80
1, 199199, Note_on_c, 0, 71, 0
1, 199199, Note_on_c, 0, 78, 0
1, 199200, Note_on_c, 0, 74, 80
1, 199679, Note_on_c, 0, 74, 0
1, 199680, Note_on_c, 0, 71, 80
1, 199680, Note_on_c, 0, 81, 80
1, 199919, Note_on_c, 0, 71, 0
1, 199919, Note_on_c, 0, 81, 0
1, 199920, Note_on_c, 0, 78, 80
1, 200159, Note_on_c, 0, 78, 0
1, 200160, Note_on_c, 0, 76, 80
1, 200160, Note_on_c, 0, 81, 80
1, 200399, Note_on_c, 0, 76, 0
1, 200399, Note_on_c, 0, 81, 0
1, 200400, Note_on_c, 0, 74, 80
1, 200639, Note_on_c, 0, 74, 0
1, 200640, Note_on_c, 0, 74, 80
1, 201119, Note_on_c, 0, 74, 0
1, 201120, Note_on_c, 0, 71, 80
1, 201120, Note_on_c, 0, 76, 80
1, 201359, Note_on_c, 0, 71, 0
1, 201359, Note_on_c, 0, 76, 0
1, 201360, Note_on_c, 0, 78, 80
1, 201599, Note_on_c, 0, 78, 0
1, 202080, Note_on_c, 0, 67, 80
1, 202080, Note_on_c, 0, 71, 80
1, 202080, Note_on_c, 0, 78, 80
1, 203519, Note_on_c, 0, 67, 0
1, 203519, Note_on_c, 0, 71, 0
1, 203519, Note_on_c, 0, 78, 0
1, 203520, Note_on_c, 0, 71, 80
1, 203520, Note_on_c, 0, 78, 80
1, 203759, Note_on_c, 0, 71, 0
1, 203759, Note_on_c, 0, 78, 0
1, 203760, Note_on_c, 0, 78, 80
1, 203999, Note_on_c, 0, 78, 0
1, 204000, Note_on_c, 0, 78, 80
1, 204239, Note_on_c, 0, 78, 0
1, 204240, Note_on_c, 0, 79, 80
1, 204479, Note_on_c, 0, 79, 0
1, 204480, Note_on_c, 0, 71, 80
1, 204480, Note_on_c, 0, 78, 80
1, 205439, Note_on_c, 0, 71, 0
1, 205439, Note_on_c, 0, 78, 0
1, 205440, Note_on_c, 0, 64, 80
1, 205440, Note_on_c, 0, 67, 80
1, 205440, Note_on_c, 0, 71, 80
1, 205440, Note_on_c, 0, 78, 80
1, 205679, Note_on_c, 0, 64, 0
1, 205679, Note_on_c, 0, 67, 0
1, 205679, Note_on_c, 0, 71, 0
1, 205679, Note_on_c, 0, 78, 0
1, 205680, Note_on_c, 0, 78, 80
1, 205919, Note_on_c, 0, 78, 0
1, 205920, Note_on_c, 0, 78, 80
1, 206159, Note_on_c, 0, 78, 0
1, 206160, Note_on_c, 0, 79, 80
1, 206399, Note_on_c, 0, 79, 0
1, 206400, Note_on_c, 0, 64, 80
1, 206400, Note_on_c, 0, 67, 80
1, 206400, Note_on_c, 0, 71, 80
1, 206400, Note_on_c, 0, 78, 80
1, 207359, Note_on_c, 0, 64, 0
1, 207359, Note_on_c, 0, 67, 0
1, 207359, Note_on_c, 0, 71, 0
1, 207359, Note_on_c, 0, 78, 0
1, 207360, Note_on_c, 0, 67, 80
1, 207360, Note_on_c, 0, 71, 80
1, 207360, Note_on_c, 0, 78, 80
1, 207599, Note_on_c, 0, 67, 0
1, 207599, Note_on_c, 0, 71, 0
1, 207599, Note_on_c, 0, 78, 0
1, 207600, Note_on_c, 0, 78, 80
1, 207839, Note_on_c, 0, 78, 0
1, 207840, Note_on_c, 0, 78, 80
1, 208079, Note_on_c, 0, 78, 0
1, 208080, Note_on_c, 0, 79, 80
1, 208319, Note_on_c, 0, 79, 0
1, 208320, Note_on_c, 0, 64, 80
1, 208320, Note_on_c, 0, 67, 80
1, 208320, Note_on_c, 0, 71, 80
1, 208320, Note_on_c, 0, 78, 80
1, 209279, Note_on_c, 0, 64, 0
1, 209279, Note_on_c, 0, 67, 0
1, 209279, Note_on_c, 0, 71, 0
1, 209279, Note_on_c, 0, 78, 0
1, 209280, Note_on_c, 0, 78, 80
1, 209519, Note_on_c, 0, 78, 0
1, 209520, Note_on_c, 0, 78, 80
1, 209759, Note_on_c, 0, 78, 0
1, 209760, Note_on_c, 0, 78, 80
1, 209999, Note_on_c, 0, 78, 0
1, 210000, Note_on_c, 0, 79, 80
1, 210239, Note_on_c, 0, 79, 0
1, 210240, Note_on_c, 0, 71, 80
1, 210240, Note_on_c, 0, 78, 80
1, 211199, Note_on_c, 0, 71, 0
1, 211199, Note_on_c, 0, 78, 0
1, 211200, Note_on_c, 0, 67, 80
1, 211200, Note_on_c, 0, 71, 80
1, 211200, Note_on_c, 0, 78, 80
1, 211439, Note_on_c, 0, 67, 0
1, 211439, Note_on_c, 0, 71, 0
1, 211439, Note_on_c, 0, 78, 0
1, 211440, Note_on_c, 0, 78, 80
1, 211679, Note_on_c, 0, 78, 0
1, 211680, Note_on_c, 0, 78, 80
1, 211919, Note_on_c, 0, 78, 0
1, 211920, Note_on_c, 0, 79, 80
1, 212159, Note_on_c, 0, 79, 0
1, 212160, Note_on_c, 0, 67, 80
1, 212160, Note_on_c, 0, 71, 80
1, 212160, Note_on_c, 0, 78, 80
1, 213119, Note_on_c, 0, 67, 0
1, 213119, Note_on_c, 0, 71, 0
1, 213119, Note_on_c, 0, 78, 0
1, 213120, Note_on_c, 0, 66, 80
1, 213120, Note_on_c, 0, 78, 80
1, 213359, Note_on_c, 0, 66, 0
1, 213359, Note_on_c, 0, 78, 0
1, 213360, Note_on_c, 0, 78, 80
1, 213599, Note_on_c, 0, 78, 0
1, 213600, Note_on_c, 0, 78, 80
1, 213839, Note_on_c, 0, 78, 0
1, 213840, Note_on_c, 0, 79, 80
1, 214079, Note_on_c, 0, 79, 0
1, 214080, Note_on_c, 0, 66, 80
1, 214080, Note_on_c, 0, 71, 80
1, 214080, Note_on_c, 0, 78, 80
1, 215039, Note_on_c, 0, 66, 0
1, 215039, Note_on_c, 0, 71, 0
1, 215039, Note_on_c, 0, 78, 0
1, 215040, Note_on_c, 0, 69, 80
1, 215040, Note_on_c, 0, 73, 80
1, 215040, Note_on_c, 0, 78, 80
1, 215279, Note_on_c, 0, 69, 0
1, 215279, Note_on_c, 0, 73, 0
1, 215279, Note_on_c, 0, 78, 0
1, 215280, Note_on_c, 0, 78, 80
1, 215519, Note_on_c, 0, 78, 0
1, 215520, Note_on_c, 0, 78, 80
1, 215759, Note_on_c, 0, 78, 0
1, 215760, Note_on_c, 0, 81, 80
1, 215999, Note_on_c, 0, 81, 0
1, 216000, Note_on_c, 0, 69, 80
1, 216000, Note_on_c, 0, 73, 80
1, 216000, Note_on_c, 0, 78, 80
1, 216959, Note_on_c, 0, 69, 0
1, 216959, Note_on_c, 0, 73, 0
1, 216959, Note_on_c, 0, 78, 0
1, 216960, Note_on_c, 0, 67, 80
1, 217439, Note_on_c, 0, 67, 0
1, 217440, Note_on_c, 0, 71, 80
1, 217919, Note_on_c, 0, 71, 0
1, 217920, Note_on_c, 0, 71, 80
1, 217920, Note_on_c, 0, 78, 80
1, 218639, Note_on_c, 0, 71, 0
1, 218639, Note_on_c, 0, 78, 0
1, 218640, Note_on_c, 0, 78, 80
1, 218879, Note_on_c, 0, 78, 0
1, 218880, Note_on_c, 0, 67, 80
1, 219359, Note_on_c, 0, 67, 0
1, 219360, Note_on_c, 0, 71, 80
1, 219360, Note_on_c, 0, 76, 80
1, 220799, Note_on_c, 0, 71, 0
1, 220799, Note_on_c, 0, 76, 0
1, 220800, Note_on_c, 0, 66, 80
1, 221279, Note_on_c, 0, 66, 0
1, 221280, Note_on_c, 0, 71, 80
1, 221759, Note_on_c, 0, 71, 0
1, 221760, Note_on_c, 0, 66, 80
1, 221760, Note_on_c, 0, 78, 80
1, 222479, Note_on_c, 0, 66, 0
1, 222479, Note_on_c, 0, 78, 0
1, 222480, Note_on_c, 0, 78, 80
1, 222719, Note_on_c, 0, 78, 0
1, 222720, Note_on_c, 0, 69, 80
1, 223199, Note_on_c, 0, 69, 0
1, 223200, Note_on_c, 0, 73, 80
1, 223679, Note_on_c, 0, 73, 0
1, 223680, Note_on_c, 0, 69, 80
1, 224159, Note_on_c, 0, 69, 0
1, 224160, Note_on_c, 0, 69, 80
1, 224160, Note_on_c, 0, 73, 80
1, 224639, Note_on_c, 0, 69, 0
1, 224639, Note_on_c, 0, 73, 0
1, 224640, Note_on_c, 0, 67, 80
1, 225119, Note_on_c, 0, 67, 0
1, 225120, Note_on_c, 0, 71, 80
1, 225599, Note_on_c, 0, 71, 0
1, 225600, Note_on_c, 0, 71, 80
1, 225600, Note_on_c, 0, 78, 80
1, 226319, Note_on_c, 0, 71, 0
1, 226319, Note_on_c, 0, 78, 0
1, 226320, Note_on_c, 0, 78, 80
1, 226559, Note_on_c, 0, 78, 0
1, 226560, Note_on_c, 0, 67, 80
1, 227039, Note_on_c, 0, 67, 0
1, 227040, Note_on_c, 0, 71, 80
1, 227040, Note_on_c, 0, 76, 80
1, 228479, Note_on_c, 0, 71, 0
1, 228479, Note_on_c, 0, 76, 0
1, 228480, Note_on_c, 0, 66, 80
1, 228959, Note_on_c, 0, 66, 0
1, 228960, Note_on_c, 0, 71, 80
1, 229439, Note_on_c, 0, 71, 0
1, 229440, Note_on_c, 0, 66, 80
1, 229440, Note_on_c, 0, 78, 80
1, 230159, Note_on_c, 0, 66, 0
1, 230159, Note_on_c, 0, 78, 0
1, 230160, Note_on_c, 0, 78, 80
1, 230399, Note_on_c, 0, 78, 0
1, 230400, Note_on_c, 0, 69, 80
1, 230879, Note_on_c, 0, 69, 0
1, 230880, Note_on_c, 0, 73, 80
1, 231359, Note_on_c, 0, 73, 0
1, 231360, Note_on_c, 0, 73, 80
1, 231360, Note_on_c, 0, 81, 80
1, 232079, Note_on_c, 0, 73, 0
1, 232079, Note_on_c, 0, 81, 0
1, 232080, Note_on_c, 0, 69, 80
1, 232080, Note_on_c, 0, 73, 80
1, 232319, Note_on_c, 0, 69, 0
1, 232319, Note_on_c, 0, 73, 0
2, 0, Note_on_c, 0, 43, 80
2, 959, Note_on_c, 0, 43, 0
2, 960, Note_on_c, 0, 55, 80
2, 960, Note_on_c, 0, 59, 80
2, 1919, Note_on_c, 0, 55, 0
2, 1919, Note_on_c, 0, 59, 0
2, 4320, Note_on_c, 0, 47, 80
2, 5279, Note_on_c, 0, 47, 0
2, 5280, Note_on_c, 0, 54, 80
2, 5280, Note_on_c, 0, 59, 80
2, 5759, Note_on_c, 0, 54, 0
2, 5759, Note_on_c, 0, 59, 0
2, 6240, Note_on_c, 0, 45, 80
2, 7199, Note_on_c, 0, 45, 0
2, 7200, Note_on_c, 0, 52, 80
2, 7200, Note_on_c, 0, 57, 80
2, 7679, Note_on_c, 0, 52, 0
2, 7679, Note_on_c, 0, 57, 0
2, 8160, Note_on_c, 0, 43, 80
2, 9119, Note_on_c, 0, 43, 0
2, 9120, Note_on_c, 0, 55, 80
2, 9120, Note_on_c, 0, 59, 80
2, 9599, Note_on_c, 0, 55, 0
2, 9599, Note_on_c, 0, 59, 0
2, 12480, Note_on_c, 0, 47, 80
2, 13439, Note_on_c, 0, 47, 0
2, 13440, Note_on_c, 0, 54, 80
2, 13440, Note_on_c, 0, 59, 80
2, 14399, Note_on_c, 0, 54, 0
2, 14399, Note_on_c, 0, 59, 0
2, 14400, Note_on_c, 0, 45, 80
2, 15359, Note_on_c, 0, 45, 0
2, 15360, Note_on_c, 0, 52, 80
2, 15360, Note_on_c, 0, 57, 80
2, 16319, Note_on_c, 0, 52, 0
2, 16319, Note_on_c, 0, 57, 0
2, 16320, Note_on_c, 0, 43, 80
2, 16320, Note_on_c, 0, 55, 80
2, 16799, Note_on_c, 0, 43, 0
2, 16799, Note_on_c, 0, 55, 0
2, 16800, Note_on_c, 0, 50, 80
2, 17279, Note_on_c, 0, 50, 0
2, 17280, Note_on_c, 0, 55, 80
2, 17280, Note_on_c, 0, 59, 80
2, 17759, Note_on_c, 0, 55, 0
2, 17759, Note_on_c, 0, 59, 0
2, 17760, Note_on_c, 0, 50, 80
2, 18719, Note_on_c, 0, 50, 0
2, 18720, Note_on_c, 0, 50, 80
2, 19199, Note_on_c, 0, 50, 0
2, 19200, Note_on_c, 0, 55, 80
2, 19200, Note_on_c, 0, 59, 80
2, 19679, Note_on_c, 0, 55, 0
2, 19679, Note_on_c, 0, 59, 0
2, 19680, Note_on_c, 0, 50, 80
2, 20159, Note_on_c, 0, 50, 0
2, 20160, Note_on_c, 0, 47, 80
2, 20639, Note_on_c, 0, 47, 0
2, 20640, Note_on_c, 0, 54, 80
2, 21119, Note_on_c, 0, 54, 0
2, 21120, Note_on_c, 0, 59, 80
2, 21599, Note_on_c, 0, 59, 0
2, 21600, Note_on_c, 0, 54, 80
2, 22079, Note_on_c, 0, 54, 0
2, 22080, Note_on_c, 0, 45, 80
2, 22559, Note_on_c, 0, 45, 0
2, 22560, Note_on_c, 0, 52, 80
2, 23039, Note_on_c, 0, 52, 0
2, 23040, Note_on_c, 0, 57, 80
2, 23519, Note_on_c, 0, 57, 0
2, 23520, Note_on_c, 0, 52, 80
2, 23999, Note_on_c, 0, 52, 0
2, 24000, Note_on_c, 0, 43, 80
2, 24479, Note_on_c, 0, 43, 0
2, 24480, Note_on_c, 0, 50, 80
2, 24959, Note_on_c, 0, 50, 0
2, 24960, Note_on_c, 0, 55, 80
2, 24960, Note_on_c, 0, 59, 80
2, 25439, Note_on_c, 0, 55, 0
2, 25439, Note_on_c, 0, 59, 0
2, 25440, Note_on_c, 0, 50, 80
2, 26399, Note_on_c, 0, 50, 0
2, 26400, Note_on_c, 0, 50, 80
2, 26879, Note_on_c, 0, 50, 0
2, 26880, Note_on_c, 0, 55, 80
2, 26880, Note_on_c, 0, 59, 80
2, 27359, Note_on_c, 0, 55, 0
2, 27359, Note_on_c, 0, 59, 0
2, 27360, Note_on_c, 0, 50, 80
2, 27839, Note_on_c, 0, 50, 0
2, 27840, Note_on_c, 0, 47, 80
2, 28319, Note_on_c, 0, 47, 0
2, 28320, Note_on_c, 0, 54, 80
2, 28799, Note_on_c, 0, 54, 0
2, 28800, Note_on_c, 0, 59, 80
2, 29279, Note_on_c, 0, 59, 0
2, 29280, Note_on_c, 0, 54, 80
2, 29759, Note_on_c, 0, 54, 0
2, 29760, Note_on_c, 0, 45, 80
2, 29760, Note_on_c, 0, 57, 80
2, 30239, Note_on_c, 0, 45, 0
2, 30239, Note_on_c, 0, 57, 0
2, 30240, Note_on_c, 0, 45, 80
2, 30240, Note_on_c, 0, 52, 80
2, 30719, Note_on_c, 0, 45, 0
2, 30719, Note_on_c, 0, 52, 0
2, 30720, Note_on_c, 0, 57, 80
2, 31199, Note_on_c, 0, 57, 0
2, 31200, Note_on_c, 0, 52, 80
2, 31679, Note_on_c, 0, 52, 0
2, 31680, Note_on_c, 0, 31, 80
2, 31680, Note_on_c, 0, 43, 80
2, 32399, Note_on_c, 0, 31, 0
2, 32399, Note_on_c, 0, 43, 0
2, 32400, Note_on_c, 0, 50, 80
2, 32400, Note_on_c, 0, 55, 80
2, 32639, Note_on_c, 0, 50, 0
2, 32639, Note_on_c, 0, 55, 0
2, 32640, Note_on_c, 0, 55, 80
2, 33119, Note_on_c, 0, 55, 0
2, 33120, Note_on_c, 0, 43, 80
2, 33120, Note_on_c, 0, 50, 80
2, 34559, Note_on_c, 0, 43, 0
2, 34559, Note_on_c, 0, 50, 0
2, 34560, Note_on_c, 0, 31, 80
2, 34560, Note_on_c, 0, 43, 80
2, 34560, Note_on_c, 0, 55, 80
2, 35039, Note_on_c, 0, 31, 0
2, 35039, Note_on_c, 0, 43, 0
2, 35039, Note_on_c, 0, 55, 0
2, 35040, Note_on_c, 0, 30, 80
2, 35040, Note_on_c, 0, 42, 80
2, 35519, Note_on_c, 0, 30, 0
2, 35519, Note_on_c, 0, 42, 0
2, 35520, Note_on_c, 0, 28, 80
2, 35520, Note_on_c, 0, 40, 80
2, 36239, Note_on_c, 0, 28, 0
2, 36239, Note_on_c, 0, 40, 0
2, 36240, Note_on_c, 0, 40, 80
2, 36240, Note_on_c, 0, 47, 80
2, 36479, Note_on_c, 0, 40, 0
2, 36479, Note_on_c, 0, 47, 0
2, 36480, Note_on_c, 0, 52, 80
2, 36959, Note_on_c, 0, 52, 0
2, 36960, Note_on_c, 0, 40, 80
2, 36960, Note_on_c, 0, 47, 80
2, 37919, Note_on_c, 0, 40, 0
2, 37919, Note_on_c, 0, 47, 0
2, 37920, Note_on_c, 0, 40, 80
2, 37920, Note_on_c, 0, 47, 80
2, 38399, Note_on_c, 0, 40, 0
2, 38399, Note_on_c, 0, 47, 0
2, 38400, Note_on_c, 0, 52, 80
2, 38879, Note_on_c, 0, 52, 0
2, 38880, Note_on_c, 0, 40, 80
2, 38880, Note_on_c, 0, 47, 80
2, 39359, Note_on_c, 0, 40, 0
2, 39359, Note_on_c, 0, 47, 0
2, 39360, Note_on_c, 0, 31, 80
2, 39360, Note_on_c, 0, 43, 80
2, 40079, Note_on_c, 0, 31, 0
2, 40079, Note_on_c, 0, 43, 0
2, 40080, Note_on_c, 0, 50, 80
2, 40080, Note_on_c, 0, 55, 80
2, 40319, Note_on_c, 0, 50, 0
2, 40319, Note_on_c, 0, 55, 0
2, 40320, Note_on_c, 0, 55, 80
2, 40799, Note_on_c, 0, 55, 0
2, 40800, Note_on_c, 0, 43, 80
2, 40800, Note_on_c, 0, 50, 80
2, 40800, Note_on_c, 0, 55, 80
2, 41759, Note_on_c, 0, 43, 0
2, 41759, Note_on_c, 0, 50, 0
2, 41759, Note_on_c, 0, 55, 0
2, 41760, Note_on_c, 0, 43, 80
2, 41760, Note_on_c, 0, 50, 80
2, 41760, Note_on_c, 0, 55, 80
2, 42239, Note_on_c, 0, 43, 0
2, 42239, Note_on_c, 0, 50, 0
2, 42239, Note_on_c, 0, 55, 0
2, 42240, Note_on_c, 0, 55, 80
2, 42719, Note_on_c, 0, 55, 0
2, 42720, Note_on_c, 0, 33, 80
2, 42720, Note_on_c, 0, 45, 80
2, 43199, Note_on_c, 0, 33, 0
2, 43199, Note_on_c, 0, 45, 0
2, 43200, Note_on_c, 0, 35, 80
2, 43200, Note_on_c, 0, 47, 80
2, 43200, Note_on_c, 0, 59, 80
2, 43919, Note_on_c, 0, 35, 0
2, 43919, Note_on_c, 0, 47, 0
2, 43919, Note_on_c, 0, 59, 0
2, 43920, Note_on_c, 0, 47, 80
2, 43920, Note_on_c, 0, 54, 80
2, 44159, Note_on_c, 0, 47, 0
2, 44159, Note_on_c, 0, 54, 0
2, 44160, Note_on_c, 0, 59, 80
2, 44639, Note_on_c, 0, 59, 0
2, 44640, Note_on_c, 0, 47, 80
2, 44640, Note_on_c, 0, 54, 80
2, 45599, Note_on_c, 0, 47, 0
2, 45599, Note_on_c, 0, 54, 0
2, 45600, Note_on_c, 0, 35, 80
2, 45600, Note_on_c, 0, 47, 80
2, 46079, Note_on_c, 0, 35, 0
2, 46079, Note_on_c, 0, 47, 0
2, 46080, Note_on_c, 0, 33, 80
2, 46080, Note_on_c, 0, 45, 80
2, 46559, Note_on_c, 0, 33, 0
2, 46559, Note_on_c, 0, 45, 0
2, 46560, Note_on_c, 0, 45, 80
2, 46560, Note_on_c, 0, 52, 80
2, 47999, Note_on_c, 0, 45, 0
2, 47999, Note_on_c, 0, 52, 0
2, 48000, Note_on_c, 0, 43, 80
2, 48000, Note_on_c, 0, 50, 80
2, 48000, Note_on_c, 0, 55, 80
2, 48719, Note_on_c, 0, 43, 0
2, 48719, Note_on_c, 0, 50, 0
2, 48719, Note_on_c, 0, 55, 0
2, 48720, Note_on_c, 0, 43, 80
2, 48720, Note_on_c, 0, 50, 80
2, 48959, Note_on_c, 0, 43, 0
2, 48959, Note_on_c, 0, 50, 0
2, 48960, Note_on_c, 0, 55, 80
2, 49439, Note_on_c, 0, 55, 0
2, 49440, Note_on_c, 0, 31, 80
2, 49440, Note_on_c, 0, 43, 80
2, 49919, Note_on_c, 0, 31, 0
2, 49919, Note_on_c, 0, 43, 0
2, 49920, Note_on_c, 0, 30, 80
2, 49920, Note_on_c, 0, 42, 80
2, 50879, Note_on_c, 0, 30, 0
2, 50879, Note_on_c, 0, 42, 0
2, 50880, Note_on_c, 0, 28, 80
2, 50880, Note_on_c, 0, 40, 80
2, 51599, Note_on_c, 0, 28, 0
2, 51599, Note_on_c, 0, 40, 0
2, 51600, Note_on_c, 0, 40, 80
2, 51600, Note_on_c, 0, 47, 80
2, 51839, Note_on_c, 0, 40, 0
2, 51839, Note_on_c, 0, 47, 0
2, 51840, Note_on_c, 0, 40, 80
2, 51840, Note_on_c, 0, 52, 80
2, 52319, Note_on_c, 0, 40, 0
2, 52319, Note_on_c, 0, 52, 0
2, 52320, Note_on_c, 0, 40, 80
2, 52320, Note_on_c, 0, 47, 80
2, 53519, Note_on_c, 0, 40, 0
2, 53519, Note_on_c, 0, 47, 0
2, 53520, Note_on_c, 0, 40, 80
2, 53520, Note_on_c, 0, 47, 80
2, 53759, Note_on_c, 0, 40, 0
2, 53759, Note_on_c, 0, 47, 0
2, 53760, Note_on_c, 0, 52, 80
2, 54239, Note_on_c, 0, 52, 0
2, 54240, Note_on_c, 0, 30, 80
2, 54240, Note_on_c, 0, 42, 80
2, 54719, Note_on_c, 0, 30, 0
2, 54719, Note_on_c, 0, 42, 0
2, 54720, Note_on_c, 0, 31, 80
2, 54720, Note_on_c, 0, 43, 80
2, 55439, Note_on_c, 0, 31, 0
2, 55439, Note_on_c, 0, 43, 0
2, 55440, Note_on_c, 0, 31, 80
2, 55440, Note_on_c, 0, 43, 80
2, 55440, Note_on_c, 0, 50, 80
2, 55679, Note_on_c, 0, 31, 0
2, 55679, Note_on_c, 0, 43, 0
2, 55679, Note_on_c, 0, 50, 0
2, 55680, Note_on_c, 0, 55, 80
2, 56159, Note_on_c, 0, 55, 0
2, 56160, Note_on_c, 0, 43, 80
2, 56160, Note_on_c, 0, 50, 80
2, 56160, Note_on_c, 0, 55, 80
2, 57359, Note_on_c, 0, 43, 0
2, 57359, Note_on_c, 0, 50, 0
2, 57359, Note_on_c, 0, 55, 0
2, 57360, Note_on_c, 0, 43, 80
2, 57360, Note_on_c, 0, 50, 80
2, 57599, Note_on_c, 0, 43, 0
2, 57599, Note_on_c, 0, 50, 0
2, 57600, Note_on_c, 0, 55, 80
2, 58079, Note_on_c, 0, 55, 0
2, 58080, Note_on_c, 0, 45, 80
2, 58080, Note_on_c, 0, 52, 80
2, 58559, Note_on_c, 0, 45, 0
2, 58559, Note_on_c, 0, 52, 0
2, 58560, Note_on_c, 0, 35, 80
2, 58560, Note_on_c, 0, 47, 80
2, 58560, Note_on_c, 0, 59, 80
2, 59279, Note_on_c, 0, 35, 0
2, 59279, Note_on_c, 0, 47, 0
2, 59279, Note_on_c, 0, 59, 0
2, 59280, Note_on_c, 0, 47, 80
2, 59280, Note_on_c, 0, 54, 80
2, 59519, Note_on_c, 0, 47, 0
2, 59519, Note_on_c, 0, 54, 0
2, 59520, Note_on_c, 0, 59, 80
2, 59999, Note_on_c, 0, 59, 0
2, 60000, Note_on_c, 0, 47, 80
2, 60000, Note_on_c, 0, 54, 80
2, 60479, Note_on_c, 0, 47, 0
2, 60479, Note_on_c, 0, 54, 0
2, 60480, Note_on_c, 0, 33, 80
2, 60480, Note_on_c, 0, 45, 80
2, 61199, Note_on_c, 0, 33, 0
2, 61199, Note_on_c, 0, 45, 0
2, 61200, Note_on_c, 0, 52, 80
2, 61439, Note_on_c, 0, 52, 0
2, 61440, Note_on_c, 0, 57, 80
2, 61919, Note_on_c, 0, 57, 0
2, 61920, Note_on_c, 0, 45, 80
2, 61920, Note_on_c, 0, 52, 80
2, 62399, Note_on_c, 0, 45, 0
2, 62399, Note_on_c, 0, 52, 0
2, 62400, Note_on_c, 0, 43, 80
2, 62639, Note_on_c, 0, 43, 0
2, 62640, Note_on_c, 0, 50, 80
2, 62879, Note_on_c, 0, 50, 0
2, 62880, Note_on_c, 0, 55, 80
2, 63119, Note_on_c, 0, 55, 0
2, 63120, Note_on_c, 0, 59, 80
2, 63359, Note_on_c, 0, 59, 0
2, 64800, Note_on_c, 0, 50, 80
2, 65039, Note_on_c, 0, 50, 0
2, 65040, Note_on_c, 0, 55, 80
2, 65279, Note_on_c, 0, 55, 0
2, 65280, Note_on_c, 0, 43, 80
2, 65759, Note_on_c, 0, 43, 0
2, 65760, Note_on_c, 0, 42, 80
2, 66239, Note_on_c, 0, 42, 0
2, 66240, Note_on_c, 0, 40, 80
2, 66479, Note_on_c, 0, 40, 0
2, 66480, Note_on_c, 0, 47, 80
2, 66719, Note_on_c, 0, 47, 0
2, 66720, Note_on_c, 0, 52, 80
2, 66959, Note_on_c, 0, 52, 0
2, 66960, Note_on_c, 0, 55, 80
2, 67199, Note_on_c, 0, 55, 0
2, 67200, Note_on_c, 0, 59, 80
2, 68159, Note_on_c, 0, 59, 0
2, 68160, Note_on_c, 0, 52, 80
2, 68639, Note_on_c, 0, 52, 0
2, 68640, Note_on_c, 0, 40, 80
2, 69119, Note_on_c, 0, 40, 0
2, 69120, Note_on_c, 0, 52, 80
2, 69599, Note_on_c, 0, 52, 0
2, 69600, Note_on_c, 0, 40, 80
2, 70079, Note_on_c, 0, 40, 0
2, 70080, Note_on_c, 0, 43, 80
2, 70319, Note_on_c, 0, 43, 0
2, 70320, Note_on_c, 0, 50, 80
2, 70559, Note_on_c, 0, 50, 0
2, 70560, Note_on_c, 0, 55, 80
2, 70799, Note_on_c, 0, 55, 0
2, 70800, Note_on_c, 0, 59, 80
2, 71039, Note_on_c, 0, 59, 0
2, 71760, Note_on_c, 0, 50, 80
2, 71999, Note_on_c, 0, 50, 0
2, 72000, Note_on_c, 0, 55, 80
2, 72719, Note_on_c, 0, 55, 0
2, 72720, Note_on_c, 0, 50, 80
2, 72959, Note_on_c, 0, 50, 0
2, 72960, Note_on_c, 0, 55, 80
2, 73439, Note_on_c, 0, 55, 0
2, 73440, Note_on_c, 0, 43, 80
2, 73919, Note_on_c, 0, 43, 0
2, 73920, Note_on_c, 0, 47, 80
2, 74159, Note_on_c, 0, 47, 0
2, 74160, Note_on_c, 0, 54, 80
2, 74399, Note_on_c, 0, 54, 0
2, 74400, Note_on_c, 0, 59, 80
2, 74879, Note_on_c, 0, 59, 0
2, 75360, Note_on_c, 0, 47, 80
2, 75839, Note_on_c, 0, 47, 0
2, 75840, Note_on_c, 0, 45, 80
2, 76079, Note_on_c, 0, 45, 0
2, 76080, Note_on_c, 0, 52, 80
2, 76319, Note_on_c, 0, 52, 0
2, 76320, Note_on_c, 0, 57, 80
2, 76799, Note_on_c, 0, 57, 0
2, 77280, Note_on_c, 0, 45, 80
2, 77759, Note_on_c, 0, 45, 0
2, 77760, Note_on_c, 0, 43, 80
2, 77760, Note_on_c, 0, 55, 80
2, 78119, Note_on_c, 0, 43, 0
2, 78119, Note_on_c, 0, 55, 0
2, 78120, Note_on_c, 0, 50, 80
2, 78239, Note_on_c, 0, 50, 0
2, 78240, Note_on_c, 0, 55, 80
2, 78479, Note_on_c, 0, 55, 0
2, 78480, Note_on_c, 0, 59, 80
2, 78719, Note_on_c, 0, 59, 0
2, 79200, Note_on_c, 0, 43, 80
2, 79679, Note_on_c, 0, 43, 0
2, 79680, Note_on_c, 0, 43, 80
2, 80039, Note_on_c, 0, 43, 0
2, 80040, Note_on_c, 0, 50, 80
2, 80159, Note_on_c, 0, 50, 0
2, 80160, Note_on_c, 0, 55, 80
2, 80399, Note_on_c, 0, 55, 0
2, 80400, Note_on_c, 0, 59, 80
2, 80639, Note_on_c, 0, 59, 0
2, 81120, Note_on_c, 0, 42, 80
2, 81599, Note_on_c, 0, 42, 0
2, 81600, Note_on_c, 0, 40, 80
2, 81839, Note_on_c, 0, 40, 0
2, 81840, Note_on_c, 0, 47, 80
2, 82079, Note_on_c, 0, 47, 0
2, 82080, Note_on_c, 0, 52, 80
2, 82319, Note_on_c, 0, 52, 0
2, 82320, Note_on_c, 0, 55, 80
2, 82559, Note_on_c, 0, 55, 0
2, 82560, Note_on_c, 0, 59, 80
2, 83279, Note_on_c, 0, 59, 0
2, 83280, Note_on_c, 0, 47, 80
2, 83639, Note_on_c, 0, 47, 0
2, 83640, Note_on_c, 0, 40, 80
2, 83879, Note_on_c, 0, 40, 0
2, 83880, Note_on_c, 0, 47, 80
2, 83999, Note_on_c, 0, 47, 0
2, 84000, Note_on_c, 0, 52, 80
2, 84239, Note_on_c, 0, 52, 0
2, 84240, Note_on_c, 0, 55, 80
2, 84479, Note_on_c, 0, 55, 0
2, 84480, Note_on_c, 0, 59, 80
2, 85439, Note_on_c, 0, 59, 0
2, 85440, Note_on_c, 0, 43, 80
2, 85799, Note_on_c, 0, 43, 0
2, 85800, Note_on_c, 0, 50, 80
2, 85919, Note_on_c, 0, 50, 0
2, 85920, Note_on_c, 0, 55, 80
2, 86279, Note_on_c, 0, 55, 0
2, 86280, Note_on_c, 0, 59, 80
2, 86399, Note_on_c, 0, 59, 0
2, 87120, Note_on_c, 0, 50, 80
2, 87359, Note_on_c, 0, 50, 0
2, 87360, Note_on_c, 0, 43, 80
2, 87599, Note_on_c, 0, 43, 0
2, 87600, Note_on_c, 0, 50, 80
2, 87600, Note_on_c, 0, 59, 80
2, 87839, Note_on_c, 0, 50, 0
2, 87839, Note_on_c, 0, 59, 0
2, 87840, Note_on_c, 0, 55, 80
2, 87959, Note_on_c, 0, 55, 0
2, 87960, Note_on_c, 0, 59, 80
2, 88319, Note_on_c, 0, 59, 0
2, 88800, Note_on_c, 0, 45, 80
2, 89279, Note_on_c, 0, 45, 0
2, 89280, Note_on_c, 0, 47, 80
2, 89519, Note_on_c, 0, 47, 0
2, 89520, Note_on_c, 0, 54, 80
2, 89759, Note_on_c, 0, 54, 0
2, 89760, Note_on_c, 0, 59, 80
2, 90239, Note_on_c, 0, 59, 0
2, 90720, Note_on_c, 0, 47, 80
2, 91199, Note_on_c, 0, 47, 0
2, 91200, Note_on_c, 0, 45, 80
2, 91439, Note_on_c, 0, 45, 0
2, 91440, Note_on_c, 0, 45, 80
2, 91440, Note_on_c, 0, 52, 80
2, 91679, Note_on_c, 0, 45, 0
2, 91679, Note_on_c, 0, 52, 0
2, 91680, Note_on_c, 0, 57, 80
2, 92159, Note_on_c, 0, 57, 0
2, 92640, Note_on_c, 0, 45, 80
2, 93119, Note_on_c, 0, 45, 0
2, 93120, Note_on_c, 0, 43, 80
2, 93359, Note_on_c, 0, 43, 0
2, 93360, Note_on_c, 0, 50, 80
2, 93599, Note_on_c, 0, 50, 0
2, 93600, Note_on_c, 0, 55, 80
2, 93839, Note_on_c, 0, 55, 0
2, 93840, Note_on_c, 0, 59, 80
2, 94079, Note_on_c, 0, 59, 0
2, 94800, Note_on_c, 0, 43, 80
2, 95039, Note_on_c, 0, 43, 0
2, 95040, Note_on_c, 0, 55, 80
2, 95759, Note_on_c, 0, 55, 0
2, 95760, Note_on_c, 0, 43, 80
2, 95999, Note_on_c, 0, 43, 0
2, 96000, Note_on_c, 0, 55, 80
2, 96479, Note_on_c, 0, 55, 0
2, 96480, Note_on_c, 0, 42, 80
2, 96959, Note_on_c, 0, 42, 0
2, 96960, Note_on_c, 0, 40, 80
2, 97199, Note_on_c, 0, 40, 0
2, 97200, Note_on_c, 0, 47, 80
2, 97439, Note_on_c, 0, 47, 0
2, 97440, Note_on_c, 0, 52, 80
2, 97679, Note_on_c, 0, 52, 0
2, 97680, Note_on_c, 0, 55, 80
2, 97919, Note_on_c, 0, 55, 0
2, 97920, Note_on_c, 0, 59, 80
2, 98639, Note_on_c, 0, 59, 0
2, 98640, Note_on_c, 0, 47, 80
2, 99599, Note_on_c, 0, 47, 0
2, 99600, Note_on_c, 0, 47, 80
2, 99839, Note_on_c, 0, 47, 0
2, 99840, Note_on_c, 0, 52, 80
2, 100079, Note_on_c, 0, 52, 0
2, 100080, Note_on_c, 0, 40, 80
2, 100319, Note_on_c, 0, 40, 0
2, 100320, Note_on_c, 0, 47, 80
2, 100799, Note_on_c, 0, 47, 0
2, 100800, Note_on_c, 0, 43, 80
2, 101039, Note_on_c, 0, 43, 0
2, 101040, Note_on_c, 0, 50, 80
2, 101279, Note_on_c, 0, 50, 0
2, 101280, Note_on_c, 0, 55, 80
2, 101519, Note_on_c, 0, 55, 0
2, 101520, Note_on_c, 0, 59, 80
2, 101759, Note_on_c, 0, 59, 0
2, 102480, Note_on_c, 0, 50, 80
2, 102719, Note_on_c, 0, 50, 0
2, 102720, Note_on_c, 0, 55, 80
2, 103439, Note_on_c, 0, 55, 0
2, 103440, Note_on_c, 0, 50, 80
2, 103679, Note_on_c, 0, 50, 0
2, 103680, Note_on_c, 0, 55, 80
2, 104159, Note_on_c, 0, 55, 0
2, 104160, Note_on_c, 0, 43, 80
2, 104759, Note_on_c, 0, 43, 0
2, 104760, Note_on_c, 0, 47, 80
2, 104879, Note_on_c, 0, 47, 0
2, 104880, Note_on_c, 0, 54, 80
2, 105119, Note_on_c, 0, 54, 0
2, 105120, Note_on_c, 0, 59, 80
2, 105599, Note_on_c, 0, 59, 0
2, 106080, Note_on_c, 0, 47, 80
2, 106559, Note_on_c, 0, 47, 0
2, 106560, Note_on_c, 0, 45, 80
2, 106799, Note_on_c, 0, 45, 0
2, 106800, Note_on_c, 0, 52, 80
2, 107039, Note_on_c, 0, 52, 0
2, 107040, Note_on_c, 0, 57, 80
2, 107519, Note_on_c, 0, 57, 0
2, 108000, Note_on_c, 0, 45, 80
2, 108479, Note_on_c, 0, 45, 0
2, 108480, Note_on_c, 0, 31, 80
2, 108480, Note_on_c, 0, 43, 80
2, 108480, Note_on_c, 0, 55, 80
2, 109199, Note_on_c, 0, 31, 0
2, 109199, Note_on_c, 0, 43, 0
2, 109199, Note_on_c, 0, 55, 0
2, 109200, Note_on_c, 0, 43, 80
2, 109200, Note_on_c, 0, 50, 80
2, 109439, Note_on_c, 0, 43, 0
2, 109439, Note_on_c, 0, 50, 0
2, 109440, Note_on_c, 0, 55, 80
2, 109919, Note_on_c, 0, 55, 0
2, 109920, Note_on_c, 0, 43, 80
2, 109920, Note_on_c, 0, 50, 80
2, 110879, Note_on_c, 0, 43, 0
2, 110879, Note_on_c, 0, 50, 0
2, 110880, Note_on_c, 0, 43, 80
2, 111359, Note_on_c, 0, 43, 0
2, 111360, Note_on_c, 0, 31, 80
2, 111360, Note_on_c, 0, 55, 80
2, 111839, Note_on_c, 0, 31, 0
2, 111839, Note_on_c, 0, 55, 0
2, 111840, Note_on_c, 0, 30, 80
2, 111840, Note_on_c, 0, 42, 80
2, 112319, Note_on_c, 0, 30, 0
2, 112319, Note_on_c, 0, 42, 0
2, 112320, Note_on_c, 0, 28, 80
2, 112320, Note_on_c, 0, 40, 80
2, 113039, Note_on_c, 0, 28, 0
2, 113039, Note_on_c, 0, 40, 0
2, 113040, Note_on_c, 0, 40, 80
2, 113040, Note_on_c, 0, 47, 80
2, 113279, Note_on_c, 0, 40, 0
2, 113279, Note_on_c, 0, 47, 0
2, 113280, Note_on_c, 0, 52, 80
2, 113759, Note_on_c, 0, 52, 0
2, 113760, Note_on_c, 0, 40, 80
2, 113760, Note_on_c, 0, 47, 80
2, 115199, Note_on_c, 0, 40, 0
2, 115199, Note_on_c, 0, 47, 0
2, 115200, Note_on_c, 0, 40, 80
2, 115200, Note_on_c, 0, 47, 80
2, 115679, Note_on_c, 0, 40, 0
2, 115679, Note_on_c, 0, 47, 0
2, 115680, Note_on_c, 0, 30, 80
2, 115680, Note_on_c, 0, 42, 80
2, 116159, Note_on_c, 0, 30, 0
2, 116159, Note_on_c, 0, 42, 0
2, 116160, Note_on_c, 0, 31, 80
2, 116160, Note_on_c, 0, 43, 80
2, 116879, Note_on_c, 0, 31, 0
2, 116879, Note_on_c, 0, 43, 0
2, 116880, Note_on_c, 0, 43, 80
2, 116880, Note_on_c, 0, 50, 80
2, 117119, Note_on_c, 0, 43, 0
2, 117119, Note_on_c, 0, 50, 0
2, 117120, Note_on_c, 0, 55, 80
2, 117599, Note_on_c, 0, 55, 0
2, 117600, Note_on_c, 0, 31, 80
2, 117600, Note_on_c, 0, 43, 80
2, 117600, Note_on_c, 0, 50, 80
2, 118799, Note_on_c, 0, 31, 0
2, 118799, Note_on_c, 0, 43, 0
2, 118799, Note_on_c, 0, 50, 0
2, 118800, Note_on_c, 0, 50, 80
2, 119039, Note_on_c, 0, 50, 0
2, 119040, Note_on_c, 0, 55, 80
2, 119519, Note_on_c, 0, 55, 0
2, 119520, Note_on_c, 0, 33, 80
2, 119520, Note_on_c, 0, 45, 80
2, 119999, Note_on_c, 0, 33, 0
2, 119999, Note_on_c, 0, 45, 0
2, 120000, Note_on_c, 0, 35, 80
2, 120000, Note_on_c, 0, 47, 80
2, 120000, Note_on_c, 0, 59, 80
2, 120719, Note_on_c, 0, 35, 0
2, 120719, Note_on_c, 0, 47, 0
2, 120719, Note_on_c, 0, 59, 0
2, 120720, Note_on_c, 0, 54, 80
2, 120959, Note_on_c, 0, 54, 0
2, 120960, Note_on_c, 0, 59, 80
2, 121439, Note_on_c, 0, 59, 0
2, 121440, Note_on_c, 0, 47, 80
2, 121440, Note_on_c, 0, 54, 80
2, 122399, Note_on_c, 0, 47, 0
2, 122399, Note_on_c, 0, 54, 0
2, 122400, Note_on_c, 0, 35, 80
2, 122400, Note_on_c, 0, 47, 80
2, 122879, Note_on_c, 0, 35, 0
2, 122879, Note_on_c, 0, 47, 0
2, 122880, Note_on_c, 0, 33, 80
2, 122880, Note_on_c, 0, 45, 80
2, 123359, Note_on_c, 0, 33, 0
2, 123359, Note_on_c, 0, 45, 0
2, 123360, Note_on_c, 0, 35, 80
2, 123360, Note_on_c, 0, 47, 80
2, 123839, Note_on_c, 0, 35, 0
2, 123839, Note_on_c, 0, 47, 0
2, 123840, Note_on_c, 0, 31, 80
2, 123840, Note_on_c, 0, 43, 80
2, 124799, Note_on_c, 0, 31, 0
2, 124799, Note_on_c, 0, 43, 0
2, 124800, Note_on_c, 0, 31, 80
2, 124800, Note_on_c, 0, 43, 80
2, 124800, Note_on_c, 0, 50, 80
2, 124800, Note_on_c, 0, 55, 80
2, 125279, Note_on_c, 0, 31, 0
2, 125279, Note_on_c, 0, 43, 0
2, 125279, Note_on_c, 0, 50, 0
2, 125279, Note_on_c, 0, 55, 0
2, 125280, Note_on_c, 0, 31, 80
2, 125759, Note_on_c, 0, 31, 0
2, 125760, Note_on_c, 0, 31, 80
2, 126719, Note_on_c, 0, 31, 0
2, 126720, Note_on_c, 0, 31, 80
2, 126720, Note_on_c, 0, 43, 80
2, 126720, Note_on_c, 0, 55, 80
2, 127199, Note_on_c, 0, 31, 0
2, 127199, Note_on_c, 0, 43, 0
2, 127199, Note_on_c, 0, 55, 0
2, 127200, Note_on_c, 0, 30, 80
2, 127200, Note_on_c, 0, 42, 80
2, 127679, Note_on_c, 0, 30, 0
2, 127679, Note_on_c, 0, 42, 0
2, 127680, Note_on_c, 0, 28, 80
2, 127680, Note_on_c, 0, 40, 80
2, 127680, Note_on_c, 0, 52, 80
2, 128399, Note_on_c, 0, 28, 0
2, 128399, Note_on_c, 0, 40, 0
2, 128399, Note_on_c, 0, 52, 0
2, 128400, Note_on_c, 0, 40, 80
2, 128400, Note_on_c, 0, 47, 80
2, 128639, Note_on_c, 0, 40, 0
2, 128639, Note_on_c, 0, 47, 0
2, 128640, Note_on_c, 0, 52, 80
2, 129119, Note_on_c, 0, 52, 0
2, 129120, Note_on_c, 0, 40, 80
2, 129120, Note_on_c, 0, 47, 80
2, 130319, Note_on_c, 0, 40, 0
2, 130319, Note_on_c, 0, 47, 0
2, 130320, Note_on_c, 0, 47, 80
2, 130559, Note_on_c, 0, 47, 0
2, 130560, Note_on_c, 0, 52, 80
2, 130560, Note_on_c, 0, 59, 80
2, 131039, Note_on_c, 0, 52, 0
2, 131039, Note_on_c, 0, 59, 0
2, 131040, Note_on_c, 0, 30, 80
2, 131040, Note_on_c, 0, 42, 80
2, 131040, Note_on_c, 0, 54, 80
2, 131519, Note_on_c, 0, 30, 0
2, 131519, Note_on_c, 0, 42, 0
2, 131519, Note_on_c, 0, 54, 0
2, 131520, Note_on_c, 0, 31, 80
2, 131520, Note_on_c, 0, 43, 80
2, 132239, Note_on_c, 0, 31, 0
2, 132239, Note_on_c, 0, 43, 0
2, 132240, Note_on_c, 0, 43, 80
2, 132240, Note_on_c, 0, 50, 80
2, 132479, Note_on_c, 0, 43, 0
2, 132479, Note_on_c, 0, 50, 0
2, 132480, Note_on_c, 0, 55, 80
2, 132959, Note_on_c, 0, 55, 0
2, 132960, Note_on_c, 0, 31, 80
2, 132960, Note_on_c, 0, 43, 80
2, 132960, Note_on_c, 0, 50, 80
2, 132960, Note_on_c, 0, 55, 80
2, 134159, Note_on_c, 0, 31, 0
2, 134159, Note_on_c, 0, 43, 0
2, 134159, Note_on_c, 0, 50, 0
2, 134159, Note_on_c, 0, 55, 0
2, 134160, Note_on_c, 0, 43, 80
2, 134160, Note_on_c, 0, 50, 80
2, 134399, Note_on_c, 0, 43, 0
2, 134399, Note_on_c, 0, 50, 0
2, 134400, Note_on_c, 0, 55, 80
2, 134879, Note_on_c, 0, 55, 0
2, 134880, Note_on_c, 0, 33, 80
2, 134880, Note_on_c, 0, 45, 80
2, 135359, Note_on_c, 0, 33, 0
2, 135359, Note_on_c, 0, 45, 0
2, 135360, Note_on_c, 0, 35, 80
2, 135360, Note_on_c, 0, 47, 80
2, 136079, Note_on_c, 0, 35, 0
2, 136079, Note_on_c, 0, 47, 0
2, 136080, Note_on_c, 0, 47, 80
2, 136080, Note_on_c, 0, 54, 80
2, 136319, Note_on_c, 0, 47, 0
2, 136319, Note_on_c, 0, 54, 0
2, 136320, Note_on_c, 0, 59, 80
2, 136799, Note_on_c, 0, 59, 0
2, 136800, Note_on_c, 0, 35, 80
2, 136800, Note_on_c, 0, 47, 80
2, 136800, Note_on_c, 0, 54, 80
2, 138239, Note_on_c, 0, 35, 0
2, 138239, Note_on_c, 0, 47, 0
2, 138239, Note_on_c, 0, 54, 0
2, 138240, Note_on_c, 0, 33, 80
2, 138240, Note_on_c, 0, 45, 80
2, 138719, Note_on_c, 0, 33, 0
2, 138719, Note_on_c, 0, 45, 0
2, 138720, Note_on_c, 0, 45, 80
2, 138720, Note_on_c, 0, 52, 80
2, 138720, Note_on_c, 0, 57, 80
2, 139199, Note_on_c, 0, 45, 0
2, 139199, Note_on_c, 0, 52, 0
2, 139199, Note_on_c, 0, 57, 0
2, 139200, Note_on_c, 0, 43, 80
2, 139439, Note_on_c, 0, 43, 0
2, 139440, Note_on_c, 0, 50, 80
2, 139679, Note_on_c, 0, 50, 0
2, 139680, Note_on_c, 0, 55, 80
2, 139919, Note_on_c, 0, 55, 0
2, 139920, Note_on_c, 0, 59, 80
2, 140159, Note_on_c, 0, 59, 0
2, 140880, Note_on_c, 0, 50, 80
2, 141119, Note_on_c, 0, 50, 0
2, 141120, Note_on_c, 0, 55, 80
2, 141359, Note_on_c, 0, 55, 0
2, 141360, Note_on_c, 0, 43, 80
2, 141599, Note_on_c, 0, 43, 0
2, 141600, Note_on_c, 0, 50, 80
2, 141839, Note_on_c, 0, 50, 0
2, 141840, Note_on_c, 0, 55, 80
2, 142079, Note_on_c, 0, 55, 0
2, 142080, Note_on_c, 0, 50, 80
2, 142559, Note_on_c, 0, 50, 0
2, 142560, Note_on_c, 0, 45, 80
2, 143039, Note_on_c, 0, 45, 0
2, 143040, Note_on_c, 0, 47, 80
2, 143399, Note_on_c, 0, 47, 0
2, 143400, Note_on_c, 0, 54, 80
2, 143519, Note_on_c, 0, 54, 0
2, 143520, Note_on_c, 0, 59, 80
2, 143999, Note_on_c, 0, 59, 0
2, 144720, Note_on_c, 0, 54, 80
2, 144959, Note_on_c, 0, 54, 0
2, 144960, Note_on_c, 0, 59, 80
2, 145199, Note_on_c, 0, 59, 0
2, 145200, Note_on_c, 0, 47, 80
2, 145439, Note_on_c, 0, 47, 0
2, 145440, Note_on_c, 0, 54, 80
2, 145679, Note_on_c, 0, 54, 0
2, 145680, Note_on_c, 0, 59, 80
2, 145919, Note_on_c, 0, 59, 0
2, 145920, Note_on_c, 0, 59, 80
2, 146399, Note_on_c, 0, 59, 0
2, 146400, Note_on_c, 0, 45, 80
2, 146879, Note_on_c, 0, 45, 0
2, 146880, Note_on_c, 0, 43, 80
2, 147119, Note_on_c, 0, 43, 0
2, 147120, Note_on_c, 0, 50, 80
2, 147359, Note_on_c, 0, 50, 0
2, 147360, Note_on_c, 0, 55, 80
2, 147599, Note_on_c, 0, 55, 0
2, 147600, Note_on_c, 0, 59, 80
2, 147839, Note_on_c, 0, 59, 0
2, 148320, Note_on_c, 0, 43, 80
2, 149039, Note_on_c, 0, 43, 0
2, 149040, Note_on_c, 0, 50, 80
2, 149279, Note_on_c, 0, 50, 0
2, 149280, Note_on_c, 0, 55, 80
2, 149519, Note_on_c, 0, 55, 0
2, 149520, Note_on_c, 0, 43, 80
2, 149759, Note_on_c, 0, 43, 0
2, 149760, Note_on_c, 0, 55, 80
2, 150239, Note_on_c, 0, 55, 0
2, 150240, Note_on_c, 0, 42, 80
2, 150839, Note_on_c, 0, 42, 0
2, 150840, Note_on_c, 0, 40, 80
2, 151079, Note_on_c, 0, 40, 0
2, 151080, Note_on_c, 0, 47, 80
2, 151199, Note_on_c, 0, 47, 0
2, 151200, Note_on_c, 0, 52, 80
2, 151439, Note_on_c, 0, 52, 0
2, 151440, Note_on_c, 0, 55, 80
2, 151679, Note_on_c, 0, 55, 0
2, 151680, Note_on_c, 0, 59, 80
2, 152399, Note_on_c, 0, 59, 0
2, 152400, Note_on_c, 0, 47, 80
2, 152639, Note_on_c, 0, 47, 0
2, 152640, Note_on_c, 0, 52, 80
2, 152879, Note_on_c, 0, 52, 0
2, 152880, Note_on_c, 0, 40, 80
2, 153119, Note_on_c, 0, 40, 0
2, 153120, Note_on_c, 0, 47, 80
2, 153599, Note_on_c, 0, 47, 0
2, 153600, Note_on_c, 0, 40, 80
2, 154079, Note_on_c, 0, 40, 0
2, 154080, Note_on_c, 0, 42, 80
2, 154679, Note_on_c, 0, 42, 0
2, 154680, Note_on_c, 0, 43, 80
2, 154799, Note_on_c, 0, 43, 0
2, 154800, Note_on_c, 0, 50, 80
2, 155039, Note_on_c, 0, 50, 0
2, 155040, Note_on_c, 0, 55, 80
2, 155279, Note_on_c, 0, 55, 0
2, 155280, Note_on_c, 0, 59, 80
2, 155519, Note_on_c, 0, 59, 0
2, 156720, Note_on_c, 0, 50, 80
2, 156959, Note_on_c, 0, 50, 0
2, 156960, Note_on_c, 0, 55, 80
2, 157199, Note_on_c, 0, 55, 0
2, 157200, Note_on_c, 0, 43, 80
2, 157439, Note_on_c, 0, 43, 0
2, 157440, Note_on_c, 0, 55, 80
2, 157919, Note_on_c, 0, 55, 0
2, 157920, Note_on_c, 0, 45, 80
2, 158399, Note_on_c, 0, 45, 0
2, 158400, Note_on_c, 0, 47, 80
2, 158639, Note_on_c, 0, 47, 0
2, 158640, Note_on_c, 0, 54, 80
2, 158879, Note_on_c, 0, 54, 0
2, 158880, Note_on_c, 0, 59, 80
2, 159359, Note_on_c, 0, 59, 0
2, 159600, Note_on_c, 0, 54, 80
2, 159839, Note_on_c, 0, 54, 0
2, 159840, Note_on_c, 0, 59, 80
2, 160079, Note_on_c, 0, 59, 0
2, 160080, Note_on_c, 0, 47, 80
2, 160319, Note_on_c, 0, 47, 0
2, 160320, Note_on_c, 0, 45, 80
2, 160559, Note_on_c, 0, 45, 0
2, 160560, Note_on_c, 0, 52, 80
2, 160799, Note_on_c, 0, 52, 0
2, 160800, Note_on_c, 0, 57, 80
2, 161279, Note_on_c, 0, 57, 0
2, 161280, Note_on_c, 0, 57, 80
2, 161759, Note_on_c, 0, 57, 0
2, 161760, Note_on_c, 0, 45, 80
2, 162239, Note_on_c, 0, 45, 0
2, 162240, Note_on_c, 0, 43, 80
2, 162599, Note_on_c, 0, 43, 0
2, 162600, Note_on_c, 0, 50, 80
2, 162719, Note_on_c, 0, 50, 0
2, 162720, Note_on_c, 0, 55, 80
2, 162959, Note_on_c, 0, 55, 0
2, 162960, Note_on_c, 0, 59, 80
2, 163199, Note_on_c, 0, 59, 0
2, 163920, Note_on_c, 0, 43, 80
2, 164159, Note_on_c, 0, 43, 0
2, 164160, Note_on_c, 0, 43, 80
2, 164160, Note_on_c, 0, 55, 80
2, 164399, Note_on_c, 0, 43, 0
2, 164399, Note_on_c, 0, 55, 0
2, 164400, Note_on_c, 0, 43, 80
2, 164400, Note_on_c, 0, 50, 80
2, 164639, Note_on_c, 0, 43, 0
2, 164639, Note_on_c, 0, 50, 0
2, 164640, Note_on_c, 0, 55, 80
2, 164879, Note_on_c, 0, 55, 0
2, 164880, Note_on_c, 0, 59, 80
2, 165119, Note_on_c, 0, 59, 0
2, 165600, Note_on_c, 0, 43, 80
2, 166079, Note_on_c, 0, 43, 0
2, 166080, Note_on_c, 0, 40, 80
2, 166319, Note_on_c, 0, 40, 0
2, 166320, Note_on_c, 0, 47, 80
2, 166559, Note_on_c, 0, 47, 0
2, 166560, Note_on_c, 0, 52, 80
2, 166799, Note_on_c, 0, 52, 0
2, 166800, Note_on_c, 0, 55, 80
2, 167039, Note_on_c, 0, 55, 0
2, 167040, Note_on_c, 0, 59, 80
2, 167759, Note_on_c, 0, 59, 0
2, 167760, Note_on_c, 0, 47, 80
2, 167999, Note_on_c, 0, 47, 0
2, 168000, Note_on_c, 0, 52, 80
2, 168239, Note_on_c, 0, 52, 0
2, 168240, Note_on_c, 0, 40, 80
2, 168479, Note_on_c, 0, 40, 0
2, 168480, Note_on_c, 0, 47, 80
2, 168719, Note_on_c, 0, 47, 0
2, 168720, Note_on_c, 0, 52, 80
2, 168959, Note_on_c, 0, 52, 0
2, 168960, Note_on_c, 0, 40, 80
2, 169439, Note_on_c, 0, 40, 0
2, 169440, Note_on_c, 0, 42, 80
2, 169919, Note_on_c, 0, 42, 0
2, 169920, Note_on_c, 0, 43, 80
2, 170279, Note_on_c, 0, 43, 0
2, 170280, Note_on_c, 0, 50, 80
2, 170399, Note_on_c, 0, 50, 0
2, 170400, Note_on_c, 0, 55, 80
2, 170639, Note_on_c, 0, 55, 0
2, 170640, Note_on_c, 0, 59, 80
2, 170879, Note_on_c, 0, 59, 0
2, 171360, Note_on_c, 0, 43, 80
2, 172079, Note_on_c, 0, 43, 0
2, 172080, Note_on_c, 0, 50, 80
2, 172319, Note_on_c, 0, 50, 0
2, 172320, Note_on_c, 0, 55, 80
2, 172559, Note_on_c, 0, 55, 0
2, 172560, Note_on_c, 0, 43, 80
2, 172799, Note_on_c, 0, 43, 0
2, 172800, Note_on_c, 0, 50, 80
2, 173279, Note_on_c, 0, 50, 0
2, 173280, Note_on_c, 0, 45, 80
2, 173759, Note_on_c, 0, 45, 0
2, 173760, Note_on_c, 0, 47, 80
2, 173999, Note_on_c, 0, 47, 0
2, 174000, Note_on_c, 0, 54, 80
2, 174239, Note_on_c, 0, 54, 0
2, 174240, Note_on_c, 0, 59, 80
2, 174719, Note_on_c, 0, 59, 0
2, 174960, Note_on_c, 0, 54, 80
2, 175199, Note_on_c, 0, 54, 0
2, 175200, Note_on_c, 0, 59, 80
2, 175439, Note_on_c, 0, 59, 0
2, 175440, Note_on_c, 0, 47, 80
2, 175679, Note_on_c, 0, 47, 0
2, 175680, Note_on_c, 0, 45, 80
2, 175919, Note_on_c, 0, 45, 0
2, 175920, Note_on_c, 0, 52, 80
2, 176159, Note_on_c, 0, 52, 0
2, 176160, Note_on_c, 0, 57, 80
2, 176639, Note_on_c, 0, 57, 0
2, 176640, Note_on_c, 0, 57, 80
2, 177119, Note_on_c, 0, 57, 0
2, 177120, Note_on_c, 0, 45, 80
2, 177599, Note_on_c, 0, 45, 0
2, 177600, Note_on_c, 0, 43, 80
2, 177600, Note_on_c, 0, 50, 80
2, 177600, Note_on_c, 0, 55, 80
2, 178559, Note_on_c, 0, 43, 0
2, 178559, Note_on_c, 0, 50, 0
2, 178559, Note_on_c, 0, 55, 0
2, 180720, Note_on_c, 0, 43, 80
2, 181439, Note_on_c, 0, 43, 0
2, 181440, Note_on_c, 0, 40, 80
2, 181440, Note_on_c, 0, 47, 80
2, 182399, Note_on_c, 0, 40, 0
2, 182399, Note_on_c, 0, 47, 0
2, 186240, Note_on_c, 0, 31, 80
2, 186240, Note_on_c, 0, 43, 80
2, 186959, Note_on_c, 0, 31, 0
2, 186959, Note_on_c, 0, 43, 0
2, 186960, Note_on_c, 0, 50, 80
2, 187199, Note_on_c, 0, 50, 0
2, 187200, Note_on_c, 0, 55, 80
2, 187679, Note_on_c, 0, 55, 0
2, 187680, Note_on_c, 0, 31, 80
2, 187680, Note_on_c, 0, 43, 80
2, 187680, Note_on_c, 0, 50, 80
2, 188159, Note_on_c, 0, 31, 0
2, 188159, Note_on_c, 0, 43, 0
2, 188159, Note_on_c, 0, 50, 0
2, 189120, Note_on_c, 0, 31, 80
2, 189120, Note_on_c, 0, 43, 80
2, 189120, Note_on_c, 0, 55, 80
2, 189599, Note_on_c, 0, 31, 0
2, 189599, Note_on_c, 0, 43, 0
2, 189599, Note_on_c, 0, 55, 0
2, 189600, Note_on_c, 0, 30, 80
2, 189600, Note_on_c, 0, 42, 80
2, 190079, Note_on_c, 0, 30, 0
2, 190079, Note_on_c, 0, 42, 0
2, 190080, Note_on_c, 0, 28, 80
2, 190080, Note_on_c, 0, 40, 80
2, 190799, Note_on_c, 0, 28, 0
2, 190799, Note_on_c, 0, 40, 0
2, 190800, Note_on_c, 0, 40, 80
2, 190800, Note_on_c, 0, 47, 80
2, 191039, Note_on_c, 0, 40, 0
2, 191039, Note_on_c, 0, 47, 0
2, 191040, Note_on_c, 0, 52, 80
2, 191519, Note_on_c, 0, 52, 0
2, 191520, Note_on_c, 0, 40, 80
2, 191520, Note_on_c, 0, 47, 80
2, 191999, Note_on_c, 0, 40, 0
2, 191999, Note_on_c, 0, 47, 0
2, 192480, Note_on_c, 0, 40, 80
2, 192480, Note_on_c, 0, 47, 80
2, 192959, Note_on_c, 0, 40, 0
2, 192959, Note_on_c, 0, 47, 0
2, 192960, Note_on_c, 0, 52, 80
2, 193439, Note_on_c, 0, 52, 0
2, 193440, Note_on_c, 0, 40, 80
2, 193440, Note_on_c, 0, 47, 80
2, 193919, Note_on_c, 0, 40, 0
2, 193919, Note_on_c, 0, 47, 0
2, 193920, Note_on_c, 0, 31, 80
2, 193920, Note_on_c, 0, 43, 80
2, 194639, Note_on_c, 0, 31, 0
2, 194639, Note_on_c, 0, 43, 0
2, 194640, Note_on_c, 0, 50, 80
2, 194879, Note_on_c, 0, 50, 0
2, 194880, Note_on_c, 0, 55, 80
2, 195359, Note_on_c, 0, 55, 0
2, 195360, Note_on_c, 0, 43, 80
2, 195360, Note_on_c, 0, 50, 80
2, 195360, Note_on_c, 0, 55, 80
2, 195839, Note_on_c, 0, 43, 0
2, 195839, Note_on_c, 0, 50, 0
2, 195839, Note_on_c, 0, 55, 0
2, 196320, Note_on_c, 0, 43, 80
2, 196320, Note_on_c, 0, 50, 80
2, 196320, Note_on_c, 0, 55, 80
2, 196799, Note_on_c, 0, 43, 0
2, 196799, Note_on_c, 0, 50, 0
2, 196799, Note_on_c, 0, 55, 0
2, 196800, Note_on_c, 0, 55, 80
2, 197279, Note_on_c, 0, 55, 0
2, 197280, Note_on_c, 0, 33, 80
2, 197280, Note_on_c, 0, 45, 80
2, 197759, Note_on_c, 0, 33, 0
2, 197759, Note_on_c, 0, 45, 0
2, 197760, Note_on_c, 0, 35, 80
2, 197760, Note_on_c, 0, 47, 80
2, 198479, Note_on_c, 0, 35, 0
2, 198479, Note_on_c, 0, 47, 0
2, 198480, Note_on_c, 0, 47, 80
2, 198480, Note_on_c, 0, 54, 80
2, 199199, Note_on_c, 0, 47, 0
2, 199199, Note_on_c, 0, 54, 0
2, 199200, Note_on_c, 0, 47, 80
2, 199200, Note_on_c, 0, 54, 80
2, 199679, Note_on_c, 0, 47, 0
2, 199679, Note_on_c, 0, 54, 0
2, 200160, Note_on_c, 0, 35, 80
2, 200160, Note_on_c, 0, 47, 80
2, 200639, Note_on_c, 0, 35, 0
2, 200639, Note_on_c, 0, 47, 0
2, 200640, Note_on_c, 0, 33, 80
2, 200640, Note_on_c, 0, 45, 80
2, 201119, Note_on_c, 0, 33, 0
2, 201119, Note_on_c, 0, 45, 0
2, 201120, Note_on_c, 0, 45, 80
2, 201120, Note_on_c, 0, 52, 80
2, 201599, Note_on_c, 0, 45, 0
2, 201599, Note_on_c, 0, 52, 0
2, 201600, Note_on_c, 0, 31, 80
2, 201600, Note_on_c, 0, 43, 80
2, 201600, Note_on_c, 0, 55, 80
2, 202079, Note_on_c, 0, 31, 0
2, 202079, Note_on_c, 0, 43, 0
2, 202079, Note_on_c, 0, 55, 0
2, 202080, Note_on_c, 0, 55, 80
2, 202559, Note_on_c, 0, 55, 0
2, 202560, Note_on_c, 0, 43, 80
2, 202560, Note_on_c, 0, 50, 80
2, 202560, Note_on_c, 0, 55, 80
2, 203279, Note_on_c, 0, 43, 0
2, 203279, Note_on_c, 0, 50, 0
2, 203279, Note_on_c, 0, 55, 0
2, 203280, Note_on_c, 0, 43, 80
2, 203280, Note_on_c, 0, 50, 80
2, 203519, Note_on_c, 0, 43, 0
2, 203519, Note_on_c, 0, 50, 0
2, 203520, Note_on_c, 0, 55, 80
2, 203999, Note_on_c, 0, 55, 0
2, 204000, Note_on_c, 0, 31, 80
2, 204000, Note_on_c, 0, 43, 80
2, 204479, Note_on_c, 0, 31, 0
2, 204479, Note_on_c, 0, 43, 0
2, 204480, Note_on_c, 0, 30, 80
2, 204480, Note_on_c, 0, 42, 80
2, 205439, Note_on_c, 0, 30, 0
2, 205439, Note_on_c, 0, 42, 0
2, 205440, Note_on_c, 0, 28, 80
2, 205440, Note_on_c, 0, 40, 80
2, 206159, Note_on_c, 0, 28, 0
2, 206159, Note_on_c, 0, 40, 0
2, 206160, Note_on_c, 0, 40, 80
2, 206160, Note_on_c, 0, 47, 80
2, 206399, Note_on_c, 0, 40, 0
2, 206399, Note_on_c, 0, 47, 0
2, 206400, Note_on_c, 0, 40, 80
2, 206400, Note_on_c, 0, 52, 80
2, 206879, Note_on_c, 0, 40, 0
2, 206879, Note_on_c, 0, 52, 0
2, 206880, Note_on_c, 0, 40, 80
2, 206880, Note_on_c, 0, 47, 80
2, 207359, Note_on_c, 0, 40, 0
2, 207359, Note_on_c, 0, 47, 0
2, 208080, Note_on_c, 0, 40, 80
2, 208080, Note_on_c, 0, 47, 80
2, 208319, Note_on_c, 0, 40, 0
2, 208319, Note_on_c, 0, 47, 0
2, 208320, Note_on_c, 0, 52, 80
2, 208799, Note_on_c, 0, 52, 0
2, 208800, Note_on_c, 0, 30, 80
2, 208800, Note_on_c, 0, 42, 80
2, 209279, Note_on_c, 0, 30, 0
2, 209279, Note_on_c, 0, 42, 0
2, 209280, Note_on_c, 0, 31, 80
2, 209280, Note_on_c, 0, 43, 80
2, 209999, Note_on_c, 0, 31, 0
2, 209999, Note_on_c, 0, 43, 0
2, 210000, Note_on_c, 0, 43, 80
2, 210000, Note_on_c, 0, 50, 80
2, 210239, Note_on_c, 0, 43, 0
2, 210239, Note_on_c, 0, 50, 0
2, 210240, Note_on_c, 0, 55, 80
2, 210719, Note_on_c, 0, 55, 0
2, 210720, Note_on_c, 0, 43, 80
2, 210720, Note_on_c, 0, 50, 80
2, 210720, Note_on_c, 0, 55, 80
2, 211199, Note_on_c, 0, 43, 0
2, 211199, Note_on_c, 0, 50, 0
2, 211199, Note_on_c, 0, 55, 0
2, 211920, Note_on_c, 0, 43, 80
2, 211920, Note_on_c, 0, 50, 80
2, 212159, Note_on_c, 0, 43, 0
2, 212159, Note_on_c, 0, 50, 0
2, 212160, Note_on_c, 0, 55, 80
2, 212759, Note_on_c, 0, 55, 0
2, 212760, Note_on_c, 0, 45, 80
2, 212760, Note_on_c, 0, 52, 80
2, 213119, Note_on_c, 0, 45, 0
2, 213119, Note_on_c, 0, 52, 0
2, 213120, Note_on_c, 0, 35, 80
2, 213120, Note_on_c, 0, 47, 80
2, 213120, Note_on_c, 0, 59, 80
2, 213839, Note_on_c, 0, 35, 0
2, 213839, Note_on_c, 0, 47, 0
2, 213839, Note_on_c, 0, 59, 0
2, 213840, Note_on_c, 0, 47, 80
2, 213840, Note_on_c, 0, 54, 80
2, 214079, Note_on_c, 0, 47, 0
2, 214079, Note_on_c, 0, 54, 0
2, 214080, Note_on_c, 0, 59, 80
2, 214559, Note_on_c, 0, 59, 0
2, 214560, Note_on_c, 0, 47, 80
2, 214560, Note_on_c, 0, 54, 80
2, 215039, Note_on_c, 0, 47, 0
2, 215039, Note_on_c, 0, 54, 0
2, 215040, Note_on_c, 0, 33, 80
2, 215040, Note_on_c, 0, 45, 80
2, 215759, Note_on_c, 0, 33, 0
2, 215759, Note_on_c, 0, 45, 0
2, 215760, Note_on_c, 0, 52, 80
2, 215999, Note_on_c, 0, 52, 0
2, 216000, Note_on_c, 0, 57, 80
2, 216479, Note_on_c, 0, 57, 0
2, 216480, Note_on_c, 0, 45, 80
2, 216480, Note_on_c, 0, 52, 80
2, 216959, Note_on_c, 0, 45, 0
2, 216959, Note_on_c, 0, 52, 0
2, 216960, Note_on_c, 0, 43, 80
2, 217439, Note_on_c, 0, 43, 0
2, 217440, Note_on_c, 0, 50, 80
2, 217919, Note_on_c, 0, 50, 0
2, 217920, Note_on_c, 0, 55, 80
2, 217920, Note_on_c, 0, 59, 80
2, 218399, Note_on_c, 0, 55, 0
2, 218399, Note_on_c, 0, 59, 0
2, 218400, Note_on_c, 0, 50, 80
2, 218879, Note_on_c, 0, 50, 0
2, 219360, Note_on_c, 0, 50, 80
2, 219839, Note_on_c, 0, 50, 0
2, 219840, Note_on_c, 0, 55, 80
2, 219840, Note_on_c, 0, 59, 80
2, 220319, Note_on_c, 0, 55, 0
2, 220319, Note_on_c, 0, 59, 0
2, 220320, Note_on_c, 0, 50, 80
2, 220799, Note_on_c, 0, 50, 0
2, 220800, Note_on_c, 0, 47, 80
2, 221279, Note_on_c, 0, 47, 0
2, 221280, Note_on_c, 0, 54, 80
2, 221759, Note_on_c, 0, 54, 0
2, 221760, Note_on_c, 0, 59, 80
2, 222239, Note_on_c, 0, 59, 0
2, 222240, Note_on_c, 0, 54, 80
2, 222719, Note_on_c, 0, 54, 0
2, 222720, Note_on_c, 0, 45, 80
2, 223199, Note_on_c, 0, 45, 0
2, 223200, Note_on_c, 0, 52, 80
2, 223679, Note_on_c, 0, 52, 0
2, 223680, Note_on_c, 0, 57, 80
2, 224159, Note_on_c, 0, 57, 0
2, 224160, Note_on_c, 0, 52, 80
2, 224639, Note_on_c, 0, 52, 0
2, 224640, Note_on_c, 0, 43, 80
2, 225119, Note_on_c, 0, 43, 0
2, 225120, Note_on_c, 0, 50, 80
2, 225599, Note_on_c, 0, 50, 0
2, 225600, Note_on_c, 0, 55, 80
2, 225600, Note_on_c, 0, 59, 80
2, 226079, Note_on_c, 0, 55, 0
2, 226079, Note_on_c, 0, 59, 0
2, 226080, Note_on_c, 0, 50, 80
2, 226559, Note_on_c, 0, 50, 0
2, 227040, Note_on_c, 0, 50, 80
2, 227519, Note_on_c, 0, 50, 0
2, 227520, Note_on_c, 0, 55, 80
2, 227520, Note_on_c, 0, 59, 80
2, 227999, Note_on_c, 0, 55, 0
2, 227999, Note_on_c, 0, 59, 0
2, 228000, Note_on_c, 0, 50, 80
2, 228479, Note_on_c, 0, 50, 0
2, 228480, Note_on_c, 0, 47, 80
2, 228959, Note_on_c, 0, 47, 0
2, 228960, Note_on_c, 0, 54, 80
2, 229439, Note_on_c, 0, 54, 0
2, 229440, Note_on_c, 0, 59, 80
2, 229919, Note_on_c, 0, 59, 0
2, 229920, Note_on_c, 0, 54, 80
2, 230399, Note_on_c, 0, 54, 0
2, 230400, Note_on_c, 0, 45, 80
2, 230879, Note_on_c, 0, 45, 0
2, 230880, Note_on_c, 0, 52, 80
2, 231359, Note_on_c, 0, 52, 0
2, 231360, Note_on_c, 0, 57, 80
2, 232079, Note_on_c, 0, 57, 0
2, 232080, Note_on_c, 0, 52, 80
2, 232319, Note_on_c, 0, 52, 0
1, 14160, Note_on_c, 0, 79, 80
1, 14160, Note_on_c, 0, 91, 80
1, 14387, Note_on_c, 0, 79, 0
1, 14387, Note_on_c, 0, 91, 0
1, 14400, Note_on_c, 0, 77, 80
1, 14400, Note_on_c, 0, 89, 80
1, 14627, Note_on_c, 0, 77, 0
1, 14627, Note_on_c, 0, 89, 0
1, 14640, Note_on_c, 0, 75, 80
1, 14640, Note_on_c, 0, 87, 80
1, 14867, Note_on_c, 0, 75, 0
1, 14867, Note_on_c, 0, 87, 0
1, 14880, Note_on_c, 0, 72, 80
1, 14880, Note_on_c, 0, 84, 80
1, 15107, Note_on_c, 0, 72, 0
1, 15107, Note_on_c, 0, 84, 0
1, 15120, Note_on_c, 0, 70, 80
1, 15120, Note_on_c, 0, 82, 80
1, 15347, Note_on_c, 0, 70, 0
1, 15347, Note_on_c, 0, 82, 0
1, 15360, Note_on_c, 0, 79, 80
1, 15360, Note_on_c, 0, 91, 80
1, 15815, Note_on_c, 0, 79, 0
1, 15815, Note_on_c, 0, 91, 0
1, 15840, Note_on_c, 0, 79, 80
1, 15991, Note_on_c, 0, 79, 0
1, 16000, Note_on_c, 0, 79, 80
1, 16151, Note_on_c, 0, 79, 0
1, 16160, Note_on_c, 0, 79, 80
1, 16311, Note_on_c, 0, 79, 0
1, 16320, Note_on_c, 0, 79, 80
1, 16471, Note_on_c, 0, 79, 0
1, 16480, Note_on_c, 0, 75, 80
1, 16631, Note_on_c, 0, 75, 0
1, 16640, Note_on_c, 0, 75, 80
1, 16791, Note_on_c, 0, 75, 0
1, 16800, Note_on_c, 0, 70, 80
1, 17255, Note_on_c, 0, 70, 0
1, 17280, Note_on_c, 0, 79, 80
1, 17431, Note_on_c, 0, 79, 0
1, 17440, Note_on_c, 0, 79, 80
1, 17591, Note_on_c, 0, 79, 0
1, 17600, Note_on_c, 0, 79, 80
1, 17751, Note_on_c, 0, 79, 0
1, 17760, Note_on_c, 0, 79, 80
1, 17911, Note_on_c, 0, 79, 0
1, 17920, Note_on_c, 0, 75, 80
1, 18071, Note_on_c, 0, 75, 0
1, 18080, Note_on_c, 0, 75, 80
1, 18231, Note_on_c, 0, 75, 0
1, 18240, Note_on_c, 0, 75, 80
1, 18695, Note_on_c, 0, 75, 0
1, 18720, Note_on_c, 0, 75, 80
1, 18871, Note_on_c, 0, 75, 0
1, 18880, Note_on_c, 0, 77, 80
1, 19031, Note_on_c, 0, 77, 0
1, 19040, Note_on_c, 0, 79, 80
1, 19191, Note_on_c, 0, 79, 0
1, 19200, Note_on_c, 0, 80, 80
1, 19541, Note_on_c, 0, 80, 0
1, 19560, Note_on_c, 0, 79, 80
1, 20129, Note_on_c, 0, 79, 0
1, 20160, Note_on_c, 0, 75, 80
1, 20311, Note_on_c, 0, 75, 0
1, 20320, Note_on_c, 0, 75, 80
1, 20471, Note_on_c, 0, 75, 0
1, 20480, Note_on_c, 0, 75, 80
1, 20631, Note_on_c, 0, 75, 0
1, 20640, Note_on_c, 0, 82, 80
1, 20981, Note_on_c, 0, 82, 0
1, 21000, Note_on_c, 0, 79, 80
1, 21569, Note_on_c, 0, 79, 0
1, 21840, Note_on_c, 0, 70, 80
1, 21953, Note_on_c, 0, 70, 0
1, 21960, Note_on_c, 0, 70, 80
1, 22073, Note_on_c, 0, 70, 0
1, 22080, Note_on_c, 0, 77, 80
1, 22383, Note_on_c, 0, 77, 0
1, 22400, Note_on_c, 0, 75, 80
1, 22703, Note_on_c, 0, 75, 0
1, 22720, Note_on_c, 0, 72, 80
1, 23251, Note_on_c, 0, 72, 0
1, 23280, Note_on_c, 0, 70, 80
1, 23507, Note_on_c, 0, 70, 0
1, 25920, Note_on_c, 0, 75, 80
1, 26147, Note_on_c, 0, 75, 0
1, 26160, Note_on_c, 0, 75, 80
1, 26387, Note_on_c, 0, 75, 0
1, 26400, Note_on_c, 0, 77, 80
1, 26741, Note_on_c, 0, 77, 0
1, 26760, Note_on_c, 0, 75, 80
1, 26873, Note_on_c, 0, 75, 0
1, 26880, Note_on_c, 0, 74, 80
1, 29387, Note_on_c, 0, 74, 0
1, 29640, Note_on_c, 0, 74, 80
1, 29753, Note_on_c, 0, 74, 0
1, 29760, Note_on_c, 0, 82, 80
1, 29987, Note_on_c, 0, 82, 0
1, 30000, Note_on_c, 0, 79, 80
1, 30113, Note_on_c, 0, 79, 0
1, 30120, Note_on_c, 0, 82, 80
1, 30347, Note_on_c, 0, 82, 0
1, 30360, Note_on_c, 0, 79, 80
1, 30473, Note_on_c, 0, 79, 0
1, 30480, Note_on_c, 0, 82, 80
1, 30707, Note_on_c, 0, 82, 0
1, 30720, Note_on_c, 0, 82, 80
1, 30833, Note_on_c, 0, 82, 0
1, 30840, Note_on_c, 0, 79, 80
1, 30953, Note_on_c, 0, 79, 0
1, 30960, Note_on_c, 0, 79, 80
1, 31187, Note_on_c, 0, 79, 0
1, 32040, Note_on_c, 0, 75, 80
1, 32153, Note_on_c, 0, 75, 0
1, 32160, Note_on_c, 0, 82, 80
1, 32273, Note_on_c, 0, 82, 0
1, 32280, Note_on_c, 0, 79, 80
1, 32393, Note_on_c, 0, 79, 0
1, 32400, Note_on_c, 0, 82, 80
1, 32627, Note_on_c, 0, 82, 0
1, 32640, Note_on_c, 0, 82, 80
1, 33551, Note_on_c, 0, 82, 0
1, 33960, Note_on_c, 0, 75, 80
1, 34073, Note_on_c, 0, 75, 0
1, 34080, Note_on_c, 0, 82, 80
1, 34193, Note_on_c, 0, 82, 0
1, 34200, Note_on_c, 0, 79, 80
1, 34313, Note_on_c, 0, 79, 0
1, 34320, Note_on_c, 0, 82, 80
1, 34547, Note_on_c, 0, 82, 0
1, 34560, Note_on_c, 0, 82, 80
1, 35243, Note_on_c, 0, 82, 0
1, 35280, Note_on_c, 0, 79, 80
1, 35735, Note_on_c, 0, 79, 0
1, 35760, Note_on_c, 0, 75, 80
1, 36215, Note_on_c, 0, 75, 0
1, 36240, Note_on_c, 0, 79, 80
1, 36467, Note_on_c, 0, 79, 0
1, 36480, Note_on_c, 0, 79, 80
1, 38303, Note_on_c, 0, 79, 0
1, 41640, Note_on_c, 0, 72, 80
1, 41753, Note_on_c, 0, 72, 0
1, 41760, Note_on_c, 0, 75, 80
1, 41911, Note_on_c, 0, 75, 0
1, 41920, Note_on_c, 0, 75, 80
1, 42071, Note_on_c, 0, 75, 0
1, 42080, Note_on_c, 0, 75, 80
1, 42231, Note_on_c, 0, 75, 0
1, 42240, Note_on_c, 0, 74, 80
1, 44063, Note_on_c, 0, 74, 0
1, 45360, Note_on_c, 0, 70, 80
1, 45587, Note_on_c, 0, 70, 0
1, 45600, Note_on_c, 0, 70, 80
1, 45827, Note_on_c, 0, 70, 0
1, 45840, Note_on_c, 0, 70, 80
1, 46067, Note_on_c, 0, 70, 0
1, 46080, Note_on_c, 0, 67, 80
1, 46080, Note_on_c, 0, 70, 80
1, 46307, Note_on_c, 0, 67, 0
1, 46307, Note_on_c, 0, 70, 0
1, 46320, Note_on_c, 0, 79, 80
1, 46547, Note_on_c, 0, 79, 0
1, 46560, Note_on_c, 0, 77, 80
1, 47015, Note_on_c, 0, 77, 0
1, 47760, Note_on_c, 0, 75, 80
1, 47987, Note_on_c, 0, 75, 0
1, 48000, Note_on_c, 0, 70, 80
1, 48911, Note_on_c, 0, 70, 0
1, 49680, Note_on_c, 0, 75, 80
1, 49793, Note_on_c, 0, 75, 0
1, 49800, Note_on_c, 0, 77, 80
1, 49913, Note_on_c, 0, 77, 0
1, 49920, Note_on_c, 0, 70, 80
1, 49920, Note_on_c, 0, 79, 80
1, 50261, Note_on_c, 0, 70, 0
1, 50261, Note_on_c, 0, 79, 0
1, 50280, Note_on_c, 0, 77, 80
1, 50849, Note_on_c, 0, 77, 0
1, 51480, Note_on_c, 0, 75, 80
1, 51593, Note_on_c, 0, 75, 0
1, 51600, Note_on_c, 0, 75, 80
1, 51713, Note_on_c, 0, 75, 0
1, 51720, Note_on_c, 0, 75, 80
1, 51833, Note_on_c, 0, 75, 0
1, 51840, Note_on_c, 0, 77, 80
1, 52181, Note_on_c, 0, 77, 0
1, 52200, Note_on_c, 0, 70, 80
1, 52769, Note_on_c, 0, 70, 0
1, 52800, Note_on_c, 0, 75, 80
1, 52951, Note_on_c, 0, 75, 0
1, 52960, Note_on_c, 0, 77, 80
1, 53111, Note_on_c, 0, 77, 0
1, 53120, Note_on_c, 0, 79, 80
1, 53271, Note_on_c, 0, 79, 0
1, 53280, Note_on_c, 0, 80, 80
1, 53621, Note_on_c, 0, 80, 0
1, 53640, Note_on_c, 0, 79, 80
1, 54209, Note_on_c, 0, 79, 0
1, 55680, Note_on_c, 0, 75, 80
1, 55831, Note_on_c, 0, 75, 0
1, 55840, Note_on_c, 0, 77, 80
1, 55991, Note_on_c, 0, 77, 0
1, 56000, Note_on_c, 0, 79, 80
1, 56151, Note_on_c, 0, 79, 0
1, 56160, Note_on_c, 0, 79, 80
1, 56501, Note_on_c, 0, 79, 0
1, 56520, Note_on_c, 0, 77, 80
1, 57089, Note_on_c, 0, 77, 0
1, 57120, Note_on_c, 0, 75, 80
1, 57271, Note_on_c, 0, 75, 0
1, 57280, Note_on_c, 0, 75, 80
1, 57431, Note_on_c, 0, 75, 0
1, 57440, Note_on_c, 0, 75, 80
1, 57591, Note_on_c, 0, 75, 0
1, 57600, Note_on_c, 0, 77, 80
1, 57941, Note_on_c, 0, 77, 0
1, 57960, Note_on_c, 0, 70, 80
1, 58529, Note_on_c, 0, 70, 0
1, 61920, Note_on_c, 0, 70, 80
1, 61920, Note_on_c, 0, 79, 80
1, 62071, Note_on_c, 0, 70, 0
1, 62071, Note_on_c, 0, 79, 0
1, 62080, Note_on_c, 0, 70, 80
1, 62080, Note_on_c, 0, 79, 80
1, 62231, Note_on_c, 0, 70, 0
1, 62231, Note_on_c, 0, 79, 0
1, 62240, Note_on_c, 0, 70, 80
1, 62240, Note_on_c, 0, 79, 80
1, 62391, Note_on_c, 0, 70, 0
1, 62391, Note_on_c, 0, 79, 0
1, 62400, Note_on_c, 0, 70, 80
1, 62400, Note_on_c, 0, 79, 80
1, 62551, Note_on_c, 0, 70, 0
1, 62551, Note_on_c, 0, 79, 0
1, 62560, Note_on_c, 0, 75, 80
1, 62711, Note_on_c, 0, 75, 0
1, 62720, Note_on_c, 0, 75, 80
1, 62871, Note_on_c, 0, 75, 0
1, 62880, Note_on_c, 0, 70, 80
1, 63335, Note_on_c, 0, 70, 0
1, 63360, Note_on_c, 0, 70, 80
1, 63360, Note_on_c, 0, 79, 80
1, 63511, Note_on_c, 0, 70, 0
1, 63511, Note_on_c, 0, 79, 0
1, 63520, Note_on_c, 0, 70, 80
1, 63520, Note_on_c, 0, 79, 80
1, 63671, Note_on_c, 0, 70, 0
1, 63671, Note_on_c, 0, 79, 0
1, 63680, Note_on_c, 0, 70, 80
1, 63680, Note_on_c, 0, 79, 80
1, 63831, Note_on_c, 0, 70, 0
1, 63831, Note_on_c, 0, 79, 0
1, 63840, Note_on_c, 0, 70, 80
1, 63840, Note_on_c, 0, 79, 80
1, 63991, Note_on_c, 0, 70, 0
1, 63991, Note_on_c, 0, 79, 0
1, 64000, Note_on_c, 0, 75, 80
1, 64151, Note_on_c, 0, 75, 0
1, 64160, Note_on_c, 0, 75, 80
1, 64311, Note_on_c, 0, 75, 0
1, 64320, Note_on_c, 0, 75, 80
1, 64775, Note_on_c, 0, 75, 0
1, 64800, Note_on_c, 0, 70, 80
1, 64800, Note_on_c, 0, 75, 80
1, 64951, Note_on_c, 0, 70, 0
1, 64951, Note_on_c, 0, 75, 0
1, 64960, Note_on_c, 0, 77, 80
1, 65111, Note_on_c, 0, 77, 0
1, 65120, Note_on_c, 0, 79, 80
1, 65271, Note_on_c, 0, 79, 0
1, 65280, Note_on_c, 0, 70, 80
1, 65280, Note_on_c, 0, 75, 80
1, 65280, Note_on_c, 0, 80, 80
1, 65621, Note_on_c, 0, 70, 0
1, 65621, Note_on_c, 0, 75, 0
1, 65621, Note_on_c, 0, 80, 0
1, 65640, Note_on_c, 0, 79, 80
1, 66209, Note_on_c, 0, 79, 0
1, 66240, Note_on_c, 0, 70, 80
1, 66240, Note_on_c, 0, 75, 80
1, 66391, Note_on_c, 0, 70, 0
1, 66391, Note_on_c, 0, 75, 0
1, 66400, Note_on_c, 0, 75, 80
1, 66551, Note_on_c, 0, 75, 0
1, 66560, Note_on_c, 0, 75, 80
1, 66711, Note_on_c, 0, 75, 0
1, 66720, Note_on_c, 0, 74, 80
1, 66720, Note_on_c, 0, 82, 80
1, 67061, Note_on_c, 0, 74, 0
1, 67061, Note_on_c, 0, 82, 0
1, 67080, Note_on_c, 0, 79, 80
1, 67649, Note_on_c, 0, 79, 0
1, 67920, Note_on_c, 0, 70, 80
1, 68033, Note_on_c, 0, 70, 0
1, 68040, Note_on_c, 0, 70, 80
1, 68153, Note_on_c, 0, 70, 0
1, 68160, Note_on_c, 0, 77, 80
1, 68463, Note_on_c, 0, 77, 0
1, 68480, Note_on_c, 0, 75, 80
1, 68783, Note_on_c, 0, 75, 0
1, 68800, Note_on_c, 0, 72, 80
1, 69331, Note_on_c, 0, 72, 0
1, 69360, Note_on_c, 0, 70, 80
1, 69587, Note_on_c, 0, 70, 0
1, 72000, Note_on_c, 0, 75, 80
1, 72227, Note_on_c, 0, 75, 0
1, 72240, Note_on_c, 0, 75, 80
1, 72467, Note_on_c, 0, 75, 0
1, 72480, Note_on_c, 0, 77, 80
1, 72821, Note_on_c, 0, 77, 0
1, 72840, Note_on_c, 0, 75, 80
1, 72953, Note_on_c, 0, 75, 0
1, 72960, Note_on_c, 0, 67, 80
1, 72960, Note_on_c, 0, 71, 80
1, 72960, Note_on_c, 0, 74, 80
1, 73871, Note_on_c, 0, 67, 0
1, 73871, Note_on_c, 0, 71, 0
1, 73871, Note_on_c, 0, 74, 0
1, 73920, Note_on_c, 0, 67, 80
1, 73920, Note_on_c, 0, 71, 80
1, 73920, Note_on_c, 0, 74, 80
1, 73920, Note_on_c, 0, 77, 80
1, 74831, Note_on_c, 0, 67, 0
1, 74831, Note_on_c, 0, 71, 0
1, 74831, Note_on_c, 0, 74, 0
1, 74831, Note_on_c, 0, 77, 0
1, 74880, Note_on_c, 0, 71, 80
1, 74880, Note_on_c, 0, 74, 80
1, 74880, Note_on_c, 0, 77, 80
1, 74880, Note_on_c, 0, 80, 80
1, 75563, Note_on_c, 0, 71, 0
1, 75563, Note_on_c, 0, 74, 0
1, 75563, Note_on_c, 0, 77, 0
1, 75563, Note_on_c, 0, 80, 0
1, 75600, Note_on_c, 0, 79, 80
1, 75600, Note_on_c, 0, 91, 80
1, 75827, Note_on_c, 0, 79, 0
1, 75827, Note_on_c, 0, 91, 0
1, 75840, Note_on_c, 0, 77, 80
1, 75840, Note_on_c, 0, 89, 80
1, 76067, Note_on_c, 0, 77, 0
1, 76067, Note_on_c, 0, 89, 0
1, 76080, Note_on_c, 0, 75, 80
1, 76080, Note_on_c, 0, 87, 80
1, 76307, Note_on_c, 0, 75, 0
1, 76307, Note_on_c, 0, 87, 0
1, 76320, Note_on_c, 0, 72, 80
1, 76320, Note_on_c, 0, 84, 80
1, 76547, Note_on_c, 0, 72, 0
1, 76547, Note_on_c, 0, 84, 0
1, 76560, Note_on_c, 0, 70, 80
1, 76560, Note_on_c, 0, 82, 80
1, 76787, Note_on_c, 0, 70, 0
1, 76787, Note_on_c, 0, 82, 0
1, 76800, Note_on_c, 0, 70, 80
1, 76800, Note_on_c, 0, 72, 80
1, 76800, Note_on_c, 0, 75, 80
1, 76800, Note_on_c, 0, 79, 80
1, 79307, Note_on_c, 0, 70, 0
1, 79307, Note_on_c, 0, 72, 0
1, 79307, Note_on_c, 0, 75, 0
1, 79307, Note_on_c, 0, 79, 0
1, 79440, Note_on_c, 0, 75, 80
1, 79667, Note_on_c, 0, 75, 0
1, 79680, Note_on_c, 0, 79, 80
1, 79907, Note_on_c, 0, 79, 0
1, 79920, Note_on_c, 0, 77, 80
1, 80147, Note_on_c, 0, 77, 0
1, 80160, Note_on_c, 0, 75, 80
1, 80387, Note_on_c, 0, 75, 0
1, 80400, Note_on_c, 0, 70, 80
1, 80627, Note_on_c, 0, 70, 0
1, 80640, Note_on_c, 0, 70, 80
1, 80640, Note_on_c, 0, 75, 80
1, 80640, Note_on_c, 0, 79, 80
1, 83147, Note_on_c, 0, 70, 0
1, 83147, Note_on_c, 0, 75, 0
1, 83147, Note_on_c, 0, 79, 0
1, 83280, Note_on_c, 0, 79, 80
1, 83507, Note_on_c, 0, 79, 0
1, 83520, Note_on_c, 0, 77, 80
1, 83747, Note_on_c, 0, 77, 0
1, 83760, Note_on_c, 0, 75, 80
1, 83987, Note_on_c, 0, 75, 0
1, 84000, Note_on_c, 0, 72, 80
1, 84227, Note_on_c, 0, 72, 0
1, 84240, Note_on_c, 0, 70, 80
1, 84467, Note_on_c, 0, 70, 0
1, 84480, Note_on_c, 0, 70, 80
1, 84480, Note_on_c, 0, 72, 80
1, 84480, Note_on_c, 0, 75, 80
1, 84480, Note_on_c, 0, 80, 80
1, 86987, Note_on_c, 0, 70, 0
1, 86987, Note_on_c, 0, 72, 0
1, 86987, Note_on_c, 0, 75, 0
1, 86987, Note_on_c, 0, 80, 0
1, 87120, Note_on_c, 0, 72, 80
1, 87347, Note_on_c, 0, 72, 0
1, 87360, Note_on_c, 0, 75, 80
1, 87587, Note_on_c, 0, 75, 0
1, 87600, Note_on_c, 0, 75, 80
1, 87827, Note_on_c, 0, 75, 0
1, 87840, Note_on_c, 0, 77, 80
1, 88067, Note_on_c, 0, 77, 0
1, 88080, Note_on_c, 0, 75, 80
1, 88307, Note_on_c, 0, 75, 0
1, 88320, Note_on_c, 0, 67, 80
1, 88320, Note_on_c, 0, 71, 80
1, 88320, Note_on_c, 0, 74, 80
1, 89231, Note_on_c, 0, 67, 0
1, 89231, Note_on_c, 0, 71, 0
1, 89231, Note_on_c, 0, 74, 0
1, 89280, Note_on_c, 0, 67, 80
1, 89280, Note_on_c, 0, 71, 80
1, 89280, Note_on_c, 0, 74, 80
1, 89280, Note_on_c, 0, 77, 80
1, 90191, Note_on_c, 0, 67, 0
1, 90191, Note_on_c, 0, 71, 0
1, 90191, Note_on_c, 0, 74, 0
1, 90191, Note_on_c, 0, 77, 0
1, 90240, Note_on_c, 0, 71, 80
1, 90240, Note_on_c, 0, 74, 80
1, 90240, Note_on_c, 0, 77, 80
1, 90240, Note_on_c, 0, 80, 80
1, 90923, Note_on_c, 0, 71, 0
1, 90923, Note_on_c, 0, 74, 0
1, 90923, Note_on_c, 0, 77, 0
1, 90923, Note_on_c, 0, 80, 0
1, 90960, Note_on_c, 0, 79, 80
1, 90960, Note_on_c, 0, 91, 80
1, 91187, Note_on_c, 0, 79, 0
1, 91187, Note_on_c, 0, 91, 0
1, 91200, Note_on_c, 0, 77, 80
1, 91200, Note_on_c, 0, 89, 80
1, 91541, Note_on_c, 0, 77, 0
1, 91541, Note_on_c, 0, 89, 0
1, 91560, Note_on_c, 0, 75, 80
1, 91560, Note_on_c, 0, 87, 80
1, 91673, Note_on_c, 0, 75, 0
1, 91673, Note_on_c, 0, 87, 0
1, 91680, Note_on_c, 0, 72, 80
1, 91680, Note_on_c, 0, 84, 80
1, 91907, Note_on_c, 0, 72, 0
1, 91907, Note_on_c, 0, 84, 0
1, 91920, Note_on_c, 0, 70, 80
1, 91920, Note_on_c, 0, 82, 80
1, 92147, Note_on_c, 0, 70, 0
1, 92147, Note_on_c, 0, 82, 0
1, 92160, Note_on_c, 0, 67, 80
1, 92160, Note_on_c, 0, 72, 80
1, 92160, Note_on_c, 0, 75, 80
1, 92160, Note_on_c, 0, 79, 80
1, 92615, Note_on_c, 0, 67, 0
1, 92615, Note_on_c, 0, 72, 0
1, 92615, Note_on_c, 0, 75, 0
1, 92615, Note_on_c, 0, 79, 0
1, 92640, Note_on_c, 0, 72, 80
1, 92640, Note_on_c, 0, 75, 80
1, 92640, Note_on_c, 0, 79, 80
1, 92791, Note_on_c, 0, 72, 0
1, 92791, Note_on_c, 0, 75, 0
1, 92791, Note_on_c, 0, 79, 0
1, 92800, Note_on_c, 0, 72, 80
1, 92800, Note_on_c, 0, 75, 80
1, 92800, Note_on_c, 0, 79, 80
1, 92951, Note_on_c, 0, 72, 0
1, 92951, Note_on_c, 0, 75, 0
1, 92951, Note_on_c, 0, 79, 0
1, 92960, Note_on_c, 0, 72, 80
1, 92960, Note_on_c, 0, 75, 80
1, 92960, Note_on_c, 0, 79, 80
1, 93111, Note_on_c, 0, 72, 0
1, 93111, Note_on_c, 0, 75, 0
1, 93111, Note_on_c, 0, 79, 0
1, 93120, Note_on_c, 0, 72, 80
1, 93120, Note_on_c, 0, 75, 80
1, 93120, Note_on_c, 0, 79, 80
1, 93271, Note_on_c, 0, 72, 0
1, 93271, Note_on_c, 0, 75, 0
1, 93271, Note_on_c, 0, 79, 0
1, 93280, Note_on_c, 0, 77, 80
1, 93431, Note_on_c, 0, 77, 0
1, 93440, Note_on_c, 0, 77, 80
1, 93591, Note_on_c, 0, 77, 0
1, 93600, Note_on_c, 0, 77, 80
1, 93827, Note_on_c, 0, 77, 0
1, 93840, Note_on_c, 0, 75, 80
1, 94067, Note_on_c, 0, 75, 0
1, 94080, Note_on_c, 0, 67, 80
1, 94080, Note_on_c, 0, 72, 80
1, 94080, Note_on_c, 0, 75, 80
1, 94080, Note_on_c, 0, 79, 80
1, 94421, Note_on_c, 0, 67, 0
1, 94421, Note_on_c, 0, 72, 0
1, 94421, Note_on_c, 0, 75, 0
1, 94421, Note_on_c, 0, 79, 0
1, 94440, Note_on_c, 0, 79, 80
1, 94553, Note_on_c, 0, 79, 0
1, 94680, Note_on_c, 0, 75, 80
1, 94793, Note_on_c, 0, 75, 0
1, 94800, Note_on_c, 0, 75, 80
1, 94913, Note_on_c, 0, 75, 0
1, 94920, Note_on_c, 0, 75, 80
1, 95033, Note_on_c, 0, 75, 0
1, 95040, Note_on_c, 0, 77, 80
1, 95267, Note_on_c, 0, 77, 0
1, 95280, Note_on_c, 0, 79, 80
1, 95507, Note_on_c, 0, 79, 0
1, 95520, Note_on_c, 0, 67, 80
1, 95520, Note_on_c, 0, 75, 80
1, 95975, Note_on_c, 0, 67, 0
1, 95975, Note_on_c, 0, 75, 0
1, 96240, Note_on_c, 0, 79, 80
1, 96353, Note_on_c, 0, 79, 0
1, 96360, Note_on_c, 0, 79, 80
1, 96473, Note_on_c, 0, 79, 0
1, 96480, Note_on_c, 0, 75, 80
1, 96480, Note_on_c, 0, 82, 80
1, 96707, Note_on_c, 0, 75, 0
1, 96707, Note_on_c, 0, 82, 0
1, 96720, Note_on_c, 0, 79, 80
1, 96833, Note_on_c, 0, 79, 0
1, 96840, Note_on_c, 0, 82, 80
1, 97067, Note_on_c, 0, 82, 0
1, 97080, Note_on_c, 0, 79, 80
1, 97193, Note_on_c, 0, 79, 0
1, 97200, Note_on_c, 0, 82, 80
1, 97427, Note_on_c, 0, 82, 0
1, 97920, Note_on_c, 0, 75, 80
1, 98033, Note_on_c, 0, 75, 0
1, 98040, Note_on_c, 0, 84, 80
1, 98267, Note_on_c, 0, 84, 0
1, 98280, Note_on_c, 0, 82, 80
1, 98507, Note_on_c, 0, 82, 0
1, 98520, Note_on_c, 0, 79, 80
1, 98747, Note_on_c, 0, 79, 0
1, 98760, Note_on_c, 0, 77, 80
1, 98987, Note_on_c, 0, 77, 0
1, 99000, Note_on_c, 0, 77, 80
1, 99113, Note_on_c, 0, 77, 0
1, 99120, Note_on_c, 0, 77, 80
1, 99347, Note_on_c, 0, 77, 0
1, 99360, Note_on_c, 0, 67, 80
1, 99360, Note_on_c, 0, 75, 80
1, 99815, Note_on_c, 0, 67, 0
1, 99815, Note_on_c, 0, 75, 0
1, 100080, Note_on_c, 0, 72, 80
1, 100080, Note_on_c, 0, 75, 80
1, 100080, Note_on_c, 0, 84, 80
1, 100307, Note_on_c, 0, 72, 0
1, 100307, Note_on_c, 0, 75, 0
1, 100307, Note_on_c, 0, 84, 0
1, 100320, Note_on_c, 0, 82, 80
1, 100547, Note_on_c, 0, 82, 0
1, 100560, Note_on_c, 0, 79, 80
1, 100787, Note_on_c, 0, 79, 0
1, 100800, Note_on_c, 0, 77, 80
1, 101027, Note_on_c, 0, 77, 0
1, 101040, Note_on_c, 0, 77, 80
1, 101267, Note_on_c, 0, 77, 0
1, 101280, Note_on_c, 0, 75, 80
1, 101963, Note_on_c, 0, 75, 0
1, 102000, Note_on_c, 0, 72, 80
1, 102000, Note_on_c, 0, 75, 80
1, 102000, Note_on_c, 0, 84, 80
1, 102227, Note_on_c, 0, 72, 0
1, 102227, Note_on_c, 0, 75, 0
1, 102227, Note_on_c, 0, 84, 0
1, 102240, Note_on_c, 0, 82, 80
1, 102467, Note_on_c, 0, 82, 0
1, 102480, Note_on_c, 0, 79, 80
1, 102707, Note_on_c, 0, 79, 0
1, 102720, Note_on_c, 0, 77, 80
1, 102947, Note_on_c, 0, 77, 0
1, 102960, Note_on_c, 0, 77, 80
1, 103187, Note_on_c, 0, 77, 0
1, 103200, Note_on_c, 0, 75, 80
1, 103655, Note_on_c, 0, 75, 0
1, 103920, Note_on_c, 0, 72, 80
1, 103920, Note_on_c, 0, 75, 80
1, 103920, Note_on_c, 0, 84, 80
1, 104147, Note_on_c, 0, 72, 0
1, 104147, Note_on_c, 0, 75, 0
1, 104147, Note_on_c, 0, 84, 0
1, 104160, Note_on_c, 0, 82, 80
1, 104387, Note_on_c, 0, 82, 0
1, 104400, Note_on_c, 0, 79, 80
1, 104627, Note_on_c, 0, 79, 0
1, 104640, Note_on_c, 0, 77, 80
1, 104867, Note_on_c, 0, 77, 0
1, 104880, Note_on_c, 0, 77, 80
1, 105107, Note_on_c, 0, 77, 0
1, 105120, Note_on_c, 0, 75, 80
1, 105575, Note_on_c, 0, 75, 0
1, 105600, Note_on_c, 0, 79, 80
1, 105827, Note_on_c, 0, 79, 0
1, 105840, Note_on_c, 0, 79, 80
1, 106067, Note_on_c, 0, 79, 0
1, 106080, Note_on_c, 0, 79, 80
1, 106307, Note_on_c, 0, 79, 0
1, 106320, Note_on_c, 0, 79, 80
1, 106547, Note_on_c, 0, 79, 0
1, 106560, Note_on_c, 0, 79, 80
1, 106787, Note_on_c, 0, 79, 0
1, 106800, Note_on_c, 0, 82, 80
1, 107027, Note_on_c, 0, 82, 0
1, 107040, Note_on_c, 0, 79, 80
1, 107040, Note_on_c, 0, 84, 80
1, 107267, Note_on_c, 0, 79, 0
1, 107267, Note_on_c, 0, 84, 0
1, 107280, Note_on_c, 0, 79, 80
1, 107280, Note_on_c, 0, 87, 80
1, 107507, Note_on_c, 0, 79, 0
1, 107507, Note_on_c, 0, 87, 0
1, 107520, Note_on_c, 0, 75, 80
1, 107520, Note_on_c, 0, 79, 80
1, 107520, Note_on_c, 0, 84, 80
1, 108431, Note_on_c, 0, 75, 0
1, 108431, Note_on_c, 0, 79, 0
1, 108431, Note_on_c, 0, 84, 0
1, 108480, Note_on_c, 0, 75, 80
1, 108480, Note_on_c, 0, 79, 80
1, 108480, Note_on_c, 0, 84, 80
1, 108935, Note_on_c, 0, 75, 0
1, 108935, Note_on_c, 0, 79, 0
1, 108935, Note_on_c, 0, 84, 0
1, 109200, Note_on_c, 0, 84, 80
1, 109313, Note_on_c, 0, 84, 0
1, 109320, Note_on_c, 0, 86, 80
1, 109433, Note_on_c, 0, 86, 0
1, 109440, Note_on_c, 0, 79, 80
1, 109440, Note_on_c, 0, 87, 80
1, 109667, Note_on_c, 0, 79, 0
1, 109667, Note_on_c, 0, 87, 0
1, 109680, Note_on_c, 0, 86, 80
1, 109907, Note_on_c, 0, 86, 0
1, 109920, Note_on_c, 0, 84, 80
1, 110147, Note_on_c, 0, 84, 0
1, 110160, Note_on_c, 0, 82, 80
1, 110387, Note_on_c, 0, 82, 0
1, 110400, Note_on_c, 0, 75, 80
1, 110400, Note_on_c, 0, 84, 80
1, 110627, Note_on_c, 0, 75, 0
1, 110627, Note_on_c, 0, 84, 0
1, 110640, Note_on_c, 0, 82, 80
1, 110867, Note_on_c, 0, 82, 0
1, 110880, Note_on_c, 0, 79, 80
1, 111107, Note_on_c, 0, 79, 0
1, 111120, Note_on_c, 0, 77, 80
1, 111347, Note_on_c, 0, 77, 0
1, 111360, Note_on_c, 0, 67, 80
1, 111360, Note_on_c, 0, 70, 80
1, 111360, Note_on_c, 0, 77, 80
1, 111587, Note_on_c, 0, 67, 0
1, 111587, Note_on_c, 0, 70, 0
1, 111587, Note_on_c, 0, 77, 0
1, 111600, Note_on_c, 0, 75, 80
1, 112283, Note_on_c, 0, 75, 0
1, 113040, Note_on_c, 0, 84, 80
1, 113153, Note_on_c, 0, 84, 0
1, 113160, Note_on_c, 0, 86, 80
1, 113273, Note_on_c, 0, 86, 0
1, 113280, Note_on_c, 0, 79, 80
1, 113280, Note_on_c, 0, 87, 80
1, 113507, Note_on_c, 0, 79, 0
1, 113507, Note_on_c, 0, 87, 0
1, 113520, Note_on_c, 0, 86, 80
1, 113747, Note_on_c, 0, 86, 0
1, 113760, Note_on_c, 0, 84, 80
1, 113987, Note_on_c, 0, 84, 0
1, 114000, Note_on_c, 0, 82, 80
1, 114227, Note_on_c, 0, 82, 0
1, 114240, Note_on_c, 0, 75, 80
1, 114240, Note_on_c, 0, 84, 80
1, 114467, Note_on_c, 0, 75, 0
1, 114467, Note_on_c, 0, 84, 0
1, 114480, Note_on_c, 0, 82, 80
1, 114707, Note_on_c, 0, 82, 0
1, 114720, Note_on_c, 0, 79, 80
1, 114947, Note_on_c, 0, 79, 0
1, 114960, Note_on_c, 0, 77, 80
1, 115187, Note_on_c, 0, 77, 0
1, 115200, Note_on_c, 0, 68, 80
1, 115200, Note_on_c, 0, 72, 80
1, 115200, Note_on_c, 0, 75, 80
1, 115200, Note_on_c, 0, 79, 80
1, 116111, Note_on_c, 0, 68, 0
1, 116111, Note_on_c, 0, 72, 0
1, 116111, Note_on_c, 0, 75, 0
1, 116111, Note_on_c, 0, 79, 0
1, 117120, Note_on_c, 0, 79, 80
1, 117575, Note_on_c, 0, 79, 0
1, 117840, Note_on_c, 0, 82, 80
1, 118067, Note_on_c, 0, 82, 0
1, 118080, Note_on_c, 0, 84, 80
1, 118307, Note_on_c, 0, 84, 0
1, 118320, Note_on_c, 0, 79, 80
1, 118547, Note_on_c, 0, 79, 0
1, 118800, Note_on_c, 0, 79, 80
1, 118913, Note_on_c, 0, 79, 0
1, 118920, Note_on_c, 0, 82, 80
1, 119033, Note_on_c, 0, 82, 0
1, 119040, Note_on_c, 0, 74, 80
1, 119040, Note_on_c, 0, 77, 80
1, 119040, Note_on_c, 0, 84, 80
1, 119267, Note_on_c, 0, 74, 0
1, 119267, Note_on_c, 0, 77, 0
1, 119267, Note_on_c, 0, 84, 0
1, 119280, Note_on_c, 0, 79, 80
1, 119735, Note_on_c, 0, 79, 0
1, 119760, Note_on_c, 0, 79, 80
1, 119873, Note_on_c, 0, 79, 0
1, 119880, Note_on_c, 0, 77, 80
1, 119993, Note_on_c, 0, 77, 0
1, 120000, Note_on_c, 0, 79, 80
1, 120683, Note_on_c, 0, 79, 0
1, 120720, Note_on_c, 0, 79, 80
1, 120833, Note_on_c, 0, 79, 0
1, 120840, Note_on_c, 0, 79, 80
1, 120953, Note_on_c, 0, 79, 0
1, 120960, Note_on_c, 0, 79, 80
1, 120960, Note_on_c, 0, 83, 80
1, 120960, Note_on_c, 0, 89, 80
1, 121643, Note_on_c, 0, 79, 0
1, 121643, Note_on_c, 0, 83, 0
1, 121643, Note_on_c, 0, 89, 0
1, 121680, Note_on_c, 0, 79, 80
1, 121907, Note_on_c, 0, 79, 0
1, 121920, Note_on_c, 0, 79, 80
1, 121920, Note_on_c, 0, 83, 80
1, 121920, Note_on_c, 0, 89, 80
1, 122147, Note_on_c, 0, 79, 0
1, 122147, Note_on_c, 0, 83, 0
1, 122147, Note_on_c, 0, 89, 0
1, 122160, Note_on_c, 0, 87, 80
1, 122387, Note_on_c, 0, 87, 0
1, 122400, Note_on_c, 0, 79, 80
1, 122400, Note_on_c, 0, 86, 80
1, 122627, Note_on_c, 0, 79, 0
1, 122627, Note_on_c, 0, 86, 0
1, 122640, Note_on_c, 0, 87, 80
1, 122867, Note_on_c, 0, 87, 0
1, 122880, Note_on_c, 0, 72, 80
1, 122880, Note_on_c, 0, 75, 80
1, 122880, Note_on_c, 0, 79, 80
1, 122880, Note_on_c, 0, 84, 80
1, 123335, Note_on_c, 0, 72, 0
1, 123335, Note_on_c, 0, 75, 0
1, 123335, Note_on_c, 0, 79, 0
1, 123335, Note_on_c, 0, 84, 0
1, 123360, Note_on_c, 0, 70, 80
1, 123360, Note_on_c, 0, 79, 80
1, 123511, Note_on_c, 0, 70, 0
1, 123511, Note_on_c, 0, 79, 0
1, 123520, Note_on_c, 0, 70, 80
1, 123520, Note_on_c, 0, 79, 80
1, 123671, Note_on_c, 0, 70, 0
1, 123671, Note_on_c, 0, 79, 0
1, 123680, Note_on_c, 0, 70, 80
1, 123680, Note_on_c, 0, 79, 80
1, 123831, Note_on_c, 0, 70, 0
1, 123831, Note_on_c, 0, 79, 0
1, 123840, Note_on_c, 0, 70, 80
1, 123840, Note_on_c, 0, 79, 80
1, 123991, Note_on_c, 0, 70, 0
1, 123991, Note_on_c, 0, 79, 0
1, 124000, Note_on_c, 0, 75, 80
1, 124151, Note_on_c, 0, 75, 0
1, 124160, Note_on_c, 0, 75, 80
1, 124311, Note_on_c, 0, 75, 0
1, 124320, Note_on_c, 0, 70, 80
1, 124775, Note_on_c, 0, 70, 0
1, 124800, Note_on_c, 0, 70, 80
1, 124800, Note_on_c, 0, 79, 80
1, 124951, Note_on_c, 0, 70, 0
1, 124951, Note_on_c, 0, 79, 0
1, 124960, Note_on_c, 0, 70, 80
1, 124960, Note_on_c, 0, 79, 80
1, 125111, Note_on_c, 0, 70, 0
1, 125111, Note_on_c, 0, 79, 0
1, 125120, Note_on_c, 0, 70, 80
1, 125120, Note_on_c, 0, 79, 80
1, 125271, Note_on_c, 0, 70, 0
1, 125271, Note_on_c, 0, 79, 0
1, 125280, Note_on_c, 0, 70, 80
1, 125280, Note_on_c, 0, 79, 80
1, 125431, Note_on_c, 0, 70, 0
1, 125431, Note_on_c, 0, 79, 0
1, 125440, Note_on_c, 0, 75, 80
1, 125591, Note_on_c, 0, 75, 0
1, 125600, Note_on_c, 0, 75, 80
1, 125751, Note_on_c, 0, 75, 0
1, 125760, Note_on_c, 0, 75, 80
1, 126215, Note_on_c, 0, 75, 0
1, 126240, Note_on_c, 0, 70, 80
1, 126240, Note_on_c, 0, 75, 80
1, 126391, Note_on_c, 0, 70, 0
1, 126391, Note_on_c, 0, 75, 0
1, 126400, Note_on_c, 0, 77, 80
1, 126551, Note_on_c, 0, 77, 0
1, 126560, Note_on_c, 0, 79, 80
1, 126711, Note_on_c, 0, 79, 0
1, 126720, Note_on_c, 0, 70, 80
1, 126720, Note_on_c, 0, 75, 80
1, 126720, Note_on_c, 0, 80, 80
1, 127061, Note_on_c, 0, 70, 0
1, 127061, Note_on_c, 0, 75, 0
1, 127061, Note_on_c, 0, 80, 0
1, 127080, Note_on_c, 0, 79, 80
1, 127649, Note_on_c, 0, 79, 0
1, 127680, Note_on_c, 0, 70, 80
1, 127680, Note_on_c, 0, 75, 80
1, 127831, Note_on_c, 0, 70, 0
1, 127831, Note_on_c, 0, 75, 0
1, 127840, Note_on_c, 0, 75, 80
1, 127991, Note_on_c, 0, 75, 0
1, 128000, Note_on_c, 0, 75, 80
1, 128151, Note_on_c, 0, 75, 0
1, 128160, Note_on_c, 0, 70, 80
1, 128160, Note_on_c, 0, 82, 80
1, 128501, Note_on_c, 0, 70, 0
1, 128501, Note_on_c, 0, 82, 0
1, 128520, Note_on_c, 0, 79, 80
1, 129089, Note_on_c, 0, 79, 0
1, 129360, Note_on_c, 0, 70, 80
1, 129473, Note_on_c, 0, 70, 0
1, 129480, Note_on_c, 0, 70, 80
1, 129593, Note_on_c, 0, 70, 0
1, 129600, Note_on_c, 0, 77, 80
1, 129903, Note_on_c, 0, 77, 0
1, 129920, Note_on_c, 0, 75, 80
1, 130223, Note_on_c, 0, 75, 0
1, 130240, Note_on_c, 0, 72, 80
1, 130771, Note_on_c, 0, 72, 0
1, 130800, Note_on_c, 0, 70, 80
1, 131027, Note_on_c, 0, 70, 0
1, 133440, Note_on_c, 0, 75, 80
1, 133667, Note_on_c, 0, 75, 0
1, 133680, Note_on_c, 0, 75, 80
1, 133907, Note_on_c, 0, 75, 0
1, 133920, Note_on_c, 0, 77, 80
1, 134261, Note_on_c, 0, 77, 0
1, 134280, Note_on_c, 0, 75, 80
1, 134393, Note_on_c, 0, 75, 0
1, 134400, Note_on_c, 0, 67, 80
1, 134400, Note_on_c, 0, 71, 80
1, 134400, Note_on_c, 0, 74, 80
1, 135311, Note_on_c, 0, 67, 0
1, 135311, Note_on_c, 0, 71, 0
1, 135311, Note_on_c, 0, 74, 0
1, 135360, Note_on_c, 0, 67, 80
1, 135360, Note_on_c, 0, 71, 80
1, 135360, Note_on_c, 0, 74, 80
1, 135360, Note_on_c, 0, 77, 80
1, 136271, Note_on_c, 0, 67, 0
1, 136271, Note_on_c, 0, 71, 0
1, 136271, Note_on_c, 0, 74, 0
1, 136271, Note_on_c, 0, 77, 0
1, 136320, Note_on_c, 0, 71, 80
1, 136320, Note_on_c, 0, 74, 80
1, 136320, Note_on_c, 0, 77, 80
1, 136320, Note_on_c, 0, 80, 80
1, 137003, Note_on_c, 0, 71, 0
1, 137003, Note_on_c, 0, 74, 0
1, 137003, Note_on_c, 0, 77, 0
1, 137003, Note_on_c, 0, 80, 0
1, 137040, Note_on_c, 0, 79, 80
1, 137040, Note_on_c, 0, 91, 80
1, 137267, Note_on_c, 0, 79, 0
1, 137267, Note_on_c, 0, 91, 0
1, 137280, Note_on_c, 0, 77, 80
1, 137280, Note_on_c, 0, 89, 80
1, 137507, Note_on_c, 0, 77, 0
1, 137507, Note_on_c, 0, 89, 0
1, 137520, Note_on_c, 0, 75, 80
1, 137520, Note_on_c, 0, 87, 80
1, 137747, Note_on_c, 0, 75, 0
1, 137747, Note_on_c, 0, 87, 0
1, 137760, Note_on_c, 0, 72, 80
1, 137760, Note_on_c, 0, 84, 80
1, 137987, Note_on_c, 0, 72, 0
1, 137987, Note_on_c, 0, 84, 0
1, 138000, Note_on_c, 0, 70, 80
1, 138000, Note_on_c, 0, 82, 80
1, 138227, Note_on_c, 0, 70, 0
1, 138227, Note_on_c, 0, 82, 0
1, 138240, Note_on_c, 0, 70, 80
1, 138240, Note_on_c, 0, 72, 80
1, 138240, Note_on_c, 0, 75, 80
1, 138240, Note_on_c, 0, 79, 80
1, 140747, Note_on_c, 0, 70, 0
1, 140747, Note_on_c, 0, 72, 0
1, 140747, Note_on_c, 0, 75, 0
1, 140747, Note_on_c, 0, 79, 0
1, 140880, Note_on_c, 0, 75, 80
1, 141107, Note_on_c, 0, 75, 0
1, 141120, Note_on_c, 0, 79, 80
1, 141347, Note_on_c, 0, 79, 0
1, 141360, Note_on_c, 0, 77, 80
1, 141587, Note_on_c, 0, 77, 0
1, 141600, Note_on_c, 0, 75, 80
1, 141827, Note_on_c, 0, 75, 0
1, 141840, Note_on_c, 0, 70, 80
1, 142067, Note_on_c, 0, 70, 0
1, 142080, Note_on_c, 0, 70, 80
1, 142080, Note_on_c, 0, 75, 80
1, 142080, Note_on_c, 0, 79, 80
1, 144587, Note_on_c, 0, 70, 0
1, 144587, Note_on_c, 0, 75, 0
1, 144587, Note_on_c, 0, 79, 0
1, 144720, Note_on_c, 0, 79, 80
1, 144947, Note_on_c, 0, 79, 0
1, 144960, Note_on_c, 0, 77, 80
1, 145187, Note_on_c, 0, 77, 0
1, 145200, Note_on_c, 0, 75, 80
1, 145427, Note_on_c, 0, 75, 0
1, 145440, Note_on_c, 0, 72, 80
1, 145667, Note_on_c, 0, 72, 0
1, 145680, Note_on_c, 0, 70, 80
1, 145907, Note_on_c, 0, 70, 0
1, 145920, Note_on_c, 0, 70, 80
1, 145920, Note_on_c, 0, 72, 80
1, 145920, Note_on_c, 0, 75, 80
1, 145920, Note_on_c, 0, 80, 80
1, 148427, Note_on_c, 0, 70, 0
1, 148427, Note_on_c, 0, 72, 0
1, 148427, Note_on_c, 0, 75, 0
1, 148427, Note_on_c, 0, 80, 0
1, 148560, Note_on_c, 0, 72, 80
1, 148787, Note_on_c, 0, 72, 0
1, 148800, Note_on_c, 0, 75, 80
1, 149027, Note_on_c, 0, 75, 0
1, 149040, Note_on_c, 0, 75, 80
1, 149267, Note_on_c, 0, 75, 0
1, 149280, Note_on_c, 0, 77, 80
1, 149507, Note_on_c, 0, 77, 0
1, 149520, Note_on_c, 0, 75, 80
1, 149747, Note_on_c, 0, 75, 0
1, 149760, Note_on_c, 0, 67, 80
1, 149760, Note_on_c, 0, 71, 80
1, 149760, Note_on_c, 0, 74, 80
1, 150671, Note_on_c, 0, 67, 0
1, 150671, Note_on_c, 0, 71, 0
1, 150671, Note_on_c, 0, 74, 0
1, 150720, Note_on_c, 0, 67, 80
1, 150720, Note_on_c, 0, 71, 80
1, 150720, Note_on_c, 0, 74, 80
1, 150720, Note_on_c, 0, 77, 80
1, 151631, Note_on_c, 0, 67, 0
1, 151631, Note_on_c, 0, 71, 0
1, 151631, Note_on_c, 0, 74, 0
1, 151631, Note_on_c, 0, 77, 0
1, 151680, Note_on_c, 0, 71, 80
1, 151680, Note_on_c, 0, 74, 80
1, 151680, Note_on_c, 0, 77, 80
1, 151680, Note_on_c, 0, 80, 80
1, 153503, Note_on_c, 0, 71, 0
1, 153503, Note_on_c, 0, 74, 0
1, 153503, Note_on_c, 0, 77, 0
1, 153503, Note_on_c, 0, 80, 0
1, 153600, Note_on_c, 0, 67, 80
1, 153600, Note_on_c, 0, 72, 80
1, 153600, Note_on_c, 0, 75, 80
1, 153600, Note_on_c, 0, 79, 80
1, 157247, Note_on_c, 0, 67, 0
1, 157247, Note_on_c, 0, 72, 0
1, 157247, Note_on_c, 0, 75, 0
1, 157247, Note_on_c, 0, 79, 0
1, 157440, Note_on_c, 0, 67, 80
1, 157440, Note_on_c, 0, 70, 80
1, 157440, Note_on_c, 0, 75, 80
1, 157440, Note_on_c, 0, 79, 80
1, 161087, Note_on_c, 0, 67, 0
1, 161087, Note_on_c, 0, 70, 0
1, 161087, Note_on_c, 0, 75, 0
1, 161087, Note_on_c, 0, 79, 0
1, 161280, Note_on_c, 0, 68, 80
1, 161280, Note_on_c, 0, 72, 80
1, 161280, Note_on_c, 0, 75, 80
1, 161280, Note_on_c, 0, 80, 80
1, 164015, Note_on_c, 0, 68, 0
1, 164015, Note_on_c, 0, 72, 0
1, 164015, Note_on_c, 0, 75, 0
1, 164015, Note_on_c, 0, 80, 0
1, 164160, Note_on_c, 0, 68, 80
1, 164160, Note_on_c, 0, 72, 80
1, 164160, Note_on_c, 0, 75, 80
1, 164160, Note_on_c, 0, 80, 80
1, 165071, Note_on_c, 0, 68, 0
1, 165071, Note_on_c, 0, 72, 0
1, 165071, Note_on_c, 0, 75, 0
1, 165071, Note_on_c, 0, 80, 0
1, 165120, Note_on_c, 0, 67, 80
1, 165150, Note_on_c, 0, 71, 80
1, 165183, Note_on_c, 0, 74, 80
1, 165216, Note_on_c, 0, 79, 80
1, 168862, Note_on_c, 0, 71, 0
1, 168862, Note_on_c, 0, 74, 0
1, 168863, Note_on_c, 0, 67, 0
1, 168863, Note_on_c, 0, 79, 0
2, 0, Note_on_c, 0, 58, 80
2, 0, Note_on_c, 0, 60, 80
2, 0, Note_on_c, 0, 63, 80
2, 0, Note_on_c, 0, 67, 80
2, 3647, Note_on_c, 0, 58, 0
2, 3647, Note_on_c, 0, 60, 0
2, 3647, Note_on_c, 0, 63, 0
2, 3647, Note_on_c, 0, 67, 0
2, 3840, Note_on_c, 0, 55, 80
2, 3840, Note_on_c, 0, 58, 80
2, 3840, Note_on_c, 0, 63, 80
2, 3840, Note_on_c, 0, 67, 80
2, 6575, Note_on_c, 0, 55, 0
2, 6575, Note_on_c, 0, 58, 0
2, 6575, Note_on_c, 0, 63, 0
2, 6575, Note_on_c, 0, 67, 0
2, 6720, Note_on_c, 0, 58, 80
2, 6720, Note_on_c, 0, 61, 80
2, 6720, Note_on_c, 0, 63, 80
2, 6720, Note_on_c, 0, 67, 80
2, 7631, Note_on_c, 0, 58, 0
2, 7631, Note_on_c, 0, 61, 0
2, 7631, Note_on_c, 0, 63, 0
2, 7631, Note_on_c, 0, 67, 0
2, 7680, Note_on_c, 0, 56, 80
2, 7680, Note_on_c, 0, 60, 80
2, 7680, Note_on_c, 0, 63, 80
2, 7680, Note_on_c, 0, 68, 80
2, 10415, Note_on_c, 0, 56, 0
2, 10415, Note_on_c, 0, 60, 0
2, 10415, Note_on_c, 0, 63, 0
2, 10415, Note_on_c, 0, 68, 0
2, 10560, Note_on_c, 0, 56, 80
2, 10560, Note_on_c, 0, 60, 80
2, 10560, Note_on_c, 0, 63, 80
2, 10560, Note_on_c, 0, 68, 80
2, 11471, Note_on_c, 0, 56, 0
2, 11471, Note_on_c, 0, 60, 0
2, 11471, Note_on_c, 0, 63, 0
2, 11471, Note_on_c, 0, 68, 0
2, 11520, Note_on_c, 0, 55, 80
2, 11520, Note_on_c, 0, 59, 80
2, 11520, Note_on_c, 0, 62, 80
2, 11520, Note_on_c, 0, 67, 80
2, 14255, Note_on_c, 0, 55, 0
2, 14255, Note_on_c, 0, 59, 0
2, 14255, Note_on_c, 0, 62, 0
2, 14255, Note_on_c, 0, 67, 0
2, 14400, Note_on_c, 0, 55, 80
2, 14400, Note_on_c, 0, 59, 80
2, 14400, Note_on_c, 0, 62, 80
2, 14400, Note_on_c, 0, 67, 80
2, 15311, Note_on_c, 0, 55, 0
2, 15311, Note_on_c, 0, 59, 0
2, 15311, Note_on_c, 0, 62, 0
2, 15311, Note_on_c, 0, 67, 0
2, 15360, Note_on_c, 0, 55, 80
2, 15360, Note_on_c, 0, 58, 80
2, 15360, Note_on_c, 0, 60, 80
2, 15360, Note_on_c, 0, 63, 80
2, 15360, Note_on_c, 0, 67, 80
2, 19007, Note_on_c, 0, 55, 0
2, 19007, Note_on_c, 0, 58, 0
2, 19007, Note_on_c, 0, 60, 0
2, 19007, Note_on_c, 0, 63, 0
2, 19007, Note_on_c, 0, 67, 0
2, 19200, Note_on_c, 0, 55, 80
2, 19200, Note_on_c, 0, 58, 80
2, 19200, Note_on_c, 0, 63, 80
2, 19200, Note_on_c, 0, 67, 80
2, 21935, Note_on_c, 0, 55, 0
2, 21935, Note_on_c, 0, 58, 0
2, 21935, Note_on_c, 0, 63, 0
2, 21935, Note_on_c, 0, 67, 0
2, 22080, Note_on_c, 0, 58, 80
2, 22080, Note_on_c, 0, 61, 80
2, 22080, Note_on_c, 0, 63, 80
2, 22080, Note_on_c, 0, 67, 80
2, 22991, Note_on_c, 0, 58, 0
2, 22991, Note_on_c, 0, 61, 0
2, 22991, Note_on_c, 0, 63, 0
2, 22991, Note_on_c, 0, 67, 0
2, 23040, Note_on_c, 0, 56, 80
2, 23040, Note_on_c, 0, 60, 80
2, 23040, Note_on_c, 0, 63, 80
2, 23040, Note_on_c, 0, 68, 80
2, 25775, Note_on_c, 0, 56, 0
2, 25775, Note_on_c, 0, 60, 0
2, 25775, Note_on_c, 0, 63, 0
2, 25775, Note_on_c, 0, 68, 0
2, 25920, Note_on_c, 0, 56, 80
2, 25920, Note_on_c, 0, 60, 80
2, 25920, Note_on_c, 0, 63, 80
2, 25920, Note_on_c, 0, 68, 80
2, 26831, Note_on_c, 0, 56, 0
2, 26831, Note_on_c, 0, 60, 0
2, 26831, Note_on_c, 0, 63, 0
2, 26831, Note_on_c, 0, 68, 0
2, 26880, Note_on_c, 0, 55, 80
2, 26880, Note_on_c, 0, 59, 80
2, 26880, Note_on_c, 0, 62, 80
2, 26880, Note_on_c, 0, 67, 80
2, 30527, Note_on_c, 0, 55, 0
2, 30527, Note_on_c, 0, 59, 0
2, 30527, Note_on_c, 0, 62, 0
2, 30527, Note_on_c, 0, 67, 0
2, 30720, Note_on_c, 0, 58, 80
2, 30720, Note_on_c, 0, 60, 80
2, 30720, Note_on_c, 0, 63, 80
2, 30720, Note_on_c, 0, 67, 80
2, 34367, Note_on_c, 0, 58, 0
2, 34367, Note_on_c, 0, 60, 0
2, 34367, Note_on_c, 0, 63, 0
2, 34367, Note_on_c, 0, 67, 0
2, 34560, Note_on_c, 0, 55, 80
2, 34560, Note_on_c, 0, 58, 80
2, 34560, Note_on_c, 0, 63, 80
2, 34560, Note_on_c, 0, 67, 80
2, 37295, Note_on_c, 0, 55, 0
2, 37295, Note_on_c, 0, 58, 0
2, 37295, Note_on_c, 0, 63, 0
2, 37295, Note_on_c, 0, 67, 0
2, 37440, Note_on_c, 0, 58, 80
2, 37440, Note_on_c, 0, 61, 80
2, 37440, Note_on_c, 0, 63, 80
2, 37440, Note_on_c, 0, 67, 80
2, 38351, Note_on_c, 0, 58, 0
2, 38351, Note_on_c, 0, 61, 0
2, 38351, Note_on_c, 0, 63, 0
2, 38351, Note_on_c, 0, 67, 0
2, 38400, Note_on_c, 0, 56, 80
2, 38400, Note_on_c, 0, 60, 80
2, 38400, Note_on_c, 0, 63, 80
2, 38400, Note_on_c, 0, 68, 80
2, 41135, Note_on_c, 0, 56, 0
2, 41135, Note_on_c, 0, 60, 0
2, 41135, Note_on_c, 0, 63, 0
2, 41135, Note_on_c, 0, 68, 0
2, 41280, Note_on_c, 0, 56, 80
2, 41280, Note_on_c, 0, 60, 80
2, 41280, Note_on_c, 0, 63, 80
2, 41280, Note_on_c, 0, 68, 80
2, 42191, Note_on_c, 0, 56, 0
2, 42191, Note_on_c, 0, 60, 0
2, 42191, Note_on_c, 0, 63, 0
2, 42191, Note_on_c, 0, 68, 0
2, 42240, Note_on_c, 0, 55, 80
2, 42240, Note_on_c, 0, 59, 80
2, 42240, Note_on_c, 0, 62, 80
2, 42240, Note_on_c, 0, 67, 80
2, 45887, Note_on_c, 0, 55, 0
2, 45887, Note_on_c, 0, 59, 0
2, 45887, Note_on_c, 0, 62, 0
2, 45887, Note_on_c, 0, 67, 0
2, 46080, Note_on_c, 0, 48, 80
2, 46080, Note_on_c, 0, 51, 80
2, 46080, Note_on_c, 0, 55, 80
2, 46080, Note_on_c, 0, 58, 80
2, 49727, Note_on_c, 0, 48, 0
2, 49727, Note_on_c, 0, 51, 0
2, 49727, Note_on_c, 0, 55, 0
2, 49727, Note_on_c, 0, 58, 0
2, 49920, Note_on_c, 0, 48, 80
2, 49920, Note_on_c, 0, 51, 80
2, 49920, Note_on_c, 0, 55, 80
2, 49920, Note_on_c, 0, 60, 80
2, 52655, Note_on_c, 0, 48, 0
2, 52655, Note_on_c, 0, 51, 0
2, 52655, Note_on_c, 0, 55, 0
2, 52655, Note_on_c, 0, 60, 0
2, 52800, Note_on_c, 0, 55, 80
2, 52800, Note_on_c, 0, 58, 80
2, 52800, Note_on_c, 0, 61, 80
2, 52800, Note_on_c, 0, 63, 80
2, 53711, Note_on_c, 0, 55, 0
2, 53711, Note_on_c, 0, 58, 0
2, 53711, Note_on_c, 0, 61, 0
2, 53711, Note_on_c, 0, 63, 0
2, 53760, Note_on_c, 0, 51, 80
2, 53760, Note_on_c, 0, 56, 80
2, 53760, Note_on_c, 0, 60, 80
2, 53760, Note_on_c, 0, 63, 80
2, 56495, Note_on_c, 0, 51, 0
2, 56495, Note_on_c, 0, 56, 0
2, 56495, Note_on_c, 0, 60, 0
2, 56495, Note_on_c, 0, 63, 0
2, 56640, Note_on_c, 0, 56, 80
2, 56640, Note_on_c, 0, 60, 80
2, 56640, Note_on_c, 0, 63, 80
2, 56640, Note_on_c, 0, 68, 80
2, 57551, Note_on_c, 0, 56, 0
2, 57551, Note_on_c, 0, 60, 0
2, 57551, Note_on_c, 0, 63, 0
2, 57551, Note_on_c, 0, 68, 0
2, 57600, Note_on_c, 0, 55, 80
2, 57600, Note_on_c, 0, 59, 80
2, 57600, Note_on_c, 0, 62, 80
2, 57600, Note_on_c, 0, 67, 80
2, 60335, Note_on_c, 0, 55, 0
2, 60335, Note_on_c, 0, 59, 0
2, 60335, Note_on_c, 0, 62, 0
2, 60335, Note_on_c, 0, 67, 0
2, 60480, Note_on_c, 0, 31, 80
2, 60480, Note_on_c, 0, 43, 80
2, 61391, Note_on_c, 0, 31, 0
2, 61391, Note_on_c, 0, 43, 0
2, 61440, Note_on_c, 0, 36, 80
2, 61440, Note_on_c, 0, 48, 80
2, 62351, Note_on_c, 0, 36, 0
2, 62351, Note_on_c, 0, 48, 0
2, 62400, Note_on_c, 0, 55, 80
2, 62400, Note_on_c, 0, 58, 80
2, 62400, Note_on_c, 0, 63, 80
2, 62400, Note_on_c, 0, 67, 80
2, 64223, Note_on_c, 0, 55, 0
2, 64223, Note_on_c, 0, 58, 0
2, 64223, Note_on_c, 0, 63, 0
2, 64223, Note_on_c, 0, 67, 0
2, 65280, Note_on_c, 0, 39, 80
2, 65280, Note_on_c, 0, 51, 80
2, 66191, Note_on_c, 0, 39, 0
2, 66191, Note_on_c, 0, 51, 0
2, 66240, Note_on_c, 0, 51, 80
2, 66240, Note_on_c, 0, 55, 80
2, 66240, Note_on_c, 0, 58, 80
2, 66240, Note_on_c, 0, 63, 80
2, 68063, Note_on_c, 0, 51, 0
2, 68063, Note_on_c, 0, 55, 0
2, 68063, Note_on_c, 0, 58, 0
2, 68063, Note_on_c, 0, 63, 0
2, 69120, Note_on_c, 0, 32, 80
2, 69120, Note_on_c, 0, 44, 80
2, 70031, Note_on_c, 0, 32, 0
2, 70031, Note_on_c, 0, 44, 0
2, 70080, Note_on_c, 0, 56, 80
2, 70080, Note_on_c, 0, 60, 80
2, 70080, Note_on_c, 0, 63, 80
2, 71903, Note_on_c, 0, 56, 0
2, 71903, Note_on_c, 0, 60, 0
2, 71903, Note_on_c, 0, 63, 0
2, 72960, Note_on_c, 0, 31, 80
2, 72960, Note_on_c, 0, 43, 80
2, 73871, Note_on_c, 0, 31, 0
2, 73871, Note_on_c, 0, 43, 0
2, 73920, Note_on_c, 0, 43, 80
2, 73920, Note_on_c, 0, 50, 80
2, 73920, Note_on_c, 0, 53, 80
2, 74831, Note_on_c, 0, 43, 0
2, 74831, Note_on_c, 0, 50, 0
2, 74831, Note_on_c, 0, 53, 0
2, 74880, Note_on_c, 0, 43, 80
2, 74880, Note_on_c, 0, 47, 80
2, 74880, Note_on_c, 0, 50, 80
2, 74880, Note_on_c, 0, 53, 80
2, 75791, Note_on_c, 0, 43, 0
2, 75791, Note_on_c, 0, 47, 0
2, 75791, Note_on_c, 0, 50, 0
2, 75791, Note_on_c, 0, 53, 0
2, 76800, Note_on_c, 0, 36, 80
2, 76800, Note_on_c, 0, 48, 80
2, 77711, Note_on_c, 0, 36, 0
2, 77711, Note_on_c, 0, 48, 0
2, 77760, Note_on_c, 0, 55, 80
2, 77760, Note_on_c, 0, 60, 80
2, 77760, Note_on_c, 0, 63, 80
2, 77760, Note_on_c, 0, 67, 80
2, 79583, Note_on_c, 0, 55, 0
2, 79583, Note_on_c, 0, 60, 0
2, 79583, Note_on_c, 0, 63, 0
2, 79583, Note_on_c, 0, 67, 0
2, 80640, Note_on_c, 0, 39, 80
2, 80640, Note_on_c, 0, 51, 80
2, 81551, Note_on_c, 0, 39, 0
2, 81551, Note_on_c, 0, 51, 0
2, 81600, Note_on_c, 0, 51, 80
2, 81600, Note_on_c, 0, 55, 80
2, 81600, Note_on_c, 0, 58, 80
2, 81600, Note_on_c, 0, 63, 80
2, 83423, Note_on_c, 0, 51, 0
2, 83423, Note_on_c, 0, 55, 0
2, 83423, Note_on_c, 0, 58, 0
2, 83423, Note_on_c, 0, 63, 0
2, 84480, Note_on_c, 0, 32, 80
2, 84480, Note_on_c, 0, 44, 80
2, 85391, Note_on_c, 0, 32, 0
2, 85391, Note_on_c, 0, 44, 0
2, 85440, Note_on_c, 0, 56, 80
2, 85440, Note_on_c, 0, 60, 80
2, 85440, Note_on_c, 0, 63, 80
2, 87263, Note_on_c, 0, 56, 0
2, 87263, Note_on_c, 0, 60, 0
2, 87263, Note_on_c, 0, 63, 0
2, 88320, Note_on_c, 0, 31, 80
2, 88320, Note_on_c, 0, 43, 80
2, 89231, Note_on_c, 0, 31, 0
2, 89231, Note_on_c, 0, 43, 0
2, 89280, Note_on_c, 0, 43, 80
2, 89280, Note_on_c, 0, 50, 80
2, 89280, Note_on_c, 0, 53, 80
2, 90191, Note_on_c, 0, 43, 0
2, 90191, Note_on_c, 0, 50, 0
2, 90191, Note_on_c, 0, 53, 0
2, 90240, Note_on_c, 0, 43, 80
2, 90240, Note_on_c, 0, 47, 80
2, 90240, Note_on_c, 0, 50, 80
2, 90240, Note_on_c, 0, 53, 80
2, 90923, Note_on_c, 0, 43, 0
2, 90923, Note_on_c, 0, 47, 0
2, 90923, Note_on_c, 0, 50, 0
2, 90923, Note_on_c, 0, 53, 0
2, 90960, Note_on_c, 0, 50, 80
2, 91187, Note_on_c, 0, 50, 0
2, 91200, Note_on_c, 0, 55, 80
2, 91655, Note_on_c, 0, 55, 0
2, 91680, Note_on_c, 0, 43, 80
2, 92135, Note_on_c, 0, 43, 0
2, 92160, Note_on_c, 0, 36, 80
2, 92160, Note_on_c, 0, 48, 80
2, 92615, Note_on_c, 0, 36, 0
2, 92615, Note_on_c, 0, 48, 0
2, 92640, Note_on_c, 0, 55, 80
2, 92640, Note_on_c, 0, 60, 80
2, 92640, Note_on_c, 0, 63, 80
2, 92640, Note_on_c, 0, 67, 80
2, 93095, Note_on_c, 0, 55, 0
2, 93095, Note_on_c, 0, 60, 0
2, 93095, Note_on_c, 0, 63, 0
2, 93095, Note_on_c, 0, 67, 0
2, 94080, Note_on_c, 0, 36, 80
2, 94080, Note_on_c, 0, 48, 80
2, 94535, Note_on_c, 0, 36, 0
2, 94535, Note_on_c, 0, 48, 0
2, 94560, Note_on_c, 0, 55, 80
2, 94560, Note_on_c, 0, 60, 80
2, 94560, Note_on_c, 0, 63, 80
2, 94560, Note_on_c, 0, 67, 80
2, 95015, Note_on_c, 0, 55, 0
2, 95015, Note_on_c, 0, 60, 0
2, 95015, Note_on_c, 0, 63, 0
2, 95015, Note_on_c, 0, 67, 0
2, 95040, Note_on_c, 0, 60, 80
2, 95040, Note_on_c, 0, 63, 80
2, 95267, Note_on_c, 0, 60, 0
2, 95267, Note_on_c, 0, 63, 0
2, 95280, Note_on_c, 0, 67, 80
2, 95507, Note_on_c, 0, 67, 0
2, 95520, Note_on_c, 0, 36, 80
2, 95520, Note_on_c, 0, 48, 80
2, 95975, Note_on_c, 0, 36, 0
2, 95975, Note_on_c, 0, 48, 0
2, 96000, Note_on_c, 0, 39, 80
2, 96000, Note_on_c, 0, 51, 80
2, 96911, Note_on_c, 0, 39, 0
2, 96911, Note_on_c, 0, 51, 0
2, 96960, Note_on_c, 0, 51, 80
2, 96960, Note_on_c, 0, 55, 80
2, 96960, Note_on_c, 0, 58, 80
2, 96960, Note_on_c, 0, 63, 80
2, 98783, Note_on_c, 0, 51, 0
2, 98783, Note_on_c, 0, 55, 0
2, 98783, Note_on_c, 0, 58, 0
2, 98783, Note_on_c, 0, 63, 0
2, 98880, Note_on_c, 0, 58, 80
2, 98880, Note_on_c, 0, 63, 80
2, 99107, Note_on_c, 0, 58, 0
2, 99107, Note_on_c, 0, 63, 0
2, 99120, Note_on_c, 0, 67, 80
2, 99347, Note_on_c, 0, 67, 0
2, 99360, Note_on_c, 0, 39, 80
2, 99360, Note_on_c, 0, 51, 80
2, 99815, Note_on_c, 0, 39, 0
2, 99815, Note_on_c, 0, 51, 0
2, 99840, Note_on_c, 0, 44, 80
2, 99840, Note_on_c, 0, 56, 80
2, 100523, Note_on_c, 0, 44, 0
2, 100523, Note_on_c, 0, 56, 0
2, 100560, Note_on_c, 0, 56, 80
2, 100560, Note_on_c, 0, 60, 80
2, 100560, Note_on_c, 0, 63, 80
2, 100787, Note_on_c, 0, 56, 0
2, 100787, Note_on_c, 0, 60, 0
2, 100787, Note_on_c, 0, 63, 0
2, 100800, Note_on_c, 0, 67, 80
2, 101483, Note_on_c, 0, 67, 0
2, 101520, Note_on_c, 0, 56, 80
2, 101520, Note_on_c, 0, 60, 80
2, 101520, Note_on_c, 0, 63, 80
2, 101747, Note_on_c, 0, 56, 0
2, 101747, Note_on_c, 0, 60, 0
2, 101747, Note_on_c, 0, 63, 0
2, 101760, Note_on_c, 0, 68, 80
2, 102443, Note_on_c, 0, 68, 0
2, 102480, Note_on_c, 0, 63, 80
2, 102707, Note_on_c, 0, 63, 0
2, 102720, Note_on_c, 0, 67, 80
2, 103175, Note_on_c, 0, 67, 0
2, 103200, Note_on_c, 0, 44, 80
2, 103200, Note_on_c, 0, 56, 80
2, 103655, Note_on_c, 0, 44, 0
2, 103655, Note_on_c, 0, 56, 0
2, 103680, Note_on_c, 0, 43, 80
2, 103680, Note_on_c, 0, 55, 80
2, 104363, Note_on_c, 0, 43, 0
2, 104363, Note_on_c, 0, 55, 0
2, 104400, Note_on_c, 0, 55, 80
2, 104400, Note_on_c, 0, 59, 80
2, 104400, Note_on_c, 0, 62, 80
2, 104627, Note_on_c, 0, 55, 0
2, 104627, Note_on_c, 0, 59, 0
2, 104627, Note_on_c, 0, 62, 0
2, 104640, Note_on_c, 0, 65, 80
2, 105323, Note_on_c, 0, 65, 0
2, 105360, Note_on_c, 0, 55, 80
2, 105360, Note_on_c, 0, 59, 80
2, 105360, Note_on_c, 0, 62, 80
2, 105587, Note_on_c, 0, 55, 0
2, 105587, Note_on_c, 0, 59, 0
2, 105587, Note_on_c, 0, 62, 0
2, 105600, Note_on_c, 0, 65, 80
2, 106055, Note_on_c, 0, 65, 0
2, 106080, Note_on_c, 0, 55, 80
2, 106080, Note_on_c, 0, 59, 80
2, 106080, Note_on_c, 0, 62, 80
2, 106535, Note_on_c, 0, 55, 0
2, 106535, Note_on_c, 0, 59, 0
2, 106535, Note_on_c, 0, 62, 0
2, 106560, Note_on_c, 0, 50, 80
2, 106560, Note_on_c, 0, 53, 80
2, 106560, Note_on_c, 0, 55, 80
2, 106560, Note_on_c, 0, 59, 80
2, 107015, Note_on_c, 0, 50, 0
2, 107015, Note_on_c, 0, 53, 0
2, 107015, Note_on_c, 0, 55, 0
2, 107015, Note_on_c, 0, 59, 0
2, 107040, Note_on_c, 0, 43, 80
2, 107040, Note_on_c, 0, 55, 80
2, 107495, Note_on_c, 0, 43, 0
2, 107495, Note_on_c, 0, 55, 0
2, 107520, Note_on_c, 0, 36, 80
2, 107520, Note_on_c, 0, 48, 80
2, 108203, Note_on_c, 0, 36, 0
2, 108203, Note_on_c, 0, 48, 0
2, 108240, Note_on_c, 0, 48, 80
2, 108240, Note_on_c, 0, 51, 80
2, 108240, Note_on_c, 0, 55, 80
2, 108467, Note_on_c, 0, 48, 0
2, 108467, Note_on_c, 0, 51, 0
2, 108467, Note_on_c, 0, 55, 0
2, 108480, Note_on_c, 0, 60, 80
2, 108935, Note_on_c, 0, 60, 0
2, 108960, Note_on_c, 0, 48, 80
2, 108960, Note_on_c, 0, 51, 80
2, 108960, Note_on_c, 0, 55, 80
2, 109415, Note_on_c, 0, 48, 0
2, 109415, Note_on_c, 0, 51, 0
2, 109415, Note_on_c, 0, 55, 0
2, 109440, Note_on_c, 0, 36, 80
2, 109440, Note_on_c, 0, 48, 80
2, 110123, Note_on_c, 0, 36, 0
2, 110123, Note_on_c, 0, 48, 0
2, 110160, Note_on_c, 0, 48, 80
2, 110160, Note_on_c, 0, 51, 80
2, 110160, Note_on_c, 0, 55, 80
2, 110387, Note_on_c, 0, 48, 0
2, 110387, Note_on_c, 0, 51, 0
2, 110387, Note_on_c, 0, 55, 0
2, 110400, Note_on_c, 0, 60, 80
2, 110855, Note_on_c, 0, 60, 0
2, 110880, Note_on_c, 0, 48, 80
2, 110880, Note_on_c, 0, 51, 80
2, 110880, Note_on_c, 0, 55, 80
2, 111335, Note_on_c, 0, 48, 0
2, 111335, Note_on_c, 0, 51, 0
2, 111335, Note_on_c, 0, 55, 0
2, 111360, Note_on_c, 0, 39, 80
2, 111360, Note_on_c, 0, 51, 80
2, 112043, Note_on_c, 0, 39, 0
2, 112043, Note_on_c, 0, 51, 0
2, 112080, Note_on_c, 0, 51, 80
2, 112080, Note_on_c, 0, 55, 80
2, 112080, Note_on_c, 0, 58, 80
2, 112307, Note_on_c, 0, 51, 0
2, 112307, Note_on_c, 0, 55, 0
2, 112307, Note_on_c, 0, 58, 0
2, 112320, Note_on_c, 0, 63, 80
2, 112775, Note_on_c, 0, 63, 0
2, 112800, Note_on_c, 0, 51, 80
2, 112800, Note_on_c, 0, 55, 80
2, 112800, Note_on_c, 0, 58, 80
2, 113255, Note_on_c, 0, 51, 0
2, 113255, Note_on_c, 0, 55, 0
2, 113255, Note_on_c, 0, 58, 0
2, 113280, Note_on_c, 0, 39, 80
2, 113280, Note_on_c, 0, 51, 80
2, 113963, Note_on_c, 0, 39, 0
2, 113963, Note_on_c, 0, 51, 0
2, 114000, Note_on_c, 0, 51, 80
2, 114000, Note_on_c, 0, 55, 80
2, 114000, Note_on_c, 0, 58, 80
2, 114227, Note_on_c, 0, 51, 0
2, 114227, Note_on_c, 0, 55, 0
2, 114227, Note_on_c, 0, 58, 0
2, 114240, Note_on_c, 0, 63, 80
2, 114695, Note_on_c, 0, 63, 0
2, 114720, Note_on_c, 0, 51, 80
2, 114720, Note_on_c, 0, 55, 80
2, 114720, Note_on_c, 0, 58, 80
2, 115175, Note_on_c, 0, 51, 0
2, 115175, Note_on_c, 0, 55, 0
2, 115175, Note_on_c, 0, 58, 0
2, 115200, Note_on_c, 0, 44, 80
2, 115200, Note_on_c, 0, 56, 80
2, 115883, Note_on_c, 0, 44, 0
2, 115883, Note_on_c, 0, 56, 0
2, 115920, Note_on_c, 0, 56, 80
2, 115920, Note_on_c, 0, 60, 80
2, 115920, Note_on_c, 0, 63, 80
2, 116147, Note_on_c, 0, 56, 0
2, 116147, Note_on_c, 0, 60, 0
2, 116147, Note_on_c, 0, 63, 0
2, 116160, Note_on_c, 0, 68, 80
2, 116843, Note_on_c, 0, 68, 0
2, 116880, Note_on_c, 0, 56, 80
2, 116880, Note_on_c, 0, 60, 80
2, 116880, Note_on_c, 0, 63, 80
2, 117107, Note_on_c, 0, 56, 0
2, 117107, Note_on_c, 0, 60, 0
2, 117107, Note_on_c, 0, 63, 0
2, 117120, Note_on_c, 0, 68, 80
2, 117803, Note_on_c, 0, 68, 0
2, 117840, Note_on_c, 0, 56, 80
2, 117840, Note_on_c, 0, 60, 80
2, 117840, Note_on_c, 0, 63, 80
2, 118067, Note_on_c, 0, 56, 0
2, 118067, Note_on_c, 0, 60, 0
2, 118067, Note_on_c, 0, 63, 0
2, 118080, Note_on_c, 0, 68, 80
2, 118535, Note_on_c, 0, 68, 0
2, 118560, Note_on_c, 0, 44, 80
2, 118560, Note_on_c, 0, 56, 80
2, 119015, Note_on_c, 0, 44, 0
2, 119015, Note_on_c, 0, 56, 0
2, 119040, Note_on_c, 0, 43, 80
2, 119040, Note_on_c, 0, 55, 80
2, 119723, Note_on_c, 0, 43, 0
2, 119723, Note_on_c, 0, 55, 0
2, 119760, Note_on_c, 0, 55, 80
2, 119760, Note_on_c, 0, 59, 80
2, 119760, Note_on_c, 0, 62, 80
2, 119987, Note_on_c, 0, 55, 0
2, 119987, Note_on_c, 0, 59, 0
2, 119987, Note_on_c, 0, 62, 0
2, 120000, Note_on_c, 0, 65, 80
2, 120683, Note_on_c, 0, 65, 0
2, 120720, Note_on_c, 0, 55, 80
2, 120720, Note_on_c, 0, 59, 80
2, 120720, Note_on_c, 0, 62, 80
2, 120947, Note_on_c, 0, 55, 0
2, 120947, Note_on_c, 0, 59, 0
2, 120947, Note_on_c, 0, 62, 0
2, 120960, Note_on_c, 0, 65, 80
2, 121415, Note_on_c, 0, 65, 0
2, 121440, Note_on_c, 0, 55, 80
2, 121440, Note_on_c, 0, 59, 80
2, 121440, Note_on_c, 0, 62, 80
2, 121895, Note_on_c, 0, 55, 0
2, 121895, Note_on_c, 0, 59, 0
2, 121895, Note_on_c, 0, 62, 0
2, 121920, Note_on_c, 0, 50, 80
2, 121920, Note_on_c, 0, 53, 80
2, 121920, Note_on_c, 0, 55, 80
2, 121920, Note_on_c, 0, 59, 80
2, 122375, Note_on_c, 0, 50, 0
2, 122375, Note_on_c, 0, 53, 0
2, 122375, Note_on_c, 0, 55, 0
2, 122375, Note_on_c, 0, 59, 0
2, 122400, Note_on_c, 0, 43, 80
2, 122400, Note_on_c, 0, 55, 80
2, 122855, Note_on_c, 0, 43, 0
2, 122855, Note_on_c, 0, 55, 0
2, 122880, Note_on_c, 0, 36, 80
2, 122880, Note_on_c, 0, 48, 80
2, 123791, Note_on_c, 0, 36, 0
2, 123791, Note_on_c, 0, 48, 0
2, 123840, Note_on_c, 0, 55, 80
2, 123840, Note_on_c, 0, 60, 80
2, 123840, Note_on_c, 0, 63, 80
2, 123840, Note_on_c, 0, 67, 80
2, 124751, Note_on_c, 0, 55, 0
2, 124751, Note_on_c, 0, 60, 0
2, 124751, Note_on_c, 0, 63, 0
2, 124751, Note_on_c, 0, 67, 0
2, 124800, Note_on_c, 0, 36, 80
2, 124800, Note_on_c, 0, 48, 80
2, 125711, Note_on_c, 0, 36, 0
2, 125711, Note_on_c, 0, 48, 0
2, 125760, Note_on_c, 0, 55, 80
2, 125760, Note_on_c, 0, 60, 80
2, 125760, Note_on_c, 0, 63, 80
2, 125760, Note_on_c, 0, 67, 80
2, 126671, Note_on_c, 0, 55, 0
2, 126671, Note_on_c, 0, 60, 0
2, 126671, Note_on_c, 0, 63, 0
2, 126671, Note_on_c, 0, 67, 0
2, 126720, Note_on_c, 0, 39, 80
2, 126720, Note_on_c, 0, 51, 80
2, 127631, Note_on_c, 0, 39, 0
2, 127631, Note_on_c, 0, 51, 0
2, 127680, Note_on_c, 0, 51, 80
2, 127680, Note_on_c, 0, 55, 80
2, 127680, Note_on_c, 0, 58, 80
2, 127680, Note_on_c, 0, 63, 80
2, 130415, Note_on_c, 0, 51, 0
2, 130415, Note_on_c, 0, 55, 0
2, 130415, Note_on_c, 0, 58, 0
2, 130415, Note_on_c, 0, 63, 0
2, 130560, Note_on_c, 0, 32, 80
2, 130560, Note_on_c, 0, 44, 80
2, 131471, Note_on_c, 0, 32, 0
2, 131471, Note_on_c, 0, 44, 0
2, 131520, Note_on_c, 0, 56, 80
2, 131520, Note_on_c, 0, 60, 80
2, 131520, Note_on_c, 0, 63, 80
2, 133343, Note_on_c, 0, 56, 0
2, 133343, Note_on_c, 0, 60, 0
2, 133343, Note_on_c, 0, 63, 0
2, 134400, Note_on_c, 0, 31, 80
2, 134400, Note_on_c, 0, 43, 80
2, 135311, Note_on_c, 0, 31, 0
2, 135311, Note_on_c, 0, 43, 0
2, 135360, Note_on_c, 0, 43, 80
2, 135360, Note_on_c, 0, 50, 80
2, 135360, Note_on_c, 0, 53, 80
2, 136271, Note_on_c, 0, 43, 0
2, 136271, Note_on_c, 0, 50, 0
2, 136271, Note_on_c, 0, 53, 0
2, 136320, Note_on_c, 0, 43, 80
2, 136320, Note_on_c, 0, 47, 80
2, 136320, Note_on_c, 0, 50, 80
2, 136320, Note_on_c, 0, 53, 80
2, 137231, Note_on_c, 0, 43, 0
2, 137231, Note_on_c, 0, 47, 0
2, 137231, Note_on_c, 0, 50, 0
2, 137231, Note_on_c, 0, 53, 0
2, 138240, Note_on_c, 0, 36, 80
2, 138240, Note_on_c, 0, 48, 80
2, 139151, Note_on_c, 0, 36, 0
2, 139151, Note_on_c, 0, 48, 0
2, 139200, Note_on_c, 0, 55, 80
2, 139200, Note_on_c, 0, 60, 80
2, 139200, Note_on_c, 0, 63, 80
2, 139200, Note_on_c, 0, 67, 80
2, 141023, Note_on_c, 0, 55, 0
2, 141023, Note_on_c, 0, 60, 0
2, 141023, Note_on_c, 0, 63, 0
2, 141023, Note_on_c, 0, 67, 0
2, 142080, Note_on_c, 0, 39, 80
2, 142080, Note_on_c, 0, 51, 80
2, 142991, Note_on_c, 0, 39, 0
2, 142991, Note_on_c, 0, 51, 0
2, 143040, Note_on_c, 0, 51, 80
2, 143040, Note_on_c, 0, 55, 80
2, 143040, Note_on_c, 0, 58, 80
2, 143040, Note_on_c, 0, 63, 80
2, 144863, Note_on_c, 0, 51, 0
2, 144863, Note_on_c, 0, 55, 0
2, 144863, Note_on_c, 0, 58, 0
2, 144863, Note_on_c, 0, 63, 0
2, 145920, Note_on_c, 0, 32, 80
2, 145920, Note_on_c, 0, 44, 80
2, 146831, Note_on_c, 0, 32, 0
2, 146831, Note_on_c, 0, 44, 0
2, 146880, Note_on_c, 0, 56, 80
2, 146880, Note_on_c, 0, 60, 80
2, 146880, Note_on_c, 0, 63, 80
2, 148703, Note_on_c, 0, 56, 0
2, 148703, Note_on_c, 0, 60, 0
2, 148703, Note_on_c, 0, 63, 0
2, 149760, Note_on_c, 0, 31, 80
2, 149760, Note_on_c, 0, 43, 80
2, 150671, Note_on_c, 0, 31, 0
2, 150671, Note_on_c, 0, 43, 0
2, 150720, Note_on_c, 0, 43, 80
2, 150720, Note_on_c, 0, 50, 80
2, 150720, Note_on_c, 0, 53, 80
2, 151631, Note_on_c, 0, 43, 0
2, 151631, Note_on_c, 0, 50, 0
2, 151631, Note_on_c, 0, 53, 0
2, 151680, Note_on_c, 0, 43, 80
2, 151680, Note_on_c, 0, 55, 80
2, 153503, Note_on_c, 0, 43, 0
2, 153503, Note_on_c, 0, 55, 0
2, 153600, Note_on_c, 0, 36, 80
2, 153600, Note_on_c, 0, 48, 80
2, 157247, Note_on_c, 0, 36, 0
2, 157247, Note_on_c, 0, 48, 0
2, 157440, Note_on_c, 0, 39, 80
2, 157440, Note_on_c, 0, 51, 80
2, 161087, Note_on_c, 0, 39, 0
2, 161087, Note_on_c, 0, 51, 0
2, 161280, Note_on_c, 0, 32, 80
2, 161280, Note_on_c, 0, 44, 80
2, 164015, Note_on_c, 0, 32, 0
2, 164015, Note_on_c, 0, 44, 0
2, 164160, Note_on_c, 0, 32, 80
2, 164160, Note_on_c, 0, 44, 80
2, 165071, Note_on_c, 0, 32, 0
2, 165071, Note_on_c, 0, 44, 0
2, 165120, Note_on_c, 0, 31, 80
2, 165120, Note_on_c, 0, 43, 80
2, 168767, Note_on_c, 0, 31, 0
2, 168767, Note_on_c, 0, 43, 0
1, 0, Note_on_c, 0, 88, 80
1, 911, Note_on_c, 0, 88, 0
1, 960, Note_on_c, 0, 88, 80
1, 1871, Note_on_c, 0, 88, 0
1, 1920, Note_on_c, 0, 88, 80
1, 2831, Note_on_c, 0, 88, 0
1, 2880, Note_on_c, 0, 76, 80
1, 3791, Note_on_c, 0, 76, 0
1, 3840, Note_on_c, 0, 87, 80
1, 4751, Note_on_c, 0, 87, 0
1, 4800, Note_on_c, 0, 87, 80
1, 5711, Note_on_c, 0, 87, 0
1, 5760, Note_on_c, 0, 87, 80
1, 6671, Note_on_c, 0, 87, 0
1, 6720, Note_on_c, 0, 75, 80
1, 7631, Note_on_c, 0, 75, 0
1, 7680, Note_on_c, 0, 85, 80
1, 8591, Note_on_c, 0, 85, 0
1, 8640, Note_on_c, 0, 85, 80
1, 9551, Note_on_c, 0, 85, 0
1, 9600, Note_on_c, 0, 85, 80
1, 10511, Note_on_c, 0, 85, 0
1, 10560, Note_on_c, 0, 73, 80
1, 11471, Note_on_c, 0, 73, 0
1, 11520, Note_on_c, 0, 81, 80
1, 12431, Note_on_c, 0, 81, 0
1, 12480, Note_on_c, 0, 81, 80
1, 13391, Note_on_c, 0, 81, 0
1, 13440, Note_on_c, 0, 80, 80
1, 14351, Note_on_c, 0, 80, 0
1, 14400, Note_on_c, 0, 88, 80
1, 15311, Note_on_c, 0, 88, 0
1, 16320, Note_on_c, 0, 88, 80
1, 17231, Note_on_c, 0, 88, 0
1, 18240, Note_on_c, 0, 88, 80
1, 19151, Note_on_c, 0, 88, 0
1, 20160, Note_on_c, 0, 88, 80
1, 21071, Note_on_c, 0, 88, 0
1, 22080, Note_on_c, 0, 76, 80
1, 22991, Note_on_c, 0, 76, 0
1, 23040, Note_on_c, 0, 75, 80
1, 23951, Note_on_c, 0, 75, 0
1, 24000, Note_on_c, 0, 87, 80
1, 24911, Note_on_c, 0, 87, 0
1, 25920, Note_on_c, 0, 87, 80
1, 26831, Note_on_c, 0, 87, 0
1, 27840, Note_on_c, 0, 87, 80
1, 28751, Note_on_c, 0, 87, 0
1, 29760, Note_on_c, 0, 75, 80
1, 30671, Note_on_c, 0, 75, 0
1, 30720, Note_on_c, 0, 64, 80
1, 30720, Note_on_c, 0, 73, 80
1, 31631, Note_on_c, 0, 64, 0
1, 31631, Note_on_c, 0, 73, 0
1, 31680, Note_on_c, 0, 85, 80
1, 32135, Note_on_c, 0, 85, 0
1, 32160, Note_on_c, 0, 64, 80
1, 32615, Note_on_c, 0, 64, 0
1, 32640, Note_on_c, 0, 64, 80
1, 33551, Note_on_c, 0, 64, 0
1, 33600, Note_on_c, 0, 85, 80
1, 34055, Note_on_c, 0, 85, 0
1, 34080, Note_on_c, 0, 64, 80
1, 34535, Note_on_c, 0, 64, 0
1, 34560, Note_on_c, 0, 64, 80
1, 35471, Note_on_c, 0, 64, 0
1, 35520, Note_on_c, 0, 85, 80
1, 35975, Note_on_c, 0, 85, 0
1, 36000, Note_on_c, 0, 64, 80
1, 36455, Note_on_c, 0, 64, 0
1, 36480, Note_on_c, 0, 64, 80
1, 37391, Note_on_c, 0, 64, 0
1, 37440, Note_on_c, 0, 73, 80
1, 37895, Note_on_c, 0, 73, 0
1, 37920, Note_on_c, 0, 64, 80
1, 38375, Note_on_c, 0, 64, 0
1, 38400, Note_on_c, 0, 64, 80
1, 38400, Note_on_c, 0, 69, 80
1, 39311, Note_on_c, 0, 64, 0
1, 39311, Note_on_c, 0, 69, 0
1, 39360, Note_on_c, 0, 81, 80
1, 39815, Note_on_c, 0, 81, 0
1, 39840, Note_on_c, 0, 64, 80
1, 40295, Note_on_c, 0, 64, 0
1, 40320, Note_on_c, 0, 64, 80
1, 41231, Note_on_c, 0, 64, 0
1, 41280, Note_on_c, 0, 81, 80
1, 41735, Note_on_c, 0, 81, 0
1, 41760, Note_on_c, 0, 64, 80
1, 42215, Note_on_c, 0, 64, 0
1, 42240, Note_on_c, 0, 64, 80
1, 43151, Note_on_c, 0, 64, 0
1, 43200, Note_on_c, 0, 80, 80
1, 43655, Note_on_c, 0, 80, 0
1, 43680, Note_on_c, 0, 64, 80
1, 44135, Note_on_c, 0, 64, 0
1, 44160, Note_on_c, 0, 88, 80
1, 45071, Note_on_c, 0, 88, 0
1, 45600, Note_on_c, 0, 68, 80
1, 45827, Note_on_c, 0, 68, 0
1, 45840, Note_on_c, 0, 68, 80
1, 46067, Note_on_c, 0, 68, 0
1, 46080, Note_on_c, 0, 76, 80
1, 46307, Note_on_c, 0, 76, 0
1, 46320, Note_on_c, 0, 71, 80
1, 46775, Note_on_c, 0, 71, 0
1, 46800, Note_on_c, 0, 69, 80
1, 47255, Note_on_c, 0, 69, 0
1, 47280, Note_on_c, 0, 68, 80
1, 47735, Note_on_c, 0, 68, 0
1, 47760, Note_on_c, 0, 68, 80
1, 47987, Note_on_c, 0, 68, 0
1, 48000, Note_on_c, 0, 76, 80
1, 48227, Note_on_c, 0, 76, 0
1, 48240, Note_on_c, 0, 71, 80
1, 48695, Note_on_c, 0, 71, 0
1, 48720, Note_on_c, 0, 69, 80
1, 49175, Note_on_c, 0, 69, 0
1, 49200, Note_on_c, 0, 68, 80
1, 49655, Note_on_c, 0, 68, 0
1, 49680, Note_on_c, 0, 68, 80
1, 49907, Note_on_c, 0, 68, 0
1, 49920, Note_on_c, 0, 71, 80
1, 49920, Note_on_c, 0, 75, 80
1, 50147, Note_on_c, 0, 71, 0
1, 50147, Note_on_c, 0, 75, 0
1, 50160, Note_on_c, 0, 68, 80
1, 50160, Note_on_c, 0, 73, 80
1, 50387, Note_on_c, 0, 68, 0
1, 50387, Note_on_c, 0, 73, 0
1, 50400, Note_on_c, 0, 71, 80
1, 50400, Note_on_c, 0, 75, 80
1, 51311, Note_on_c, 0, 71, 0
1, 51311, Note_on_c, 0, 75, 0
1, 53040, Note_on_c, 0, 80, 80
1, 53267, Note_on_c, 0, 80, 0
1, 53280, Note_on_c, 0, 80, 80
1, 53507, Note_on_c, 0, 80, 0
1, 53520, Note_on_c, 0, 80, 80
1, 53747, Note_on_c, 0, 80, 0
1, 53760, Note_on_c, 0, 78, 80
1, 53987, Note_on_c, 0, 78, 0
1, 54000, Note_on_c, 0, 78, 80
1, 54227, Note_on_c, 0, 78, 0
1, 54240, Note_on_c, 0, 78, 80
1, 54695, Note_on_c, 0, 78, 0
1, 54720, Note_on_c, 0, 76, 80
1, 54947, Note_on_c, 0, 76, 0
1, 54960, Note_on_c, 0, 78, 80
1, 55415, Note_on_c, 0, 78, 0
1, 55440, Note_on_c, 0, 76, 80
1, 55667, Note_on_c, 0, 76, 0
1, 55680, Note_on_c, 0, 78, 80
1, 56135, Note_on_c, 0, 78, 0
1, 56160, Note_on_c, 0, 80, 80
1, 56387, Note_on_c, 0, 80, 0
1, 56400, Note_on_c, 0, 78, 80
1, 56627, Note_on_c, 0, 78, 0
1, 56640, Note_on_c, 0, 76, 80
1, 57551, Note_on_c, 0, 76, 0
1, 60000, Note_on_c, 0, 76, 80
1, 60455, Note_on_c, 0, 76, 0
1, 60480, Note_on_c, 0, 76, 80
1, 60935, Note_on_c, 0, 76, 0
1, 60960, Note_on_c, 0, 71, 80
1, 61415, Note_on_c, 0, 71, 0
1, 61440, Note_on_c, 0, 71, 80
1, 62351, Note_on_c, 0, 71, 0
1, 62400, Note_on_c, 0, 68, 80
1, 62627, Note_on_c, 0, 68, 0
1, 62640, Note_on_c, 0, 71, 80
1, 63095, Note_on_c, 0, 71, 0
1, 63120, Note_on_c, 0, 68, 80
1, 63347, Note_on_c, 0, 68, 0
1, 63360, Note_on_c, 0, 69, 80
1, 63360, Note_on_c, 0, 73, 80
1, 63587, Note_on_c, 0, 69, 0
1, 63587, Note_on_c, 0, 73, 0
1, 63600, Note_on_c, 0, 73, 80
1, 63600, Note_on_c, 0, 76, 80
1, 64283, Note_on_c, 0, 73, 0
1, 64283, Note_on_c, 0, 76, 0
1, 66480, Note_on_c, 0, 76, 80
1, 66707, Note_on_c, 0, 76, 0
1, 66720, Note_on_c, 0, 76, 80
1, 66947, Note_on_c, 0, 76, 0
1, 66960, Note_on_c, 0, 76, 80
1, 67187, Note_on_c, 0, 76, 0
1, 67200, Note_on_c, 0, 71, 80
1, 67655, Note_on_c, 0, 71, 0
1, 67680, Note_on_c, 0, 71, 80
1, 68135, Note_on_c, 0, 71, 0
1, 68160, Note_on_c, 0, 68, 80
1, 68615, Note_on_c, 0, 68, 0
1, 68640, Note_on_c, 0, 71, 80
1, 69095, Note_on_c, 0, 71, 0
1, 69120, Note_on_c, 0, 68, 80
1, 69575, Note_on_c, 0, 68, 0
1, 69600, Note_on_c, 0, 71, 80
1, 70055, Note_on_c, 0, 71, 0
1, 70080, Note_on_c, 0, 73, 80
1, 70307, Note_on_c, 0, 73, 0
1, 70320, Note_on_c, 0, 71, 80
1, 71003, Note_on_c, 0, 71, 0
1, 72240, Note_on_c, 0, 71, 80
1, 72467, Note_on_c, 0, 71, 0
1, 72480, Note_on_c, 0, 71, 80
1, 72707, Note_on_c, 0, 71, 0
1, 72720, Note_on_c, 0, 71, 80
1, 72947, Note_on_c, 0, 71, 0
1, 72960, Note_on_c, 0, 71, 80
1, 73415, Note_on_c, 0, 71, 0
1, 73440, Note_on_c, 0, 71, 80
1, 73667, Note_on_c, 0, 71, 0
1, 73680, Note_on_c, 0, 71, 80
1, 73907, Note_on_c, 0, 71, 0
1, 73920, Note_on_c, 0, 76, 80
1, 74375, Note_on_c, 0, 76, 0
1, 74400, Note_on_c, 0, 71, 80
1, 74855, Note_on_c, 0, 71, 0
1, 74880, Note_on_c, 0, 68, 80
1, 75335, Note_on_c, 0, 68, 0
1, 75600, Note_on_c, 0, 71, 80
1, 75827, Note_on_c, 0, 71, 0
1, 75840, Note_on_c, 0, 71, 80
1, 76067, Note_on_c, 0, 71, 0
1, 76080, Note_on_c, 0, 71, 80
1, 76307, Note_on_c, 0, 71, 0
1, 76320, Note_on_c, 0, 71, 80
1, 76775, Note_on_c, 0, 71, 0
1, 76800, Note_on_c, 0, 71, 80
1, 77027, Note_on_c, 0, 71, 0
1, 77040, Note_on_c, 0, 71, 80
1, 77267, Note_on_c, 0, 71, 0
1, 77280, Note_on_c, 0, 76, 80
1, 77735, Note_on_c, 0, 76, 0
1, 77760, Note_on_c, 0, 75, 80
1, 77987, Note_on_c, 0, 75, 0
1, 78000, Note_on_c, 0, 73, 80
1, 78227, Note_on_c, 0, 73, 0
1, 78240, Note_on_c, 0, 75, 80
1, 78695, Note_on_c, 0, 75, 0
1, 79440, Note_on_c, 0, 71, 80
1, 79667, Note_on_c, 0, 71, 0
1, 79680, Note_on_c, 0, 76, 80
1, 79680, Note_on_c, 0, 80, 80
1, 79907, Note_on_c, 0, 76, 0
1, 79907, Note_on_c, 0, 80, 0
1, 79920, Note_on_c, 0, 75, 80
1, 79920, Note_on_c, 0, 78, 80
1, 80147, Note_on_c, 0, 75, 0
1, 80147, Note_on_c, 0, 78, 0
1, 80160, Note_on_c, 0, 76, 80
1, 80160, Note_on_c, 0, 80, 80
1, 80615, Note_on_c, 0, 76, 0
1, 80615, Note_on_c, 0, 80, 0
1, 80640, Note_on_c, 0, 76, 80
1, 80640, Note_on_c, 0, 80, 80
1, 80867, Note_on_c, 0, 76, 0
1, 80867, Note_on_c, 0, 80, 0
1, 80880, Note_on_c, 0, 75, 80
1, 80880, Note_on_c, 0, 78, 80
1, 81107, Note_on_c, 0, 75, 0
1, 81107, Note_on_c, 0, 78, 0
1, 81120, Note_on_c, 0, 76, 80
1, 81120, Note_on_c, 0, 80, 80
1, 81575, Note_on_c, 0, 76, 0
1, 81575, Note_on_c, 0, 80, 0
1, 81600, Note_on_c, 0, 75, 80
1, 81600, Note_on_c, 0, 78, 80
1, 82055, Note_on_c, 0, 75, 0
1, 82055, Note_on_c, 0, 78, 0
1, 82080, Note_on_c, 0, 73, 80
1, 82080, Note_on_c, 0, 76, 80
1, 82535, Note_on_c, 0, 73, 0
1, 82535, Note_on_c, 0, 76, 0
1, 83280, Note_on_c, 0, 71, 80
1, 83507, Note_on_c, 0, 71, 0
1, 83520, Note_on_c, 0, 68, 80
1, 83520, Note_on_c, 0, 76, 80
1, 83747, Note_on_c, 0, 68, 0
1, 83747, Note_on_c, 0, 76, 0
1, 83760, Note_on_c, 0, 75, 80
1, 83987, Note_on_c, 0, 75, 0
1, 84000, Note_on_c, 0, 68, 80
1, 84000, Note_on_c, 0, 76, 80
1, 84455, Note_on_c, 0, 68, 0
1, 84455, Note_on_c, 0, 76, 0
1, 84480, Note_on_c, 0, 68, 80
1, 84480, Note_on_c, 0, 76, 80
1, 84935, Note_on_c, 0, 68, 0
1, 84935, Note_on_c, 0, 76, 0
1, 84960, Note_on_c, 0, 68, 80
1, 84960, Note_on_c, 0, 78, 80
1, 85415, Note_on_c, 0, 68, 0
1, 85415, Note_on_c, 0, 78, 0
1, 85440, Note_on_c, 0, 68, 80
1, 85440, Note_on_c, 0, 78, 80
1, 85667, Note_on_c, 0, 68, 0
1, 85667, Note_on_c, 0, 78, 0
1, 85680, Note_on_c, 0, 76, 80
1, 86363, Note_on_c, 0, 76, 0
1, 87120, Note_on_c, 0, 71, 80
1, 87347, Note_on_c, 0, 71, 0
1, 87360, Note_on_c, 0, 68, 80
1, 87360, Note_on_c, 0, 76, 80
1, 87587, Note_on_c, 0, 68, 0
1, 87587, Note_on_c, 0, 76, 0
1, 87600, Note_on_c, 0, 75, 80
1, 87827, Note_on_c, 0, 75, 0
1, 87840, Note_on_c, 0, 68, 80
1, 87840, Note_on_c, 0, 76, 80
1, 88295, Note_on_c, 0, 68, 0
1, 88295, Note_on_c, 0, 76, 0
1, 88320, Note_on_c, 0, 68, 80
1, 88320, Note_on_c, 0, 76, 80
1, 88775, Note_on_c, 0, 68, 0
1, 88775, Note_on_c, 0, 76, 0
1, 88800, Note_on_c, 0, 68, 80
1, 88800, Note_on_c, 0, 78, 80
1, 89255, Note_on_c, 0, 68, 0
1, 89255, Note_on_c, 0, 78, 0
1, 89280, Note_on_c, 0, 68, 80
1, 89280, Note_on_c, 0, 78, 80
1, 89507, Note_on_c, 0, 68, 0
1, 89507, Note_on_c, 0, 78, 0
1, 89520, Note_on_c, 0, 76, 80
1, 90203, Note_on_c, 0, 76, 0
1, 90960, Note_on_c, 0, 71, 80
1, 91187, Note_on_c, 0, 71, 0
1, 91200, Note_on_c, 0, 68, 80
1, 91200, Note_on_c, 0, 76, 80
1, 91427, Note_on_c, 0, 68, 0
1, 91427, Note_on_c, 0, 76, 0
1, 91440, Note_on_c, 0, 75, 80
1, 91667, Note_on_c, 0, 75, 0
1, 91680, Note_on_c, 0, 68, 80
1, 91680, Note_on_c, 0, 76, 80
1, 92135, Note_on_c, 0, 68, 0
1, 92135, Note_on_c, 0, 76, 0
1, 92160, Note_on_c, 0, 68, 80
1, 92160, Note_on_c, 0, 76, 80
1, 92615, Note_on_c, 0, 68, 0
1, 92615, Note_on_c, 0, 76, 0
1, 92640, Note_on_c, 0, 68, 80
1, 92640, Note_on_c, 0, 78, 80
1, 93095, Note_on_c, 0, 68, 0
1, 93095, Note_on_c, 0, 78, 0
1, 93120, Note_on_c, 0, 69, 80
1, 93120, Note_on_c, 0, 78, 80
1, 93347, Note_on_c, 0, 69, 0
1, 93347, Note_on_c, 0, 78, 0
1, 93360, Note_on_c, 0, 76, 80
1, 94043, Note_on_c, 0, 76, 0
1, 94560, Note_on_c, 0, 71, 80
1, 94787, Note_on_c, 0, 71, 0
1, 94800, Note_on_c, 0, 71, 80
1, 95027, Note_on_c, 0, 71, 0
1, 95040, Note_on_c, 0, 71, 80
1, 95495, Note_on_c, 0, 71, 0
1, 95520, Note_on_c, 0, 71, 80
1, 95975, Note_on_c, 0, 71, 0
1, 96000, Note_on_c, 0, 68, 80
1, 96455, Note_on_c, 0, 68, 0
1, 96480, Note_on_c, 0, 68, 80
1, 96935, Note_on_c, 0, 68, 0
1, 96960, Note_on_c, 0, 71, 80
1, 97187, Note_on_c, 0, 71, 0
1, 97200, Note_on_c, 0, 71, 80
1, 97427, Note_on_c, 0, 71, 0
1, 97440, Note_on_c, 0, 71, 80
1, 97895, Note_on_c, 0, 71, 0
1, 97920, Note_on_c, 0, 71, 80
1, 98375, Note_on_c, 0, 71, 0
1, 98400, Note_on_c, 0, 68, 80
1, 98855, Note_on_c, 0, 68, 0
1, 98880, Note_on_c, 0, 66, 80
1, 98880, Note_on_c, 0, 73, 80
1, 99791, Note_on_c, 0, 66, 0
1, 99791, Note_on_c, 0, 73, 0
1, 99840, Note_on_c, 0, 68, 80
1, 99840, Note_on_c, 0, 71, 80
1, 100751, Note_on_c, 0, 68, 0
1, 100751, Note_on_c, 0, 71, 0
1, 101760, Note_on_c, 0, 88, 80
1, 102671, Note_on_c, 0, 88, 0
1, 103680, Note_on_c, 0, 88, 80
1, 104591, Note_on_c, 0, 88, 0
1, 105600, Note_on_c, 0, 88, 80
1, 106511, Note_on_c, 0, 88, 0
1, 107520, Note_on_c, 0, 76, 80
1, 108431, Note_on_c, 0, 76, 0
1, 108480, Note_on_c, 0, 75, 80
1, 109391, Note_on_c, 0, 75, 0
1, 109440, Note_on_c, 0, 87, 80
1, 110351, Note_on_c, 0, 87, 0
1, 111360, Note_on_c, 0, 87, 80
1, 112271, Note_on_c, 0, 87, 0
1, 113280, Note_on_c, 0, 87, 80
1, 114191, Note_on_c, 0, 87, 0
1, 115200, Note_on_c, 0, 75, 80
1, 116111, Note_on_c, 0, 75, 0
1, 116160, Note_on_c, 0, 64, 80
1, 116160, Note_on_c, 0, 73, 80
1, 117071, Note_on_c, 0, 64, 0
1, 117071, Note_on_c, 0, 73, 0
1, 117120, Note_on_c, 0, 85, 80
1, 117575, Note_on_c, 0, 85, 0
1, 117600, Note_on_c, 0, 64, 80
1, 118055, Note_on_c, 0, 64, 0
1, 118080, Note_on_c, 0, 64, 80
1, 118991, Note_on_c, 0, 64, 0
1, 119040, Note_on_c, 0, 85, 80
1, 119495, Note_on_c, 0, 85, 0
1, 119520, Note_on_c, 0, 64, 80
1, 119975, Note_on_c, 0, 64, 0
1, 120000, Note_on_c, 0, 64, 80
1, 120911, Note_on_c, 0, 64, 0
1, 120960, Note_on_c, 0, 85, 80
1, 121415, Note_on_c, 0, 85, 0
1, 121440, Note_on_c, 0, 64, 80
1, 121895, Note_on_c, 0, 64, 0
1, 121920, Note_on_c, 0, 64, 80
1, 122831, Note_on_c, 0, 64, 0
1, 122880, Note_on_c, 0, 73, 80
1, 123335, Note_on_c, 0, 73, 0
1, 123360, Note_on_c, 0, 64, 80
1, 123815, Note_on_c, 0, 64, 0
1, 123840, Note_on_c, 0, 64, 80
1, 123840, Note_on_c, 0, 69, 80
1, 124751, Note_on_c, 0, 64, 0
1, 124751, Note_on_c, 0, 69, 0
1, 124800, Note_on_c, 0, 81, 80
1, 125255, Note_on_c, 0, 81, 0
1, 125280, Note_on_c, 0, 64, 80
1, 125735, Note_on_c, 0, 64, 0
1, 125760, Note_on_c, 0, 64, 80
1, 126671, Note_on_c, 0, 64, 0
1, 126720, Note_on_c, 0, 81, 80
1, 127175, Note_on_c, 0, 81, 0
1, 127200, Note_on_c, 0, 64, 80
1, 127655, Note_on_c, 0, 64, 0
1, 127680, Note_on_c, 0, 64, 80
1, 128591, Note_on_c, 0, 64, 0
1, 128640, Note_on_c, 0, 80, 80
1, 129095, Note_on_c, 0, 80, 0
1, 129120, Note_on_c, 0, 64, 80
1, 129575, Note_on_c, 0, 64, 0
1, 129600, Note_on_c, 0, 64, 80
1, 130055, Note_on_c, 0, 64, 0
1, 130080, Note_on_c, 0, 64, 80
1, 130535, Note_on_c, 0, 64, 0
1, 130560, Note_on_c, 0, 76, 80
1, 131015, Note_on_c, 0, 76, 0
1, 131040, Note_on_c, 0, 68, 80
1, 131267, Note_on_c, 0, 68, 0
1, 131280, Note_on_c, 0, 68, 80
1, 131507, Note_on_c, 0, 68, 0
1, 131520, Note_on_c, 0, 76, 80
1, 131747, Note_on_c, 0, 76, 0
1, 131760, Note_on_c, 0, 71, 80
1, 132215, Note_on_c, 0, 71, 0
1, 132240, Note_on_c, 0, 69, 80
1, 132695, Note_on_c, 0, 69, 0
1, 132720, Note_on_c, 0, 68, 80
1, 133175, Note_on_c, 0, 68, 0
1, 133200, Note_on_c, 0, 68, 80
1, 133427, Note_on_c, 0, 68, 0
1, 133440, Note_on_c, 0, 76, 80
1, 133667, Note_on_c, 0, 76, 0
1, 133680, Note_on_c, 0, 71, 80
1, 134135, Note_on_c, 0, 71, 0
1, 134160, Note_on_c, 0, 69, 80
1, 134615, Note_on_c, 0, 69, 0
1, 134640, Note_on_c, 0, 68, 80
1, 135095, Note_on_c, 0, 68, 0
1, 135120, Note_on_c, 0, 68, 80
1, 135347, Note_on_c, 0, 68, 0
1, 135360, Note_on_c, 0, 71, 80
1, 135360, Note_on_c, 0, 75, 80
1, 135587, Note_on_c, 0, 71, 0
1, 135587, Note_on_c, 0, 75, 0
1, 135600, Note_on_c, 0, 68, 80
1, 135600, Note_on_c, 0, 73, 80
1, 135827, Note_on_c, 0, 68, 0
1, 135827, Note_on_c, 0, 73, 0
1, 135840, Note_on_c, 0, 71, 80
1, 135840, Note_on_c, 0, 75, 80
1, 136751, Note_on_c, 0, 71, 0
1, 136751, Note_on_c, 0, 75, 0
1, 138480, Note_on_c, 0, 80, 80
1, 138707, Note_on_c, 0, 80, 0
1, 138720, Note_on_c, 0, 80, 80
1, 138947, Note_on_c, 0, 80, 0
1, 138960, Note_on_c, 0, 80, 80
1, 139187, Note_on_c, 0, 80, 0
1, 139200, Note_on_c, 0, 78, 80
1, 139427, Note_on_c, 0, 78, 0
1, 139440, Note_on_c, 0, 78, 80
1, 139667, Note_on_c, 0, 78, 0
1, 139680, Note_on_c, 0, 78, 80
1, 140135, Note_on_c, 0, 78, 0
1, 140160, Note_on_c, 0, 76, 80
1, 140387, Note_on_c, 0, 76, 0
1, 140400, Note_on_c, 0, 78, 80
1, 140855, Note_on_c, 0, 78, 0
1, 140880, Note_on_c, 0, 76, 80
1, 141107, Note_on_c, 0, 76, 0
1, 141120, Note_on_c, 0, 78, 80
1, 141575, Note_on_c, 0, 78, 0
1, 141600, Note_on_c, 0, 80, 80
1, 141827, Note_on_c, 0, 80, 0
1, 141840, Note_on_c, 0, 78, 80
1, 142067, Note_on_c, 0, 78, 0
1, 142080, Note_on_c, 0, 76, 80
1, 142991, Note_on_c, 0, 76, 0
1, 145440, Note_on_c, 0, 76, 80
1, 145895, Note_on_c, 0, 76, 0
1, 145920, Note_on_c, 0, 76, 80
1, 146375, Note_on_c, 0, 76, 0
1, 146400, Note_on_c, 0, 71, 80
1, 146855, Note_on_c, 0, 71, 0
1, 146880, Note_on_c, 0, 71, 80
1, 147791, Note_on_c, 0, 71, 0
1, 147840, Note_on_c, 0, 68, 80
1, 148067, Note_on_c, 0, 68, 0
1, 148080, Note_on_c, 0, 71, 80
1, 148535, Note_on_c, 0, 71, 0
1, 148560, Note_on_c, 0, 68, 80
1, 148787, Note_on_c, 0, 68, 0
1, 148800, Note_on_c, 0, 69, 80
1, 148800, Note_on_c, 0, 73, 80
1, 149027, Note_on_c, 0, 69, 0
1, 149027, Note_on_c, 0, 73, 0
1, 149040, Note_on_c, 0, 73, 80
1, 149040, Note_on_c, 0, 76, 80
1, 149723, Note_on_c, 0, 73, 0
1, 149723, Note_on_c, 0, 76, 0
1, 151920, Note_on_c, 0, 71, 80
1, 152147, Note_on_c, 0, 71, 0
1, 152160, Note_on_c, 0, 71, 80
1, 152387, Note_on_c, 0, 71, 0
1, 152400, Note_on_c, 0, 71, 80
1, 152627, Note_on_c, 0, 71, 0
1, 152640, Note_on_c, 0, 71, 80
1, 153095, Note_on_c, 0, 71, 0
1, 153120, Note_on_c, 0, 71, 80
1, 153347, Note_on_c, 0, 71, 0
1, 153360, Note_on_c, 0, 71, 80
1, 153587, Note_on_c, 0, 71, 0
1, 153600, Note_on_c, 0, 76, 80
1, 154055, Note_on_c, 0, 76, 0
1, 154080, Note_on_c, 0, 71, 80
1, 154535, Note_on_c, 0, 71, 0
1, 154560, Note_on_c, 0, 68, 80
1, 155015, Note_on_c, 0, 68, 0
1, 155280, Note_on_c, 0, 71, 80
1, 155507, Note_on_c, 0, 71, 0
1, 155520, Note_on_c, 0, 71, 80
1, 155747, Note_on_c, 0, 71, 0
1, 155760, Note_on_c, 0, 71, 80
1, 155987, Note_on_c, 0, 71, 0
1, 156000, Note_on_c, 0, 71, 80
1, 156455, Note_on_c, 0, 71, 0
1, 156480, Note_on_c, 0, 71, 80
1, 156707, Note_on_c, 0, 71, 0
1, 156720, Note_on_c, 0, 71, 80
1, 156947, Note_on_c, 0, 71, 0
1, 156960, Note_on_c, 0, 76, 80
1, 157415, Note_on_c, 0, 76, 0
1, 157440, Note_on_c, 0, 75, 80
1, 157667, Note_on_c, 0, 75, 0
1, 157680, Note_on_c, 0, 73, 80
1, 157907, Note_on_c, 0, 73, 0
1, 157920, Note_on_c, 0, 75, 80
1, 158375, Note_on_c, 0, 75, 0
1, 159120, Note_on_c, 0, 71, 80
1, 159347, Note_on_c, 0, 71, 0
1, 159360, Note_on_c, 0, 76, 80
1, 159360, Note_on_c, 0, 80, 80
1, 159587, Note_on_c, 0, 76, 0
1, 159587, Note_on_c, 0, 80, 0
1, 159600, Note_on_c, 0, 75, 80
1, 159600, Note_on_c, 0, 78, 80
1, 159827, Note_on_c, 0, 75, 0
1, 159827, Note_on_c, 0, 78, 0
1, 159840, Note_on_c, 0, 76, 80
1, 159840, Note_on_c, 0, 80, 80
1, 160295, Note_on_c, 0, 76, 0
1, 160295, Note_on_c, 0, 80, 0
1, 160320, Note_on_c, 0, 76, 80
1, 160320, Note_on_c, 0, 80, 80
1, 160547, Note_on_c, 0, 76, 0
1, 160547, Note_on_c, 0, 80, 0
1, 160560, Note_on_c, 0, 75, 80
1, 160560, Note_on_c, 0, 78, 80
1, 160787, Note_on_c, 0, 75, 0
1, 160787, Note_on_c, 0, 78, 0
1, 160800, Note_on_c, 0, 76, 80
1, 160800, Note_on_c, 0, 80, 80
1, 161255, Note_on_c, 0, 76, 0
1, 161255, Note_on_c, 0, 80, 0
1, 161280, Note_on_c, 0, 75, 80
1, 161280, Note_on_c, 0, 78, 80
1, 161735, Note_on_c, 0, 75, 0
1, 161735, Note_on_c, 0, 78, 0
1, 161760, Note_on_c, 0, 73, 80
1, 161760, Note_on_c, 0, 76, 80
1, 162215, Note_on_c, 0, 73, 0
1, 162215, Note_on_c, 0, 76, 0
1, 162960, Note_on_c, 0, 71, 80
1, 163187, Note_on_c, 0, 71, 0
1, 163200, Note_on_c, 0, 68, 80
1, 163200, Note_on_c, 0, 76, 80
1, 163427, Note_on_c, 0, 68, 0
1, 163427, Note_on_c, 0, 76, 0
1, 163440, Note_on_c, 0, 75, 80
1, 163667, Note_on_c, 0, 75, 0
1, 163680, Note_on_c, 0, 68, 80
1, 163680, Note_on_c, 0, 76, 80
1, 164135, Note_on_c, 0, 68, 0
1, 164135, Note_on_c, 0, 76, 0
1, 164160, Note_on_c, 0, 68, 80
1, 164160, Note_on_c, 0, 76, 80
1, 164615, Note_on_c, 0, 68, 0
1, 164615, Note_on_c, 0, 76, 0
1, 164640, Note_on_c, 0, 68, 80
1, 164640, Note_on_c, 0, 78, 80
1, 165095, Note_on_c, 0, 68, 0
1, 165095, Note_on_c, 0, 78, 0
1, 165120, Note_on_c, 0, 68, 80
1, 165120, Note_on_c, 0, 78, 80
1, 165347, Note_on_c, 0, 68, 0
1, 165347, Note_on_c, 0, 78, 0
1, 165360, Note_on_c, 0, 76, 80
1, 166043, Note_on_c, 0, 76, 0
1, 166800, Note_on_c, 0, 71, 80
1, 167027, Note_on_c, 0, 71, 0
1, 167040, Note_on_c, 0, 68, 80
1, 167040, Note_on_c, 0, 76, 80
1, 167267, Note_on_c, 0, 68, 0
1, 167267, Note_on_c, 0, 76, 0
1, 167280, Note_on_c, 0, 75, 80
1, 167507, Note_on_c, 0, 75, 0
1, 167520, Note_on_c, 0, 68, 80
1, 167520, Note_on_c, 0, 76, 80
1, 167975, Note_on_c, 0, 68, 0
1, 167975, Note_on_c, 0, 76, 0
1, 168000, Note_on_c, 0, 68, 80
1, 168000, Note_on_c, 0, 76, 80
1, 168455, Note_on_c, 0, 68, 0
1, 168455, Note_on_c, 0, 76, 0
1, 168480, Note_on_c, 0, 68, 80
1, 168480, Note_on_c, 0, 78, 80
1, 168935, Note_on_c, 0, 68, 0
1, 168935, Note_on_c, 0, 78, 0
1, 168960, Note_on_c, 0, 68, 80
1, 168960, Note_on_c, 0, 78, 80
1, 169187, Note_on_c, 0, 68, 0
1, 169187, Note_on_c, 0, 78, 0
1, 169200, Note_on_c, 0, 76, 80
1, 169883, Note_on_c, 0, 76, 0
1, 170640, Note_on_c, 0, 71, 80
1, 170867, Note_on_c, 0, 71, 0
1, 170880, Note_on_c, 0, 68, 80
1, 170880, Note_on_c, 0, 76, 80
1, 171107, Note_on_c, 0, 68, 0
1, 171107, Note_on_c, 0, 76, 0
1, 171120, Note_on_c, 0, 75, 80
1, 171347, Note_on_c, 0, 75, 0
1, 171360, Note_on_c, 0, 68, 80
1, 171360, Note_on_c, 0, 76, 80
1, 171815, Note_on_c, 0, 68, 0
1, 171815, Note_on_c, 0, 76, 0
1, 171840, Note_on_c, 0, 68, 80
1, 171840, Note_on_c, 0, 76, 80
1, 172295, Note_on_c, 0, 68, 0
1, 172295, Note_on_c, 0, 76, 0
1, 172320, Note_on_c, 0, 68, 80
1, 172320, Note_on_c, 0, 78, 80
1, 172775, Note_on_c, 0, 68, 0
1, 172775, Note_on_c, 0, 78, 0
1, 172800, Note_on_c, 0, 69, 80
1, 172800, Note_on_c, 0, 78, 80
1, 173027, Note_on_c, 0, 69, 0
1, 173027, Note_on_c, 0, 78, 0
1, 173040, Note_on_c, 0, 76, 80
1, 173723, Note_on_c, 0, 76, 0
1, 174720, Note_on_c, 0, 83, 80
1, 175175, Note_on_c, 0, 83, 0
1, 175200, Note_on_c, 0, 83, 80
1, 175655, Note_on_c, 0, 83, 0
1, 175680, Note_on_c, 0, 83, 80
1, 176135, Note_on_c, 0, 83, 0
1, 176160, Note_on_c, 0, 83, 80
1, 176615, Note_on_c, 0, 83, 0
1, 176640, Note_on_c, 0, 80, 80
1, 177095, Note_on_c, 0, 80, 0
1, 177120, Note_on_c, 0, 80, 80
1, 177599, Note_on_c, 0, 80, 0
1, 178560, Note_on_c, 0, 88, 80
1, 179471, Note_on_c, 0, 88, 0
1, 180480, Note_on_c, 0, 88, 80
1, 181391, Note_on_c, 0, 88, 0
1, 182400, Note_on_c, 0, 88, 80
1, 183311, Note_on_c, 0, 88, 0
1, 184320, Note_on_c, 0, 76, 80
1, 185231, Note_on_c, 0, 76, 0
2, 15360, Note_on_c, 0, 52, 80
2, 15360, Note_on_c, 0, 56, 80
2, 15587, Note_on_c, 0, 52, 0
2, 15587, Note_on_c, 0, 56, 0
2, 15600, Note_on_c, 0, 52, 80
2, 15827, Note_on_c, 0, 52, 0
2, 15840, Note_on_c, 0, 56, 80
2, 16067, Note_on_c, 0, 56, 0
2, 16080, Note_on_c, 0, 59, 80
2, 16307, Note_on_c, 0, 59, 0
2, 16320, Note_on_c, 0, 56, 80
2, 16547, Note_on_c, 0, 56, 0
2, 16560, Note_on_c, 0, 52, 80
2, 16787, Note_on_c, 0, 52, 0
2, 16800, Note_on_c, 0, 56, 80
2, 17027, Note_on_c, 0, 56, 0
2, 17040, Note_on_c, 0, 59, 80
2, 17267, Note_on_c, 0, 59, 0
2, 17280, Note_on_c, 0, 52, 80
2, 17280, Note_on_c, 0, 56, 80
2, 17507, Note_on_c, 0, 52, 0
2, 17507, Note_on_c, 0, 56, 0
2, 17520, Note_on_c, 0, 52, 80
2, 17747, Note_on_c, 0, 52, 0
2, 17760, Note_on_c, 0, 56, 80
2, 17987, Note_on_c, 0, 56, 0
2, 18000, Note_on_c, 0, 59, 80
2, 18227, Note_on_c, 0, 59, 0
2, 18240, Note_on_c, 0, 56, 80
2, 18467, Note_on_c, 0, 56, 0
2, 18480, Note_on_c, 0, 52, 80
2, 18707, Note_on_c, 0, 52, 0
2, 18720, Note_on_c, 0, 56, 80
2, 18947, Note_on_c, 0, 56, 0
2, 18960, Note_on_c, 0, 59, 80
2, 19187, Note_on_c, 0, 59, 0
2, 19200, Note_on_c, 0, 52, 80
2, 19200, Note_on_c, 0, 56, 80
2, 19427, Note_on_c, 0, 52, 0
2, 19427, Note_on_c, 0, 56, 0
2, 19440, Note_on_c, 0, 52, 80
2, 19667, Note_on_c, 0, 52, 0
2, 19680, Note_on_c, 0, 56, 80
2, 19907, Note_on_c, 0, 56, 0
2, 19920, Note_on_c, 0, 59, 80
2, 20147, Note_on_c, 0, 59, 0
2, 20160, Note_on_c, 0, 56, 80
2, 20387, Note_on_c, 0, 56, 0
2, 20400, Note_on_c, 0, 52, 80
2, 20627, Note_on_c, 0, 52, 0
2, 20640, Note_on_c, 0, 56, 80
2, 20867, Note_on_c, 0, 56, 0
2, 20880, Note_on_c, 0, 59, 80
2, 21107, Note_on_c, 0, 59, 0
2, 21120, Note_on_c, 0, 52, 80
2, 21120, Note_on_c, 0, 56, 80
2, 21347, Note_on_c, 0, 52, 0
2, 21347, Note_on_c, 0, 56, 0
2, 21360, Note_on_c, 0, 52, 80
2, 21587, Note_on_c, 0, 52, 0
2, 21600, Note_on_c, 0, 56, 80
2, 21827, Note_on_c, 0, 56, 0
2, 21840, Note_on_c, 0, 59, 80
2, 22067, Note_on_c, 0, 59, 0
2, 22080, Note_on_c, 0, 56, 80
2, 22307, Note_on_c, 0, 56, 0
2, 22320, Note_on_c, 0, 52, 80
2, 22547, Note_on_c, 0, 52, 0
2, 22560, Note_on_c, 0, 56, 80
2, 22787, Note_on_c, 0, 56, 0
2, 22800, Note_on_c, 0, 59, 80
2, 23027, Note_on_c, 0, 59, 0
2, 23040, Note_on_c, 0, 51, 80
2, 23040, Note_on_c, 0, 56, 80
2, 23267, Note_on_c, 0, 51, 0
2, 23267, Note_on_c, 0, 56, 0
2, 23280, Note_on_c, 0, 51, 80
2, 23507, Note_on_c, 0, 51, 0
2, 23520, Note_on_c, 0, 56, 80
2, 23747, Note_on_c, 0, 56, 0
2, 23760, Note_on_c, 0, 59, 80
2, 23987, Note_on_c, 0, 59, 0
2, 24000, Note_on_c, 0, 56, 80
2, 24227, Note_on_c, 0, 56, 0
2, 24240, Note_on_c, 0, 51, 80
2, 24467, Note_on_c, 0, 51, 0
2, 24480, Note_on_c, 0, 56, 80
2, 24707, Note_on_c, 0, 56, 0
2, 24720, Note_on_c, 0, 59, 80
2, 24947, Note_on_c, 0, 59, 0
2, 24960, Note_on_c, 0, 51, 80
2, 24960, Note_on_c, 0, 56, 80
2, 25187, Note_on_c, 0, 51, 0
2, 25187, Note_on_c, 0, 56, 0
2, 25200, Note_on_c, 0, 51, 80
2, 25427, Note_on_c, 0, 51, 0
2, 25440, Note_on_c, 0, 56, 80
2, 25667, Note_on_c, 0, 56, 0
2, 25680, Note_on_c, 0, 59, 80
2, 25907, Note_on_c, 0, 59, 0
2, 25920, Note_on_c, 0, 56, 80
2, 26147, Note_on_c, 0, 56, 0
2, 26160, Note_on_c, 0, 51, 80
2, 26387, Note_on_c, 0, 51, 0
2, 26400, Note_on_c, 0, 56, 80
2, 26627, Note_on_c, 0, 56, 0
2, 26640, Note_on_c, 0, 59, 80
2, 26867, Note_on_c, 0, 59, 0
2, 26880, Note_on_c, 0, 51, 80
2, 26880, Note_on_c, 0, 56, 80
2, 27107, Note_on_c, 0, 51, 0
2, 27107, Note_on_c, 0, 56, 0
2, 27120, Note_on_c, 0, 51, 80
2, 27347, Note_on_c, 0, 51, 0
2, 27360, Note_on_c, 0, 56, 80
2, 27587, Note_on_c, 0, 56, 0
2, 27600, Note_on_c, 0, 59, 80
2, 27827, Note_on_c, 0, 59, 0
2, 27840, Note_on_c, 0, 56, 80
2, 28067, Note_on_c, 0, 56, 0
2, 28080, Note_on_c, 0, 51, 80
2, 28307, Note_on_c, 0, 51, 0
2, 28320, Note_on_c, 0, 56, 80
2, 28547, Note_on_c, 0, 56, 0
2, 28560, Note_on_c, 0, 59, 80
2, 28787, Note_on_c, 0, 59, 0
2, 28800, Note_on_c, 0, 51, 80
2, 28800, Note_on_c, 0, 56, 80
2, 29027, Note_on_c, 0, 51, 0
2, 29027, Note_on_c, 0, 56, 0
2, 29040, Note_on_c, 0, 51, 80
2, 29267, Note_on_c, 0, 51, 0
2, 29280, Note_on_c, 0, 56, 80
2, 29507, Note_on_c, 0, 56, 0
2, 29520, Note_on_c, 0, 59, 80
2, 29747, Note_on_c, 0, 59, 0
2, 29760, Note_on_c, 0, 56, 80
2, 29987, Note_on_c, 0, 56, 0
2, 30000, Note_on_c, 0, 51, 80
2, 30227, Note_on_c, 0, 51, 0
2, 30240, Note_on_c, 0, 56, 80
2, 30467, Note_on_c, 0, 56, 0
2, 30480, Note_on_c, 0, 59, 80
2, 30707, Note_on_c, 0, 59, 0
2, 30720, Note_on_c, 0, 52, 80
2, 30720, Note_on_c, 0, 61, 80
2, 30947, Note_on_c, 0, 52, 0
2, 30947, Note_on_c, 0, 61, 0
2, 30960, Note_on_c, 0, 49, 80
2, 31187, Note_on_c, 0, 49, 0
2, 31200, Note_on_c, 0, 52, 80
2, 31427, Note_on_c, 0, 52, 0
2, 31440, Note_on_c, 0, 56, 80
2, 31667, Note_on_c, 0, 56, 0
2, 31680, Note_on_c, 0, 52, 80
2, 31907, Note_on_c, 0, 52, 0
2, 31920, Note_on_c, 0, 49, 80
2, 32147, Note_on_c, 0, 49, 0
2, 32160, Note_on_c, 0, 52, 80
2, 32387, Note_on_c, 0, 52, 0
2, 32400, Note_on_c, 0, 56, 80
2, 32627, Note_on_c, 0, 56, 0
2, 32640, Note_on_c, 0, 52, 80
2, 32640, Note_on_c, 0, 61, 80
2, 32867, Note_on_c, 0, 52, 0
2, 32867, Note_on_c, 0, 61, 0
2, 32880, Note_on_c, 0, 49, 80
2, 33107, Note_on_c, 0, 49, 0
2, 33120, Note_on_c, 0, 52, 80
2, 33347, Note_on_c, 0, 52, 0
2, 33360, Note_on_c, 0, 56, 80
2, 33587, Note_on_c, 0, 56, 0
2, 33600, Note_on_c, 0, 52, 80
2, 33827, Note_on_c, 0, 52, 0
2, 33840, Note_on_c, 0, 49, 80
2, 34067, Note_on_c, 0, 49, 0
2, 34080, Note_on_c, 0, 52, 80
2, 34307, Note_on_c, 0, 52, 0
2, 34320, Note_on_c, 0, 56, 80
2, 34547, Note_on_c, 0, 56, 0
2, 34560, Note_on_c, 0, 52, 80
2, 34560, Note_on_c, 0, 61, 80
2, 34787, Note_on_c, 0, 52, 0
2, 34787, Note_on_c, 0, 61, 0
2, 34800, Note_on_c, 0, 49, 80
2, 35027, Note_on_c, 0, 49, 0
2, 35040, Note_on_c, 0, 52, 80
2, 35267, Note_on_c, 0, 52, 0
2, 35280, Note_on_c, 0, 56, 80
2, 35507, Note_on_c, 0, 56, 0
2, 35520, Note_on_c, 0, 52, 80
2, 35747, Note_on_c, 0, 52, 0
2, 35760, Note_on_c, 0, 49, 80
2, 35987, Note_on_c, 0, 49, 0
2, 36000, Note_on_c, 0, 52, 80
2, 36227, Note_on_c, 0, 52, 0
2, 36240, Note_on_c, 0, 56, 80
2, 36467, Note_on_c, 0, 56, 0
2, 36480, Note_on_c, 0, 52, 80
2, 36480, Note_on_c, 0, 61, 80
2, 36707, Note_on_c, 0, 52, 0
2, 36707, Note_on_c, 0, 61, 0
2, 36720, Note_on_c, 0, 49, 80
2, 36947, Note_on_c, 0, 49, 0
2, 36960, Note_on_c, 0, 52, 80
2, 37187, Note_on_c, 0, 52, 0
2, 37200, Note_on_c, 0, 56, 80
2, 37427, Note_on_c, 0, 56, 0
2, 37440, Note_on_c, 0, 52, 80
2, 37667, Note_on_c, 0, 52, 0
2, 37680, Note_on_c, 0, 49, 80
2, 37907, Note_on_c, 0, 49, 0
2, 37920, Note_on_c, 0, 52, 80
2, 38147, Note_on_c, 0, 52, 0
2, 38160, Note_on_c, 0, 56, 80
2, 38387, Note_on_c, 0, 56, 0
2, 38400, Note_on_c, 0, 52, 80
2, 38400, Note_on_c, 0, 57, 80
2, 38627, Note_on_c, 0, 52, 0
2, 38627, Note_on_c, 0, 57, 0
2, 38640, Note_on_c, 0, 61, 80
2, 38867, Note_on_c, 0, 61, 0
2, 38880, Note_on_c, 0, 61, 80
2, 39107, Note_on_c, 0, 61, 0
2, 39120, Note_on_c, 0, 57, 80
2, 39347, Note_on_c, 0, 57, 0
2, 39360, Note_on_c, 0, 52, 80
2, 39587, Note_on_c, 0, 52, 0
2, 39600, Note_on_c, 0, 61, 80
2, 39827, Note_on_c, 0, 61, 0
2, 39840, Note_on_c, 0, 61, 80
2, 40067, Note_on_c, 0, 61, 0
2, 40080, Note_on_c, 0, 57, 80
2, 40307, Note_on_c, 0, 57, 0
2, 40320, Note_on_c, 0, 52, 80
2, 40547, Note_on_c, 0, 52, 0
2, 40560, Note_on_c, 0, 61, 80
2, 40787, Note_on_c, 0, 61, 0
2, 40800, Note_on_c, 0, 61, 80
2, 41027, Note_on_c, 0, 61, 0
2, 41040, Note_on_c, 0, 57, 80
2, 41267, Note_on_c, 0, 57, 0
2, 41280, Note_on_c, 0, 52, 80
2, 41507, Note_on_c, 0, 52, 0
2, 41520, Note_on_c, 0, 61, 80
2, 41747, Note_on_c, 0, 61, 0
2, 41760, Note_on_c, 0, 61, 80
2, 41987, Note_on_c, 0, 61, 0
2, 42000, Note_on_c, 0, 57, 80
2, 42227, Note_on_c, 0, 57, 0
2, 42240, Note_on_c, 0, 52, 80
2, 42467, Note_on_c, 0, 52, 0
2, 42480, Note_on_c, 0, 61, 80
2, 42707, Note_on_c, 0, 61, 0
2, 42720, Note_on_c, 0, 61, 80
2, 42947, Note_on_c, 0, 61, 0
2, 42960, Note_on_c, 0, 57, 80
2, 43187, Note_on_c, 0, 57, 0
2, 43200, Note_on_c, 0, 52, 80
2, 43427, Note_on_c, 0, 52, 0
2, 43440, Note_on_c, 0, 61, 80
2, 43667, Note_on_c, 0, 61, 0
2, 43680, Note_on_c, 0, 61, 80
2, 43907, Note_on_c, 0, 61, 0
2, 43920, Note_on_c, 0, 57, 80
2, 44147, Note_on_c, 0, 57, 0
2, 44160, Note_on_c, 0, 61, 80
2, 45983, Note_on_c, 0, 61, 0
2, 46080, Note_on_c, 0, 52, 80
2, 46080, Note_on_c, 0, 56, 80
2, 46307, Note_on_c, 0, 52, 0
2, 46307, Note_on_c, 0, 56, 0
2, 46320, Note_on_c, 0, 52, 80
2, 46547, Note_on_c, 0, 52, 0
2, 46560, Note_on_c, 0, 56, 80
2, 46787, Note_on_c, 0, 56, 0
2, 46800, Note_on_c, 0, 59, 80
2, 47027, Note_on_c, 0, 59, 0
2, 47040, Note_on_c, 0, 56, 80
2, 47267, Note_on_c, 0, 56, 0
2, 47280, Note_on_c, 0, 52, 80
2, 47507, Note_on_c, 0, 52, 0
2, 47520, Note_on_c, 0, 56, 80
2, 47747, Note_on_c, 0, 56, 0
2, 47760, Note_on_c, 0, 59, 80
2, 47987, Note_on_c, 0, 59, 0
2, 48000, Note_on_c, 0, 52, 80
2, 48000, Note_on_c, 0, 56, 80
2, 48227, Note_on_c, 0, 52, 0
2, 48227, Note_on_c, 0, 56, 0
2, 48240, Note_on_c, 0, 52, 80
2, 48467, Note_on_c, 0, 52, 0
2, 48480, Note_on_c, 0, 56, 80
2, 48707, Note_on_c, 0, 56, 0
2, 48720, Note_on_c, 0, 59, 80
2, 48947, Note_on_c, 0, 59, 0
2, 48960, Note_on_c, 0, 56, 80
2, 49187, Note_on_c, 0, 56, 0
2, 49200, Note_on_c, 0, 52, 80
2, 49427, Note_on_c, 0, 52, 0
2, 49440, Note_on_c, 0, 56, 80
2, 49667, Note_on_c, 0, 56, 0
2, 49680, Note_on_c, 0, 59, 80
2, 49907, Note_on_c, 0, 59, 0
2, 49920, Note_on_c, 0, 56, 80
2, 50147, Note_on_c, 0, 56, 0
2, 50160, Note_on_c, 0, 51, 80
2, 50387, Note_on_c, 0, 51, 0
2, 50400, Note_on_c, 0, 56, 80
2, 50627, Note_on_c, 0, 56, 0
2, 50640, Note_on_c, 0, 59, 80
2, 50867, Note_on_c, 0, 59, 0
2, 50880, Note_on_c, 0, 56, 80
2, 51107, Note_on_c, 0, 56, 0
2, 51120, Note_on_c, 0, 51, 80
2, 51347, Note_on_c, 0, 51, 0
2, 51360, Note_on_c, 0, 56, 80
2, 51587, Note_on_c, 0, 56, 0
2, 51600, Note_on_c, 0, 59, 80
2, 51827, Note_on_c, 0, 59, 0
2, 51840, Note_on_c, 0, 56, 80
2, 52067, Note_on_c, 0, 56, 0
2, 52080, Note_on_c, 0, 51, 80
2, 52307, Note_on_c, 0, 51, 0
2, 52320, Note_on_c, 0, 56, 80
2, 52547, Note_on_c, 0, 56, 0
2, 52560, Note_on_c, 0, 59, 80
2, 52787, Note_on_c, 0, 59, 0
2, 52800, Note_on_c, 0, 56, 80
2, 53027, Note_on_c, 0, 56, 0
2, 53040, Note_on_c, 0, 51, 80
2, 53267, Note_on_c, 0, 51, 0
2, 53280, Note_on_c, 0, 56, 80
2, 53507, Note_on_c, 0, 56, 0
2, 53520, Note_on_c, 0, 59, 80
2, 53747, Note_on_c, 0, 59, 0
2, 53760, Note_on_c, 0, 56, 80
2, 53987, Note_on_c, 0, 56, 0
2, 54000, Note_on_c, 0, 51, 80
2, 54227, Note_on_c, 0, 51, 0
2, 54240, Note_on_c, 0, 56, 80
2, 54467, Note_on_c, 0, 56, 0
2, 54480, Note_on_c, 0, 59, 80
2, 54707, Note_on_c, 0, 59, 0
2, 54720, Note_on_c, 0, 56, 80
2, 54947, Note_on_c, 0, 56, 0
2, 54960, Note_on_c, 0, 51, 80
2, 55187, Note_on_c, 0, 51, 0
2, 55200, Note_on_c, 0, 56, 80
2, 55427, Note_on_c, 0, 56, 0
2, 55440, Note_on_c, 0, 59, 80
2, 55667, Note_on_c, 0, 59, 0
2, 55680, Note_on_c, 0, 56, 80
2, 55907, Note_on_c, 0, 56, 0
2, 55920, Note_on_c, 0, 51, 80
2, 56147, Note_on_c, 0, 51, 0
2, 56160, Note_on_c, 0, 56, 80
2, 56387, Note_on_c, 0, 56, 0
2, 56400, Note_on_c, 0, 59, 80
2, 56627, Note_on_c, 0, 59, 0
2, 56640, Note_on_c, 0, 52, 80
2, 56640, Note_on_c, 0, 64, 80
2, 56867, Note_on_c, 0, 52, 0
2, 56867, Note_on_c, 0, 64, 0
2, 56880, Note_on_c, 0, 61, 80
2, 57107, Note_on_c, 0, 61, 0
2, 57120, Note_on_c, 0, 52, 80
2, 57120, Note_on_c, 0, 64, 80
2, 57347, Note_on_c, 0, 52, 0
2, 57347, Note_on_c, 0, 64, 0
2, 57360, Note_on_c, 0, 61, 80
2, 57587, Note_on_c, 0, 61, 0
2, 57600, Note_on_c, 0, 52, 80
2, 57600, Note_on_c, 0, 64, 80
2, 57827, Note_on_c, 0, 52, 0
2, 57827, Note_on_c, 0, 64, 0
2, 57840, Note_on_c, 0, 61, 80
2, 58067, Note_on_c, 0, 61, 0
2, 58080, Note_on_c, 0, 52, 80
2, 58080, Note_on_c, 0, 64, 80
2, 58307, Note_on_c, 0, 52, 0
2, 58307, Note_on_c, 0, 64, 0
2, 58320, Note_on_c, 0, 61, 80
2, 58547, Note_on_c, 0, 61, 0
2, 58560, Note_on_c, 0, 52, 80
2, 58560, Note_on_c, 0, 64, 80
2, 58787, Note_on_c, 0, 52, 0
2, 58787, Note_on_c, 0, 64, 0
2, 58800, Note_on_c, 0, 61, 80
2, 59027, Note_on_c, 0, 61, 0
2, 59040, Note_on_c, 0, 52, 80
2, 59040, Note_on_c, 0, 64, 80
2, 59267, Note_on_c, 0, 52, 0
2, 59267, Note_on_c, 0, 64, 0
2, 59280, Note_on_c, 0, 61, 80
2, 59507, Note_on_c, 0, 61, 0
2, 59520, Note_on_c, 0, 52, 80
2, 59520, Note_on_c, 0, 64, 80
2, 59747, Note_on_c, 0, 52, 0
2, 59747, Note_on_c, 0, 64, 0
2, 59760, Note_on_c, 0, 61, 80
2, 59987, Note_on_c, 0, 61, 0
2, 60000, Note_on_c, 0, 52, 80
2, 60000, Note_on_c, 0, 64, 80
2, 60227, Note_on_c, 0, 52, 0
2, 60227, Note_on_c, 0, 64, 0
2, 60240, Note_on_c, 0, 61, 80
2, 60467, Note_on_c, 0, 61, 0
2, 60480, Note_on_c, 0, 52, 80
2, 60480, Note_on_c, 0, 64, 80
2, 60707, Note_on_c, 0, 52, 0
2, 60707, Note_on_c, 0, 64, 0
2, 60720, Note_on_c, 0, 61, 80
2, 60947, Note_on_c, 0, 61, 0
2, 60960, Note_on_c, 0, 52, 80
2, 60960, Note_on_c, 0, 64, 80
2, 61187, Note_on_c, 0, 52, 0
2, 61187, Note_on_c, 0, 64, 0
2, 61200, Note_on_c, 0, 61, 80
2, 61427, Note_on_c, 0, 61, 0
2, 61440, Note_on_c, 0, 52, 80
2, 61440, Note_on_c, 0, 64, 80
2, 61667, Note_on_c, 0, 52, 0
2, 61667, Note_on_c, 0, 64, 0
2, 61680, Note_on_c, 0, 61, 80
2, 61907, Note_on_c, 0, 61, 0
2, 61920, Note_on_c, 0, 52, 80
2, 61920, Note_on_c, 0, 64, 80
2, 62147, Note_on_c, 0, 52, 0
2, 62147, Note_on_c, 0, 64, 0
2, 62160, Note_on_c, 0, 61, 80
2, 62387, Note_on_c, 0, 61, 0
2, 62400, Note_on_c, 0, 52, 80
2, 62400, Note_on_c, 0, 64, 80
2, 62627, Note_on_c, 0, 52, 0
2, 62627, Note_on_c, 0, 64, 0
2, 62640, Note_on_c, 0, 61, 80
2, 62867, Note_on_c, 0, 61, 0
2, 62880, Note_on_c, 0, 52, 80
2, 62880, Note_on_c, 0, 64, 80
2, 63107, Note_on_c, 0, 52, 0
2, 63107, Note_on_c, 0, 64, 0
2, 63120, Note_on_c, 0, 61, 80
2, 63347, Note_on_c, 0, 61, 0
2, 63360, Note_on_c, 0, 52, 80
2, 63360, Note_on_c, 0, 64, 80
2, 63587, Note_on_c, 0, 52, 0
2, 63587, Note_on_c, 0, 64, 0
2, 63600, Note_on_c, 0, 61, 80
2, 63827, Note_on_c, 0, 61, 0
2, 63840, Note_on_c, 0, 52, 80
2, 63840, Note_on_c, 0, 64, 80
2, 64067, Note_on_c, 0, 52, 0
2, 64067, Note_on_c, 0, 64, 0
2, 64080, Note_on_c, 0, 61, 80
2, 64307, Note_on_c, 0, 61, 0
2, 64320, Note_on_c, 0, 52, 80
2, 64320, Note_on_c, 0, 64, 80
2, 64547, Note_on_c, 0, 52, 0
2, 64547, Note_on_c, 0, 64, 0
2, 64560, Note_on_c, 0, 61, 80
2, 64787, Note_on_c, 0, 61, 0
2, 64800, Note_on_c, 0, 52, 80
2, 64800, Note_on_c, 0, 64, 80
2, 65027, Note_on_c, 0, 52, 0
2, 65027, Note_on_c, 0, 64, 0
2, 65040, Note_on_c, 0, 61, 80
2, 65267, Note_on_c, 0, 61, 0
2, 65280, Note_on_c, 0, 52, 80
2, 65280, Note_on_c, 0, 64, 80
2, 65507, Note_on_c, 0, 52, 0
2, 65507, Note_on_c, 0, 64, 0
2, 65520, Note_on_c, 0, 61, 80
2, 65747, Note_on_c, 0, 61, 0
2, 65760, Note_on_c, 0, 52, 80
2, 65760, Note_on_c, 0, 64, 80
2, 65987, Note_on_c, 0, 52, 0
2, 65987, Note_on_c, 0, 64, 0
2, 66000, Note_on_c, 0, 61, 80
2, 66227, Note_on_c, 0, 61, 0
2, 66240, Note_on_c, 0, 52, 80
2, 66240, Note_on_c, 0, 64, 80
2, 66467, Note_on_c, 0, 52, 0
2, 66467, Note_on_c, 0, 64, 0
2, 66480, Note_on_c, 0, 61, 80
2, 66707, Note_on_c, 0, 61, 0
2, 66720, Note_on_c, 0, 52, 80
2, 66720, Note_on_c, 0, 64, 80
2, 66947, Note_on_c, 0, 52, 0
2, 66947, Note_on_c, 0, 64, 0
2, 66960, Note_on_c, 0, 61, 80
2, 67187, Note_on_c, 0, 61, 0
2, 67200, Note_on_c, 0, 52, 80
2, 67200, Note_on_c, 0, 64, 80
2, 67427, Note_on_c, 0, 52, 0
2, 67427, Note_on_c, 0, 64, 0
2, 67440, Note_on_c, 0, 61, 80
2, 67667, Note_on_c, 0, 61, 0
2, 67680, Note_on_c, 0, 52, 80
2, 67680, Note_on_c, 0, 64, 80
2, 67907, Note_on_c, 0, 52, 0
2, 67907, Note_on_c, 0, 64, 0
2, 67920, Note_on_c, 0, 61, 80
2, 68147, Note_on_c, 0, 61, 0
2, 68160, Note_on_c, 0, 52, 80
2, 68160, Note_on_c, 0, 64, 80
2, 68387, Note_on_c, 0, 52, 0
2, 68387, Note_on_c, 0, 64, 0
2, 68400, Note_on_c, 0, 61, 80
2, 68627, Note_on_c, 0, 61, 0
2, 68640, Note_on_c, 0, 52, 80
2, 68640, Note_on_c, 0, 64, 80
2, 68867, Note_on_c, 0, 52, 0
2, 68867, Note_on_c, 0, 64, 0
2, 68880, Note_on_c, 0, 61, 80
2, 69107, Note_on_c, 0, 61, 0
2, 69120, Note_on_c, 0, 52, 80
2, 69120, Note_on_c, 0, 64, 80
2, 69347, Note_on_c, 0, 52, 0
2, 69347, Note_on_c, 0, 64, 0
2, 69360, Note_on_c, 0, 61, 80
2, 69587, Note_on_c, 0, 61, 0
2, 69600, Note_on_c, 0, 52, 80
2, 69600, Note_on_c, 0, 64, 80
2, 69827, Note_on_c, 0, 52, 0
2, 69827, Note_on_c, 0, 64, 0
2, 69840, Note_on_c, 0, 61, 80
2, 70067, Note_on_c, 0, 61, 0
2, 70080, Note_on_c, 0, 52, 80
2, 70080, Note_on_c, 0, 64, 80
2, 70307, Note_on_c, 0, 52, 0
2, 70307, Note_on_c, 0, 64, 0
2, 70320, Note_on_c, 0, 61, 80
2, 70547, Note_on_c, 0, 61, 0
2, 70560, Note_on_c, 0, 52, 80
2, 70560, Note_on_c, 0, 64, 80
2, 70787, Note_on_c, 0, 52, 0
2, 70787, Note_on_c, 0, 64, 0
2, 70800, Note_on_c, 0, 59, 80
2, 71027, Note_on_c, 0, 59, 0
2, 71040, Note_on_c, 0, 52, 80
2, 71040, Note_on_c, 0, 64, 80
2, 71267, Note_on_c, 0, 52, 0
2, 71267, Note_on_c, 0, 64, 0
2, 71280, Note_on_c, 0, 59, 80
2, 71507, Note_on_c, 0, 59, 0
2, 71520, Note_on_c, 0, 52, 80
2, 71520, Note_on_c, 0, 64, 80
2, 71747, Note_on_c, 0, 52, 0
2, 71747, Note_on_c, 0, 64, 0
2, 71760, Note_on_c, 0, 59, 80
2, 71987, Note_on_c, 0, 59, 0
2, 72000, Note_on_c, 0, 52, 80
2, 72000, Note_on_c, 0, 64, 80
2, 72227, Note_on_c, 0, 52, 0
2, 72227, Note_on_c, 0, 64, 0
2, 72240, Note_on_c, 0, 59, 80
2, 72467, Note_on_c, 0, 59, 0
2, 72480, Note_on_c, 0, 52, 80
2, 72480, Note_on_c, 0, 64, 80
2, 72707, Note_on_c, 0, 52, 0
2, 72707, Note_on_c, 0, 64, 0
2, 72720, Note_on_c, 0, 59, 80
2, 72947, Note_on_c, 0, 59, 0
2, 72960, Note_on_c, 0, 52, 80
2, 72960, Note_on_c, 0, 64, 80
2, 73187, Note_on_c, 0, 52, 0
2, 73187, Note_on_c, 0, 64, 0
2, 73200, Note_on_c, 0, 59, 80
2, 73427, Note_on_c, 0, 59, 0
2, 73440, Note_on_c, 0, 52, 80
2, 73440, Note_on_c, 0, 64, 80
2, 73667, Note_on_c, 0, 52, 0
2, 73667, Note_on_c, 0, 64, 0
2, 73680, Note_on_c, 0, 59, 80
2, 73907, Note_on_c, 0, 59, 0
2, 73920, Note_on_c, 0, 52, 80
2, 73920, Note_on_c, 0, 64, 80
2, 74147, Note_on_c, 0, 52, 0
2, 74147, Note_on_c, 0, 64, 0
2, 74160, Note_on_c, 0, 59, 80
2, 74387, Note_on_c, 0, 59, 0
2, 74400, Note_on_c, 0, 52, 80
2, 74400, Note_on_c, 0, 64, 80
2, 74627, Note_on_c, 0, 52, 0
2, 74627, Note_on_c, 0, 64, 0
2, 74640, Note_on_c, 0, 59, 80
2, 74867, Note_on_c, 0, 59, 0
2, 74880, Note_on_c, 0, 52, 80
2, 74880, Note_on_c, 0, 64, 80
2, 75107, Note_on_c, 0, 52, 0
2, 75107, Note_on_c, 0, 64, 0
2, 75120, Note_on_c, 0, 59, 80
2, 75347, Note_on_c, 0, 59, 0
2, 75360, Note_on_c, 0, 52, 80
2, 75360, Note_on_c, 0, 64, 80
2, 75587, Note_on_c, 0, 52, 0
2, 75587, Note_on_c, 0, 64, 0
2, 75600, Note_on_c, 0, 59, 80
2, 75827, Note_on_c, 0, 59, 0
2, 75840, Note_on_c, 0, 52, 80
2, 75840, Note_on_c, 0, 64, 80
2, 76067, Note_on_c, 0, 52, 0
2, 76067, Note_on_c, 0, 64, 0
2, 76080, Note_on_c, 0, 59, 80
2, 76307, Note_on_c, 0, 59, 0
2, 76320, Note_on_c, 0, 52, 80
2, 76320, Note_on_c, 0, 64, 80
2, 76547, Note_on_c, 0, 52, 0
2, 76547, Note_on_c, 0, 64, 0
2, 76560, Note_on_c, 0, 59, 80
2, 76787, Note_on_c, 0, 59, 0
2, 76800, Note_on_c, 0, 52, 80
2, 76800, Note_on_c, 0, 64, 80
2, 77027, Note_on_c, 0, 52, 0
2, 77027, Note_on_c, 0, 64, 0
2, 77040, Note_on_c, 0, 59, 80
2, 77267, Note_on_c, 0, 59, 0
2, 77280, Note_on_c, 0, 52, 80
2, 77280, Note_on_c, 0, 64, 80
2, 77507, Note_on_c, 0, 52, 0
2, 77507, Note_on_c, 0, 64, 0
2, 77520, Note_on_c, 0, 59, 80
2, 77747, Note_on_c, 0, 59, 0
2, 77760, Note_on_c, 0, 52, 80
2, 77760, Note_on_c, 0, 64, 80
2, 77987, Note_on_c, 0, 52, 0
2, 77987, Note_on_c, 0, 64, 0
2, 78000, Note_on_c, 0, 59, 80
2, 78227, Note_on_c, 0, 59, 0
2, 78240, Note_on_c, 0, 51, 80
2, 78240, Note_on_c, 0, 63, 80
2, 78467, Note_on_c, 0, 51, 0
2, 78467, Note_on_c, 0, 63, 0
2, 78480, Note_on_c, 0, 59, 80
2, 78707, Note_on_c, 0, 59, 0
2, 78720, Note_on_c, 0, 51, 80
2, 78720, Note_on_c, 0, 63, 80
2, 78947, Note_on_c, 0, 51, 0
2, 78947, Note_on_c, 0, 63, 0
2, 78960, Note_on_c, 0, 59, 80
2, 79187, Note_on_c, 0, 59, 0
2, 79200, Note_on_c, 0, 51, 80
2, 79200, Note_on_c, 0, 63, 80
2, 79427, Note_on_c, 0, 51, 0
2, 79427, Note_on_c, 0, 63, 0
2, 79440, Note_on_c, 0, 59, 80
2, 79667, Note_on_c, 0, 59, 0
2, 79680, Note_on_c, 0, 51, 80
2, 79680, Note_on_c, 0, 63, 80
2, 79907, Note_on_c, 0, 51, 0
2, 79907, Note_on_c, 0, 63, 0
2, 79920, Note_on_c, 0, 59, 80
2, 80147, Note_on_c, 0, 59, 0
2, 80160, Note_on_c, 0, 51, 80
2, 80160, Note_on_c, 0, 63, 80
2, 80387, Note_on_c, 0, 51, 0
2, 80387, Note_on_c, 0, 63, 0
2, 80400, Note_on_c, 0, 59, 80
2, 80627, Note_on_c, 0, 59, 0
2, 80640, Note_on_c, 0, 51, 80
2, 80640, Note_on_c, 0, 63, 80
2, 80867, Note_on_c, 0, 51, 0
2, 80867, Note_on_c, 0, 63, 0
2, 80880, Note_on_c, 0, 59, 80
2, 81107, Note_on_c, 0, 59, 0
2, 81120, Note_on_c, 0, 51, 80
2, 81120, Note_on_c, 0, 63, 80
2, 81347, Note_on_c, 0, 51, 0
2, 81347, Note_on_c, 0, 63, 0
2, 81360, Note_on_c, 0, 59, 80
2, 81587, Note_on_c, 0, 59, 0
2, 81600, Note_on_c, 0, 51, 80
2, 81600, Note_on_c, 0, 63, 80
2, 81827, Note_on_c, 0, 51, 0
2, 81827, Note_on_c, 0, 63, 0
2, 81840, Note_on_c, 0, 59, 80
2, 82067, Note_on_c, 0, 59, 0
2, 82080, Note_on_c, 0, 49, 80
2, 82080, Note_on_c, 0, 61, 80
2, 82307, Note_on_c, 0, 49, 0
2, 82307, Note_on_c, 0, 61, 0
2, 82320, Note_on_c, 0, 56, 80
2, 82547, Note_on_c, 0, 56, 0
2, 82560, Note_on_c, 0, 49, 80
2, 82560, Note_on_c, 0, 61, 80
2, 82787, Note_on_c, 0, 49, 0
2, 82787, Note_on_c, 0, 61, 0
2, 82800, Note_on_c, 0, 56, 80
2, 83027, Note_on_c, 0, 56, 0
2, 83040, Note_on_c, 0, 49, 80
2, 83040, Note_on_c, 0, 61, 80
2, 83267, Note_on_c, 0, 49, 0
2, 83267, Note_on_c, 0, 61, 0
2, 83280, Note_on_c, 0, 56, 80
2, 83507, Note_on_c, 0, 56, 0
2, 83520, Note_on_c, 0, 49, 80
2, 83520, Note_on_c, 0, 61, 80
2, 83747, Note_on_c, 0, 49, 0
2, 83747, Note_on_c, 0, 61, 0
2, 83760, Note_on_c, 0, 56, 80
2, 83987, Note_on_c, 0, 56, 0
2, 84000, Note_on_c, 0, 49, 80
2, 84000, Note_on_c, 0, 61, 80
2, 84227, Note_on_c, 0, 49, 0
2, 84227, Note_on_c, 0, 61, 0
2, 84240, Note_on_c, 0, 56, 80
2, 84467, Note_on_c, 0, 56, 0
2, 84480, Note_on_c, 0, 49, 80
2, 84480, Note_on_c, 0, 61, 80
2, 84707, Note_on_c, 0, 49, 0
2, 84707, Note_on_c, 0, 61, 0
2, 84720, Note_on_c, 0, 56, 80
2, 84947, Note_on_c, 0, 56, 0
2, 84960, Note_on_c, 0, 49, 80
2, 84960, Note_on_c, 0, 61, 80
2, 85187, Note_on_c, 0, 49, 0
2, 85187, Note_on_c, 0, 61, 0
2, 85200, Note_on_c, 0, 56, 80
2, 85427, Note_on_c, 0, 56, 0
2, 85440, Note_on_c, 0, 49, 80
2, 85440, Note_on_c, 0, 61, 80
2, 85667, Note_on_c, 0, 49, 0
2, 85667, Note_on_c, 0, 61, 0
2, 85680, Note_on_c, 0, 56, 80
2, 85907, Note_on_c, 0, 56, 0
2, 85920, Note_on_c, 0, 49, 80
2, 85920, Note_on_c, 0, 61, 80
2, 86147, Note_on_c, 0, 49, 0
2, 86147, Note_on_c, 0, 61, 0
2, 86160, Note_on_c, 0, 56, 80
2, 86387, Note_on_c, 0, 56, 0
2, 86400, Note_on_c, 0, 49, 80
2, 86400, Note_on_c, 0, 61, 80
2, 86627, Note_on_c, 0, 49, 0
2, 86627, Note_on_c, 0, 61, 0
2, 86640, Note_on_c, 0, 56, 80
2, 86867, Note_on_c, 0, 56, 0
2, 86880, Note_on_c, 0, 49, 80
2, 86880, Note_on_c, 0, 61, 80
2, 87107, Note_on_c, 0, 49, 0
2, 87107, Note_on_c, 0, 61, 0
2, 87120, Note_on_c, 0, 56, 80
2, 87347, Note_on_c, 0, 56, 0
2, 87360, Note_on_c, 0, 49, 80
2, 87360, Note_on_c, 0, 61, 80
2, 87587, Note_on_c, 0, 49, 0
2, 87587, Note_on_c, 0, 61, 0
2, 87600, Note_on_c, 0, 56, 80
2, 87827, Note_on_c, 0, 56, 0
2, 87840, Note_on_c, 0, 49, 80
2, 87840, Note_on_c, 0, 61, 80
2, 88067, Note_on_c, 0, 49, 0
2, 88067, Note_on_c, 0, 61, 0
2, 88080, Note_on_c, 0, 56, 80
2, 88307, Note_on_c, 0, 56, 0
2, 88320, Note_on_c, 0, 49, 80
2, 88320, Note_on_c, 0, 61, 80
2, 88547, Note_on_c, 0, 49, 0
2, 88547, Note_on_c, 0, 61, 0
2, 88560, Note_on_c, 0, 56, 80
2, 88787, Note_on_c, 0, 56, 0
2, 88800, Note_on_c, 0, 49, 80
2, 88800, Note_on_c, 0, 61, 80
2, 89027, Note_on_c, 0, 49, 0
2, 89027, Note_on_c, 0, 61, 0
2, 89040, Note_on_c, 0, 56, 80
2, 89267, Note_on_c, 0, 56, 0
2, 89280, Note_on_c, 0, 49, 80
2, 89280, Note_on_c, 0, 61, 80
2, 89507, Note_on_c, 0, 49, 0
2, 89507, Note_on_c, 0, 61, 0
2, 89520, Note_on_c, 0, 56, 80
2, 89747, Note_on_c, 0, 56, 0
2, 89760, Note_on_c, 0, 49, 80
2, 89760, Note_on_c, 0, 61, 80
2, 89987, Note_on_c, 0, 49, 0
2, 89987, Note_on_c, 0, 61, 0
2, 90000, Note_on_c, 0, 56, 80
2, 90227, Note_on_c, 0, 56, 0
2, 90240, Note_on_c, 0, 49, 80
2, 90240, Note_on_c, 0, 61, 80
2, 90467, Note_on_c, 0, 49, 0
2, 90467, Note_on_c, 0, 61, 0
2, 90480, Note_on_c, 0, 56, 80
2, 90707, Note_on_c, 0, 56, 0
2, 90720, Note_on_c, 0, 49, 80
2, 90720, Note_on_c, 0, 61, 80
2, 90947, Note_on_c, 0, 49, 0
2, 90947, Note_on_c, 0, 61, 0
2, 90960, Note_on_c, 0, 56, 80
2, 91187, Note_on_c, 0, 56, 0
2, 91200, Note_on_c, 0, 49, 80
2, 91200, Note_on_c, 0, 61, 80
2, 91427, Note_on_c, 0, 49, 0
2, 91427, Note_on_c, 0, 61, 0
2, 91440, Note_on_c, 0, 56, 80
2, 91667, Note_on_c, 0, 56, 0
2, 91680, Note_on_c, 0, 49, 80
2, 91680, Note_on_c, 0, 61, 80
2, 91907, Note_on_c, 0, 49, 0
2, 91907, Note_on_c, 0, 61, 0
2, 91920, Note_on_c, 0, 56, 80
2, 92147, Note_on_c, 0, 56, 0
2, 92160, Note_on_c, 0, 49, 80
2, 92160, Note_on_c, 0, 61, 80
2, 92387, Note_on_c, 0, 49, 0
2, 92387, Note_on_c, 0, 61, 0
2, 92400, Note_on_c, 0, 56, 80
2, 92627, Note_on_c, 0, 56, 0
2, 92640, Note_on_c, 0, 49, 80
2, 92640, Note_on_c, 0, 61, 80
2, 92867, Note_on_c, 0, 49, 0
2, 92867, Note_on_c, 0, 61, 0
2, 92880, Note_on_c, 0, 56, 80
2, 93107, Note_on_c, 0, 56, 0
2, 93120, Note_on_c, 0, 49, 80
2, 93120, Note_on_c, 0, 61, 80
2, 93347, Note_on_c, 0, 49, 0
2, 93347, Note_on_c, 0, 61, 0
2, 93360, Note_on_c, 0, 57, 80
2, 93587, Note_on_c, 0, 57, 0
2, 93600, Note_on_c, 0, 49, 80
2, 93600, Note_on_c, 0, 61, 80
2, 93827, Note_on_c, 0, 49, 0
2, 93827, Note_on_c, 0, 61, 0
2, 93840, Note_on_c, 0, 57, 80
2, 94067, Note_on_c, 0, 57, 0
2, 94080, Note_on_c, 0, 49, 80
2, 94080, Note_on_c, 0, 61, 80
2, 94307, Note_on_c, 0, 49, 0
2, 94307, Note_on_c, 0, 61, 0
2, 94320, Note_on_c, 0, 57, 80
2, 94547, Note_on_c, 0, 57, 0
2, 94560, Note_on_c, 0, 49, 80
2, 94560, Note_on_c, 0, 61, 80
2, 94787, Note_on_c, 0, 49, 0
2, 94787, Note_on_c, 0, 61, 0
2, 94800, Note_on_c, 0, 57, 80
2, 95027, Note_on_c, 0, 57, 0
2, 95040, Note_on_c, 0, 49, 80
2, 95040, Note_on_c, 0, 61, 80
2, 95267, Note_on_c, 0, 49, 0
2, 95267, Note_on_c, 0, 61, 0
2, 95280, Note_on_c, 0, 57, 80
2, 95507, Note_on_c, 0, 57, 0
2, 95520, Note_on_c, 0, 49, 80
2, 95520, Note_on_c, 0, 61, 80
2, 95747, Note_on_c, 0, 49, 0
2, 95747, Note_on_c, 0, 61, 0
2, 95760, Note_on_c, 0, 57, 80
2, 95987, Note_on_c, 0, 57, 0
2, 96000, Note_on_c, 0, 49, 80
2, 96000, Note_on_c, 0, 61, 80
2, 96479, Note_on_c, 0, 49, 0
2, 96479, Note_on_c, 0, 61, 0
2, 100800, Note_on_c, 0, 52, 80
2, 100800, Note_on_c, 0, 56, 80
2, 101027, Note_on_c, 0, 52, 0
2, 101027, Note_on_c, 0, 56, 0
2, 101040, Note_on_c, 0, 52, 80
2, 101267, Note_on_c, 0, 52, 0
2, 101280, Note_on_c, 0, 56, 80
2, 101507, Note_on_c, 0, 56, 0
2, 101520, Note_on_c, 0, 59, 80
2, 101747, Note_on_c, 0, 59, 0
2, 101760, Note_on_c, 0, 56, 80
2, 101987, Note_on_c, 0, 56, 0
2, 102000, Note_on_c, 0, 52, 80
2, 102227, Note_on_c, 0, 52, 0
2, 102240, Note_on_c, 0, 56, 80
2, 102467, Note_on_c, 0, 56, 0
2, 102480, Note_on_c, 0, 59, 80
2, 102707, Note_on_c, 0, 59, 0
2, 102720, Note_on_c, 0, 52, 80
2, 102720, Note_on_c, 0, 56, 80
2, 102947, Note_on_c, 0, 52, 0
2, 102947, Note_on_c, 0, 56, 0
2, 102960, Note_on_c, 0, 52, 80
2, 103187, Note_on_c, 0, 52, 0
2, 103200, Note_on_c, 0, 56, 80
2, 103427, Note_on_c, 0, 56, 0
2, 103440, Note_on_c, 0, 59, 80
2, 103667, Note_on_c, 0, 59, 0
2, 103680, Note_on_c, 0, 56, 80
2, 103907, Note_on_c, 0, 56, 0
2, 103920, Note_on_c, 0, 52, 80
2, 104147, Note_on_c, 0, 52, 0
2, 104160, Note_on_c, 0, 56, 80
2, 104387, Note_on_c, 0, 56, 0
2, 104400, Note_on_c, 0, 59, 80
2, 104627, Note_on_c, 0, 59, 0
2, 104640, Note_on_c, 0, 52, 80
2, 104640, Note_on_c, 0, 56, 80
2, 104867, Note_on_c, 0, 52, 0
2, 104867, Note_on_c, 0, 56, 0
2, 104880, Note_on_c, 0, 52, 80
2, 105107, Note_on_c, 0, 52, 0
2, 105120, Note_on_c, 0, 56, 80
2, 105347, Note_on_c, 0, 56, 0
2, 105360, Note_on_c, 0, 59, 80
2, 105587, Note_on_c, 0, 59, 0
2, 105600, Note_on_c, 0, 56, 80
2, 105827, Note_on_c, 0, 56, 0
2, 105840, Note_on_c, 0, 52, 80
2, 106067, Note_on_c, 0, 52, 0
2, 106080, Note_on_c, 0, 56, 80
2, 106307, Note_on_c, 0, 56, 0
2, 106320, Note_on_c, 0, 59, 80
2, 106547, Note_on_c, 0, 59, 0
2, 106560, Note_on_c, 0, 52, 80
2, 106560, Note_on_c, 0, 56, 80
2, 106787, Note_on_c, 0, 52, 0
2, 106787, Note_on_c, 0, 56, 0
2, 106800, Note_on_c, 0, 52, 80
2, 107027, Note_on_c, 0, 52, 0
2, 107040, Note_on_c, 0, 56, 80
2, 107267, Note_on_c, 0, 56, 0
2, 107280, Note_on_c, 0, 59, 80
2, 107507, Note_on_c, 0, 59, 0
2, 107520, Note_on_c, 0, 56, 80
2, 107747, Note_on_c, 0, 56, 0
2, 107760, Note_on_c, 0, 52, 80
2, 107987, Note_on_c, 0, 52, 0
2, 108000, Note_on_c, 0, 56, 80
2, 108227, Note_on_c, 0, 56, 0
2, 108240, Note_on_c, 0, 59, 80
2, 108467, Note_on_c, 0, 59, 0
2, 108480, Note_on_c, 0, 51, 80
2, 108480, Note_on_c, 0, 56, 80
2, 108707, Note_on_c, 0, 51, 0
2, 108707, Note_on_c, 0, 56, 0
2, 108720, Note_on_c, 0, 51, 80
2, 108947, Note_on_c, 0, 51, 0
2, 108960, Note_on_c, 0, 56, 80
2, 109187, Note_on_c, 0, 56, 0
2, 109200, Note_on_c, 0, 59, 80
2, 109427, Note_on_c, 0, 59, 0
2, 109440, Note_on_c, 0, 56, 80
2, 109667, Note_on_c, 0, 56, 0
2, 109680, Note_on_c, 0, 51, 80
2, 109907, Note_on_c, 0, 51, 0
2, 109920, Note_on_c, 0, 56, 80
2, 110147, Note_on_c, 0, 56, 0
2, 110160, Note_on_c, 0, 59, 80
2, 110387, Note_on_c, 0, 59, 0
2, 110400, Note_on_c, 0, 51, 80
2, 110400, Note_on_c, 0, 56, 80
2, 110627, Note_on_c, 0, 51, 0
2, 110627, Note_on_c, 0, 56, 0
2, 110640, Note_on_c, 0, 51, 80
2, 110867, Note_on_c, 0, 51, 0
2, 110880, Note_on_c, 0, 56, 80
2, 111107, Note_on_c, 0, 56, 0
2, 111120, Note_on_c, 0, 59, 80
2, 111347, Note_on_c, 0, 59, 0
2, 111360, Note_on_c, 0, 56, 80
2, 111587, Note_on_c, 0, 56, 0
2, 111600, Note_on_c, 0, 51, 80
2, 111827, Note_on_c, 0, 51, 0
2, 111840, Note_on_c, 0, 56, 80
2, 112067, Note_on_c, 0, 56, 0
2, 112080, Note_on_c, 0, 59, 80
2, 112307, Note_on_c, 0, 59, 0
2, 112320, Note_on_c, 0, 51, 80
2, 112320, Note_on_c, 0, 56, 80
2, 112547, Note_on_c, 0, 51, 0
2, 112547, Note_on_c, 0, 56, 0
2, 112560, Note_on_c, 0, 51, 80
2, 112787, Note_on_c, 0, 51, 0
2, 112800, Note_on_c, 0, 56, 80
2, 113027, Note_on_c, 0, 56, 0
2, 113040, Note_on_c, 0, 59, 80
2, 113267, Note_on_c, 0, 59, 0
2, 113280, Note_on_c, 0, 56, 80
2, 113507, Note_on_c, 0, 56, 0
2, 113520, Note_on_c, 0, 51, 80
2, 113747, Note_on_c, 0, 51, 0
2, 113760, Note_on_c, 0, 56, 80
2, 113987, Note_on_c, 0, 56, 0
2, 114000, Note_on_c, 0, 59, 80
2, 114227, Note_on_c, 0, 59, 0
2, 114240, Note_on_c, 0, 51, 80
2, 114240, Note_on_c, 0, 56, 80
2, 114467, Note_on_c, 0, 51, 0
2, 114467, Note_on_c, 0, 56, 0
2, 114480, Note_on_c, 0, 51, 80
2, 114707, Note_on_c, 0, 51, 0
2, 114720, Note_on_c, 0, 56, 80
2, 114947, Note_on_c, 0, 56, 0
2, 114960, Note_on_c, 0, 59, 80
2, 115187, Note_on_c, 0, 59, 0
2, 115200, Note_on_c, 0, 56, 80
2, 115427, Note_on_c, 0, 56, 0
2, 115440, Note_on_c, 0, 51, 80
2, 115667, Note_on_c, 0, 51, 0
2, 115680, Note_on_c, 0, 56, 80
2, 115907, Note_on_c, 0, 56, 0
2, 115920, Note_on_c, 0, 59, 80
2, 116147, Note_on_c, 0, 59, 0
2, 116160, Note_on_c, 0, 52, 80
2, 116160, Note_on_c, 0, 61, 80
2, 116387, Note_on_c, 0, 52, 0
2, 116387, Note_on_c, 0, 61, 0
2, 116400, Note_on_c, 0, 49, 80
2, 116627, Note_on_c, 0, 49, 0
2, 116640, Note_on_c, 0, 52, 80
2, 116867, Note_on_c, 0, 52, 0
2, 116880, Note_on_c, 0, 56, 80
2, 117107, Note_on_c, 0, 56, 0
2, 117120, Note_on_c, 0, 52, 80
2, 117347, Note_on_c, 0, 52, 0
2, 117360, Note_on_c, 0, 49, 80
2, 117587, Note_on_c, 0, 49, 0
2, 117600, Note_on_c, 0, 52, 80
2, 117827, Note_on_c, 0, 52, 0
2, 117840, Note_on_c, 0, 56, 80
2, 118067, Note_on_c, 0, 56, 0
2, 118080, Note_on_c, 0, 52, 80
2, 118080, Note_on_c, 0, 61, 80
2, 118307, Note_on_c, 0, 52, 0
2, 118307, Note_on_c, 0, 61, 0
2, 118320, Note_on_c, 0, 49, 80
2, 118547, Note_on_c, 0, 49, 0
2, 118560, Note_on_c, 0, 52, 80
2, 118787, Note_on_c, 0, 52, 0
2, 118800, Note_on_c, 0, 56, 80
2, 119027, Note_on_c, 0, 56, 0
2, 119040, Note_on_c, 0, 52, 80
2, 119267, Note_on_c, 0, 52, 0
2, 119280, Note_on_c, 0, 49, 80
2, 119507, Note_on_c, 0, 49, 0
2, 119520, Note_on_c, 0, 52, 80
2, 119747, Note_on_c, 0, 52, 0
2, 119760, Note_on_c, 0, 56, 80
2, 119987, Note_on_c, 0, 56, 0
2, 120000, Note_on_c, 0, 52, 80
2, 120000, Note_on_c, 0, 61, 80
2, 120227, Note_on_c, 0, 52, 0
2, 120227, Note_on_c, 0, 61, 0
2, 120240, Note_on_c, 0, 49, 80
2, 120467, Note_on_c, 0, 49, 0
2, 120480, Note_on_c, 0, 52, 80
2, 120707, Note_on_c, 0, 52, 0
2, 120720, Note_on_c, 0, 56, 80
2, 120947, Note_on_c, 0, 56, 0
2, 120960, Note_on_c, 0, 52, 80
2, 121187, Note_on_c, 0, 52, 0
2, 121200, Note_on_c, 0, 49, 80
2, 121427, Note_on_c, 0, 49, 0
2, 121440, Note_on_c, 0, 52, 80
2, 121667, Note_on_c, 0, 52, 0
2, 121680, Note_on_c, 0, 56, 80
2, 121907, Note_on_c, 0, 56, 0
2, 121920, Note_on_c, 0, 52, 80
2, 121920, Note_on_c, 0, 61, 80
2, 122147, Note_on_c, 0, 52, 0
2, 122147, Note_on_c, 0, 61, 0
2, 122160, Note_on_c, 0, 49, 80
2, 122387, Note_on_c, 0, 49, 0
2, 122400, Note_on_c, 0, 52, 80
2, 122627, Note_on_c, 0, 52, 0
2, 122640, Note_on_c, 0, 56, 80
2, 122867, Note_on_c, 0, 56, 0
2, 122880, Note_on_c, 0, 52, 80
2, 123107, Note_on_c, 0, 52, 0
2, 123120, Note_on_c, 0, 49, 80
2, 123347, Note_on_c, 0, 49, 0
2, 123360, Note_on_c, 0, 52, 80
2, 123587, Note_on_c, 0, 52, 0
2, 123600, Note_on_c, 0, 56, 80
2, 123827, Note_on_c, 0, 56, 0
2, 123840, Note_on_c, 0, 52, 80
2, 123840, Note_on_c, 0, 57, 80
2, 124067, Note_on_c, 0, 52, 0
2, 124067, Note_on_c, 0, 57, 0
2, 124080, Note_on_c, 0, 61, 80
2, 124307, Note_on_c, 0, 61, 0
2, 124320, Note_on_c, 0, 61, 80
2, 124547, Note_on_c, 0, 61, 0
2, 124560, Note_on_c, 0, 57, 80
2, 124787, Note_on_c, 0, 57, 0
2, 124800, Note_on_c, 0, 52, 80
2, 125027, Note_on_c, 0, 52, 0
2, 125040, Note_on_c, 0, 61, 80
2, 125267, Note_on_c, 0, 61, 0
2, 125280, Note_on_c, 0, 61, 80
2, 125507, Note_on_c, 0, 61, 0
2, 125520, Note_on_c, 0, 57, 80
2, 125747, Note_on_c, 0, 57, 0
2, 125760, Note_on_c, 0, 52, 80
2, 125987, Note_on_c, 0, 52, 0
2, 126000, Note_on_c, 0, 61, 80
2, 126227, Note_on_c, 0, 61, 0
2, 126240, Note_on_c, 0, 61, 80
2, 126467, Note_on_c, 0, 61, 0
2, 126480, Note_on_c, 0, 57, 80
2, 126707, Note_on_c, 0, 57, 0
2, 126720, Note_on_c, 0, 52, 80
2, 126947, Note_on_c, 0, 52, 0
2, 126960, Note_on_c, 0, 61, 80
2, 127187, Note_on_c, 0, 61, 0
2, 127200, Note_on_c, 0, 61, 80
2, 127427, Note_on_c, 0, 61, 0
2, 127440, Note_on_c, 0, 57, 80
2, 127667, Note_on_c, 0, 57, 0
2, 127680, Note_on_c, 0, 52, 80
2, 127907, Note_on_c, 0, 52, 0
2, 127920, Note_on_c, 0, 61, 80
2, 128147, Note_on_c, 0, 61, 0
2, 128160, Note_on_c, 0, 61, 80
2, 128387, Note_on_c, 0, 61, 0
2, 128400, Note_on_c, 0, 57, 80
2, 128627, Note_on_c, 0, 57, 0
2, 128640, Note_on_c, 0, 52, 80
2, 128867, Note_on_c, 0, 52, 0
2, 128880, Note_on_c, 0, 61, 80
2, 129107, Note_on_c, 0, 61, 0
2, 129120, Note_on_c, 0, 61, 80
2, 129347, Note_on_c, 0, 61, 0
2, 129360, Note_on_c, 0, 57, 80
2, 129587, Note_on_c, 0, 57, 0
2, 129600, Note_on_c, 0, 52, 80
2, 129827, Note_on_c, 0, 52, 0
2, 129840, Note_on_c, 0, 61, 80
2, 130067, Note_on_c, 0, 61, 0
2, 130080, Note_on_c, 0, 61, 80
2, 130307, Note_on_c, 0, 61, 0
2, 130320, Note_on_c, 0, 57, 80
2, 130547, Note_on_c, 0, 57, 0
2, 131520, Note_on_c, 0, 52, 80
2, 131520, Note_on_c, 0, 56, 80
2, 131747, Note_on_c, 0, 52, 0
2, 131747, Note_on_c, 0, 56, 0
2, 131760, Note_on_c, 0, 52, 80
2, 131987, Note_on_c, 0, 52, 0
2, 132000, Note_on_c, 0, 56, 80
2, 132227, Note_on_c, 0, 56, 0
2, 132240, Note_on_c, 0, 59, 80
2, 132467, Note_on_c, 0, 59, 0
2, 132480, Note_on_c, 0, 56, 80
2, 132707, Note_on_c, 0, 56, 0
2, 132720, Note_on_c, 0, 52, 80
2, 132947, Note_on_c, 0, 52, 0
2, 132960, Note_on_c, 0, 56, 80
2, 133187, Note_on_c, 0, 56, 0
2, 133200, Note_on_c, 0, 59, 80
2, 133427, Note_on_c, 0, 59, 0
2, 133440, Note_on_c, 0, 52, 80
2, 133440, Note_on_c, 0, 56, 80
2, 133667, Note_on_c, 0, 52, 0
2, 133667, Note_on_c, 0, 56, 0
2, 133680, Note_on_c, 0, 52, 80
2, 133907, Note_on_c, 0, 52, 0
2, 133920, Note_on_c, 0, 56, 80
2, 134147, Note_on_c, 0, 56, 0
2, 134160, Note_on_c, 0, 59, 80
2, 134387, Note_on_c, 0, 59, 0
2, 134400, Note_on_c, 0, 56, 80
2, 134627, Note_on_c, 0, 56, 0
2, 134640, Note_on_c, 0, 52, 80
2, 134867, Note_on_c, 0, 52, 0
2, 134880, Note_on_c, 0, 56, 80
2, 135107, Note_on_c, 0, 56, 0
2, 135120, Note_on_c, 0, 59, 80
2, 135347, Note_on_c, 0, 59, 0
2, 135360, Note_on_c, 0, 56, 80
2, 135587, Note_on_c, 0, 56, 0
2, 135600, Note_on_c, 0, 51, 80
2, 135827, Note_on_c, 0, 51, 0
2, 135840, Note_on_c, 0, 56, 80
2, 136067, Note_on_c, 0, 56, 0
2, 136080, Note_on_c, 0, 59, 80
2, 136307, Note_on_c, 0, 59, 0
2, 136320, Note_on_c, 0, 56, 80
2, 136547, Note_on_c, 0, 56, 0
2, 136560, Note_on_c, 0, 51, 80
2, 136787, Note_on_c, 0, 51, 0
2, 136800, Note_on_c, 0, 56, 80
2, 137027, Note_on_c, 0, 56, 0
2, 137040, Note_on_c, 0, 59, 80
2, 137267, Note_on_c, 0, 59, 0
2, 137280, Note_on_c, 0, 56, 80
2, 137507, Note_on_c, 0, 56, 0
2, 137520, Note_on_c, 0, 51, 80
2, 137747, Note_on_c, 0, 51, 0
2, 137760, Note_on_c, 0, 56, 80
2, 137987, Note_on_c, 0, 56, 0
2, 138000, Note_on_c, 0, 59, 80
2, 138227, Note_on_c, 0, 59, 0
2, 138240, Note_on_c, 0, 56, 80
2, 138467, Note_on_c, 0, 56, 0
2, 138480, Note_on_c, 0, 51, 80
2, 138707, Note_on_c, 0, 51, 0
2, 138720, Note_on_c, 0, 56, 80
2, 138947, Note_on_c, 0, 56, 0
2, 138960, Note_on_c, 0, 59, 80
2, 139187, Note_on_c, 0, 59, 0
2, 139200, Note_on_c, 0, 56, 80
2, 139427, Note_on_c, 0, 56, 0
2, 139440, Note_on_c, 0, 51, 80
2, 139667, Note_on_c, 0, 51, 0
2, 139680, Note_on_c, 0, 56, 80
2, 139907, Note_on_c, 0, 56, 0
2, 139920, Note_on_c, 0, 59, 80
2, 140147, Note_on_c, 0, 59, 0
2, 140160, Note_on_c, 0, 56, 80
2, 140387, Note_on_c, 0, 56, 0
2, 140400, Note_on_c, 0, 51, 80
2, 140627, Note_on_c, 0, 51, 0
2, 140640, Note_on_c, 0, 56, 80
2, 140867, Note_on_c, 0, 56, 0
2, 140880, Note_on_c, 0, 59, 80
2, 141107, Note_on_c, 0, 59, 0
2, 141120, Note_on_c, 0, 56, 80
2, 141347, Note_on_c, 0, 56, 0
2, 141360, Note_on_c, 0, 51, 80
2, 141587, Note_on_c, 0, 51, 0
2, 141600, Note_on_c, 0, 56, 80
2, 141827, Note_on_c, 0, 56, 0
2, 141840, Note_on_c, 0, 59, 80
2, 142067, Note_on_c, 0, 59, 0
2, 142080, Note_on_c, 0, 52, 80
2, 142080, Note_on_c, 0, 64, 80
2, 142307, Note_on_c, 0, 52, 0
2, 142307, Note_on_c, 0, 64, 0
2, 142320, Note_on_c, 0, 61, 80
2, 142547, Note_on_c, 0, 61, 0
2, 142560, Note_on_c, 0, 52, 80
2, 142560, Note_on_c, 0, 64, 80
2, 142787, Note_on_c, 0, 52, 0
2, 142787, Note_on_c, 0, 64, 0
2, 142800, Note_on_c, 0, 61, 80
2, 143027, Note_on_c, 0, 61, 0
2, 143040, Note_on_c, 0, 52, 80
2, 143040, Note_on_c, 0, 64, 80
2, 143267, Note_on_c, 0, 52, 0
2, 143267, Note_on_c, 0, 64, 0
2, 143280, Note_on_c, 0, 61, 80
2, 143507, Note_on_c, 0, 61, 0
2, 143520, Note_on_c, 0, 52, 80
2, 143520, Note_on_c, 0, 64, 80
2, 143747, Note_on_c, 0, 52, 0
2, 143747, Note_on_c, 0, 64, 0
2, 143760, Note_on_c, 0, 61, 80
2, 143987, Note_on_c, 0, 61, 0
2, 144000, Note_on_c, 0, 52, 80
2, 144000, Note_on_c, 0, 64, 80
2, 144227, Note_on_c, 0, 52, 0
2, 144227, Note_on_c, 0, 64, 0
2, 144240, Note_on_c, 0, 61, 80
2, 144467, Note_on_c, 0, 61, 0
2, 144480, Note_on_c, 0, 52, 80
2, 144480, Note_on_c, 0, 64, 80
2, 144707, Note_on_c, 0, 52, 0
2, 144707, Note_on_c, 0, 64, 0
2, 144720, Note_on_c, 0, 61, 80
2, 144947, Note_on_c, 0, 61, 0
2, 144960, Note_on_c, 0, 52, 80
2, 144960, Note_on_c, 0, 64, 80
2, 145187, Note_on_c, 0, 52, 0
2, 145187, Note_on_c, 0, 64, 0
2, 145200, Note_on_c, 0, 61, 80
2, 145427, Note_on_c, 0, 61, 0
2, 145440, Note_on_c, 0, 52, 80
2, 145440, Note_on_c, 0, 64, 80
2, 145667, Note_on_c, 0, 52, 0
2, 145667, Note_on_c, 0, 64, 0
2, 145680, Note_on_c, 0, 61, 80
2, 145907, Note_on_c, 0, 61, 0
2, 145920, Note_on_c, 0, 52, 80
2, 145920, Note_on_c, 0, 64, 80
2, 146147, Note_on_c, 0, 52, 0
2, 146147, Note_on_c, 0, 64, 0
2, 146160, Note_on_c, 0, 61, 80
2, 146387, Note_on_c, 0, 61, 0
2, 146400, Note_on_c, 0, 52, 80
2, 146400, Note_on_c, 0, 64, 80
2, 146627, Note_on_c, 0, 52, 0
2, 146627, Note_on_c, 0, 64, 0
2, 146640, Note_on_c, 0, 61, 80
2, 146867, Note_on_c, 0, 61, 0
2, 146880, Note_on_c, 0, 52, 80
2, 146880, Note_on_c, 0, 64, 80
2, 147107, Note_on_c, 0, 52, 0
2, 147107, Note_on_c, 0, 64, 0
2, 147120, Note_on_c, 0, 61, 80
2, 147347, Note_on_c, 0, 61, 0
2, 147360, Note_on_c, 0, 52, 80
2, 147360, Note_on_c, 0, 64, 80
2, 147587, Note_on_c, 0, 52, 0
2, 147587, Note_on_c, 0, 64, 0
2, 147600, Note_on_c, 0, 61, 80
2, 147827, Note_on_c, 0, 61, 0
2, 147840, Note_on_c, 0, 52, 80
2, 147840, Note_on_c, 0, 64, 80
2, 148067, Note_on_c, 0, 52, 0
2, 148067, Note_on_c, 0, 64, 0
2, 148080, Note_on_c, 0, 61, 80
2, 148307, Note_on_c, 0, 61, 0
2, 148320, Note_on_c, 0, 52, 80
2, 148320, Note_on_c, 0, 64, 80
2, 148547, Note_on_c, 0, 52, 0
2, 148547, Note_on_c, 0, 64, 0
2, 148560, Note_on_c, 0, 61, 80
2, 148787, Note_on_c, 0, 61, 0
2, 148800, Note_on_c, 0, 52, 80
2, 148800, Note_on_c, 0, 64, 80
2, 149027, Note_on_c, 0, 52, 0
2, 149027, Note_on_c, 0, 64, 0
2, 149040, Note_on_c, 0, 61, 80
2, 149267, Note_on_c, 0, 61, 0
2, 149280, Note_on_c, 0, 52, 80
2, 149280, Note_on_c, 0, 64, 80
2, 149507, Note_on_c, 0, 52, 0
2, 149507, Note_on_c, 0, 64, 0
2, 149520, Note_on_c, 0, 61, 80
2, 149747, Note_on_c, 0, 61, 0
2, 149760, Note_on_c, 0, 52, 80
2, 149760, Note_on_c, 0, 64, 80
2, 149987, Note_on_c, 0, 52, 0
2, 149987, Note_on_c, 0, 64, 0
2, 150000, Note_on_c, 0, 61, 80
2, 150227, Note_on_c, 0, 61, 0
2, 150240, Note_on_c, 0, 52, 80
2, 150240, Note_on_c, 0, 64, 80
2, 150467, Note_on_c, 0, 52, 0
2, 150467, Note_on_c, 0, 64, 0
2, 150480, Note_on_c, 0, 61, 80
2, 150707, Note_on_c, 0, 61, 0
2, 150720, Note_on_c, 0, 52, 80
2, 150720, Note_on_c, 0, 64, 80
2, 150947, Note_on_c, 0, 52, 0
2, 150947, Note_on_c, 0, 64, 0
2, 150960, Note_on_c, 0, 59, 80
2, 151187, Note_on_c, 0, 59, 0
2, 151200, Note_on_c, 0, 52, 80
2, 151200, Note_on_c, 0, 64, 80
2, 151427, Note_on_c, 0, 52, 0
2, 151427, Note_on_c, 0, 64, 0
2, 151440, Note_on_c, 0, 59, 80
2, 151667, Note_on_c, 0, 59, 0
2, 151680, Note_on_c, 0, 52, 80
2, 151680, Note_on_c, 0, 64, 80
2, 151907, Note_on_c, 0, 52, 0
2, 151907, Note_on_c, 0, 64, 0
2, 151920, Note_on_c, 0, 59, 80
2, 152147, Note_on_c, 0, 59, 0
2, 152160, Note_on_c, 0, 52, 80
2, 152160, Note_on_c, 0, 64, 80
2, 152387, Note_on_c, 0, 52, 0
2, 152387, Note_on_c, 0, 64, 0
2, 152400, Note_on_c, 0, 59, 80
2, 152627, Note_on_c, 0, 59, 0
2, 152640, Note_on_c, 0, 52, 80
2, 152640, Note_on_c, 0, 64, 80
2, 152867, Note_on_c, 0, 52, 0
2, 152867, Note_on_c, 0, 64, 0
2, 152880, Note_on_c, 0, 59, 80
2, 153107, Note_on_c, 0, 59, 0
2, 153120, Note_on_c, 0, 52, 80
2, 153120, Note_on_c, 0, 64, 80
2, 153347, Note_on_c, 0, 52, 0
2, 153347, Note_on_c, 0, 64, 0
2, 153360, Note_on_c, 0, 59, 80
2, 153587, Note_on_c, 0, 59, 0
2, 153600, Note_on_c, 0, 52, 80
2, 153600, Note_on_c, 0, 64, 80
2, 153827, Note_on_c, 0, 52, 0
2, 153827, Note_on_c, 0, 64, 0
2, 153840, Note_on_c, 0, 59, 80
2, 154067, Note_on_c, 0, 59, 0
2, 154080, Note_on_c, 0, 52, 80
2, 154080, Note_on_c, 0, 64, 80
2, 154307, Note_on_c, 0, 52, 0
2, 154307, Note_on_c, 0, 64, 0
2, 154320, Note_on_c, 0, 59, 80
2, 154547, Note_on_c, 0, 59, 0
2, 154560, Note_on_c, 0, 52, 80
2, 154560, Note_on_c, 0, 64, 80
2, 154787, Note_on_c, 0, 52, 0
2, 154787, Note_on_c, 0, 64, 0
2, 154800, Note_on_c, 0, 59, 80
2, 155027, Note_on_c, 0, 59, 0
2, 155040, Note_on_c, 0, 52, 80
2, 155040, Note_on_c, 0, 64, 80
2, 155267, Note_on_c, 0, 52, 0
2, 155267, Note_on_c, 0, 64, 0
2, 155280, Note_on_c, 0, 59, 80
2, 155507, Note_on_c, 0, 59, 0
2, 155520, Note_on_c, 0, 52, 80
2, 155520, Note_on_c, 0, 64, 80
2, 155747, Note_on_c, 0, 52, 0
2, 155747, Note_on_c, 0, 64, 0
2, 155760, Note_on_c, 0, 59, 80
2, 155987, Note_on_c, 0, 59, 0
2, 156000, Note_on_c, 0, 52, 80
2, 156000, Note_on_c, 0, 64, 80
2, 156227, Note_on_c, 0, 52, 0
2, 156227, Note_on_c, 0, 64, 0
2, 156240, Note_on_c, 0, 59, 80
2, 156467, Note_on_c, 0, 59, 0
2, 156480, Note_on_c, 0, 52, 80
2, 156480, Note_on_c, 0, 64, 80
2, 156707, Note_on_c, 0, 52, 0
2, 156707, Note_on_c, 0, 64, 0
2, 156720, Note_on_c, 0, 59, 80
2, 156947, Note_on_c, 0, 59, 0
2, 156960, Note_on_c, 0, 52, 80
2, 156960, Note_on_c, 0, 64, 80
2, 157187, Note_on_c, 0, 52, 0
2, 157187, Note_on_c, 0, 64, 0
2, 157200, Note_on_c, 0, 59, 80
2, 157427, Note_on_c, 0, 59, 0
2, 157440, Note_on_c, 0, 52, 80
2, 157440, Note_on_c, 0, 64, 80
2, 157667, Note_on_c, 0, 52, 0
2, 157667, Note_on_c, 0, 64, 0
2, 157680, Note_on_c, 0, 59, 80
2, 157907, Note_on_c, 0, 59, 0
2, 157920, Note_on_c, 0, 51, 80
2, 157920, Note_on_c, 0, 63, 80
2, 158147, Note_on_c, 0, 51, 0
2, 158147, Note_on_c, 0, 63, 0
2, 158160, Note_on_c, 0, 59, 80
2, 158387, Note_on_c, 0, 59, 0
2, 158400, Note_on_c, 0, 51, 80
2, 158400, Note_on_c, 0, 63, 80
2, 158627, Note_on_c, 0, 51, 0
2, 158627, Note_on_c, 0, 63, 0
2, 158640, Note_on_c, 0, 59, 80
2, 158867, Note_on_c, 0, 59, 0
2, 158880, Note_on_c, 0, 51, 80
2, 158880, Note_on_c, 0, 63, 80
2, 159107, Note_on_c, 0, 51, 0
2, 159107, Note_on_c, 0, 63, 0
2, 159120, Note_on_c, 0, 59, 80
2, 159347, Note_on_c, 0, 59, 0
2, 159360, Note_on_c, 0, 51, 80
2, 159360, Note_on_c, 0, 63, 80
2, 159587, Note_on_c, 0, 51, 0
2, 159587, Note_on_c, 0, 63, 0
2, 159600, Note_on_c, 0, 59, 80
2, 159827, Note_on_c, 0, 59, 0
2, 159840, Note_on_c, 0, 51, 80
2, 159840, Note_on_c, 0, 63, 80
2, 160067, Note_on_c, 0, 51, 0
2, 160067, Note_on_c, 0, 63, 0
2, 160080, Note_on_c, 0, 59, 80
2, 160307, Note_on_c, 0, 59, 0
2, 160320, Note_on_c, 0, 51, 80
2, 160320, Note_on_c, 0, 63, 80
2, 160547, Note_on_c, 0, 51, 0
2, 160547, Note_on_c, 0, 63, 0
2, 160560, Note_on_c, 0, 59, 80
2, 160787, Note_on_c, 0, 59, 0
2, 160800, Note_on_c, 0, 51, 80
2, 160800, Note_on_c, 0, 63, 80
2, 161027, Note_on_c, 0, 51, 0
2, 161027, Note_on_c, 0, 63, 0
2, 161040, Note_on_c, 0, 59, 80
2, 161267, Note_on_c, 0, 59, 0
2, 161280, Note_on_c, 0, 51, 80
2, 161280, Note_on_c, 0, 63, 80
2, 161507, Note_on_c, 0, 51, 0
2, 161507, Note_on_c, 0, 63, 0
2, 161520, Note_on_c, 0, 59, 80
2, 161747, Note_on_c, 0, 59, 0
2, 161760, Note_on_c, 0, 49, 80
2, 161760, Note_on_c, 0, 61, 80
2, 161987, Note_on_c, 0, 49, 0
2, 161987, Note_on_c, 0, 61, 0
2, 162000, Note_on_c, 0, 56, 80
2, 162227, Note_on_c, 0, 56, 0
2, 162240, Note_on_c, 0, 49, 80
2, 162240, Note_on_c, 0, 61, 80
2, 162467, Note_on_c, 0, 49, 0
2, 162467, Note_on_c, 0, 61, 0
2, 162480, Note_on_c, 0, 56, 80
2, 162707, Note_on_c, 0, 56, 0
2, 162720, Note_on_c, 0, 49, 80
2, 162720, Note_on_c, 0, 61, 80
2, 162947, Note_on_c, 0, 49, 0
2, 162947, Note_on_c, 0, 61, 0
2, 162960, Note_on_c, 0, 56, 80
2, 163187, Note_on_c, 0, 56, 0
2, 163200, Note_on_c, 0, 49, 80
2, 163200, Note_on_c, 0, 61, 80
2, 163427, Note_on_c, 0, 49, 0
2, 163427, Note_on_c, 0, 61, 0
2, 163440, Note_on_c, 0, 56, 80
2, 163667, Note_on_c, 0, 56, 0
2, 163680, Note_on_c, 0, 49, 80
2, 163680, Note_on_c, 0, 61, 80
2, 163907, Note_on_c, 0, 49, 0
2, 163907, Note_on_c, 0, 61, 0
2, 163920, Note_on_c, 0, 56, 80
2, 164147, Note_on_c, 0, 56, 0
2, 164160, Note_on_c, 0, 49, 80
2, 164160, Note_on_c, 0, 61, 80
2, 164387, Note_on_c, 0, 49, 0
2, 164387, Note_on_c, 0, 61, 0
2, 164400, Note_on_c, 0, 56, 80
2, 164627, Note_on_c, 0, 56, 0
2, 164640, Note_on_c, 0, 49, 80
2, 164640, Note_on_c, 0, 61, 80
2, 164867, Note_on_c, 0, 49, 0
2, 164867, Note_on_c, 0, 61, 0
2, 164880, Note_on_c, 0, 56, 80
2, 165107, Note_on_c, 0, 56, 0
2, 165120, Note_on_c, 0, 49, 80
2, 165120, Note_on_c, 0, 61, 80
2, 165347, Note_on_c, 0, 49, 0
2, 165347, Note_on_c, 0, 61, 0
2, 165360, Note_on_c, 0, 56, 80
2, 165587, Note_on_c, 0, 56, 0
2, 165600, Note_on_c, 0, 49, 80
2, 165600, Note_on_c, 0, 61, 80
2, 165827, Note_on_c, 0, 49, 0
2, 165827, Note_on_c, 0, 61, 0
2, 165840, Note_on_c, 0, 56, 80
2, 166067, Note_on_c, 0, 56, 0
2, 166080, Note_on_c, 0, 49, 80
2, 166080, Note_on_c, 0, 61, 80
2, 166307, Note_on_c, 0, 49, 0
2, 166307, Note_on_c, 0, 61, 0
2, 166320, Note_on_c, 0, 56, 80
2, 166547, Note_on_c, 0, 56, 0
2, 166560, Note_on_c, 0, 49, 80
2, 166560, Note_on_c, 0, 61, 80
2, 166787, Note_on_c, 0, 49, 0
2, 166787, Note_on_c, 0, 61, 0
2, 166800, Note_on_c, 0, 56, 80
2, 167027, Note_on_c, 0, 56, 0
2, 167040, Note_on_c, 0, 49, 80
2, 167040, Note_on_c, 0, 61, 80
2, 167267, Note_on_c, 0, 49, 0
2, 167267, Note_on_c, 0, 61, 0
2, 167280, Note_on_c, 0, 56, 80
2, 167507, Note_on_c, 0, 56, 0
2, 167520, Note_on_c, 0, 49, 80
2, 167520, Note_on_c, 0, 61, 80
2, 167747, Note_on_c, 0, 49, 0
2, 167747, Note_on_c, 0, 61, 0
2, 167760, Note_on_c, 0, 56, 80
2, 167987, Note_on_c, 0, 56, 0
2, 168000, Note_on_c, 0, 49, 80
2, 168000, Note_on_c, 0, 61, 80
2, 168227, Note_on_c, 0, 49, 0
2, 168227, Note_on_c, 0, 61, 0
2, 168240, Note_on_c, 0, 56, 80
2, 168467, Note_on_c, 0, 56, 0
2, 168480, Note_on_c, 0, 49, 80
2, 168480, Note_on_c, 0, 61, 80
2, 168707, Note_on_c, 0, 49, 0
2, 168707, Note_on_c, 0, 61, 0
2, 168720, Note_on_c, 0, 56, 80
2, 168947, Note_on_c, 0, 56, 0
2, 168960, Note_on_c, 0, 49, 80
2, 168960, Note_on_c, 0, 61, 80
2, 169187, Note_on_c, 0, 49, 0
2, 169187, Note_on_c, 0, 61, 0
2, 169200, Note_on_c, 0, 56, 80
2, 169427, Note_on_c, 0, 56, 0
2, 169440, Note_on_c, 0, 49, 80
2, 169440, Note_on_c, 0, 61, 80
2, 169667, Note_on_c, 0, 49, 0
2, 169667, Note_on_c, 0, 61, 0
2, 169680, Note_on_c, 0, 56, 80
2, 169907, Note_on_c, 0, 56, 0
2, 169920, Note_on_c, 0, 49, 80
2, 169920, Note_on_c, 0, 61, 80
2, 170147, Note_on_c, 0, 49, 0
2, 170147, Note_on_c, 0, 61, 0
2, 170160, Note_on_c, 0, 56, 80
2, 170387, Note_on_c, 0, 56, 0
2, 170400, Note_on_c, 0, 49, 80
2, 170400, Note_on_c, 0, 61, 80
2, 170627, Note_on_c, 0, 49, 0
2, 170627, Note_on_c, 0, 61, 0
2, 170640, Note_on_c, 0, 56, 80
2, 170867, Note_on_c, 0, 56, 0
2, 170880, Note_on_c, 0, 49, 80
2, 170880, Note_on_c, 0, 61, 80
2, 171107, Note_on_c, 0, 49, 0
2, 171107, Note_on_c, 0, 61, 0
2, 171120, Note_on_c, 0, 56, 80
2, 171347, Note_on_c, 0, 56, 0
2, 171360, Note_on_c, 0, 49, 80
2, 171360, Note_on_c, 0, 61, 80
2, 171587, Note_on_c, 0, 49, 0
2, 171587, Note_on_c, 0, 61, 0
2, 171600, Note_on_c, 0, 56, 80
2, 171827, Note_on_c, 0, 56, 0
2, 171840, Note_on_c, 0, 49, 80
2, 171840, Note_on_c, 0, 61, 80
2, 172067, Note_on_c, 0, 49, 0
2, 172067, Note_on_c, 0, 61, 0
2, 172080, Note_on_c, 0, 56, 80
2, 172307, Note_on_c, 0, 56, 0
2, 172320, Note_on_c, 0, 49, 80
2, 172320, Note_on_c, 0, 61, 80
2, 172547, Note_on_c, 0, 49, 0
2, 172547, Note_on_c, 0, 61, 0
2, 172560, Note_on_c, 0, 56, 80
2, 172787, Note_on_c, 0, 56, 0
2, 172800, Note_on_c, 0, 49, 80
2, 172800, Note_on_c, 0, 61, 80
2, 173027, Note_on_c, 0, 49, 0
2, 173027, Note_on_c, 0, 61, 0
2, 173040, Note_on_c, 0, 57, 80
2, 173267, Note_on_c, 0, 57, 0
2, 173280, Note_on_c, 0, 49, 80
2, 173280, Note_on_c, 0, 61, 80
2, 173507, Note_on_c, 0, 49, 0
2, 173507, Note_on_c, 0, 61, 0
2, 173520, Note_on_c, 0, 57, 80
2, 173747, Note_on_c, 0, 57, 0
2, 173760, Note_on_c, 0, 49, 80
2, 173760, Note_on_c, 0, 61, 80
2, 173987, Note_on_c, 0, 49, 0
2, 173987, Note_on_c, 0, 61, 0
2, 174000, Note_on_c, 0, 57, 80
2, 174227, Note_on_c, 0, 57, 0
2, 174240, Note_on_c, 0, 49, 80
2, 174240, Note_on_c, 0, 61, 80
2, 174467, Note_on_c, 0, 49, 0
2, 174467, Note_on_c, 0, 61, 0
2, 174480, Note_on_c, 0, 57, 80
2, 174707, Note_on_c, 0, 57, 0
2, 174720, Note_on_c, 0, 49, 80
2, 174720, Note_on_c, 0, 61, 80
2, 174947, Note_on_c, 0, 49, 0
2, 174947, Note_on_c, 0, 61, 0
2, 174960, Note_on_c, 0, 57, 80
2, 175187, Note_on_c, 0, 57, 0
2, 175200, Note_on_c, 0, 49, 80
2, 175200, Note_on_c, 0, 61, 80
2, 175427, Note_on_c, 0, 49, 0
2, 175427, Note_on_c, 0, 61, 0
2, 175440, Note_on_c, 0, 57, 80
2, 175667, Note_on_c, 0, 57, 0
2, 175680, Note_on_c, 0, 49, 80
2, 175680, Note_on_c, 0, 61, 80
2, 175907, Note_on_c, 0, 49, 0
2, 175907, Note_on_c, 0, 61, 0
2, 175920, Note_on_c, 0, 57, 80
2, 176147, Note_on_c, 0, 57, 0
2, 176160, Note_on_c, 0, 49, 80
2, 176160, Note_on_c, 0, 61, 80
2, 176387, Note_on_c, 0, 49, 0
2, 176387, Note_on_c, 0, 61, 0
2, 176400, Note_on_c, 0, 57, 80
2, 176627, Note_on_c, 0, 57, 0
2, 176640, Note_on_c, 0, 49, 80
2, 176640, Note_on_c, 0, 61, 80
2, 176867, Note_on_c, 0, 49, 0
2, 176867, Note_on_c, 0, 61, 0
2, 176880, Note_on_c, 0, 57, 80
2, 177107, Note_on_c, 0, 57, 0
2, 177120, Note_on_c, 0, 49, 80
2, 177120, Note_on_c, 0, 61, 80
2, 177347, Note_on_c, 0, 49, 0
2, 177347, Note_on_c, 0, 61, 0
2, 177360, Note_on_c, 0, 57, 80
2, 177587, Note_on_c, 0, 57, 0
1, 0, Note_on_c, 0, 53, 100
1, 0, Note_on_c, 0, 58, 100
1, 0, Note_on_c, 0, 62, 100
1, 1823, Note_on_c, 0, 53, 0
1, 1823, Note_on_c, 0, 58, 0
1, 1823, Note_on_c, 0, 62, 0
1, 1920, Note_on_c, 0, 52, 100
1, 1920, Note_on_c, 0, 57, 100
1, 1920, Note_on_c, 0, 61, 100
1, 2880, Note_on_c, 0, 55, 83
1, 3743, Note_on_c, 0, 52, 0
1, 3743, Note_on_c, 0, 57, 0
1, 3743, Note_on_c, 0, 61, 0
1, 3791, Note_on_c, 0, 55, 0
1, 3840, Note_on_c, 0, 53, 100
1, 3840, Note_on_c, 0, 57, 100
1, 3840, Note_on_c, 0, 62, 100
1, 5207, Note_on_c, 0, 53, 0
1, 5207, Note_on_c, 0, 57, 0
1, 5207, Note_on_c, 0, 62, 0
1, 5280, Note_on_c, 0, 59, 53
1, 5280, Note_on_c, 0, 64, 53
1, 5280, Note_on_c, 0, 67, 53
1, 5735, Note_on_c, 0, 59, 0
1, 5735, Note_on_c, 0, 64, 0
1, 5735, Note_on_c, 0, 67, 0
1, 5760, Note_on_c, 0, 57, 63
1, 5760, Note_on_c, 0, 62, 63
1, 5760, Note_on_c, 0, 65, 63
1, 5760, Note_on_c, 0, 69, 63
1, 7583, Note_on_c, 0, 57, 0
1, 7583, Note_on_c, 0, 62, 0
1, 7583, Note_on_c, 0, 65, 0
1, 7583, Note_on_c, 0, 69, 0
1, 7680, Note_on_c, 0, 65, 100
1, 7680, Note_on_c, 0, 69, 100
1, 7680, Note_on_c, 0, 74, 100
1, 8363, Note_on_c, 0, 65, 0
1, 8363, Note_on_c, 0, 69, 0
1, 8363, Note_on_c, 0, 74, 0
1, 8400, Note_on_c, 0, 65, 100
1, 8400, Note_on_c, 0, 69, 100
1, 8400, Note_on_c, 0, 74, 100
1, 8779, Note_on_c, 0, 65, 0
1, 8779, Note_on_c, 0, 69, 0
1, 8779, Note_on_c, 0, 74, 0
1, 8800, Note_on_c, 0, 65, 64
1, 8800, Note_on_c, 0, 69, 64
1, 8800, Note_on_c, 0, 73, 64
1, 8875, Note_on_c, 0, 65, 0
1, 8875, Note_on_c, 0, 69, 0
1, 8875, Note_on_c, 0, 73, 0
1, 8880, Note_on_c, 0, 65, 77
1, 8880, Note_on_c, 0, 69, 77
1, 8880, Note_on_c, 0, 74, 77
1, 8999, Note_on_c, 0, 65, 0
1, 8999, Note_on_c, 0, 69, 0
1, 8999, Note_on_c, 0, 74, 0
1, 9120, Note_on_c, 0, 65, 100
1, 9120, Note_on_c, 0, 69, 100
1, 9120, Note_on_c, 0, 74, 100
1, 9575, Note_on_c, 0, 65, 0
1, 9575, Note_on_c, 0, 69, 0
1, 9575, Note_on_c, 0, 74, 0
1, 9600, Note_on_c, 0, 65, 100
1, 9600, Note_on_c, 0, 69, 100
1, 9600, Note_on_c, 0, 74, 100
1, 10283, Note_on_c, 0, 65, 0
1, 10283, Note_on_c, 0, 69, 0
1, 10283, Note_on_c, 0, 74, 0
1, 10320, Note_on_c, 0, 65, 100
1, 10320, Note_on_c, 0, 69, 100
1, 10320, Note_on_c, 0, 74, 100
1, 10775, Note_on_c, 0, 65, 0
1, 10775, Note_on_c, 0, 69, 0
1, 10775, Note_on_c, 0, 74, 0
1, 10800, Note_on_c, 0, 65, 100
1, 10800, Note_on_c, 0, 69, 100
1, 10800, Note_on_c, 0, 74, 100
1, 11255, Note_on_c, 0, 65, 0
1, 11255, Note_on_c, 0, 69, 0
1, 11255, Note_on_c, 0, 74, 0
1, 11280, Note_on_c, 0, 58, 73
1, 11280, Note_on_c, 0, 64, 73
1, 11280, Note_on_c, 0, 67, 73
1, 11507, Note_on_c, 0, 58, 0
1, 11507, Note_on_c, 0, 64, 0
1, 11507, Note_on_c, 0, 67, 0
1, 11520, Note_on_c, 0, 60, 91
1, 11520, Note_on_c, 0, 62, 91
1, 11520, Note_on_c, 0, 65, 91
1, 11520, Note_on_c, 0, 69, 91
1, 12203, Note_on_c, 0, 60, 0
1, 12203, Note_on_c, 0, 62, 0
1, 12203, Note_on_c, 0, 65, 0
1, 12203, Note_on_c, 0, 69, 0
1, 12240, Note_on_c, 0, 64, 100
1, 12240, Note_on_c, 0, 67, 100
1, 12240, Note_on_c, 0, 74, 100
1, 12695, Note_on_c, 0, 64, 0
1, 12695, Note_on_c, 0, 67, 0
1, 12695, Note_on_c, 0, 74, 0
1, 12720, Note_on_c, 0, 64, 100
1, 12720, Note_on_c, 0, 67, 100
1, 12720, Note_on_c, 0, 74, 100
1, 13175, Note_on_c, 0, 64, 0
1, 13175, Note_on_c, 0, 67, 0
1, 13175, Note_on_c, 0, 74, 0
1, 13200, Note_on_c, 0, 58, 73
1, 13200, Note_on_c, 0, 64, 73
1, 13200, Note_on_c, 0, 67, 73
1, 13427, Note_on_c, 0, 58, 0
1, 13427, Note_on_c, 0, 64, 0
1, 13427, Note_on_c, 0, 67, 0
1, 13440, Note_on_c, 0, 60, 91
1, 13440, Note_on_c, 0, 62, 91
1, 13440, Note_on_c, 0, 65, 91
1, 13440, Note_on_c, 0, 69, 91
1, 14123, Note_on_c, 0, 60, 0
1, 14123, Note_on_c, 0, 62, 0
1, 14123, Note_on_c, 0, 65, 0
1, 14123, Note_on_c, 0, 69, 0
1, 14160, Note_on_c, 0, 64, 100
1, 14160, Note_on_c, 0, 67, 100
1, 14160, Note_on_c, 0, 74, 100
1, 14615, Note_on_c, 0, 64, 0
1, 14615, Note_on_c, 0, 67, 0
1, 14615, Note_on_c, 0, 74, 0
1, 14640, Note_on_c, 0, 64, 100
1, 14640, Note_on_c, 0, 67, 100
1, 14640, Note_on_c, 0, 74, 100
1, 14880, Note_on_c, 0, 62, 64
1, 14939, Note_on_c, 0, 62, 0
1, 15000, Note_on_c, 0, 62, 64
1, 15119, Note_on_c, 0, 62, 0
1, 15240, Note_on_c, 0, 62, 89
1, 15299, Note_on_c, 0, 62, 0
1, 15323, Note_on_c, 0, 64, 0
1, 15323, Note_on_c, 0, 67, 0
1, 15323, Note_on_c, 0, 74, 0
1, 15360, Note_on_c, 0, 65, 100
1, 15360, Note_on_c, 0, 69, 100
1, 15360, Note_on_c, 0, 74, 100
1, 16043, Note_on_c, 0, 65, 0
1, 16043, Note_on_c, 0, 69, 0
1, 16043, Note_on_c, 0, 74, 0
1, 16080, Note_on_c, 0, 65, 100
1, 16080, Note_on_c, 0, 69, 100
1, 16080, Note_on_c, 0, 74, 100
1, 16459, Note_on_c, 0, 65, 0
1, 16459, Note_on_c, 0, 69, 0
1, 16459, Note_on_c, 0, 74, 0
1, 16480, Note_on_c, 0, 65, 64
1, 16480, Note_on_c, 0, 69, 64
1, 16480, Note_on_c, 0, 73, 64
1, 16555, Note_on_c, 0, 65, 0
1, 16555, Note_on_c, 0, 69, 0
1, 16555, Note_on_c, 0, 73, 0
1, 16560, Note_on_c, 0, 65, 74
1, 16560, Note_on_c, 0, 69, 74
1, 16560, Note_on_c, 0, 74, 74
1, 16679, Note_on_c, 0, 65, 0
1, 16679, Note_on_c, 0, 69, 0
1, 16679, Note_on_c, 0, 74, 0
1, 16800, Note_on_c, 0, 65, 100
1, 16800, Note_on_c, 0, 69, 100
1, 16800, Note_on_c, 0, 74, 100
1, 17255, Note_on_c, 0, 65, 0
1, 17255, Note_on_c, 0, 69, 0
1, 17255, Note_on_c, 0, 74, 0
1, 17280, Note_on_c, 0, 65, 100
1, 17280, Note_on_c, 0, 69, 100
1, 17280, Note_on_c, 0, 74, 100
1, 17963, Note_on_c, 0, 65, 0
1, 17963, Note_on_c, 0, 69, 0
1, 17963, Note_on_c, 0, 74, 0
1, 18000, Note_on_c, 0, 65, 100
1, 18000, Note_on_c, 0, 69, 100
1, 18000, Note_on_c, 0, 74, 100
1, 18455, Note_on_c, 0, 65, 0
1, 18455, Note_on_c, 0, 69, 0
1, 18455, Note_on_c, 0, 74, 0
1, 18480, Note_on_c, 0, 65, 100
1, 18480, Note_on_c, 0, 69, 100
1, 18480, Note_on_c, 0, 74, 100
1, 18935, Note_on_c, 0, 65, 0
1, 18935, Note_on_c, 0, 69, 0
1, 18935, Note_on_c, 0, 74, 0
1, 18960, Note_on_c, 0, 58, 73
1, 18960, Note_on_c, 0, 64, 73
1, 18960, Note_on_c, 0, 67, 73
1, 19187, Note_on_c, 0, 58, 0
1, 19187, Note_on_c, 0, 64, 0
1, 19187, Note_on_c, 0, 67, 0
1, 19200, Note_on_c, 0, 60, 91
1, 19200, Note_on_c, 0, 62, 91
1, 19200, Note_on_c, 0, 65, 91
1, 19200, Note_on_c, 0, 69, 91
1, 19883, Note_on_c, 0, 60, 0
1, 19883, Note_on_c, 0, 62, 0
1, 19883, Note_on_c, 0, 65, 0
1, 19883, Note_on_c, 0, 69, 0
1, 19920, Note_on_c, 0, 64, 100
1, 19920, Note_on_c, 0, 67, 100
1, 19920, Note_on_c, 0, 74, 100
1, 20375, Note_on_c, 0, 64, 0
1, 20375, Note_on_c, 0, 67, 0
1, 20375, Note_on_c, 0, 74, 0
1, 20400, Note_on_c, 0, 64, 100
1, 20400, Note_on_c, 0, 67, 100
1, 20400, Note_on_c, 0, 74, 100
1, 20855, Note_on_c, 0, 64, 0
1, 20855, Note_on_c, 0, 67, 0
1, 20855, Note_on_c, 0, 74, 0
1, 20880, Note_on_c, 0, 58, 73
1, 20880, Note_on_c, 0, 64, 73
1, 20880, Note_on_c, 0, 67, 73
1, 21107, Note_on_c, 0, 58, 0
1, 21107, Note_on_c, 0, 64, 0
1, 21107, Note_on_c, 0, 67, 0
1, 21120, Note_on_c, 0, 60, 91
1, 21120, Note_on_c, 0, 62, 91
1, 21120, Note_on_c, 0, 65, 91
1, 21120, Note_on_c, 0, 69, 91
1, 21803, Note_on_c, 0, 60, 0
1, 21803, Note_on_c, 0, 62, 0
1, 21803, Note_on_c, 0, 65, 0
1, 21803, Note_on_c, 0, 69, 0
1, 21840, Note_on_c, 0, 64, 100
1, 21840, Note_on_c, 0, 67, 100
1, 21840, Note_on_c, 0, 74, 100
1, 22295, Note_on_c, 0, 64, 0
1, 22295, Note_on_c, 0, 67, 0
1, 22295, Note_on_c, 0, 74, 0
1, 22320, Note_on_c, 0, 64, 100
1, 22320, Note_on_c, 0, 67, 100
1, 22320, Note_on_c, 0, 74, 100
1, 22560, Note_on_c, 0, 62, 64
1, 22619, Note_on_c, 0, 62, 0
1, 22680, Note_on_c, 0, 62, 64
1, 22799, Note_on_c, 0, 62, 0
1, 22920, Note_on_c, 0, 62, 89
1, 22979, Note_on_c, 0, 62, 0
1, 23003, Note_on_c, 0, 64, 0
1, 23003, Note_on_c, 0, 67, 0
1, 23003, Note_on_c, 0, 74, 0
1, 23040, Note_on_c, 0, 65, 100
1, 23040, Note_on_c, 0, 69, 100
1, 23040, Note_on_c, 0, 74, 100
1, 23723, Note_on_c, 0, 65, 0
1, 23723, Note_on_c, 0, 69, 0
1, 23723, Note_on_c, 0, 74, 0
1, 23760, Note_on_c, 0, 65, 100
1, 23760, Note_on_c, 0, 69, 100
1, 23760, Note_on_c, 0, 74, 100
1, 24139, Note_on_c, 0, 65, 0
1, 24139, Note_on_c, 0, 69, 0
1, 24139, Note_on_c, 0, 74, 0
1, 24160, Note_on_c, 0, 65, 64
1, 24160, Note_on_c, 0, 69, 64
1, 24160, Note_on_c, 0, 73, 64
1, 24235, Note_on_c, 0, 65, 0
1, 24235, Note_on_c, 0, 69, 0
1, 24235, Note_on_c, 0, 73, 0
1, 24240, Note_on_c, 0, 65, 91
1, 24240, Note_on_c, 0, 69, 91
1, 24240, Note_on_c, 0, 74, 91
1, 24359, Note_on_c, 0, 65, 0
1, 24359, Note_on_c, 0, 69, 0
1, 24359, Note_on_c, 0, 74, 0
1, 24480, Note_on_c, 0, 65, 100
1, 24480, Note_on_c, 0, 69, 100
1, 24480, Note_on_c, 0, 74, 100
1, 24935, Note_on_c, 0, 65, 0
1, 24935, Note_on_c, 0, 69, 0
1, 24935, Note_on_c, 0, 74, 0
1, 24960, Note_on_c, 0, 65, 100
1, 24960, Note_on_c, 0, 69, 100
1, 24960, Note_on_c, 0, 74, 100
1, 25643, Note_on_c, 0, 65, 0
1, 25643, Note_on_c, 0, 69, 0
1, 25643, Note_on_c, 0, 74, 0
1, 25680, Note_on_c, 0, 65, 100
1, 25680, Note_on_c, 0, 69, 100
1, 25680, Note_on_c, 0, 74, 100
1, 26135, Note_on_c, 0, 65, 0
1, 26135, Note_on_c, 0, 69, 0
1, 26135, Note_on_c, 0, 74, 0
1, 26160, Note_on_c, 0, 65, 100
1, 26160, Note_on_c, 0, 69, 100
1, 26160, Note_on_c, 0, 74, 100
1, 26615, Note_on_c, 0, 65, 0
1, 26615, Note_on_c, 0, 69, 0
1, 26615, Note_on_c, 0, 74, 0
1, 26640, Note_on_c, 0, 58, 73
1, 26640, Note_on_c, 0, 64, 73
1, 26640, Note_on_c, 0, 67, 73
1, 26867, Note_on_c, 0, 58, 0
1, 26867, Note_on_c, 0, 64, 0
1, 26867, Note_on_c, 0, 67, 0
1, 26880, Note_on_c, 0, 60, 91
1, 26880, Note_on_c, 0, 62, 91
1, 26880, Note_on_c, 0, 65, 91
1, 26880, Note_on_c, 0, 69, 91
1, 27563, Note_on_c, 0, 60, 0
1, 27563, Note_on_c, 0, 62, 0
1, 27563, Note_on_c, 0, 65, 0
1, 27563, Note_on_c, 0, 69, 0
1, 27600, Note_on_c, 0, 64, 100
1, 27600, Note_on_c, 0, 67, 100
1, 27600, Note_on_c, 0, 74, 100
1, 28055, Note_on_c, 0, 64, 0
1, 28055, Note_on_c, 0, 67, 0
1, 28055, Note_on_c, 0, 74, 0
1, 28080, Note_on_c, 0, 64, 100
1, 28080, Note_on_c, 0, 67, 100
1, 28080, Note_on_c, 0, 74, 100
1, 28535, Note_on_c, 0, 64, 0
1, 28535, Note_on_c, 0, 67, 0
1, 28535, Note_on_c, 0, 74, 0
1, 28560, Note_on_c, 0, 58, 73
1, 28560, Note_on_c, 0, 64, 73
1, 28560, Note_on_c, 0, 67, 73
1, 28787, Note_on_c, 0, 58, 0
1, 28787, Note_on_c, 0, 64, 0
1, 28787, Note_on_c, 0, 67, 0
1, 28800, Note_on_c, 0, 60, 91
1, 28800, Note_on_c, 0, 62, 91
1, 28800, Note_on_c, 0, 65, 91
1, 28800, Note_on_c, 0, 69, 91
1, 29483, Note_on_c, 0, 60, 0
1, 29483, Note_on_c, 0, 62, 0
1, 29483, Note_on_c, 0, 65, 0
1, 29483, Note_on_c, 0, 69, 0
1, 29520, Note_on_c, 0, 64, 100
1, 29520, Note_on_c, 0, 67, 100
1, 29520, Note_on_c, 0, 74, 100
1, 29975, Note_on_c, 0, 64, 0
1, 29975, Note_on_c, 0, 67, 0
1, 29975, Note_on_c, 0, 74, 0
1, 30000, Note_on_c, 0, 64, 100
1, 30000, Note_on_c, 0, 67, 100
1, 30000, Note_on_c, 0, 74, 100
1, 30240, Note_on_c, 0, 62, 64
1, 30299, Note_on_c, 0, 62, 0
1, 30360, Note_on_c, 0, 62, 64
1, 30479, Note_on_c, 0, 62, 0
1, 30600, Note_on_c, 0, 62, 90
1, 30659, Note_on_c, 0, 62, 0
1, 30683, Note_on_c, 0, 64, 0
1, 30683, Note_on_c, 0, 67, 0
1, 30683, Note_on_c, 0, 74, 0
1, 30720, Note_on_c, 0, 55, 100
1, 30720, Note_on_c, 0, 58, 100
1, 30720, Note_on_c, 0, 62, 100
1, 32543, Note_on_c, 0, 55, 0
1, 32543, Note_on_c, 0, 58, 0
1, 32543, Note_on_c, 0, 62, 0
1, 32640, Note_on_c, 0, 64, 73
1, 32640, Note_on_c, 0, 67, 73
1, 32640, Note_on_c, 0, 70, 73
1, 32640, Note_on_c, 0, 74, 73
1, 34463, Note_on_c, 0, 64, 0
1, 34463, Note_on_c, 0, 67, 0
1, 34463, Note_on_c, 0, 70, 0
1, 34463, Note_on_c, 0, 74, 0
1, 34560, Note_on_c, 0, 69, 100
1, 34560, Note_on_c, 0, 74, 100
1, 34560, Note_on_c, 0, 65, 100
1, 35471, Note_on_c, 0, 65, 0
1, 35520, Note_on_c, 0, 65, 115
1, 36383, Note_on_c, 0, 69, 0
1, 36383, Note_on_c, 0, 74, 0
1, 36431, Note_on_c, 0, 65, 0
1, 36480, Note_on_c, 0, 69, 100
1, 36480, Note_on_c, 0, 72, 100
1, 36480, Note_on_c, 0, 65, 100
1, 37391, Note_on_c, 0, 65, 0
1, 37440, Note_on_c, 0, 65, 115
1, 37847, Note_on_c, 0, 69, 0
1, 37847, Note_on_c, 0, 72, 0
1, 37895, Note_on_c, 0, 65, 0
1, 37920, Note_on_c, 0, 64, 100
1, 37920, Note_on_c, 0, 67, 100
1, 37920, Note_on_c, 0, 74, 100
1, 37979, Note_on_c, 0, 64, 0
1, 37979, Note_on_c, 0, 67, 0
1, 37979, Note_on_c, 0, 74, 0
1, 38040, Note_on_c, 0, 64, 100
1, 38040, Note_on_c, 0, 67, 100
1, 38040, Note_on_c, 0, 74, 100
1, 38159, Note_on_c, 0, 64, 0
1, 38159, Note_on_c, 0, 67, 0
1, 38159, Note_on_c, 0, 74, 0
1, 38280, Note_on_c, 0, 64, 100
1, 38280, Note_on_c, 0, 67, 100
1, 38280, Note_on_c, 0, 74, 100
1, 40217, Note_on_c, 0, 64, 0
1, 40217, Note_on_c, 0, 67, 0
1, 40217, Note_on_c, 0, 74, 0
1, 40320, Note_on_c, 0, 64, 100
1, 40320, Note_on_c, 0, 69, 100
1, 41280, Note_on_c, 0, 67, 76
1, 42143, Note_on_c, 0, 64, 0
1, 42143, Note_on_c, 0, 69, 0
1, 42191, Note_on_c, 0, 67, 0
1, 42240, Note_on_c, 0, 53, 100
1, 42240, Note_on_c, 0, 57, 100
1, 42240, Note_on_c, 0, 62, 100
1, 43607, Note_on_c, 0, 53, 0
1, 43607, Note_on_c, 0, 57, 0
1, 43607, Note_on_c, 0, 62, 0
1, 43680, Note_on_c, 0, 58, 106
1, 43680, Note_on_c, 0, 64, 106
1, 43680, Note_on_c, 0, 67, 106
1, 44135, Note_on_c, 0, 58, 0
1, 44135, Note_on_c, 0, 64, 0
1, 44135, Note_on_c, 0, 67, 0
1, 44160, Note_on_c, 0, 57, 89
1, 44160, Note_on_c, 0, 62, 89
1, 44160, Note_on_c, 0, 69, 89
1, 45983, Note_on_c, 0, 57, 0
1, 45983, Note_on_c, 0, 62, 0
1, 45983, Note_on_c, 0, 69, 0
2, 0, Note_on_c, 1, 46, 100
2, 1823, Note_on_c, 1, 46, 0
2, 1920, Note_on_c, 1, 45, 100
2, 3743, Note_on_c, 1, 45, 0
2, 3840, Note_on_c, 1, 50, 100
2, 7487, Note_on_c, 1, 50, 0
2, 7680, Note_on_c, 1, 50, 100
2, 8363, Note_on_c, 1, 50, 0
2, 8400, Note_on_c, 1, 50, 100
2, 8779, Note_on_c, 1, 50, 0
2, 8800, Note_on_c, 1, 49, 64
2, 8875, Note_on_c, 1, 49, 0
2, 8880, Note_on_c, 1, 50, 77
2, 8999, Note_on_c, 1, 50, 0
2, 9120, Note_on_c, 1, 50, 100
2, 9575, Note_on_c, 1, 50, 0
2, 9600, Note_on_c, 1, 50, 100
2, 10283, Note_on_c, 1, 50, 0
2, 10320, Note_on_c, 1, 50, 100
2, 10775, Note_on_c, 1, 50, 0
2, 10800, Note_on_c, 1, 50, 100
2, 11255, Note_on_c, 1, 50, 0
2, 11280, Note_on_c, 1, 55, 73
2, 11507, Note_on_c, 1, 55, 0
2, 11520, Note_on_c, 1, 57, 91
2, 12203, Note_on_c, 1, 57, 0
2, 12240, Note_on_c, 1, 55, 100
2, 12695, Note_on_c, 1, 55, 0
2, 12720, Note_on_c, 1, 55, 100
2, 13175, Note_on_c, 1, 55, 0
2, 13200, Note_on_c, 1, 55, 73
2, 13427, Note_on_c, 1, 55, 0
2, 13440, Note_on_c, 1, 57, 91
2, 14123, Note_on_c, 1, 57, 0
2, 14160, Note_on_c, 1, 55, 100
2, 14615, Note_on_c, 1, 55, 0
2, 14640, Note_on_c, 1, 55, 100
2, 14880, Note_on_c, 1, 57, 64
2, 14939, Note_on_c, 1, 57, 0
2, 15000, Note_on_c, 1, 57, 76
2, 15119, Note_on_c, 1, 57, 0
2, 15240, Note_on_c, 1, 57, 89
2, 15299, Note_on_c, 1, 57, 0
2, 15323, Note_on_c, 1, 55, 0
2, 15360, Note_on_c, 1, 50, 100
2, 16043, Note_on_c, 1, 50, 0
2, 16080, Note_on_c, 1, 50, 100
2, 16459, Note_on_c, 1, 50, 0
2, 16480, Note_on_c, 1, 49, 64
2, 16555, Note_on_c, 1, 49, 0
2, 16560, Note_on_c, 1, 50, 74
2, 16679, Note_on_c, 1, 50, 0
2, 16800, Note_on_c, 1, 50, 100
2, 17255, Note_on_c, 1, 50, 0
2, 17280, Note_on_c, 1, 50, 100
2, 17963, Note_on_c, 1, 50, 0
2, 18000, Note_on_c, 1, 50, 100
2, 18455, Note_on_c, 1, 50, 0
2, 18480, Note_on_c, 1, 50, 100
2, 18935, Note_on_c, 1, 50, 0
2, 18960, Note_on_c, 1, 55, 73
2, 19187, Note_on_c, 1, 55, 0
2, 19200, Note_on_c, 1, 57, 91
2, 19883, Note_on_c, 1, 57, 0
2, 19920, Note_on_c, 1, 55, 100
2, 20375, Note_on_c, 1, 55, 0
2, 20400, Note_on_c, 1, 55, 100
2, 20855, Note_on_c, 1, 55, 0
2, 20880, Note_on_c, 1, 55, 73
2, 21107, Note_on_c, 1, 55, 0
2, 21120, Note_on_c, 1, 57, 91
2, 21803, Note_on_c, 1, 57, 0
2, 21840, Note_on_c, 1, 55, 100
2, 22295, Note_on_c, 1, 55, 0
2, 22320, Note_on_c, 1, 55, 100
2, 22560, Note_on_c, 1, 57, 64
2, 22619, Note_on_c, 1, 57, 0
2, 22680, Note_on_c, 1, 57, 77
2, 22799, Note_on_c, 1, 57, 0
2, 22920, Note_on_c, 1, 57, 89
2, 22979, Note_on_c, 1, 57, 0
2, 23003, Note_on_c, 1, 55, 0
2, 23040, Note_on_c, 1, 50, 100
2, 23723, Note_on_c, 1, 50, 0
2, 23760, Note_on_c, 1, 50, 100
2, 24139, Note_on_c, 1, 50, 0
2, 24160, Note_on_c, 1, 49, 64
2, 24235, Note_on_c, 1, 49, 0
2, 24240, Note_on_c, 1, 50, 91
2, 24359, Note_on_c, 1, 50, 0
2, 24480, Note_on_c, 1, 50, 100
2, 24935, Note_on_c, 1, 50, 0
2, 24960, Note_on_c, 1, 50, 100
2, 25643, Note_on_c, 1, 50, 0
2, 25680, Note_on_c, 1, 50, 100
2, 26135, Note_on_c, 1, 50, 0
2, 26160, Note_on_c, 1, 50, 100
2, 26615, Note_on_c, 1, 50, 0
2, 26640, Note_on_c, 1, 55, 73
2, 26867, Note_on_c, 1, 55, 0
2, 26880, Note_on_c, 1, 57, 91
2, 27563, Note_on_c, 1, 57, 0
2, 27600, Note_on_c, 1, 55, 100
2, 28055, Note_on_c, 1, 55, 0
2, 28080, Note_on_c, 1, 55, 100
2, 28535, Note_on_c, 1, 55, 0
2, 28560, Note_on_c, 1, 55, 73
2, 28787, Note_on_c, 1, 55, 0
2, 28800, Note_on_c, 1, 57, 91
2, 29483, Note_on_c, 1, 57, 0
2, 29520, Note_on_c, 1, 55, 100
2, 29975, Note_on_c, 1, 55, 0
2, 30000, Note_on_c, 1, 55, 100
2, 30240, Note_on_c, 1, 57, 64
2, 30299, Note_on_c, 1, 57, 0
2, 30360, Note_on_c, 1, 57, 79
2, 30479, Note_on_c, 1, 57, 0
2, 30600, Note_on_c, 1, 57, 90
2, 30659, Note_on_c, 1, 57, 0
2, 30683, Note_on_c, 1, 55, 0
2, 30720, Note_on_c, 1, 52, 100
2, 32543, Note_on_c, 1, 52, 0
2, 32640, Note_on_c, 1, 43, 73
2, 34463, Note_on_c, 1, 43, 0
2, 34560, Note_on_c, 1, 50, 100
2, 35280, Note_on_c, 1, 62, 57
2, 35507, Note_on_c, 1, 62, 0
2, 36000, Note_on_c, 1, 62, 57
2, 36227, Note_on_c, 1, 62, 0
2, 36240, Note_on_c, 1, 62, 57
2, 36383, Note_on_c, 1, 50, 0
2, 36467, Note_on_c, 1, 62, 0
2, 36480, Note_on_c, 1, 62, 57
2, 37163, Note_on_c, 1, 62, 0
2, 37200, Note_on_c, 1, 62, 56
2, 37655, Note_on_c, 1, 62, 0
2, 37680, Note_on_c, 1, 62, 47
2, 37907, Note_on_c, 1, 62, 0
2, 37920, Note_on_c, 1, 46, 100
2, 37979, Note_on_c, 1, 46, 0
2, 38040, Note_on_c, 1, 46, 100
2, 38219, Note_on_c, 1, 46, 0
2, 38400, Note_on_c, 1, 46, 100
2, 40223, Note_on_c, 1, 46, 0
2, 40320, Note_on_c, 1, 45, 100
2, 42143, Note_on_c, 1, 45, 0
2, 42240, Note_on_c, 1, 50, 100
2, 43607, Note_on_c, 1, 50, 0
2, 44160, Note_on_c, 1, 50, 89
2, 45983, Note_on_c, 1, 50, 0
